<?xml version="1.0" encoding="utf-8"?>
<!-- Generator: Adobe Illustrator 19.1.0, SVG Export Plug-In . SVG Version: 6.00 Build 0)  -->
<svg version="1.1" id="Layer_1" xmlns="http://www.w3.org/2000/svg" xmlns:xlink="http://www.w3.org/1999/xlink" x="0px" y="0px"
	 viewBox="-114 -98.7 612 792" style="enable-background:new -114 -98.7 612 792;" xml:space="preserve">
<style type="text/css">
	.st0{fill:#FCFAFA;}
</style>
<g>
	<path class="st0" d="M300.6,44.9c2.8,3,5.6,6.1,8.4,9.1c0.5,0.5,1,1.1,1.1,1.8c0.2,0.9-0.5,1.9-1.4,2.2
		c-5.1-4.8-10.1-9.9-14.8-15.1C295.7,41,298.9,43,300.6,44.9z"/>
	<path class="st0" d="M260.7,7.6c4.1,1.9,6.8,6.5,6.5,11c-1.7-0.1-3.6-0.2-4.9-1.2s-1.7-3.5-0.2-4.4c0.9-0.5,0.6-2.1-0.3-2.5
		s-2.1-0.1-2.9,0.4c-2.7,1.8-3.5,5.8-1.7,8.5s5.9,3.5,8.5,1.6c1.1,1.5-0.8,3.4-2.5,3.9c-4.8,1.2-10.1-2.5-10.8-7.3
		C251.7,12.8,255.9,7.8,260.7,7.6z"/>
	<path class="st0" d="M111.1,320.8c-8.9,14.5-20.9,27.1-34.9,36.8c4.9-1.6,10.2-3.2,15.2-1.6s8.7,7.7,5.9,12.1
		c9.8-2.5,20-3.1,29.9-1.7c6.2,0.8,14.1,5.9,11.1,11.4c15.2-0.1,29.2-8.2,41.2-17.5c32.4-25.2,55.9-61.6,65.5-101.5
		c-7.8,52.7-44.3,100.2-93.2,121.3c-3.9,1.7-8.1,3.2-12.2,2.2s-7.4-5.8-5.5-9.5c-10.1-4.4-21.9-4.9-32.3-1.4c-6,2-12.2-6.5-8.4-11.6
		c-6,0.6-12,1.1-17.9,1.7c-1.4,0.1-3.2,0.1-3.9-1.2c-0.7-1.4,0.5-2.9,1.7-4c11.1-10.3,22.2-20.7,33.3-31
		c-15.6,5.9-31.8,10.1-48.2,12.5c5.8-9.9,13.5-18.6,22.6-25.5c-4.2,8.7-10.4,16.4-18,22.3C79.1,329.9,95.1,325.4,111.1,320.8z"/>
	<path class="st0" d="M304,521.9c-3,1.4-6.3-0.9-8.8-3c-9.5-8.3-18.8-16.7-28-25.3c1-0.9,2.5-0.3,3.7,0.4c12,7.3,19.5,22,33.2,25.3
		c1-2.1-1-4.4-2.9-5.9c-10.4-8.2-20.7-16.4-31.1-24.7c1.8-1.4,4.4,0,6.2,1.4c7.9,6,15.9,12,23.8,17.9c2.3,1.8,4.7,3.6,5.9,6.3
		C307.2,517,306.6,520.7,304,521.9z"/>
	<path class="st0" d="M276.2,149.3c35.1,35.4,43.9,91.3,30.6,139.2c-4.1,14.8-10.1,29.1-16,43.3c-6.2,14.8-12.4,29.5-18.6,44.3
		c-4.4,10.6-9.5,21.9-19.4,27.7c22.8-39.1,40.5-81.2,52.5-124.8c11.7-42.6,0.4-90.8-29-123.7c-22.1-24.7-21.1-66.6,2.2-90.2
		c-7.1,13.3-13.4,27.4-15,42.3C261.8,122.4,265.5,138.6,276.2,149.3z"/>
	<path class="st0" d="M48.7,288.2c9-13.9,22.4-24.3,35.8-33.9c29.7-21.1,61.2-39.8,94-55.7c14.2-6.9,29.4-13.9,38.6-26.8
		c7.9-11.1,10.2-25.2,11.1-38.8c1-16,0.4-32-2-47.9c-2.6-17.4-7.1-34.7-6.3-52.2c0.9-17.5,8.5-36.1,24.1-44.1s39,0.1,41.6,17.4
		c2.3,15.5,16.2,26,27.2,37.1s20,28.8,11.2,41.7c-10.6-8.6-23-15.1-36.1-18.8c-6.7-1.9-13.9-3.3-19-8.1c-5.1-4.7-6.4-14.4-0.5-18.1
		c7-4.4,8.8-13.6,9.8-21.8c1.4-11.1,0.8-25.2-9.5-29.7c-4.8-2.1-10.3-1.2-15.2,0.6c-15.8,5.6-28,20.3-30.6,36.8
		c-2,12.5,1,25.2,3.3,37.6c3.4,18.3,5.3,36.9,5.6,55.6c0.4,20.7-1.8,43.2-15.5,58.8c-9,10.4-22,16.4-34.3,22.5
		C146.2,218,111.8,238.7,79.4,262c-12.6,9-25.3,19-32,33c-9,18.6-6.5,43-21.3,57.5c4.7-3.5,11.5,3.1,10.4,8.8
		c-1.1,5.8-6.4,9.6-11.3,12.9c46.1,12.3,91.9,25.6,137.4,40.1c0.9-5.6,6.3-10.2,12-10.1c5.7,0,11,4.7,11.8,10.3
		c8.7,0.7,17.7,1.3,26-1.3c8.4-2.5,16.1-9,17.6-17.6c0.8-4.8,8.2-5.6,11.7-2.3s4.2,8.7,4.6,13.6c1.7,18.5,3.3,37,5,55.5
		c1,11.4,14.3,17.2,25.7,18.1c11.4,0.9,23.9-0.4,33.2,6.2c-7.1-0.6-14.2-1.2-21.4-1.9c5.5,4.5,12.8,6.7,19.9,6.1
		c-12.8,9.5-33.3-15.4-44.6-4.2c-21.3-21.4-21.3-55.3-20-85.4c0.2-5.6-9.1-6.8-12.4-2.3s-2.3,10.7-1.1,16.2
		c4.3,20.1,8.7,40.3,13,60.4c-5.5,0.5-11.2-0.8-16-3.6c4,10.3,19.5,10.3,26.2,19.1c9.3,12.2-3,33.8,8.7,43.6
		c-2.6-14.5-2.1-29.5,1.4-43.8c0.4,16.1,0.8,32.2,1.3,48.3c-8.7-1.7-11.6-12.7-11.2-21.5c0.4-8.8,1.9-18.8-3.9-25.5
		c-4.2-4.8-10.9-6.2-16.5-9.2s-10.6-9.8-7.5-15.3c4.2,2.6,9.1,4,14,3.9c-4-16.8-7.9-33.7-11.9-50.5c-0.5-2-1.1-4.2-2.7-5.4
		c-1.7-1.3-4.1-1.1-6.3-0.9c-11,1.2-22,2.3-33,3.5c-3.6,30.9-7.2,61.8-10.9,92.8c-0.6,5.5-1.2,11.2,0.9,16.3
		c2.2,5.1,8.1,8.9,13.2,6.8c19.5-8.2,44-2.7,58.1,13.1c-17.4-1.1-35-0.9-52.4,0.5c19.3,3.7,41.4,9.5,49.4,27.5
		c-18.7-6.2-37.4-12.4-56.1-18.6c1.6,9.7,1.8,19.6,0.7,29.4c-0.6,5-2,10.6-6.4,12.9s-11.4-2.7-8.6-6.9c6.2-9.5,3.6-22.7-3.1-31.9
		c-6.8-9.1-16.9-15.1-26.7-20.9c3.8-4.9,11.9-5.6,16.5-1.4c4.9-37,5.1-74.7,0.4-111.7c-0.3-2.3-0.6-4.7-2-6.6
		c-1.7-2.2-4.5-3.3-7.1-4.1c-43.1-14.5-86.7-27.2-130.9-38c5.2-6.3,9.6-13.3,13-20.7c-3.4-0.2-6.9-0.5-10.3-0.7
		c3.2-10.4,6.4-20.8,9.6-31.3C37.6,312.1,41.6,299.3,48.7,288.2 M196.8,555c13.9,5.1,27.7,10.1,41.6,15.2
		c-11-16.1-36.1-12.9-52.4-23.6c17.9-4.3,36.7-4.9,54.8-1.8c-15.2-10.6-35.7-13.2-53.1-6.8c-5.9,2.2-12.5-2.4-14.9-8.2
		s-1.8-12.3-1.1-18.6c3.2-28.8,6.5-57.5,9.7-86.3c0.8-7.1-0.8-17.2-8-17.1c-7.1,0.1-8.6,10.1-7.9,17.2c3.6,33.6,4.2,67.4,1.8,101.1
		c-0.3,4.5-0.8,9.5-4,12.8c-3.1,3.3-9.7,3.5-11.5-0.7c3.3,11.1,20.6,11.3,26,21.5c1.9,3.6,2,7.8,2,11.8c0.1,9,0.2,18.1,0.3,27.1
		c6.7-11.5,7.9-26,3.2-38.4c-1.1-2.8,1.5-6,4.5-6.6C190.9,552.9,193.9,554,196.8,555 M287.5,61.6c14,2.3,24.5,13.8,37.5,19.6
		c0.4-20-13.8-37.2-29.1-50c-5-4.2-10.6-8.6-11.7-15c-0.8-4.6,0.5-10.2-2.9-13.3c-4,8.1,3.5,18.3,0,26.6c-2.1,4.8-7.2,7.5-10.2,11.8
		c-3.5,5.1-3.2,13,1.7,16.7C276.7,61.1,282.4,60.8,287.5,61.6z"/>
</g>
</svg>
