<?xml version="1.0" encoding="utf-8"?>
<!-- Generator: Adobe Illustrator 19.1.0, SVG Export Plug-In . SVG Version: 6.00 Build 0)  -->
<svg version="1.1" id="Layer_1" xmlns="http://www.w3.org/2000/svg" xmlns:xlink="http://www.w3.org/1999/xlink" x="0px" y="0px"
	 viewBox="54 -102.7 950 800" style="enable-background:new 54 -102.7 950 800;" xml:space="preserve">
<style type="text/css">
	.st0{fill:#FCFCFC;}
	.st1{fill:#FFFFFF;}
</style>
<g>
	<path class="st0" d="M472.2,554.2c-39.6,12.4-82.7,13.6-123,3.4c-4.6-1.2-9.8-7.4-5.4-9.3c27.8-0.8,55.5-6.4,81.5-16.4
		c-31-13.9-51.2-46.6-55.2-80.4c-3.9-33.8,6.7-68,24.3-97.1c17.6-29.1,41.7-53.6,66.7-76.7c18.1-16.6,36.9-32.9,51-53
		c11.8-16.9,20.1-36.3,33.4-52c21.7-25.5,54.8-39.1,76.5-64.6c17.6-20.8,26.8-48.6,48.1-65.7c20.9-16.8,49.6-20,76.4-18.4
		c26.8,1.5,53.5,7,80.2,4.9c12-1,18.1,14.6,16.8,26.5c-3.5,32.2-31.7,56.7-61.4,69.5c-16.5,7.1-17.9,29.4-20.4,47.2
		c-3.9,27.6-16.4,53.2-22.5,80.4c-9.8,43.9-1.8,91.1,19.4,130.7s55.3,71.9,94.8,93.4c-31,11.1-65.7,11.5-97,1.1
		c-9.6-3.2-18.9-7.4-28.9-8.7c-15.4-1.9-23.4-19-28.6-33.6c-27.9,34.2-67.7,58.4-110.9,67.4c33.4,21,68.7,41.6,107.9,46.2
		c8.6,1,18.6,2,23.1,9.3c-27.2,1.7-54.3,3.5-81.5,5.2c-18.8,1.2-37.9,2.4-56.2-2.1c-21.4-5.2-41.1-18.1-63.1-18.4
		C502.5,543.1,487.4,549.5,472.2,554.2 M573.8,496.2c3.2-14.6-0.5-30.6-9.8-42.4c-3.4-4.3-6.5-12.5-1.1-13.6
		c13,15.5,20.5,35.5,20.8,55.7c30.6-10.9,60-25.4,87.3-43.1c5.8-3.8,11.8-7.9,15.2-13.9c3.5-6,3.7-14.5-1.4-19.3
		c-6.5-6.2-19.8-5.2-22.1-13.9c24.9,4.2,46.6,23.7,53.5,48c1,3.5,4.8,5.2,8.2,6.5c36.4,13.7,77.3,27.4,113.1,12.2
		c-44.1-23.1-79.3-62.8-96.9-109.4c-17.6-46.6-17.3-99.7,0.6-146.1c9-23.3,14.8-47.9,17.1-72.9c1-11.2,11.6-18.6,21.1-24.6
		c12.8-7.9,25.5-15.9,38.3-23.8c-10,4.9-20.9,7.9-32,8.8c10.5-6.8,21.1-13.6,31.6-20.5c5.3-3.4,10.7-7,14.2-12.3
		c3.4-5.3,4.3-12.8,0.3-17.7c-2.2-2.7-5.9-6.2-3.6-8.9c2.6-2.9,0.4-7.9-3.2-9.6c-3.5-1.7-7.7-1.1-11.6-0.7
		c-23,2.4-46.2-2.3-69.3-3.8c-23.1-1.6-47.9,0.5-66.5,14.3c-14.1,10.5-22.9,26.4-32.7,41c-17,25.3-38,48-62,66.7
		c-10.8,8.4-22.2,16.1-31.6,26.1c-15.2,16.3-23.7,37.7-36.4,56.1c-19.6,28.4-48.6,48.9-72.6,73.7c-18,18.7-33.3,40-45.1,63.1
		c-13.5,26.3-22.8,56-19.1,85.4c3.6,29.4,22.3,58.1,50.4,67.4c8.7,2.9,18.2-1.7,25.4-7.4c7.2-5.7,13.6-12.8,22.1-16.2
		c3.6,4-0.9,10.1-5.1,13.3c-25.4,19.5-55.2,33.2-86.5,39.9c27.1,2.6,54.7,0.2,81-7c20.6-5.6,41.4-14.3,62.5-11.2
		c9.4,1.4,18.3,5.1,27.3,8.2c36.1,12.3,75.4,15,112.8,7.5c-43.9-18.1-86.2-39.8-126.5-64.9C553,485.4,564.9,488.9,573.8,496.2z"/>
	<path class="st1" d="M688.9,108.2c-2.4,0.8-5.6,1.3-6.8-0.9c-1.3-2.4,1.3-4.8,3.5-6.4c4.9-3.6,9.2-8.1,12.6-13.2
		c1.6-2.4,4.3-5.4,6.9-3.9c2.3,1.3,1.5,4.9-0.2,7s-4,4-4,6.7C700.8,103.2,694.3,106.4,688.9,108.2z"/>
	<path class="st1" d="M736.8,69.1c-2.5-2.1-2.2-6.1-0.8-9c3.1-6.7,10.1-11.3,17.4-11.9c7.4-0.6,14.8,2.7,19.7,8.2
		c1,1.1,1.5,3.3,0,3.5c-5.8,0.8-9.4,6.6-14.1,9.9C752.5,74.5,743,74.1,736.8,69.1 M753.1,60.1c0.8-0.6,1.3-1.5,1.5-2.5
		c-1-1.3-2.9-1.9-4.5-1.4C748.8,57.9,751.1,60.9,753.1,60.1L753.1,60.1z"/>
</g>
</svg>
