<?xml version="1.0" encoding="utf-8"?>
<!-- Generator: Adobe Illustrator 19.1.0, SVG Export Plug-In . SVG Version: 6.00 Build 0)  -->
<svg version="1.1" id="Layer_1" xmlns="http://www.w3.org/2000/svg" xmlns:xlink="http://www.w3.org/1999/xlink" x="0px" y="0px"
	 viewBox="-114 -98.7 612 792" style="enable-background:new -114 -98.7 612 792;" xml:space="preserve">
<style type="text/css">
	.st0{fill:#FFFFFF;}
	.st1{fill:none;stroke:#FFFFFF;stroke-width:2;stroke-miterlimit:10;}
</style>
<g>
	<path class="st0" d="M250,245.4L250,245.4"/>
	<path class="st0" d="M125,338.6c0.8-1,2.6-0.2,2.9,1.1s-0.4,2.5-1,3.6c-1.2-1-1.8-2.8-1.2-4.3L125,338.6z"/>
	<path class="st0" d="M287.9,12.5c19.1,43.9,24.8,93.6,16.1,140.7c-1.8,9.7-4.3,19.5-10,27.5c-9,12.5-24.3,18.5-39.1,22.7
		c-28.7,8.1-58.7,11.8-88.6,10.8c-10-0.3-20-1.2-29.6-4c-25.6-7.6-45.4-29-56.3-53.4s-13.8-51.5-14.2-78.2C66,66,66.5,52.7,73,41.9
		c3.1-5.1,7.4-9.4,11.8-13.6c22.9-21.7,49.3-40.5,79.3-50.5c29.9-10.1,63.7-10.9,92.5,2.2c8,3.6,15.7,8.4,21.4,15.1
		C282.2,0.3,285.2,6.4,287.9,12.5 M112.1,195.8c15.7,12,36.6,14.9,56.4,15.5c21.7,0.7,43.6-0.8,65-4.5c22.7-3.9,47-11.5,59.9-30.7
		c6.2-9.3,9.1-20.4,10.7-31.5c4.2-29.8-0.6-60-5.3-89.7c-1.8-11.3-3.7-22.7-8.1-33.2c-14.9-34.8-56.8-52.1-94.4-48.1
		S125.1-1.2,95.8,22.8c-6.7,5.5-13.4,11.4-18.1,18.7c-6.6,10.5-8.5,23.3-8.9,35.8c-1.1,31.4,6.4,63,21.3,90.6
		C95.7,178.4,102.6,188.5,112.1,195.8L112.1,195.8z"/>
	<path class="st0" d="M129.6,314.9c-0.1,2.2-0.2,4.3-0.3,6.5c-2.4-1.4-2.4-5.4-0.1-6.9L129.6,314.9z"/>
	<path class="st0" d="M192.9-67.1c-7.8,1.7-14.6,6.1-22,9.2c-7.3,3.1-16.2,4.7-23,0.6c7.9,0.7,15.9-0.5,23.2-3.4
		c7.8-3.1,14.8-8.2,23-9.9c13.6-2.7,27.1,4.6,40.8,6.8c9.7,1.6,19.6,0.5,29.4,1.2c9.8,0.6,20.1,3.2,26.7,10.5
		c9.4,10.3,10.4,28.7,23.5,33.7c17.3,6.5,27.1,28.1,20.7,45.4c-0.1-8.3-0.2-16.9-3-24.7c-2.8-7.9-8.8-15.1-17-17
		c-15.6-3.7-15-27.6-27.7-37.4c-5.1-4-11.8-5.1-18.2-6c-17.8-2.7-35.7-5.5-53.5-8.2C208.2-67.6,200.4-68.7,192.9-67.1z"/>
	<path class="st0" d="M128.5,329.9c0.3,1.2,0.1,2.6-0.5,3.7c-2.2-3-2.2-7.3,0-10.3C128.6,325.4,128.8,327.7,128.5,329.9L128.5,329.9
		z"/>
	<path class="st0" d="M96.8-20.5C82.4-1.2,51.2,1.8,40.9,23.6c-7.8,16.6,0.4,36.5-3.1,54.5c-2.7,13.6-12,25.7-11.9,39.6
		c0.1,20.5,20.3,35.6,24.7,55.6c1.6,7.2,1,14.7,1.6,22.1c0.6,7.4,2.7,15.1,8.3,20c5.6,4.8,15.5,5,19.6-1.2
		c3.4,10.4,7.5,21.1,15.8,28.1s22.3,8.5,29.5,0.3c11.3,17.3,36.3,24,54.7,14.6c8.7-4.5,16.4-12.1,26.2-12.3
		c10.5-0.2,21.5,8.3,30.6,3c4-2.3,6.2-6.7,9.4-10.1c12.5-13.3,34.8-7.1,52-13.1c15.2-5.3,25.8-21.4,24.7-37.4
		c-0.9-12.8,15.1-22.9,12.5-35.5c-0.8-3.8-3.2-7-4.7-10.7c-8.6-21.9,21.6-45.3,12.7-67c-1.7-4.2-4.7-7.7-6.8-11.7
		c-5-9.4-4.7-21.4,0.9-30.4c-4,12-1.6,26,6,36.1c8.2,10.9,2.8,26.3-3,38.6c-5.9,12.3-11.9,27.3-4.5,38.8c3.6,5.6,2.5,13-0.1,19
		c-2.6,6.1-6.6,11.5-8.7,17.8c-2.2,6.7-2.3,13.9-4.2,20.6c-3.6,12.5-14,22.7-26.6,26c-14.4,3.8-31.2-0.7-43.5,7.7
		c-7.4,5-12.2,14.3-20.9,16.1c-9.6,2-19-6.1-28.7-4.8c-6.7,0.9-11.9,6.2-17.6,9.9c-17.5,11.6-43.4,8.2-57.3-7.6
		c-2.1-2.4-5.8-1.3-8.9-0.6c-18.5,4.6-39.2-11.5-39.1-30.6c-10,5.4-24.1,0.8-29-9.5c-4.5-9.3-1.6-20.4-3-30.6
		c-3.1-22.4-26.4-39.2-25.8-61.8c0.4-14.4,10.6-26.7,12.8-40.9c2.1-13.3-2.8-26.9-0.6-40.2C38,17.1,54.8,3.5,71.6-5.7
		c7-3.8,14.3-7.3,19.9-13c6.9-7.1,10.3-16.8,15.8-24.9c5.6-8.1,15.3-15.2,24.7-12.2c-8.7,1.2-16.9,5.9-22.3,12.9
		C104.7-36,102-27.4,96.8-20.5z"/>
	<path class="st0" d="M201.6,460.6c1.3-0.6,3-0.1,3.7,1.2s0.1,3-1.2,3.5C202.4,464.4,201.3,462.4,201.6,460.6L201.6,460.6z"/>
	<path class="st0" d="M283.5,490.6c-10.6-71-21.1-142.1-31.7-213.1c-1.5-9.9-2.9-19.9-2.6-29.9C262.1,328.3,274.9,409.2,283.5,490.6
		z"/>
	<path class="st0" d="M123.7,373.9c-0.8-2.9-0.3-6.1,1.3-8.7c0.9,3.7,0.9,7.5,0.2,11.2C124.1,377,123.5,375.1,123.7,373.9
		L123.7,373.9z"/>
	<path class="st0" d="M201.2,461.1c-14-26-26.9-52.6-38.6-79.7c-11,15.8-20.6,32.6-28.8,50c-3.4,7.2-6.7,14.8-12.7,19.9
		c-4.1-2.8-4.1-8.6-3.7-13.5c1.2-14.3,2.4-28.6,3.6-43c0.4-5.1,0.9-10.3,3.3-14.8c-1.5,18.6-3,37.2-4.5,55.7
		c-0.3,4.3-0.5,9.1,2.7,12c8.8-19,18.4-37.6,29-55.8c3.2-5.6,6.7-11.2,11.8-15.1c10.4,21.6,20.7,43.2,31.1,64.8
		C197.3,448,200.3,454.3,201.2,461.1z"/>
	<path class="st0" d="M126.7,353.9c-0.2,1.9-0.5,3.7-0.7,5.6c-2.3-3.3-2.3-8-0.1-11.3c0.7,1.8,0.9,3.8,0.6,5.7L126.7,353.9
		L126.7,353.9z"/>
	<path class="st0" d="M212.5,70.3c1.5,16.7,2.9,33.3,4.4,50c0.3,3.2-1.1,8-4.2,7.1c-4.8-1.4-10.1-0.4-14.1,2.6
		c-0.1,8,0.6,16,2.1,23.8c18.4-1.4,36.7-2.8,55.1-4.2c2.1-0.2,4.3-0.4,5.9-1.8c1.9-1.7,2.2-4.5,2.4-7c0.5-6.7-0.2-15.3-6.5-17.7
		c-2.3-0.8-5.2-0.8-6.5-2.9c-0.6-0.9-0.6-2-0.7-3.1c-1.6-29.1-3.2-58.3-4.8-87.4c-13.2,0.8-26.5,1.6-39.7,2.4
		c11.3-2.2,22.6-4.3,33.9-6.5c1.9-0.4,3.9-0.7,5.6,0.1c3.1,1.4,3.7,5.5,3.9,8.9c1.3,26.1,2.7,52.3,4,78.4c0.1,2.5,0.8,5.7,3.3,6.2
		c4.8,0.9,8.3,5.3,9.6,10c1.3,4.7,0.9,9.7,0.5,14.6c-0.2,2.7-0.7,5.7-2.9,7.3c-1.4,1-3.2,1.2-4.9,1.3c-19.1,1.5-38.3,3-57.4,4.5
		c-0.9,0.1-1.8,0.1-2.5-0.4c-0.8-0.6-1.1-1.7-1.3-2.7c-0.8-4.9-1.7-9.8-2.5-14.7c-0.5-3-1-6.1,0.1-8.9c2.5-6.5,11.3-7.3,18.2-7
		c-1.7-18.3-3.3-36.6-5-55c-5.4,1.1-10.8,2.3-16.2,3.4c-2.3,0.5-5.2,0.8-6.5-1.2c-0.9-1.3-0.7-3-0.3-4.6
		c2.5-11.7,9.2-22.5,18.6-30.1c-6.5,10.2-13.2,20.7-15,32.6c5.2-1,10.4-2,15.6-3c2.5-0.5,5.6-0.8,7.1,1.3
		C212.2,67.9,212.4,69.2,212.5,70.3z"/>
	<path class="st0" d="M238.7,428.7c-1.3-1.4-0.4-4.1,1.5-4.4c0.9,1.8,1.7,3.7,2.2,5.6c-1.2,1.1-3.5,0.6-4.1-0.9L238.7,428.7z"/>
	<path class="st0" d="M210.3,468c-2.4-10.6-4.8-21.3-5.3-32.1c-0.5-9.9,0.6-19.8,1.7-29.7c4.6-40.7,9.1-81.3,13.7-122
		c1.1-9.8,2.3-19.8,6.8-28.6c-4.2,42.6-9.3,85.2-15.3,127.6c-5.8,41-1.8,83.4,11.5,122.6c1.6,4.8,2.9,11.2-1.3,14.1
		C218.2,502.6,214.2,485.3,210.3,468z"/>
	<path class="st0" d="M130.9,263.3c0.1-1.9,1-4.4,2.8-4.1c-0.3,17.6-1.8,35.1-4.2,52.6c-0.4-7.1-0.5-14.2-0.2-21.3
		c0.1-3.1,0.3-6.3,0.5-9.4C130.1,275.1,130.5,269.2,130.9,263.3z"/>
	<path class="st0" d="M281.9,494.8c4.9,4.5,7.4,11.5,6.4,18.1c-14.8-25.1-29.6-50.3-44.4-75.4c-1.2-2.1-2.3-5.2-0.3-6.6
		c10.7,18.4,21.4,36.8,32,55.2C277.5,489.2,279.3,492.3,281.9,494.8z"/>
	<path class="st0" d="M149.2,94c0.7,2.2,0.6,4.5,0.4,6.8c-0.3,3.4-0.5,6.7-0.8,10.1c-0.1,0.9-0.2,2-0.9,2.6
		c-0.6,0.5-1.5,0.6-2.3,0.7c-4.2,0.3-8.3,0.7-12.5,1c-1.1,0.1-2.2,0.2-3.2-0.4c-1.2-0.7-1.7-2.1-2.1-3.4c-1.2-4.6-1.6-9.5,0-14
		c1.5-4.5,5.2-8.4,9.8-9.4C142.3,87,147.7,89.5,149.2,94 M133.8,111.5c3.2-0.4,6.3-0.8,9.5-1.1c1.3-0.2,2.9-0.7,2.8-2
		c-0.4-5.1-0.7-10.1-1.1-15.2c-3.2-3.8-9.9-2.7-12.9,1.3s-2.8,9.5-1.2,14.3C131.4,110.1,132.4,111.7,133.8,111.5z"/>
	<path class="st0" d="M232.4,463c1.6-9.5,3.2-19.1,4.8-28.6c1.2,1.4,1.2,3.5,1.1,5.4c-1.6,22.6-5.4,45.1-11.1,67.1
		c-1.4-4.6-0.6-9.6,0.2-14.4c1.1-6.3,2.1-12.6,3.2-19C231.2,470,231.8,466.5,232.4,463z"/>
	<path class="st0" d="M161.4,93.6c1,3.4,0,7,0.5,10.5s3.9,7.1,7.1,5.7c1.8-0.8,3.1,1.7,3.5,3.6c0.7,3.3,1.3,6.8,0.2,9.9
		c-1.1,3.2-4.6,5.7-7.8,4.6c-2.5-1-5.1,1.8-5.6,4.4c-0.5,2.7,0,5.5-0.9,8.1c-1,3.1-4.1,5.4-7.4,5.4c-3.3,0-6.4-2.3-7.4-5.3
		c-1.4-4.2,0.2-10.3-3.9-12.1c-2.5-1.1-5.5,0.8-6.6,3.2s-0.9,5.3-0.6,8c0.3,3-1.8,6.1-4.6,7c-2.9,0.9-6.3-0.5-7.8-3.1
		c-1.5-2.8-0.9-6.2-1.2-9.4c-0.2-3.2-2.4-6.9-5.5-6.5c-4.2,0.4-8.6-2.4-9.4-6.5s2.6-8.7,6.8-8.5c3,0.1,5.7-2.9,5.2-5.9
		c-0.4-3-3.8-5.1-6.6-4.2c-3.7,1.1-7.8-1.8-8.6-5.6c-0.8-3.8,1.4-7.7,4.6-9.9s7.2-2.7,11.1-2.3c0.4-5.7-1.2-11.6,0.2-17.2
		s7.8-10.6,12.7-7.6c3,1.9,4,5.8,3.9,9.4c0,2-0.3,4.1,0.4,6c0.7,1.9,2.6,3.6,4.5,3.1c1.6-0.4,2.6-2,3-3.6c1.1-3.9,0-8.1,0.8-12.1
		c0.7-4,4.9-8,8.5-6.1c6.1,3.2-0.8,15.7,5.4,18.6c4.2,1.9,10.9-2.9,13,1.2c0.3,0.6,0.4,1.3,0.5,1.9c0.5,3.5,1,7.1-0.2,10.4
		C168.2,91.7,164.8,94.4,161.4,93.6 M156.3,130.5c-0.6-2.7,2.4-4.9,5.2-5.5s5.9-0.5,8-2.3c3.2-2.9,0.7-9.4-3.6-9.3
		c-4.6,0.1-6.7-5.6-7.6-10.1c-1-5.2-0.9-12.2,4.2-13.7c2.3-0.7,4.5-2.2,5.5-4.5c0.9-2.2,0.3-5.2-1.7-6.5c-3.3-2.1-7.9,0.8-11.6-0.5
		c-3.5-1.3-4.6-5.7-4.6-9.4c-0.1-3.7,0.2-7.8-2.2-10.7c-2.7,5.1-3.5,11.2-2.1,16.9c0.8,3.4-3.6,5.4-7.1,6.1c-1.4,0.3-2.9,0.5-4.2,0
		c-3.4-1.1-3.9-5.6-3.6-9.2c0.2-3.5,0-7.9-3.2-9.5c-3.7-1.8-7.8,2.4-8.3,6.4s0.9,8.1,0.7,12.2s-3.4,8.6-7.4,7.8
		c-3.2-0.7-7,0.9-7.9,4s2.4,6.9,5.5,5.7c3.4-1.3,7.3,1.5,8.4,5s0.3,7.3-0.6,10.9c-2.7,0-5.5,0-7.7,1.5s-3.2,5-1.2,6.8
		c2.3,2.1,6.2,0.2,9.2,1.4c2.2,0.9,3.3,3.5,3.5,5.9s-0.2,4.8,0.2,7.2s1.7,4.9,4,5.5c2.3,0.6,5.1-1.9,4-4c-1.6-3.2-1.3-7.3,0.9-10.3
		c2.1-2.9,6-4.5,9.5-3.9c1.3,0.2,2.5,0.7,3.5,1.6c4.3,4,0.5,13.6,6,15.6c2.5,0.9,5.4-0.9,6.4-3.4
		C157.2,135.9,156.9,133.1,156.3,130.5z"/>
</g>
<line class="st1" x1="122.8" y1="387.7" x2="129.9" y2="303.8"/>
</svg>
