<?xml version="1.0" encoding="utf-8"?>
<!-- Generator: Adobe Illustrator 19.1.0, SVG Export Plug-In . SVG Version: 6.00 Build 0)  -->
<svg version="1.1" id="Layer_1" xmlns="http://www.w3.org/2000/svg" xmlns:xlink="http://www.w3.org/1999/xlink" x="0px" y="0px"
	 viewBox="54 -102.7 950 800" style="enable-background:new 54 -102.7 950 800;" xml:space="preserve">
<style type="text/css">
	.st0{fill:#FFFFFF;}
</style>
<g>
	<path class="st0" d="M514.8,339.4c-2-1.9-3.4-4.6-2.9-7.3c0.5-2.7,3.3-5,5.9-4.2c2.5,0.7,3.6,3.6,4.4,6.1c0.7,2.2,1.3,5-0.5,6.7
		C519.8,342.4,516.6,341.2,514.8,339.4z"/>
	<path class="st0" d="M461,162.1c45.7,1.3,92.7,16.2,136.1,1.7c18.8-6.3,39.1-4.3,58.8-2.2c41.4,4.3,82.7,8.6,124.1,12.9
		c5.3,0.5,10.8,1.2,15.1,4.3c4.3,3.1,6.6,9.6,3.4,13.9c6.6-0.6,13.4-1.2,19.7,0.9s11.9,7.7,11.9,14.3c-0.4,70.8-0.8,141.6-1.2,212.3
		c-0.1,9.2-1.6,20.6-10.2,23.8c-52.6,19-105.3,38-157.9,57c-6.2,2.2-12.9,4.5-19.2,2.5c-109.8-34.1-224.2-53.5-331.3-95.2
		c1.1-69.9-1.1-139.8-6.6-209.5c-0.8-10.6,12.3-15.9,22.7-18c11.2-2.2,22.4-4.4,33.6-6.6C393.3,167.7,427,161.1,461,162.1
		 M465.8,169c-41.1-2.1-82.1,5.3-122.6,12.6c-6.6,1.2-13.4,2.5-19.2,6c58.3,13,116.6,25.9,175,38.9c49.2,10.9,98.8,21.9,149.2,24.1
		c3.8,0.2,7.6,0.3,11.2-1.1c29.4-11,58.8-22,88.2-33c-34.2,4.7-68,12.7-100.8,23.7c-2.8,0.9-5.6,1.9-8.5,2.3
		c-4.7,0.7-9.4-0.1-14.1-1c-50.9-8.8-101.8-17.5-152.7-26.3c-8.8-1.5-10.7-14.7-4.9-21.5s15.4-8.6,24.3-9.6s18.4-2,25.1-7.9
		C499.5,172.2,482.7,169.8,465.8,169 M317.9,349c0.2,15.1,0.3,30.1,0.5,45.2c0,3.5,0.2,7.3,2.5,9.8c1.7,1.9,4.3,2.7,6.7,3.5
		c9.6,3,19.2,6,28.8,9c1.1,0.4,2.5,0.7,3.4,0c0.8-0.6,1-1.8,1.1-2.9c1-11.2,2-22.4,3-33.6c5.5,5.2,3.9,14.1,2.9,21.6
		s0.2,17.2,7.4,19.4c22.3,6.7,44.7,13.4,67.1,20.1c-0.1-4.9,1.2-9.8,3.6-14c1.1,8.8,8.1,15.8,16.2,19.5s17,4.4,25.8,5.1
		c2,0.2,4.8-0.3,4.8-2.3c1.5-51.5,4.7-103,9.4-154.3c4.5,11,4,23.3,3.5,35.2c-1.7,40.6-3.4,81.2-5.1,121.8c-0.1,3.3,3.8,5,7.1,5.8
		c27.5,6.6,55.1,13.3,82.6,19.9c1.1,0.3,2.5,0.5,3.3-0.4c0.5-0.6,0.6-1.4,0.6-2.2c3-50.5,6-100.9,9-151.4c0.2-3.5,0.3-7.3-1.9-9.9
		c-1.9-2.3-5-3.1-7.8-3.9c-29.4-7.3-59-13.7-88.7-19.1c0.8-4.2,6.6-4.6,10.7-3.9c32.2,5.1,64,12.5,95.2,22.1
		c-2.2,54.6-4.4,109.2-6.6,163.7c-0.1,2.4-0.2,5,1.1,7.1c1.6,2.5,4.7,3.5,7.6,4.3c8.9,2.5,17.9,5,26.8,7.5
		c2.2-63.4,4.5-126.9,6.7-190.3c0.1-1.5,0.1-3-0.8-4.2c-0.8-1.1-2.3-1.6-3.6-1.9c-98.6-27.5-197.4-53.8-296.6-78.9
		c-1.2,7.5-1.8,15.1-1.8,22.7c0,1.9,0.1,3.8,1.1,5.4c1.4,2.1,4,2.8,6.4,3.3c24.5,5.8,48.9,11.6,73.4,17.4c1.4-8.1,2.7-16.3,4.1-24.4
		c4.3,4.8,5.8,12,3.7,18.1c-2,5.8,5.2,10.5,11.2,11.5c6,1.1,13.5,1.9,15.8,7.5c-22.6-4.9-45.2-10.1-67.8-15.5
		c-1.4,10.2-2.8,20.5-4.2,30.7c-0.9,6.6,7.1,10.7,13.8,11.4c6.6,0.7,14.5,0.9,18.2,6.5c-34.2-7.7-68.2-16.1-102-25.3
		c0.4,15.3,0.8,30.7,1.2,46c0.1,4.8,4.1,8.9,8.6,10.6s9.5,1.6,14.3,1.5c0.2-14.8,0.4-29.7,0.6-44.5c0-0.6,0-1.2,0.3-1.8
		c0.8-1.6,3.3-1.3,4.4,0.1s1.2,3.3,1.2,5c0.1,12.1,0.1,24.2,0.2,36.2c0,2.2,0.1,4.5,1.4,6.2c1.4,1.7,3.7,2.3,5.8,2.8
		c16.9,3.9,33.7,7.8,50.6,11.7c1.9,0.4,4.2,0.8,5.7-0.6c1-0.9,1.2-2.3,1.4-3.6c1.4-8.8,2.9-17.5,4.3-26.3c2.9,6.2,3.4,13.5,1.5,20
		c-1.7,5.8,1.7,12,6.5,15.7c4.8,3.6,10.8,5.1,16.6,6.6c-39.4-8.8-78.7-17.7-118.1-26.5c-1.4-0.3-3.1-0.6-4.2,0.4
		C317.9,346.3,317.9,347.7,317.9,349 M719.3,342.1c17.6-6,35.1-11.9,52.7-17.9c1.8-0.6,3.8-1.3,4.8-3c0.7-1.2,0.8-2.7,0.8-4.2
		c0.2-10.3,0.4-20.6,0.6-30.8c4.3,10.6,6.4,22.1,6.2,33.6c9.6-2.8,19.2-5.7,28.9-8.5c2.7-0.8,5.6-1.8,6.9-4.2
		c0.9-1.6,0.9-3.5,0.9-5.4c-0.1-9.7-0.2-19.4-0.4-29.2c0-1.7-0.9-4-2.5-3.4c-41.3,15.8-83.4,29.6-126.1,41.2c-2,0.6-5.4-0.3-4.5-2.2
		c16.2-5.3,32.4-10.6,48.5-15.8c5.5-1.8,11.3-3.7,15.4-7.9c4.1-4.2,5.8-11.3,2.1-15.8c2.7-1.5,5.3,2.4,5.4,5.5s-0.4,6.9,2.3,8.6
		c1.8,1.1,4.2,0.5,6.2-0.2c15.2-5.1,30.4-10.2,45.5-15.2c8.5-2.9,9-14.6,7.9-23.5c-0.3-2.3-1-5.1-3.3-5.6c-0.9-0.2-1.8,0.1-2.7,0.4
		c-51,15.5-101.7,32-152,49.6c-4.1,1.4-8.5,3.1-10.7,6.8c-1.6,2.6-1.8,5.8-2,8.8c-3.6,55-4.9,110.1-4,165.2
		c0.1,8.8,0.4,17.8,3.8,25.9c19.7-6.2,39.3-12.5,59-18.7c2.9-0.9,6-2,8-4.4c2.1-2.6,2.3-6.2,2.4-9.6c0.3-9.7,0.6-19.3,0.9-29
		c2.2,11.8,4.4,23.6,6.7,35.3c16.5-6.1,33.1-12.3,49.6-18.4c2.2-0.8,4.5-1.7,5.8-3.7s1.2-4.5,1.1-6.9c-0.8-16.5-1.6-33-2.4-49.5
		c-33.3,12.8-66.6,25.6-100,38.4c-3.5,1.4-8.2,2.4-10.6-0.5c24-10.1,47.9-20.3,71.9-30.4c1.7-0.7,3.4-1.5,4.5-3c1.2-1.7,1.1-4,1-6
		c-0.8-16.3-1.5-32.7-2.3-49c-18.3,6.2-36.6,12.3-54.9,18.5c1.3-10.2,21.6-7.8,22.7-18.1c0.4-3.7-1.7-8.6,1.6-10.3
		C716.3,333.8,717.8,338,719.3,342.1 M644.3,286.8c1.9-5.7,3.7-11.6,2.9-17.5s-5.1-11.8-11.1-12.4c-55.6-5.1-110.8-15-164.7-29.6
		c-52.5-14.2-105.9-25.6-159.7-34c-2.3,4.7,0.5,10.6,4.8,13.6s9.7,3.7,14.9,4.5c89.4,13,175.6,41.8,263,64.7
		C610.9,280.4,627.4,284.5,644.3,286.8 M651.5,258.4c-0.2,9.1-0.4,18.2-0.5,27.3c48.2-18.7,97.3-35.4,147-49.8
		c7.3-2.1,14.9-4.4,20.4-9.7c5.5-5.3,7.8-14.6,3-20.6c-1.2-1.5-3.6-1.1-5.5-0.6C760.5,220.9,705.7,238.7,651.5,258.4 M819.7,365
		c0.5-14.8,1.1-29.5,1.6-44.3c0-0.9,0.1-1.9-0.4-2.7c-1.2-2.2-4.4-1.7-6.7-1c-19.8,6.3-39.5,12.7-59.3,19c-1.1,0.3-2.2,0.7-3,1.5
		c-1.3,1.3-1.3,3.4-1.2,5.2c0.8,16.1,1.6,32.2,2.4,48.3c0.1,1.9,2.9,1.8,4.6,1.2c19.1-7.1,38.2-14.1,57.3-21.2
		c1.5-0.5,3-1.2,3.9-2.5C819.6,367.5,819.7,366.2,819.7,365 M616.6,213.3c7,0.9,14,1.8,21.1,2.8c4.8,0.6,9.6-0.5,14.2-1.7
		c23.9-6,47.7-12.9,71.1-20.6c-6.7-2.6-14-3.4-21.2-4.1c-48.6-5.1-100.5-9.6-143.8,13.1C577.2,208.1,596.9,210.7,616.6,213.3
		 M385.5,269.9c0.3-2.6,0.6-5.4-0.9-7.5c-1.4-2-4-2.7-6.4-3.3c-20.3-5.2-40.9-9.4-61.7-12.6c-0.8-0.1-1.7-0.2-2.4,0.2
		c-1.1,0.7-1.2,2.3-1.1,3.6c0.5,6.4,0.9,12.8,1.4,19.2c0.2,3.4,0.7,7.1,3.3,9.3c1.3,1.1,3.1,1.7,4.8,2.2
		c19.5,5.8,39.1,11.7,58.6,17.5C382.9,288.9,384.3,279.4,385.5,269.9 M795.7,443.7c6-2.6,11.9-5.1,17.9-7.7c1.2-0.5,2.4-1,3.2-2
		c1.2-1.4,1.4-3.4,1.5-5.2c0.8-15.6,1.4-31.2,1.8-46.8c0-1.4-0.1-3.1-1.3-3.9c-1-0.7-2.4-0.3-3.6,0.1c-7.8,2.5-15.6,5-23.4,7.5
		c-2.9,0.9-3.7,4.7-3.9,7.8c-1,16.1-0.3,32.3,1.9,48.3c0.1,0.6,0.2,1.3,0.5,1.8C791.5,445.1,793.9,444.5,795.7,443.7 M629.9,232
		c1.9-1.9,1-5.3-1-7.1c-2-1.7-4.8-2.2-7.5-2.6c-47.4-7.4-94.7-14.9-142.1-22.3c-4.1-0.7-10.4,0.9-9.3,4.9c0.6,2.2,3.4,3,5.7,3.5
		C526.8,217.7,578.3,225.6,629.9,232 M635.5,228.5c-0.3,2.4,2,4.5,4.4,4.9s4.8-0.4,7.1-1.2c42.8-14.6,88.5-19.5,131.2-34.4
		c4.7-1.6,9.7-3.8,11.8-8.3c-3.3-2.7-8.2-1.9-12.4-0.8c-45.4,11.1-90.7,22.8-135.8,35C639,224.5,635.8,225.8,635.5,228.5
		 M496.5,191.7c-0.9,1.7,1.4,3.3,3.2,3.9c17.2,5.2,35.7,1.9,53.2-2c18.9-4.3,37.7-9.3,56.2-15.2c1.9-0.6,3.8-1.3,5-2.8
		s1.1-4.2-0.7-5c-0.9-0.4-1.9-0.3-2.8-0.1C572.4,176.4,534.1,182.3,496.5,191.7 M632.3,178.2c35.9-0.7,71.9,2.1,107.3,8.1
		c8.2,1.4,17.6,2.7,24.1-2.5c-1.4-0.7-2.9-1-4.5-1.3c-44.3-8.3-89.2-12.9-134.2-13.7c-3.2-0.1-4.1,5-1.8,7.2
		C625.6,178.2,629.2,178.3,632.3,178.2 M336.2,244.9c0.5-7.2,0.9-14.4,1.4-21.5c0.1-1.5,0.2-3.1-0.5-4.5c-1.2-2.6-4.4-3.4-7.1-3.9
		c-5-1-10-2-15-3c-1-0.2-2.1-0.4-2.9,0.3c-0.7,0.6-0.9,1.6-0.9,2.6c-0.3,6.1-0.3,12.1,0.2,18.2c0.2,2.5,0.5,5.1,2.1,7
		c2.2,2.7,6,3.2,9.4,3.5C327.4,244.1,331.8,244.5,336.2,244.9 M757.1,214.7c1.9,0,3.7-1.9,3.4-3.8c-2.9-0.1-5.8,0.9-7.9,2.8
		c1,1.2,3,1.6,4.4,0.8 M794.7,201.2c1.2,0.2,2.3,0.4,3.5,0.6c0.5-0.7,0.8-1.6,0.7-2.5c-0.7-0.5-1.6-0.8-2.4-0.6
		c-0.6,0.8-1.1,1.6-1.7,2.4L794.7,201.2z"/>
	<path class="st0" d="M519.8,310.8c0.5,0.8,1.2,1.5,1.5,2.4c0.4,1.1,0.2,2.3-0.5,3.2c-1.9,2.5-6.1,1.2-8.3-1.1
		c-1.8-1.9-3.2-4.6-2.7-7.2s3.6-4.6,5.9-3.5C518.1,305.9,518.5,308.8,519.8,310.8z"/>
	<path class="st0" d="M518.7,358.4c3.1,1.3,6.6,0.7,10,0.7s7.3,1,8.7,4.1c0.8,1.6,0.6,3.5,0.5,5.3c-0.9,11.2-1.7,22.3-2.6,33.5
		c-0.1,0.8-0.2,1.8-0.8,2.3s-1.6,0.5-2.4,0.5c-5.5-0.3-11-0.7-16.5-1c-3.1-0.2-6.8-0.8-8.1-3.6c-0.6-1.3-0.6-2.7-0.5-4.1
		c0.5-11.5,0.9-23.1,1.4-34.6c0.1-1.9,0.3-4.1,1.9-5.1C512.8,354.6,515.9,357.2,518.7,358.4 M527,399.4c1,0,2.1,0,2.8-0.6
		c0.9-0.8,1-2.1,1-3.3c0.2-8.8,0.4-17.7,0.7-26.5c0-0.9,0-2-0.7-2.7c-0.5-0.5-1.2-0.6-1.9-0.8c-3.2-0.5-6.4-1.1-9.6-1.6
		c-1.7-0.3-4.1-0.1-4.3,1.7c-0.6,7.1-1.2,14.1-1.7,21.2c-0.2,2.5-0.4,5.2,0.8,7.5C516.3,398.7,522.1,399.3,527,399.4z"/>
	<path class="st0" d="M536.2,347c2,3.1-1.1,7.6-4.8,7.9c-3.7,0.2-7-2.6-8.6-5.9c-0.3-0.7-0.6-1.4-0.6-2.1c0.1-3.2,4.6-3.6,7.7-2.9
		C532.3,344.4,534.9,345,536.2,347z"/>
	<path class="st0" d="M583.8,408.8c-1.2,1-2.6,1.7-4.2,1.8c-3.7,0.3-6.5-3.2-8.2-6.6c-1.5-2.9-2.7-6.3-2-9.5c1-4.5,5.8-7.6,10.4-7
		c4.5,0.6,8.3,4.6,9,9.1C589.4,401.2,587.3,405.9,583.8,408.8 M581.2,397.4c-0.6-2.3-2.9-5.2-4.7-3.6c-2,1.8,1.5,4.7,1.5,7.3
		c1,0.1,2,0.2,3,0.2c0.8-1.1,1-2.8,0.3-4L581.2,397.4z"/>
	<path class="st0" d="M628.1,197.5c2.1-0.9,4.5-0.4,6.5-1.4c2.3-1.2,5.5,0.2,6.1,2.7c0.7,2.5-1.4,5.3-3.9,5.4
		c1.9,0.8,2.1,3.8,0.6,5.3s-3.8,1.8-5.8,1.4c-3-0.6-5.9-2.7-6.8-5.6C624,202.4,625.3,198.7,628.1,197.5z"/>
</g>
</svg>
