<?xml version="1.0" encoding="utf-8"?>
<!-- Generator: Adobe Illustrator 19.1.0, SVG Export Plug-In . SVG Version: 6.00 Build 0)  -->
<svg version="1.1" id="Layer_1" xmlns="http://www.w3.org/2000/svg" xmlns:xlink="http://www.w3.org/1999/xlink" x="0px" y="0px"
	 viewBox="54 -102.7 950 800" style="enable-background:new 54 -102.7 950 800;" xml:space="preserve">
<style type="text/css">
	.st0{fill:#FFFFFF;}
</style>
<g>
	<path class="st0" d="M407.5,270.9c0,0.9,1.4,0.8,1.4,0C409,270.1,407.5,270.1,407.5,270.9z"/>
	<path class="st0" d="M397.6,165.1c-4.5-6.4-9.1-12.9-13.6-19.3c7,4.6,14.1,9.2,21.1,13.9c-17-23.7-37-44.7-59.3-62
		c16.8,9.1,33.6,18.1,50.5,27.2c-3.2-9.4-8.4-18-15-24.7c33.2,1.6,66.4,3.2,99.6,4.8c-25.9,7.2-53.3,7.6-79.4,1.1
		c24.3,27.6,53.6,49.5,85.6,64c22.9,10.4,39.9,35.9,42.1,63.7c1.4,16.8,2.7,33.5,4.1,50.3c0.4,5.2,3.6,12.4,7.8,9.9
		c2.1-13.7,2.9-27.7,2.3-41.6c15.4,20.3,4.9,51.1,5.9,77.8c1,29.7,17,60.8,5.2,87.4c2.6,1.2,5.1,2.5,7.7,3.7
		c0.2-3.1,0.5-6.2,0.7-9.3c16.5,0.1,32.9-8.4,43.6-22.5c-12.8,6.3-26.9,9.4-40.9,9.1c7.8-8.6,19.3-10.6,29.7-14
		c10.4-3.4,21.7-10.4,23.6-22.5c-13.3,5.7-26.6,11.4-39.9,17c-4.8,2-13.1,0.1-10.8-5.1c22.5-6.4,43.8-18.3,62-34.6
		c-20.8,6.9-41.7,13.8-62.5,20.7c-1.1-5.8,5.6-9.1,10.7-10.5c27.4-7.4,52.1-26.8,67.8-53.2c-28,14-56,28-84,42.1
		c-3.2,1.6-9,0.8-7.8-2.9c16.3-8,26.5-28.1,43.5-34.1c29.8-10.6,58.7-24.4,86.1-41.2c-19.9,8.9-40.6,15.3-61.8,18.9
		c9.5-9.2,19-18.5,28.5-27.7c-7.3,1.6-14.6,3.2-21.9,4.8c16-10.5,32.5-20.1,49.3-28.8c-17.9,5.8-35.9,11.6-53.8,17.3
		c-3.3,1.1-8.4,0.6-8.2-3.2c17.3-8.3,35-15.3,53.2-20.9c-1.5-5.2-7.6-8.1-11.9-5.6c8.8-15.5,21.4-28.2,36-36.3
		c-6.3,0.3-12.6,0.6-18.8,0.9c5-3.1,10.1-6.2,15.1-9.3c-16,5.3-32.3,9.5-48.7,12.6c5.4-6.4,13.3-10,21.1-9.6
		c-0.6-3.6,2.2-6.6,4.7-8.8c16.9-15,33.7-30,50.6-45.1c-33.6,17.6-66.7,36.3-99.4,55.9c-28,16.8-56.6,35.3-75,64.4
		c-5.1-10.5-6.6-23.3-3.9-34.9c2.4,3.4,4.8,6.7,7.2,10.1c43.9-33.8,90.3-63.6,138.4-89.1c-26.8-9-50.6,25.1-78.5,26.7
		c16.2-10.3,32.4-20.6,48.6-30.8c6.2-3.9,13.1-9.3,13.1-17.3c-39.4,29-78.7,58-118.1,87.1c-3.5-4.9,1.6-11.7,6.2-15.3
		c34.6-27,70.2-52.2,106.8-75.6c2.6-1.7,1.5-6.7-1.2-8.2s-5.9-0.6-8.8,0.3c-10.6,3.3-21.1,6.5-31.7,9.8
		C638,88.2,657.7,78.1,678.4,73c0.8,5.1-2.2,10.5-6.5,12c12.4-4,25.4-5.4,38.2-4c-10.8,9.4-21.5,18.8-32.3,28.2
		c14.4-1.6,28.6-5.6,41.9-11.9c-5.3,6.6-12.3,11.4-19.9,13.8c21.3-3.3,42.3-9.6,62.2-18.7c-20.4,16.3-40.2,33.4-59.4,51.3
		c16.6-7.9,34.5-11.9,52.5-11.9c-9.3,8.8-19.9,15.7-31.3,20.4c5.9-2.4,12.2-3.7,18.4-3.7c-1.5,2.7-3,5.5-4.5,8.2
		c4.9-4,12.3-3.7,16.9,0.8c-3.7,2.6-7.4,5.2-11.1,7.8c1.5,13.1-2.1,26.9-9.6,37c3.2,2.4,6.3,4.8,9.5,7.2c-3.6,4.2-7.3,8.3-10.9,12.5
		c4.9-3.1,10.9-4,16.4-2.3c-6.2,7.4-13.4,13.7-21.3,18.7c5.3,4,10.6,8,15.9,12c-11.5,11.2-21.9,23.9-30.7,37.9
		c7.1-3.7,14.2-7.5,21.2-11.2c7,4.4,3.6,16.4-0.6,24.1c-10.4,19-20.8,38-31.2,57c3.7-1.3,7.4-2.7,11.1-4c4.3,1.8,3.2,9,1.2,13.7
		c-32.7,78-76.1,150.2-128.3,213.2c-12.2,14.8-25.2,29.3-41.4,38c-3.9,2.1-8.7,5.8-7,10.3c2.1,5.6-0.4,12.7-5.2,15.3
		c-4.8,2.6-11.3,0.3-13.8-5c0.7,13.4-5.2,27.1-15,34.8c4.6-8.3,3.9-19.9-1.4-27.5c-35.1-50-63.5-106-83.9-165.5
		c-12-34.9-21.3-72.4-16.4-109.4c0.5-3.8-2.8-6.8-5.6-9c-10-7.3-19.9-14.6-29.9-21.9c9.4-8.9,23.4-6.3,35.3-3.2
		c-12.7-10.6-25.3-21.1-38-31.7c3.9-1.7,7.8-3.3,11.7-5c-11.4-13.9-22.9-27.7-34.3-41.6c12.6,1.9,24.9,6,36.4,12.1
		c-9.4-15.7-18.8-31.4-28.3-47.1c7.6,1.2,13.2,8.3,19.1,13.8c5.9,5.6,14.5,9.9,21,5.2c-10.7-7.6-21.4-15.2-32.2-22.8
		c10.1,0.3,20.1,3.7,28.7,9.5c0.4-13-11.3-22.1-22.1-26.8c-10.8-4.7-23.2-8.9-28.6-20.5c23.6-5.8,48-7.3,72-4.4
		c-8.8-4.7-17.7-9.3-26.5-14C386.4,164.6,392,164.9,397.6,165.1 M672.5,247.5c8.6-4.9,17.2-9.8,25.8-14.6c1-0.6,1.9-1.1,2.9-1.7
		C690.5,233.1,680.3,238.9,672.5,247.5 M582.5,490.4c-5.5,5.5-11.2,11-17.9,14.4c-5.7,2.8-7,11-7.6,18c-0.6,6.9-1.1,13.8-1.7,20.7
		c5.4,0.7,10-4.2,13.7-8.7c26.5-32.4,50.8-66.9,72.9-103.1C622.2,451.2,602.3,470.8,582.5,490.4 M436.1,232.2
		c-15.5-5.4-30.9-11-46.3-16.7c-2.4,11.8,8.8,21,18.3,26.5c13,7.6,26.1,15.3,39.1,22.9c2.7-1.2,4.5-4.3,4.6-7.6
		c-4.2-4-8.3-7.9-12.5-11.9c7,6,17.8,5,23.9-2.1c2.5-2.9,6.7,1.2,7.2,5.1c0.4,4-0.7,8.3,1.1,11.8c1.1,2.1,3.2,3.4,5.1,4.6
		c13.9,8.3,28.5,15.2,43.5,20.7c1.2,0.4,2.6,0.9,3.7,0.1c1-0.7,1.3-2,1.5-3.3c2.7-14.4-0.6-30-8.8-41.5c2.8-2,2.8-6.9,0.9-10
		c-1.9-3.1-5.1-4.7-8.1-6.3c-21.9-11.1-43.8-22.2-65.7-33.3c-9.4-4.8-19.8-9.6-29.7-6.6c-20.2,6.2-41.7,7.4-62.4,3.3
		c6.7,4,13.5,8,20.2,11.9c5-6.4,14-5,21.3-2.9c38.5,11.1,76.1,26.4,112,45.7c-0.8,2.6-4,2.3-6.3,1.4
		c-37.1-13.4-74.1-26.7-111.2-40.1c14.9,6.9,29.9,13.8,44.8,20.7C435.2,226.2,438.4,230,436.1,232.2 M665.1,417.2
		c-13,19.2-25.9,38.4-38.9,57.7c-18.1,26.8-36.6,54.1-61.3,73.2c-16.6,12.8-24.5,38.2-18.9,59.9c7.1-1.3,12.4-7.7,17.2-13.7
		c52.8-66.5,106.6-134.8,135.6-217.7c-7.5-0.7-14.4,8.5-12.4,16.7C677.7,398.8,671.3,408.1,665.1,417.2 M450.2,484.6
		c-14.4-35.8-26.5-72.7-36.2-110.4c-7.3,16-3.7,35.3,0.6,52.6c19.1,75.6,50.9,147,93.2,209.3c3.3-7.6,0.6-16.6-2.2-24.4
		c-6.2-17.6-12.4-35.2-18.6-52.8c-5.8-16.6-11.9-33.5-22.4-46.7C458.3,504.2,454.1,494.4,450.2,484.6 M537.5,402.9
		c-0.1,3.4,0.2,6.7,0.7,10.1c0.6,4,2,8.4,5.3,9.9c3.3,1.6,7.9-2.8,5.9-6.1c-2.6-2.5-2.4-6.9-2.1-10.7c1.6-20.3,0.1-41-4.6-60.7
		c-4.7,3.2-9.9-2.9-12.6-8.3c-6.9-13.4-13.8-26.7-20.7-40.1c6.9,3.4,12.9,9.3,16.9,16.5c1.8-7.5-2.3-15.4-7.9-19.9
		s-12.3-6.6-18.8-9.3c-9.8-4-19.1-9.6-28.3-15.2c0,19,2.1,38,6.2,56.5c0.8,3.5,4.1,7.9,6.3,5.3c1.7-2,4.7-0.6,6.8,0.9
		c12.3,8.9,24.7,17.8,36.9,26.8c2.8,2.1,5.5,7.5,2.3,8.7c-10.3-5.8-20.5-11.6-30.8-17.4c-3.2,5.7-3,13.4,0.1,19.1s8.8,9.4,14.8,10.1
		c1.9,0.2,3.7,0.2,5.6,0.1c-1.5-1.6-2.4-3.9-2.5-6.2c2.2-3.2,6,3.4,9.5,2.9c1.7-0.2,2.9-2,4.3-3.1c1.4-1.1,4.1-0.5,3.9,1.4
		c-1,10.4,3.9,21.3,11.9,26.6C544.6,404,540.5,404.8,537.5,402.9 M526.5,628.3c8.2-36.4-9.3-72.9-20.2-108.4
		c-16-52-18.1-108.1-18.7-163.2c-8.9,20.8-11.1,44.3-11.4,67.4C475.4,495.6,493.1,567.4,526.5,628.3 M420.9,163.9
		c1.4,1.5,2.5,4.8,0.6,5.2c-2.1,0.5-0.2,4,1.7,4.9c24.7,11.7,49.3,23.3,74,35c6,2.8,12.1,5.7,18.4,7.5c-0.8-9.8-6.1-18.6-12.8-25
		c-6.7-6.4-14.7-10.7-22.6-15c-30.5-16.2-61.2-31.7-92.2-46.4C398.9,141.4,409.9,152.7,420.9,163.9 M403.9,291.8
		c0.3-6.5-3.1-12.6-7.8-16.4c-1.9-1.5-4.1-5-2-6.2c1-0.5,2.2,0.2,3.1,0.9c5,3.8,10.1,7.9,12.6,14.1c2.4,6.2,0.7,14.9-5,17.1
		c2.3,2.3,2.7,6.5,1,9.3c2.2,0.1,4.4-0.5,6.2-1.9c6.4,5.2,14,8.5,21.8,9.4c2.7,0.3,6.4-0.5,6.6-3.6c0.8-13.6,3-27.1,6.5-40.2
		c0.5-1.8-1.3-3.2-2.8-4c-15.8-8.2-31.6-16.5-47.3-24.7c-3.5,2.1-6.5,5.3-8.4,9.3c4.9,3.6,9.8,7.3,14.8,10.9c1.4,1,2.4,3.9,0.8,4
		c-6.7-4.1-13.5-8.2-20.2-12.3c-2.2,3,3.2,6.6,2.9,10.5c-0.2,2.3-2.3,4-2.3,6.3c-0.1,2.5,2.3,4.2,4.5,4.5s4.5-0.1,6.5,0.7
		c2.1,0.8,3.8,3.7,2.6,5.7c-1.1,1.9-3.5,1.6-5.5,2c-1.9,0.4-3.7,3.6-1.9,4.6C394.7,294.5,399.9,294.4,403.9,291.8 M560.7,496.2
		c31.7-24.8,60.8-54.1,86.2-87c-16,1.3-30.3,11.2-43,22.1c-12.8,10.9-24.9,23.1-39.6,30.2c-4.8,2.3-6.3,9.1-7.1,15
		c-0.8,5.7-1.6,11.5-2.4,17.2c-0.1,1-0.3,2.1,0.2,2.9C556,498.8,558.9,497.7,560.7,496.2 M464,404.2c2.4-8.1,4.8-16.1,7.2-24.2
		c1.9-6.4,3.8-13.2,2.2-19.7c-7.2-28.9-11.9-58.7-14-88.6c-0.8-1.4-2.6,0.6-2.9,2.2c-7.1,33.5-11.3,69-3,102.2
		C456,385.9,459.6,395.3,464,404.2 M536.2,432.1c-1.1,10.7-2.3,21.5-3.4,32.2c-0.4,3.4-0.7,6.9-0.6,10.3c0.3,10,4.5,19.7,11.4,26
		c4.7-22.3,8.3-44.8,10.6-67.6C548.6,435.9,541.6,435.6,536.2,432.1 M469.6,490.8c-1.2-15.2-2.4-30.3-3.6-45.5
		c-0.3-3.8-0.6-7.6-2.2-10.9c-3.3-6.8-10.9-9.1-17.6-10.7c-2.3-0.6-5.1-0.9-6.7,1C447,448.1,457.2,470.4,469.6,490.8 M404.6,351.7
		c-2.3,2.2-0.4,6.8,2.4,8s5.9,0.5,8.9,0.7s6.5,2,6.7,5.4c0.4,5.2,3.9,9.5,7.6,12.7s7.9,5.8,10.9,9.8s4.5,10.1,2,14.6
		c-1.3,2.3-0.2,5.6,1.7,7.3c2,1.7,4.5,2.1,6.9,2.5c1.9,0.3,4.9-0.9,4-2.8c-6.6-13.2-11-27.9-12.9-43c-0.6-4.8-5.3-7.3-9.4-9
		C424.2,354,414.4,350.1,404.6,351.7 M526.9,410.8c3.1-4,3.1-10.6-0.1-14.5c-1.6-2-3.9-3.3-6.1-4.4c-6.9-3.5-14.1-6-21.6-7.6
		c-0.1,6.8-0.2,13.7-0.3,20.5c0,2.7,0,5.5,1,7.9c2.9,7,11.7,6.6,18.5,5.1c2.1-0.5,4.4-1,5.9-2.7c-2.1-1.3-3.5-3.8-3.8-6.5
		C522.8,407.8,525.5,408.7,526.9,410.8 M504,447.7c-0.5,5.3,0,10.7,0.7,15.9c1,8,2.1,16.1,4.5,23.7c3.7,11.7,10.3,22.3,19,30
		c3.2-6.6,0.6-14.7-2.2-21.6C519.4,479.4,512,463.4,504,447.7 M536.3,571.6c2.2-6.6,4.5-13.1,6.7-19.7c1-2.8,1.9-5.6,2.3-8.5
		c1.1-9.1-3.7-18-3.2-27.2c-3.1,3.5-3,9.1-4.3,13.9c-1.2,4.8-6,9.5-9.6,6.7c-1.2-1-1.9-2.6-2.9-3.8s-2.8-2-4-0.9
		C526.3,545.2,531.3,558.4,536.3,571.6 M436.5,327.9c-1.6-0.8-3.4-0.4-5.1-0.1c-6,1.3-12,2.6-18.1,3.9c-2.8,0.6-6.4,2.3-6.1,5.5
		c0.2,2.6,2.8,3.8,5,4.5c9.1,3.1,18.2,6.1,27.3,9.2c0.1-4.3,0.3-8.6,0.4-12.8C440.1,334.3,439.7,329.5,436.5,327.9 M694.7,190.3
		c10.5-2.3,21.1-4.7,31.5-7.3c3.2-0.8,7-2.1,8.1-5.6c0.9-2.7-0.3-5.9-2.4-7.6c-4.8-4.1-11.6-0.6-16.7,3.1
		C708.1,178.2,701.2,184,694.7,190.3 M507.4,426.6c3.4,11.6,8.2,22.8,14.2,33c0.8,0.5,1.8,0.3,2.4-0.4c1.7-9.7,2.2-19.7,1.4-29.6
		C519.5,427.7,513.4,426.7,507.4,426.6 M711.6,261.6c-7.8,2.9-15.6,5.8-23.4,8.7c5.4,1,11,0.8,16.3-0.4c10.7-2.5,20.6-9.6,27-19.7
		c-0.8-3.3-4.9-2.9-7.8-1.8c-2.1,0.8-4.2,1.6-6.3,2.4c-1.6,0.6-3.4,1.4-4,3.3c-0.6,1.8,1.6,4.1,2.8,2.7
		C716.4,259.2,713.8,260.8,711.6,261.6 M704.9,274c-21.2,7.5-41,20.1-57.7,36.7c9.4-2.7,18.4-6.9,26.6-12.6c1-0.7,2.1-1.7,2-3
		c-0.4-3.4,3-5.7,5.8-7c7-3.2,13.9-6.3,20.9-9.5C704.4,277.9,706.5,275.3,704.9,274 M654.5,396.8c3.2-1.2,6.4-2.7,9.2-4.9
		c2.9-2.3,5.2-5.5,6.7-9.1c-13.1-0.3-26.1,7.1-33.6,19.2C642.8,400.8,648.7,399.1,654.5,396.8 M667.6,311.1
		c-11.1,4.1-21.8,9.7-32.4,15.2c-3.1,1.6-6.4,3.3-8.7,6.3C642.1,332.7,657.6,324.6,667.6,311.1 M688.4,254.2
		c5.5-0.6,11.5-1.5,15.2-6.1c1-1.3,1.9-2.9,2.1-4.6c0.2-1.5-0.1-3-0.9-4.3c-9.7,3.4-18.8,8.9-26.7,16.2
		C681.5,255,684.9,254.6,688.4,254.2 M585.8,432.3c-4.5-0.6-9-1.2-13.5-1.7c2.6,1.2,2.2,6-0.2,7.7s-5.4,1.3-8.1,0.5
		c-1.7,3.1-1.1,7.5,1.3,9.9C572.8,444.2,579.7,438.7,585.8,432.3 M692.1,311.4c-0.7-9.8,16.5-11.5,15.7-21.2
		c-9.7,8.5-19.2,17.4-28.5,26.6c-1.4,1.4-2.7,4.2-1,5.2c3.9-2.5,7.7-5,11.6-7.5C691,313.7,692.2,312.8,692.1,311.4 M533,300.6
		c1,6.2,1.9,12.4,2.9,18.6c0.3,2.2,1.7,5.1,3.5,4.2c0.4-3.9,0.9-7.8,1.3-11.6c0.3-3.1,0.7-6.5-0.7-9.3
		C538.7,299.7,534.9,298.2,533,300.6 M704.8,212.4c5.7-4.6,15.3-2.9,18.3-10c0.6-1.5,0.6-3.7-0.7-4.4c-6,2-11.6,5-16.8,9
		c-0.9,0.7-1.8,1.5-2.1,2.6C703.1,210.8,703.7,212.3,704.8,212.4 M636.2,347.5c6.6-1,13.2-2.8,19.4-5.5c2.9-1.2,2.9-5.8,2.4-9.3
		C650.1,336.4,642.7,341.4,636.2,347.5 M424.3,326.4c-5.4-2.7-11.5-3.6-17.3-2.4c-0.9,0.2-2.1,0.7-2,1.8c0.1,0.8,0.8,1.2,1.4,1.5
		C412.1,329.8,418.8,329.5,424.3,326.4 M630.3,383c-1,0.6-2.1,1.7-1.7,2.9c0.1,0.3,0.3,0.6,0.6,0.8c5.8-0.6,11.3-4.3,14.5-9.7
		C639,378.4,634.5,380.4,630.3,383 M541.9,341.2c2.4-4.9,0.1-11.9-4.5-13.9C535.8,332.3,537.8,338.5,541.9,341.2 M668.2,331.5
		c-1.1,0.7-2.3,1.5-2.9,2.8c-0.6,1.3,0,3.3,1.2,3.5c0.6,0.1,1.2-0.2,1.8-0.5c2.9-1.5,5.8-3.1,8.7-4.6c-2.4-2.3-6-2.9-8.9-1.5
		 M410.6,126.5c1.8,5.7,6.8,9.8,12.1,10.2C420.2,131.7,415.6,127.9,410.6,126.5 M658.3,354.5c-0.9,0.3-0.9,1.9-0.2,2.6
		c0.8,0.7,1.8,0.6,2.8,0.3c3.2-0.9,5.9-3.5,7.3-6.9c-3.6,0.3-7.1,1.7-10,4 M690.6,341.9c-2,1-3.4,3.3-3.7,5.7c4.1,1,8.3-4,7.2-8.6
		c-1.5,0.2-2.8,1.2-3.5,2.7 M626.1,373.5c2.5-0.3,4.9-1.2,7.1-2.6c-2.9-2.8-8.1-1.5-9.7,2.4c0.9,0.2,1.7,0.4,2.6,0.6 M429.8,394.1
		c0.5,2.8,2.1,5.2,4.2,6.7c1.4-1.3,1.8-3.8,0.8-5.5s-3.2-2.3-4.8-1.4 M687.2,326.8c-2.8,1.6-5.5,3.2-8.3,4.7
		c4.2,1.1,8.9-1.1,11.1-5.2c-0.8-0.8-2.2-0.5-2.7,0.6 M697.3,167.9c2.9,2.6,7.9,1,9.1-3c-2.8,0.1-5.6,0.8-8.2,2.1 M550.5,225.5
		c0.8-2.6-3.6-4.3-4.4-1.8C545.3,226.4,549.7,228.1,550.5,225.5 M611.6,400.2c-0.1-1.5-1.8-2.2-3-1.6c-1.2,0.5-2,1.9-2.7,3.1
		c0.9,0.6,1.7,1.2,2.6,1.8c1-0.9,2-1.9,3-2.8 M703.8,233.5c1-0.9-0.7-2.8-1.6-1.8c-0.8,1,0.7,2.9,1.7,2.1L703.8,233.5z"/>
	<path class="st0" d="M436.2,368.7c0.3,1.2,0.7,2.5,1,3.7c-2.8-0.4-5.2-2.8-5.9-5.9c1.7,0.3,3.3,1.2,4.7,2.4L436.2,368.7z"/>
	<path class="st0" d="M489.2,75.3c-29.4-6.2-57.9-17.7-84-34c8.9-2.6,18,2.8,26.3,7.4c19.9,11,41.6,17.8,63.7,20.1
		C468.8,56,442.4,43.3,416,30.5c15,4.3,29.9,8.6,44.9,13c-4.9-10.9,3.5-24.8,14-27.4s21.4,3.4,29.5,11.5c0.8-8.1-3.4-15.7-6.2-23.2
		c-8.9-23.6-4.8-52.8,10.2-72.1c1.2-1.5,2.4-3,4-3.7c4.4-2.1,11.3,0.5,12.9-4.6c1.7-5.1,8.6-5.9,12.3-2.4c3.7,3.5,4.8,9.6,4.4,15.1
		c-0.4,5.5-1.9,10.8-2.2,16.3c-0.7,10.5,2.9,20.9,2.3,31.4c-0.7,13.1-7.8,24.6-14.7,35.2c-1.9,2.9-5.6,6.1-7.8,3.5
		c-1.7,3.1-3.4,6.2-5.1,9.3c10.2,2.1,16.6-11.7,25.4-17.8c7.4-5.2,17.7-4.5,24.6,1.6c6.9,6.1,9.8,17.3,7,26.6
		c18.3-14.2,39.1-24.4,60.7-30c4.4-1.1,11,0,10.5,5c-15.4,12.1-31.2,23.4-47.4,34c27.8,1.1,54.4-18.9,81.9-14.6
		c-24.3,13-48.7,26-73,38.9c-18.5,9.9-38.2,21.1-47.3,41.7c-1.8,4.2-3.3,8.9-6.7,11.7s-9.3,2-10.3-2.6c15.7-26.3,37.2-48.1,62-63
		c-1.8,3.7-3.7,7.5-5.5,11.2c14.8-6.8,29.1-15.3,42.5-25.1c-15.9,4.9-32.1,8.9-48.3,12c-4.7,0.9-11.8-0.8-10.8-6.1
		c0.4-1.9,1.8-3.3,3.2-4.4c4.6-4,9.3-8,13.9-12.1c-8,0.5-14.3,7.4-19.9,13.8c-11.2,13.1-22.5,26.1-33.7,39.2
		c-4.3,4.9-8.7,10.3-9.8,17.1c-1,6.3,1.1,12.7,2.1,19.1s0.5,14-4.2,17.6c-7.8-8.5-0.5-24-4.2-35.5c-3.7-11.6-17.4-15.8-21.8-27.1
		c-1.1-2.7-4.4-2.8-7.1-2.3c-16.8,2.7-33.5,5.4-50.3,8.1c3.9,2.2,7.9,4.4,11.8,6.6c-4.6,1.3-9.2,2.5-13.8,3.8
		c-8.1-10-21.8-10.6-33.7-9.2s-24.7,3.8-35.5-2.2c16-1.1,32.1-2.3,48.1-3.4c-4.9-7.4-9.7-14.8-14.6-22.2
		C431.4,84.1,464,89.3,489.2,75.3 M502.8-6.5c0.8,6.7,2.5,14.8,8.2,16.9c0.9-9,3.8-17.7,8.3-25.3c2-3.4,2-7.8,1.8-12
		c-0.3-9.2-0.7-18.4-1-27.7c-0.1-2.6-0.3-5.5-1.9-7.3c-1.6-1.8-5.2-1.2-5.4,1.4c-1,16-2.1,31.9-3.1,47.9c-0.2,2.5-1.7,6-3.7,4.7
		c-1.8-9.9-2.5-20.2-2-30.3C500.4-28.2,501.6-17,502.8-6.5 M477.7,45.9c0.3,0.7,0.7,1.3,1.2,1.8c0.8,0.7,1.9,0.8,3,0.8
		c6.9,0.3,13.8,0.5,20.7,0.8c0.5,0,1,0,1.5-0.2c1.7-0.8,1.2-3.6,0.4-5.4c-4.2-9.5-11-18.9-20.4-20c-2.4-0.3-4.9,0-6.9,1.6
		c-2.7,2.2-3.7,6.4-3.2,10.2S476.1,42.6,477.7,45.9 M544,45c3.7-0.8,7.3-2.1,10.8-3.6c3.7-1.7,7.9-4.8,7.5-9.3
		c-7.2-1.6-14.7-1-21.6,1.7C542.5,37.1,543.6,41,544,45 M533.9,40.1c-5.2-1.7-11.3,0.1-15,4.6c-3.8,4.5-5.1,11.4-3.3,17.2
		c0.4,1.2,0.9,2.3,1.6,3.1c1.4,1.5,3.7,1.8,5.3,0.7c0-3.9-3-7.1-3.7-11c-0.8-4.4,2.4-9.2,6.3-9.7c2-0.2,4,0.4,6,0
		C533.1,44.5,534.9,42,533.9,40.1 M554.6,51c-0.9,0.1-1.9,0.1-2.7,0.7c-0.9,0.7-1.3,2-1.6,3.3c-0.9,3.6-1.9,7.1-2.8,10.7
		c6.7-3.5,12.7-8.8,17.3-15.4C561.4,50.6,558,50.8,554.6,51 M528.7-66.2c-2.7,6.8-0.9,14.7,0.9,21.9c2.6-7.8,4-16.1,4-24.5
		C532.2-70.6,529.6-68.4,528.7-66.2 M526.7,78.2c-2.4,0.9-4.9,2.3-5.9,5c-1,2.6,0.6,6.5,3.1,6.1c0.9-0.1,1.6-0.7,2.4-1.2
		c1.8-1.4,3.8-3.1,4.2-5.6s-1.9-5.3-3.8-4.2 M528.1,54.4c0.6,2.4,3.3,3.8,5.3,2.9c0.8-1.6,0.3-3.8-1.2-4.7c-1.4-0.8-3.4,0-4.1,1.6
		 M500.9,70.3c-0.8-1.8-3.1-2.4-4.5-1.2C497.1,71.1,499.7,71.7,500.9,70.3 M534.4-15.2c0.8-1.4,0.8-3.3,0-4.8c-1.9,0.6-2,4.3-0.1,5
		 M465.1,40.7c0.6,1.1,2.4,0.1,2-1.1C466.5,38.5,464.7,39.6,465.1,40.7L465.1,40.7z"/>
	<path class="st0" d="M410.7,56.7c2.6-0.6,5.2,0.7,7.6,1.9c9.1,4.6,18.2,9.2,27.2,13.8c2.2,1.1,4.3,2.2,6.5,3.3
		c-0.7,4-5.9,3.4-9.2,1.7C431.6,71.7,420.1,65.9,410.7,56.7z"/>
	<path class="st0" d="M688.2,52.2c5.5-1.2,11.7-2.1,16.4,1.2C675.4,64.7,647,78.9,620,95.7c-17.5,10.9-34.8,23.2-48,40.1
		c-4.6,5.8-8.7,12.2-13.4,17.9c-2.5,3.1-7,6-9.6,2.9c-2.4-3,0.2-7.6,2.7-10.5c19.7-22.3,41-42.9,63.6-61.4c4.3-3.5,9.1-7.1,14.3-6.6
		c2.2,0.2,5.7-1.2,4.2-3.1c-3.5,1.5-7.9-1.2-8.6-5.4C645.9,62.5,666.9,56.6,688.2,52.2z"/>
	<path class="st0" d="M522.9,167.4c1.2-1.9,2.4-3.7,3.5-5.6c0.8,10.3,4.7,20.3,10.9,27.9c1.8,2.2,4,5.4,2.5,7.9
		c-1,1.7-3.4,1.9-5,0.9s-2.7-2.8-3.7-4.6c-8-13.7-16-27.4-24-41.1c-1.2-2-1.8-5.7,0.4-6C513.7,152.4,519,159.5,522.9,167.4z"/>
	<path class="st0" d="M509.8,128.2c-6.3-12.1-14.2-23-23.4-32.4c-0.7-0.7-1.5-1.6-1.5-2.7c0-1.5,1.6-2.6,2.9-2.4
		c1.4,0.2,2.5,1.3,3.5,2.3c13.6,13.8,24.8,30.5,33,49C517.6,142.6,513.2,134.7,509.8,128.2z"/>
</g>
</svg>
