<?xml version="1.0" encoding="utf-8"?>
<!-- Generator: Adobe Illustrator 19.1.0, SVG Export Plug-In . SVG Version: 6.00 Build 0)  -->
<svg version="1.1" id="Layer_1" xmlns="http://www.w3.org/2000/svg" xmlns:xlink="http://www.w3.org/1999/xlink" x="0px" y="0px"
	 viewBox="-122 -123.6 595.3 841.9" style="enable-background:new -122 -123.6 595.3 841.9;" xml:space="preserve">
<style type="text/css">
	.st0{fill:#FFFFFF;}
</style>
<path class="st0" d="M72.8,263.3c-26.4,16.9-38.4,51-34.9,82.2S58,405,78.3,428.9c11.5,13.5,26.5,26.9,44.3,26.1
	c-25.5-23.8-36.8-61.9-28.3-95.8c0.7-2.6,1.6-5.5,3.8-7c3.9-2.7,9.5,0.2,12,4.2s3.2,8.9,5.2,13.2c3.7,7.7,12.6,13,21,11.3
	s14.8-10.9,12.5-19.2c-5.1-18.2,6.7-36.6,19.5-50.4s27.9-27.4,31.7-45.9c3.5-17.3-5.1-36.3-20.3-45.1c-3.6-2.1-0.6-8.5,3.6-8.7
	s7.7,3,10.6,6c9.7,10,19.7,20.7,22.8,34.2c4,17.4-4.5,35.2-14.1,50.3c-9.6,15.1-21,30-23.7,47.7s7.3,39,25.1,40.8
	c6.6,0.7,16.5,2.1,14.9,8.4c-31.7,12.8-53.8,46.3-53.2,80.5c-5.6,1-8.5-6.4-8.8-12.1c-0.8-20.7,7-41.5,21.2-56.6
	c3.3-3.6,7.1-9.1,3.7-12.6c-10.3-10.5-16.2-25.2-16.2-39.9c-7.7,6-2.7,18.7-6.7,27.7c-4.1,9.2-16.5,11.5-26.3,8.9
	c-9.7-2.6-18.3-8.6-27.9-11.5c-1.1,20.2,6.9,40.7,21.4,54.8c4,3.9,8.6,7.5,11.4,12.4c2.8,4.9,3.1,11.8-1.1,15.7
	c3.8,3.5,7.6,7,11.4,10.5C84.6,462.7,33,406.8,24.1,342.7c-5.9-42.5,24.1-81.1,54.8-111c5.5-5.4,12.2-11.1,19.9-10.4
	s13.2,12.3,6.6,16.3c-6.3,3.9-12.4,9-15,15.9c-2.6,7-0.5,16.1,6.2,19.4c9.1,4.6,19.3-3.4,26.3-10.8c10.7-11.3,21.9-23.7,23.8-39.2
	c2.3-18.9-10-36.4-22.6-50.7c-12.6-14.3-26.9-29-29.9-47.9c-3.1-19.5,6.7-38.7,18.1-54.9c9.5-13.4,20.2-26,32.1-37.3
	c4-3.9,8.5-7.7,13.9-8.9c5.5-1.1,12.1,1.6,13.4,7c-20.1,19.6-34.5,50.1-23,75.7c6.5,14.6,20.2,24.7,34.7,31.5
	c14.5,6.7,30.1,10.6,44.9,16.5c26.7,10.6,51.5,28.8,64.7,54.3c13.2,25.6,12.8,59.1-5.5,81.3c-9.2,11.2-22.3,19.1-29.5,31.7
	c-2.3,4-3.7,9.4-0.5,12.7c4.7,4.8,12.6-0.7,16.1-6.4c3.5-5.7,7.7-13.1,14.4-12.2c6.4,0.8,9,9.5,6.5,15.5s-7.9,10.1-12.4,14.8
	c-4.4,4.7-8.2,11.3-6,17.4c9.4,26.8,3,58.6-16.2,79.7c-19.2,21-50.2,30.4-77.8,23.5c16.5-9.2,36.2-11.4,52.4-21.1
	c16.1-9.7,27.6-26.7,30.5-45.2s-2.8-38.3-15.1-52.4c-10.4-11.9-5.6-30.8,3.5-43.6c9.1-12.8,22-23.1,28.7-37.4
	c9-19.4,4.6-43.2-7.5-60.7c-12.1-17.6-30.9-29.6-50.6-37.9c-23.6-9.9-50.1-15.6-69.1-32.7c-18.2-16.4-27-42.6-22.4-66.6
	c-26.8,16.1-32.4,58.5-10.6,80.9c20.9,21.5,43.3,47.6,39,77.2c-1.6,10.7-6.6,20.5-12.5,29.6c-9.3,14.5-21.9,28.4-38.7,32
	C93.2,292.1,72.7,280.5,72.8,263.3"/>
</svg>
