<?xml version="1.0" encoding="utf-8"?>
<!-- Generator: Adobe Illustrator 19.1.0, SVG Export Plug-In . SVG Version: 6.00 Build 0)  -->
<svg version="1.1" id="Layer_1" xmlns="http://www.w3.org/2000/svg" xmlns:xlink="http://www.w3.org/1999/xlink" x="0px" y="0px"
	 viewBox="174 -123.6 1190.6 841.9" style="enable-background:new 174 -123.6 1190.6 841.9;" xml:space="preserve">
<style type="text/css">
	.st0{fill:none;stroke:#FFFFFF;stroke-width:4.8642;stroke-miterlimit:10;}
	.st1{fill:#FFFFFF;}
</style>
<g>
	<path class="st0" d="M727,0.6c-0.1-0.4-0.2-0.8-0.3-1.2c-0.9-1.6-1.8-3.2-2.8-4.8c-1.3-2.1-2.7-4.2-4.6-7c-5.4-0.5-9,1.2-10.9,5.8
		c1,0.5,2,1,1.5,0.7c-1.8,7.5-3.3,14.2-4.8,20.8c-0.3,0-0.6-0.1-0.9-0.1c0.2-2.9,0.5-5.9,0.7-8.8c-0.4-0.1-0.8-0.1-1.1-0.2
		c-1.6,3.7-3.1,7.4-5,11.7c1.3-0.6,2.3-1.1,3.2-1.5c0.3,0.3,0.5,0.6,0.8,0.9c-2.6,2.8-5.2,5.6-7.8,8.3c0.2,0.2,0.4,0.4,0.7,0.5
		c1.1-0.4,2.1-0.8,3.2-1.2c0.2,0.2,0.4,0.4,0.6,0.5c1.5,3.6,2.9,7.3,4.4,10.9c-1,0.7-1.9,1.3-2.9,2c-1-2.3-2-4.6-3-6.9
		c-0.5,0.4-1.1,0.8-1.6,1.3c0,2.1,0,4.2,0,6.3c-0.5,0-0.9,0.1-1.4,0.1c-0.4-1.4-0.9-2.9-1.4-4.6c-1.5,0.6-2.6,1.1-3.7,1.6
		c-0.4-1.2-0.9-2.5-1.3-3.7c-1.1-2-2.1-3.9-3.2-5.9c-1.1-1.6-2.2-3.2-3.1-4.7c1.8-1.6,4.7-2.9,5-4.7c1-5.2,4.2-6,9.3-5.3
		c-3.8-3.2-6.6-2-8.9,0.5c-1.7,1.8-2.5,4.8-4.5,6.2c-6,4.4-2.2,6.3,1.7,8.4c-0.3,5.9-5.9,3.8-8.7,6.1c-1.4-3.6-2.7-7.1-4-10.5
		c1.1,5.5-10.7,1.8-6.1,9.6c-6.8-2.2-7.2-3.5-3.4-8.9c-1.2-1.9-2.3-3.7-3.5-5.6c0.3-1.4,0.5-2.7,1.1-5.3c-3.4,4.1-6,7.2-8.7,10.3
		c-1.1-1.4-2.4-3.1-3.9-4.9c-3.5,7.9,7.1,9.2,6.9,15c-5-1.3-9.5-2.4-13.8-3.8c-4.4-1.4-8.7-3.2-13.7-5c2.5-2.2,4.8-4.3,7.2-6.4
		c-2.5,0.6-4.2,2.1-6.1,2.9c-3.5,1.5-3.5,4.6-3.6,7.4c-0.3,7-1.7,13.6-5.6,18.4c1.4,2.1,2.7,4.1,4,6c-0.4,0.3-0.9,0.7-1.3,1
		c-1.2-0.9-2.3-1.8-3.5-2.6c-0.4,1.3-0.7,2-0.9,2.8c-0.5-0.1-0.9-0.1-1.4-0.2c0.4-4,0.9-7.9,1.3-11.9c-1,0.1-2.4,0.3-2.5,0.2
		c-1.5-6.1,5.5-5.3,6.8-9.8c-2.9,1.2-5.8,2.5-8.9,3.7c-0.4-1.5-0.9-3-1.3-4.5c-0.8-0.1-1.5-0.3-1.9-0.1c-2.8,1.3-5.5,2.6-8.3,4
		c4.7,3.7,3.4,12.5-3.5,21.4c0.5-2.6,0.7-4.6,1.2-6.5c0.6-2,1.4-3.9,2-5.3c-3,0.3-5.6,0.5-8.9,0.8c1.1-2,1.7-3.2,2.5-4.7
		c-6.5,1.9-9.7,9.5-8.6,20c0.5-1.9,0.9-3.3,1.6-5.6c1,1.6,1.4,2.4,2,3.3c1.6-9.5,2.5-10.9,7.8-10.5c-1.3,8.6-2.5,17.2-3.7,25
		c3-6.4,6.3-13.3,9.6-20.3c0,11.4,0,11.4,3,12.9c0.7-2.8,1.4-5.6,2.4-9.6c1.3,3.5,2.2,5.8,3.1,8.1c0.5-1.2,1-2.1,1.4-3
		c0.5,0.4,0.9,0.7,1.4,1.1c0,2.2,0,4.3,0,6.5c-0.4-0.4-0.9-0.7-1.3-1.1c-2.2,2.1-5.3,3.8-6.4,6.4c-1.6,3.8-1.7,8.1-2.4,12.3
		c-0.6,3.3-1.1,6.6-1.6,9.9c-0.5-0.1-0.9-0.2-1.4-0.3c-0.2-2.3-0.4-4.7-0.6-7c-1.6,1.1-2.1,2.3-2.1,3.4c0,4.3,0.1,8.6,0.2,13
		c-1.8-4.2-3.6-8.3-5.2-12c-2.6,5.4-1.4,9.2,5,13.8c-0.8,0.7-1.6,1.8-2.5,1.9c-3.9,0.4-7.9,0.5-12.2,0.7c0-1.6,0-4,0-6.3
		c-0.4,0.3-0.8,0.6-1.2,0.9c-1.6-1.4-3.3-2.9-5.1-4.5c0.6,2.6,2.3,5.5,1.5,7.5c-3.6,9.5,1,17,5.1,25.7c0-3.9,0-6.9,0-10
		c0.3,0,0.6,0,0.9,0.1c0.2,2,0.4,3.9,0.6,5.9c0.2,0,0.4,0,0.6-0.1c0.2-1.8,0.4-3.7,0.6-5.5c0.4,0,0.9-0.1,1.3-0.1
		c1.3,4.6,2.5,9.2,3.8,13.7c1.4-7.8-2.3-16.9,5.6-22.5c1.4,7.7,2.7,15.2,4,22.7c-0.5,0.1-1.1,0.2-1.6,0.3c-0.8-3.5-1.6-7-2.6-11
		c-2.4,6.8,0.6,24.7,5,28.7c-1-2.3-1.7-4-1.9-4.4c2.5-1.6,4.5-2.8,6.2-3.9c-1.3-0.8-3.3-2-3.3-2.2c1.3-2.7,2.8-5.2,4.8-8.5
		c1.3,3.9,2.1,6.5,2.8,8.7c-1.3,2-3,3.6-3.4,5.5c-1.3,5.4-1.4,10.8,2,15.6c0.5,1.9,0.8,4,1.7,5.7c1,1.8,2.5,3.4,3.9,5.2
		c0-8.5,0-15.8,0-22.9c-0.3,0.4-1.2,1.4-1.7,2.6c-1.4,3.1-2.6,6.3-3.9,9.4c-0.2-1.6-0.3-3.2-0.5-4.8c-1-5.7,2.1-12.1,6.6-13.3
		c-0.7-0.8-1.4-1.5-2.3-2.5c1.8-0.6,3.3-1.2,6-2.1c-0.8,6.1-1.4,11.1-2.2,16.1c-0.9,6,1.2,10.2,6.1,11.7c-5.1-6-5.7-8.8-3.2-13
		c1.5,0.6,3.2,1.9,4.3,1.6c2-0.7,3.6-2.4,5.6-3.9c0,1.1,0,2.7,0,4.2l0.2-0.2c-0.5,0.9-1.3,1.7-1.5,2.6c-0.4,2.7-0.6,5.5-0.8,8.2
		c2,0.7,4.1,2.5,3.7,3.4c-2.2,6.7,0.7,14.6-4.5,20.6c-1.3-0.6-3.4-1-3.8-2c-1.2-2.7-1.6-5.8-2.4-8.7c-0.4,0.1-0.9,0.2-1.3,0.3
		c1.2,5.2,2.4,10.3,3.6,16c1.2-1.7,2.5-3.7,3.8-5.7c0.6,1.1,1.2,2.2,1.8,3.3c1-2.2,2-4.4,3.2-7c1.5,2.9,2.7,5.2,3.9,7.5
		c0.4-6.2-2.9-13.1,6.2-15c1.6,3.1,3.1,6.1,4.7,9.1c0.2-0.1,0.5-0.2,0.7-0.3c-0.5-4.4-1-8.9-1.6-13.3c0.2,0,0.5,0.1,0.7,0.1
		c2.7,5.1,5.4,10.1,7.5,14.2c-1.3-8-2.7-16.6-4-25.3c0.9-1.1,2.1-2.5,3.1-3.8c0.9,3.1,1.8,6,2.5,8.5c1.4-2.6,3.1-6.9,3.9-6.7
		c4.9,0.8,7.4-1.8,9.4-6.2c0.6,3.8,1,6.7,1.5,9.5c2.8-0.8,4.8-1.5,7.3-2.2c0.4,1.6,0.8,3.1,1.3,5.1c-3.9,0.7-7.7,0.4-10.4,2.1
		c-2.4,1.5-6.1,3.6-4.9,8.1c0.9,3.2,1.3,6.4,1.9,9.7c-0.4-9.9,1.2-16.6,5.7-17.5c1.8-0.3,4,0.9,6,1.4c0,0.6,0,1.1,0,1.7
		c1.7-1.4,3.3-2.7,4.8-3.9c1.9,3.3,4.1,7.6,6.7,11.6c7,10.6,14.3,21.2,21.4,31.7c0.3,0.4,0.8,0.7,1.2,1.1
		c4.6,5.6,9.3,11.1,13.8,16.7c5.5,6.8,10.9,13.6,16.2,20.5c1.1,1.4,2.3,3.1,2.6,4.8c1.6,11.6,4,23.2,4.2,34.8c0.3,14-1.1,28-2.1,42
		c-0.6,8.5-1.6,17.1-2.7,25.6c-1.2,9.7-3.2,19.3-4,29c-1,13.2-1,26.5-1.7,39.8c-0.9,16.4-2.3,32.9-3,49.3
		c-0.5,13.9-0.3,27.9-0.5,41.8c0,1-1.2,2-1.6,3.1c-0.8,2.7-1.9,5.4-2,8.1c-0.2,10.8-0.1,21.6-0.1,32.6c7.1,0,13.6,0,19.2,0
		c-1.9-16.5-4-32.5-5.4-48.6c-0.7-8,0.2-16,0.3-24.1c0.1-12.2-0.2-24.3,0.2-36.5c0.3-9.6,0.3-19.3,4.3-27.7
		c-1.7-1.7-3.1-3.5-3.2-5.4c-0.3-3.9-0.1-7.8,0.4-11.6c1.7-13.6,1.3-28.2,6.1-40.6c7.5-19.2,18.5-37.1,28.6-55.2
		c4.2-7.5,10.3-14.1,15.1-21.3c13.7-20.4,29.9-38,52.4-48.9c1-0.5,1.5-2.2,2.2-3.4c9.2-10.8,18.5-21.7,27.7-32.5
		c5.6-2.6,9-7.3,11.5-13.2c0.9,2.6,1.6,4.5,2.4,6.7c-3,2.5-6.4,5.3-9.7,8.1c0.1,0.3,0.3,0.5,0.4,0.8c3.7-1.8,7.3-3.5,11.3-5.5
		c-0.7,5.8-1.3,11.4-2,17.1c6.3-4.9,5.4,4.7,9,4.6c3.9-3.5,7.6-6.9,12.1-10.9c1.2,2.5,2.4,5.2,3.6,7.6c2-2.8,4.8-6.5,7.6-10.4
		c4.8,2.5,0.9,7.4,1.4,12.1c1.5-1.2,2.4-2.1,3.7-3.1c0.3,3,0.5,5.6,0.7,8.1c0.6,0,1.2-0.1,1.8-0.1c-0.2-5.4-0.7-10.8-0.3-16.1
		c0.1-1.7-0.4-5.9,4.1-5.2c0.6,0.1,1.5-1.4,2.1-2.2c2.4-3.4,4.8-6.9,7.1-10.3c0.4,0.3,0.9,0.6,1.3,1c-0.2,1.6-0.4,3.2-0.5,4.9
		c1.6-2.5,6.1-4.2,2.5-7.9c-0.2-0.2,1.2-1.8,1.9-2.8l-0.2-0.2c0.9,5.5,2,10.9,2.6,16.4c0.2,2.5-0.7,5-1.3,8.9
		c3.4-3.7,6.1-6.5,8.9-9.5c0.2,2.4,0.4,4.4,0.5,6.5c0.4,0,0.7,0,1.1-0.1c0.8-2,1.5-3.9,2.3-6c1.1,1.2,2,2.2,2.9,3.2
		c0.2-0.2,0.5-0.4,0.7-0.6c-0.6-1.6-1.2-3.2-2.2-5.8c2,1.5,3.1,2.4,4.2,3.2c0.4-0.2,0.7-0.4,1.1-0.6c-1.1-3-2.1-6-3.3-9.4
		c1.3-1.7,3-3.9,4.6-6c0.2,0.1,0.4,0.2,0.6,0.3c-0.7,2.6-1.3,5.1-2,7.7c0.2,0.1,0.5,0.2,0.7,0.2c0.9-1.7,1.8-3.4,2.7-5.3
		c0.6,0.9,0.9,1.5,1.4,2.2c1-2.8,1.8-5.1,2.6-7.4c0.4,0.2,0.9,0.3,1.3,0.5c-0.4,1.9-0.8,3.8-1.1,5.7c0.2,0.1,0.5,0.1,0.7,0.2
		c1.2-3,2.4-5.9,3.5-8.9c0.4,0.1,0.8,0.3,1.2,0.4c-0.4,2-0.7,4.1-1.1,6.1c0.9-0.1,1.5-0.2,2.4-0.3c-1.2,2.9-2.2,5.3-3.2,7.6
		c0.3,0.1,0.5,0.2,0.8,0.3c3.3-5.3,6.7-10.6,9.5-15.2c0,2.8,0,6.8,0,10.7c1.8-0.3,4.2,0,5.1-1c1.9-2.1,4.1-5,4.1-7.5
		s-1.3-2.8,0.7-3.9c4-2.3,5.1-5.4,3.9-9.7c-0.2-0.6,0.6-1.5,0.9-2.3c0.5,0,1-0.1,1.5-0.1c0.4,1.7,0.8,3.3,1.2,5
		c-0.7,1.7-1.3,3.4-2,5.1c-0.4,1.7-1.1,3.4-1.1,5.1c0.1,5.1,0.5,10.2,0.8,15.3c1.1-5,6.5-7.4,6.4-14c-0.1-6.2-1.5-13.8,4.7-18.9
		c0.6-0.5,0.1-2,0.6-2.6c2.8-3,1.2-6.5,0-9c-1-2.1-4.4-3-6.7-4.4c-0.5,0.6-1,1.3-1.5,1.9c1.3,0.5,2.7,1.1,5.1,2
		c-4.2,0.6-6.3,1-8.5,1.3c-0.1-0.3-0.3-1.2-0.6-2.1c-0.4,0-0.8,0-1.1,0.1c0,4.9,0,9.9,0,14.8c-0.9,0-1.7,0.1-2.6,0.1
		c-0.2-3.5-0.4-7.1-0.6-10.6c-0.4,0.1-0.9,0.1-1.3,0.2c-0.5,1.4-0.9,2.8-1.9,5.5c-1.6-2.9-2.5-4.6-3.5-6.4c2.9-0.6,4.9-1.1,6.9-1.5
		c0-0.2-0.1-0.4-0.1-0.6c-3.2,0.2-6.4,0.4-11.3,0.8c3.2-5.1,5.5-8.8,7.8-12.5c0.4,0.2,0.9,0.5,1.3,0.7c-1.1,2.3-2.2,4.7-3.2,6.9
		c1.3,0.2,2.8,0.4,4.1,0.6c0-6.3,0-12.6,0-19l-0.1,0.1c1.7-1.8,4.7-3.5,4.8-5.3c0-4.7-1-9.5-2.1-14.1c-0.5-2.2-3.5-4.5-3-6
		c1.4-3.9-1-5.7-2.8-8.1c-0.3-0.5-0.2-1.3-0.4-2.7c4,1.8,7.2,3.4,10.6,4.9c0.2-4.5-3.4-4.7-6.3-5.4c-6-1.5-11.9-2.5-15.3-8.9
		c-1.6-3-5.1-5-7.7-7.4c-0.4,0.4-0.8,0.7-1.2,1.1c1.4,2,2.8,4.1,4.3,6.3c-3-1-5.2-1.7-7.5-2.4c-0.5-1-1.2-2-1.4-3
		c-0.5-2.9-0.8-5.7-1.1-8.6c-0.8,0-1.5-0.1-2.3-0.1c2.9,4,1.1,5.3-1.8,5.5c1.3,2.4,2.5,4.6,3.6,6.9c1,2.2,2.2,2.5,4,0.8
		c1.1,1.2,2.1,2.5,3.3,3.8c-6.1,1.3-9.3-2.4-12.3-6.7c2,5.5,0.3,7.1-7,6.9c-0.9-2-1.7-4-2.6-6c0.3-0.3,0.7-0.7,1-1
		c1.8,1.3,3.5,2.6,5.9,4.3c-0.6-3.4-1-6.4-1.5-9.4c-0.6,0.1-1.2,0.2-1.9,0.3c0.1,1.2,0.3,2.4,0.4,3.5c-3.3-0.4-6.5-0.7-10-1.1
		c0.5-2.3,0.9-3.8,1.3-5.8c-1.9,2.4-3.4,4.3-4.9,6.2l0.2,0.1c-6-3.4-6.3,3.7-9.6,5.6c-0.7-1.2-1.2-2.3-1.9-3.1
		c-3-3.3-4.7-8.8-11-6.6c-0.2,0.1-2-2.9-1.7-3.3c3.2-4-0.6-5.8-2.6-7.7c-2.5-2.3-5.5-4-8.3-6c-0.3-0.2-0.3-0.9-0.6-1.8
		c1.4,0.5,2.4,0.8,3.8,1.3c-0.6-1.5-1.1-2.7-2.6-6.2c-4.2,4-7.5,7-10.7,10.1c0.4,0.5,0.9,0.9,1.3,1.4c-0.9-2.7-1.7-5.4-2.7-8.5
		c1.9,0.9,3.4,1.6,5,2.4c0.2-0.3,0.3-0.6,0.5-0.9c-2.4-1.8-4.7-3.7-7.1-5.5c0.4-0.7,0.9-1.4,1.3-2.1c2.1,0.9,4.2,1.7,6.3,2.6
		c-0.9-2.7-2.2-5.6-4.2-6.2c-5.2-1.7-10.1-0.4-12.9,3c-3.1-1.9-5.7-3.6-8.3-5.2c0.4-0.5,1.3-1.6,3.3-3.9c-3.3,1.1-5,1.9-6.7,2.1
		c-0.5,0.1-1.2-1.6-1.8-2.6c2.1-1.8,3.5-5.8,7.5-0.9c0.1-0.7,0.2-1.5,0.3-2.2c-1.8-1.1-3.6-2.2-5.6-3.4c1.1-11.4,0.8-11.9-5.6-11.3
		c-0.5,1.6-1.7,3.3-1.3,4.5c1.4,4.6,3.2,9,4.9,13.4c-2.4-2.4-4.3-6-7.2-7.1c-6.2-2.3-6.6-2.2-4.7-8.7c-3.2-2.9-6.3-5.7-9.7-8.8
		c0.2-0.4,0.5-1.5,0.8-2.2c-2.8,0.4-5.4,0.8-9.1,1.3c2.8-3.5,4.8-6,7-8.7c-2.7,0.1-5,0.3-8.5,0.4c2-2.3,3-3.5,4.1-4.8
		c-1.3-1-2.3-1.7-2.9-2.3c-1.2,4.3-2.4,8.5-3.6,12.6c0.4-0.2,0.9-0.5,1.3-0.7c0.6,1.3,1.2,2.7,1.9,4.5c-8.1,0.8-8.7-6.1-12.3-8.8
		c1.5-1.1,2.8-2,4.1-3c-0.2-0.4-0.4-0.9-0.6-1.3c-1.5,0.4-3,0.9-4.8,1.4c0.1-1.7,0.1-3.2,0.2-5.2c-5.8,3.5-10.4,1.2-14.7-3.5
		c-2.4,3-4.5,5.7-6.9,8.9c-1.4-4.1-2.5-7.1-3.7-10.3c1,0,1.6,0,3,0c-2.7-3.3-4.9-5.9-7.6-9.1c-1.2,4.2-2,6.8-2.7,9.4
		c-0.5,0-1.1-0.1-1.6-0.1c-0.2-2.6-0.5-5.3-0.9-9.6c-3.6,2.6-6.6,4.9-9.7,7.1c-0.2-0.3-0.4-0.5-0.7-0.8c1-1.2,2-2.4,3.1-3.7
		c-2.7,0.7-5,1.4-8.2,2.3c-0.1,0.1-0.6,1.6-1.6,2.7c-0.3,0.3-2.3-0.2-2.7-0.8c-2-3.5-3.8-7.1-6.1-11.7c-2.6,0-6.5-0.4-10.3,0.1
		c-3.4,0.4-7.3,1-7.1,6.1c0.1,1.3-0.1,2.6-0.2,3.9c-2.5-1.6-4.7-3-7.7-5c-1-5.7-2.3-6.5-8.3-3c-5.1,3-9.6,4.8-13.6-2.2
		c-0.4,0.5-0.8,1-1.3,1.4c1.8,4,3.6,8.1,5.4,12.1C728.4-1.1,727.7-0.3,727,0.6z M574.9,76.1c-2.4-3.2-6-4.4-8.2-0.9
		c-1.8,2.8-1.4,7-2.2,11.3c1.7-0.9,3.4-1.8,6.4-3.4c-6.3,7.1-8.8,14.6-9.6,23c1.8-1.1,3.1-1.8,4.4-2.6c-0.5-0.2-0.9-0.4-1.4-0.6
		c2-5.8,4-11.6,6.2-17.3c0,0,1.2,0.4,1.8,0.6c0,5.2,0,10.3,0,15.7c0.8-0.2,1.8-0.1,2.1-0.5c2-2.9,3.8-5.9,5.6-8.9
		c0.3-0.5-0.3-1.4-0.3-2.1c-0.3-4.1-0.5-8.2-0.8-13.1C578.3,77.1,576.6,76.6,574.9,76.1z M573.7,111.6c0.2,4.7,0.5,9.4,0.7,14.1
		c0.3-0.1,0.6-0.1,0.9-0.2c0-6.9,0-13.8,0-20.7c-0.7-0.2-1.5-0.4-2.2-0.6c-1.9,4.5-3.7,9.1-5.6,13.6c0.8,0.4,1.7,0.8,2.5,1.2
		C571.2,116.7,572.4,114.3,573.7,111.6z"/>
	<path class="st0" d="M609.3,165.4c-3.4-4.9-3.3-10.3-1.9-15.6c0.5-1.9,2.2-3.5,3.4-5.5c-0.7-2.2-1.6-4.8-2.8-8.7
		c-2,3.3-3.5,5.9-4.8,8.5c-0.1,0.2,2,1.4,3.3,2.2c-1.8,1.1-3.7,2.3-6.2,3.9c0.2,0.4,0.9,2.1,1.9,4.4c-4.4-4-7.4-21.9-5-28.7
		c0.9,4,1.8,7.5,2.6,11c0.5-0.1,1.1-0.2,1.6-0.3c-1.3-7.5-2.6-15-4-22.7c-7.9,5.6-4.1,14.7-5.6,22.5c-1.3-4.6-2.5-9.2-3.8-13.7
		c-0.4,0-0.9,0.1-1.3,0.1c-0.2,1.8-0.4,3.7-0.6,5.5c-0.2,0-0.4,0-0.6,0.1c-0.2-2-0.4-3.9-0.6-5.9c-0.3,0-0.6,0-0.9-0.1
		c0,3,0,6.1,0,10c-4.1-8.7-8.7-16.2-5.1-25.7c0.8-2-0.9-4.9-1.5-7.5c1.9,1.6,3.5,3.1,5.1,4.5c0.4-0.3,0.8-0.6,1.2-0.9
		c0,2.3,0,4.7,0,6.3c4.3-0.2,8.3-0.3,12.2-0.7c0.9-0.1,1.7-1.3,2.5-1.9c0.1-0.6,0.2-1.3,0.2-1.9c-0.1-4.3-0.3-8.6-0.2-13
		c0-1.1,0.5-2.3,2.1-3.4c0.2,2.3,0.4,4.7,0.6,7c0.5,0.1,0.9,0.2,1.4,0.3c0.5-3.3,1-6.6,1.6-9.9c0.7-4.1,0.8-8.5,2.4-12.3
		c1.1-2.6,4.2-4.3,6.4-6.4c0.4,0.4,0.9,0.7,1.3,1.1c0-2.2,0-4.3,0-6.5c-0.5-0.4-0.9-0.7-1.4-1.1c-0.4,0.9-0.9,1.8-1.4,3
		c-0.9-2.3-1.8-4.6-3.1-8.1c-1,4-1.7,6.8-2.4,9.6c-3-1.6-3-1.6-3-12.9c-3.3,7-6.6,13.9-9.6,20.3c1.1-7.8,2.4-16.4,3.7-25
		c-5.3-0.4-6.2,0.9-7.8,10.5c-0.6-1-1.1-1.8-2-3.3c-0.6,2.3-1.1,3.7-1.6,5.6c-1.1-10.5,2.1-18.1,8.6-20c-0.8,1.5-1.4,2.7-2.5,4.7
		c3.3-0.3,5.9-0.5,8.9-0.8c-0.5,1.4-1.4,3.3-2,5.3c-0.5,1.9-0.7,3.9-1.2,6.5c6.9-8.8,8.3-17.6,3.5-21.4c2.8-1.4,5.5-2.7,8.3-4
		c0.4-0.2,1.1,0.1,1.9,0.1c0.4,1.5,0.9,3,1.3,4.5c3-1.3,5.9-2.5,8.9-3.7c-1.3,4.5-8.3,3.7-6.8,9.8c0,0.1,1.5-0.1,2.5-0.2
		c-0.4,4-0.9,7.9-1.3,11.9c0.5,0.1,0.9,0.1,1.4,0.2c0.3-0.8,0.5-1.6,0.9-2.8c1.2,0.9,2.4,1.8,3.5,2.6c0.4-0.3,0.9-0.7,1.3-1
		c-1.3-1.9-2.5-3.9-4-6c3.9-4.8,5.3-11.4,5.6-18.4c0.1-2.9,0.1-5.9,3.6-7.4c1.9-0.8,3.6-2.3,6.1-2.9c-2.4,2.1-4.7,4.2-7.2,6.4
		c5,1.9,9.3,3.6,13.7,5s8.9,2.4,13.8,3.8c0.2-5.8-10.4-7.1-6.9-15c1.5,1.9,2.8,3.5,3.9,4.9c2.7-3.2,5.2-6.3,8.7-10.3
		c-0.5,2.5-0.8,3.9-1.1,5.3c-5.5,3.4-5.9,4.3-4.1,10.3c2.5-1.5,5-3.1,7.6-4.7c-3.8,5.5-3.4,6.8,3.4,8.9c-4.6-7.8,7.2-4,6.1-9.6
		c1.3,3.4,2.6,6.8,4,10.5c2.7-2.3,8.4-0.2,8.7-6.1c0.2-0.2,0.3-0.3,0.5-0.5c1.1,2,2.1,3.9,3.2,5.9c-2.9,1.3-5.8,2.6-8.7,3.8
		c0.2,0.5,0.4,1,0.6,1.5c1.4,0.2,2.9,0.4,3.4,0.4c0.9,2.4,1.7,4.3,2.5,6.2c0.4-0.1,0.8-0.2,1.1-0.4c-0.2-1.5-0.4-3-0.6-4.5
		c0.5,0.2,0.9,0.4,1.4,0.6c0.5-1.4,1-2.7,1.6-4.1c1.1-0.5,2.3-1,3.7-1.6c0.5,1.7,1,3.1,1.4,4.6c0.5,0,0.9-0.1,1.4-0.1
		c0-2.1,0-4.2,0-6.3c0.5-0.4,1.1-0.8,1.6-1.3c1,2.3,2,4.6,3,6.9c1-0.7,1.9-1.3,2.9-2c-1.5-3.6-2.9-7.3-4.4-10.9c1.8,2,3.5,4,5.6,6.4
		c-0.5-4.2-1-7.9-1.5-11.7c-0.5-0.1-1-0.1-1.5-0.2c-1.1,1.6-2.1,3.3-3.2,4.9c-1.1,0.4-2.1,0.8-3.2,1.2c-0.2-0.2-0.4-0.4-0.7-0.5
		c2.6-2.8,5.2-5.6,7.8-8.3c-0.3-0.3-0.5-0.6-0.8-0.9c-0.9,0.4-1.9,0.9-3.2,1.5c1.8-4.3,3.4-8,5-11.7c0.4,0.1,0.8,0.1,1.1,0.2
		c-0.2,2.9-0.5,5.9-0.7,8.8c0.3,0,0.6,0.1,0.9,0.1c1.5-6.6,3.1-13.3,4.8-20.8c0.5,0.2-0.5-0.2-1.5-0.7c1.9-4.5,5.6-6.2,10.9-5.8
		c1.8,2.8,3.2,4.9,4.6,7c1,1.6,1.9,3.2,2.8,4.8c-2.5-2-5-4.1-7.5-6.1c-1.8,5.2-3.3,9.6-4.9,14c1.2-0.8,2.6-1.8,4-2.7
		c-0.1,0.5-0.2,1.1-0.3,1.6c2,0.7,4,1.4,6,2.1c0.2-0.5,0.4-1.1,0.6-1.6c-1.1-0.4-2.1-0.7-3.9-1.3c2.4-1.7,4.2-3,6-4.3
		c0.7,1.9,1,5.1,2.1,5.3c5.4,1.3,7.6-3.6,10.2-6.8c0.9-1.1-0.2-4-0.5-6c0-0.3-0.9-0.5-1.2-0.6c-2.3,2.7-4.4,5.3-6.6,8
		c-0.6-1-1.1-2-1.6-2.9c-1.8-4-3.6-8.1-5.4-12.1c0.4-0.5,0.8-1,1.3-1.4c3.9,7,8.5,5.2,13.6,2.2c5.9-3.5,7.3-2.7,8.3,3
		c3,1.9,5.2,3.3,7.7,5c0.1-1.2,0.2-2.6,0.2-3.9c-0.3-5.1,3.7-5.6,7.1-6.1c3.8-0.5,7.7-0.1,10.3-0.1c2.4,4.6,4.1,8.3,6.1,11.7
		c0.4,0.6,2.4,1.2,2.7,0.8c1-1.1,1.5-2.6,1.6-2.7c3.2-0.9,5.5-1.5,8.2-2.3c-1.1,1.3-2.1,2.5-3.1,3.7c0.2,0.3,0.4,0.5,0.7,0.8
		c3-2.2,6.1-4.5,9.7-7.1c0.4,4.3,0.6,6.9,0.9,9.6c0.5,0,1.1,0.1,1.6,0.1c0.8-2.6,1.5-5.3,2.7-9.4c2.7,3.2,4.9,5.9,7.6,9.1
		c-1.3,0-2,0-3,0c1.1,3.2,2.2,6.2,3.7,10.3c2.5-3.2,4.6-5.9,6.9-8.9c4.3,4.7,8.8,7,14.7,3.5c-0.1,2-0.2,3.5-0.2,5.2
		c1.8-0.5,3.3-0.9,4.8-1.4c0.2,0.4,0.4,0.9,0.6,1.3c-1.3,1-2.6,1.9-4.1,3c3.6,2.7,4.2,9.6,12.3,8.8c-0.8-1.8-1.3-3.1-1.9-4.5
		c-0.4,0.2-0.9,0.5-1.3,0.7c1.2-4.1,2.4-8.3,3.6-12.6c0.7,0.5,1.6,1.3,2.9,2.3c-1.2,1.4-2.2,2.5-4.1,4.8c3.5-0.2,5.7-0.3,8.5-0.4
		c-2.2,2.7-4.2,5.2-7,8.7c3.7-0.5,6.3-0.9,9.1-1.3c-0.3,0.7-0.6,1.8-0.8,2.2c3.3,3,6.5,5.9,9.7,8.8c-1.9,6.5-1.5,6.4,4.7,8.7
		c2.9,1.1,4.8,4.6,7.2,7.1l-0.1-0.1c0.6,0.9,1.3,2.6,1.8,2.5c1.8-0.2,3.5-1,6.7-2.1c-2,2.3-2.9,3.4-3.3,3.9c2.5,1.6,5.2,3.3,8.3,5.2
		c2.8-3.3,7.8-4.6,12.9-3c2,0.7,3.3,3.5,4.2,6.2c-2.1-0.9-4.2-1.7-6.3-2.6c-0.4,0.7-0.9,1.4-1.3,2.1c2.4,1.8,4.7,3.7,7.1,5.5
		c-0.2,0.3-0.3,0.6-0.5,0.9c-1.5-0.7-3.1-1.5-5-2.4c1,3.1,1.9,5.8,2.7,8.5c-0.4-0.5-0.9-0.9-1.3-1.4c3.3-3.1,6.5-6.1,10.7-10.1
		c1.4,3.5,1.9,4.7,2.6,6.2c-1.4-0.5-2.4-0.8-3.8-1.3c0.3,0.9,0.3,1.6,0.6,1.8c2.8,2,5.8,3.7,8.3,6c2,1.9,5.8,3.7,2.6,7.7
		c-0.3,0.4,1.5,3.4,1.7,3.3c6.4-2.2,8.1,3.3,11,6.6c0.7,0.8,1.1,1.9,1.9,3.1c3.4-1.9,3.6-9,9.6-5.6c-8.2,4.3-9.3,6-7.8,12.5
		c-1,3.9-1.9,7.9-2.9,11.8c0.8,0.2,1.5,0.4,2.3,0.5c1-4.1,2-8.2,3-12.3c0.6,1.3,1.1,2.7,1.2,2.8c3.5-3.8,7.3-7.9,11.3-12.4
		c-2.5-1-4.9-2-7.3-3c1.5-1.9,3.1-3.8,4.9-6.2c-0.4,1.9-0.8,3.5-1.3,5.8c3.5,0.4,6.7,0.8,10,1.1c-0.1-1.1-0.3-2.3-0.4-3.5
		c0.6-0.1,1.2-0.2,1.9-0.3c0.5,3,1,6,1.5,9.4c-2.3-1.7-4.1-3-5.9-4.3c-0.3,0.3-0.7,0.7-1,1c0.8,2,1.7,4,2.6,6c7.3,0.2,9-1.4,7-6.9
		c2.9,4.3,6.2,8,12.3,6.7c-1.1-1.3-2.2-2.6-3.3-3.8c-0.3-0.5-0.6-1-0.9-1.5c2.2,0.7,4.5,1.4,7.5,2.4c-1.5-2.2-2.9-4.2-4.3-6.3
		c0.4-0.4,0.8-0.7,1.2-1.1c2.6,2.5,6,4.5,7.7,7.4c3.5,6.3,9.3,7.4,15.3,8.9c2.8,0.7,6.5,0.8,6.3,5.4c-3.4-1.6-6.7-3.1-10.6-4.9
		c0.2,1.5,0.1,2.3,0.4,2.7c1.7,2.4,4.1,4.2,2.8,8.1c-0.5,1.4,2.5,3.8,3,6c1.1,4.6,2.1,9.4,2.1,14.1c0,1.8-3.1,3.5-4.7,5.3
		c1-1.6,1.9-3.3,3.4-5.8c-0.4-1.3-1.2-3.8-2-6.6c-5.3,5.2-5.2,5.2-2,10.8c0.3,0.5,0.4,1,0.6,1.6c0,6.3,0,12.7,0,19
		c-1.3-0.2-2.9-0.4-4.1-0.6c1-2.2,2.1-4.5,3.2-6.9c-0.4-0.2-0.9-0.5-1.3-0.7c-2.3,3.7-4.6,7.4-7.8,12.5c5-0.3,8.1-0.6,11.3-0.8
		c0,0.2,0.1,0.4,0.1,0.6c-2,0.4-4,0.9-6.9,1.5c1,1.9,2,3.5,3.5,6.4c0.9-2.7,1.4-4.1,1.9-5.5c0.4-0.1,0.9-0.1,1.3-0.2
		c0.2,3.5,0.4,7.1,0.6,10.6c0.9,0,1.7-0.1,2.6-0.1c0-4.9,0-9.9,0-14.8c0.4,0,0.8,0,1.1-0.1c0.2,0.9,0.5,1.7,0.6,2.1
		c2.2-0.3,4.2-0.7,8.5-1.3c-2.4-1-3.8-1.5-5.1-2c0.5-0.6,1-1.3,1.5-1.9c2.3,1.4,5.6,2.4,6.7,4.4c1.2,2.5,2.8,6,0,9
		c-0.5,0.6-0.1,2.2-0.6,2.6c-6.2,5.1-4.8,12.8-4.7,18.9c0.1,6.6-5.3,9.1-6.4,14c-0.3-5.1-0.7-10.2-0.8-15.3c0-1.7,0.7-3.4,1.1-5.1
		c0.4,3.1,0.8,6.3,1.2,9.4c0.5,0,1,0,1.4,0c0.4-5.2,0.9-10.3,1.3-15.7c-0.8,0.5-1.4,0.9-2,1.2c-0.4-1.7-0.8-3.3-1.2-5
		c-0.5,0-1,0.1-1.5,0.1c-0.3,0.8-1.1,1.7-0.9,2.3c1.3,4.3,0.1,7.4-3.9,9.7c-2,1.2-0.7,1.5-0.7,3.9c0,2.5-2.2,5.4-4.1,7.5
		c-0.9,1-3.3,0.7-5.1,1c0-3.9,0-7.9,0-10.7c-2.9,4.6-6.2,9.9-9.5,15.2c-0.3-0.1-0.5-0.2-0.8-0.3c1-2.4,2-4.8,3.2-7.6
		c-0.9,0.1-1.5,0.2-2.4,0.3c0.4-2,0.7-4.1,1.1-6.1c-0.4-0.1-0.8-0.3-1.2-0.4c-1.2,3-2.4,5.9-3.5,8.9c-0.2-0.1-0.5-0.1-0.7-0.2
		c0.4-1.9,0.8-3.8,1.1-5.7c-0.4-0.2-0.9-0.3-1.3-0.5c-0.8,2.3-1.6,4.6-2.6,7.4c-0.4-0.7-0.8-1.3-1.4-2.2c-1,1.9-1.8,3.6-2.7,5.3
		c-0.2-0.1-0.5-0.2-0.7-0.2c0.7-2.6,1.3-5.1,2-7.7c-0.2-0.1-0.4-0.2-0.6-0.3c-1.7,2.1-3.3,4.3-4.6,6c1.2,3.4,2.3,6.4,3.3,9.4
		c-0.4,0.2-0.7,0.4-1.1,0.6c-1.1-0.8-2.2-1.7-4.2-3.2c1,2.6,1.6,4.2,2.2,5.8c-0.2,0.2-0.5,0.4-0.7,0.6c-0.9-1-1.8-2-2.9-3.2
		c-0.8,2-1.6,4-2.3,6c-0.4,0-0.7,0-1.1,0.1c-0.2-2-0.3-4-0.5-6.5c-2.8,3-5.4,5.8-8.9,9.5c0.6-3.8,1.5-6.4,1.3-8.9
		c-0.5-5.5-1.7-11-2.5-16.4c4.2,0.4,8.4,0.8,8.9-5.2c-1.6-0.4-3.2-0.7-5.1-1.1c0.2-3.5,0.5-7.7,0.7-12c-1.8,1.6-2.9,3.3-3.1,5.2
		c-0.6,4.4-0.8,8.8-1.2,13.3c-0.7,1-2,2.6-1.9,2.8c3.6,3.7-1,5.4-2.5,7.9c0.2-1.6,0.4-3.2,0.5-4.9c-0.4-0.3-0.9-0.6-1.3-1
		c-2.4,3.5-4.7,6.9-7.1,10.3c-0.6,0.9-1.5,2.3-2.1,2.2c-4.5-0.7-4,3.5-4.1,5.2c-0.4,5.3,0.1,10.8,0.3,16.1c-0.6,0-1.2,0.1-1.8,0.1
		c-0.2-2.5-0.4-5.1-0.7-8.1c-1.2,1-2.2,1.8-3.7,3.1c-0.4-4.7,3.5-9.5-1.4-12.1c-2.8,3.9-5.6,7.6-7.6,10.4c-1.2-2.5-2.4-5.1-3.6-7.6
		c-4.5,4-8.2,7.3-12.1,10.9c-3.6,0.1-2.7-9.5-9-4.6c0.7-5.7,1.3-11.3,2-17.1c-4,1.9-7.7,3.7-11.3,5.5c-0.1-0.3-0.3-0.5-0.4-0.8
		c3.3-2.8,6.7-5.6,9.7-8.1c-0.8-2.3-1.5-4.2-2.4-6.7c-2.5,5.9-5.9,10.6-11.5,13.2c1.3-3.8,2.6-7.6,3.9-11.4
		c-0.6-0.3-1.2-0.6-1.8-0.9c-2.6,2.8-5.1,5.8-7.8,8.5c-8.3,8-17.2,15.3-21.6,26.5c-1.2,3.1-3.4,5.9-5.2,8.9
		c1.6-4.1,3.3-8.2,4.9-12.2c-0.3-0.2-0.6-0.4-0.8-0.6c-5.3,5.8-10.5,11.6-15.8,17.4c0.4,0.4,0.8,0.8,1.2,1.2c3.6-2,7.2-4,10.8-6
		c-3.8,2.7-7.7,5.4-11.5,8.2c-2.3,1.7-4.4,3.6-6.6,5.4c0.3,0.3,0.5,0.7,0.8,1c7.3-4.5,14.7-9,22-13.5c-0.7,1.1-1.2,2.8-2.2,3.4
		c-22.5,11-38.7,28.6-52.4,48.9c-4.9,7.2-10.9,13.7-15.1,21.3c-10.1,18.1-21.1,36-28.6,55.2c-4.9,12.4-4.4,27-6.1,40.6
		c-0.5,3.8-0.6,7.8-0.4,11.6c0.1,1.9,1.5,3.8,3.2,5.4c-4.1,8.4-4,18.2-4.3,27.7c-0.4,12.2-0.1,24.3-0.2,36.5
		c-0.1,8-0.9,16.1-0.3,24.1c1.3,16.1,3.5,32.1,5.4,48.6c-5.6,0-12.1,0-19.2,0c0-11-0.1-21.8,0.1-32.6c0.1-2.7,1.2-5.4,2-8.1
		c0.3-1.1,1.6-2,1.6-3.1c0.2-13.9,0-27.9,0.5-41.8c0.6-16.4,2.1-32.9,3-49.3c0.7-13.3,0.7-26.6,1.7-39.8c0.7-9.7,2.7-19.3,4-29
		c1.1-8.5,2.1-17,2.7-25.6c1-14,2.4-28,2.1-42c-0.2-11.6-2.6-23.2-4.2-34.8c-0.2-1.7-1.5-3.3-2.6-4.8c-5.3-6.9-10.7-13.7-16.2-20.5
		c-4.5-5.6-9.2-11.2-13.8-16.7c-0.3-0.4-0.9-0.7-1.2-1.1c-7.2-10.6-14.4-21.1-21.4-31.7c-2.7-4-4.9-8.4-6.7-11.6
		c-1.4,1.2-3.1,2.5-4.8,3.9c0-0.6,0-1.1,0-1.7c-2-0.5-4.1-1.7-6-1.4c-4.5,0.8-6.1,7.6-5.7,17.5c-0.6-3.2-1-6.5-1.9-9.7
		c-1.2-4.5,2.5-6.5,4.9-8.1c2.6-1.7,6.5-1.4,10.4-2.1c-0.5-2-0.9-3.5-1.3-5.1c-2.5,0.7-4.5,1.4-7.3,2.2c-0.4-2.8-0.9-5.7-1.5-9.5
		c-2.1,4.4-4.5,7-9.4,6.2c-0.9-0.1-2.5,4.2-3.9,6.7c-0.7-2.4-1.6-5.3-2.5-8.5c-1.1,1.3-2.2,2.7-3.1,3.8c1.4,8.6,2.8,17.3,4,25.3
		c-2.1-4-4.8-9.1-7.5-14.2c-0.2,0-0.5-0.1-0.7-0.1c0.5,4.4,1,8.9,1.6,13.3c-0.2,0.1-0.5,0.2-0.7,0.3c-1.5-3-3.1-6-4.7-9.1
		c-9.2,1.9-5.8,8.8-6.2,15c-1.2-2.3-2.4-4.6-3.9-7.5c-1.2,2.6-2.2,4.8-3.2,7c-0.6-1.1-1.2-2.2-1.8-3.3l0.1,0.1
		c5.2-6,2.3-13.9,4.5-20.6c0.3-0.9-1.8-2.7-3.7-3.4c0.3-2.7,0.4-5.5,0.8-8.2c0.1-0.9,1-1.7,1.5-2.6c0.7,1.9,1.3,3.7,2.1,5.9
		c1.3-0.6,2.4-1.1,3.5-1.6c2.2,4.9,5.8,6.9,11.4,5.2c-1.4-3.7,3.9-7.6-0.3-12.4c-0.6,2-0.9,3.1-1.5,5c-1.7-6.7,1.6-15.1-8.5-16.9
		c0,2.9,0,5.7,0,8.5c-0.2,0-0.3,0.1-0.5,0.1c-0.6-2.4-1.2-4.8-1.8-7.2c-0.6,0.1-1.2,0.2-1.8,0.2c0,2.9,0.3,5.8-0.1,8.6
		c-0.3,1.7-1.8,3.2-2.8,4.8c0-1.5,0-3.1,0-4.2c-2,1.5-3.6,3.2-5.6,3.9c-1.1,0.4-2.7-0.9-4.3-1.6c-2.5,4.2-1.9,7,3.2,13
		c-4.9-1.4-7-5.6-6.1-11.7c0.8-5,1.4-10,2.2-16.1c-2.7,0.9-4.1,1.4-6,2.1c0.9,1,1.6,1.8,2.3,2.5c-4.5,1.2-7.6,7.6-6.6,13.3
		C609,162.2,609.1,163.8,609.3,165.4L609.3,165.4z M684.1,160.2c1.4,0.2,2.7,0.3,4.7,0.6c-0.6-2.8-1-4.9-1.3-6.1
		c-3.1,1.6-5.8,3-9.3,4.7c2.4,0.3,4.2,0.5,6,0.7c-0.9,0.6-1.9,1.2-2.7,1.9c-0.8,0.8-2,1.9-1.8,2.7c0.4,1.5,1.4,3,2.3,4.3
		c0.7,1,1.6,1.7,2.5,2.5c0.8-0.9,1.6-1.8,2.5-2.7c0.3,0.6,0.7,1.3,1.1,2c0.7-1.1,2.2-3,1.9-3.3c-1.2-1.3-2.8-2.1-4.8-3.5
		C684.9,163.3,684.5,161.7,684.1,160.2z M858.1,193.2c2.3-2.8,4.7-5.6,6.8-8.1c-0.2-0.5,0,0,0.2,0.5c0.2,0.6,0.4,1.1,0.6,1.7
		c0.6-0.2,1.2-0.4,1.8-0.5c-0.8-3-1.6-6-2.5-9.3c-8.3,7.2-17,18.6-16.6,21.5c1.8-0.9,3.6-1.8,5.5-2.7c-3.1,3.5-6.3,7-9.4,10.6
		c0.5,0.5,1.1,1,1.6,1.5c5.4-5,10.9-10,16.3-15.1c-0.4-0.4-0.7-0.8-1.1-1.1C860.2,192.4,859.1,192.8,858.1,193.2z M856.6,214.8
		c1.4-0.2,3.5,0.1,4-0.7c4-5.9,8-11.9,11.4-18.2c1-1.8,0.2-4.7,0.2-7c-0.7-0.1-1.4-0.2-2.1-0.4c-1,1.9-1.6,4.3-3.2,5.6
		c-6.2,5.3-7,6.6-7.6,11.8C858.9,208.9,857.5,211.8,856.6,214.8c0.6-4.3,1.1-8.7,1.9-14.8c-5,3.9-8.4,7.1-12.2,9.4
		c-3.9,2.4-5.6,5.7-5.8,10c0,0.7-0.4,1.5-0.7,2.2c-3.4,8.7-6.9,17.3-9.7,24.3c7-7.2,15.3-15.6,23.4-24.2
		C855.1,220,855.6,217.1,856.6,214.8z M812.2,189.5c-1.2,2.7-2.4,5.4-4.3,9.5c0-2.7,0-3.9,0-6c-4.2,3.4-7.9,6-11.1,9.1
		c-1.1,1-1.2,3.3-1.3,5c-0.2,3.8-0.1,7.6-0.1,11.4c-0.3,0-0.6,0-0.9,0c-0.4-2.5-0.8-4.9-1.4-8.9c-2.1,4.6-3.5,7.6-5,11.1
		c-1.7-3.2-3-5.8-4.5-8.5c-5.2,4.2-9,8.8-10,16c-1.8,11.9-4.6,23.7-7.2,35.5c-2.2,10.1-5.1,20.1-7.1,30.3
		c-1.3,6.5,0.1,13.9-2.6,19.5c-4.6,9.7-4.5,19.8-5.4,29.9c-0.3,4-0.8,7.9-1.1,11.9c0.5,0.2,1,0.3,1.4,0.5c1-1.4,2.1-2.8,3-4.2
		c9.8-16.5,19.5-33,29.2-49.5c1.5-2.6,3.6-4.9,4.5-7.6c3.1-9.8,10-16.3,18-22.1c3.7-2.7,7.4-5.8,10-9.6
		c12.7-18.8,20.4-39.9,27.1-61.3c1.6-5-0.6-9.4-4.4-12.6c-2.5-2.1-3.2-3.9-2.1-6.8c0.8-2.2,1.1-4.5,1.6-6.8
		c-0.5-0.1-0.9-0.2-1.4-0.3c-0.3,0.9-0.7,1.9-0.9,2.8c-0.2,1.2-0.3,2.4-0.5,3.8c-6.5-3.4-7-3.3-8.5,3.5c-1.5-1.2-2.8-2.3-4-3.3
		c3.4-3.7,3.9-7.8,0.7-13.6c0,4.1,0,6.8,0,10.6c-1.6-2.2-2.5-3.4-3.7-4.9c-0.3,1.4-0.5,2.3-0.7,3.6c-1.6-3.8-3-7-5.1-11.7
		c-1.6,4.1-3.8,7.3-4,10.7C810.3,180.6,811.6,185.1,812.2,189.5z M752.9,191.3c-2,1.9-4.1,2.9-4.5,4.3c-0.9,4-1.6,8.3-1.3,12.4
		c1.2,14.6,1,29.3,4.5,43.9c2.4,10.2,5.8,20.7,2.9,31.8c-1.2,4.7-0.8,9.7-1.2,14.6c5.5-18.4,10.4-36.9,14.3-55.5
		c2-9.5,5-19.2,1.7-29.2c-1.3-4-2.7-8.1-3.3-12.3c-0.5-3.3,0.2-6.8,0.3-10.2c-0.7-0.2-1.5-0.4-2.2-0.6c-1.5,2.3-3,4.7-4.3,6.8
		c-4-2.6-2.2-5.8-1.1-9.2c0.4-1.3-0.4-3.1-0.7-4.6c-0.2,0.1-0.5,0.2-0.7,0.3c-1,5.6-2,11.2-2.9,16.8c-0.5-0.1-1.1-0.2-1.6-0.3
		C752.9,197.2,752.9,194.3,752.9,191.3z M744.6,253.3c0.4-17.4,0.6-17.6-5.7-27.4c-10.8-16.8-21.9-33.5-33.4-50.9
		c-1.5,2.7-2.3,4-3.4,6c0-3.4,0-6,0-8.7c-0.3,0-0.5,0-0.8,0c-0.5,2.2-1,4.4-1.6,6.9c-0.9-4.8-1.7-9.1-2.5-13.4
		c-0.8,5.2-0.4,10,0,14.8c0.3,3.7,0,7.5,1.1,10.9s3.5,6.4,5.6,9.4c9.5,13.4,19,26.9,28.9,40.1C736.1,245.5,740.4,249,744.6,253.3z
		 M725.7,162.3c-4.6,1.3-3.6,5.3-3.1,8.4c1.7,9.6,3.9,19.1,5.9,28.7c0.6,2.7,0.9,5.6,2.2,7.9c3.9,6.8,8.3,13.4,12.1,19.5
		c0-8.5,0.7-17.7-0.4-26.5c-0.4-3.4-1.1-6.6-0.6-10.2c0.3-2.1,0.2-5.8-1-6.3c-4-1.9-4.3-5-4.7-8.6c-0.3-2.5-1.3-5-2.5-8.9
		c-0.3,3.5-0.5,5.4-0.7,7.3c-0.3,0-0.6,0-0.9,0.1c-0.5-1.8-0.9-3.6-1.6-6.2c-1,1.4-1.6,2.2-2.6,3.6
		C727.1,167.9,726.4,165.2,725.7,162.3z M714.1,185.2c0.4-0.2,0.8-0.4,1.2-0.7c-0.3-2.2-0.4-4.4-0.9-6.5
		c-2.9-12.2-5.7-24.4-8.8-36.5c-1.6-6.3-7.1-6.8-13.1-7.9c1.2,2.8,2,5,3.2,7.7c-1.5-0.8-2.4-1.3-3.7-1.9c-0.1,9.6,2.8,17.7,8.3,25.2
		c0.4-0.9,0.8-1.8,1.2-2.8c0.8,1.5,1.4,2.7,1.9,3.8c1.5-1.2,2.7-2.2,4-3.2c0,2.1,0,4.1,0,5.8c-1.3,0.2-2.2,0.4-3.4,0.6
		C707.5,174.6,710.8,179.9,714.1,185.2z M717.4,171.7c-0.3,0-0.5,0.1-0.8,0.1c-0.4-2.1-1.3-4.3-1-6.4c0.7-4.8,2.6-9.6,2.8-14.4
		c0.1-3.6-0.9-10-2.7-10.5c-4.9-1.4-3.7-5-4.9-7.8c-0.8-1.7-1.8-3.4-2.7-5.1c-1.3,2.1-2.7,4-3.8,6.2c-0.3,0.6,0.5,1.7,1,2.5
		c6.9,13.7,9.2,28.6,11,43.5c1,8.2,5.7,13.6,10.6,21c-0.2-3.2-0.2-4.9-0.5-6.5c-1.7-8.7-3.4-17.4-5.3-26.1c-0.3-1.2-1.8-2.1-3.2-3.7
		C717.6,167.7,717.5,169.7,717.4,171.7z M609.4,95.8c-1.4-2.7-2-3.9-2.6-5.2c-0.5,0-1.1,0-1.6,0c-0.1,3.7-0.9,7.6,0,11
		c1.3,5.1,5.8,1.2,8,2.1c3-5.1,5.8-9.7,8.8-14.8c-3.1,0.8-5.9,1.5-9.7,2.5c-0.3-0.5-1.5-2.1-2.8-3.9C609.4,89.9,609.4,92,609.4,95.8
		z M849.4,191.6c6.1-7.6,11.4-14.2,16.8-20.9c-0.4-0.4-0.7-0.9-1.1-1.3c-3.2,2.7-5.5,2.5-6.3-1.3c-0.8,2.8-1.6,5.7-2.6,9.5
		c-1.4-3.7-2.3-6.1-3.3-8.6c-1.6,3.3-2.2,6.7-2.6,10C850,182.5,849.8,186,849.4,191.6z M986.4,122.7c-0.5-0.2-0.9-0.5-1.4-0.7
		c-1.4,3.8-2.8,7.7-4.4,12.2c-0.8-1.6-1.2-2.3-1.5-2.9c-0.3,0.1-0.5,0.2-0.8,0.3c0.6,2.1,1.2,4.2,2,7c1.4-1.6,2-2.3,2.3-2.6
		c2.7,3.3,5.2,6.4,7.8,9.5c0.7-0.4,1.4-0.7,2.1-1.1c-2-4.8-4.1-9.6-6-14.1c0.9-0.6,1.9-1.1,2.9-1.7c-1.1-0.6-2.1-1.3-3.6-2.1
		C985.8,125.7,986.1,124.2,986.4,122.7z M622.8,60.7c-0.6-0.1-1.1-0.1-1.7-0.2c-0.8,7.8-1.8,15.6-2.3,23.4c-0.1,1.5,1,3.7,2.2,4.3
		c1.6,0.8,3.9,0.4,5.9,0.5c-0.2-1.8-0.3-3.6-0.6-5.4c-0.3-1.6-0.8-3.1-1.2-4.9c-0.9,0.8-1.7,1.4-2.3,1.9
		C622.8,73.6,622.8,67.2,622.8,60.7z M944.9,196.2c6.2-9.7,6.3-14.2,0-22.1C944.9,181.9,944.9,188.7,944.9,196.2z M970.3,144.8
		c-1.8,5.1-4.4,8.7-4,11.9c0.7,5.2,5,0.8,9.3,1.8C973.8,153.8,972.3,150.1,970.3,144.8z M604.6,47.7c1.8-0.6,2.8-0.8,3.8-1.2
		c1.5-0.6,4.1-1,4.3-1.9c0.3-1.7-0.7-3.7-1.3-5.5c-0.4-1.1-1.2-2.1-1.5-3.3c-0.3-0.9-0.1-1.9-0.1-2.8c-0.4,0-0.8,0-1.2,0
		C607.4,37.6,606.1,42.3,604.6,47.7z M882.4,64.3c5.2-3.9,4.8-4.9-5-13.5c0.6,5.3,1.1,9.7,1.6,14.4c1.5-1.8,2.3-2.8,3.1-3.7
		C882.1,62.3,882.2,63,882.4,64.3z M655.3,146.8c-0.5,1.8-0.9,3.2-1.3,4.7c-1.5-1.5-2.5-3.1-3.8-3.5c-0.8-0.2-3,1.7-3,2.6
		c0.1,2.1,1.1,4.2,1.7,6.5C657.7,152.8,658.8,150.9,655.3,146.8z M985.1,143.4c-3.5,0.1-6.4,1.1-5.2,4.7c1.2,3.5,3.7,6.5,5.7,9.8
		c0.4-0.1,0.8-0.2,1.2-0.3C986.2,152.9,985.7,148.2,985.1,143.4z M710.2,13.2c-3.2,4-3.2,7.5,0.1,11.3c4.4-0.9,7.8-2.4,5-7.9
		c-0.1-0.2-0.5-0.2-0.8-0.4c-0.3,1.5-0.5,2.8-0.7,4.2c-0.5,0.1-1,0.2-1.4,0.3C711.6,18.1,710.9,15.6,710.2,13.2z M787.3,196
		c-3.7,6.6-7,12.6-10.3,18.5c0.4,0.2,0.9,0.4,1.3,0.7C782.8,209.6,788.5,204.8,787.3,196z M714.4,26.3c-6.2,0.3-9.1,6.7-6.8,14.3
		C709.8,36,712.1,31.2,714.4,26.3z M602.5,113.3c-2.9,6.2-1.1,16.2,3.2,20.4C604.6,127,603.6,120.4,602.5,113.3z M730.6,18
		c0.7,0,1.5,0.1,2.2,0.1c0.1-2.8,0.2-5.6,0.3-8.4c-1.6,0.1-4-0.5-4.6,0.3c-1.1,1.5-1.2,3.7-1.8,5.7c0.6,0.2,1.2,0.4,1.8,0.7
		c0.5-0.7,1-1.4,1.7-2.3C730.4,15.6,730.5,16.8,730.6,18z M843.3,23.5c-3.6-4.2-6.8,0.3-9.5,1.4c-1.7,0.7-2.1,4.7-2.7,6.1
		C835.1,28.6,839.1,26.1,843.3,23.5z M842.9,59c1,0.2,1.9,0.4,2.9,0.6c1.5-2.8,3-5.6,4.4-8.4c-0.4-0.2-0.9-0.5-1.3-0.7
		c-0.7,0.4-1.5,0.9-2.4,1.4c-0.4-1-0.7-1.9-1-2.8c-0.3,0-0.6,0-1,0C844,52.3,843.4,55.6,842.9,59z M864,71.5
		c2.6-2.9,4.7-4.9,6.3-7.3c0.6-0.8,0.2-2.4,0.1-3.7c0-0.1-1.2-0.1-1.9-0.2c0.8,4.7-4.1-0.2-4.6,2.6C864,65.5,864,68.1,864,71.5z
		 M699.7,58.6c0.3-3.7,0.7-7.5,1-11.1c-2.9,1.1-5.1,1.9-7.3,2.8C695.9,53.6,697.8,56,699.7,58.6z M625.7,128
		c-2.9-4.1-5.3-7.6-7.7-11c-0.3,0.2-0.7,0.3-1,0.5c1.8,4.7,3.6,9.4,5.9,15.4C624.7,129.7,625.4,128.5,625.7,128z M1012.1,161.5
		c-0.6,0.1-1.2,0.3-1.8,0.4c-0.3,3.5-0.7,6.9-1,10.7c0.6,0.2,2.2,0.9,4.9,2C1013.4,169.6,1012.8,165.6,1012.1,161.5z M891.9,57.5
		c-4.9,2.2-1.8,6-0.7,9.3c0.3,0.8,1.8,1.3,2.7,1.9c0.3-1.2,1-2.5,0.8-3.6C894,62.6,892.9,60.2,891.9,57.5z M788.7,153.5
		c-0.6-0.1-1.2-0.3-1.7-0.4c-0.5,2.9-1.4,5.7-1.2,8.5c0.1,0.8,3.5,1.5,5.5,1.8c0.5,0.1,1.2-1.5,1.9-2.5c-1.7-0.3-3.1-0.6-4.8-0.9
		c0.9-1.2,1.5-1.9,2.5-3.1c-1.5,0.4-2.3,0.5-3.7,0.9C787.8,156.1,788.2,154.8,788.7,153.5z M851.4,55.2c-1.8,2.9-3.4,5.5-5,8.1
		c1.2,0.1,2.5,0.6,3.7,0.3C854.9,62.5,854.1,59.5,851.4,55.2z M694.9,192.1c0.6-0.3,1.3-0.6,1.9-0.9c-2.3-4.7-4.6-9.4-6.9-14.1
		c-0.8,0.4-1.6,0.8-2.3,1.2C690.1,182.9,692.5,187.5,694.9,192.1z M920,196.4c0.6,0.2,1.1,0.5,1.7,0.7c1.1-5,2.2-9.9,3.4-15.7
		C916.6,185.2,923.3,192.1,920,196.4z M677.1,154.3c0.6,0.8,1.3,1.6,1.9,2.5c1.7-1.2,3.8-2.2,4.9-3.8c0.5-0.8-1.1-2.9-1.7-4.4
		C680.5,150.5,678.8,152.4,677.1,154.3z M866,57.3c-0.5-4.3-1.1-8.5-1.7-13.3C860.5,49.5,861.5,56,866,57.3z M956.9,134.5
		c0.3,0.5,0.6,1.1,0.9,1.6c1.7-0.4,4.1-0.3,4.9-1.4c1-1.4,0.5-3.7,0.7-5.7c-0.6-0.2-1.2-0.4-1.8-0.5
		C960.1,130.5,958.5,132.5,956.9,134.5z M636.2,29.9c0-0.4,0.1-0.9,0.1-1.3c-1.8-0.1-4.4-1.1-5.4-0.3c-2.2,1.8-3.5,4.6-5.2,6.9
		c0.2,0.2,0.4,0.4,0.6,0.6C629.6,33.8,632.9,31.8,636.2,29.9z M781.2,4.2c1.9,4.6,3.1,7.7,4.4,10.8c1.1-1,2.7-2.4,5-4.5
		C787.6,8.6,785,6.8,781.2,4.2z M690.7,156.2c-0.6,0.1-1.1,0.2-1.7,0.3c0.9,2.8,1.5,5.6,2.8,8.2c0.2,0.4,3.1-0.5,5.6-0.9
		C694.6,160.6,692.7,158.4,690.7,156.2z M833.9,56.4c0.7,0.9,1.7,2.1,2.9,3.7c3.1-3.7,6.4-6.2,1.4-9.9
		C836.9,52,835.7,53.8,833.9,56.4z M791.7,173.4c-2.2-3.3-3.6-5.3-5-7.4c-0.5,2.9-1,5.7-1.7,10C788,174.8,790,174,791.7,173.4z
		 M797.1,154.3c0.2,1,0.6,2.9,1.2,6.2c2.2-5.1,3.9-9,5.6-12.9c-0.4-0.2-0.7-0.4-1.1-0.5C801,149.4,799.2,151.6,797.1,154.3z
		 M912.4,144.7c-0.3,0-0.5-0.1-0.8-0.1c-0.4,2.6-1,5.1-1.2,7.7c-0.1,1.1,0.5,2.3,1.1,3.3c0.1,0.2,1.6,0.1,1.8-0.2
		c0.6-0.9,1.2-2.2,1-3.2C913.9,149.7,913,147.2,912.4,144.7z M846.9,186.9c0.4,0.1,0.7,0.2,1.1,0.2c0.2-3.1,0.7-6.2,0.6-9.2
		c0-1.7-0.8-3.5-1.6-5.1c-0.2-0.4-1.9,0-2.9,0c0.1,1.2,0.2,2.4,0.3,3.6c0.7-0.2,1.5-0.4,2.4-0.7
		C846.9,179.2,846.9,183.1,846.9,186.9z M918.6,202.3c0.8-0.2,1.6-0.4,2.4-0.6c-1-3.3-2.1-6.5-3.3-10.3c0.1,0-1-0.1-2.9-0.2
		C916.2,195.1,917.4,198.7,918.6,202.3z M980.5,172.7c5.4-8.1,5.4-8.1,1.8-10.3C981.7,166,981.1,169.3,980.5,172.7z M746.4,119.3
		c-3-2.7-5.3-4.8-7.6-6.9c-0.4,0.3-0.9,0.7-1.3,1c2,3.2,4,6.5,6.1,9.7c0,0,0.5-0.2,0.9-0.4c-0.6-1-1.3-2.1-2.1-3.4
		C743.7,119.3,744.6,119.3,746.4,119.3z M684.3,108.1c-0.5-0.1-1.1-0.1-1.6-0.2c0.1,3.7-4.6,6.8,0.6,12.4
		C683.7,115.3,684,111.7,684.3,108.1z M833.1,70.2c1.9,1.6,3.5,3,5.6,4.8c0-3.7,0-6.8,0-9.8c-0.4-0.6-0.8-1.1-1.2-1.7
		C836.1,65.7,834.7,67.8,833.1,70.2z M739.4,15.8c1-4.1,1.7-7.2,2.4-10.2c-0.7-0.2-1.4-0.4-2.1-0.6c-1,2.2-2,4.4-3.2,7
		C736.8,12.4,737.7,13.6,739.4,15.8z M691.1,177.9c0.7-0.1,1.4-0.1,2-0.2c0-3.6,0-7.2,0-11.5c-1.4,2.6-2.9,4.2-3.2,5.9
		C689.7,174,690.7,176,691.1,177.9z M927.6,213c5.5-4.2,6-5.9,2.5-10.4c-0.5,2.9-1,5.3-1.2,6.5c-0.6-0.2-1.8-0.7-3.5-1.3
		C926.2,209.7,926.8,211.2,927.6,213z"/>
	<path class="st0" d="M850.7,242.2c-7.3,4.5-14.7,9-22,13.5c-0.3-0.3-0.5-0.7-0.8-1c2.2-1.8,4.3-3.7,6.6-5.4
		c3.8-2.8,7.7-5.5,11.5-8.2l-0.2,0.2c1.8-2.9,4-5.7,5.2-8.9c4.4-11.2,13.3-18.6,21.6-26.5c2.8-2.7,5.2-5.7,7.8-8.5
		c0.6,0.3,1.2,0.6,1.8,0.9c-1.3,3.8-2.6,7.6-3.9,11.4C869.2,220.6,860,231.4,850.7,242.2z"/>
	<path class="st0" d="M572.4,86.2c-0.6-0.2-1.8-0.6-1.8-0.6c-2.1,5.8-4.1,11.5-6.2,17.3c0.5,0.2,0.9,0.4,1.4,0.6
		c-1.3,0.7-2.6,1.5-4.4,2.6c0.8-8.4,3.3-15.9,9.6-23c-3.1,1.6-4.7,2.5-6.4,3.4c0.7-4.3,0.4-8.5,2.2-11.3c2.2-3.4,5.7-2.2,8.2,0.9
		C574.1,79.5,573.2,82.8,572.4,86.2z"/>
	<path class="st0" d="M572.4,86.2c0.8-3.4,1.7-6.8,2.5-10.1c1.7,0.5,3.4,1.1,4.1,1.3c0.3,4.9,0.5,9,0.8,13.1c0,0.7,0.6,1.6,0.3,2.1
		c-1.8,3-3.6,6-5.6,8.9c-0.3,0.4-1.3,0.3-2.1,0.5C572.4,96.5,572.4,91.4,572.4,86.2z"/>
	<path class="st0" d="M876.7,45c-1.7-4.5-3.5-8.9-4.9-13.4c-0.4-1.2,0.8-2.9,1.3-4.5c6.4-0.5,6.7,0,5.6,11.3c2,1.2,3.8,2.3,5.6,3.4
		c-0.1,0.7-0.2,1.5-0.3,2.2c-4-4.9-5.5-0.9-7.5,0.9C876.6,44.9,876.7,45,876.7,45z"/>
	<path class="st0" d="M729.1-2c0.5,0.9,1,1.9,1.6,2.9c2.2-2.6,4.3-5.2,6.6-8c0.3,0.1,1.1,0.3,1.2,0.6c0.3,2,1.4,4.9,0.5,6
		c-2.6,3.3-4.8,8.1-10.2,6.8c-1-0.2-1.4-3.5-2.1-5.3l0.3-0.4C727.7-0.3,728.4-1.1,729.1-2z"/>
	<path class="st0" d="M727,0.6L726.7,1c-1.8,1.3-3.7,2.6-6,4.3c1.8,0.6,2.9,1,3.9,1.3c-0.2,0.5-0.4,1.1-0.6,1.6c-2-0.7-4-1.4-6-2.1
		c0.1-0.5,0.2-1.1,0.3-1.6c-1.4,1-2.8,1.9-4,2.7c1.5-4.4,3.1-8.8,4.9-14c2.5,2.1,5,4.1,7.5,6.1C726.8-0.2,726.9,0.2,727,0.6z"/>
	<path class="st0" d="M573.7,111.6c-1.3,2.7-2.5,5.1-3.7,7.4c-0.8-0.4-1.7-0.8-2.5-1.2c1.9-4.5,3.7-9.1,5.6-13.6
		c0.7,0.2,1.5,0.4,2.2,0.6c0,6.9,0,13.8,0,20.7c-0.3,0.1-0.6,0.1-0.9,0.2C574.1,121,573.9,116.3,573.7,111.6z"/>
	<path class="st0" d="M609.3,165.5c1.3-3.2,2.5-6.3,3.9-9.4c0.5-1.2,1.5-2.2,1.7-2.6c0,7.1,0,14.4,0,22.9c-1.4-1.9-3-3.4-3.9-5.2
		C610.1,169.3,609.9,167.3,609.3,165.5C609.3,165.4,609.3,165.5,609.3,165.5z"/>
	<path class="st0" d="M689.8,35.9c-0.5,1.4-1,2.7-1.6,4.1c-0.5-0.2-0.9-0.4-1.4-0.6c0.2,1.5,0.4,3,0.6,4.5c-0.4,0.1-0.8,0.2-1.1,0.4
		c-0.8-1.9-1.5-3.8-2.5-6.2c-0.5-0.1-1.9-0.3-3.4-0.4c-0.2-0.5-0.4-1-0.6-1.5c2.9-1.3,5.8-2.6,8.7-3.8
		C688.9,33.4,689.4,34.6,689.8,35.9z"/>
	<path class="st0" d="M662.7,23c-2.5,1.6-5.1,3.1-7.6,4.7c-1.8-6-1.4-6.9,4.1-10.3C660.4,19.3,661.5,21.1,662.7,23z"/>
	<path class="st0" d="M684.8,26.8c-3.9-2.1-7.7-4.1-1.7-8.4c2-1.4,2.7-4.4,4.5-6.2c2.3-2.4,5.1-3.7,8.9-0.5
		c-5.1-0.7-8.3,0.1-9.3,5.3c-0.4,1.8-3.2,3.1-5,4.7c1,1.4,2,3,3.1,4.7C685.2,26.4,685,26.6,684.8,26.8z"/>
	<path class="st0" d="M975.1,89.4c0.3,0.5,0.6,1,0.9,1.5c-1.7,1.6-3,1.4-4-0.8c-1-2.3-2.3-4.5-3.6-6.9c2.8-0.2,4.7-1.5,1.8-5.5
		c0.8,0,1.6,0.1,2.3,0.1c0.4,2.9,0.6,5.8,1.1,8.6C973.9,87.4,974.7,88.4,975.1,89.4z"/>
	<path class="st0" d="M1009.9,178.6c0.6-0.4,1.2-0.8,2-1.2c-0.5,5.4-0.9,10.6-1.3,15.7c-0.5,0-1,0-1.4,0c-0.4-3.1-0.8-6.3-1.2-9.4
		C1008.6,182,1009.2,180.3,1009.9,178.6z"/>
	<path class="st0" d="M598.7,104.7c-0.1,0.6-0.2,1.3-0.2,1.9c-6.4-4.6-7.6-8.5-5-13.8C595,96.4,596.9,100.6,598.7,104.7z"/>
	<path class="st0" d="M626.7,194c-1.3,2-2.6,4-3.8,5.7c-1.3-5.6-2.5-10.8-3.6-16c0.4-0.1,0.9-0.2,1.3-0.3c0.7,2.9,1.2,5.9,2.4,8.7
		c0.4,1,2.5,1.3,3.8,2C626.8,194.1,626.7,194,626.7,194z"/>
	<path class="st0" d="M698.8,24.7c1.1-1.6,2.1-3.3,3.2-4.9c0.5,0.1,1,0.1,1.5,0.2c0.5,3.7,1,7.5,1.5,11.7c-2.1-2.4-3.9-4.4-5.6-6.4
		C699.2,25,699,24.9,698.8,24.7z"/>
	<path class="st0" d="M823.4,181.7c1.3,1,2.6,2.1,4,3.3c1.5-6.7,1.9-6.9,8.5-3.5c0.2-1.4,0.3-2.6,0.5-3.8c0.2-1,0.6-1.9,0.9-2.8
		c0.5,0.1,0.9,0.2,1.4,0.3c-0.5,2.3-0.8,4.6-1.6,6.8c-1.1,3-0.3,4.8,2.1,6.8c3.8,3.2,5.9,7.6,4.4,12.6
		c-6.7,21.5-14.4,42.6-27.1,61.3c-2.5,3.7-6.2,6.9-10,9.6c-8,5.8-14.9,12.3-18,22.1c-0.9,2.7-3,5.1-4.5,7.6
		c-9.7,16.5-19.5,33-29.2,49.5c-0.9,1.5-2,2.8-3,4.2c-0.5-0.2-1-0.3-1.4-0.5c0.4-4,0.8-7.9,1.1-11.9c0.9-10.1,0.8-20.1,5.4-29.9
		c2.7-5.7,1.3-13.1,2.6-19.5c2-10.2,4.8-20.2,7.1-30.3c2.6-11.8,5.4-23.6,7.2-35.5c1.1-7.2,4.8-11.8,10-16c1.4,2.7,2.8,5.4,4.5,8.5
		c1.6-3.5,3-6.5,5-11.1c0.6,4,1,6.5,1.4,8.9c0.3,0,0.6,0,0.9,0c0-3.8-0.1-7.6,0.1-11.4c0.1-1.7,0.2-4,1.3-5
		c3.2-3.1,6.9-5.8,11.1-9.1c0,2.1,0,3.3,0,6c1.9-4.1,3.1-6.8,4.3-9.5C815.9,186.9,819.6,184.3,823.4,181.7z"/>
	<path class="st0" d="M752.9,191.3c0,2.9,0,5.9,0,8.9c0.5,0.1,1.1,0.2,1.6,0.3c1-5.6,2-11.2,2.9-16.8c0.2-0.1,0.5-0.2,0.7-0.3
		c0.3,1.5,1.1,3.3,0.7,4.6c-1.1,3.4-2.9,6.6,1.1,9.2c1.3-2.1,2.8-4.4,4.3-6.8c0.7,0.2,1.5,0.4,2.2,0.6c-0.1,3.4-0.8,6.9-0.3,10.2
		c0.6,4.2,2,8.2,3.3,12.3c3.2,10,0.3,19.7-1.7,29.2c-4,18.6-8.8,37.1-14.3,55.5c0.3-4.9,0-9.9,1.2-14.6c2.8-11-0.5-21.5-2.9-31.8
		c-3.4-14.5-3.3-29.2-4.5-43.9c-0.3-4.1,0.4-8.3,1.3-12.4C748.7,194.3,750.9,193.2,752.9,191.3z"/>
	<path class="st0" d="M744.6,253.3c-4.2-4.3-8.5-7.8-11.8-12.2c-9.9-13.2-19.4-26.7-28.9-40.1c-2.1-3-4.5-6-5.6-9.4
		s-0.8-7.3-1.1-10.9c-0.4-4.8-0.8-9.7,0-14.8c0.8,4.3,1.6,8.6,2.5,13.4c0.6-2.5,1.1-4.7,1.6-6.9c0.3,0,0.5,0,0.8,0
		c0,2.6,0,5.3,0,8.7c1.1-2,1.9-3.3,3.4-6c11.4,17.4,22.5,34,33.4,50.9C745.2,235.7,745,235.9,744.6,253.3z"/>
	<path class="st0" d="M725.7,162.3c0.7,2.9,1.4,5.6,2.2,8.7c1-1.4,1.6-2.2,2.6-3.6c0.7,2.6,1.2,4.4,1.6,6.2c0.3,0,0.6,0,0.9-0.1
		c0.2-1.9,0.4-3.8,0.7-7.3c1.1,3.9,2.2,6.4,2.5,8.9c0.4,3.6,0.7,6.7,4.7,8.6c1.1,0.5,1.3,4.2,1,6.3c-0.5,3.5,0.2,6.7,0.6,10.2
		c1.1,8.9,0.4,18,0.4,26.5c-3.8-6.1-8.2-12.7-12.1-19.5c-1.3-2.3-1.6-5.2-2.2-7.9c-2-9.6-4.2-19.1-5.9-28.7
		C722,167.6,721.1,163.6,725.7,162.3z"/>
	<path class="st0" d="M714.1,185.2c-3.3-5.3-6.6-10.6-10.2-16.4c1.2-0.2,2.1-0.4,3.4-0.6c0-1.7,0-3.7,0-5.8c-1.3,1-2.4,1.9-4,3.2
		c-0.6-1.1-1.2-2.3-1.9-3.8c-0.4,1-0.8,1.8-1.2,2.8c-5.5-7.4-8.5-15.5-8.3-25.2c1.3,0.7,2.3,1.2,3.7,1.9c-1.1-2.8-2-4.9-3.2-7.7
		c6,1.2,11.5,1.6,13.1,7.9c3.1,12.1,5.9,24.3,8.8,36.5c0.5,2.1,0.6,4.3,0.9,6.5C714.9,184.7,714.5,184.9,714.1,185.2z"/>
	<path class="st0" d="M717.4,171.7c0.1-2,0.2-4,0.4-7.1c1.5,1.6,3,2.5,3.2,3.7c1.9,8.7,3.6,17.4,5.3,26.1c0.3,1.6,0.3,3.3,0.5,6.5
		c-4.9-7.4-9.6-12.7-10.6-21c-1.8-14.9-4-29.8-11-43.5c-0.4-0.8-1.2-2-1-2.5c1.1-2.2,2.5-4.1,3.8-6.2c0.9,1.7,2,3.3,2.7,5.1
		c1.2,2.8,0,6.4,4.9,7.8c1.8,0.5,2.8,6.9,2.7,10.5c-0.2,4.8-2.1,9.6-2.8,14.4c-0.3,2,0.6,4.2,1,6.4
		C716.9,171.8,717.1,171.8,717.4,171.7z"/>
	<path class="st0" d="M856.6,214.8c-1,2.3-1.4,5.2-3.1,6.9c-8,8.7-16.4,17-23.4,24.2c2.8-6.9,6.2-15.6,9.7-24.3
		c0.3-0.7,0.6-1.4,0.7-2.2c0.2-4.4,1.8-7.6,5.8-10c3.9-2.4,7.2-5.5,12.2-9.4C857.7,206.2,857.1,210.5,856.6,214.8L856.6,214.8z"/>
	<path class="st0" d="M629.7,159.4c1-1.6,2.5-3.1,2.8-4.8c0.5-2.8,0.1-5.7,0.1-8.6c0.6-0.1,1.2-0.2,1.8-0.2c0.6,2.4,1.2,4.8,1.8,7.2
		c0.2,0,0.3-0.1,0.5-0.1c0-2.8,0-5.7,0-8.5c10.1,1.7,6.8,10.2,8.5,16.9c0.6-1.9,0.9-3,1.5-5c4.2,4.8-1.1,8.7,0.3,12.4
		c-5.6,1.8-9.2-0.2-11.4-5.2c-1.1,0.5-2.2,1-3.5,1.6c-0.8-2.2-1.4-4.1-2.1-5.9C629.8,159.2,629.7,159.4,629.7,159.4z"/>
	<path class="st0" d="M823.4,181.7c-3.7,2.6-7.5,5.2-11.2,7.8c-0.6-4.4-1.9-8.8-1.5-13.2c0.2-3.4,2.4-6.7,4-10.7
		c2,4.7,3.4,7.9,5.1,11.7c0.3-1.3,0.4-2.2,0.7-3.6c1.1,1.5,2,2.8,3.7,4.9c0-3.8,0-6.4,0-10.6C827.2,173.9,826.8,177.9,823.4,181.7z"
		/>
	<path class="st0" d="M856.6,214.8c0.9-3,2.3-5.9,2.7-9c0.7-5.1,1.5-6.5,7.6-11.8c1.5-1.3,2.1-3.7,3.2-5.6c0.7,0.1,1.4,0.2,2.1,0.4
		c0,2.4,0.8,5.2-0.2,7c-3.4,6.3-7.4,12.3-11.4,18.2C860.1,214.9,858,214.6,856.6,214.8L856.6,214.8z"/>
	<path class="st0" d="M609.4,95.8c0-3.8,0-5.9,0-8.2c1.3,1.8,2.5,3.4,2.8,3.9c3.8-1,6.6-1.7,9.7-2.5c-3,5.1-5.8,9.7-8.8,14.8
		c-2.2-0.9-6.7,2.9-8-2.1c-0.9-3.4,0-7.3,0-11c0.5,0,1.1,0,1.6,0C607.5,91.8,608.1,93.1,609.4,95.8z"/>
	<path class="st0" d="M849.4,191.6c0.4-5.6,0.6-9.1,1-12.6c0.4-3.4,1-6.7,2.6-10c0.9,2.4,1.9,4.9,3.3,8.6c1-3.8,1.8-6.6,2.6-9.5
		c0.8,3.9,3.2,4.1,6.3,1.3c0.4,0.4,0.7,0.9,1.1,1.3C860.9,177.4,855.5,184,849.4,191.6z"/>
	<path class="st0" d="M853.8,196.2c-1.8,0.9-3.6,1.8-5.5,2.7c-0.4-2.9,8.3-14.3,16.6-21.5c0.9,3.3,1.7,6.3,2.5,9.3
		c-0.6,0.2-1.2,0.4-1.8,0.5c-0.2-0.6-0.4-1.1-0.6-1.7c-0.2-0.5-0.3-0.9-0.2-0.5c-2.1,2.5-4.4,5.3-6.8,8.1
		C856.7,194.2,855.3,195.2,853.8,196.2z"/>
	<path class="st0" d="M986.4,122.7c-0.3,1.5-0.6,3.1-0.7,3.7c1.4,0.9,2.5,1.5,3.6,2.1c-1,0.6-2,1.2-2.9,1.7c1.9,4.5,4,9.3,6,14.1
		c-0.7,0.4-1.4,0.7-2.1,1.1c-2.5-3.1-5-6.2-7.8-9.5c-0.3,0.4-0.9,1.1-2.3,2.6c-0.8-2.8-1.4-4.9-2-7c0.3-0.1,0.5-0.2,0.8-0.3
		c0.3,0.6,0.6,1.2,1.5,2.9c1.6-4.6,3-8.4,4.4-12.2C985.5,122.2,985.9,122.4,986.4,122.7z"/>
	<path class="st0" d="M622.8,60.7c0,6.5,0,12.9,0,19.7c0.6-0.5,1.4-1.2,2.3-1.9c0.5,1.8,1,3.3,1.2,4.9c0.3,1.8,0.4,3.6,0.6,5.4
		c-2-0.1-4.2,0.3-5.9-0.5c-1.2-0.6-2.3-2.9-2.2-4.3c0.6-7.8,1.5-15.6,2.3-23.4C621.7,60.6,622.2,60.7,622.8,60.7z"/>
	<path class="st0" d="M940.2,98.5c-1.5-6.5-0.5-8.1,7.8-12.5l-0.2-0.1c2.4,1,4.8,2,7.3,3c-4.1,4.4-7.9,8.6-11.3,12.4
		c-0.1-0.1-0.6-1.5-1.2-2.8C941.8,98.5,941,98.5,940.2,98.5z"/>
	<path class="st0" d="M846.1,241.2c-3.6,2-7.2,4-10.8,6c-0.4-0.4-0.8-0.8-1.2-1.2c5.3-5.8,10.5-11.6,15.8-17.4
		c0.3,0.2,0.6,0.4,0.8,0.6c-1.6,4.1-3.3,8.2-4.9,12.2C845.9,241.4,846.1,241.2,846.1,241.2z"/>
	<path class="st0" d="M944.9,196.2c0-7.5,0-14.3,0-22.1C951.2,182,951.1,186.5,944.9,196.2z"/>
	<path class="st0" d="M950.5,193.1c0.4-4.4,0.6-8.9,1.2-13.3c0.3-1.9,1.4-3.6,3.1-5.2c-0.3,4.3-0.5,8.5-0.7,12
		c2,0.4,3.5,0.7,5.1,1.1c-0.5,6-4.7,5.6-8.9,5.2C950.3,192.9,950.5,193.1,950.5,193.1z"/>
	<path class="st0" d="M970.3,144.8c2.1,5.3,3.5,9,5.3,13.7c-4.3-1-8.6,3.4-9.3-1.8C965.8,153.5,968.4,149.9,970.3,144.8z"/>
	<path class="st0" d="M604.6,47.7c1.5-5.4,2.8-10.1,4.1-14.8c0.4,0,0.8,0,1.2,0c0,0.9-0.2,1.9,0.1,2.8c0.3,1.1,1.2,2.1,1.5,3.3
		c0.6,1.8,1.6,3.8,1.3,5.5c-0.2,0.9-2.8,1.3-4.3,1.9C607.5,46.8,606.4,47.1,604.6,47.7z"/>
	<path class="st0" d="M882.4,64.3c-0.2-1.3-0.3-2-0.4-2.8c-0.8,0.9-1.5,1.9-3.1,3.7c-0.5-4.7-1-9.1-1.6-14.4
		C887.2,59.3,887.5,60.4,882.4,64.3z"/>
	<path class="st0" d="M853.8,196.2c1.4-1,2.8-2,4.3-3c1-0.4,2.1-0.8,3.1-1.1c0.4,0.4,0.7,0.8,1.1,1.1c-5.4,5-10.9,10-16.3,15.1
		c-0.5-0.5-1.1-1-1.6-1.5C847.5,203.3,850.7,199.8,853.8,196.2z"/>
	<path class="st0" d="M684.1,160.2c0.4,1.6,0.9,3.1,1.1,3.9c2,1.3,3.6,2.2,4.8,3.5c0.3,0.3-1.2,2.2-1.9,3.3c-0.4-0.7-0.8-1.4-1.1-2
		c-0.8,0.9-1.6,1.8-2.5,2.7c-0.8-0.8-1.8-1.6-2.5-2.5c-0.9-1.3-2-2.8-2.3-4.3c-0.2-0.7,1-1.9,1.8-2.7c0.8-0.8,1.8-1.3,2.7-1.9
		C684.2,160.1,684.1,160.2,684.1,160.2z"/>
	<path class="st0" d="M655.3,146.8c3.5,4.2,2.4,6-6.3,10.3c-0.7-2.2-1.7-4.3-1.7-6.5c0-0.9,2.2-2.8,3-2.6c1.3,0.4,2.3,2,3.8,3.5
		C654.5,150,654.8,148.6,655.3,146.8z"/>
	<path class="st0" d="M985.1,143.4c0.6,4.8,1.2,9.5,1.8,14.2c-0.4,0.1-0.8,0.2-1.2,0.3c-2-3.2-4.5-6.3-5.7-9.8
		C978.7,144.5,981.5,143.5,985.1,143.4z"/>
	<path class="st0" d="M710.2,13.2c0.7,2.4,1.4,4.9,2.2,7.4c0.5-0.1,1-0.2,1.4-0.3c0.2-1.4,0.5-2.7,0.7-4.2c0.3,0.2,0.7,0.2,0.8,0.4
		c2.8,5.5-0.6,7-5,7.9C707,20.8,707,17.2,710.2,13.2z"/>
	<path class="st0" d="M787.3,196c1.2,8.8-4.5,13.6-9,19.1c-0.4-0.2-0.9-0.4-1.3-0.7C780.3,208.6,783.6,202.6,787.3,196z"/>
	<path class="st0" d="M714.4,26.3c-2.3,4.9-4.6,9.7-6.8,14.3C705.3,33,708.2,26.6,714.4,26.3z"/>
	<path class="st0" d="M1001.7,137.3c-0.2-0.5-0.3-1.1-0.6-1.6c-3.3-5.6-3.3-5.6,2-10.8c0.8,2.8,1.6,5.3,2,6.6
		C1003.6,134.1,1002.6,135.7,1001.7,137.3C1001.6,137.3,1001.7,137.3,1001.7,137.3z"/>
	<path class="st0" d="M602.5,113.3c1.1,7.1,2.1,13.7,3.2,20.4C601.3,129.5,599.6,119.5,602.5,113.3z"/>
	<path class="st0" d="M730.6,18c-0.1-1.2-0.2-2.5-0.3-3.9c-0.6,0.9-1.2,1.6-1.7,2.3c-0.6-0.2-1.2-0.4-1.8-0.7
		c0.5-1.9,0.6-4.2,1.8-5.7c0.6-0.8,3-0.3,4.6-0.3c-0.1,2.8-0.2,5.6-0.3,8.4C732.1,18.1,731.3,18.1,730.6,18z"/>
	<path class="st0" d="M843.3,23.5c-4.2,2.6-8.3,5.1-12.2,7.5c0.6-1.4,0.9-5.4,2.7-6.1C836.5,23.8,839.7,19.3,843.3,23.5z"/>
	<path class="st0" d="M842.9,59c0.5-3.3,1.1-6.7,1.6-10c0.3,0,0.6,0,1,0c0.3,0.9,0.7,1.8,1,2.8c0.9-0.5,1.6-1,2.4-1.4
		c0.4,0.2,0.9,0.5,1.3,0.7c-1.5,2.8-3,5.6-4.4,8.4C844.8,59.3,843.8,59.1,842.9,59z"/>
	<path class="st0" d="M864,71.5c0-3.4,0-6,0-8.5c0.5-2.7,5.3,2.2,4.6-2.6c0.7,0,1.9,0.1,1.9,0.2c0.1,1.2,0.5,2.8-0.1,3.7
		C868.6,66.6,866.5,68.6,864,71.5z"/>
	<path class="st0" d="M699.7,58.6c-2-2.6-3.8-5-6.3-8.3c2.3-0.9,4.5-1.7,7.3-2.8C700.4,51.1,700.1,54.9,699.7,58.6z"/>
	<path class="st0" d="M625.7,128c-0.3,0.5-1,1.7-2.8,4.8c-2.3-6-4.1-10.7-5.9-15.4c0.3-0.2,0.7-0.3,1-0.5
		C620.4,120.4,622.8,123.9,625.7,128z"/>
	<path class="st0" d="M1012.1,161.5c0.6,4.1,1.2,8.1,2,13.1c-2.6-1.1-4.2-1.7-4.9-2c0.4-3.8,0.7-7.2,1-10.7
		C1010.9,161.8,1011.5,161.6,1012.1,161.5z"/>
	<path class="st0" d="M891.9,57.5c1,2.8,2.1,5.1,2.8,7.6c0.3,1.1-0.5,2.4-0.8,3.6c-0.9-0.6-2.4-1.1-2.7-1.9
		C890.1,63.5,887,59.7,891.9,57.5z"/>
	<path class="st0" d="M788.7,153.5c-0.5,1.3-1,2.6-1.6,4.2c1.4-0.3,2.2-0.5,3.7-0.9c-1,1.2-1.5,1.9-2.5,3.1c1.7,0.3,3.1,0.6,4.8,0.9
		c-0.7,1-1.4,2.6-1.9,2.5c-2-0.3-5.4-1-5.5-1.8c-0.2-2.8,0.7-5.7,1.2-8.5C787.6,153.2,788.2,153.4,788.7,153.5z"/>
	<path class="st0" d="M851.4,55.2c2.8,4.2,3.5,7.2-1.3,8.5c-1.1,0.3-2.4-0.2-3.7-0.3C847.9,60.8,849.5,58.2,851.4,55.2z"/>
	<path class="st0" d="M694.9,192.1c-2.4-4.6-4.9-9.2-7.3-13.8c0.8-0.4,1.6-0.8,2.3-1.2c2.3,4.7,4.6,9.4,6.9,14.1
		C696.2,191.5,695.6,191.8,694.9,192.1z"/>
	<path class="st0" d="M920,196.4c3.3-4.3-3.4-11.1,5.1-15c-1.3,5.8-2.4,10.8-3.4,15.7C921.2,196.9,920.6,196.6,920,196.4z"/>
	<path class="st0" d="M940.2,98.5c0.8,0,1.6,0,2.4,0c-1,4.1-2,8.2-3,12.3c-0.8-0.2-1.5-0.4-2.3-0.5
		C938.3,106.4,939.3,102.4,940.2,98.5z"/>
	<path class="st0" d="M677.1,154.3c1.7-1.9,3.4-3.8,5.1-5.7c0.6,1.5,2.2,3.6,1.7,4.4c-1.1,1.6-3.2,2.6-4.9,3.8
		C678.4,155.9,677.7,155.1,677.1,154.3z"/>
	<path class="st0" d="M866,57.3c-4.5-1.3-5.5-7.8-1.7-13.3C864.9,48.7,865.5,52.9,866,57.3z"/>
	<path class="st0" d="M956.9,134.5c1.6-2,3.2-4,4.8-6c0.6,0.2,1.2,0.4,1.8,0.5c-0.2,1.9,0.2,4.3-0.7,5.7c-0.7,1.1-3.2,1-4.9,1.4
		C957.5,135.6,957.2,135,956.9,134.5z"/>
	<path class="st0" d="M636.2,29.9c-3.3,2-6.6,3.9-9.9,5.9c-0.2-0.2-0.4-0.4-0.6-0.6c1.7-2.4,3.1-5.1,5.2-6.9c1-0.8,3.5,0.1,5.4,0.3
		C636.3,29,636.2,29.4,636.2,29.9z"/>
	<path class="st0" d="M781.2,4.2c3.8,2.6,6.5,4.4,9.4,6.4c-2.3,2.1-3.9,3.5-5,4.5C784.3,11.9,783,8.7,781.2,4.2z"/>
	<path class="st0" d="M690.7,156.2c2,2.2,3.9,4.5,6.7,7.6c-2.6,0.5-5.4,1.3-5.6,0.9c-1.3-2.6-1.9-5.4-2.8-8.2
		C689.5,156.4,690.1,156.3,690.7,156.2z"/>
	<path class="st0" d="M833.9,56.4c1.8-2.6,3-4.4,4.3-6.3c5,3.7,1.7,6.2-1.4,9.9C835.6,58.6,834.6,57.3,833.9,56.4z"/>
	<path class="st0" d="M791.7,173.4c-1.8,0.7-3.8,1.4-6.7,2.6c0.7-4.3,1.2-7.1,1.7-10C788.1,168,789.5,170.1,791.7,173.4z"/>
	<path class="st0" d="M684.1,160.2l0.2-0.1c-1.8-0.2-3.6-0.4-6-0.7c3.5-1.8,6.2-3.1,9.3-4.7c0.2,1.2,0.7,3.3,1.3,6.1
		C686.8,160.5,685.4,160.3,684.1,160.2z"/>
	<path class="st0" d="M797.1,154.3c2.1-2.7,3.9-4.9,5.7-7.2c0.4,0.2,0.7,0.4,1.1,0.5c-1.7,3.9-3.4,7.8-5.6,12.9
		C797.6,157.2,797.3,155.3,797.1,154.3z"/>
	<path class="st0" d="M912.4,144.7c0.7,2.5,1.5,5,2,7.5c0.2,1-0.5,2.2-1,3.2c-0.2,0.3-1.7,0.4-1.8,0.2c-0.5-1-1.2-2.2-1.1-3.3
		c0.2-2.6,0.8-5.1,1.2-7.7C911.8,144.6,912.1,144.7,912.4,144.7z"/>
	<path class="st0" d="M846.9,186.9c0-3.8,0-7.7,0-11.3c-0.9,0.3-1.7,0.5-2.4,0.7c-0.1-1.2-0.2-2.4-0.3-3.6c1,0,2.7-0.4,2.9,0
		c0.8,1.6,1.5,3.4,1.6,5.1c0.1,3.1-0.4,6.2-0.6,9.2C847.7,187.1,847.3,187,846.9,186.9z"/>
	<path class="st0" d="M918.6,202.3c-1.2-3.6-2.4-7.2-3.8-11.1c1.9,0.1,2.9,0.2,2.9,0.2c1.2,3.8,2.3,7.1,3.3,10.3
		C920.2,201.9,919.4,202.1,918.6,202.3z"/>
	<path class="st0" d="M980.5,172.7c0.6-3.3,1.2-6.7,1.8-10.3C985.9,164.6,985.9,164.6,980.5,172.7z"/>
	<path class="st0" d="M746.4,119.3c-1.9,0-2.7,0-4.1,0c0.8,1.4,1.5,2.4,2.1,3.4c-0.3,0.1-0.8,0.4-0.9,0.4c-2.1-3.2-4.1-6.4-6.1-9.7
		c0.4-0.3,0.9-0.7,1.3-1C741.2,114.5,743.4,116.5,746.4,119.3z"/>
	<path class="st0" d="M684.3,108.1c-0.3,3.6-0.6,7.2-1.1,12.2c-5.2-5.6-0.5-8.8-0.6-12.4C683.2,108,683.7,108,684.3,108.1z"/>
	<path class="st0" d="M833.1,70.2c1.6-2.4,3-4.6,4.4-6.7c0.4,0.6,0.8,1.1,1.2,1.7c0,3.1,0,6.2,0,9.8C836.6,73.2,835,71.9,833.1,70.2
		z"/>
	<path class="st0" d="M739.4,15.8c-1.7-2.2-2.6-3.3-2.9-3.7c1.2-2.7,2.2-4.9,3.2-7c0.7,0.2,1.4,0.4,2.1,0.6
		C741.1,8.6,740.4,11.7,739.4,15.8z"/>
	<path class="st0" d="M691.1,177.9c-0.4-1.9-1.4-3.9-1.1-5.8c0.2-1.8,1.7-3.4,3.2-5.9c0,4.3,0,7.9,0,11.5
		C692.5,177.8,691.8,177.9,691.1,177.9z"/>
	<path class="st0" d="M927.6,213c-0.8-1.9-1.4-3.3-2.2-5.2c1.7,0.6,2.9,1.1,3.5,1.3c0.2-1.3,0.7-3.6,1.2-6.5
		C933.6,207.1,933.1,208.9,927.6,213z"/>
</g>
<path class="st1" d="M645.5,497.1c-6.1,10.8-4.3,26.6,2.3,39s17.3,21.7,28.4,28.6c6.3,3.9,13.8,7.3,19.8,4.4
	c-12.9-6.1-23.4-20.2-26.4-35.5c-0.2-1.2-0.4-2.5,0.1-3.4c0.9-1.7,3.3-1.3,4.9,0c1.6,1.3,2.6,3.2,4.1,4.7c2.6,2.6,6.6,3.5,9.2,1.6
	s3.2-6.6,1-9.7c-4.9-6.8-4.1-16.1-2.1-23.6s4.8-15.4,2.9-23.5c-1.8-7.7-8.1-14.3-14.8-15.7c-1.6-0.3-1.7-3.4-0.3-4.1
	c1.4-0.7,3.2,0.1,4.7,0.9c5.1,2.7,10.4,5.7,13.8,10.8c4.4,6.6,4.6,15.2,3.9,22.8c-0.7,7.6-2,15.4,0.1,23.1
	c2.1,7.7,9.3,15.1,15.7,13.2c2.4-0.7,6-1.5,6.6,1.3c-8.7,9.9-10.5,26.9-4.3,41c-1.8,1.2-4-1.4-5.1-3.7c-3.9-8.4-4.8-18.2-2.5-26.5
	c0.5-2,0.9-4.8-0.9-5.7c-5.4-2.8-10-8.1-12.5-14.1c-1.6,3.6,2.3,8.1,2.5,12.4c0.2,4.4-3.7,7.1-7.5,7.5c-3.8,0.3-7.8-0.9-11.6-0.7
	c3.1,8.5,9.4,15.8,16.9,19.5c2.1,1,4.3,1.9,6.1,3.5s3.1,4.4,2.4,6.6c1.9,0.9,3.8,1.8,5.7,2.7c-24.2,3.3-51.6-12.3-65.9-37.5
	c-9.4-16.7-5.8-37-0.4-53.8c1-3,2.3-6.4,5-7.2c2.8-0.8,6.7,3.2,5.1,5.8c-1.5,2.5-2.7,5.5-2.4,8.7c0.3,3.3,2.6,6.7,5.5,7.1
	c3.9,0.6,6-4.2,7.2-8.3c1.7-6.2,3.4-13,1.4-19.6c-2.5-8.1-9.8-13.6-16.6-17.7c-6.8-4.1-14.3-8.1-18.6-15.5c-4.5-7.6-4.4-17-3.3-25.3
	c0.9-6.9,2.4-13.7,4.6-20.1c0.7-2.2,1.6-4.4,3.2-5.7c1.7-1.3,4.4-1.1,5.8,1c-3.5,11-3.2,25.7,5.2,34.6c4.8,5.1,11.2,7.3,17.4,8
	c6.2,0.7,12.2,0,18.3,0.3c11,0.5,22.7,4.4,31.7,13.1c9,8.7,14.7,22.6,12.2,34.4c-1.2,6-4.3,11.1-4.6,17.4c-0.1,2,0.4,4.4,2,5.3
	c2.5,1.3,4.2-2.1,4.4-5s0.4-6.5,2.8-7.1c2.3-0.6,4.7,2.6,4.9,5.5c0.2,2.8-1,5.3-1.7,7.9c-0.7,2.6-0.9,5.9,1,8.1
	c7.9,9.7,11.2,23.8,8.3,35.3c-3,11.5-12,19.8-22.7,21c4.1-6.2,10.5-9.9,14.4-16.3c3.9-6.3,4.9-15,2.6-23.1
	c-2.2-8.1-7.6-15.4-14.3-19.5c-5.6-3.4-7.3-11.9-6.4-18.5s3.6-12.7,3.4-19.6c-0.3-9.3-5.9-18.5-13.1-24c-7.2-5.5-15.8-7.8-24-8.3
	c-9.8-0.7-19.9,0.8-29.4-3.5c-9.1-4.1-16.7-13.7-19.3-24.3c-6.4,10.5-1,28.9,10.4,35c10.9,5.9,23.2,13.4,26.8,26.3
	c1.3,4.7,1.3,9.4,0.8,14c-0.7,7.3-2.6,14.9-7.7,18.8C657.5,506,648.4,504.2,645.5,497.1"/>
<path class="st1" d="M890.8,437.9c-2.9,13.7-17.9,20.2-27.7,14.9c-10-5.2-15.6-18-19-30.8c-2.2-8.1-3.7-16.6-2.8-25.3
	c2.4-24.2,21.1-41.9,38-56.2c17.7-14.9,21.4-49.4,7.2-65.9c-1.2,19.8-11.3,39.4-25.7,50c-15,11-32.8,11.9-49.4,16.6
	c-13.9,3.9-27.9,10.9-38.6,23.3c-10.7,12.3-17.6,30.6-15.2,47.3c1.8,12.3,8.2,22.3,11.8,33.7s3.4,27.2-5.3,35.2
	c-10.2,9.6-17.2,24.5-18.6,39.7c-1.3,15.1,3,30.3,11.5,40.2c8.6,9.9,20.7,14.4,29.6,24c-18.7,1.7-36.7-10-45.3-29.4
	c-8.5-19.4-7.1-45.7,3.4-65.7c2.4-4.6,1.2-10.3-0.8-14.7s-4.8-8.4-5.3-13.5c-0.6-5.1,2.6-11.7,6.8-11.5c4.4,0.2,5.8,6.7,7,11.7
	s5.3,10.5,9.1,7.3c2.6-2.2,2.6-6.7,1.9-10.2c-2.4-11-9.3-19.1-13.2-29.3c-7.8-20.2-2.3-46.9,10.5-65.5
	c12.8-18.5,31.6-29.6,50.3-34.4c10.4-2.7,20.9-3.6,31.3-7c10.4-3.4,20.8-9.6,27.4-20.4c11.7-18.8,7.8-45.1-1.5-63.5
	c1.8-4.1,6.4-5.4,9.7-3.7c3.2,1.7,5.4,5.3,7.3,9c5.6,10.6,10.2,22.1,13.9,34.1c4.4,14.5,7.3,31.1,2,46.2
	c-5.2,14.6-16.7,24.4-27.2,34.1c-10.4,9.7-21.2,21.9-23,37.3c-1.5,12.6,3.5,24,8.3,34.5c3.2,6.9,8.2,14.6,14.8,12.2
	c4.8-1.7,7.7-8.7,7.3-14.6c-0.5-5.9-3.4-10.8-6.8-14.7c-3.5-4.1,2-12.6,7-12.1s8.3,6,10.8,11c14.3,28,26.7,62.9,15.6,95.9
	c-16.7,49.9-59,87.3-101.5,89.9c3-2.3,6-4.5,9-6.8c-2-3.7-0.6-9.1,2-12.7c2.6-3.5,6.2-5.8,9.4-8.3c11.6-9.3,20.2-24.5,23-40.7
	c-6.6,1-13.1,4.6-19.7,5.3c-6.7,0.7-14.1-2.8-15.1-10.7c-1-7.7,4.4-17.2,0.5-23c-2.5,11.7-8.8,22.6-17.1,29.6
	c-2.8,2.3-1.3,7.2,0.2,10.5c6.4,14,7.8,31.6,3.7,48c-1.2,4.5-4.3,10-7.7,8.4c6.3-27.2-2-56.9-19.9-71.4c0.1-5.2,6.6-5,10.9-4.7
	c11.6,1,21.6-14.6,22.9-29.1c1.3-14.5-3.3-27.9-6.8-41.2s-5.8-28.7-0.3-42c4.3-10.3,12.5-17.5,20.3-24.1c2.4-2,5.1-4.1,7.7-3.3
	c2.6,0.7,3.4,6.2,0.8,7.4c-11.1,4.9-19.9,18.9-20.6,33.2c-0.8,15.3,6.5,28.2,12.2,40.9s10,29,3.7,42.8c-2.9,6.3-0.4,14.5,4.6,17
	s11.6-0.5,15.3-6.1c2-3.2,3.3-7,5.6-9.8s6.3-4.4,8.3-1.7c1.1,1.5,1.2,3.9,1.2,6.1c-0.4,28.2-14.2,57-34.4,72.5
	c11.1,3.1,23-5.6,32.6-14.7c17-16.3,32.4-36.5,39.9-60.9C906.3,483.8,904.6,455,890.8,437.9"/>
</svg>
