<?xml version="1.0" encoding="utf-8"?>
<!-- Generator: Adobe Illustrator 19.1.0, SVG Export Plug-In . SVG Version: 6.00 Build 0)  -->
<svg version="1.1" id="Layer_1" xmlns="http://www.w3.org/2000/svg" xmlns:xlink="http://www.w3.org/1999/xlink" x="0px" y="0px"
	 viewBox="54 -102.7 950 800" style="enable-background:new 54 -102.7 950 800;" xml:space="preserve">
<style type="text/css">
	.st0{fill:#FFFFFF;}
</style>
<g>
	<path class="st0" d="M388.2,605.7c-1.1,0.2-2.9-0.3-2.3-1.3c0.7-1.4,3.3,0.2,2.4,1.5L388.2,605.7z"/>
	<path class="st0" d="M474.7,491.1c-13-6.5-16.8-26.3-7-37c1.7-1.6,4.4,0.9,4.6,3.2s-0.7,4.9,0.6,6.9c2.1,3.4,8,1,9.1-2.8
		s-0.5-7.9-1.5-11.7c-3.8-15.5,5-33.1,19.7-39.2c-4.8,7.4-4.6,17.6,0.5,24.8c5.1-8.5,7.5-18.7,6.9-28.6c4.8,1.8,8.8,5.8,10.5,10.7
		c14.5-37,4.1-78.4,3.2-118.1c-1-44.4,10.1-90.3-4.2-132.4c-1.8-5.2,7.8-4.7,11.9-1.1c13.9,12.1,29.2,28.7,24.1,46.4
		c-7.9,27.1-8.9,56.2-3,83.9c1.7,8.2,8.4,18.3,15.9,14.6c4-2,5.1-7.1,5.8-11.5c1.4-8.8,2.8-17.7,4.2-26.5
		c5.1,7.2,9.7,14.8,13.8,22.6c7.9-23.5,23.8-44.1,44.4-57.8c8.8-5.9,18.7-10.7,25.2-19.1c6.6-8.6,13.1-22.1,23.4-18.9
		c-5.5-48-6-96.5-1.5-144.6c0.4-4.8,1.2-10.2,5-13.2s11.2-0.8,10.6,4c-2.9,25.8-1.7,52,3.6,77.3c0.6-6.6,11.7-6.5,15-0.8
		c3.3,5.8,1.4,13-0.3,19.4c-6.5,23.9-9.5,48.8-8.9,73.6c10.5-1.9,21.3-1.6,31.7,0.9c-6.7,14-29,18.9-29.2,34.4
		c-0.1,3.9,1.5,7.9,0.5,11.6c-7.9,30.3-11,61.8-9.1,93.1c25.3-1,48-23,49.9-48.3c7.7,17.5,2.9,39.7-11.4,52.5
		c-7.9,7.1-18.5,11.6-23.8,20.8c-5.3,9.2,0.7,25,11,22.5c5.3-3.6,8-10.7,6.2-16.9c11.7,4.7,16.5,19.8,13.4,32.1
		c-3,12.3-11.7,22.3-20.4,31.4c19.1-1.3,38.3-0.8,57.2,1.7c-15.1,1.8-30.3,3.6-45.4,5.5c4.6,0.8,9.2,1.7,13.9,2.5
		c-26.3,1.8-52.6,2.6-78.9,2.3c-0.3,13.5-12.2,25.8-25.7,26.5c-7.3,0.4-12.6,7.8-13.3,15c-0.7,7.3,2.1,14.3,4.9,21.1
		c5.1-5.5,10.4-11.2,17.6-13.4c7.1-2.2,16.4,0.6,18.5,7.8c-6.4-0.2-15.5,2.7-13.7,8.9c0.7,2.5,3.2,4.1,5.7,5.1
		c12.6,4.8,28.3-2.8,32.4-15.6c4.1-12.8-4.2-28.1-17.2-31.6c7-12.1,24.5-16.6,36.5-9.4c-4.8-2.8-10.4,4.2-8.7,9.4
		c1.8,5.2,7.3,8.1,12.5,10s10.9,3.8,13.9,8.5c5.4,8.4-1.5,19.6-9.8,25.1s-18.6,8.8-24.4,16.9c-5.9,8.1-2.1,23.3,7.9,22.4
		c5.2-0.4,8.9-5,12-9.1c4.7,14.6-7.9,30.1-22.5,34.8s-30.4,1.8-45.7-0.3s-31.8-2.8-44.8,5.3c-6.4,3.9-14.2,4.4-21.7,4.8
		c-64.6,2.8-129.3,3.3-193.9,1.4c3.4-0.8,6.7-2.3,9.6-4.4c-21.5-2.4-43-4.7-64.5-7.1c13-3.8,26.9-4.5,40.2-2
		c-6.5-15.1-17.1-32.9-33.5-31.5c-19.7,1.7-39.4,3.5-59.1,5.2c3.3-4.5,8.4-7.7,13.9-8.7c-19.1-0.9-38.2-1.8-57.2-2.8
		c19.1-4.8,38.8-6.9,58.4-6.4c12.9,0.4,20.3-14.3,23.8-26.7c26.7-92.4,24.3-190.6,15.9-286.4c-1.6-18.1-3.7-37.2-14.5-51.9
		c-12.6-17.1-35.2-25.4-45.6-43.8c-7.8-13.9-7.2-30.8-10-46.6c-7.1-40.6-37.9-79.2-26.4-118.7c11.1,7.3,10.9,23.1,13.7,36
		c6.9,31.3,37.6,54.7,39.6,86.8c8.3-16.7,16.6-33.3,24.9-50c2.9,12.8,2.8,26.4-0.4,39.1c4.6-5.5,13.9-6.2,19.3-1.4
		c-6.2,12.2-25.1,12.5-32.5,24c-8.9,14,5.3,31.3,19.4,39.9c16.2,9.9,34.1,17,52.7,20.9c18.3,3.8,40.2,3.3,51.9-11.3
		c8.8-11.1,8.7-26.6,8.9-40.7c0.4-40.3,6.3-80.5,17.3-119.2c9.6,15.3,8.8,34.9,5.5,52.7c-3.4,17.8-9,35.5-8,53.6
		c0.2,3.3,0.7,6.7,2.6,9.4c5.9,8.3,19.5,3.4,25.8-4.7c6.2-8,10-18.7,19-23.5c4.2-2.3,9-2.9,13.8-3.5c14.7-1.9,29.4-3.8,44.1-5.7
		c-15.6,15-34.9,25.4-52,38.7c-24.7,19.4-44.4,45.1-56.8,73.9c-4.6,10.8-8.2,22-14,32.1c-3.6,6.3-8.1,12.2-10.3,19
		c-2.3,6.9-2.1,14.4-2,21.7c1,47,2,94,3.1,141c32.1-21.4,41.6-63.4,60.9-96.8c-5.8,34.9-21.8,68.1-45.4,94.5
		c-23.5,26.1-31.6,65.1-20.6,98.4c7.5-5.4,17.8-2,26.7,0.2C459.4,500.3,471.4,499.8,474.7,491.1 M371.8,292.6
		c-0.4-1.3-0.8-2.9,0.1-4c3.1-3.8,7.4,7.3,11.9,5.4c2.3-13.9,0.5-28.5-5.3-41.4c-1.6-3.6-2.4-9.5,1.5-9.9
		c6.3,14.9,12.5,29.9,18.8,44.8c5.8,0.1,11.5-3.7,13.7-9c2.2-5.4,0.8-12-3.4-16c-1.6,3.3-6.1,4.9-9.4,3.3c0.1-3.2-1.1-6.4-2.3-9.4
		c-5.6-14.1-11.1-28.2-16.7-42.3c-6,2.3-11.2,6.4-14.8,11.7c2.1,4.3,0.8,10-2.8,13c-2.3-7.3-6-14.1-11-19.9
		c2.5,45.2,3.7,90.5,3.7,135.8c0,5.9,3.7,11.1,6.2,16.4c2.5,5.4,3.6,12.5-0.6,16.6c5.2,3.4,3.4,11.2,2.5,17.4
		c-1.4,9,0.8,18.6,5.8,26.2c0.6,0.8,1.2,1.7,2.1,2.1c3.1,1.4,5.8-2.5,6.9-5.7c3.4-9.4,6.8-18.9,10.2-28.3
		c-0.2,7.1-0.4,14.2-0.6,21.3c2.1-0.1,4.1-0.3,6.2-0.4c5-17.8,8.8-35.9,11.4-54.3c1.3-9,1.6-19.6-5.3-25.4c-1.1,4.2-2.8,8.3-5.3,12
		c-4.1-1.8-9.5,1-10.4,5.4c-4-9.5-3.1-20.9,2.5-29.6c-4-0.2-6-4.7-7.2-8.5C377.4,310.6,374.6,301.6,371.8,292.6 M701.8,476.9
		c-5.7-0.4-11.6,2.7-14.5,7.6c7.6,3.5,14.5,9.3,17.7,17.1s1.7,17.6-4.6,23.2c-5.4,4.7-10.8,9.4-17.2,12.4s-14.1,4.1-20.6,1.4
		c-6.5-2.7-11.4-10-9.8-17c-8.7,1-12.9,11.7-11.7,20.3s5.8,16.5,7.1,25.2c0.8,5.7,6.2,10.4,12,10.5s11.2-4.5,12.2-10.3
		c0.7-4-0.7-8.1-1.1-12.2c-0.4-4.1,0.7-8.9,4.4-10.6c3.7-1.7,8.9,3.1,6.2,6.2c-4.1,4.7-3.2,11.7-3.3,17.9s-3.2,13.8-9.4,14
		c-1.3,2.6,0.6,6,3.3,7.1c2.7,1.2,5.8,0.8,8.7,0.2c8.5-1.6,16.8-4.3,24.6-7.9c2.2-1,4.6-2.3,5.5-4.6s-0.6-5.6-3.1-5.3
		c-7.2,0.8-14.2-5-16-12s0.7-14.7,5.2-20.4s10.8-9.7,17.2-13.1c4.2-2.2,8.6-4.2,11.9-7.6c3.3-3.4,5.2-8.6,3.3-12.9
		c-3.4-7.7-14.7-6.7-21.8-11.2C701.9,491.5,699.2,483.4,701.8,476.9 M645.1,338.4c-4,33.2-8,66.5-12,99.7c-0.4,3.2-0.7,6.7,1,9.3
		c1.7,2.7,6.4,3.4,7.9,0.6c13.5-26.2,16.5-56.4,19.3-85.8c2.1-21.9,4.1-43.8,6.2-65.7c-7.9,2.7-13.8,9.7-17.1,17.4
		S646.1,330.1,645.1,338.4 M603,382.1c-0.2,8.5-1.6,17-4.2,25c-1.7,5.3-3.6,12.2,0.8,15.7c8.1,6.4,5.9,20.5,13.6,27.3
		c2.1-11.4,3.3-23,3.8-34.7c0.6-15-0.2-30.4,4.7-44.7c0.9-2.6,0-5.5-0.8-8.1c-1.7-5.1-3.3-10.2-5-15.3c-1.2-3.8-2.6-7.7-5.4-10.5
		c-2.8-2.8-7.6-4.1-10.8-1.7c-15.3,11.2-20.3,34.3-11,50.8c3.6-1.6,6-5.7,5.7-9.6c-0.2-2.8,4.1-3.9,6.2-2.1S603.1,379.3,603,382.1
		 M399.3,576.6c12.8,0,24.1-10.7,36.9-9.7c6,0.5,11.7-2,17.2-4.4c6.4-2.8,12.8-5.6,19.1-8.4c3.7-1.6,8.1-4.9,6.6-8.6
		c-1-2.4-4-3.2-6.7-3.4c-9.4-0.7-19,2.1-26.6,7.7c-1.4,1-3.2,1.1-5,1.2c-25,1.2-49.9,3.4-74.7,6.5c1.2,7,2.4,14.2,6.3,20.2
		s11,10.4,18,8.8c3.4-0.8,6.9,0.5,10.3-0.1s6.6-4.7,4.2-7.2c-3.3,0.2-6.5,0.4-9.8,0.6C393.6,578.2,397,576.6,399.3,576.6
		 M545.4,537.9c-15.4,1.3-30.8,2.6-46.2,4c-1.5,1.2,1.3,2.9,3.2,2.8c9.8-0.8,19.6-1.5,29.4-2.2c2.3-0.2,5.6,0.8,4.9,3
		c-9.4,0.5-18.8,1-28.2,1.4c-1.4,0.1-2.9,0.2-4,1.1c-1.1,0.9-1.3,2.9-0.1,3.5c10.6-2.1,21.8-4.2,32.1-0.8
		c-10.2,1.1-20.3,2.2-30.5,3.3c6.5,5.9,19.1-3.4,24.9,3.1c-9.6,0.1-19.2,3.7-26.4,10.1c0.4,1.5,0.8,3,1.1,4.5
		c-10.8,0.1-21.6,1-32.3,2.7c-0.8,2.5,3.1,3.7,5.8,3.5c9-0.8,18-1.6,27.1-2.3c3.4-0.3,7.6-0.2,9.1,2.9c-18.8,1-37.6,2-56.4,2.9
		c-2.2,0.1-5.1,0.8-5.3,3c11.2,1.1,22.5,0.7,33.5-1.1c4.4-0.7,8.8-1.7,13.2-1.2c4.4,0.5,8.9,2.8,10.7,6.8c-5,3.1-11.2,4.1-17,2.8
		c-0.4,1.4-0.7,2.9-1.1,4.3c-6.1-0.9-12.5-0.4-18.4,1.4c10.8,3,22.1,2.7,33.3,2.5c1.6,0,3.2-0.1,4.7-0.8c1.4-0.7,2.5-1.9,3.5-3.2
		c12.3-15,23.9-30.7,34.6-47c3.1-4.6,6.1-9.6,6.3-15.2c-17.5-4.1-35.9-4-53.3,0.2c1.3,1.8,4,1.8,6.3,1.5
		C521.8,534.3,534.2,533.6,545.4,537.9 M565.5,426.2c5.5-32.4,3.9-65.6,2.2-98.4c-0.1-2.3-0.3-4.8-2-6.5c-1.7-1.6-5.2-1.1-5.4,1.2
		c1,2.7,2.8,5.1,5,6.9c0.3,3.4-4.1,5.6-7.3,4.5c-3.2-1.1-5.3-4.2-7-7.2c-7.3-12.8-12.5-26.9-15.3-41.4c-4.1,5.2-4.7,12.9-1.5,18.7
		c4.8,1.1,5.6,7.3,6.1,12.2c1.2,10.8,6.2,20.8,11.1,30.5c0.5,1.1,1.2,2.2,2.3,2.7c1.3,0.5,2.8-0.1,4.1,0.2c3,0.6,3.6,4.5,3.6,7.5
		c-0.2,15.3-0.3,30.6-0.5,45.9c0,4.5-0.2,9.4-3.1,12.8c-2.9-4.3-4.7-9.2-5.4-14.3c-0.3-2-0.4-4.2-1.5-6c-1.1-1.8-3.6-2.9-5.3-1.7
		c-0.6,0.4-1,1-1.3,1.6c-3.2,5.8,0.6,12.8,3.6,18.7c3,5.9,4.4,14.6-1.4,17.9c3.7-1,7.8-0.6,11.2,1.1c-1.3,2.5-1.9,5.3-1.6,8.1
		C562.2,439.4,564.5,432.3,565.5,426.2 M693.8,390.6c0.1,8.8,0.1,17.5,0.2,26.3c1,2,4.4,0.8,5.1-1.3c0.7-2.2-0.2-4.4-0.5-6.7
		c-0.3-2.2,0.6-5.1,2.8-5.4c5.5,5.6,11.1,11.5,13.8,18.9s1.7,16.7-4.4,21.6c-2.2,1.7-5.2,3.5-4.9,6.3c17.4-5.9,30.7-22.4,32.9-40.6
		c0.1-0.7,0.1-1.5-0.3-2.1c-0.8-1.1-2.5-0.5-3.7,0c-8,3.3-18,0.9-23.7-5.5c-5.8-6.5-6.9-16.6-2.7-24.2c7.4-13.4,27.8-16.7,32.7-31.2
		c-6.8,2.6-13.6,5.3-20.3,7.9c-9.3,3.6-19.3,7.9-23.9,16.7C693.8,376.9,693.7,383.9,693.8,390.6 M467.1,469.4
		c-1.3,4.9,0.3,10.4,4,13.9c2.7,2.6,7.1,3.9,10.2,1.7c4.1-2.8,9.9-3.1,14.2-0.5c2.5,1.5,5.4,3.9,8,2.5c1.4-0.7,2-2.3,2.5-3.8
		c3.9-11,7.1-22.2,9.3-33.7c1.5-7.6,2.6-15.4,0.8-22.9c-0.3-1.1-0.8-2.3-1.8-2.6c-1.9-0.5-2.7,2.4-2.7,4.4c0,4.4-1.2,9.6-5.2,11.5
		c-3,1.4-6.8,0.4-9.5-1.6c-2.7-2.1-4.5-5-6.2-7.9c-3.8,3.8-6.8,8.8-6.8,14.1s3,10.1,4.4,15.2c1.4,5.1,0.5,11.8-4.5,13.8
		C478.2,475.7,472.8,470.7,467.1,469.4 M610.5,274.9c-4.3,10.7-11.3,20.3-20.3,27.7c0.8,2.5,4.3,3.1,6.6,2s3.9-3.4,5.6-5.3
		c1.7-2,3.8-3.9,6.4-4c5.9-0.1,9.6,9,15.3,7.4c10.9-15.7,9.5-37.4,20.4-53c1.4-2-0.5-4.9-2.9-5.4s-4.7,0.7-6.8,1.9
		C623.9,252.8,615.2,263.1,610.5,274.9 M604.7,481.4c0.7,5,1.4,9.9,2.1,14.9c0.9,6.8,1.9,13.6,2.8,20.4c0.2,1.4,0.4,2.9-0.3,4.2
		c-1.4,2.6-5.1,2.4-7.9,1.8c-1.4,4.8-2.4,9.7-2.9,14.6c-1,8.6-0.7,17.3-0.5,26c0,1.3,0.4,3.1,1.7,3.3c0.7,0.1,1.3-0.2,1.9-0.6
		c3.1-2.2,5.3-5.6,6-9.3c0.8-4.6,7.4-5.2,10.3-8.8c2.3-2.8,2-6.8,1.6-10.3c-1.4-13.1-2.9-26.1-4.3-39.2c-0.3-3-0.4-6.5,2.1-8.2
		c0.4-6.8,0.9-13.7,1.3-20.5c0.2-3.7-0.1-8.3-3.5-9.6c-1.6,1.2-1.4,3.6-1.4,5.6s-1.1,4.5-3.1,4.3c-2.5-0.3-4.8,1.7-5.6,4.1
		C604,476.3,604.4,478.9,604.7,481.4 M424.9,509.2c4.9,7.3,9.8,14.6,14.8,21.9c2,3,4.1,6.6,2.7,9.9c8.1,1.4,16.7-0.5,23.5-5.1
		c-3.8-3.3-7.9-8.6-5.1-12.8c1.4-2,4.1-2.8,6.5-3.3c3.6-0.7,7.2-1.2,10.9-1.5c2.3-0.2,5.2-0.8,5.5-3.1c-10.3-1.5-21,0-30.5,4.4
		c-2.5,1.2-5-2.2-4.6-4.9c0.4-2.7,2.3-5,3.1-7.6c-3.5-0.5-7.1-0.6-10.7-0.4c0-1.6,0.6-3.2,1.6-4.4c-0.7-2.1-3.5-2.6-5.8-2.7
		c-3.2-0.1-6.5-0.2-9.3,1.4C424.8,502.8,423.1,506.6,424.9,509.2 M388.4,462.3c0.6,5.3,1.2,10.7,1.7,16c2.2,0.3,3.6,2.6,3.6,4.8
		s-1.1,4.2-2.2,6.2c3.5,3.5,8.7,5.4,13.7,4.9c-1.6,6-3.3,12.1-4.9,18.1c0.9,0.8,2.3-0.1,2.8-1.2c0.5-1.1,0.7-2.4,1.7-3
		c1.4-0.9,3.3,0.3,3.8,1.8c0.5,1.6,0,3.2-0.5,4.8c-0.5,1.5,1.5,2.9,3,2.4s2.2-2.3,2.1-3.9c-0.1-1.6-0.8-3-1.4-4.5
		c-4.9-12.6,0.1-27.8-6.3-39.7c-2.1-3.9-2.7-8.6-1.6-13c-5.9,0.6-9.7-6.3-9.8-12.2s2-11.9,0.6-17.6c-1.3-0.5-2.4,1.1-2.9,2.4
		c-3.5,9.3-4.8,19.4-3.7,29.3C388.1,459.4,388.3,460.8,388.4,462.3 M658.1,459c-8.1-1.2-16.3-1.9-24.5-2.3
		c-1.1,8.4-1.7,16.9-1.7,25.4c0,1.5,0.1,3.3,1.4,4.1c1.1,0.8,2.6,0.4,3.9,0c2.7-0.8,5.5-1.6,8.2-2.4c8.5-2.5,18.4-6.5,20.1-15.2
		c0.6-3-0.2-6.4-2.7-8.1C661.4,459.5,659.8,459.2,658.1,459 M669.1,247.1c-1.3,5.8-2.7,11.6-4,17.4c1.2-0.7,2.3-1.4,3.5-2.1
		c16.3-10,31.4-22,44.9-35.6c0.5-0.5,1-1.2,0.8-1.8c-0.3-0.8-1.4-0.9-2.2-0.9c-12.5,1-24.7,5.1-35.2,11.9c-2.1,1.4-4.2,2.9-5.5,5
		C670.1,242.8,669.6,245,669.1,247.1 M514.7,503.8c-0.8,0-1.7,0-2.3,0.5c-1,0.9-0.6,2.6,0.5,3.4c1.1,0.8,2.5,0.9,3.8,0.9
		c11,0.5,21.9,1,32.9,1.5c1.1,0.9-0.8,2.3-2.2,2.3c-8.1,0.4-16.1,0.8-24.2,1.2c-1.4,1.6,1.6,3.2,3.7,3.2c6.3-0.1,12.6-0.2,18.9-0.3
		c2.5,0,5.9,0.6,6.1,3.1c-7.6-0.3-15.1-0.6-22.7-0.9c-2.3-0.1-5.7,1.5-4.4,3.4c2.1,2.5,5.8,2.6,9,2.5c6.1-0.2,12.2-0.4,18.3-0.6
		c2.7-0.1,6.3-1.3,5.8-3.9c-1.6-8.1-2-16.4-1.1-24.6c-3-1.3-6.3-2.5-9.6-2c-3.3,0.6-6.3,3.7-5.4,6.9c1.8-0.1,3.5,1.5,3.5,3.3
		C535,503.8,524.9,503.8,514.7,503.8 M687.3,338.5c-2.4,12.3-4.6,24.8-4.2,37.3c0.1,2.1,0.2,4.3-0.2,6.4c-0.3,1.8-1,3.5-1.5,5.2
		c-2.4,8.1-1.4,17.2,2.9,24.5c0.9,1.6,0.2,3.6,0.2,5.5s1.6,4.1,3.3,3.3c-0.2-5.4-0.3-10.7-0.5-16.1c-0.2-6.3-0.4-12.7-0.1-19
		c1.1-24.2,9.5-48.1,6.8-72.1c-1.6,1.3-2.2,3.4-2.6,5.4C690,325.4,688.6,332,687.3,338.5 M520.2,478.4c0.5,2.4,3.7,3.2,5.9,2.1
		c2.2-1.1,3.5-3.3,4.6-5.4c1.3-2.4,2.7-4.8,4-7.2c0.7-1.2,1.7-2.6,3-2.3c2.1,0.5,4-2,3.8-4.2c-0.1-2.2-1.6-4.1-2.8-5.9
		c-1.2-1.8-2.4-3.9-1.9-6.1c0.5-2.5-3.3-4-5.4-2.6c-2.2,1.4-2.9,4.1-3.5,6.6C525.8,461.9,523.2,470.3,520.2,478.4 M572.7,564.6
		c-1.3-3.3-2.6-6.7-3.9-10c-0.1,2.3-0.2,4.8-1.8,6.4c-1.6,1.6-5.1,1.1-5.3-1.2c-1-0.3-1.8,0.8-1.9,1.8c-0.1,1,0.3,2,0.2,3
		c-0.1,1.9-1.5,3.4-2.8,4.8c-1.4,1.3-2.9,2.7-3.3,4.5c-0.4,1.9,1,4.2,2.9,3.8c2.5-0.4,4.9-0.9,7.4-1.3c4-0.7,8.8-2.2,9.6-6.1
		C574.2,568.4,573.5,566.5,572.7,564.6 M695.6,428.9c-0.5,4.6-0.2,9.3,1,13.9c5.1-2.1,9.4-6,12-10.9c1-2,1.8-4.2,1.5-6.4
		s-2-4.3-4.2-4.6C704.2,425.1,696.1,424.4,695.6,428.9 M430.3,199.6c-4.3,7.6-7.7,15.7-10,24.1c8.4-7.7,14.7-17.5,18.2-28.4
		C435.8,193.2,432.1,196.5,430.3,199.6 M696.6,157.4c0.9,0.2,1.9,0.4,2.8,0.6c1.2-4.8,2.4-9.7,3.4-14.5c0.5-2.2,0.9-4.6,0.5-6.8
		c-0.5-2.2-2.1-4.4-4.3-4.8c-2.3-0.4-4.8,1.7-4.2,3.9C696.4,142.8,697,150.1,696.6,157.4 M663.5,277.4c-0.7,0.1-1.4,0.3-2,0.7
		c-0.5,0.4-0.8,0.9-1.1,1.5c-1.3,2.6-1.8,5.5-1.5,8.4c6.6-2.7,12.4-7.2,16.8-12.8C671.7,276,667.6,276.7,663.5,277.4 M698.1,209.7
		c-0.4-3.5-0.8-7-1.2-10.5c-0.1-1.2-1.8-2-2.9-1.3c-0.4,6.1-0.9,12.1-1.3,18.2c1.1,1.6,3.8,0.9,4.8-0.7
		C698.5,213.7,698.3,211.7,698.1,209.7 M654.3,266c-3.7,6.8-6.2,14.2-7.3,21.8c-0.3,1.9-0.4,4,0.6,5.6
		C651.5,284.7,653.7,275.4,654.3,266 M420.1,525.8c-0.9-3.1-2.7-6-5.1-8.2c-1.1,2.4-1.8,5-2.2,7.6c-0.1,0.6-0.2,1.2,0.1,1.8
		c0.4,1,1.6,1.4,2.6,1.7c2.3,0.7,4.5,1.4,6.8,2.1C421.9,529.1,421.2,527.3,420.1,525.8 M445.5,575.2c-6.1,0-12.1,1.1-17.7,3.3
		c5.6,1.6,11.8,1.2,17.2-1C445.7,577,445.9,576,445.5,575.2 M515.1,99.8c3.3,0.8,5.9-2.7,7.5-5.8c-4.6-1.2-8.7,2.9-11.7,6.6
		c1.4-0.1,2.9-0.2,4.3-0.2 M542.1,203.9c2.8-2.5,3.8-7,2.2-10.4c-0.9-0.6-1.8-1.2-2.7-1.7C541.4,195.7,541.5,199.8,542.1,203.9
		 M539.2,191.9c0.9-2.6-3.4-5.1-5.2-2.9c0.1,2.8,0.8,5.6,2,8.2c1-1.8,1.9-3.7,2.9-5.5 M655.8,258.5c-1.3,1.5-1.6,3.8-0.6,5.5
		c3.2-3.9,4.9-9.1,4.7-14.2c-2.2,2.3-3.6,5.4-3.8,8.5 M693.4,260.1c1.3-0.4,2.9-1,2.9-2.4c0.1-0.7-0.4-1.4-1.1-1.7
		c-3.3,1-6.3,3.1-8.4,5.8C689,261.3,691.2,260.7,693.4,260.1 M470.1,508.5c-2.4-0.2-4.9,0.5-6.8,1.9c3.5,1.7,8,1,10.8-1.7
		c-1-0.9-2.6-1.2-3.9-0.8 M418.8,230.3c-0.2-0.8-0.3-1.6-0.5-2.4c-2.8,1.6-4.2,5.3-3.2,8.3c2.1-1.2,3.4-3.5,3.3-5.9 M662.3,454.9
		c0.1-0.8,0.2-1.7,0.3-2.5c-1.6-0.8-3.6-0.8-5.2,0c0.3,1.9,2.8,3.2,4.5,2.3 M479.2,509.4c1.6,0.1,3.1-0.9,3.7-2.4
		c-2.4,0.1-4.9,0.6-7.2,1.3c0.7,1.2,2.1,1.8,3.5,1.6 M485.3,521.4c-1.8-0.9-4.1-0.9-5.9,0.1c1.2,1.7,4.1,1.8,5.3,0.1 M472.3,522.4
		c0.6,1.7,3.7,1.6,4.2-0.2c-1.2-0.7-2.7-0.7-3.9,0.1 M422,578.7c-0.8,1.3,1.7,2.9,2.5,1.6c0.6-1-1.2-1.6-2.4-1.4 M530,436.7
		c1.1-0.7,0.5-2.8-0.8-2.8c-1.1,0.8-0.4,2.9,0.9,2.9 M420.5,595.4c-0.7-1.1-2.8-0.5-2.8,0.8c0.8,1.1,2.9,0.4,2.9-0.9 M497.2,567
		c-0.9,0.2-0.4,1.7,0.5,1.7s1.5-0.8,1.9-1.6c-0.8-0.2-1.6-0.3-2.5-0.5 M619.7,586.3c-0.2,0.8-0.1,1.7,0.4,2.5c0.7-0.5,1.5-1.1,1.5-2
		s-1.5-1.3-1.6-0.4 M695.7,269.2c-1-0.6-2.5,0-2.9,1.1C693.6,271.4,695.7,270.6,695.7,269.2 M578.1,508.8c0.9-0.5,0-2.2-0.9-1.9
		C576.3,507.4,577.2,509.1,578.1,508.8 M486,506.9c-0.4-0.6-1.5,0.4-0.9,0.9c0.5,0.5,1.5-0.4,1.1-1 M442,182.7
		c0.5-0.5-0.5-1.4-1-0.9C440.6,182.4,441.6,183.2,442,182.7 M690,271.7c0.5-0.5-0.5-1.4-1-0.9C688.6,271.4,689.6,272.2,690,271.7
		 M470.1,522.8L470.1,522.8 M362.6,489.3L362.6,489.3 M477.6,592.3L477.6,592.3z"/>
</g>
</svg>
