<?xml version="1.0" encoding="utf-8"?>
<!-- Generator: Adobe Illustrator 19.1.0, SVG Export Plug-In . SVG Version: 6.00 Build 0)  -->
<svg version="1.1" id="Layer_1" xmlns="http://www.w3.org/2000/svg" xmlns:xlink="http://www.w3.org/1999/xlink" x="0px" y="0px"
	 viewBox="-114 -98.7 612 792" style="enable-background:new -114 -98.7 612 792;" xml:space="preserve">
<style type="text/css">
	.st0{fill:#FFFFFF;}
</style>
<g>
	<path class="st0" d="M-0.1,369c-1.3,0.3-2.7-0.9-2.8-2.2s1.3-2.5,2.6-2.3c0.7,1.2,0.7,2.8,0,3.9L-0.1,369z"/>
	<path class="st0" d="M20.2,357.8c1.2-0.7,2.8-0.7,4,0c0,1.3,0,2.6,0,4c-1.1,1-3,1-4.1-0.1s-1.1-3-0.1-4.1L20.2,357.8z"/>
	<path class="st0" d="M34.4,226.8C5.2,239.3-22,256.1-46.2,276.7c-1,0.9-2.4,1.8-3.6,1.2c-2.1-1-0.6-4.1,1.1-5.7
		c26.5-24.5,58.4-43.1,92.8-54C43.3,222.7,38.6,225.1,34.4,226.8z"/>
	<path class="st0" d="M324.5,251.8c-0.7,1.5-2.5,2.1-4.1,2.5c-13.4,3.7-26.9,7-40.5,9.8c-1.2-1-0.9-3.1,0.3-4.2
		c1.1-1.1,2.7-1.5,4.3-1.8c9.9-2.2,19.7-4.4,29.6-6.7C317.5,250.6,321.5,249.9,324.5,251.8z"/>
	<path class="st0" d="M335.3,180.6c-0.4,3.6-0.4,7.5-2.3,10.6s-6.5,4.9-9.2,2.5c-6.7-6.2-19.3-3.3-22.7,5.1
		c-2.5-2.3-1.4-6.5,0.8-9.1c4.3-5.1,12.2-6.8,18.2-3.9c3.1,1.5,5.7,4,9.1,4.9c-3.8-6.9-0.6-15.4,2.7-22.6c1.5-3.2,3.1-6.6,6-8.7
		c2.8-2.2,7.2-2.7,9.8-0.3c2.7,2.5,2.4,6.8,1.8,10.4c-0.7,4.5-1.3,9-2,13.5c-0.2,1.1-0.3,2.2,0.2,3.1c0.5,1,1.8,1.6,2.6,0.9
		c5.8-4.5,12-8.5,18.4-12.2c2.2-1.3,5-2.5,7.1-1c2.5,1.7,1.8,5.5,0.9,8.4c-2.8,8.4-5.6,16.8-8.5,25.2c-0.3,1-0.7,2.1-1.7,2.6
		s-2.4-0.2-2.2-1.2c1.1-5.8,2.2-11.6,3.3-17.4c0.5-2.5,1-5.2,2.8-7c1.3-1.4,3.2-2.1,4.3-3.7s0.7-4.4-1.2-4.5
		c-5.4,4.2-10.9,8.4-16.3,12.6c-2.2,1.7-4.6,3.4-7.3,3.2c-2.8-0.2-5.1-2.6-6.1-5.3c-1-2.7-0.9-5.6-0.8-8.4c0.2-4.9,0.4-10,2.9-14.2
		c0.8-1.4-1.1-3.1-2.7-2.7s-2.6,2-3.3,3.5C337.4,169.8,335.9,175.2,335.3,180.6z"/>
	<path class="st0" d="M10.8,382.4c1.1-0.1,2.1,0.3,3.1,0.5c7,1.4,12.9-5.1,17-11c1-1.5,3.6-0.3,4,1.4c0.4,1.7-0.6,3.5-1.5,5
		c-4.5,7.3-11.2,15.1-19.6,14c-2.5-0.3-5.1-1.7-6.1-4.1S8.3,382.6,10.8,382.4 M13.4,386.2c-0.6,1.7,1.4,3.4,3.2,3.2s3.3-1.5,4.6-2.8
		c-2.5-0.1-5-0.1-7.5-0.2L13.4,386.2z"/>
	<path class="st0" d="M9.6,346.7c-2.1-0.4-4.2-1.2-6.4-1.2c-3.6,0.1-6.8,2.7-8.6,5.8c-1.7,3.2-2.3,6.8-2.7,10.4
		c-0.4,3.7-1.1,7.9-4.1,10c-5.1-5.1-4.1-13.7-1.2-20.3c1.6-3.8,3.7-7.4,6.9-10c3.2-2.6,7.5-4.1,11.4-3.1c6.8,1.7,14.3,0.3,19.9-3.8
		s9.4-10.7,9.9-17.7c0.3-4.4-3.5-8.4-7.9-9.3c-4.3-0.9-8.9,0.6-12.7,3c-1.4,0.9-2.8,1.9-4.5,2.1s-3.6-1.1-3.4-2.8
		c0.1-0.5,0.3-1,0.6-1.5c4.8-7.9,16-9.4,24.9-6.9c2.6,0.7,5.3,1.8,7.2,3.7c2.9,3,3.4,7.6,2.5,11.6s-3.2,7.6-5.3,11.1
		c-3.1,4.9-6.2,9.9-10.6,13.7S15.3,347.7,9.6,346.7z"/>
	<path class="st0" d="M140.7,253.1c-2.5-6.4-7.6-11.7-14-14.3c-2.7-1.1-5.7-1.8-7.9-3.7c-1.4-1.2-2.4-3.2-1.6-4.9
		c1.2-2.4,4.9-1.7,7-0.1s4.2,3.9,6.9,3.7c4.5-0.3,9.1,2.3,11.1,6.4C144.4,244.4,143.7,249.7,140.7,253.1z"/>
	<path class="st0" d="M408,154.5c-17.4-7.8-36.1-12.7-55.1-14.6c-4.3-0.4-8.7-0.7-13-1c-13.8-0.8-27.5-1.7-41.3-2.5
		c-1.5-0.1-3.1-0.2-4.3-1.2c-1.2-1-1.4-3.1-0.2-3.9c0.6-0.4,1.4-0.3,2.1-0.3c12.2,0.8,24.4,1.6,36.6,2.4
		c24.1,1.6,49.2,3.4,70.3,15.1C405.6,149.8,408.2,151.8,408,154.5z"/>
	<path class="st0" d="M137.2,218.5c-2-5.3-4.2-10.8-8.2-15c-4-4.1-10.2-6.6-15.5-4.5c-2.8,1.1-6.3-2-5.5-4.9
		c7-2.8,15.4-1.9,21.5,2.4c6.2,4.3,10,11.8,9.8,19.3C138.7,216.7,137.9,217.6,137.2,218.5z"/>
	<path class="st0" d="M88.5,297.1c2.9,1.8,6.2,4.1,6.7,7.5c0.4,2.6-1.1,5.2-3,7c-2.8,2.6-6.8,4-10.7,3.6c-2.5-0.3-6.2-0.4-6.3,2.1
		c-0.3,7.1-2.6,14.1-6.4,20c-2.7-4.6-0.1-10.3,1-15.4c2.8-12.9-5.3-27.3-17.8-31.6c-2-0.7-1.6-4,0.3-4.9s4.1-0.3,6,0.6
		c7.7,3.7,13.7,10.9,15.8,19.2c0.7,2.6,4,3.4,6.6,3s5.2-1.6,7.8-1.1c0-5.3-9.9-5.2-11-10.4C79.4,293.1,85,294.9,88.5,297.1z"/>
	<path class="st0" d="M3.5,289.4c5.7-3.2,13-5.8,18.4-2.1c-12.3,5.5-23.5,13.3-32.7,23.1c-1.4,1.5-2.8,3-4.8,3.6
		c-1.9,0.6-4.5-0.1-5-2.1c-0.5-1.8,0.8-3.6,2.1-5C-12.2,300-4.7,294,3.5,289.4z"/>
	<path class="st0" d="M260.5,305.3c2.2,0.7,1.4,3.9,1.6,6.2c0.6,4.8,7,5.8,11.8,5.7c23.4-0.3,46.8,3,69.1,9.9
		c0.9,1.4-1.5,2.5-3.1,2.4c-19.5-1.3-38.6-8.6-58.1-6.9c-4.2,0.4-8.4,1.2-12.7,0.8s-8.6-2.2-10.8-5.8
		C256.1,313.7,257,308.2,260.5,305.3z"/>
	<path class="st0" d="M283.6,59.5c-20.1-2.1-40.4-2.6-60.6-1.5c-29.9,1.5-59.8,6.5-89.8,4.4c-2.3-0.2-5.4-2.2-3.8-3.8
		c0.5-0.6,1.4-0.6,2.2-0.7c35.8-1.7,71.6-3.5,107.4-4.7C254.2,52.7,270.2,52.4,283.6,59.5z"/>
	<path class="st0" d="M77.7,349.1c-10.5,5.9-16.2,19.4-13,31c0.8,2.9-2.7,5.6-5.7,5s-5-3.3-6.3-6c-1.2-2.7-1.9-5.7-3.5-8.3
		c0.8-0.8,1.6-1.6,2.4-2.4c2.7,1,3.3,4.4,3.9,7.2c0.6,2.8,2.3,6.1,5.1,5.8c0.8-0.9,1.2-2.3,1-3.5c-0.1-1-0.6-1.8-1-2.7
		c-3.6-8.1-0.4-18,5.6-24.6c6-6.5,14.4-10.3,22.8-13.4c0.5,2.9-1.3,5.8-3.7,7.6C83.1,346.6,80.3,347.7,77.7,349.1z"/>
	<path class="st0" d="M361.3,264.9c3.1-1.5,5.7-3.9,8.2-6.3c2.9-2.8,5.9-5.6,8.8-8.3c2,0,3.5,2,3.7,3.9c0.2,2-0.5,3.9-1.2,5.7
		c-2,5.3-3.9,10.5-5.9,15.8s-4.1,10.8-7.9,15.1c-3.8,4.3-9.7,7.1-15.2,5.6c-1.5-0.4-3.1-1.9-2.3-3.2c4.4,1.6,9.4-0.4,12.7-3.6
		c3.3-3.2,5.3-7.6,7.3-11.8c3.2-7,6.4-14.1,9-21.4c-4.5,1.4-8,5.6-8.6,10.3c-5,4-11.3,6.4-17.7,6.8c-2.3,0.1-4.7,0-6.5-1.3
		s-2.7-4.2-1.2-5.9C350.3,266.8,356.2,267.3,361.3,264.9z"/>
	<path class="st0" d="M319.8,241.9c-1.3-3.6-5.7-5-9.5-4.9s-7.6,1.2-11.4,0.6c-4.1-0.6-7.6-3.2-10.5-6.1c-4.8-4.9-8.2-12.2-5.7-18.5
		c2.2-5.7,8.3-8.8,11.9-13.7c2.2,1.4,0.5,4.6-1,6.7c-3,4.1-4.6,9.2-3.9,14.2s4,9.7,8.7,11.5c4.2,1.6,8.8,0.8,13.3,0.7
		s9.5,0.8,12.1,4.5c1,1.5,1.5,3.6,0.5,5.1C323.2,243.5,320.4,243.6,319.8,241.9z"/>
	<path class="st0" d="M93.6,143.6c-24.1,8.3-48.7,14.9-73.7,19.7c-0.9,0.2-1.9,0.3-2.7-0.2c-1.2-0.8-1-2.7-0.1-3.7s2.4-1.4,3.8-1.7
		c25-5.9,50-11.7,75.1-17.6C97.1,141.4,95.2,143.1,93.6,143.6z"/>
	<path class="st0" d="M362,39.7c-5.5,22-8.1,44.8-7.8,67.5c29.9,11.6,60.8,20.4,92.4,26.2C419.2,214,390,294.1,359,373.4
		c-0.7,1.8-1.5,3.6-3.1,4.6c-1.9,1.1-4.4,0.4-6.5-0.2c-11.7-3.7-23.4-7.4-35.2-11.1c-0.4,7.6-7.2,13.6-14.6,15.7s-15.1,1.1-22.7,0.4
		c-34.9-3.2-70.4-0.3-104.4,8.4c-9.3,2.4-22.8,2.9-24.7-6.5c-0.5-2.6,0.1-5.3-0.4-7.9s-3.2-5.2-5.6-4.1c-0.3,14.1,4,28.2,12.1,39.7
		c3.4,4.9-3.4,10.3-9,12.3c-42,15-84,30.1-125.9,45.1c-3.1,1.1-6.7,2.2-9.6,0.7c-2.4-1.2-3.7-3.9-4.9-6.3
		c-30.8-66.3-58-134.4-81.3-203.8c-0.4-1.2-0.8-2.5-0.5-3.7c0.4-1.6,2-2.6,3.4-3.5c20.9-12.5,41.7-24.9,62.6-37.4
		c2.7-1.6,2.2-5.6,1.2-8.6c-4.6-14.8-10.7-29.1-18.2-42.7c-1.6-2.9,2.2-5.7,5.3-6.9c41.4-15.2,82.8-30.3,124.3-45.5
		c-0.6-23.3-1.1-46.6-1.7-69.9c0-0.9,0-1.9,0.5-2.7c0.8-1,2.2-1.1,3.4-1.1c51.8-0.7,103.6-1.4,155.4-2
		C293.4,35.9,327.9,35.5,362,39.7 M282,352.5c3.7,2.1,7.9,3.4,12.2,3.6C290.6,353.9,286.3,352.7,282,352.5 M264.7,167.8
		c-0.9,0.3-0.9,1.7-0.7,2.6c0.7,3,1.4,6,2.1,9c4.1-10.8,7.4-21.9,9.6-33.2c-3.1,2.8-3.7,7.4-4.5,11.5
		C270.4,161.8,268.7,166.4,264.7,167.8 M194.7,243.5c8.8-14.6,27.9-22,44.2-17.2c6.3,1.9,10.7-6.1,12.5-12.4
		c2.8-10.2,5.7-20.4,8.5-30.6c1.3-4.8,1.9-11.4-2.6-13.4c-9.6-4.2-17.8-11.4-23.3-20.4c-3.1-5.1-5.4-10.7-8.9-15.4
		c-3.6-4.7-9-8.7-14.9-8.4c3,9.1,4.9,21.5-3.5,26.1c-5.6,3-7.2,10.1-9.5,16s-7.8,12.2-13.8,10.3c9.7-8.8,7.1-27.6,18.9-33.1
		c3-1.4,3.5-5.5,2.7-8.7s-2.4-6.3-2-9.6c0.6-5.2,6.2-8.7,11.4-8.3c5.2,0.4,9.8,3.6,13.3,7.5c6.2,6.8,10.1,15.4,15.2,23.1
		c5.1,7.7,12.3,14.9,21.4,16.1c8.4-22.8,14.7-46.4,18.9-70.4c0.6-3.4,1.5-7.3,4.6-8.9c2.5-1.3,5.5-0.4,8.2,0.4
		c17,5.3,34.2,10.7,49.2,20.2c-18.9-6-37.9-12-56.8-18c-0.3,3.2-0.7,6.4-1,9.6c8.2-7.2,20.9-2.9,30.8,1.6
		c32.6,14.5,66.6,25.9,101.4,34c4.7,1.1,9.6,2.3,13.2,5.6s4.8,9.5,1.3,12.9c2.4-2.6,4.9-5.4,5.7-8.9s-0.9-7.8-4.4-8.5
		c-25.6-5.4-50.9-12.5-75.7-21.1c-2.7-0.9-5.7-2.1-7.2-4.5c-1.1-1.8-1.3-4.1-1.4-6.3c-0.3-5.7-0.6-11.5-0.8-17.2
		c0.2,6.5-2.1,13.1-6.3,18.1c1.7-16.5,3.5-33,5.2-49.5c0.2-1.8,0.3-3.8-0.8-5.2c-1.3-1.6-3.7-1.8-5.8-1.8
		c-76.1-0.7-152.3-0.3-228.4,1.4c-1.1,0-2.2,0.1-3.1,0.7c-1.5,1-1.6,3.2-1.6,5.1c0.3,15.8,0.6,31.5,0.9,47.3
		c0.1,3.3,1.8,7.8,4.9,6.8c13.5-4.6,27.1-9.1,40.6-13.7c1.6-0.6,3.4-1.1,5-0.5c2,0.8,2.9,3.2,3.6,5.2c6.4,20.9,11.8,42,16.2,63.4
		c1,5,1.8,10.6-1.2,14.7c6.8,5.9,7.4,16,7.6,24.9c1.3,48.3,6.2,96.4,14.7,143.9c1,5.5,0.1,13.4-5.5,13.4c-9.8,0-19.5,1.6-28.7,4.8
		c-3.2,1.1-6.5,2.5-8.7,5.1s-2.9,6.8-0.7,9.4c2.5,3,7.3,2.6,11.2,1.9c41.2-7.2,83-10.4,124.8-9.5c4.2,0.1,10.1-2.2,8.4-6
		c-0.7-1.5-2.3-2.2-3.9-2.8c-24.9-9.4-50.1-18.1-75.5-26.1c-4.3-1.3-4.1-7.5-2.9-11.9c8.2-30.6,17.2-60.9,27-91
		c-1.5,32.2-18.3,61.8-23.2,93.7c-0.3,1.9-0.5,4.1,0.8,5.5c0.8,0.9,2.1,1.3,3.3,1.6c10,2.7,20,5.4,30,8.1
		c-7.4-2.9-14.9-5.8-22.3-8.6c-2-0.8-4-1.6-5.3-3.2c-2.4-3-1.6-7.3-0.7-11c8-31.3,15.9-62.7,23.9-94c3.1-12.2,6.2-24.4,9.3-36.7
		c-3.3,9.9-6.6,19.8-9.9,29.7c-2.5,7.6-8.3,16.9-15.9,14.3c-9.1-3.2-19.9-1.2-27.3,5C205.5,241.8,199.2,247.4,194.7,243.5
		 M-58.3,255.6c-2.4,1.5-5,3.3-5.8,6c-0.7,2.2,0.1,4.6,0.8,6.8c20.6,64.3,46.4,127,76.9,187.2c0.7,1.3,1.5,2.8,2.9,3.2
		c1.1,0.4,2.3,0,3.4-0.3c37.7-11.2,75-24,111.7-38.3c5.6-2.2,12.5-6.9,10.3-12.6c-28.5-73.5-32.6-155.3-65.2-227.3
		c-1.3-2.9-5.7-1.8-8.5-0.2C25.4,204.1-16.8,229.3-58.3,255.6 M348.1,366.4c1.4,0.3,3,0.6,4.3-0.1c1-0.6,1.5-1.8,1.9-3
		c16.3-43.1,32.6-86.3,49-129.4c11.4-30.2,22.9-60.6,30.1-92.1c-45.4-11.9-90-27-133.4-45c-3.9-1.6-7.1,3.5-8.3,7.6
		c-9.8,34.2-19.6,68.5-29.3,102.7c-1.5,5.3-3,10.5-3.5,16c-0.3,3.7-1.3,7.3-2.3,10.8c-8.1,29.6-16.2,59.3-24.3,88.9
		c-0.3,1.2-0.7,2.5-0.2,3.7c0.6,1.4,2.1,2.1,3.5,2.7c23.4,10.1,47.4,18.9,71.9,26.1c0.3-3.7,2.6-7.2,5.9-9
		c-1.3,4.2,1.2,8.8,4.7,11.4s7.9,3.6,12.2,4.6C336.2,363.7,342.2,365.1,348.1,366.4 M84.3,174.2c22.8,58.5,36,120.1,49.1,181.5
		c0.9,4.1,5.1,6.8,9.2,7.3c4.2,0.5,8.3-0.8,12.3-2c9.3-2.8,18.5-5.7,27.8-8.5c5.3-1.6,11.8-5.2,10.7-10.6
		c-16-76.6-7.1-158.3-35.1-231.3c-0.5-1.3-1.1-2.7-2.3-3.3c-1.2-0.6-2.6-0.2-3.9,0.1c-56.8,16.3-112.6,36.3-167,59.6
		c4.7,12.3,9.3,24.6,14,36.9c0.3,0.9,0.7,1.9,1.5,2.5c1.5,1.1,3.6,0.1,5.2-0.8c22.5-13.2,44.9-26.3,67.4-39.5
		C77.8,163.4,82.4,169.3,84.3,174.2 M161.7,107.4c1.1-3.3,0.3-7.2-1.9-9.9c-14.1,4.7-28.2,9.3-42.4,14c-1.6,0.5-3.4,1.1-5.1,0.6
		c-3.6-1-4.5-5.6-4.8-9.4c-0.8-14.9-1.7-29.8-2.5-44.6c-0.3,17.5-0.6,35-0.9,52.5c0,1.9-0.4,4.3-2.2,4.9c-41,15-82,29.9-122.9,44.9
		c-0.8,0.3-1.7,0.7-2.2,1.4c-0.7,1.1-0.2,2.5,0.3,3.7c5.6,13.8,11.3,27.5,16.9,41.3c1,2.3,1.9,5,1,7.3c-0.8,1.9-2.6,3.2-4.4,4.3
		C-30.5,231.8-52,244.6-74,256.7c23.1,71.7,51.2,141.8,84.1,209.6c0.4,0.9,0.9,1.8,1.8,2.2c1.1,0.5,2.3,0,3.4-0.5
		c10.2-4.6,20.4-9.2,30.6-13.8c-8.4,2.8-16.9,5.5-25.3,8.3c-1.8,0.6-3.8,1.2-5.6,0.6c-2.6-0.8-4-3.4-5.1-5.9
		c-29.2-62.3-58.5-125-76.7-191.4c-0.6-2.3-1.2-4.8-0.3-7c0.8-2,2.7-3.3,4.6-4.5C-21.2,227.5,21,202.2,64,178.2
		c4.6-2.5,10.6-5,14.6-1.6c2.3-1.6,0.6-5.6-2.1-6.2s-5.4,0.8-7.7,2.2c-21.7,12.8-43.4,25.5-65,38.3c-3.3,2-6.7-2.4-8-6
		c-4.2-11-8.3-21.9-12.5-32.9c-0.8-2-1.5-4.3-0.7-6.3c0.8-1.9,3-2.9,4.9-3.7c52.3-22.1,105.9-41.2,160.4-57.2
		C152.7,103.4,159.5,102.7,161.7,107.4 M132,365.2c1.3,3.4,2.5,6.9,3.8,10.3c0.9-5.9,10.2-6.6,14.2-2.1s4,11.1,3.8,17.1
		c43.2-10.4,88-14.3,132.4-11.4c4.7,0.3,9.6,0.7,14.1-0.8s8.6-5.3,8.9-10c0.3-4.9,7.6-4.9,12.3-3.3c7.6,2.6,15.2,5.3,22.9,7.9
		c3.6,1.3,7.6,2.5,11.2,1.1s5.5-6.9,2.4-9.1c-2.2,5.9-10.6,5.4-16.7,3.9c-10.9-2.7-22-5.6-31-12.3c-3.7,0.8-7.4,1.7-11.1,2.5
		c5.7-2.1,9.3,7.8,5.1,12.1c-4.2,4.3-11.2,4.1-17.2,3.7c-36.8-2.1-73.6,3.8-110.1,9c-6.6,0.9-14,1.7-19.6-2s-6.6-13.9-0.3-16.4
		C148.9,367,140.3,367,132,365.2 M356.7,40.3c-19.2,0.1-38.4,0.2-57.7,0.3c-8.9,0-17.9,0.1-26.8,0.1c-12.4,0.1-24.8,0.1-37.2,0.2
		c-44.3,0.2-88.6,0.3-133,0.3c1.2,3.7,2.4,7.5,3.6,11.2c-1.5-4.9,5.6-7.5,10.8-7.6c28.6-0.5,57.2-0.9,85.8-1.4
		C248.1,42.7,294.1,42,340,44c6.2,0.3,14.2,2.2,14.8,8.4C357.9,49.4,358.8,44.2,356.7,40.3 M150.8,416.7c0-0.7-0.1-1.3-0.3-1.9
		c-0.7-2.1-2.2-4-4.1-5.2c0.6,4.2-2,8.7-6.1,10.1c2,0.6,4.1,1.3,6.2,1C148.7,420.3,150.7,418.8,150.8,416.7 M285,111.3
		c-3,7.8-5.2,16-6.6,24.2C282.5,128.1,284.8,119.7,285,111.3 M198.6,348.6c-1.5,1.1-3,2.3-4.5,3.4c-1.2,0.9-2.5,1.9-3.4,3.1
		c2.3,0.8,4.9,1,7-0.3C199.6,353.4,200.4,350.2,198.6,348.6 M430.1,173.6c1.3-4.5,2.6-9,3.9-13.5
		C430.8,163.8,429.3,168.8,430.1,173.6 M353.1,65.8c0.2-2.3,0.4-4.6,0.7-6.9c-1.4,1.7-2.3,3.7-2.6,5.9c-0.1,0.7-0.1,1.5,0.5,1.9
		c0.5,0.4,1.6-0.2,1.2-0.8 M351.3,79.9c1.2-1.3,1.3-3.4,0.3-4.8c-1.7,0.9-2.1,3.7-0.6,5 M421.8,194.4c1.6,0.9,3.3-2.2,1.7-3
		c-0.5,0.8-1,1.6-1.5,2.4 M421.8,200.3c1-0.2-0.3-1.9-1.1-1.3s-0.6,1.9-0.3,2.9c0.8,0,1.4-0.9,1.1-1.6 M94.6,213.3
		c-0.5,1.1,0.1,2.6,1.2,3c0.6-1,0-2.5-1.2-2.8 M272.6,348.9c0,0.7,1.3,0.7,1.3,0C273.9,348.1,272.6,348.2,272.6,348.9z"/>
</g>
</svg>
