<?xml version="1.0" encoding="utf-8"?>
<!-- Generator: Adobe Illustrator 19.1.0, SVG Export Plug-In . SVG Version: 6.00 Build 0)  -->
<svg version="1.1" id="Layer_1" xmlns="http://www.w3.org/2000/svg" xmlns:xlink="http://www.w3.org/1999/xlink" x="0px" y="0px"
	 viewBox="174 -123.6 1190.6 841.9" style="enable-background:new 174 -123.6 1190.6 841.9;" xml:space="preserve">
<style type="text/css">
	.st0{fill:#FFFFFF;}
</style>
<g>
	<path class="st0" d="M723.2,196.5l0.2-0.3"/>
	<path class="st0" d="M642.5,79.1c5.4-3.1,9.2-8.8,10-15c2.2,9.3-4.2,19.8-13.4,22.1c7.7-29,14.9-62-1.1-87.4c2.7,27.2-1.8,55-13,80
		c-0.9-19.1-6.2-37.9-15.5-54.6c4,13.9,4.1,28.8,0.2,42.8c2.2-26.6-5.9-53.9-22.1-75.1c11.9,22.5,6.8,49.7,2.5,74.8
		c-4.3,25.1-6.7,53.5,8.9,73.5c-5.2-5.8-15.4-6.2-21-0.7s-5.4,15.7,0.4,21c15.5-3.6,34.2-1.5,43.4,11.5c4.3,6.1,5.8,13.6,6.9,21
		c6.8,45.8,0.6,94,16.7,137.5c16.1,43.6,54,77.4,97.8,92.9c19,6.7,38.9,10.2,58.7,13.7c68.8,12.1,137.7,24.2,206.5,36.3
		c-2-0.9-1.5-4.3,0.5-5.3s4.4-0.4,6.3,0.7c5.1,2.7,8.7,8,9.4,13.7C938.8,466.7,853,450.8,767.2,435c-7.5-1.4-15.2-2.8-22.7-1.2
		s-14.7,6.8-16.2,14.3c15.2,2.9,29.7,9.6,41.7,19.3c-10,3.6-21,2-31.5,0.4c-10.5-1.7-21.4-3.5-31.5-0.5c-10.2,3-19.3,12.6-18,23.1
		c-6.4-2.6-9.3-11.5-5.6-17.3c-2.4,2.1-4.7,4.2-7.1,6.4c-3.5-8.7,0.8-19,7.8-25.3s16.2-9.5,25.1-12.5c-9.7-14.1-19.3-28.2-29-42.3
		c-15.9-23.2-32.1-46.8-40.5-73.7c-13.6-43-6.2-90.3-18.4-133.7c-2.5-8.8-6.1-17.8-13.4-23.3s-19.2-5.7-24.5,1.8
		c-10.3,0.9-14.9-13.4-12-23.3c3-9.9,9.9-18.9,9.2-29.2c-2-29.2,11.1-57.5,11.1-86.7c0-22-7.6-44-21.3-61.2
		c29.8,22.1,50.7,56,57,92.6c11.6-28.4,7.1-60.5,2.3-90.9C653.5,1.2,658.7,44.7,642.5,79.1 M687.8,459.7c5.3-0.8,10.2-3.9,13.3-8.3
		C695.6,451.7,690.4,454.9,687.8,459.7 M731.3,432c-7.9,1.4-13.7,9.8-12.4,17.7c-8.9,1.1-17.3,6.3-22.2,13.8
		c12-7.1,27.4-8.1,40.2-2.6c4.1,1.8,9,1.7,13-0.1c-7.5-2.5-14.9-5.1-22.4-7.6c-1.4-0.5-2.9-1-3.8-2.1c-2-2.5-0.4-6.1,1.3-8.8
		C727.2,438.9,729.3,435.4,731.3,432 M715.7,438.1c5.7-4.8,11.3-9.5,17-14.3c-16.6-7.4-32.3-17-46.5-28.5c-1.3,0.4-0.8,2.3-0.1,3.3
		c8.4,12.9,16.9,25.7,25.3,38.6c0.5,0.8,1.2,1.7,2.2,1.8C714.5,439.1,715.2,438.6,715.7,438.1 M636.1-10.8c-0.6,2.9,0.1,7.2,3,6.8
		c0.9-2.6-0.5-5.9-3.1-7 M584.9-15c0.4-1-1.6-1.2-1.9-0.1c-0.2,1,0.7,1.9,1.5,2.5c0.5-0.7,0.7-1.5,0.6-2.4H584.9z"/>
	<path class="st0" d="M717.3,188.1l0.2-0.3"/>
	<path class="st0" d="M983.5,457.5c-20.7-12.2-41.5-24.4-62.2-36.6c-2.6-1.5-5.6-4.5-4-7c2.1-3.3-1.3-7.3-4.4-9.8
		c-44.4-36.1-94-90.6-123.1-139.9c5.6,7.4,22.9,25.3,28.5,32.7c30.8,40.4,62.4,81.7,104.6,110c1.9,1.3,4,2.8,4.7,5
		c0.6,2.2-1.4,5.2-3.6,4.4c27.4,16.2,64.8,37.1,92.2,53.2C1008.2,470.5,990.5,461.6,983.5,457.5z"/>
	<path class="st0" d="M675.8,76.4l0.4-0.1"/>
	<path class="st0" d="M710.9,63.5c-11.2,11.3-22.9,22.8-37.7,28.6c8.4-7.1,16.7-14.1,25.1-21.2c10.7-9,21.7-18.5,27.2-31.4
		c-16.7,12.1-33.2,24.3-49.7,36.7c13.4-15.9,27-34,27-54.8c-8.6,11.9-17.1,23.8-25.7,35.7c-6.9,9.7-18.3,19.2-29.3,23.6
		c3.9-3.3,11.6-6.1,15.1-9.8c4.2-4.5,7.7-9.7,11.2-14.8c10.7-15.6,21.4-31.2,32.1-46.8c1.1,16.4-2.2,33.2-9.6,47.9
		c13.1-8.3,24.6-18.8,36.1-29.2c-0.8,6.4-3.3,12.6-6.8,18.1C721.8,52.6,716.3,58.1,710.9,63.5z"/>
	<path class="st0" d="M731.8,210.3c-3.9-4-12.4-14.4-12.7-19.9c21.8,23.2,52.2,56.2,74.9,78.4c-1.2,1.4-7.1-4.3-8.4-5.6
		C767.3,246,749.4,228.3,731.8,210.3z"/>
	<path class="st0" d="M696.2,149.4c-3.2-6.6-6.4-13.1-9.6-19.7c-1.6-3.2-3.2-6.5-5.7-9s-6.2-4.2-9.6-3.4c-0.1-0.9-0.2-1.8-0.4-2.6
		c16.5-1.6,32.5-7.8,45.8-17.6c-3-1.4-6.3,0.5-9.2,2.1c-7.9,4.4-17,6.7-26.1,6.6c-0.3-1.5,1.6-2.4,3.1-2.8
		c14.4-3.3,28.3-8.6,41.4-15.5c-14.5,0-28.2,9-42.6,7.4c-1-0.1-8.2-3.4-7.6-4.2c0.2-0.2,6.4,2.1,6.7,2c13.5-3.2,27.1-6.4,40.6-9.6
		c1.7-0.4,3.4-0.8,5.1-0.4c1.7,0.4,3.2,1.9,3,3.6c-0.2,1.2-1.1,2.2-2,3c-11.3,10.5-23.5,21.4-38.7,23.8c-1.8,0.3-3.7,0.5-5.2,1.5
		s-2.4,3.2-1.4,4.7c5.4,8.1,10,16.8,13.7,25.8C698.1,146.8,698,149.6,696.2,149.4z"/>
	<path class="st0" d="M695.4,144.5c4.4,7.4,15.5,30.3,18.3,38.5C707.9,176.3,696.7,153.1,695.4,144.5z"/>
	<path class="st0" d="M616,111.2c-1.7,2.8,1,7,4.3,6.6c1.1,4-2.6,8.5-6.7,8.4c-4.2-0.1-7.6-4.5-6.9-8.7
		C607.4,113.5,611.9,110.5,616,111.2z"/>
	<path class="st0" d="M713.6,182.6c2,1,3.4,3,3.8,5.2C715.1,187.2,713.4,184.9,713.6,182.6L713.6,182.6z"/>
	<path class="st0" d="M718.1,188.9c2.4,1.2,4.2,3.6,4.6,6.3c-2.7-0.8-11.5-14-11.6-16.8L718.1,188.9z"/>
</g>
</svg>
