<?xml version="1.0" encoding="utf-8"?>
<!-- Generator: Adobe Illustrator 19.1.0, SVG Export Plug-In . SVG Version: 6.00 Build 0)  -->
<svg version="1.1" id="Layer_1" xmlns="http://www.w3.org/2000/svg" xmlns:xlink="http://www.w3.org/1999/xlink" x="0px" y="0px"
	 viewBox="-122 -123.6 595.3 841.9" style="enable-background:new -122 -123.6 595.3 841.9;" xml:space="preserve">
<style type="text/css">
	.st0{fill:#FFFFFF;}
</style>
<g>
	<path class="st0" d="M354.8,433.1c-1,0.9-2,1.9-3,2.8c-4.9,4.5-9.9,9-14.8,13.4c-1,0.9-2,1.7-3.1,2.4c-3,1.9-5.4,1.5-7.6-1.3
		c-2.4-3-4.7-6.1-7-9.1c-45.7-59.1-95.6-114.5-149.5-166.2c-4.2-4-8.3-7.9-12.5-11.9c-0.4-0.3-0.7-0.7-1.1-1
		c-1.9-1.4-3.4-1.4-5.2,0.1c-0.6,0.5-1.2,1.1-1.7,1.7c-40,42.9-76.4,88.8-109.1,137.6c-0.8,1.1-1.5,2.3-2.4,3.3
		c-1.9,2.3-4.4,3-7.2,2c-1.6-0.6-3.1-1.3-4.5-2.2c-6.7-4.6-13.3-9.3-19.9-14.1c-1-0.7-1.7-1.9-2.6-2.9c0-0.5,0-1,0-1.5
		c0.1-0.1,0.2-0.2,0.3-0.3c0.9-2.3,2.4-4.2,3.8-6.1c28.8-38.8,59.1-76.5,91.1-112.8c8.2-9.3,16.5-18.6,24.9-27.7
		c2.3-2.5,2.6-5.1,1.3-8.1c-1.3-3-3.5-5.4-5.9-7.6c-7.8-6.9-15.7-13.8-23.5-20.7C76.3,186,57.1,169.2,38,152.3
		c-1.7-1.5-3.3-3.3-4.8-5.1c-1.3-1.6-2.1-3.5-2.4-5.6c0-0.4,0-0.8,0-1.5c0.6,0.6,1,0.9,1.4,1.3c10.1,9.6,20.2,19.4,30.4,28.9
		c18,16.6,36.6,32.5,55.6,47.9c2.2,1.8,4.3,3.8,6.3,5.9c2.2,2.3,3.6,5.1,4,8.3c0.4,3.3-0.3,6.3-2.6,8.8
		c-12.9,14-25.5,28.1-37.9,42.5c-27.5,32-53.9,64.9-79,98.9c-0.6,0.8-1.1,1.6-1.5,2.4c-0.5,1.1-0.3,2.2,0.5,3.1
		c0.5,0.6,1.2,1.1,1.8,1.6c5.6,4.1,11.1,8.2,16.8,12.2c1.3,0.9,2.7,1.6,4.1,2.2c0.8,0.3,1.6,0.5,2.5,0.6c2,0.2,3.4-0.5,4.3-2.3
		c2.1-4,4.2-8,6.5-12c7.5-13,16.2-25.3,25.4-37.2c10.3-13.3,21.2-26.2,32.1-39.1c14.4-17.1,28.8-34.2,43.2-51.3
		c0.9-1,1.8-2.1,2.8-2.9c0.9-0.8,1.9-1.5,3-2c1.7-0.8,3.6-0.7,5.2,0.3c1,0.6,1.9,1.4,2.7,2.2c38.4,36,74.8,73.9,109.2,113.7
		c21.4,24.7,42,50.2,61.7,76.3c0.3,0.4,0.7,0.9,1,1.3c1-0.5,19.5-18.3,20.5-19.7c-0.2-0.2-0.3-0.5-0.5-0.7
		c-14.6-18.1-29.5-36-45.2-53.2c-20.3-22.2-42.2-42.6-65.7-61.3c-11.9-9.4-23.7-19-35.4-28.7c-12.2-10.1-23.7-20.9-34.2-32.8
		c-1.6-1.8-3.2-3.6-4.7-5.5c-3.3-4.2-3.3-7.3,0.1-11.4c3.3-4,6.8-7.9,10.2-11.8c36.9-42.2,73.7-84.4,110.6-126.5
		c2.8-3.2,5.5-6.3,8.3-9.5c3-3.3,4.1-7.2,2.9-11.5c-2-7.8-6.9-13-14.8-15c-4.6-1.2-8.5,0.2-11.3,4.1c-0.5,0.7-1,1.4-1.4,2.1
		c-6.4,10.5-13.8,20.3-21.8,29.6c-14.5,16.8-29.1,33.5-43.7,50.3c-19.7,22.6-39.4,45.2-59.1,67.8c-1,1.1-2,2.3-3.2,3.2
		c-2.6,2.1-5,2.1-7.8,0.2c-0.9-0.6-1.7-1.3-2.5-2c-26.5-23.3-53-46.6-79.5-69.9c-2.4-2.1-4.8-4.2-7.2-6.3c-1.8-1.6-3.8-3.1-6-4
		c-1.2-0.5-2.6-0.9-3.9-1.1c-1.5-0.3-2.9,0.2-4.2,0.9c0.4-3,3.9-5.9,6.7-5.7c1.2,0.1,2.1,0.7,2.9,1.4c2.5,2.3,5,4.7,7.5,7
		c28.4,26.2,57.6,51.4,87.7,75.6c2.7,2.2,3.4,2.1,5.8-0.5c22.1-24.9,44.2-49.7,66.3-74.6c10.1-11.4,20.2-22.8,30.2-34.3
		c9.2-10.6,18-21.7,25.6-33.5c1.7-2.7,3.4-5.4,5-8.1c2.5-4.5,6.6-6,11.4-5.9c3,0.1,5.7,1.1,8.2,2.8c2.1,1.4,4.1,3,5.6,5
		c2.3,2.8,4.5,5.7,6.6,8.6c0.5,0.7,0.9,1.5,1.2,2.3c1,2.3,0.9,4.5-0.4,6.6c-0.7,1.1-1.5,2.1-2.3,3c-20.4,23.6-40.9,47.1-61.3,70.7
		c-23.3,26.9-46.6,53.7-69.9,80.6c-0.6,0.6-1.1,1.3-1.5,2.1c-0.7,1.1-0.7,2.3,0,3.4c0.4,0.6,0.9,1.3,1.3,1.8
		c8.8,10.9,18.5,20.8,28.8,30.2c11.8,10.7,24.3,20.7,36.7,30.7c11.8,9.4,23.6,18.9,34.8,28.9c14,12.5,27.1,25.8,39.7,39.7
		c16,17.7,31.1,36.1,45.9,54.8c0.3,0.4,0.6,0.7,0.8,1.1C354.8,432.9,354.8,433,354.8,433.1z"/>
</g>
</svg>
