<?xml version="1.0" encoding="utf-8"?>
<!-- Generator: Adobe Illustrator 19.1.0, SVG Export Plug-In . SVG Version: 6.00 Build 0)  -->
<svg version="1.1" id="Layer_1" xmlns="http://www.w3.org/2000/svg" xmlns:xlink="http://www.w3.org/1999/xlink" x="0px" y="0px"
	 viewBox="54 -102.7 950 800" style="enable-background:new 54 -102.7 950 800;" xml:space="preserve">
<style type="text/css">
	.st0{fill:#FFFFFF;}
</style>
<g>
	<path class="st0" d="M744.2,91.2l0.7,0.6"/>
	<path class="st0" d="M766.8,207.8c14.3,0.9,26.7-9.9,35.2-21.4c13.6-18.5,23.4-47.3,24.8-70.3c0.1,27.5-13,59.8-24.3,84.9
		c-12.9,28.7-25.7,57.4-38.6,86.1c-13.3,29.6-28.5,61.3-57.1,76.6c-10.4,5.5-14.1,18.3-16.9,29.8c-10,42.1-20.1,85.6-12.7,128.3
		c1.1,6.2,8,9.5,14.2,10.5s13,0.9,18.1,4.5s6.6,13,0.8,15.5c1.4,5.1,2.8,10.2,4.2,15.4c-12.1,3-24.6,4.2-37.1,3.6
		c-8-0.4-18.4-4.3-17.6-12.3c3-30.1-29.5-57.8-20.1-86.5c7-21.2,8.1-44.3,3.1-66.1c-1.9-8.5-7.3-18.7-16.1-17.7
		c-26.9,2.9-53.7-5.9-78.1-17.6c-24.4-11.7-47.4-26.3-72.6-36.3c-5.8-2.3-12.1-4.4-18.3-3.4s-12.2,6.1-12,12.4
		c1.1,43-8.5,86.2-27.6,124.6c-9.5,19-5.3,41.7-1,62.5c3.3,15.6,8.8,33.9,24,38.8c11.1,3.6,19.1,15,18.7,26.6
		c-11,0.3-22,0.6-33.1,0.9c-4.2,0.1-8.7,0.1-12-2.5c-7.2-5.7-3-18.9-9.8-25c3.4,4.8,0.1,12-5.1,14.8s-11.5,2.4-17.4,1.9
		c-8.1-0.7-17-1.7-22.7-7.5c-2.8-2.9-4.5-6.6-6.1-10.2c-11.4-25.4-22.9-50.8-34.3-76.1c-6.9,5.8-13.7,11.6-20.6,17.4
		c-11-8.9-5.9-26.1-2.3-39.8c14.4-55.4-14-118.7,12.2-169.6c-9.7,46.2-9.6,94.4,0.4,140.5c-3.9,12.9-7.8,25.9-11.7,38.8
		c-2.2,7.4-2.7,18.1,4.8,19.9c17.2-13.8,30-32.9,36.2-54.1c9.6-32.5,3.6-67.3-2.8-100.6c-3-15.8-5-34.8,7.1-45.2
		c-1.4,4.1-2.8,8.3-4.1,12.4c18.1,15.6,24.2,40.7,29.3,64c3.2,14.5,6.4,29.1,9.5,43.6c3.6,16.5,7.2,33.7,2.9,50
		c-1.1,4.3-2.8,8.6-2.7,13.1c0.1,4.1,1.7,8,3.2,11.8c12.5,30.4,25.1,60.8,37.6,91.2c0.9,2.2,1.9,4.4,3.8,5.8
		c1.9,1.3,4.4,1.4,6.7,1.4c6.9,0.1,13.9,0.2,20.8,0.4c2.5,0,5.6-0.3,6.5-2.6c0.5-1.3,0-2.8-0.6-4.1c-5-11.2-18.3-18-30.3-15.6
		c-3.5-14.5-7.1-28.9-10.6-43.4c-3.3-13.4-6.5-27-5.8-40.8c1.1-19.8,10.5-38,17.3-56.6c17.2-47.2,17.8-100.2,1.9-147.8
		c9,14.8,14.9,31.5,17.5,48.6c25.1-10.2,51.8,7.4,75,21.4c33.5,20.2,72.3,34.5,111.2,30.7c-4.6-12.4-1.9-26.1,0.8-39
		c2.2-10.3,4.4-20.7,6.6-31c8.5,20.4-13.4,45.1-3.1,64.7c14.7,27.9,18.4,61.4,10.2,91.8c-1.3,4.7-2.8,9.4-2.9,14.3
		c-0.1,5.6,1.9,11.1,3.8,16.4c7.2,20.1,14.4,40.1,21.6,60.2c0.8,2.2,1.7,4.5,3.6,5.8c1.9,1.3,4.4,1.2,6.7,1.1
		c10.1-0.5,20.1-1.1,30.2-1.6c1.8-9.6-9.3-19.1-18.5-15.7c-5,1.8-10.7-1.1-13.6-5.5c-3-4.4-3.9-9.8-4.5-15
		c-5.7-44.5-1.7-90.2,11.7-133c4.5-14.6,10.1-28.8,13.4-43.7c7.3-32.9,3-67.2-1.9-100.6c11.2,34.8,12.8,72.6,4.4,108.2
		c13.3-5.3,24.3-16.1,29.9-29.4c0.9,2.5,1.7,5.1,2.6,7.6c5.6-5.4,8.9-12.6,12-19.7c18.5-41.3,37-82.6,55.5-123.9
		c-7.5,1.3-10.9,10.1-17,14.8c-6.9,5.3-17,4.7-24.8,0.8c-7.8-3.9-13.8-10.6-19.6-17.1C747.3,200.4,756.3,207.2,766.8,207.8
		 M346.3,330.1c-2.2-5-5-10.4-10.2-12.1c-0.2,19.2,4.7,38.4,14.1,55.1c-2.3,0-4.6-0.1-6.8-0.1c4.1,18,8.2,36.6,5.5,54.8
		c-1.2,8.3-3.8,16.3-7,24c-5.4,13.1-12.3,25.6-20.7,37c13.7,27,26.5,54.6,38.3,82.5c2.8,6.6,10,10.3,17.1,11
		c7.1,0.6,14.2-1.3,21-3.2c1.5-5.5-0.5-11.9-5-15.5s-11.1-4.3-16.2-1.6c-3.4,1.8-6.7-2.4-8.3-5.9c-6.8-14.8-13.6-29.7-17-45.7
		c-3.4-15.9-3.1-33.1,3.9-47.8c3.7-7.8,9.2-14.6,12.9-22.4s5.1-17.4,0.7-24.8c1.3-1.3,2.5-2.6,3.8-3.8c-4.8-7-9.8-15-8.4-23.4
		c1.3-7.7-1.6-15.9-7.4-21.1c4-1.3,3.1-7.3,1.3-11.1C354.1,347.3,350.2,338.7,346.3,330.1 M370.5,551c1.5,3.5,4.8,7.7,8.2,5.9
		c7.4-4,17.7-1.4,22.4,5.6c1.1,1.7,3.6,3.8,4.7,2.1c-9.9-22.3-19.7-44.6-29.6-67c-1.9-4.4-3.9-8.9-3.9-13.7c0-4.6,1.9-9,3.3-13.4
		c3.6-11.7,3.9-24.3,0.7-36.1c-5.8,11.2-11.7,22.4-17.5,33.7c-2.5,4.8-5,9.7-6,15.1c-1.3,7,0.2,14.2,2,21
		C358.7,520.1,364,535.8,370.5,551 M705.9,539.5c-5.4-4.2-12.8-4.7-19.7-4.1c-1.4,0.1-2.8,0.3-3.8,1.2c-2.2,1.8-1.4,5.6,0.9,7.3
		c2.2,1.7,5.3,1.8,8.1,1.7s5.7-0.5,8.3,0.5s5.4,3.2,7.8,1.7C710.3,546,708.5,541.5,705.9,539.5z"/>
	<path class="st0" d="M581.1,214.1c-1.2,0.1-2.3,0.3-3.5,0.4l0.1-0.2"/>
	<path class="st0" d="M530.9,219.4c15-1.8,30.1-3.6,45.1-5.5c-26.1,5.7-52.4,11.4-79.1,11.6c-37.7,0.3-77.6-10-111.8,5.9
		c-16.5,7.7-29.7,20.7-42.6,33.5c-11.9,11.8-23.1,26.6-35,38.4c7.5-18.2,25.7-34.9,40.9-49c9.2-8.5,18.5-17,29.5-23
		c17.9-9.7,38.9-11.9,59.2-11.5s40.6,3.1,60.9,2.5C509,222,519.9,220.7,530.9,219.4z"/>
	<path class="st0" d="M798.6,93.9c-2.4-2.6-2.4-7.1,0-9.7c0.5,2.8,0.7,5.7,0.4,8.6L798.6,93.9z"/>
	<path class="st0" d="M599.9,226.4c3.6-5,7.4-10,11.4-14.7c-8.2,0.1-36.9,3.7-45.2,3.8c12.3-1.7,45.4-7.1,56.3-13
		c9.5-5.2,20.4-6.9,30.7-10.1c18.4-5.7,35.2-16.4,48.1-30.6c5.9-6.5,4.5-16.5,5.4-25.2c5,1.8,2.5,9.2,2.4,14.5
		c-0.2,10.6,13,19.1,10.1,29.3c-3.1-7.7-7.8-14.8-13.5-20.7c-11.6,16.7-29,29.3-48.5,35.1c-12.4,3.7-26.3,5.1-36.2,13.6
		C613.7,214.3,608.9,223.9,599.9,226.4z"/>
	<path class="st0" d="M716.4,85.3c2.3,5.4,1.6,11.9-1.8,16.7c0-5.4-0.1-10.9-0.1-16.3C715.2,85.6,715.8,85.5,716.4,85.3z"/>
	<path class="st0" d="M829.3,75.5c-5-12.1-2.8-30.6-22-40.2c0.5-1.3,11.2,3.4,12,4.5c7.4,9.2,7.2,22.2,11.3,33.2
		c3.5,9.4,10.2,18.6,8.3,28.5c-1.4,7-6.9,12.3-12.3,16.8c-1.2-1.2,0.3-3.1,1.6-4.2c6.5-5.5,9.6-14.8,7.7-23.1
		C834.6,85.5,831.4,80.7,829.3,75.5z"/>
	<path class="st0" d="M801.5,63.8c0.6,5.7-0.4,11.5-2.6,16.7C797.6,74.9,798.5,68.8,801.5,63.8z"/>
	<path class="st0" d="M743.6,91.7c-10.4-9.4-16-22.8-22.9-35c-1.9-3.3-7.8-9.3-10.6-11.8c2.1-0.5,7.7,4.4,8.8,6.2
		C727.1,64.6,735.3,78.2,743.6,91.7z"/>
	<path class="st0" d="M816.7,113.8c-3.9-2.8-6.8-6.9-8.2-11.5C812.9,104.4,816,108.9,816.7,113.8z"/>
	<path class="st0" d="M695.7,91.8c0.6-6.4-0.9-12.9-0.6-19.4c0.3-7.4,2.9-14.6,5.5-21.6c0.8-2.1,1.6-4.3,3.4-5.8
		c1.7-1.5,4.6-1.8,6.1-0.1c-8.8,8.3-13.4,20.7-12.3,32.8c1.1,11.9-0.1,24-3.6,35.4C691.7,106.3,695,98.9,695.7,91.8z"/>
	<path class="st0" d="M755.2,92.4c-1.2,0.1-5.3-0.5-6.4-0.8c-1-0.3-7.2-0.6-6.4-1.3c7.8-1.8,28.6-0.4,36.6,0
		C772.9,92.7,761.8,91.8,755.2,92.4z"/>
	<path class="st0" d="M760.6,180.4c5.7-0.8,11.7-0.3,17.2,1.4c1.7,0.5,3.4,1.2,4.6,2.5c3.1,3.5,0.5,9.2-3.2,12.1
		c-5.1,4.1-13.2,5.5-18.2,1.3c-3.3-2.8-4.7-7.4-4.5-11.7s1.6-8.5,3-12.6c1.3-3.8,2.7-7.6,4-11.4
		C764.3,168.3,763.3,174.7,760.6,180.4 M767.6,187.1c-0.8-1.6-2.9-2.3-4.5-1.6c-1.6,0.7-2.6,2.7-2,4.4c1.5,0.5,3.1,0.9,4.7,0.5
		s2.9-2,2.3-3.5L767.6,187.1z"/>
	<path class="st0" d="M694,111.6c4.1,3.1,9.2,14.5,12.4,18.6c0.8,1,0.8,6.1,0.4,7.3C704.7,130.6,696.6,117.5,694,111.6z"/>
	<path class="st0" d="M716.2,63.7c1.1-1.2,3,0.2,3.9,1.6c6.2,9.8,9.7,21.2,10.3,32.8c0.1,2.7,0,5.6-1.7,7.7
		c-4.6,5.6-8.6,11.7-11.9,18.1c-2.1-6.6,4.8-12.4,8-18.6c4.5-8.7,1.4-19.2-1.7-28.5C721.4,72.1,719.7,67.2,716.2,63.7z"/>
	<path class="st0" d="M708.1,71.8c-1.4-0.6-3.1-0.7-4.6-0.5c-0.8-2-0.3-4.4,1.2-5.9c3.2-0.6,5.5,2.9,6.5,6c1.2,3.5,1.9,7.2,2.2,10.9
		c-1.8-0.8-3.6-1.7-5.4-2.5C708.1,77.2,708.1,74.5,708.1,71.8z"/>
	<path class="st0" d="M808.9,35.3c-4.6,12.8-10.7,24.9-15.3,37.7c-0.4,1.2-1.9,6.8-3.1,6.6C792.7,65,800.5,47.4,808.9,35.3z"/>
	<path class="st0" d="M783.4,147.1c0-5.3,4.4-10.3,9.7-10.8c-1,1.8,0.2,4.5,2.3,4.8s4.1-1.8,3.7-3.8c1.2-0.6,2.6,0.4,3,1.6
		c0.4,1.2-0.1,2.6-0.8,3.7C797.8,148,789.9,147.9,783.4,147.1z"/>
	<path class="st0" d="M816.5,63.3c-0.7-1.5-2.8-2.1-4.2-1.2c-1.4,0.8-1.8,2.9-0.9,4.2c2.3,3.3-6.3,7.5-3.5,10.4
		c2.9,3,2,7.8,0.8,11.8c-0.4,1.4-0.9,2.9-2,3.8c-1.1,0.9-3.2,0.9-3.8-0.5c1.9-0.6,2.7-2.9,2.5-4.8s-1.1-3.7-1.6-5.6
		c-0.8-3.1-0.5-6.3,0.2-9.4c1.6-7.3,5-14.2,9.9-19.9C816,55.5,816.8,59.4,816.5,63.3z"/>
	<path class="st0" d="M751.7,146.3c-4.4,4.1-12.3,3.5-16.1-1.1c-1.1-1.3-1.9-3-1.4-4.6c0.9-3.2,5.2-3.5,8.5-3c0.3,2,0.5,4,0.8,6
		c2-1.1,4-2.1,6-3.2C751.1,141.8,751.9,144.1,751.7,146.3z"/>
	<path class="st0" d="M791.7,77.4c-0.2,4.8-0.8,10.3-4.8,12.9c-3.4,2.2-7.9,1.4-11.8,0.5c1.8-2.5,5.9-0.6,8.8-1.6
		C788.6,87.7,787.9,80.4,791.7,77.4z"/>
</g>
</svg>
