<?xml version="1.0" encoding="utf-8"?>
<!-- Generator: Adobe Illustrator 19.1.0, SVG Export Plug-In . SVG Version: 6.00 Build 0)  -->
<svg version="1.1" id="Layer_1" xmlns="http://www.w3.org/2000/svg" xmlns:xlink="http://www.w3.org/1999/xlink" x="0px" y="0px"
	 viewBox="174 -123.6 1190.6 841.9" style="enable-background:new 174 -123.6 1190.6 841.9;" xml:space="preserve">
<style type="text/css">
	.st0{fill:#FFFFFF;}
</style>
<g>
	<path class="st0" d="M533.5,149l0.7,0.6"/>
	<path class="st0" d="M482.8,178.3c7.1,4.5,15.2,7.3,23.5,8.1c-5.7-11.7-10.1-23.9-13.1-36.6c10.3,4.2,20.7,8.3,31,12.5
		c-1.6-7.6-5.9-14.7-12.1-19.4c17.7-12.1,37-21.9,57.3-29.1c-9.1-5-17.2-11.8-23.8-19.9c14.7,0,29.3-1.7,43.6-5
		c0.9-4.6-0.4-9.6-3.5-13.2c24.8-4.6,49.6-9.1,74.5-13.7c-5.9-0.2-11.5-4.6-13.1-10.3c35.9-9.4,75.2-5.5,108.6,10.9
		c-4.2-9-10.9-16.7-19.1-22.3c3.9,0.9,7.8,1.8,11.7,2.7c38.8,9.3,76.4,23.5,111.6,42.3c0.1-5.4,0.1-10.8,0.2-16.1
		c21.7,16.5,41.9,34.9,60.3,55c1.4-6.1,1.9-12.4,1.5-18.7c10.8,18.6,21.6,37.2,32.4,55.9c0.7,1.2,2.6,2.5,3.3,1.2
		c1.3-2.6,5.5-2.4,7.5-0.2c2,2.2,2.4,5.4,2.6,8.3c3.2,34.7,6.5,69.3,9.7,104c1.5,16,3.1,32.3,9.6,46.9
		c11.3,25.2,35.3,41.9,54.7,61.6c6.3,6.4,12.4,14.1,12.1,23c-0.4,8.9-11.4,17-18.4,11.5c-28.4-22.1-56.7-44.3-85.1-66.4
		c-11.3-8.8-23.2-17.9-37.3-20.4s-30.9,4.1-34.9,17.9c-5.3,18.5-13.3,36.3-23.6,52.6c16,2.7,30.9,11.8,40.7,24.7
		c-8.3,3.4-18.4,1.9-25.4-3.7c1.1,5.5,2.1,10.9,3.2,16.4c-32.7-9.1-66.5-14.6-100.4-16.2c5.6,6.5,9.2,14.6,10.4,23
		c-7.8-3-15.6-6-23.4-9c1,6.7,0,13.7-2.6,20c-8.2-15.3-25.8-23-42.7-26.9s-34.7-5.1-50.4-12.5c0,3.9-2.2,7.8-5.5,9.8
		c-8.2-14.6-30.1-11.2-45-18.8c-24.9-12.7-24.3-52.3-48.4-66.4c-16.9-9.9-31.6-23.6-42.7-39.7c5.8,5.1,13,8.6,20.5,10.1
		c-13.5-15.7-28.1-30.5-43.6-44.2c2.7-2,5.3-3.9,8-5.9c-10.7-15.1-20.1-31.2-28.2-47.9c7.6,2.6,14.8,6,21.6,10.2
		C494.6,209.2,488.7,193.7,482.8,178.3 M774.2,70.1c-4,1.2-8.2-0.4-12.1-1.9c-29.1-11.3-60.8-15.6-91.9-12.3
		c4.2,2.8,8.4,5.5,12.6,8.3c-12.3,8.2-28.3,7.2-43.1,7c-14.8-0.2-31.4,1.7-40.7,13.2c2.9,1.5,5.7,3,8.6,4.5c-16.3,4-32.6,8-48.9,12
		c8.4,2.6,15.9,7.7,21.5,14.4c-18.5,7.2-36.4,16-53.4,26.3c1.7,2.4,3.4,4.8,5.1,7.1c-2.2,7.9-4.3,15.8-6.5,23.7
		c-3.6-4.6-10.3-6.5-15.8-4.5c6.7,3.4,10,12.7,6.2,19.1c-3.8,6.5-14.5,7.7-19.1,1.8c3.8,13.8,8.4,27.3,13.9,40.5
		c2.8,2.5,5.6,5,8.3,7.6c-8.6-0.7-17-3.3-24.5-7.6c7.6,13.6,15.3,27.2,22.9,40.9c0.9,1.6,1.9,3.3,3.6,4c11.1,4.4,22.1,8.8,33.2,13.2
		c-9-1.4-18-2.7-27-4.1c14.3,12.5,28.6,24.9,42.9,37.4c-6.2-4.2-12.5-8.3-18.7-12.5c2.2,6.6,6.3,12.5,11.5,17
		c-4.6,0.7-9.4,0.2-13.8-1.5c9.6,11.9,23.3,20.5,38.2,23.9c9.7,2.2,20.6,2.7,27.8,9.6c10.8,10.3,8,30.3,19.9,39.2
		c5.9,4.4,14.7,4.6,20.5,0c5.8-4.6,7.4-13.7,3.2-19.8c-1.7-2.5,0.9-5.7,3.4-7.5c11.4-8.4,23.7-15.5,36.7-21
		c-1.8-0.7-3.7-1.5-5.5-2.2c5-1.5,10.8-0.6,15.1,2.5c-3,0-2.9,5.2-0.2,6.4s5.8-0.2,8.5-1.6c17.2-9,34.5-18,51.7-27.1
		c0,4.7-1.7,9.3-4.6,12.9c16.1-3.6,31.6-9.9,45.7-18.6c-3.5-3.2-7-6.3-10.5-9.5c9.9-2.1,19.3,4,28.6,7.9
		c32.7,13.8,71.2,1.6,105.3,11.4c-0.7-10.5,10.3-17.5,19.9-21.8s20.8-10.2,21.6-20.6c2-26.8-2.6-54.1-13.4-78.8
		c0.7,2.6,4.4-0.8,4.4-3.5c0.1-10.1-0.9-20.3-3.1-30.1c-2.6,3.7-8.1-0.6-10.2-4.5c-6-11.3-11.5-22.9-16.5-34.7
		c-6.2,1.9-12.2-3-16.9-7.5c-15.8-15.2-31.5-30.5-47.3-45.7c0,4.5-0.1,9.3-2.7,13c-2.6,3.7-8.7,5.2-11.6,1.7
		c-20.2-24.4-52-38.8-83.7-37.9c2,1.9,4,3.7,6,5.6c-3.6-1.8-7.2-3.7-10.8-5.5C768.8,64.1,771,67.8,774.2,70.1 M1039.3,410.8
		c0.5,3.3,5.5,4.2,8,1.9s2.7-6.2,1.9-9.5c-2.1-9.5-10.1-16.4-17.5-22.6c-23.3-19.5-46.6-41.2-56.9-69.8c-0.8-2.3-3.9-3.1-6.2-2.4
		c-2.4,0.6-4.3,2.3-6.4,3.5c-5,3-11.1,3.8-16.3,6.4s-9.9,8.2-8.3,13.8c0.8,2.8,3.1,5,5.3,7c27.8,25,57.4,48,88.4,68.8
		c-0.3-1.7-0.6-3.4-0.9-5.1C1035.1,400.3,1041.3,406,1039.3,410.8 M751.1,356.3c-2.3,1.5-3.9,3.8-5.3,6.2c-6.5,10.7-11,22.7-13,35.1
		c-0.2,1.4-0.4,2.9,0.3,4.1c0.6,1.2,1.9,1.8,3.1,2.4c10.5,5,20.9,9.9,31.4,14.9c0.8,0.4,1.6,0.7,2.4,0.6c1.6-0.3,2.2-2.4,1.8-4
		s-1.3-3-1.5-4.7c-0.2-1.8,0.6-3.5,1.3-5.1c8-16.8,19.5-32.3,23.3-50.5c0.6-2.9,0.4-6.8-2.5-7.5c-0.8-0.2-1.7-0.1-2.5,0.1
		c-10.8,1.9-21.6,4-32.4,6.4C755.2,354.6,753,355.1,751.1,356.3 M845.5,398.6c1.7,1.3,4-0.4,5.3-2.1c9.6-12.1,13.9-27.3,18.1-42.1
		c0.8-2.9,1.6-5.8,2.4-8.7c-9.7,5.8-14.8,16.9-19.3,27.3c-3,7-6.1,13.9-9.1,20.9C844.4,395,845.5,396.7,845.5,398.6 M675.5,385.7
		c0.2-5.3,2.3-11.5-1.3-15.4c-0.6-0.6-1.3-1.1-2.1-1.3c-1.6-0.3-3.1,0.9-4.3,2c-2.9,2.7-6,7.2-3.4,10.1c3.1,3.5,3.4,8.7,2.8,13.3
		s-1.7,9.4-0.7,13.9s5.3,8.9,9.9,7.9C675.4,406.2,675.1,395.9,675.5,385.7 M883.5,423.3c1.5,0.3,3.6,0.5,4.3-0.9
		c-7.8-9.5-20.9-12.4-32.9-14.8c-1.4-0.3-3-0.6-4.3,0.2c-1.3,0.7-1.8,2.8-0.5,3.6c4.3,5.2,11.4,7,17.9,8.5
		C873.1,420.9,878.3,422.1,883.5,423.3 M759.9,432c4,1.2,8.3,1.5,12.5,0.9c-9.6-9.3-21.2-16.6-33.8-21.2c-1.6-0.6-4.3-0.4-4.1,1.3
		c0.1,0.6,0.5,1.1,1,1.5c4.9,4.3,11.8,6.2,16.1,11.2c1.2,1.4,2.2,2.9,3.5,4.1C756.6,430.9,758.2,431.5,759.9,432 M858.7,427.4
		c-8.9-5.3-19.2-8.1-29.5-8.1c-1.9,0-4.6,1.5-3.5,3c8.1,5.8,18.3,8.7,28.2,7.9C855.9,430.1,858.4,429.4,858.7,427.4 M723.5,427.9
		c8.8,1.4,17.1,6.1,22.9,13c2.5,3,5.5,6.8,9.3,6.1c-1.6-6-6.1-10.8-11.3-14.2s-11.1-5.3-17-7.2c-1-0.3-2.2-0.7-3.2-0.3
		S722.7,427.2,723.5,427.9 M643.5,402.2c-1.5,0.4-2.9,1-4.2,1.7c-0.9,0.5-1.6,2.1-0.6,2.3c2.2,1.5,4.5,3,7.1,2.9
		c2.6-0.2,5.1-3,3.9-5.3C648.7,401.7,645.8,401.6,643.5,402.2 M657.3,402.6c0.2,1.2,1.6,1.9,2.7,1.4c0.5-1,0.7-2.3,0.4-3.5
		c-0.7-0.5-1.6-0.7-2.5-0.5c-0.5,0.7-0.6,1.6-0.5,2.5 M760.4,335.6c0.6-0.7,1.3-1.3,1.9-2c-0.4-1.4-2.7-1.8-3.6-0.6
		c-0.9,1.2,0.2,3.2,1.7,3.2 M730.5,375.5c-1.3-0.7-3.2,0.6-3,2.1c0.7,0.5,1.6,0.6,2.5,0.5C730.4,377.3,730.6,376.4,730.5,375.5
		 M680.6,418.4c0.5,0.5,1.4-0.5,0.9-1C680.9,417,680,418,680.6,418.4L680.6,418.4z"/>
	<path class="st0" d="M844.5,275l0.6,0.6"/>
	<path class="st0" d="M636.2,272.9c-10.9-13.9-21.9-27.8-32.8-41.7c2.3-1.8,5.4,0.4,7.6,2.4c4.8,4.4,10.6,7.8,16.8,10
		c1,0.3,2.1,0.7,3.1,0.3c1.6-0.5,2.3-2.5,1.9-4.1c-0.4-1.6-1.5-3-2.5-4.2c-2.2-2.7-4.5-5.3-6.7-8c-2.1-2.4-3.8-6.8-0.9-8.2
		c1.7-0.8,3.6,0.3,5.1,1.4c13.5,9.2,29.3,15,45.6,16.8c2,0.2,3.8,1.3,5.5,2.5c2.8,2.1,5.4,4.7,7.4,7.6c1.8,2.6,3.4,5.7,2.7,8.8
		c-0.7,3.1-4.7,5.3-7.2,3.4c-10-7.9-20.7-14.8-32-20.8c-0.7-0.4-1.4-0.7-2.2-0.8c-2.7-0.1-3.6,3.5-3.7,6.2c1,1.8,2.7,3.3,4.6,4.1
		c-0.6,1-2,1-3.2,0.9c-6.9-0.8-13.7-1.6-20.6-2.3c5.9,8,11.7,16,17.4,24.1c0.6,0.9,1.3,1.9,1.1,3c-0.3,1.5-2.2,2.1-3.6,1.6
		C638.1,275.3,637.1,274.1,636.2,272.9z"/>
	<path class="st0" d="M849.9,279.1L849.9,279.1"/>
	<path class="st0" d="M611.4,105.9c4.4-3.6,10.1-5.6,15.8-5.3C622.2,103.1,616.9,104.9,611.4,105.9z"/>
	<path class="st0" d="M796.1,117.3c-9.8-4-19.5-7.9-29.3-11.9c-0.8,0.5-1.3,1.3-1.4,2.2c5.1,4.2,10.1,8.3,15.2,12.5
		c4,3.3,8.4,7.2,9.1,12.3c-12.8-11.8-27.2-21.8-42.7-29.7c-1.4-0.7-3-1.6-3.3-3.2c-0.5-2.1,1.9-4,4.1-3.9c2.2,0.1,4,1.6,5.7,3
		s3.5,2.9,5.6,3.1c12.4,1.4,24.6,4.7,35.9,9.9c1.1-0.3,1.3-1.8,1-2.9c-0.4-1.1-1.1-2.1-1-3.2c0.1-1.7,1.9-2.9,3.6-2.9
		c1.7,0,3.3,0.8,4.8,1.7c8,4.5,16.5,9.4,20.4,17.8c-4.9-5.1-10.7-9.5-16.9-12.9c-0.2,4,3.2,7.1,5.8,10.2s4.2,8.2,1.1,10.7
		C810.6,123.5,803,120.1,796.1,117.3z"/>
	<path class="st0" d="M831.8,256.6c2,3,4.1,6,6.1,9c2.2,3.2,4.4,6.5,6.6,9.7C837.3,272.1,832.2,264.6,831.8,256.6L831.8,256.6z"/>
	<path class="st0" d="M677.4,219.8c-3.5,2.8-8.6,0.8-13.1,1.1c-6,0.3-12.5,4.8-17.5,1.4c-3.2-2.2-4.5-7-8.3-7.6c0-1.1,0-2.3,0-3.4
		c1.9-0.1,3.9,0.7,5.8,0.6c2,0,4.2-1.2,4.2-3.2c0-0.8-0.5-1.6-0.9-2.3c-5.2-8.7-10.4-17.4-15.6-26.1c0-2,1.9-3.7,3.9-4.1
		s4.1,0.1,6.1,0.7c9.9,2.7,20,5.4,28.9,10.5c1.2,0.7,2.5,2.1,1.6,3.2c-7.3-0.3-14.4-2.7-20.4-6.9c-1.9,1.2-0.4,4.2,1.2,5.8
		C662.3,198.8,670.4,208.9,677.4,219.8z"/>
	<path class="st0" d="M663.9,263.4c9.7,2.6,20,3.4,30,2.3c-1.4,2.1-2.8,4.2-4.9,5.5c-2.1,1.3-5,1.6-6.9,0c-1.2-1.1-3.3,0.4-3.4,2.1
		s1.3,3,2.5,4c2.4,1.9,5.2,3.4,8.1,4.3c0.7,1-0.4,2.6-1.7,2.7s-2.4-0.6-3.5-1.4c-6.6-4.6-13.2-9.1-19.8-13.7c-1.1-0.8-2.4-1.7-2.7-3
		C661.4,264.8,662.5,263,663.9,263.4z"/>
	<path class="st0" d="M619.8,332.2c1.2,3.7,3.6,7.1,6.7,9.4c1.4,1,2.9,1.8,4.4,2.6c4.1,2.2,8.1,4.4,12.2,6.6
		c5.4,2.9,11.4,6.6,12.3,12.6c-19.2-11.1-39.3-20.6-59.9-28.6C603.4,332.4,611.7,331.5,619.8,332.2z"/>
	<path class="st0" d="M704.3,123.9c-1.1,2.5-2.3,5.1-3.4,7.6c-5.4-1.4-10.2-5.2-12.7-10.2c-1.6-4.6-5.3-8.4-9.9-10
		c0-2,3.1-1.9,4.9-1c9.2,4.6,18.4,9.2,27.5,13.8C708.8,125.3,706.1,125.2,704.3,123.9z"/>
	<path class="st0" d="M924.7,169.1c1.5,0.6,2-2.2,1-3.4c-0.1-2,2.9-2.7,4.5-1.5c1.5,1.2,2,3.4,2.6,5.3c3.6,11.5,16.1,18.8,18.9,30.5
		c-4.5-2.9-9.1-5.8-13.6-8.7c-0.8-0.5-1.6-1-2.5-0.8c-0.8,0.2-1.7-0.2-2.4-0.7c-7.3-4.7-11-13.3-13.2-21.7
		c-1.1-4.2-1.9-8.5-2.3-12.8C921.3,159,923.9,163.9,924.7,169.1z"/>
	<path class="st0" d="M917.9,278c4.2-0.2,7.7,2.9,10.8,5.8c1.3,1.3,2.6,3.7,1,4.6c-1.7,1.1-3.1,2.9-3,4.9s1.9,4,3.9,3.7
		c1.6-0.3,3.1,1.4,3.1,3s-1,3.1-2.2,4.3c-4.7,4.3-12.6,4.1-17.5,0.1s-6.8-11.2-5.2-17.4C909.9,282.7,913.3,278.3,917.9,278z"/>
	<path class="st0" d="M615,138.4c-0.5,0.9-1.7,1.2-2.8,1.3c-9.5,1.3-19.2,2.7-28.6,1.1c-2.7-0.4-5.5-1.1-7.6-2.9
		c-2.1-1.7-3.3-4.8-2.3-7.3c9.9,3.7,21.1,4.1,31.2,1c-2.1-1.9-4.2-3.8-5-6.5s0.3-6.1,3-6.8c3.9,2,7.8,4.3,10.5,7.7
		C616.1,129.6,617.2,134.7,615,138.4z"/>
	<path class="st0" d="M539.4,227.1c-4.4-6.9-7.3-14.8-8.2-23c-0.1-1.1-0.2-2.2,0.5-3.1c1-1.3,3.1-1,4.3,0.2c1.1,1.1,1.6,2.8,2,4.3
		c3.1,10.7,9.1,20.6,17.2,28.3c-2.6,1.9-6.3,1.7-9.1,0.1C543.2,232.4,541.2,229.8,539.4,227.1z"/>
</g>
</svg>
