<?xml version="1.0" encoding="utf-8"?>
<!-- Generator: Adobe Illustrator 18.1.1, SVG Export Plug-In . SVG Version: 6.00 Build 0)  -->
<svg version="1.1" id="Layer_1" xmlns="http://www.w3.org/2000/svg" xmlns:xlink="http://www.w3.org/1999/xlink" x="0px" y="0px"
	 viewBox="0 0 1190.6 841.9" enable-background="new 0 0 1190.6 841.9" xml:space="preserve">
<g>
	<path fill="#010101" d="M420.4,209.4c0.8-0.1,1.7-0.3,2.5-0.4c0.8,1.3-0.6,3.3-2.2,3c-0.2-0.8-0.3-1.6-0.5-2.4L420.4,209.4z"/>
	<path fill="#010101" d="M492.2,752.1c22-5.7,42.1-19,55.9-37c0.9,9.5-5.4,17.8-10.2,26.1c-4.8,8.2-8,19.4-1.7,26.6
		c4.5-8.6,9.1-17.1,13.6-25.7c1.8-3.3,4-7,7.8-7.6c5.3-0.8,8.9,5.1,10.9,10.1c2.9,7.1,5.9,14.3,8.8,21.4c8.8-5.7,9.6-18.5,6.3-28.5
		s-9.7-18.8-12.1-29c-3.2-13.4,0.8-27.4,4.8-40.7c10.7-35.5,21.4-71,32.1-106.5c5-16.6,9.7-35.6,0.6-50.4c-2.3,1.9-4.6,3.8-6.9,5.7
		c5.8-12.9,13.8-24.8,23.6-35c2.8-2.9,7.7-5.6,10.2-2.4c5.3-6.8,11.5-12.9,18.5-17.9c-3.4,5.5-4.9,12.2-4,18.6
		c3.8-6.7,7.7-13.4,11.5-20.1c1,3.1,1,6.6,0.2,9.7c5.2-4,8.5-10.4,8.7-16.9c3.4,5.9,4,13.3,1.5,19.7c14.2-6.9,21.8-25.1,16.8-40.1
		c-2.3-6.7-6.7-12.7-7.4-19.7c4.6,9,10.9,17.2,18.4,24.1c-9.8-48.9-37.9-94-77.6-124.3c15.5,4.4,28.1,15.6,38.5,27.9
		c28.4,33.3,44.8,76.7,45.5,120.5c0,2.9-1.6,6.9-4.2,5.8c-1.2-5.4-3.7-10.5-7.2-14.7c-10.5,15.9-21,31.8-31.5,47.7
		c2.4-6.7,3.6-13.9,3.5-21.1c-8.8,9.4-14.2,22-14.9,34.9c-1.8-11.4-3.7-22.9-5.5-34.3c-7.5,9.1-12.4,20.3-13.9,32
		c-2.5-8.9-2.1-18.6,1.2-27.1c-5.8,3.7-11.8,7.5-15.9,13c-4.1,5.6-5.9,13.3-2.6,19.4c7.3,13.6,2.4,30.4-2.5,45.1
		c-13.6,41.3-25.1,83.2-34.4,125.6c-1.8,8-3.5,16.4-1.7,24.4c2.1,9.7,9,17.7,11.8,27.2c4,13.3-1.2,28.8-12.3,37.1
		c-3.8-10.3-7.5-20.6-11.3-31c-1.2-3.2-3.4-7.1-6.8-6.5c-2.1,0.4-3.4,2.5-4.4,4.4c-5.2,9.5-9.7,19.4-13.7,29.4
		c-1.5,3.8-7.2,0.1-8.6-3.7c-3.1-8.2-4.2-17.3-3-26c-12.2,4-23.8,9.5-34.5,16.4c-3.3,2.2-7.9-1.8-7.9-5.7s2.8-7.3,5.4-10.3
		c4.9-5.6,9.8-11.2,14.6-16.7c-21.1-0.8-42.4,2.5-62.3,9.6c-3-9.3,6.4-17.7,15.1-22.3c8.4-4.5,17.3-8.1,26.5-10.9
		c11.7-3.5,25-6.5,31.6-16.7c3-4.7,4.1-10.2,5.2-15.7c8-40.5,16-81,24.1-121.5c1.8-9.1,3.5-19.1-1.1-27.2
		c-3.7-6.4-10.5-10.1-17-13.5c-10.6-5.5-21.1-11.1-31.7-16.6c1.5,3.7,3.2,7.3,5.1,10.8c-24.6-10.4-36.9-39.3-60.8-51.2
		c20.2,8,37.7,22.8,48.8,41.5c1.7-2.3,3.4-4.7,5.1-7c5.9,4,12.6,6.8,19.6,8.2c-7.9-8.4-18.8-13.1-28.6-19.2s-19.1-15-20.2-26.5
		c5.1,5.7,10.2,11.5,15.3,17.2c-1.8-1.2,0.1-4.4,2.2-4.3c2.2,0.1,3.8,1.9,5.2,3.6c13.7,16.3,30.5,30.1,49.2,40.4
		c-0.6-2.7-1.1-5.5-1.7-8.2c2.4-0.3,4.3,1.8,5.6,3.8c14.5,21.9,10.4,50.7,5.5,76.4c-6.7,34.8-14.1,69.5-22,104.1
		c-3.5,15.3-19.7,23.8-34.8,28.3s-31.6,7.8-42,19.5c21.1-3.7,42.2-7.4,63.2-11.2c-1.9,0.9-0.9,4.1,1,4.8c2,0.7,4.1-0.3,6-1.2
		c5.4-2.7,10.9-5.3,16.3-8c-12.6,10.2-25.3,20.4-37.9,30.7C493.8,745.7,490.8,749,492.2,752.1z"/>
	<path fill="#010101" d="M429.1,210.2c0.6-0.4,1.1-0.8,1.7-1.2c0.8,0.7,1.4,1.6,1.6,2.6c-1,0.6-2.5,0.1-2.9-1.1L429.1,210.2z"/>
	<path fill="#010101" d="M564.2,674.2c-5,16.5-12.9,35.8-29.9,38.7c3.7-2.8,7.4-5.7,11.1-8.5c-10.4-10.8-9.5-27.9-7.3-42.7
		c5.6-38.9,15.2-77.3,28.6-114.3c9.9-27.4-2.2-60.9-27.2-75.8c13.9,4,26.2,14.2,31.2,27.8c2.9,8,3.3,16.7,2.7,25.2
		c-1.9,28.4-13.2,55.2-21.1,82.6c-6.8,23.9-11,48.6-12.5,73.5c-0.3,5-0.3,10.4,2.9,14.3c3.2,3.8,10.7,3.9,12.1-0.9
		c8.7-29.3,17.3-58.6,26-87.8c7.4-25,14.7-52.2,5.1-76.4c-3.3-8.4-8.7-16.8-6.8-25.6c8.7,18.9,17.1,38.9,15.8,59.6
		c-0.6,10-3.6,19.8-6.4,29.4C580.4,620.3,572.3,647.3,564.2,674.2z"/>
	<path fill="#010101" d="M435.1,258.4c0.6-0.8,1.2-1.5,1.7-2.3c1.1,3,0.9,6.4-0.6,9.2c-0.4-2.2-0.8-4.4-1.2-6.6L435.1,258.4z"/>
	<path fill="#010101" d="M436.6,270.1c3.2,7.7,6.4,15.4,9.6,23.1c7.9,19.1,17.7,40,36.9,47.6c4,1.6,8.7,2.9,10.4,6.8
		c1.5,3.4,5.6,4.6,9.2,5.1c11.8,1.6,24.1-0.3,34.9-5.5c-1.3,6.6-8.2,10.6-14.8,11.6c-14.9,2.3-29.1-6.3-41.8-14.5
		c-7-4.6-14.1-9.1-21.1-13.7c-0.2,1.9-1.5,3.7-3.2,4.5c-0.8-11.3-3.7-22.4-8.7-32.6C442.9,292.1,435.5,281.7,436.6,270.1z"/>
	<path fill="#010101" d="M435.3,225.8c-6.4-0.5-12.9-0.9-19.3-1.4c7.8-3.3,16.9-3.3,24.7,0.1C439.4,225.9,437.2,225.9,435.3,225.8
		L435.3,225.8z"/>
	<path fill="#010101" d="M490.5,342.3c18.5-21.4,44.8-35.8,72.8-39.9c5.9-0.9,11.8-1.3,17.8-1.5c11.5-0.5,23.9-0.2,33.4,6.4
		c-35.1-7.2-73.1,0.7-102.4,21.4C505,333.5,498.4,339.2,490.5,342.3z"/>
	<path fill="#010101" d="M464.4,184.1c0.7,3.2-0.2,6.6-2.3,9.1c-1.6,2-4.3,3.4-6.8,2.9C456,190.9,459.6,186.2,464.4,184.1
		L464.4,184.1z"/>
	<path fill="#010101" d="M395.6,333.5c2.9,1.1,2.9,5,2.8,8.1c-0.4,9.8,2.4,19.7,7.8,27.8c-2.4,0.7-5.1-1.6-4.8-4.1
		c-1.5-1.2-3.1,1.5-3,3.4c0.4,13.7,7.2,26.3,13.9,38.3c-12-11.6-18.2-29.1-16.1-45.6c1.5-11.6-6.5-23.7-2.4-34.7
		c5.1-13.5,8.1-27.8,9-42.2c0.1-1.5,0.7-3.5,2.2-3.5c2,8,3.9,16,5.9,23.9c-2.6-0.9-4.8-2.7-6.4-4.9c-3.8,7.9-4.6,17.2-2.3,25.7
		c-1.2-0.5-2.5-1.1-3.7-1.6C397,326.9,395.9,330.2,395.6,333.5z"/>
	<path fill="#010101" d="M411.7,203.7c-1.4,3.2-5.8,4.5-8.7,2.7c-2.9-1.8-3.6-6.4-1.4-9c2.2-2.6,6.8-2.6,9.1,0
		c-1.1,1.1-2.2,2.2-3.3,3.3C408.5,202,410,203.1,411.7,203.7L411.7,203.7z"/>
	<path fill="#010101" d="M618.4,475.1c2.5,2.7,0.4,7-1.7,10.1c-9.2,13.4-17.2,27.6-23.9,42.3c-3.7-11.1-9-21.7-15.6-31.4
		c-3.1-4.6-6.7-10-4.7-15.2c5.8,2,8.7,8.2,11.1,13.9c1.9,4.5,3.8,9,5.6,13.5c0.9,2.1,2.1,4.4,4.3,4.9
		C601.8,500.5,610.1,487.8,618.4,475.1z"/>
	<path fill="#010101" d="M433.9,215.1c1.4,0.4,2.9,1,3.5,2.4c0.4,1,0,2.2-0.8,2.9c-6.7-4.9-16-0.9-24.3-1.6
		C418.4,214.5,426.6,213.1,433.9,215.1z"/>
	<path fill="#010101" d="M400.4,168.9c3.7,1.8,7.3,3.6,11,5.4c0.6,0.3,1.3,0.6,2,0.5c1.8-0.4,1.6-3,0.9-4.7c1.1,2.8,5.6,3.4,7.3,0.9
		c1.9-2.8,4.2-5.2,6.8-7.3c1.3-1,3.4-1.9,4.4-0.5c1.6,2.3,5.2,1.9,7.9,1c2.7-0.9,5.8-2.1,8.3-0.6c-0.9,1.4-1.9,2.9-2.8,4.3
		c2.2,0.5,4.6-1.5,4.5-3.8c3.1,1.1,6.4-1,9-3c1.1,0.1,1.6,1.5,1.2,2.6s-1.3,1.7-2.2,2.4c-3.2,2.6-5.7,5.9-7.2,9.7
		c0.4,0.8,1.3,1.3,2.2,1.3c2.1-1.7,4.5-3,7.1-3.7c1.8,0.2,0.9,3.1-0.5,4.3c-1.5,1.1-3.1,3.4-1.6,4.4c1.3,0.9-0.1,3.1-1.7,3.1
		s-2.8-1.3-4.1-2.2c-1.2-1-3-1.7-4.3-0.8c-1.9,1.3-3.6-2.3-2.5-4.3s3.3-3.7,3.1-6c-1.5-1.7-4.3-0.2-6,1.2s-4.8,2.6-6,0.7
		c1.7-1.8,3.4-3.6,5.1-5.5c-5.3-0.6-10.7,2.9-12.3,8c-1.9,0.2-3.4-2.6-1.9-3.7c-0.8-0.8-1.8-1.4-2.9-1.5c-2.2,6.4-10.8,9.6-16.6,6.1
		c1.2,4.5-4.1,9.2-8.4,7.4c2.3,1.3,1.1,5.3-1.4,6.3c-2.5,1-5.3-0.1-7.8-1.1c-1-0.3-1.2-2-0.2-2.5c2.3,0.5,5.5-1.5,4.3-3.5
		c-1.5-0.3-2.4-2.1-1.8-3.5c3.2,0.1,6.4,0.3,9.6,0.4c0.8,0,1.9-0.1,2.2-0.9c0.2-0.5-0.1-1-0.3-1.4C403.5,175.1,402,172,400.4,168.9z
		"/>
	<path fill="#010101" d="M455.3,199c0.6,3.6,3.1,6.8,6.5,8.3c1.9,0.8,4.5,2.6,3.1,4.1c-1.6,1.8,3.3,3.1,3.4,5.5
		c0,1.9-3.1,2.8-2.8,4.7c0.7,3.7-0.9,7.7-3.9,10c-5.9-0.6-11.9,0.3-17.5,2.5c-1,0.4-2.1,0.9-2.8,1.7c-0.7,0.8-1,1.8-1.3,2.9
		c-1.3,4.5-1.8,9.2-1.7,13.9c-0.6,0.7-1.9,0.3-2.4-0.5s-0.4-1.9-0.3-2.8c0.5-4.9,1-9.7,1.5-14.6c0.1-1.2,0.3-2.5,1.1-3.3
		c0.8-0.8,2-1,3.1-1.1c5.5-0.8,11.1-1.6,16.6-2.3c0.1-1.9,1.6-3.7,3.4-4.2c0.2-3,0.2-6.1-0.8-9s-3.2-5.5-6.2-6
		C454,205.4,454.3,202.1,455.3,199z"/>
	<path fill="#010101" d="M420.3,199.7c-1.6,6.5-5.9,12.2-11.7,15.5C411.3,209.2,415.3,203.9,420.3,199.7L420.3,199.7z"/>
	<path fill="#010101" d="M554.3,511.9c-6.6-14-18.9-25.3-33.6-30.4c-3.2-1.1-6.8-2.2-8.8-4.9c14.7,0.9,28.8,8.2,38,19.6
		C553.5,500.6,556.5,506.6,554.3,511.9z"/>
	<path fill="#010101" d="M426,332.3c-1.8-9.6,4.7-18.8,5.3-28.6c0.1-1.5,1.6-3.6,2.5-2.4C431.7,311.8,429.1,322.1,426,332.3z"/>
	<path fill="#010101" d="M434.5,437.3c-7.6-0.5-14.6-4.7-19.9-10.2s-9-12.3-12.4-19.1c-0.8-1.5-1.2-3.9,0.4-4.4
		C410,417.4,421.1,429.2,434.5,437.3z"/>
	<path fill="#010101" d="M448.6,198.7c-1,0.6-2,1.3-3.1,1.9c-0.8,2.1,1.9,4.4,3.9,3.4c0.4,4-5.5,6.8-8.4,3.9
		c-1.7,1.3,0.3,3.9,2.1,5.2s3.5,4.2,1.5,5.2c-5.5-3.9-9.6-9.6-11.6-16c1.6,0.2,3.2,0.5,4.8,0.9c0.5-2.6,1.8-5.2,4.1-6.5
		C444.3,195.4,447.8,196.2,448.6,198.7z"/>
	<path fill="#010101" d="M416.8,229.5c-2.4,1-3.5,3.9-3.5,6.5s0.7,5.2,0.9,7.7c0.1,1.9-0.1,3.8-0.4,5.7c-1,7-2.7,13.8-4.9,20.5
		c-0.8,2.3-2.9,5-4.9,3.7c3.1-8.6,5.5-17.5,7-26.5c0.6-3.3,1-6.7,0-9.8c-1-3.2-3.9-6-7.2-5.8c-3.6,0.2-7.2-2.3-8.3-5.8
		C402,229.2,409.5,230.5,416.8,229.5z"/>
	<path fill="#010101" d="M388.4,224c-1.5-2.9-3.1-5.9-3.5-9.1c-0.4-3.2,0.6-6.9,3.3-8.7c1.3-0.9,2.9-1.3,4.3-2.1
		c2.8-1.7,4.1-5.5,3-8.5c0.5-1.5,2.9,0,2.7,1.6c-0.1,1.6-1.3,3.1-0.8,4.6c1.5,4.7-8.5,5.9-8.5,10.8
		C390.7,216.1,390.5,220.5,388.4,224z"/>
</g>
</svg>
