<?xml version="1.0" encoding="utf-8"?>
<!-- Generator: Adobe Illustrator 19.1.0, SVG Export Plug-In . SVG Version: 6.00 Build 0)  -->
<svg version="1.1" id="Layer_1" xmlns="http://www.w3.org/2000/svg" xmlns:xlink="http://www.w3.org/1999/xlink" x="0px" y="0px"
	 viewBox="-114 -98.7 612 792" style="enable-background:new -114 -98.7 612 792;" xml:space="preserve">
<style type="text/css">
	.st0{fill:#FFFFFF;stroke:#FFFFFF;stroke-width:2;stroke-miterlimit:10;}
</style>
<g>
	<path class="st0" d="M335.7,98.2c6.9,17.7,11.1,36.5,12.3,55.4c0.2,2.5-0.1,5.5-2.3,6.5c-1,0.4-2.2,0.3-3.3,0.2
		c-7.6-0.9-15.3-1.8-22.9-2.7c-4.2-0.5-4.8-6.3-4.2-10.5c1.8-13.9,3.6-27.8,5.5-41.8c1-7.6,4.6-14.9,10-20.4c1.8,0.8,2.1,3.2,1.4,5
		s-2.2,3.2-3.3,4.7c-2.1,3-3,6.6-3.7,10.2c-3.1,14.6-5.3,29.5-6.3,44.4c-0.1,1.1-0.1,2.2,0.5,3.1c0.8,1,2.2,1.2,3.4,1.4
		c7.2,0.8,14.4,1.5,21.7,2.3c-0.7-20.7-5.3-41.3-13.3-60.4C332.2,93.9,334.9,96.2,335.7,98.2z"/>
	<path class="st0" d="M245,148.8c-7.1,8.9-19.5,11.4-30.8,12.2c-4.6,0.3-10,0.2-12.9-3.4c-2-2.3-2.4-5.6-2.7-8.6
		c-0.5-4.9-1-9.9-1.6-14.8c-1.2-11.8-2.5-23.7-1.5-35.5c0.2-2,0.9-4.5,2.9-4.6c12.8-1,25.8,0.1,38.3,3.3c3.2,0.8,6.4,1.8,9.1,3.6
		c5.4,3.6,8.3,10.2,8.7,16.6c0.5,6.5-1.2,12.9-3.4,19C249.6,141,247.9,145.3,245,148.8 M232.6,100.4c-5.2-1.2-10.6-2.1-15.9-2.6
		c-6.3-0.7-14.1-0.1-16.8,5.6c-1.3,2.7-1,5.9-0.7,8.9c1.3,12.3,2.5,24.7,3.8,37c0.2,1.7,0.4,3.5,1.4,4.9c1.3,1.7,3.6,2.3,5.7,2.6
		c11,1.5,22.7-2.6,30.4-10.6c7.7-8,11.4-19.8,9.5-30.8c-0.4-2.2-1-4.4-2.1-6.3C244.9,103.8,238.5,101.7,232.6,100.4z"/>
	<path class="st0" d="M-7.7,40.9C-4.8,34.2,0,27,7.3,26.4c47.4-3.5,94.6-10.5,141-20.9c88.1-19.7,180.3-2.6,266.8,23
		c3,0.9,6.3,2,8.1,4.6c1.5,2.2,1.6,5,1.7,7.7c2.8,106.9,1.3,214-4.2,320.8c-1.7,33.1-4,66.7-15.7,97.7c-1,2.7-2.2,5.5-4.5,7.2
		c-2.5,1.8-5.7,2-8.8,2.2c-120.7,5.6-241.5,8.5-362.3,8.6c-11.5,0-26.9-3.5-27.1-15.1C1.6,419.8,1,377.4,0.3,335
		c-0.8-49.2-1.6-98.4-8.3-147.1C-14.9,138.6-27.5,86.5-7.7,40.9 M2.7,345.8c14.9-0.3,26.5-15.1,41.4-15.6c11.6-0.4,21.6,8,29.3,16.7
		s14.8,18.7,25.5,23.4c19.4,8.6,41.5-3.7,57.5-17.7s31.5-31,52.5-34.1c41.2-5.9,75.2,45.3,116.1,37.8c17.4-3.2,30.8-16.4,45.2-26.6
		s34-17.8,49.2-8.9c1.3-21.8,2.1-43.7,2.6-65.5c0.7-29.9,0.6-59.8,0.6-89.7c-0.1-40.5-0.1-81-0.2-121.5c0-2.9-0.1-6.1-1.8-8.4
		c-1.8-2.4-4.9-3.4-7.7-4.2C323.3,5.3,227.6-11.2,137.1,11.4c-40.8,10.2-82.8,14-124.7,17.8C2.5,30.1-3.8,40.1-7.2,49.4
		c-15,40.7-4.7,85.7,1.4,128.6C2.1,233.5,2.7,289.8,2.7,345.8 M205.6,324.2c-19.2,4.1-33.5,19.3-48.2,32.3
		c-14.7,12.9-33.7,24.8-52.7,20.1c-12.3-3-21.9-12.4-30-22.1c-7.6-9.1-16-19.6-27.9-20.5c-15.4-1.1-27.6,14.9-43,15.1
		C3.5,385.5,4.3,422,6.1,458.4c0.1,2.9,0.3,5.9,1.8,8.4c3,5.2,10.1,6,16.1,6.2c80.1,2.8,160.3-0.1,240.4-3.1
		c42.9-1.6,85.7-3.2,128.6-4.7c2.3-0.1,4.7-0.2,6.5-1.6c1.9-1.5,2.7-4,3.3-6.3c11-42.4,16.1-86.4,15-130.3c0-1.2-0.1-2.4-0.9-3.3
		c-0.8-0.9-2-1.1-3.1-1.3c-12.8-1.8-26.3,0.8-37.4,7.5c-10.2,6.1-18.4,15.2-28.5,21.6c-15.9,9.9-36.4,12.1-54,5.6
		c-10.1-3.7-19-10-28.1-15.8C247.6,329.7,226.5,319.7,205.6,324.2z"/>
	<path class="st0" d="M281,128.5c0.2,8.5-2.4,16.9-4.9,25c-2.2,7.2-4.7,14.7-10,20c-5.8,5.8-14.1,8-22.2,9.6
		c-12.8,2.5-25.8,3.9-38.9,4.1c2.7,24.5,4.2,49.1,4.5,73.7c0.1,3.9-0.3,8.5-3.6,10.6c-2,1.3-4.6,1.2-7,1.1c-6-0.3-12-0.5-18-0.8
		c-1.5-0.1-3-0.2-4.2-1.1c-1.3-1.1-1.6-3.1-1.8-4.8c-5.7-57.5-11.4-115.1-17-172.6c4.3,5.4,5.1,12.6,5.8,19.5
		c4.8,49.1,9.6,98.2,14.4,147.4c0.4,4.4,4.5,7.7,8.8,8.7s8.8,0.1,13.1-0.7c1.4-0.3,3-0.6,3.9-1.7c1-1.1,1.1-2.7,1.1-4.2
		c0.7-23.4-0.9-46.9-4.8-70c-0.5-3.1-0.8-7.1,2-8.7c1.1-0.6,2.3-0.7,3.6-0.8c9-0.5,17.9-0.9,26.9-1.4c18.4-1,35.6-13.8,41.9-31.1
		c6.2-17.3,1.1-38.2-12.4-50.7c-12.6-11.6-30.7-15.5-47.8-14.9c-17.1,0.6-33.8,5.2-50.5,8.5c-1.7-0.5,0.1-3,1.9-3.4
		c22.7-6,46.3-12,69.4-7.5C258.2,86.6,280.4,105,281,128.5z"/>
	<path class="st0" d="M346.3,190c-8.5-7.5-22.9-1.8-28.7,7.9c-5.8,9.7-6,21.6-7.3,32.9c-1.4,11.9-4.4,23.6-8.7,34.7
		c-0.5,1.4-1.2,2.8-2.4,3.6c-1.7,1.2-3.9,0.8-5.9,0.4c-5-1-10.1-2-14.2-4.8c-4.2-2.8-7.2-8-6-12.9c12.8-52.5,22.6-105.8,29.5-159.4
		c1.3-10.2,10.7-17.8,20.7-20.2c10-2.5,20.4-0.8,30.5,0.8c2.5,0.4,5.1,0.9,6.8,2.7c1.6,1.7,2.1,4.2,2.4,6.6
		c9.1,61.2,18.3,122.4,27.4,183.6c0.2,1.3,0.3,2.8-0.6,3.7c-0.9,0.9-2.3,0.9-3.6,0.9c-4.5-0.3-9.1-0.5-13.6-0.8
		c-6.8-0.4-15.5-2.6-16-9.4c-1.2-16.7-2.4-33.5-3.5-50.2C352.7,202.8,351.8,194.8,346.3,190 M327.8,184.4c5.4-0.9,11-1.9,16.3-0.5
		s10.3,5.5,10.8,11c1.7,20.2,3.5,40.4,5.2,60.6c0.2,2.3,0.5,4.8,1.9,6.6c1.6,2,4.2,2.7,6.7,3.4c4,1,8.2,2.1,12.2,1
		c4-1,7.6-4.9,6.7-9c-12.5-57.9-21.5-116.5-26.9-175.4c-0.3-3.5-4.7-4.9-8.2-5.4c-9.3-1.4-19-2.8-28.1-0.4
		c-9.1,2.3-17.8,9.4-18.9,18.8c-5.8,47.3-14.4,94.3-25.6,140.7c-1.6,6.6-3.2,13.5-1.1,19.9s9.4,11.6,15.6,8.8c5-2.2,6.8-8.2,8-13.5
		c4.2-18.4,7.4-37.1,9.7-55.9C312.8,188.3,321.1,185.6,327.8,184.4z"/>
	<path class="st0" d="M51.4,141.7c0.6,7.9,1.1,15.8,1.7,23.8c0.4,5.7,7.5,8.4,13.2,8.2s11.8-2,17.1,0.3c8.9,3.9,9.6,16,9,25.7
		c-0.4,5.9-8.3,7.5-14.1,6.8S65.2,205,62.1,210c-1.9,3-1.3,6.9-0.6,10.3c1.4,7.3,2.8,14.6,4.3,21.8c0.5,2.6,2,6,4.7,5.5
		c15.5-2.7,31.1-5.4,46.6-8.1c1.8-0.3,3.9-0.6,5.5,0.3c1.6,1,2.4,3,2.9,4.8c3,10.5,3.6,21.7,1.8,32.5c-23.4,1.4-46.7,5.3-69.4,11.5
		c-5.8,1.6-9.2-6.2-10-12.2c-7.6-55-15.2-109.9-22.8-164.9c-1.2-8.7,9.7-13.5,18.4-15.2c21.4-4,43-7,64.7-8.8
		c8.7-0.8,16.1,7.2,17.9,15.7c1.8,8.5-0.5,17.3-2.8,25.6c-19-4.6-38.8-5.7-58.2-3.1c-4.6,0.6-9.8,1.8-12.3,5.8
		C51,134.6,51.2,138.3,51.4,141.7 M58.2,177.4c-5.9,0.9-8.6-7-8.9-12.9c-0.7-10.4-1.4-20.7-2-31.1c-0.3-5,5.3-8.1,10.1-9.5
		c17.6-5.1,36.7-5,54.3,0.3c5.1,1.5,10.4-3.2,11.4-8.5c1.1-5.2-0.8-10.6-2.6-15.6c-0.9-2.5-2-5.2-4.1-6.7c-2.4-1.7-5.6-1.6-8.5-1.4
		c-21.3,1.3-42.4,4.1-63.4,8.1c-7.1,1.4-16,5.3-15.2,12.5c6.2,54.8,13.5,109.4,22,163.8c0.4,2.6,1,5.5,3.3,6.8
		c1.8,1.1,4.2,0.7,6.3,0.3c20.1-3.7,40.1-7.5,60.2-11.2c1.5-0.3,3.1-0.6,3.9-1.9c0.8-1.2,0.6-2.7,0.4-4.1c-0.9-6-1.8-12.1-2.7-18.1
		c-0.2-1.4-0.5-2.9-1.5-3.8c-1.3-1.1-3.2-0.9-4.9-0.6c-17.4,2.8-34.7,5.7-52.1,8.5c-2.7-13.4-5.3-26.8-7.8-40.3
		c-1.1-5.9,6.3-9.7,12.3-9.8c6-0.1,12.7,1.2,17.3-2.6c6.3-5.1,3.2-16.3-3.9-20.4S66.2,176.1,58.2,177.4z"/>
</g>
</svg>
