<?xml version="1.0" encoding="utf-8"?>
<!-- Generator: Adobe Illustrator 19.1.0, SVG Export Plug-In . SVG Version: 6.00 Build 0)  -->
<svg version="1.1" id="Layer_1" xmlns="http://www.w3.org/2000/svg" xmlns:xlink="http://www.w3.org/1999/xlink" x="0px" y="0px"
	 viewBox="-122 -123.6 595.3 841.9" style="enable-background:new -122 -123.6 595.3 841.9;" xml:space="preserve">
<style type="text/css">
	.st0{fill:#FFFFFF;stroke:#FFFFFF;stroke-width:3.9149;stroke-miterlimit:10;}
</style>
<path class="st0" d="M273.7,366.8c0.4-7.5,0.6-15,1.1-22.5c0.3-4,1.1-7.9,1.6-11.8c0.4-2.9,0.7-5.9,1.1-8.8
	c0.9-6.1,1.4-12.1,1.6-18.3c0.4-12.4,1.1-24.7,1.6-37.1c0.4-8.9,0.8-17.9,1.2-26.8c0.4-10.7,0.8-21.3,1.3-32
	c0.3-6.7,0.6-13.5,1.3-20.2c0.5-5,1.6-9.8,2.2-14.8c0.5-3.9,0.7-7.9,1-11.9c0.1-1.1,0.2-2.3,0.4-3.4c0.2-1.1,0.6-1.3,1.6-0.9
	s1.8,0.2,2.7-0.1c1.5-0.5,2-0.1,2.2,1.4c0.2,1.7,0.3,3.4,0.2,5.1c-0.3,5.2-0.7,10.4-1.1,15.7c-0.5,5.7-1.1,11.4-1.6,17.2
	c-0.6,7.8-1.2,15.6-1.7,23.4c-0.6,9.5-1.1,19-1.4,28.6c-0.3,7.9-0.3,15.9-0.5,23.8c-0.3,10-0.7,19.9-0.8,29.9
	c-0.1,5.5-0.3,11-0.8,16.4c-0.4,4.4-0.8,8.8-1.2,13.2c-0.2,2.8-0.3,5.6-0.7,8.3c-0.5,3.9-1.3,7.8-2,11.8c-0.6,3.6-1,7.1-1.1,10.7
	c-0.1,2.3-0.5,4.5-1,6.7c-0.2,1-0.9,2-1.5,2.8c-1,1.4-3.6,1.7-5,0.6c-0.5-0.4-0.8-1.2-0.9-1.8C273.5,370.3,273.6,368.5,273.7,366.8
	C273.6,366.8,273.7,366.8,273.7,366.8z M418.8,360.8c0.2-6.9,0.8-13.9,1.8-20.7c0.8-5.6,1.1-11.2,1.8-16.8
	c0.7-6.3,1.1-12.7,1.2-19.1c0.1-4.2,0.1-8.5,0.3-12.7c0.3-6.8,0.8-13.6,1.2-20.4c0.4-6.9,0.7-13.9,1.2-20.8
	c0.6-9.3,1.3-18.5,1.8-27.8c0.4-6.7,0.5-13.5,1-20.2c0.5-6.4,1.2-12.8,1.8-19.2c0.6-5.7,1.2-11.4,1.7-17.1c0.3-3,0.3-6.1,0.4-9.1
	c0.1-1.2,0.3-2.4,0.5-3.6c0.1-0.8,0.6-1.4,1.3-1.4c1.4,0,2.9-0.1,4.3,0.3c1.4,0.4,2.5,1.5,2.8,3.1c0.3,1.4,0.5,2.9,0.6,4.3
	c0.1,4.8,0.1,9.6,0.2,14.4c0.3,8.5-0.5,16.9-1,25.3c-0.4,7.7-0.8,15.4-1.2,23.1c-0.5,8.4-1.1,16.8-1.7,25.1
	c-0.4,6.2-0.9,12.3-1.3,18.5c-0.6,8.6-0.9,17.1-1.6,25.7c-0.7,8.2-1.9,16.4-2.7,24.7c-0.8,7.7-1.4,15.5-2,23.2
	c-0.4,5.4-1.4,10.8-2.5,16.1c-0.3,1.5-0.5,3.1-0.8,4.7c-0.5,2.4-0.9,4.8-1.5,7.2c-0.7,2.7-2.9,3.7-5.2,4.5c-0.9,0.3-1.7-0.2-2-1.2
	c-0.2-0.7-0.3-1.5-0.3-2.2C418.8,365.9,418.8,363.4,418.8,360.8z M291.9,312.6c-0.5-2.1-0.4-4-0.3-6c0.1-6,0.4-12,0.5-18
	c0.1-2.7,0-5.3,0-8c0-0.6,0.1-1.3,0.1-1.9c0.1-0.9,0.7-1.4,1.6-1.1c1.5,0.4,2.9-0.1,4.3-0.2c5-0.4,10.1-0.8,15.1-1
	c6.5-0.3,13-0.4,19.5-0.8c6.4-0.4,12.7-1,19.1-1.5c5.4-0.4,10.7-0.7,16.1-0.8c7.7-0.3,15.4-0.3,23.1-0.5c7.7-0.2,15.4-0.4,23.1-0.6
	c1.6,0,3.2,0.1,4.7,0.2c2,0.1,2.2,0.3,2.1,2.3c-0.1,3-0.3,5.9-0.5,8.9c-0.3,5.5-0.5,11.1-0.8,16.6c-0.1,2.6-0.1,5.3-0.3,7.9
	c-0.1,1.8-0.4,1.9-2.1,1.6c-0.7-0.1-1.5-0.2-2.3-0.1c-6.7,0.1-13.4,0.4-20,0.5c-8.5,0-16.9-0.3-25.4-0.3c-6.4,0-12.8,0.2-19.1,0.3
	c-6.9,0.1-13.9,0.3-20.8,0.5c-7.6,0.2-15.1,0.5-22.7,0.7c-2.6,0.1-5.3-0.1-7.9-0.3c-2.3-0.2-4.4,0.1-6.3,1.5
	C292.5,312.5,292.3,312.5,291.9,312.6z M412.7,267.4c-3.6,0.2-7.2,0.5-10.8,0.6c-5.7,0.2-11.4,0.2-17,0.3
	c-5.6,0.1-11.2,0.3-16.8,0.4c-2.5,0.1-5.1,0.2-7.6,0.4c-3.3,0.2-6.5,0.4-9.8,0.6c-3.4,0.2-6.8,0.5-10.2,0.7
	c-8.1,0.4-16.1,0.7-24.2,1c-5,0.2-10.1,0.4-15.1,0.5c-2.5,0.1-4.9-0.2-7.4-0.3c-1,0-1.2-0.8-1.2-1.6c0-1.8-0.1-3.7,0-5.5
	c0.3-9,0.6-17.9,0.9-26.9c0.1-2.6,0.3-5.2,0.5-7.7c0.1-1.4,0.5-1.8,1.6-1.9c5.9-0.6,11.8-1.2,17.7-1.6c5.7-0.4,11.5-0.5,17.2-0.8
	c6.6-0.3,13.2-0.8,19.9-1.1c7.1-0.3,14.1-0.4,21.2-0.5c10.5-0.1,21-0.1,31.5-0.4c6.3-0.1,12.6,0,18.9-0.9c1.9-0.3,2.5,0.2,2.4,2.1
	c-0.3,5.7-0.7,11.3-1.1,17c-0.5,7.2-0.9,14.4-1.4,21.5c0,0.3,0,0.5,0,0.8c-0.1,2.7-0.7,3.3-3.5,3.3c-1.8,0.1-3.7,0-5.5,0
	C412.7,267.5,412.7,267.4,412.7,267.4z M112.4,188.5c-0.3,10.2-0.7,20.3-1,30.5c-0.1,4.8-0.2,9.6-0.3,14.4
	c-0.1,4.2-0.1,8.3-0.2,12.5c-0.2,10.1-0.3,20.2-0.5,30.3c-0.2,8-0.2,16-0.8,24c-0.6,7.5-1.8,15-2.7,22.5c-0.4,3-0.8,6-1.3,9
	c-0.4,2.9-0.8,5.9-1.4,8.8c-0.8,4.3-1.5,8.7-1.6,13.1c0,2.8-0.5,5.7-1,8.5c-0.2,1.2-0.8,2.3-1.3,3.3c-0.2,0.4-1,0.8-1.4,0.7
	c-0.4-0.1-0.9-0.7-1-1.2c-0.2-1.6-0.5-3.3-0.4-4.9c0-9.2,0.1-18.4,0.3-27.6c0.1-4.6,0.4-9.2,0.7-13.8c0.5-6.5,1.1-13,1.5-19.4
	c0.5-7.1,0.8-14.1,1.2-21.2c0.3-4.3,0.7-8.7,1-13c0.4-6,0.8-12,1.3-17.9c0.4-5.8,1-11.6,1.3-17.4c0.3-5.2,0.2-10.4,0.6-15.5
	c0.6-10.2,0.2-20.3,0.2-30.5c0-5.6-0.2-11.2-0.2-16.8c0-3.4,0.2-3.5,3.5-3.6c1.6,0,2.3,0.4,2.6,1.9c0.3,1.9,0.6,3.9,0.6,5.8
	c0.1,5.9,0,11.7,0,17.6C112.3,188.5,112.3,188.5,112.4,188.5z M-88.8,279.8c-0.1-0.5-0.3-0.8-0.3-1c-0.3-5.2-0.7-10.3-0.9-15.5
	c-0.1-1.4,0.1-2.9,0.1-4.4c0-3.8,0-7.6-0.1-11.3c0-1.4,0-2.8,0-4.2c0.1-4,0.2-8.1,0.3-12.1c0-0.7,0-1.4,0.1-2.1
	c0.2-0.9,0.8-1.1,1.3-0.5c1.3,1.5,2.7,1.3,4.3,0.8c0.6-0.2,1.2-0.2,1.9-0.3c1.4-0.1,2.9,0,4.3-0.2c5-0.6,10.1-0.5,15.1-0.3
	c10,0.4,20.1,0.9,30.1,1.1c8.7,0.2,17.3,0.3,26,0.4c7.6,0,15.2,0.1,22.7-0.1c10.2-0.2,20.4,0.3,30.7,1.1c5,0.4,10,0.7,14.9,0.9
	c6.4,0.3,12.7,0.5,19.1,0.8c3.5,0.2,7.1,0.5,10.6,0.8c0.7,0.1,1.5,0.3,2.2,0.6c1.3,0.5,2.5,0.6,3.9,0.1c2.7-1,3-0.7,2.8,2.2
	c-0.6,8.1-1.2,16.2-1.8,24.4c-0.3,4.4-0.6,8.8-0.9,13.2c-0.1,0.8,0.1,1.8-0.7,2.4c-2.5-1.1-2.5-1-5.8-0.9
	c-5.1,0.2-10.2,0.4-15.3,0.6c-6.4,0.2-12.9,0.6-19.3,0.7c-6.9,0.1-13.8-0.2-20.7-0.2c-6.4,0-12.9-0.1-19.3,0.2
	c-10.6,0.5-21.2,0.7-31.8,0.7c-6.6,0-13.1,0.2-19.7,0.3c-3.8,0.1-7.7,0-11.5,0c-5.2,0.1-10.4,0.3-15.5,0.4c-3.2,0-6.3-0.1-9.5-0.3
	c-2.5-0.1-4.9-0.2-7.3,0.4c-1.4,0.3-2.9,0.3-4.3,0.2c-1.6-0.1-3.1-0.1-4.6,0.7C-88.1,279.6-88.3,279.6-88.8,279.8z M273.7,366.8
	C273.7,366.8,273.6,366.8,273.7,366.8c-0.1,1.8-0.2,3.5-0.1,5.3c0,0.6,0.4,1.4,0.9,1.8c1.3,1.1,3.9,0.8,5-0.6
	c0.6-0.8,1.3-1.8,1.5-2.8c0.5-2.2,0.9-4.5,1-6.7c0.2-3.6,0.5-7.2,1.1-10.7c0.7-3.9,1.4-7.8,2-11.8c0.4-2.7,0.4-5.5,0.7-8.3
	c0.4-4.4,0.8-8.8,1.2-13.2c0.5-5.5,0.7-11,0.8-16.4c0.1-10,0.6-19.9,0.8-29.9c0.2-7.9,0.2-15.9,0.5-23.8c0.4-9.5,0.9-19,1.4-28.6
	c0.5-7.8,1.1-15.6,1.7-23.4c0.5-5.7,1.1-11.4,1.6-17.2c0.4-5.2,0.8-10.4,1.1-15.7c0.1-1.7,0-3.4-0.2-5.1c-0.2-1.5-0.7-1.8-2.2-1.4
	c-0.9,0.3-1.8,0.5-2.7,0.1c-1-0.4-1.4-0.1-1.6,0.9c-0.2,1.1-0.4,2.2-0.4,3.4c-0.3,4-0.5,7.9-1,11.9c-0.6,4.9-1.7,9.8-2.2,14.8
	c-0.6,6.7-1,13.5-1.3,20.2c-0.5,10.7-0.9,21.3-1.3,32c-0.4,8.9-0.8,17.9-1.2,26.8c-0.5,12.4-1.2,24.7-1.6,37.1
	c-0.2,6.1-0.7,12.2-1.6,18.3c-0.4,2.9-0.7,5.9-1.1,8.8c-0.5,3.9-1.3,7.9-1.6,11.8C274.3,351.8,274.1,359.3,273.7,366.8z
	 M418.8,360.8c0,2.6,0,5.2,0,7.8c0,0.7,0.1,1.5,0.3,2.2c0.3,1,1.1,1.5,2,1.2c2.3-0.8,4.5-1.8,5.2-4.5c0.6-2.4,1-4.8,1.5-7.2
	c0.3-1.5,0.5-3.1,0.8-4.7c1.2-5.3,2.1-10.6,2.5-16.1c0.6-7.7,1.2-15.5,2-23.2c0.8-8.2,2-16.4,2.7-24.7c0.7-8.6,1.1-17.1,1.6-25.7
	c0.4-6.2,0.8-12.3,1.3-18.5c0.6-8.4,1.2-16.7,1.7-25.1c0.5-7.7,0.8-15.4,1.2-23.1c0.5-8.4,1.2-16.9,1-25.3
	c-0.1-4.8-0.1-9.6-0.2-14.4c0-1.4-0.3-2.9-0.6-4.3c-0.3-1.6-1.4-2.7-2.8-3.1c-1.4-0.4-2.9-0.3-4.3-0.3c-0.8,0-1.2,0.6-1.3,1.4
	c-0.2,1.2-0.4,2.4-0.5,3.6c-0.2,3-0.2,6.1-0.4,9.1c-0.5,5.7-1.2,11.4-1.7,17.1c-0.6,6.4-1.3,12.8-1.8,19.2c-0.5,6.7-0.6,13.5-1,20.2
	c-0.5,9.3-1.2,18.5-1.8,27.8c-0.4,6.9-0.8,13.9-1.2,20.8c-0.4,6.8-0.9,13.6-1.2,20.4c-0.2,4.2-0.3,8.4-0.3,12.7
	c-0.1,6.4-0.5,12.7-1.2,19.1c-0.6,5.6-0.9,11.2-1.8,16.8C419.6,346.9,419.1,353.8,418.8,360.8z M291.9,312.6
	c0.5-0.1,0.7-0.1,0.8-0.2c1.9-1.4,4-1.7,6.3-1.5c2.6,0.3,5.3,0.4,7.9,0.3c7.6-0.2,15.1-0.5,22.7-0.7c6.9-0.2,13.9-0.3,20.8-0.5
	c6.4-0.1,12.8-0.3,19.1-0.3c8.5,0,16.9,0.3,25.4,0.3c6.7,0,13.4-0.3,20-0.5c0.8,0,1.5,0,2.3,0.1c1.7,0.3,2,0.2,2.1-1.6
	c0.2-2.6,0.2-5.3,0.3-7.9c0.2-5.5,0.5-11.1,0.8-16.6c0.1-3,0.3-5.9,0.5-8.9c0.1-1.9-0.1-2.1-2.1-2.3c-1.6-0.1-3.2-0.2-4.7-0.2
	c-7.7,0.2-15.4,0.4-23.1,0.6c-7.7,0.2-15.4,0.3-23.1,0.5c-5.4,0.2-10.7,0.5-16.1,0.8c-6.4,0.4-12.7,1.1-19.1,1.5
	c-6.5,0.4-13,0.5-19.5,0.8c-5,0.2-10.1,0.6-15.1,1c-1.4,0.1-2.8,0.6-4.3,0.2c-0.9-0.3-1.5,0.2-1.6,1.1c-0.1,0.6-0.1,1.3-0.1,1.9
	c0,2.7,0,5.3,0,8c-0.2,6-0.4,12-0.5,18C291.5,308.6,291.4,310.5,291.9,312.6z M412.7,267.4c0,0.1,0,0.1,0,0.2c1.8,0,3.7,0,5.5,0
	c2.7-0.1,3.3-0.7,3.5-3.3c0-0.3,0-0.5,0-0.8c0.5-7.2,0.9-14.4,1.4-21.5c0.4-5.7,0.8-11.3,1.1-17c0.1-1.9-0.4-2.4-2.4-2.1
	c-6.3,1-12.6,0.8-18.9,0.9c-10.5,0.3-21,0.2-31.5,0.4c-7.1,0.1-14.1,0.2-21.2,0.5c-6.6,0.3-13.2,0.7-19.9,1.1
	c-5.7,0.3-11.5,0.4-17.2,0.8c-5.9,0.4-11.8,1-17.7,1.6c-1.2,0.1-1.5,0.5-1.6,1.9c-0.2,2.6-0.4,5.2-0.5,7.7c-0.3,9-0.6,17.9-0.9,26.9
	c-0.1,1.8,0,3.7,0,5.5c0,0.8,0.2,1.5,1.2,1.6c2.5,0.1,4.9,0.3,7.4,0.3c5-0.1,10.1-0.3,15.1-0.5c8.1-0.3,16.1-0.6,24.2-1
	c3.4-0.2,6.8-0.5,10.2-0.7c3.3-0.2,6.5-0.4,9.8-0.6c2.5-0.1,5-0.3,7.6-0.4c5.6-0.2,11.2-0.3,16.8-0.4c5.7-0.1,11.4-0.2,17-0.3
	C405.5,267.8,409.1,267.6,412.7,267.4z M273.9,316.1c-2.5,1.1-4.7,0-6.9-0.1c-6,0-12-0.2-18-0.1c-10,0.2-19.9,0.6-29.9,1.1
	c-6.9,0.3-13.9,1-20.8,1.3s-13.8,0.2-20.6,0.4c-10.7,0.3-21.3,0.4-32,1c-7.8,0.4-15.5,1.2-23.2,1.9c-1.1,0.1-2.1,0.4-3.1,0.7
	c-1.3,0.4-2.6,0.3-3.9-0.4c-1.6-0.8-2.3-2.2-2.1-3.5c0.3-1.3,2-2.6,3.5-2.7c0.3,0,0.6,0,0.9,0.1c3.8,0.5,7.7,0.5,11.5,0
	c1.3-0.2,2.6-0.2,4-0.2c8.4-0.4,16.8-1,25.2-1.3c6.6-0.2,13.3-0.1,19.9-0.2c6.3-0.1,12.5-0.1,18.8-0.3c7.1-0.3,14.1-0.9,21.2-1.2
	c8.1-0.4,16.1-0.9,24.2-1.1s16.2-0.2,24.2-0.3c1.3,0,2.5-0.4,3.8-0.3c1.2,0.2,2.3,0.8,3.7,1.3c0.2-0.6,0.4-1.1,0.5-1.6
	c0.3-3.1,0.5-6.2,0.7-9.3c0.5-10,0.8-19.9,1.3-29.9c0.4-7.4,0.9-14.9,1.3-22.3c0.3-5.4,0.3-10.9,0.5-16.3c0.3-7.9,0.7-15.8,1-23.7
	c0.3-8.6,0.7-17.2,1.9-25.7c0.5-3.8,1.4-7.6,1.9-11.4c0.4-3.1,0.5-6.2,0.6-9.2c0-1-0.2-2.1-0.4-3.2c-0.2-1-0.3-2,0.6-2.8s2-1,3-0.5
	s1.7,0.3,2.6-0.2c1.7-1,3.5-1.7,5.6-1.5s3.1,1,3.5,3.1c0.6,3.5,0.5,6.9,0,10.4c-0.4,2.9-0.4,5.9-0.6,8.9c0,0.4,0.1,0.7,0.2,1.4
	c1.4-1.4,3-1.1,4.5-1.1c1.9,0.1,3.8,0.2,5.7,0c11-0.8,22-0.5,32.9-0.1c4.5,0.2,9-0.1,13.5-0.2c9.5-0.1,19.1,0,28.6-0.3
	c5.5-0.2,11.1-0.8,16.6-1.4c4.1-0.4,8.3-0.9,12.4-1.4c2.9-0.4,5.7-0.8,8.6-1.2c0.3,0,0.6-0.2,0.9-0.2c1.2,0,2.2,0.8,2.2,1.9
	c0.1,1.2-0.6,2.3-1.8,2.5c-2.7,0.4-5.5,0.7-8.3,1c-7.1,0.8-14.2,1.6-21.3,2.3c-7,0.7-14,0.7-21,0.7c-4.8,0.1-9.6,0.2-14.4,0.2
	c-7,0.1-14,0.1-21,0.1c-4.6,0-9.2-0.3-13.8-0.2c-5.4,0.1-10.7,0.6-16.1,0.9c-1.6,0.1-3.3,0.2-4.9,0.2c-0.7,0-1.4-0.5-2-0.8
	c-0.5-0.2-0.9-0.6-1.6-1.1c-0.2,1.2-0.5,2.1-0.5,2.9c-0.6,6.9-1.3,13.7-1.8,20.6c-0.2,1.8,0.1,3.7-0.3,5.4
	c-0.7,3.6-0.9,7.3-0.9,10.9c0,1.7,0.2,2,1.9,2.1c3.8,0.1,7.7,0.2,11.5,0.1c5.7-0.2,11.5-0.4,17.2-0.7c7.8-0.4,15.5-0.8,23.3-1.2
	c3.9-0.2,7.8-0.2,11.7-0.3c7.1-0.2,14.1-0.4,21.2-0.4c7.1-0.1,14.1,0.1,21.2-0.1c5.2-0.1,10.4-0.4,15.5-0.8c1.6-0.1,3.2-0.6,4.8-1
	c1.5-0.4,1.8-0.6,1.9-2.2c0.2-2.5,0.2-5.1,0.4-7.6c0.6-7.7,1.2-15.4,1.8-23c0.2-2.9,0.5-5.8,0.7-8.7c0.4-3.8,0.9-7.7,1.1-11.5
	c0.2-3,0.1-5.9,0.1-8.9c0-0.5,0-1.1,0.2-1.5c0.7-1.3,0.6-2.7,0.3-4.1c-0.5-2.2,0.5-3.1,2.7-2.5c0.8,0.2,1.7,0.2,2.6,0.2
	c2.8,0,5.5,0.2,8,1.7c1.8,1.1,2.9,2.7,3.3,4.6c0.4,1.9,0.6,3.8,0.6,5.6c0.1,6.9,0.2,13.9,0,20.8c-0.1,6.1-0.6,12.2-1,18.3
	c-0.3,5.3-0.5,10.6-0.9,15.9c-0.4,6.6-0.9,13.1-1.3,19.6c-0.1,1.7-0.1,3.4-0.2,5.1c-0.4,6-0.9,12-1.3,17.9
	c-0.4,6.6-0.8,13.2-1.2,19.8c-0.4,5.7-0.9,11.3-1.4,17c-0.3,3.3-0.5,6.5-0.8,9.8s-0.7,6.7-1.1,10c-0.8,6.8-1.4,13.7-1.7,20.6
	c-0.2,5-0.9,9.9-1.6,14.9c-0.8,5.6-1.8,11.1-2.6,16.6c-0.4,3.1-2,5.4-4.5,7.1c-1.1,0.8-2.3,1.5-3.5,2.2c-1.3,0.8-2.7,1.1-4.2,1
	c-2.6-0.3-4.2-1.4-4.8-3.6c-0.3-1-0.5-2.1-0.4-3.2c0.2-7.9,0.4-15.9,1.4-23.8c0.9-7.3,1.9-14.5,2.8-21.8c0.3-2.3,0.5-4.5,0.6-6.8
	s-0.1-2.6-2.5-2.8c-2.1-0.2-4.2-0.2-6.2-0.2c-7.2,0-14.4,0-21.6-0.1c-10.2,0-20.5-0.2-30.7,0c-10.7,0.2-21.3,0.7-32,1.1
	c-4,0.1-8,0.2-11.9,0.4c-2,0.1-4.1,0.2-6,0.5c-3.4,0.6-6.8,0.7-10.2,0.9c-1.6,0.1-2.9-0.7-4.2-1.6c-0.5-0.3-1-1.1-1.6-0.6
	c-0.4,0.3-0.6,1.1-0.6,1.7c-0.3,2.6-0.5,5.1-0.7,7.7c-0.3,4.5-0.6,8.9-1,13.4c-0.3,2.9-0.8,5.7-1.2,8.6c-0.5,3.4-1.2,6.8-1.6,10.3
	c-0.4,3.8-0.5,7.5-0.9,11.3c-0.2,1.9-0.7,3.7-1,5.6c-0.2,1.3-1,2.1-2,2.8c-3.2,2.3-6.8,2.6-10.5,1.8c-1.7-0.3-3.2-2.2-3.4-4.3
	c-0.2-1.4-0.2-2.9-0.1-4.3c0.7-10.2,1.3-20.4,2.2-30.6c0.4-4.5,1.3-8.9,1.9-13.3c0.4-2.6,0.6-5.3,0.9-7.9
	C274,317.5,273.9,316.9,273.9,316.1z M112.4,188.5c-0.1,0-0.1,0-0.2,0c0-5.9,0.1-11.7,0-17.6c0-1.9-0.3-3.9-0.6-5.8
	c-0.3-1.5-1-1.9-2.6-1.9c-3.3,0.1-3.5,0.2-3.5,3.6c0,5.6,0.2,11.2,0.2,16.8c0.1,10.2,0.5,20.3-0.2,30.5c-0.3,5.2-0.3,10.3-0.6,15.5
	c-0.3,5.8-0.9,11.6-1.3,17.4c-0.4,6-0.8,12-1.3,17.9c-0.3,4.3-0.7,8.7-1,13c-0.4,7.1-0.7,14.1-1.2,21.2c-0.4,6.5-1,13-1.5,19.4
	c-0.3,4.6-0.6,9.2-0.7,13.8c-0.2,9.2-0.2,18.4-0.3,27.6c0,1.6,0.2,3.3,0.4,4.9c0.1,0.5,0.6,1.1,1,1.2s1.2-0.3,1.4-0.7
	c0.6-1,1.1-2.2,1.3-3.3c0.5-2.8,0.9-5.6,1-8.5c0.1-4.4,0.7-8.8,1.6-13.1c0.6-2.9,1-5.9,1.4-8.8c0.4-3,0.9-6,1.3-9
	c1-7.5,2.2-15,2.7-22.5c0.6-8,0.6-16,0.8-24c0.2-10.1,0.3-20.2,0.5-30.3c0.1-4.2,0.1-8.3,0.2-12.5c0.1-4.8,0.1-9.6,0.3-14.4
	C111.7,208.8,112.1,198.6,112.4,188.5z M-88.8,279.8c0.5-0.1,0.7-0.2,0.9-0.3c1.4-0.8,3-0.9,4.6-0.7c1.4,0.1,2.9,0.1,4.3-0.2
	c2.4-0.6,4.9-0.5,7.3-0.4c3.1,0.2,6.3,0.3,9.5,0.3c5.2-0.1,10.4-0.3,15.5-0.4c3.8-0.1,7.7,0,11.5,0c6.6-0.1,13.1-0.4,19.7-0.3
	c10.6,0.1,21.2-0.2,31.8-0.7c6.4-0.3,12.9-0.2,19.3-0.2c6.9,0,13.8,0.3,20.7,0.2c6.4-0.1,12.9-0.5,19.3-0.7
	c5.1-0.2,10.2-0.3,15.3-0.6c3.4-0.1,3.3-0.2,5.8,0.9c0.8-0.6,0.6-1.6,0.7-2.4c0.3-4.4,0.6-8.8,0.9-13.2c0.6-8.1,1.2-16.2,1.8-24.4
	c0.2-2.9-0.1-3.2-2.8-2.2c-1.4,0.5-2.6,0.4-3.9-0.1c-0.7-0.3-1.4-0.5-2.2-0.6c-3.5-0.3-7-0.6-10.6-0.8c-6.4-0.3-12.7-0.5-19.1-0.8
	c-5-0.2-10-0.6-14.9-0.9c-10.2-0.7-20.4-1.3-30.7-1.1c-7.6,0.1-15.2,0.1-22.7,0.1c-8.7-0.1-17.3-0.1-26-0.4
	c-10-0.3-20.1-0.8-30.1-1.1c-5-0.2-10.1-0.3-15.1,0.3c-1.4,0.2-2.9,0.1-4.3,0.2c-0.6,0-1.3,0.1-1.9,0.3c-1.6,0.5-3,0.7-4.3-0.8
	c-0.5-0.6-1.2-0.3-1.3,0.5c-0.1,0.7-0.1,1.4-0.1,2.1c-0.1,4-0.2,8.1-0.3,12.1c0,1.4,0,2.8,0,4.2c0,3.8,0.1,7.6,0.1,11.3
	c0,1.5-0.2,2.9-0.1,4.4c0.3,5.2,0.6,10.3,0.9,15.5C-89.1,279-88.9,279.3-88.8,279.8z M96.4,280.4c-1,1.1-2.1,1-3.4,0.9
	c-7.6-0.4-15.3-0.1-22.9,0.2c-9,0.4-17.9,0.8-26.9,0.3c-3-0.2-6.1,0-9.1-0.2c-10-0.4-19.9,0.4-29.9,0.8c-7.8,0.3-15.5,0.2-23.3,0.4
	c-14,0.3-28,0.6-42,0.9c-1.8,0-3.7-0.1-5.5,0c-3.8,0.2-7.7,0.4-11.5,0.7c-2.8,0.2-5.5-0.4-8.2-1c-0.8-0.2-1.4-0.7-2.3-1.1
	c-0.7,1.2-0.7,2.5-0.7,3.7c0.2,8.1,0.4,16.3,0.6,24.4c0.3,8.1,0.6,16.1,0.8,24.2c0.2,6.2,0.5,12.5,0.7,18.7c0,0.7,0,1.4,0,2.1
	c0.1,1.9,0.1,3.9,0.4,5.8c0.5,3,0.2,5.9-0.6,8.8c-0.4,1.3-0.8,2.7-1.1,4c-0.2,0.9-0.4,1.8-0.4,2.8c-0.1,1.8-0.8,2.6-2.6,2.4
	c-1.4-0.2-2.9-0.6-4.2-1.1c-1.6-0.7-3.1-1.6-4.7-2.5c-2-1.1-3.2-2.7-3.6-4.9c-0.3-1.5-0.4-3-0.3-4.5c0.1-6.2,0.3-12.4,0.5-18.5
	c0.3-8.5,0.6-16.9,0.9-25.4c0.2-5.9,0.6-11.7,0.3-17.6c-0.1-2.1,0-4.2,0-6.2c0-4.1,0.1-8.2,0.1-12.3c0-4.5-0.1-9-0.2-13.4
	c-0.1-4.5-0.4-9.1-0.6-13.6c-0.1-2.8-0.1-5.7-0.2-8.5c-0.2-7.6-0.3-15.3-0.5-22.9c-0.1-3.6-0.7-7.2-0.9-10.8
	c-0.3-5.9-0.2-11.9-0.5-17.8c-0.3-7.7-0.9-15.4-1.3-23.1c-0.1-1.8,0-3.5,0-5.3c0-1.5-0.1-3-0.2-4.5c-0.1-0.9-0.1-1.8,0.8-2.4
	c0.6-0.4,1.8-0.1,2.5,0.9c0.5,0.8,1,1.8,1,2.7c0.2,1.9,0.1,3.8,0.1,5.7c0.1,3.3,0.2,6.7,0.4,10c0.2,3.5,0.5,6.9,0.6,10.4
	c0.2,4.4,0.5,8.7,0.4,13.1c-0.1,5.8,0.4,11.6,1,17.4c0.1,1,0.2,2,0.2,3c0.2,7.1,0.5,14.3,0.7,21.4c0.1,4.5,0.1,9.1,0.2,13.6
	c0.1,3.2,0.3,6.4,0.4,9.6c0.1,4.2,0.2,8.5,0.2,12.7c0.1,5.1,0.2,10.2,0.2,15.3c0,8.7,0.1,17.4-0.6,26.1c-0.3,3.8-0.3,7.7-0.4,11.5
	c-0.1,3.9-0.3,7.8-0.4,11.7c0,2,0.1,3.9,0,5.9c-0.1,3.9-0.2,7.8-0.3,11.7c0,0.1,0,0.3,0,0.4c-0.4,3.7,1.9,5.6,4.9,7
	c1.1,0.5,1.6,0.4,2.1-0.8c1.3-3.1,2.1-6.3,1.8-9.8c-0.3-4.4-0.6-8.8-0.7-13.2c-0.3-10.3-0.5-20.6-0.7-30.9
	c-0.1-5.7-0.3-11.5-0.5-17.2c-0.1-3.9-0.4-7.8-0.5-11.7c-0.1-2.7,0-5.4-0.1-8.1c0-2.7,0.1-5.3-0.1-7.9c-0.7-7.4-0.4-14.9-0.3-22.3
	c0.1-8.7,0.1-17.4,0.2-26.1c0.1-7.9,0.2-15.8,0.2-23.7c0-8.5-0.1-16.9-0.1-25.4c0-3-0.2-6.1-0.3-9.1c0-0.4-0.1-0.9-0.1-1.3
	c-0.4-3.2-1-3.8-4.2-3.5c-0.6,0-1.3,0.2-1.9,0.2c-1.2,0.1-2.1-0.4-2.9-1.2c-0.8-0.8-0.5-1.8,0.6-2c2.5-0.3,5-0.6,7.5-0.6
	c3.5,0,4.4,0.9,4.6,4.3c0.2,3.3,0.3,6.6,0.4,9.8c0.1,3.2,0.3,3.3,3.5,3c2.6-0.3,5.3-0.2,7.9-0.3c4.5-0.1,9-0.3,13.4-0.3
	c10,0.1,20,0.2,29.9,0.3c4.7,0,9.5-0.1,14.2-0.1c6.1,0,12.2,0,18.4,0.1c4.5,0.1,9.1,0.5,13.6,0.6c6.2,0.1,12.4,0.1,18.5,0.2
	c3.5,0.1,6.9,0.5,10.4,0.6c8.2,0.3,16.4,0.7,24.6,0.8c6.4,0.1,12.7-0.1,19.1-0.1c1.8,0,3.7,0.2,5.5,0.1c1.7,0,3.4-0.2,5.1-0.3
	c0.6,0,1.3-0.1,1.9,0.1c1.5,0.3,2.2,1.5,2,2.9c-0.3,1.8-1.1,2.5-2.8,2.4c-4.4-0.2-8.7-0.5-13.1-0.5c-5.2-0.1-10.4,0.3-15.5,0.1
	c-9.2-0.2-18.3-0.6-27.5-0.9c-9.1-0.3-18.2-0.8-27.3-0.7c-5.7,0-11.4-0.5-17-0.5c-9.1,0-18.2,0-27.3-0.1
	c-11.7-0.1-23.4-0.2-35.1-0.2c-4.8,0-9.6,0.4-14.4,0.6c-0.9,0-1.9-0.1-2.8-0.2c-1.3-0.2-2.5-0.5-3.7-0.6c-1.4-0.1-1.7,0.2-1.7,1.6
	c0,1.9,0.2,3.8,0.2,5.7c0,7.1-0.2,14.1-0.2,21.2c0,2.6,0.2,5.2,0.2,7.8c0,2.1,0,4.2,0,6.2c0,1.6,0.3,1.7,1.8,1
	c0.8-0.4,1.7-0.8,2.5-0.6c2.5,0.5,5,0.1,7.6,0.1c4,0.1,8,0.2,11.9,0.3c5.2,0.1,10.5,0.2,15.7,0.4c6.8,0.2,13.6,0.6,20.4,0.8
	c4.5,0.1,9.1,0.1,13.6,0.1c4.6,0.1,9.2,0.4,13.8,0.4c4.7,0,9.3-0.2,14-0.2c4.9,0,9.8-0.1,14.8,0.1c7.4,0.3,14.8,0.7,22.1,1.2
	c2.6,0.1,5.2,0.5,7.7,0.6c5.3,0.2,10.6,0.3,15.9,0.5c4.2,0.2,8.4,0.5,12.7,0.7c2.5,0.1,4.9,0.2,7.4-0.3c1.1-0.2,2.2,0.1,3.3,0.3
	c1.5,0.3,2.9,0.7,4.3,1c1-0.9,0.8-1.9,0.8-2.8c0.2-5.2,0.4-10.5,0.5-15.7c0.1-4,0.3-8.1,0.2-12.1c-0.1-10-0.3-20-0.4-29.9
	c0-1.2-0.1-2.4-0.3-3.6c-0.3-1.4,0-2.7,0.4-4.1c0.3-0.9,0.9-1.4,1.8-1.4c3,0,5.9-0.1,8.9,0c2,0.1,2.8,1.1,3.3,3.1
	c1,4.5,0.8,9,0.6,13.6c0,0.6,0,1.1,0,1.7c0,2,0.1,2.3,2.1,2.3c3.5,0.1,7,0.7,10.6,0.4c4.5-0.3,9.1-0.1,13.6-0.1
	c6.7,0.1,13.4,0.3,20.1,0.4c4.5,0.1,9-0.1,13.4,0c5.2,0.1,10.5,0.2,15.7,0.3c4,0.1,8.1,0.3,12.1,0.2c5.6,0,11.1-0.1,16.7-0.3
	c5.2-0.2,10.3-0.6,15.5-1c7-0.5,14-1.2,20.9-1.7c3.1-0.3,6.3-0.4,9.4-0.6c2.5-0.2,5-0.5,7.5-0.7c0.7-0.1,1.4-0.1,2.1-0.1
	c1.4,0.1,2.5,1.1,2.5,2.3c0,1.3-1.1,2.5-2.5,2.5c-2.3,0.1-4.5,0.1-6.8,0.3c-5.5,0.4-11.1,0.8-16.6,1.2c-8.9,0.6-17.7,1.5-26.6,1.9
	c-9.8,0.5-19.7,0.7-29.5,0.7c-6.4,0-12.9-0.4-19.3-0.6c-4.5-0.1-9,0.1-13.4,0.1c-6.6,0-13.1-0.2-19.7-0.2c-4.1,0-8.2,0-12.3,0.1
	c-2.5,0.1-5,0.4-7.5,0.8c-1.9,0.3-3.6,0.1-5.4-0.3c-1.8-0.4-2.1-0.1-2.2,1.8c-0.1,3.3-0.1,6.6-0.2,9.8c-0.1,3-0.1,5.9-0.2,8.9
	c-0.2,6.7-0.5,13.5-0.7,20.2c0,1.4,0.1,1.6,1.5,1.9c0.8,0.2,1.6,0.3,2.4,0.3c3.7,0,7.4,0,11.2,0c3.1,0,6.3-0.1,9.4-0.1
	c3.8-0.1,7.6,0,11.4-0.2c6.7-0.2,13.5-0.5,20.2-0.8c4.2-0.2,8.4-0.4,12.7-0.7c6.2-0.4,12.5-0.9,18.7-1.5c3.9-0.3,7.8-0.8,11.7-1.1
	c7.8-0.6,15.6-1.2,23.4-1.6c4.8-0.2,9.6-0.1,14.4-0.1c5.6-0.1,11.2-0.2,16.8-0.3c1.1,0,2.3-0.3,3.4-0.3c1.5-0.1,2.6,0.7,3.1,2
	c0.7,1.7-0.5,3.4-2.4,3.3c-12.1-0.6-24.1-0.7-36.2-0.1c-9.6,0.5-19.2,1.2-28.7,2.3c-6.3,0.8-12.7,1.2-19.1,1.7
	c-8.6,0.6-17.1,1.2-25.7,1.6c-8,0.4-16,0.6-24,0.9c-3.3,0.1-6.6,0.2-9.8,0.2c-1.1,0-2.3-0.1-3.4-0.2c-3.1-0.2-6.2,0.2-9.2,0.7
	c-1.7,0.3-2,0.5-2,2.3c0,2.3,0,4.5-0.1,6.8c-0.1,3.9-0.3,7.8-0.3,11.7c-0.1,6.8-0.2,13.5-0.2,20.3c0,0.4,0.1,0.9,0.1,1.4
	c0.5,0,0.8,0,1.2-0.1c1.9-0.8,3.8-0.6,5.8-0.5c0.8,0.1,1.5,0.1,2.3,0.1c1.5,0.1,3,0.3,4.5,0.3c2,0,4-0.1,6-0.2
	c5.4-0.2,10.8-0.4,16.3-0.6c6.9-0.3,13.7-0.5,20.6-0.8c3.2-0.1,6.4-0.2,9.7-0.3c4.3-0.2,8.6-0.4,12.9-0.6c3.6-0.2,7.2-0.4,10.8-0.6
	c3.3-0.2,6.6-0.4,9.8-0.5c9.9-0.4,19.8-0.9,29.7-1.2c4.9-0.1,9.8,0.4,14.8,0.5c3.9,0.1,7.8,0,11.7,0.1c0.6,0,1.3-0.1,1.9,0
	c1.5,0.2,2.5,1.2,2.7,2.7c0.2,1.8-0.8,3-2.6,2.9c-1.4-0.1-2.8-0.3-4.1-0.4c-7.6-0.4-15.1-0.9-22.7-1.1c-6.1-0.1-12.1,0.1-18.2,0.4
	c-8.5,0.4-17,0.9-25.5,1.4c-5.4,0.3-10.8,0.8-16.2,1.1c-4.4,0.2-8.8,0.3-13.3,0.5c-9.2,0.4-18.4,0.7-27.6,1.2
	c-5.5,0.3-11.1,0.7-16.6,1.1c-2.1,0.1-4.3,0.4-6.4,0.6c-1.5,0.1-2.9,0.1-4.3-0.6c-0.3-0.2-0.7-0.2-1.1-0.3c-1.7-0.4-2.1-0.1-2.2,1.6
	c-0.1,2-0.2,4-0.2,6.1c0,6.9-0.3,13.8-1.3,20.6c-0.9,6.4-1.7,12.8-2.7,19.1c-0.7,4.5-1.5,9-2.1,13.5c-0.4,3.2-0.7,6.4-1,9.6
	c-0.3,3.6-0.6,7.2-1,10.7c-0.3,2.4-1.6,4.3-3.4,6c-1.5,1.4-5.3,1.5-7.4,0.4c-1.9-1-3.2-3.3-2.8-5.6c0.9-5.6,0.8-11.2,1-16.8
	c0.3-7.1,0.4-14.1,0.5-21.2c0-1.3,0.2-2.5,0.2-3.8c0.1-2.2,0-2.5-2.1-2.7c-4.2-0.4-8.4-0.8-12.6-0.9c-4.3-0.1-8.6,0.1-12.9,0.3
	c-4.2,0.2-8.4,0.4-12.7,0.6c-7.5,0.4-15,0.8-22.5,1.2c-6,0.4-12,0.9-18,1.2c-7.4,0.3-14.8,0.5-22.2,0.7c-5.3,0.1-10.6,0.2-15.9,0.3
	c-5.9,0.1-11.7,0-17.6,0.1c-5.6,0.1-11.2,0.2-16.8,1c-1.9,0.3-3.9-0.2-5.8-0.2c-2.7,0.1-5.4,0.2-8.1,0.6c-2.5,0.4-5,0.4-7.5,0.5
	c-2.1,0-3.6-1.8-3.3-3.8c0.3-2.2,1.9-3.3,4.1-2.7c1.5,0.4,3,0.2,4.5,0.3c3.9,0.2,7.8-0.2,11.7-0.4c8.8-0.6,17.5-0.3,26.3-0.3
	c4.5,0,9-0.2,13.4-0.3c6.4-0.1,12.8-0.1,19.1-0.2c5.9-0.1,11.9-0.3,17.8-0.6c7.9-0.4,15.7-1,23.6-1.5c3.7-0.2,7.3-0.3,11-0.5
	c4.6-0.2,9.2-0.6,13.8-0.7c7.5-0.2,15-0.4,22.5-0.5c3-0.1,5.9,0.1,8.9,0.1c1.4,0,1.6-0.2,1.8-1.6c0.9-10,2.1-20,2.3-30
	c0-0.5-0.1-1-0.1-1.4C96.7,280.6,96.5,280.5,96.4,280.4z M273.9,316.1c0,0.8,0.1,1.4,0,1.9c-0.3,2.6-0.6,5.3-0.9,7.9
	c-0.6,4.4-1.5,8.8-1.9,13.3c-0.9,10.2-1.5,20.4-2.2,30.6c-0.1,1.4,0,2.9,0.1,4.3c0.2,2.1,1.8,4,3.4,4.3c3.7,0.7,7.3,0.5,10.5-1.8
	c1-0.7,1.8-1.5,2-2.8c0.3-1.9,0.8-3.7,1-5.6c0.4-3.8,0.5-7.5,0.9-11.3c0.4-3.4,1-6.9,1.6-10.3c0.4-2.9,0.9-5.7,1.2-8.6
	c0.4-4.5,0.6-8.9,1-13.4c0.2-2.6,0.4-5.2,0.7-7.7c0.1-0.6,0.2-1.3,0.6-1.7c0.6-0.5,1.1,0.3,1.6,0.6c1.3,0.9,2.6,1.6,4.2,1.6
	c3.4-0.2,6.8-0.2,10.2-0.9c2-0.4,4-0.5,6-0.5c4-0.2,8-0.3,11.9-0.4c10.7-0.4,21.3-0.9,32-1.1c10.2-0.2,20.5,0,30.7,0
	c7.2,0,14.4,0,21.6,0.1c2.1,0,4.2,0.1,6.2,0.2c2.4,0.2,2.6,0.5,2.5,2.8s-0.3,4.5-0.6,6.8c-0.9,7.3-1.9,14.5-2.8,21.8
	c-1,7.9-1.2,15.8-1.4,23.8c0,1.1,0.2,2.1,0.4,3.2c0.6,2.3,2.2,3.4,4.8,3.6c1.5,0.1,2.9-0.2,4.2-1c1.2-0.7,2.4-1.4,3.5-2.2
	c2.5-1.7,4.1-4,4.5-7.1c0.8-5.6,1.9-11.1,2.6-16.6c0.7-4.9,1.4-9.9,1.6-14.9c0.3-6.9,0.9-13.7,1.7-20.6c0.4-3.3,0.8-6.6,1.1-10
	c0.3-3.3,0.6-6.5,0.8-9.8c0.5-5.7,1-11.3,1.4-17c0.5-6.6,0.8-13.2,1.2-19.8c0.4-6,0.9-12,1.3-17.9c0.1-1.7,0.1-3.4,0.2-5.1
	c0.4-6.5,0.9-13.1,1.3-19.6c0.3-5.3,0.6-10.6,0.9-15.9c0.3-6.1,0.8-12.2,1-18.3c0.2-6.9,0.1-13.9,0-20.8c0-1.9-0.2-3.8-0.6-5.6
	c-0.4-2-1.5-3.6-3.3-4.6c-2.5-1.5-5.2-1.7-8-1.7c-0.9,0-1.8,0-2.6-0.2c-2.2-0.5-3.2,0.3-2.7,2.5c0.3,1.4,0.3,2.7-0.3,4.1
	c-0.2,0.4-0.2,1-0.2,1.5c0,3,0.1,5.9-0.1,8.9c-0.2,3.8-0.7,7.7-1.1,11.5c-0.3,2.9-0.5,5.8-0.7,8.7c-0.6,7.7-1.3,15.4-1.8,23
	c-0.2,2.5-0.2,5.1-0.4,7.6c-0.1,1.6-0.4,1.8-1.9,2.2c-1.6,0.4-3.2,0.8-4.8,1c-5.2,0.3-10.3,0.7-15.5,0.8c-7.1,0.1-14.1,0-21.2,0.1
	s-14.1,0.3-21.2,0.4c-3.9,0.1-7.8,0.1-11.7,0.3c-7.8,0.3-15.5,0.8-23.3,1.2c-5.7,0.3-11.5,0.5-17.2,0.7c-3.8,0.1-7.7,0-11.5-0.1
	c-1.7,0-1.9-0.3-1.9-2.1c0-3.7,0.2-7.3,0.9-10.9c0.4-1.8,0.1-3.6,0.3-5.4c0.6-6.9,1.2-13.7,1.8-20.6c0.1-0.8,0.3-1.7,0.5-2.9
	c0.7,0.5,1.1,0.9,1.6,1.1c0.7,0.3,1.3,0.8,2,0.8c1.6,0.1,3.3-0.1,4.9-0.2c5.4-0.3,10.7-0.7,16.1-0.9c4.6-0.1,9.2,0.2,13.8,0.2
	c7,0,14-0.1,21-0.1c4.8,0,9.6-0.2,14.4-0.2c7-0.1,14,0,21-0.7c7.1-0.8,14.2-1.5,21.3-2.3c2.8-0.3,5.5-0.6,8.3-1
	c1.2-0.2,1.9-1.3,1.8-2.5c-0.1-1.1-1.1-1.9-2.2-1.9c-0.3,0-0.6,0.1-0.9,0.2c-2.9,0.4-5.7,0.9-8.6,1.2c-4.1,0.5-8.3,1-12.4,1.4
	c-5.5,0.5-11.1,1.2-16.6,1.4c-9.5,0.3-19.1,0.2-28.6,0.3c-4.5,0-9,0.3-13.5,0.2c-11-0.4-22-0.7-32.9,0.1c-1.9,0.1-3.8,0.1-5.7,0
	c-1.6-0.1-3.1-0.4-4.5,1.1c-0.1-0.7-0.2-1.1-0.2-1.4c0.2-3,0.2-5.9,0.6-8.9c0.5-3.5,0.6-6.9,0-10.4c-0.4-2.1-1.3-2.8-3.5-3.1
	c-2.1-0.2-3.9,0.5-5.6,1.5c-0.9,0.5-1.6,0.7-2.6,0.2s-2.1-0.3-3,0.5s-0.8,1.7-0.6,2.8c0.2,1,0.5,2.1,0.4,3.2
	c-0.1,3.1-0.2,6.2-0.6,9.2c-0.5,3.8-1.3,7.6-1.9,11.4c-1.2,8.5-1.5,17.1-1.9,25.7c-0.3,7.9-0.7,15.8-1,23.7
	c-0.2,5.4-0.2,10.9-0.5,16.3c-0.4,7.4-0.9,14.9-1.3,22.3c-0.5,10-0.8,19.9-1.3,29.9c-0.1,3.1-0.4,6.2-0.7,9.3c0,0.5-0.3,1-0.5,1.6
	c-1.4-0.5-2.5-1.1-3.7-1.3c-1.2-0.2-2.5,0.3-3.8,0.3c-8.1,0.1-16.2,0.1-24.2,0.3c-8.1,0.2-16.2,0.7-24.2,1.1
	c-7.1,0.4-14.1,0.9-21.2,1.2c-6.2,0.2-12.5,0.2-18.8,0.3c-6.6,0.1-13.3,0-19.9,0.2c-8.4,0.3-16.8,0.8-25.2,1.3
	c-1.3,0.1-2.7,0.1-4,0.2c-3.8,0.5-7.7,0.6-11.5,0c-0.3,0-0.6-0.1-0.9-0.1c-1.5,0.1-3.3,1.4-3.5,2.7c-0.3,1.3,0.5,2.7,2.1,3.5
	c1.2,0.7,2.5,0.8,3.9,0.4c1-0.3,2.1-0.6,3.1-0.7c7.7-0.7,15.5-1.5,23.2-1.9c10.7-0.5,21.3-0.7,32-1c6.9-0.2,13.8-0.1,20.6-0.4
	c6.9-0.3,13.9-0.9,20.8-1.3c10-0.5,19.9-0.9,29.9-1.1c6-0.1,12,0,18,0.1C269.2,316.1,271.4,317.2,273.9,316.1z M96.4,280.4
	c0.1,0.1,0.2,0.2,0.4,0.2c0,0.5,0.1,1,0.1,1.4c-0.2,10-1.4,20-2.3,30c-0.1,1.4-0.3,1.6-1.8,1.6c-3,0-5.9-0.2-8.9-0.1
	c-7.5,0.1-15,0.3-22.5,0.5c-4.6,0.2-9.2,0.5-13.8,0.7c-3.7,0.2-7.3,0.3-11,0.5c-7.9,0.5-15.7,1.1-23.6,1.5
	c-5.9,0.3-11.9,0.5-17.8,0.6c-6.4,0.1-12.8,0.1-19.1,0.2c-4.5,0.1-9,0.3-13.4,0.3c-8.8,0-17.5-0.3-26.3,0.3
	c-3.9,0.3-7.8,0.7-11.7,0.4c-1.5-0.1-3,0.1-4.5-0.3c-2.2-0.6-3.8,0.6-4.1,2.7c-0.3,2,1.2,3.8,3.3,3.8c2.5,0,5,0,7.5-0.5
	c2.7-0.5,5.4-0.6,8.1-0.6c1.9-0.1,3.9,0.4,5.8,0.2c5.6-0.8,11.2-0.8,16.8-1c5.9-0.1,11.7-0.1,17.6-0.1c5.3-0.1,10.6-0.2,15.9-0.3
	c7.4-0.2,14.8-0.3,22.2-0.7c6-0.3,12-0.9,18-1.2c7.5-0.5,15-0.8,22.5-1.2c4.2-0.2,8.4-0.4,12.7-0.6s8.6-0.4,12.9-0.3
	c4.2,0.1,8.4,0.5,12.6,0.9c2.1,0.2,2.2,0.6,2.1,2.7c-0.1,1.3-0.2,2.5-0.2,3.8c-0.2,7.1-0.2,14.1-0.5,21.2c-0.2,5.6-0.1,11.2-1,16.8
	c-0.4,2.2,0.9,4.6,2.8,5.6c2.1,1.1,5.8,1.1,7.4-0.4c1.8-1.7,3.1-3.6,3.4-6c0.5-3.6,0.7-7.1,1-10.7c0.3-3.2,0.5-6.4,1-9.6
	c0.6-4.5,1.5-9,2.1-13.5c0.9-6.4,1.8-12.7,2.7-19.1c1-6.8,1.2-13.7,1.3-20.6c0-2,0.1-4,0.2-6.1c0.1-1.7,0.5-1.9,2.2-1.6
	c0.4,0.1,0.8,0.1,1.1,0.3c1.4,0.7,2.8,0.7,4.3,0.6c2.1-0.2,4.3-0.5,6.4-0.6c5.5-0.4,11.1-0.8,16.6-1.1c9.2-0.5,18.4-0.8,27.6-1.2
	c4.4-0.2,8.8-0.2,13.3-0.5c5.4-0.3,10.8-0.8,16.2-1.1c8.5-0.5,17-1,25.5-1.4c6.1-0.3,12.1-0.5,18.2-0.4c7.6,0.2,15.1,0.7,22.7,1.1
	c1.4,0.1,2.8,0.3,4.1,0.4c1.8,0.1,2.8-1.1,2.6-2.9c-0.2-1.5-1.2-2.6-2.7-2.7c-0.6-0.1-1.3,0-1.9,0c-3.9,0-7.8,0-11.7-0.1
	c-4.9-0.1-9.8-0.6-14.8-0.5c-9.9,0.2-19.8,0.7-29.7,1.2c-3.3,0.1-6.6,0.4-9.8,0.5c-3.6,0.2-7.2,0.4-10.8,0.6
	c-4.3,0.2-8.6,0.5-12.9,0.6c-3.2,0.1-6.4,0.2-9.7,0.3c-6.9,0.3-13.8,0.5-20.6,0.8c-5.4,0.2-10.8,0.4-16.3,0.6c-2,0.1-4,0.2-6,0.2
	c-1.5,0-3-0.2-4.5-0.3c-0.8,0-1.5,0-2.3-0.1c-2-0.1-3.9-0.3-5.8,0.5c-0.3,0.1-0.7,0.1-1.2,0.1c-0.1-0.5-0.1-1-0.1-1.4
	c0.1-6.8,0.1-13.5,0.2-20.3c0.1-3.9,0.2-7.8,0.3-11.7c0.1-2.3,0.1-4.5,0.1-6.8c0-1.8,0.3-2.1,2-2.3c3.1-0.5,6.1-0.9,9.2-0.7
	c1.1,0.1,2.3,0.2,3.4,0.2c3.3,0,6.6-0.1,9.8-0.2c8-0.3,16-0.5,24-0.9c8.6-0.4,17.1-1,25.7-1.6c6.4-0.4,12.7-0.9,19.1-1.7
	c9.5-1.2,19.1-1.9,28.7-2.3c12.1-0.6,24.1-0.5,36.2,0.1c1.8,0.1,3-1.6,2.4-3.3c-0.5-1.3-1.6-2-3.1-2c-1.1,0-2.3,0.3-3.4,0.3
	c-5.6,0.1-11.2,0.3-16.8,0.3c-4.8,0.1-9.6-0.1-14.4,0.1c-7.8,0.4-15.6,1-23.4,1.6c-3.9,0.3-7.8,0.8-11.7,1.1
	c-6.2,0.5-12.5,1-18.7,1.5c-4.2,0.3-8.4,0.5-12.7,0.7c-6.7,0.3-13.5,0.6-20.2,0.8c-3.8,0.1-7.6,0.1-11.4,0.2c-3.1,0-6.3,0.1-9.4,0.1
	c-3.7,0-7.4,0-11.2,0c-0.8,0-1.6-0.1-2.4-0.3c-1.4-0.3-1.6-0.5-1.5-1.9c0.2-6.7,0.4-13.5,0.7-20.2c0.1-3,0.2-5.9,0.2-8.9
	c0.1-3.3,0.1-6.6,0.2-9.8c0-1.8,0.4-2.1,2.2-1.8c1.8,0.4,3.6,0.6,5.4,0.3c2.5-0.4,5-0.7,7.5-0.8c4.1-0.2,8.2-0.2,12.3-0.1
	c6.6,0,13.1,0.2,19.7,0.2c4.5,0,9-0.2,13.4-0.1c6.4,0.1,12.9,0.6,19.3,0.6c9.8-0.1,19.7-0.3,29.5-0.7c8.9-0.4,17.8-1.2,26.6-1.9
	c5.5-0.4,11.1-0.8,16.6-1.2c2.3-0.1,4.5-0.2,6.8-0.3c1.4-0.1,2.5-1.2,2.5-2.5c0-1.2-1.1-2.3-2.5-2.3c-0.7,0-1.4,0.1-2.1,0.1
	c-2.5,0.2-5,0.5-7.5,0.7c-3.1,0.2-6.3,0.4-9.4,0.6c-7,0.6-14,1.2-20.9,1.7c-5.2,0.4-10.3,0.8-15.5,1c-5.5,0.2-11.1,0.3-16.7,0.3
	c-4,0-8.1-0.2-12.1-0.2c-5.2-0.1-10.5-0.3-15.7-0.3c-4.5,0-9,0.1-13.4,0c-6.7-0.1-13.4-0.3-20.1-0.4c-4.5-0.1-9.1-0.3-13.6,0.1
	c-3.6,0.3-7-0.4-10.6-0.4c-2,0-2.1-0.3-2.1-2.3c0-0.6,0-1.1,0-1.7c0.1-4.5,0.4-9.1-0.6-13.6c-0.4-1.9-1.3-3-3.3-3.1
	c-3-0.1-5.9,0-8.9,0c-0.9,0-1.5,0.5-1.8,1.4c-0.4,1.3-0.8,2.6-0.4,4.1c0.3,1.2,0.3,2.4,0.3,3.6c0.2,10,0.3,20,0.4,29.9
	c0,4-0.1,8.1-0.2,12.1c-0.1,5.2-0.3,10.5-0.5,15.7c0,0.9,0.2,1.9-0.8,2.8c-1.4-0.3-2.8-0.7-4.3-1c-1.1-0.2-2.3-0.5-3.3-0.3
	c-2.5,0.5-4.9,0.4-7.4,0.3c-4.2-0.2-8.4-0.5-12.7-0.7c-5.3-0.2-10.6-0.3-15.9-0.5c-2.6-0.1-5.2-0.5-7.7-0.6
	c-7.4-0.4-14.8-0.9-22.1-1.2c-4.9-0.2-9.8-0.1-14.8-0.1c-4.7,0-9.3,0.2-14,0.2c-4.6,0-9.2-0.3-13.8-0.4c-4.5-0.1-9.1,0-13.6-0.1
	c-6.8-0.2-13.6-0.6-20.4-0.8c-5.2-0.2-10.5-0.3-15.7-0.4c-4-0.1-8-0.2-11.9-0.3c-2.5,0-5,0.3-7.6-0.1c-0.8-0.1-1.7,0.3-2.5,0.6
	c-1.5,0.7-1.7,0.6-1.8-1c-0.1-2.1,0-4.2,0-6.2c0-2.6-0.2-5.2-0.2-7.8c0-7.1,0.1-14.1,0.2-21.2c0-1.9-0.1-3.8-0.2-5.7
	c0-1.4,0.3-1.7,1.7-1.6c1.3,0.1,2.5,0.4,3.7,0.6c0.9,0.1,1.9,0.2,2.8,0.2c4.8-0.2,9.6-0.6,14.4-0.6c11.7,0,23.4,0.1,35.1,0.2
	c9.1,0.1,18.2,0.1,27.3,0.1c5.7,0,11.3,0.5,17,0.5c9.1,0,18.2,0.4,27.3,0.7c9.2,0.3,18.3,0.7,27.5,0.9c5.2,0.1,10.4-0.2,15.5-0.1
	c4.4,0.1,8.7,0.4,13.1,0.5c1.7,0.1,2.5-0.6,2.8-2.4c0.2-1.5-0.5-2.6-2-2.9c-0.6-0.1-1.2-0.1-1.9-0.1c-1.7,0.1-3.4,0.3-5.1,0.3
	c-1.8,0-3.7-0.1-5.5-0.1c-6.4,0-12.8,0.2-19.1,0.1c-8.2-0.2-16.4-0.5-24.6-0.8c-3.5-0.1-6.9-0.5-10.4-0.6
	c-6.2-0.1-12.4-0.1-18.5-0.2c-4.5-0.1-9.1-0.5-13.6-0.6c-6.1-0.1-12.2-0.1-18.4-0.1c-4.7,0-9.5,0.1-14.2,0.1
	c-10-0.1-20-0.3-29.9-0.3c-4.5,0-9,0.2-13.4,0.3c-2.6,0.1-5.3,0-7.9,0.3c-3.3,0.4-3.5,0.3-3.5-3c-0.1-3.3-0.2-6.6-0.4-9.8
	c-0.2-3.4-1.1-4.4-4.6-4.3c-2.5,0-5,0.3-7.5,0.6c-1.1,0.1-1.4,1.2-0.6,2c0.8,0.8,1.7,1.3,2.9,1.2c0.6,0,1.3-0.2,1.9-0.2
	c3.2-0.2,3.9,0.3,4.2,3.5c0,0.4,0.1,0.9,0.1,1.3c0.1,3,0.2,6.1,0.3,9.1c0.1,8.5,0.2,16.9,0.1,25.4c0,7.9-0.1,15.8-0.2,23.7
	c-0.1,8.7-0.1,17.4-0.2,26.1c-0.1,7.5-0.4,14.9,0.3,22.3c0.3,2.6,0.1,5.3,0.1,7.9c0,2.7,0,5.4,0.1,8.1c0.1,3.9,0.4,7.8,0.5,11.7
	c0.2,5.7,0.3,11.5,0.5,17.2c0.3,10.3,0.4,20.6,0.7,30.9c0.1,4.4,0.4,8.8,0.7,13.2c0.3,3.4-0.6,6.6-1.8,9.8c-0.5,1.2-0.9,1.3-2.1,0.8
	c-3-1.4-5.3-3.3-4.9-7c0-0.1,0-0.3,0-0.4c0.1-3.9,0.2-7.8,0.3-11.7c0-2-0.1-3.9,0-5.9c0.1-3.9,0.3-7.8,0.4-11.7
	c0.1-3.8,0.1-7.7,0.4-11.5c0.8-8.7,0.6-17.4,0.6-26.1c0-5.1-0.1-10.2-0.2-15.3c-0.1-4.2-0.1-8.5-0.2-12.7c-0.1-3.2-0.4-6.4-0.4-9.6
	c-0.1-4.5-0.1-9.1-0.2-13.6c-0.2-7.1-0.4-14.3-0.7-21.4c0-1-0.1-2-0.2-3c-0.6-5.8-1.1-11.5-1-17.4c0.1-4.3-0.2-8.7-0.4-13.1
	c-0.2-3.5-0.4-6.9-0.6-10.4c-0.2-3.3-0.3-6.7-0.4-10c-0.1-1.9,0.1-3.8-0.1-5.7c-0.1-0.9-0.5-2-1-2.7c-0.6-1-1.9-1.3-2.5-0.9
	c-0.8,0.6-0.8,1.5-0.8,2.4c0.1,1.5,0.2,3,0.2,4.5c0,1.8-0.1,3.5,0,5.3c0.4,7.7,0.9,15.4,1.3,23.1c0.3,5.9,0.2,11.9,0.5,17.8
	c0.2,3.6,0.8,7.2,0.9,10.8c0.3,7.6,0.4,15.3,0.5,22.9c0.1,2.8,0.1,5.7,0.2,8.5c0.2,4.5,0.5,9.1,0.6,13.6c0.1,4.5,0.2,9,0.2,13.4
	c0,4.1,0,8.2-0.1,12.3c0,2.1-0.1,4.2,0,6.2c0.3,5.9-0.1,11.7-0.3,17.6c-0.3,8.5-0.6,16.9-0.9,25.4c-0.2,6.2-0.4,12.4-0.5,18.5
	c0,1.5,0.1,3,0.3,4.5c0.4,2.2,1.6,3.8,3.6,4.9c1.6,0.8,3.1,1.8,4.7,2.5c1.3,0.6,2.8,0.9,4.2,1.1c1.8,0.2,2.5-0.6,2.6-2.4
	c0.1-0.9,0.2-1.9,0.4-2.8c0.3-1.4,0.7-2.7,1.1-4c0.8-2.9,1.1-5.8,0.6-8.8c-0.3-1.9-0.3-3.9-0.4-5.8c0-0.7,0-1.4,0-2.1
	c-0.2-6.2-0.4-12.5-0.7-18.7c-0.3-8.1-0.6-16.1-0.8-24.2c-0.3-8.1-0.5-16.3-0.6-24.4c0-1.2,0-2.5,0.7-3.7c0.8,0.4,1.5,0.9,2.3,1.1
	c2.7,0.6,5.4,1.2,8.2,1c3.8-0.3,7.7-0.5,11.5-0.7c1.8-0.1,3.7,0.1,5.5,0c14-0.3,28-0.6,42-0.9c7.8-0.2,15.5-0.1,23.3-0.4
	c10-0.4,19.9-1.2,29.9-0.8c3,0.1,6.1,0,9.1,0.2c9,0.6,17.9,0.1,26.9-0.3c7.6-0.3,15.3-0.6,22.9-0.2
	C94.3,281.4,95.5,281.5,96.4,280.4z"/>
</svg>
