<?xml version="1.0" encoding="utf-8"?>
<!-- Generator: Adobe Illustrator 19.1.0, SVG Export Plug-In . SVG Version: 6.00 Build 0)  -->
<svg version="1.1" id="Layer_1" xmlns="http://www.w3.org/2000/svg" xmlns:xlink="http://www.w3.org/1999/xlink" x="0px" y="0px"
	 viewBox="-122 -123.6 595.3 841.9" style="enable-background:new -122 -123.6 595.3 841.9;" xml:space="preserve">
<style type="text/css">
	.st0{fill:#FFFFFF;}
</style>
<g>
	<g>
		<path class="st0" d="M-121.5,321.2c0.4-0.1,0.8-0.1,1.4-0.2c0.1,0.8,0.4,1.4,0.3,2.1c-0.2,5.8-0.5,11.6-0.6,17.4
			c-0.2,6.9-0.2,13.7-0.4,20.6c0,1.8-0.5,3.6-0.8,5.4C-121.5,351.3-121.5,336.3-121.5,321.2z"/>
		<path class="st0" d="M38.4,66.7c0-0.4,0.1-0.7,0.1-1.3c-1.5,0.3-2.4,0.8-2.8,2.2c-0.2,1-0.9,1.6-1.8,2.1c-1.5,1-2.7,2.2-4.1,3.4
			c-0.4,0.3-0.8,0.5-1.2,0.8s-0.9,0.5-1.1,0.9c-0.8,2.1-2.4,3.5-3.8,5.1c-1.2,1.4-2.3,3.1-3.1,4.8c-0.7,1.4-1.7,2.5-2.8,3.6
			c-0.8-0.3-1.5-0.6-2.2-0.9c-2,2.2-3.9,4.3-5.9,6.5c-0.3,0.4-0.6,0.7-1,1.1c-1.4,1.4-3,2.7-4.3,4.2c-2.3,2.6-4.4,5.3-7,7.7
			c-2.5,2.3-4.7,5.1-7,7.7c-1.8,2.1-3.7,4.1-5.5,6.2c-1.3,1.5-2.4,3.2-3.6,4.8c-2.3,3.2-4.6,6.5-6.8,9.7c-1.1,1.7-2.2,3.4-3.3,5
			c-0.9,1.2-1.9,2.4-2.9,3.6c-0.8,1.1-1.6,2.3-2.4,3.4c-1,1.3-2.1,2.6-3.1,3.9c-1.4,1.9-2.7,3.8-4,5.7c-0.5,0.7-1,1.5-1.5,2.2
			c-1.6,2.2-3.2,4.4-4.6,6.7c-2.7,4.4-5.2,8.9-7.7,13.4c-1,1.8-1.7,3.8-2.6,5.6c-2.7,4.9-4.1,10.3-6.4,15.4
			c-0.8,1.8-1.9,3.1-3.7,3.9c-0.5,0.2-1.1,0.6-1.2,1c-1,2.8-2.8,5.3-2.8,8.4c0,0.5-0.5,1-0.7,1.5c-0.4,0.9-0.7,1.7-1,2.6
			c0.7,0.2,1,0.4,1.7,0.6c-2.8,1.9-4,4.4-3.9,7.6c0.5,0.2,1,0.5,1.5,0.7c0,0.4,0.1,0.6,0,0.9c-1.1,3.9-2.2,7.9-3.4,11.8
			c-0.1,0.5-0.3,1-0.5,1.3c-0.8,1-0.7,2.1,0,2.9c1.1,1.2,0.7,2.4,0.5,3.7c-0.7,4.1-2.3,8-2.4,12.3c0,1.1-0.7,2.2-0.8,3.3
			c-0.5,3.3-0.8,6.7-1.3,10c-0.2,1.1-0.7,2.2-1,3.2c-0.2,0.5-0.3,1.1-0.5,1.7c0.2,0.1,0.3,0.2,0.5,0.3c0.5-0.6,1-1.2,1.3-1.9
			c0.5-0.8,0.8-1.8,1.3-2.6c0.4-0.9,1-1.8,2.2-1.7c1.2,0.1,2.3,0.8,2.6,2c0.9,3.5,1.1,7-0.9,10.3c-0.5,0.9-1,1.9-1.6,2.7
			c-3,3.9-4.5,8.5-6.4,12.9c-0.7,1.5-1,3.4-3.2,3.4c-0.3,0-0.6,0.5-0.8,0.8c-1.2,1.7-2.3,3.5-3.4,5.2c-0.5,0.7-1,1.5-1.6,2.1
			c-1,1.3-2.1,2.5-2,4.3c-3.3,1.8-4.1,5.1-4.9,8.4c-0.4,1.5-0.4,3-2,3.9c-0.4,0.2-0.6,1-0.8,1.6c-0.6,1.7-1.2,3.3-1.7,5
			c-0.7,2.4-1.8,4.7-2,7.2c-0.2,2.6,0.3,5.3,0.5,7.9c0,0.2,0.1,0.3,0.1,0.5c-0.3,3.1,0.9,6,1.7,8.9c0.4,1.5,0.7,3.3,2.1,4.5
			c0.6,0.5,0.7,1.1,0.6,1.9c-0.2,0.9,0,1.9-0.1,2.9c-0.1,1.3,0.5,2,1.6,2.6c1.6,0.9,2.8,2.2,3.4,4.2c0.5,1.8,1.2,3.9,3.6,4.5
			c0.6,0.1,1.1,0.9,1.4,1.6c2.8,5.2,6.4,9.9,9.8,14.7c1.4,1.9,2.5,3.9,3.8,5.9c0.8,1.3,1.7,2.6,2.6,3.7c0.3,0.4,1.1,0.5,1.7,0.7
			c1.3,0.6,2.7,1.1,3.8,2c0.8,0.7,1.1,1.9,1.6,2.9c1.6,2.7,3.8,4.1,7,4.5s6.3,1.3,9.5,2c2.8,0.6,5.5,1.4,8.2,1.9
			c0.9,0.2,1.9-0.1,2.9,0c2.1,0.2,4.2,0.4,6.3,0.7c5.2,0.7,10.4,1.4,15.6,2.1c1.9,0.3,3.6,0.9,5,2.3c0.3,0.3,0.7,0.7,1.1,0.9
			c2.1,1.3,4.2,2.6,5.1,5.2c0.3,1,1.4,1.8,2.1,2.6c2.2,2.5,1.9,4.6-1,6.6c-1.3-0.4-2.2-1.2-2.5-2.6c-0.5-1.8-1.6-3.1-3.1-4.2
			c-2.1-1.6-4-3.6-6.7-4.2c-1-0.2-2-0.6-3.1-0.7c-3.6-0.5-7.2-0.8-10.8-1.3c-2.9-0.4-5.8-1-8.7-1.4c-0.9-0.1-1.8,0.4-3.1,0.7
			c-1.2-1-3.1-0.8-4.9-0.8c-1.6,0-3.2,0.3-4.8,0.3c-0.7,0-1.4-0.3-2.1-0.5c-1.7-0.4-3.4-0.9-5.1-1.3c-0.2,0-0.4,0.2-0.7,0.3
			c-0.1,1.3,0.9,1.9,1.7,2.4c2,1.1,4,2.1,6.1,2.9c0.5,0.2,1.3-0.4,2-0.6c0.6,2.4,2.7,3.6,5.4,3c0.8,0.7,1.4,1.3,2.1,1.8
			c0.5,0.4,1.1,0.7,1.5,1.2c1.2,1.3,2.5,2.3,4.3,2.6c0.5,0.1,1,0.2,1.3,0.6c1.5,1.8,3.6,2,5.6,2.5c1.9,0.5,2.7,1.6,2.7,3.5
			c0,0.8-0.4,1.7,0.5,2.2c1.1,0.5,2.3,1,3.5,0.3c0.4-0.2,0.8-0.5,1.5-0.9c0,0.8,0.3,1.4,0.1,1.8c-0.9,1.3-0.2,2.3,0.5,3.3
			c1.7,2.2,1.6,3.4,0.1,5.6c-0.9,1.2-2.3,1.6-3.6,0.9c-0.8-0.4-1.7-0.9-2.1-1.6c-1-1.6-2.3-2.8-3.7-4c-1.4-1.1-2.9-2.1-4.1-3.3
			c-2.2-2.1-5.1-3.3-7.3-5.4c-2.2-2-4.6-3.9-7.2-5.6c-0.6-0.4-1.3-0.7-1.9-1c-3.5-1.8-7-3.7-10.5-5.3c-2.7-1.2-5.6-2.1-8.3-3.1
			c-0.6-0.2-1.1-0.6-1.5-1c-1.6-1.4-3.2-2.6-5.4-3c-0.1,0.4-0.3,0.8-0.2,0.8c1.8,1.8,2.4,4.6,4.8,5.9c0.4,0.2,0.8,0.6,1,1
			c1.2,2.9,3.4,5.1,5.4,7.3c0.6,0.6,1,1.4,1.6,2.2c0.6-0.8,1-1.4,1.8-2.4c0.3,1.3,0.5,2.2,0.7,3.2c0.1,0.5,0.4,0.9,0.6,1.3
			c1.1,2.4,4.2,3.4,4.5,6.3c1.9,1.7,3.8,3.4,5.7,5.2c0.3,0.3,0.7,0.7,0.9,1.1c1.2,2.4,3.2,4.1,5.2,5.6c0.4,0.3,0.9,0.6,1.3,0.6
			c1.7,0,2.4,1.1,3.2,2.2c0.9,1.3,2,2.5,2.8,3.9c1.1,1.7,1.7,3.6,1,5.7c0.6,0.8,1.1,1.6,1.6,2.3l0.1-0.1c-3-0.8-4.3,1.4-6,3.1
			c0.4,1.8,1.9,0.9,3,1.3c-0.1,0.3-0.1,0.6-0.3,0.8c-1.4,1.7-1.4,2,0.9,3.1c-0.5,1.3-0.1,2.4,1.1,3.3c0.4,0.3,0.8,1,0.8,1.5
			c0.1,3.2,1.9,5.2,4.3,6.9c0.5,0.4,1,0.8,1.5,1.2c0.9,0.6,1.3,1.3,1,2.5c-0.3,0.9,0,1.7,0.7,2.4c0.6,0.7,1,1.6,1.6,2.5
			c2.2,0,2.2,0,2.5,2.2s1.8,3.4,4.1,2.9c1.1-0.2,1.9,0,2.8,0.4c1.1,0.4,2.3,0.8,3.5,1c1,0.2,2,0.5,2.6,1.5c0.6,1,1.6,1.5,2.8,1.8
			c1.5,0.3,2.9,0.9,4.3,1.4c1.7,0.6,3.4,1.1,5,1.7c0.5,0.2,1.2,0.2,1.5,0.6c1.2,1,2.3,1.2,3.4,0c0.6,0.5,1.2,1,1.8,1.5
			c0.9-1.2,1.9-0.9,3.2-0.7c3.7,0.8,7.5,1.2,11.2,2c1.8,0.4,3.8,0.9,5.3,2c2.2,1.7,4.8,2.9,6.6,4.5c-0.2,1.2-0.4,2.2-0.4,3.1
			c0,0.1,1.1,0.2,1.6,0.3c0.3-0.4,0.4-0.5,0.4-0.6c-0.2-2.5,0.7-3.1,2.9-2.3c1.7,0.6,3.2,1.7,5.3,1.3c0.9-0.2,2,1.1,3,1.7
			c0.8,0.5,1.4,1.1,2.6,0.5c1-0.5,2.1,0.5,2.2,1.9c0.1,1.6,0,3.2,0,5.2c1.1-0.3,1.8-0.5,2.7-0.7c-0.3-0.8-0.5-1.3-0.8-2.1
			c1.9,0,3-1,3.7-2.5c0.2-0.4,1-1,1.3-0.9c1.4,0.6,1.8-0.8,2.9-1.1c2.2,0.7,1.1,2.7,1.4,3.9c1.1,0.8,2,1.5,3.2,2.3
			c1.4-0.2,3.1-0.6,3.5,1.4c0.9,0.1,1.6-0.1,2.1,0.2c1.7,1,3.3,1.1,5-0.2c0.2-0.2,0.6-0.2,0.9-0.2c0.7,1-0.1,1.3-0.5,1.8
			s-0.7,1-1.1,1.7c1.2,0.3,2.2,0.6,3.2,0.6c0.9,0.1,1.9-0.2,3-0.3c0.6-1,1.2-2.1,1.9-3.3c1,0.4,2.2,0.8,3.5,1.2c0.1,0.4,0,1,0.3,1.3
			c0.3,0.4,0.9,0.5,1.3,0.7c0.1-0.5,0.4-1.2,0.2-1.4c-0.7-1-1.5-1.9-2.5-2.6c-0.8-0.6-1.3-1.2-0.9-2.4c1.6,1,3.3,1.7,5.1,1
			c1.5-3.1,1.7-3.2,5.3-2.4c0.6-0.7,0.1-1.3-0.4-1.6c-1.5-0.9-1.6-2.1-0.8-3.5c0.2-0.4,0.1-1,0.3-1.4c0.5-1.1,1.1-2.1,2.7-2
			c3.3,0.2,5.9-1,7.7-4.2c-0.5-0.5-1-1-1.6-1.4c-0.8-0.6-1.2-1.4-0.8-2.3c0.5-1,0-1.6-0.6-2.4c-1.3-1.7-2.5-3.4-3.7-5.1
			c-0.1-0.1-0.2-0.3-0.3-0.4c-3-1.8-4-5.4-6.8-7.4c-0.2-0.2-0.4-0.5-0.5-0.8c-0.3-1.7-1.4-2.9-2.4-4.1c-0.9-0.9-1.3-1.8-1.2-3.2
			c0.1-2.3-1.6-3.8-2.8-5.4c-1.8-2.4-3.6-4.7-3.6-8c0-0.5-0.3-1.1-0.5-1.6c-0.1-0.3-0.5-0.6-0.5-0.8c0.3-1.8-0.6-3.1-1.7-4.3
			c-0.3-0.3-0.5-1-0.4-1.4c0.5-2.4-0.9-4.5-0.8-6.8c0.1-2.2-0.2-4.5-0.4-6.8c-0.2-2.4-0.6-4.8-0.9-7.2c-0.3-2.7-1.3-5.1-3-7.3
			c-1.4-1.8-2.8-3.5-4.2-5.3c-0.1-0.1-0.3-0.2-0.3-0.4c-1.4-3.4-4.5-5.4-6.5-8.4c-0.4-0.6-1-1.6-0.8-2.1c0.6-1.6-0.2-2.8-1-3.8
			c-1.4-1.9-3.1-3.7-4.7-5.5c-0.4-0.4-0.7-0.9-1.1-1.3c-0.4-0.5-0.7-1.3-1.2-1.5c-2.4-0.9-2.8-3.4-4.2-5c-1.3-1.5-2.9-2.7-4.5-4
			c-1.3-1-2.7-2-4.2-2.9c-1.4-0.8-3-1.5-4.5-2.1c-2.1-0.8-4.3-1.5-6.4-2.3c-0.9-0.4-1.7-0.5-2.8-0.1c-1.7,0.7-2.6,0.2-3.2-1.4
			c-0.6-1.8-1.9-3-3.1-4.3c-1.6-1.8-3.3-3.5-5-5.2c-0.3-0.3-0.8-0.5-1.2-0.8c-1.2-0.8-2.4-1.6-3.6-2.4c-0.6-0.4-1.2-0.9-1.8-1.1
			c-1.6-0.5-2.6-1.7-3.1-3.2c-1.2-4-2.4-8.1-3.4-12.1c-0.2-0.9,0.3-2,0.4-3s0.3-2.1,0.1-3c-0.2-1-0.3-1.8,0.6-2.3s1.5,0.3,1.9,0.9
			c0.1,0.1,0.3,0.2,0.4,0.2c2.1-1.5,3-1.2,3.8,1.3c0.7,2.2,1.3,4.4,2.2,6.6c-0.1-1.2-0.3-2.3-0.2-3.4c0.1-0.6,0.5-1.8,0.9-1.8
			c0.7,0,1.6,0.4,2,0.9c0.6,0.8,1,1.9,1.2,2.9c0.8,3.7,1.5,7.4,2.3,11.5c1.3-1.1,2.5-1,3.5,0.3c1.8-5,3.4-9.7,5.2-14.5
			c0.6-1.7,1.6-3.2,2.4-4.8c2.3-4.3,4.6-8.7,7.1-12.9c1.5-2.7,3.3-5.2,5.1-7.7c0.5-0.8,1.2-1.5,2-2.1c1.9-1.4,3.8-2.7,5.4-4.4
			c1.8-1.9,4.2-1,4.6,1.7c0.4,2.6,0.7,5.1,0.9,7.7c0.1,0.6-0.1,1.3-0.4,1.9c-1.6,3.4-0.4,6.8-0.5,10.1c1.1,0.3,2.2,0.3,2.6,0.9
			c0.5,0.7,0.5,1.8,0.5,2.7c0.2,4.2,0.5,8.4,0.6,12.6c0,1-0.1,2.1-0.1,3.1c0.1,3.2,0.3,6.3,0.3,9.5c0,4.8,0,9.7,0,14.5
			c0,1.8,0,3.6,0,5.3c-0.1,3.5,0.9,6.7,2.5,9.7c0.4,0.7,0.9,1.4,1,2.2c0.3,2.1,1.6,2.6,3.7,2.5c0.1-1.5,0.3-3,0.4-4.5
			c0.2-2.6,0.4-5.2,0.6-7.7c0.1-1.2,0-2.4,0-3.6c0-0.6,0-1.3,0.2-1.9c1.3-3.8,0.7-7.3-1.4-10.6c-1-1.5-1.7-3.1-1.9-4.9
			c-0.2-1.5-0.5-3-0.8-4.5c-0.7-3.3-0.5-6.4,1.2-9.4c0.1-0.2,0.3-0.4,0.3-0.7c0.9-5,2.9-9.7,2.3-15c-0.4-3.2,0.5-6.6,0.7-9.9
			c0.1-2.2,0.2-4.3,0.2-6.5c0-4-1-7.8-1.4-11.7c-0.2-1.5,0.5-3.1,0.9-4.6c0.4-1.6,0.9-3.1,1.4-4.6c0.1-0.3,0.3-0.7,0.2-0.9
			c-0.8-2.7,0.5-5.1,0.8-7.6c0.1-0.9,0.2-1.8,0.4-2.6c0.1-0.6,0.1-1.3,0.3-1.9c0.7-1.8,1.3-3.6,2.2-5.3c1-1.9,1.6-3.9,1.4-6
			c0.6-0.4,1.1-0.9,1.7-1.1c1.2-0.5,1.9-1.1,1.9-2.5c0-0.5,0.4-1.1,0.8-1.5c1.4-1.3,2-3.1,2.8-4.8c1.9-4,4-7.9,5.9-11.9
			c0.7-1.5,1.2-3.1,1.8-4.7c0.7-1.7,1.4-3.4,2.1-5.2c0.1-0.3,0.3-0.6,0.5-0.8c2.7-2.3,4-5.4,5.2-8.5c1.8-4.7,3.4-9.6,5.2-14.4
			c0.8-2.3,1.9-4.6,2.6-6.9c0.4-1.4,0.9-3.1,0.5-4.5c-0.7-3.2,0.6-5.7,1.9-8.3c0.6-1.3,1.3-2.6,2-3.9c0.8-1.6,1.7-3.1,2.6-4.7
			c1.6-2.8,3.3-5.5,5-8.3c2.1-3.3,4.2-6.7,6.5-9.9c1.2-1.8,2.7-3.4,4.1-5.1c2-2.5,4-5,6-7.4c0.7-0.8,0.6-1.6,0.2-2.5
			c-0.9-2.2-0.7-2.3,1-3.8c2-1.7,4-3.6,5.8-5.4c1-1,1.6-2.2,1.1-3.7c-0.3-0.9-0.4-1.9,0.7-2.7c0.4,0.9,0.8,1.6,1.2,2.4
			c0.3,0,0.6,0.1,0.8,0c2.2-1.8,4.7-3.3,5.3-6.6c0.4-1.9,1.4-3.6,2.4-5.3c0.6-1,0.8-2,0.9-3.2c0-0.9,0.2-2,0.8-2.7
			c2.2-2.9,4.5-5.7,7-8.4c0.9-1,1.2-1.9,0.5-3c-0.8-1.3-0.8-2.6,0.4-3.7c0.7-0.6,0.6-1.4,0.3-2.2c-0.3-0.6-0.6-1.5-0.4-2.1
			c0.5-1.3,0.4-2.2-0.6-3.3c-0.5-0.6-0.4-2.2,0.2-2.9c1.3-1.7,3-3.2,4.6-4.6c1-0.9,1.9-1.7,2-3.2c0.1-1.6,1.1-2.8,2.4-3.7
			c2.2-1.5,4.3-3.2,6.4-4.9c1-0.8,1.7-1.8,1.6-3.3c0-0.8,0.5-1.9,1.1-2.5c1.1-1,2.4-1.9,3.7-2.6c0.9-0.5,1.1-0.9,0.9-1.9
			c-0.5-2.2-0.2-2.8,1.5-4.1c2.9-2.3,6.4-3.5,9.5-5.2c1-0.5,1.7-1,2.2-2c0.4-0.7,1-1.5,1.8-1.9c2-0.9,4-1.7,6-2.4
			c1.2-0.4,2.3-0.8,3.1-1.8c0.3-0.3,0.6-0.6,0.7-1c0.3-1.2,1.1-1.7,2.3-1.6c0.6,0,1.3-0.1,1.9-0.4c3.2-1.7,6.7-2.4,10-3.4
			c0.5-0.2,1.1-0.5,1.4-0.9c1-1.3,2.4-1.5,3.9-1.5c3.7,0,7.4-0.5,11.1-1.2c3.9-0.7,7.9-1.3,11.9,0.4c1.6,0.7,3.6,0.5,5.4,0.6
			c2.2,0.1,4.4-0.1,6.5,0c6,0.4,12,0.7,17.9,1.3c2.1,0.2,4.3,0.9,6.3,1.4c1.3,0.4,2.6,0.9,3.8,1.4c0.6,0.3,1.2,0.7,1.8,1.1
			c0.5,0.4,1.2,0.9,0.7,1.5c-0.3,0.4-1.2,0.6-1.7,0.5c-2.2-0.4-4.4-1-6.6-1.6c-3.3-0.9-6.5-1.8-9.9-1.8c-2.3,0-4.6-0.4-6.9-0.6
			c-1-0.1-2.1-0.5-3.1,0.7c2.3,2.4,5,4.2,8.4,5.7c-0.5-1.7-0.8-2.8-1.2-4.2c2.8-0.1,5.2-0.4,7.2,1.5c0.4,0.4,1,0.8,1.5,0.8
			c3.7,0.1,5.6,2.9,8.1,4.9c1.8,1.4,3.3,3.1,5,4.6c0.2,0.2,0.5,0.6,0.7,0.6c2.3-0.5,3.2,1.5,4.4,2.7c1.4,1.4,2.5,3,3.8,4.4
			c0.7,0.7,1.5,1.3,2.6,2.2c0.4-1.8-0.3-2.9-0.9-4.1c-0.9-1.9-1.8-3.8-2.5-5.7c-0.2-0.4,0.2-1,0.3-1.5c3.8,0.2,4.6,3.2,5.7,6.2
			c0.5-0.7,0.8-1.1,1-1.5c0.4-0.6,0.9-0.7,1.6-0.5c2.2,0.5,3.7,1.9,5,3.7c1.7,2.3,3.3,4.7,5,7.1c0.3,0.5,0.7,0.9,1.2,1.5
			c1.6-1.3,2.9,0.1,4.4,0.7c0.1-0.4,0.2-0.7,0.2-0.8c-1.4-2-2.8-4.1-4.4-6.1c-2-2.5-4.1-4.8-6.1-7.2c-0.2-0.3-0.4-0.7-0.5-1.1h-0.1
			c0.7-0.4,1.3-0.8,2.1-1.2c1.8,2.5,3.9,4.8,5.3,7.4c2.3,4.4,5.8,7.9,8.9,11.7c1.5,1.8,3,3.6,4.5,5.4c0.7,0.9,0.3,1.3-0.5,1.6
			c-1-0.8-0.7-2.3-2.2-2.8c-1-0.3-1.8-1.5-3-2.5c-0.1,0.8-0.4,1.4-0.2,1.7c3.5,5.9,7.5,11.5,12.2,16.7c0.2-1.9-1.6-3.5-0.5-5.6
			c1.1,0.7,2.5,1.3,3.2,2.3c1.2,1.6,2.1,3.4,4.5,3.5c0.3,0,0.6,0.3,0.9,0.4c0.5,0.1,1,0.2,1.9,0.4c-0.4-0.9-0.5-1.5-0.8-2
			c-0.8-1.1-1.6-2.2-2.5-3.3c-1-1.3-2-2.6-3-3.8c-2.2-2.6-4.5-5.1-6.8-7.6c-0.2-0.2-0.1-0.6-0.3-1.4c0.7,0.6,1,0.8,1.3,1.1
			c3.5,4,6.9,8.1,10.4,12.2c2.1,2.4,4.1,4.8,6.3,7c4.4,4.3,8.8,8.5,13.3,12.7c0.3,0.3,0.7,0.5,1.2,0.8c0.4-1.3-0.1-2.1-0.8-2.8
			c-2.8-3.3-5.7-6.6-8.5-9.9c-0.8-0.9-1.3-2.1-2.3-2.8c-2.7-1.9-4.8-4.5-7.1-6.8c-1.4-1.4-2.7-2.8-4-4.2c-1.6-1.7-3.2-3.4-4.8-5.1
			c-0.4-0.5-0.9-1-1.4-1.4c-1.4-1.1-2.5-2.5-3-4.3c-0.1-0.4-0.5-0.8-0.7-1.2c-2.1,1.2-1,2.8-0.6,4.3c-3.5-3-6.4-6.2-8.6-10.1
			c-0.7-1.3-1.5-2.5-2.5-3.5c-2.2-2.3-4.5-4.3-6.7-6.6c-2.2-2.2-4.3-4.6-6.5-6.9c-1.4-1.5-3.1-2.7-5.4-2.9c1.8,1.8,3.5,3.6,3.8,6.2
			l0.1-0.1c-1.1,0.3-2.1-0.1-2.8-1c-1.6-2-3-4-4.5-6c-1-1.3-1.9-2.6-2.8-4c-0.5-0.8-1-1.6-1.7-2.7c1.2-0.4,2-0.6,2.8-0.9
			c3.3,3.1,6.2,6.2,10,8.9c0.4-1.1,0.6-1.8,0.9-2.8c0.8,0.9,1.7,1.6,2.3,2.5c2.4,3.7,5.7,6.5,8.9,9.5c2.2,2.1,4.2,4.5,6.2,6.8
			c0.4,0.5,1,0.9,1.3,1.4c1.5,2.1,3.7,2.3,5.9,2.4c0.5,0,1,0.2,1.4,0.5c0.5,0.4,1,0.9,1.3,1.4c2.1,3.1,5.1,5.4,7.7,8
			c1.6,1.6,3.4,2.9,5.2,4.3c1,0.7,2.1,1.3,2.4,2.8c0.2,0.7,1.1,1.3,1.8,2.2c0.4-0.6,0.7-0.9,0.9-1.2c1.8,1.8,3.7,3.6,5.5,5.4
			c-0.6,0.9-1.2,0.9-1.9,0.4c-3.7-2.4-7-5.1-9.7-8.6c-1-1.3-2.7-2.1-4.1-3.2c-0.2,0.1-0.3,0.3-0.5,0.4c0.7,0.9,1.3,1.9,2,2.8
			c0.5,0.8,0.9,1.7,1.4,2.5c0.7,1.2,1.3,2.5,2.2,3.5c2.1,2.3,4.4,4.5,6.6,6.7c0.9,0.9,1.9,1.5,3.3,1.1c1-0.3,1.5,0.2,2.1,0.9
			c2.1,2.4,4,4.9,6.2,7.1c2.3,2.5,4.8,4.8,7.3,7.1c2.6,2.5,5.3,4.9,8,7.4c1.8,1.6,3.6,3.3,5.4,4.9c0.4,0.3,1,0.4,1.7,0.2
			c-1.6-1.6-3.3-3.2-4.9-4.9c-1.2-1.3-2.1-2.8-3.2-4.2c-0.3-0.4-0.8-0.7-1.2-1.2c-1-1.1-1.9-2.1-2.8-3.2l-0.1,0.1
			c0.5,0.2,1,0.4,1.8,0.8c-0.2-0.8-0.2-1.3-0.4-1.6c-2.6-3.4-5.2-6.7-7.9-10.1c-0.3-0.4-0.8-0.8-1.3-1.1c-2.2-1.7-4.4-3.5-6.7-5.2
			c-0.7-0.5-1.1-1-1.4-1.8c-0.7-1.6-1.9-2.9-3.1-4.2c-1-1.2-2.2-2.3-3.4-3.4c-0.4-0.4-1.1-0.6-1.4-0.7c-1-1.6-1.8-3-2.6-4.4
			c0.1-0.1,0.2-0.2,0.3-0.3c0.9,0.7,1.7,1.7,2.8,2c0.9,0.2,2.1-0.4,3.5-0.7c1.2,1.2,2.6,2.7,3.1,4.8c0.4,1.5,0.4,1.5,2,2.7
			c0.2-0.2,0.4-0.4,0.5-0.7c0.4-1.4,1.4-1.4,2.3-0.7c1.2,0.9,2.5,1.9,3.3,3.1c0.6,1,1.2,1.8,2,2.5c1.7,1.6,3.4,3.3,5.1,4.9
			c0.3,0.3,0.7,0.6,1.1,0.9c2-1.8,3.7-1.9,5.7-0.2c1.7,1.5,3.3,3,5,4.5c2.4,2.2,4.8,4.4,7.2,6.5c0.7,0.6,1.7,1,2.8,1.3
			c-1.2-2.3-2.2-4.6-4.5-6.1c-1.1-0.7-2-1.7-2.8-2.6c-0.3-0.3-0.3-1.1-0.1-1.5c0.2-0.3,0.9-0.5,1.4-0.5c1.6,0,2.9,0.8,4,1.9
			c1,0.9,2,1.6,3.6,1.7c1.8,0,3.4,1.1,4.9,2.4c2,1.8,3.6,4.2,6.1,5c1.4-0.7,2.7-1.3,4.1-1.9c0,0,0-0.3-0.2-0.5
			c-0.4-0.6-1.1-1.3-0.3-1.9c0.5-0.4,1.5-0.3,2.2-0.2c0.4,0,0.9,0.3,1.4,0.5c0.1-0.4,0.2-0.7,0.3-1c0.2-1.8,0.5-2.1,2.3-1.5
			c1.5,0.5,2.7,0.3,3.7-1c2,0.6,3.8,1.2,5.7,1.9c0.8-1.3,0.1-2.2-0.4-3.1c-0.3-0.5-0.9-0.8-1-1.4c-0.2-0.7-0.4-1.7-0.1-2.2
			c0.5-0.8,1.6-0.6,2.4-0.1c0.6,0.4,1.3,0.7,1.9,1.1c0.4,0.3,0.8,0.6,1.2,0.9c1.9,1.2,1.9,1.2,3.7-0.5c1.2,1.1,2.4,2.2,3.6,3.2
			c1-0.6,0.8-1.2,0.5-1.9c-1-2.2-2.1-4.4-3.1-6.6c0-0.1-0.1-0.1-0.1-0.2c-1.1-2.5-1.1-2.8,1.1-4.9c-0.3-0.5-0.5-1.1-0.9-1.6
			c-0.6-0.9-0.9-1.8-0.5-3c0.3-0.8,0.2-1.7,0.2-2.7c1.7-1,2.9-3.1,5.6-2.7c1.9,1.4,0.5,4.7,3.4,5.8c0.3-0.7,0.6-1.5,0.9-2.3
			c0.1-0.1,0.3-0.3,0.4-0.3c2.5-0.3,2.7-0.6,1.6-2.7c-0.5-0.9-0.8-1.9-1.2-2.9c-0.6-1.5-1.1-2.9,0.7-4.1c0.9-0.6,0.6-1.5,0-2.3
			c-2.2-3-4.4-6-6.6-9c-0.8-1.1-1.9-1.9-2.8-2.9c0.6-1,1.1-1.8,1.6-2.7c1.6,1,11.8,14,12.3,16.1c0.7,3.1,3.2,5.5,3.6,8.8
			c-1.7,0.2-2.2-0.7-2.7-1.7c-0.5-1.1-0.9-2.2-1.5-3.3c-0.2-0.4-0.7-0.7-1.3-1.2c-0.6,1.4-0.5,2.5-0.1,3.5c2,4.6,3.5,9.4,6.5,13.5
			c0.5,0.7,0.7,1.8,0.9,2.7c0.1,0.8-0.7,1.4-1.4,0.8c-0.5-0.4-0.9-0.9-1.3-1.4c-1.1-1.4-2.1-2.7-3.2-4.1c-0.2,0.1-0.4,0.1-0.6,0.2
			c0,0.6-0.3,1.2-0.1,1.7c1.2,2.5,1.6,5.5,3.6,7.6c0.1,0.1,0.1,0.1,0.1,0.2c0.1,3.1,2.9,4.7,4.1,7.6c0.7-2,0.5-3.8,0.6-5.6
			c0.2-1.9,0.1-3.9,0.2-5.8c0.1-1.8,0.3-3.7,0.5-5.5c0.2,0,0.4,0,0.6-0.1c0.3,1.6,0.9,3.2,1,4.9c0.1,4.7,0.1,9.4,0.1,14.1
			c0,0.3-0.1,0.6-0.1,1c-0.2,6-0.3,12-0.5,18c-0.2,5-0.3,10-0.5,15c0,0.8,0,1.6,0.2,2.4c0.3,1,0.2,1.8-0.2,2.8
			c-0.3,0.7-0.4,1.6-0.4,2.4c-0.1,1.3,0,2.6,0,3.8c-2.2,0.4-2.4,0.3-2.5-1.4c0-0.6,0.1-1.3,0.2-1.9c0.1-1.4,0.2-2.9,0.3-4.6
			c-1.1,0.3-1.9,0.6-2.7,0.8c-0.7,0.9-0.5,1.8,0.1,2.7c0.2,0.3,0.5,0.6,0.7,1c0.4,0.7,1.4,1.5,0.5,2.3s-1.9,0.2-2.7-0.3
			c-1.6-1-3.2-2.2-4.8-3.2c-0.5-0.4-1.1-0.7-1.6-1c-0.2,0.1-0.5,0.2-0.5,0.3c-0.6,2.4-1,2.6-3.2,1.5c-3.3-1.7-6.7-3.3-10-4.9
			c-0.6-0.3-1.4-0.7-2.1-0.7c-1.8,0.2-3.2-0.3-4.7-1.3c-2-1.2-4.2-2-6.3-2.9c-0.3,0.2-0.6,0.3-0.7,0.4c-1.4,2.1-2,2.3-4,0.8
			c-1.6-1.1-3-2.3-5.3-1.8c-0.7,0.1-1.6-0.7-2.3-1.2c-2.8-2-5.6-4.1-8.4-6.2c-0.9-0.7-1.9-1.1-3.1-0.7c-1.4,0.5-2.8-0.2-3.9-1
			c-2.7-1.9-5.3-3.9-7.9-6c-2.2-1.7-4.4-3.5-6.6-5.2c-0.2,0.1-0.3,0.2-0.5,0.4c0.2,0.4,0.2,1,0.5,1.3c1.9,2.3,3.8,4.6,5.9,6.8
			c1.4,1.5,3,2.7,4.4,4.1c0.7,0.7,1.3,1.6,1.7,2.6c0.2,0.4,0,1.2-0.4,1.5c-0.3,0.3-1.1,0.2-1.5,0c-0.8-0.5-1.5-0.9-2.5-0.8
			c-0.4,0.1-1-0.2-1.3-0.5c-4.9-4.6-9.9-9.3-14.8-13.9c-1.2-1.2-2.5-2.3-3.7-3.5c-1.3-1.2-2.6-2.4-3.9-3.6c-0.4-0.4-1-0.7-1.6-0.8
			c0.3,1.8,1.5,3,2.8,4c1.3,1.1,1.4,2.2,1,3.5c-1.5,0.6-2.3-0.2-3-1.1c-3.7-4.3-7.4-8.5-11.1-12.8c-1-1.2-1.8-2.4-2.8-3.6
			c-0.5-0.6-1.1-1.1-1.9-1.9c0,0.8-0.2,1.3,0,1.6c2.2,3.5,4.4,7,6.7,10.4c1.5,2.2,3.1,4.3,4.6,6.5c0.2,0.3,0.5,0.6,0.4,0.8
			c-0.1,0.7-0.1,1.5-0.5,1.9c-0.7,0.6-1.6,0.3-2.1-0.4c-0.9-1.2-1.8-2.5-2.7-3.8c-0.9-1.3-1.9-2.6-2.9-3.9c-0.8-1-1.4-2.1-3-2.2
			c-0.7,0-1.4-1-1.9-1.7c-2-2.7-3.9-5.5-6-8.2c-2-2.6-4.2-5.1-6.4-7.6c-1.6-1.8-3.3-3.4-5.2-5c-2.1-1.7-3.5-4.2-5.3-6.3
			c-2-2.4-3.9-4.7-5.9-7.1c-1-1.2-2.1-2.5-3.1-3.7c-0.6-0.7-1.4-1.3-2.3-2.2c0,2.2,1.4,4.1-1,5.7c-0.8-0.4-1.7-0.8-2.6-1.3
			c-2.2,1.4-2.5,1.2-4.5-0.9c-3.3-3.4-6.5-7-10.8-9.2c-2.1-1.1-4-2.8-5.7-4.5c-3-3-6.4-5.6-9.8-8.1c-0.4-0.3-0.9-0.5-1.9-1
			c0.8,2.4,2.2,3.7,3.7,4.8c1,0.8,2.2,1.4,2.9,2.4c1.2,1.6,2.6,2.8,4.2,3.9c1.9,1.2,1.9,2.2,0,3.8c-2.2-1-4.2-2.6-5.9-4.3
			c-2.4-2.3-5.3-4-8.1-5.7c-3.2-2-6.6-3.8-10-5.4c-2.2-1.1-4.6-1.8-7-2.5c-2.8-0.9-5.9-1.1-8.6-2.6c-0.8-0.4-1.9-0.5-2.8-0.8
			c-1.9-0.4-3.8-0.7-5.5-1.9c-0.5-0.4-1.4-0.4-2.1-0.5c-1.2-0.1-2.4-0.2-3.6-0.3c-0.5,0-1,0-1.4,0.2c-5.8,2.5-11.7,5.1-17.5,7.6
			c-4.6,2-8.9,4.5-13.4,6.7c-2.9,1.4-4.6,4-7,5.8c-0.5,0.4-0.5,1.4-0.9,2.1c-0.3,0.6-0.5,1.4-1,1.8c-2.7,2.3-5.5,4.4-8.3,6.7
			c-2.1,1.7-4.2,3.5-6.2,5.4c-1.5,1.4-3,2.8-2.1,5.2c-0.2,0.3-0.3,0.5-0.5,0.6c-2.6,1.4-4,3.9-5.5,6.3c-0.5,0.9-0.9,1.9-1.1,2.9
			c-0.3,1.6-1.9,2.8-1.3,4.8c0.1,0.4-0.7,1-1.1,1.5c-1.9,2.3-3.9,4.5-5.7,6.9c-1,1.3-2,2.8-2.7,4.3c-0.5,1.2-0.6,2.7-0.5,4
			c0.1,1.1-0.4,1.7-1,2.3c-0.8,0.8-1.6,1.6-2.4,2.4c0.3,0.4,0.5,0.7,0.7,0.9c1.4,1.7,1.2,3.5-0.5,4.8c-0.9,0.8-1.8,1.6-2.7,2.4
			c-0.9,0.8-1.3,1.8-1.1,3.1c0.1,0.3,0.2,0.7,0.1,1c-1.6,3.7-0.4,7.4,0,11c0.1,1.2,0,2.2-0.7,3.2c-2.4,3.2-4.1,6.8-5.7,10.4
			c-0.7,1.5-0.8,3.1-0.4,4.7c0.2,0.8,0,1.7-0.3,2.5c-0.4,1.2-1,2.3-1.5,3.5c-0.3,0.7-0.5,1.6-0.9,2.2c-1.7,2.2-1.8,4.8-2.3,7.3
			c-0.6,3.4-1.1,6.9-1.7,10.3c-0.3,1.5,0,2.8,0.3,4.3c0.7,3,1.8,6.1,0.9,9.4c-0.8,0.2-1.6,0.3-2.7,0.5c-0.1,1.3-0.2,2.6-0.3,3.9
			c-0.2,4.8,0.4,9.5,1.9,14.1c1.1,3.6,1.9,7.4,1.3,11.4c-0.6,4.3-2,8.2-3.4,12.3c-1.7,4.6-4.1,8.8-6.1,13.2c-1.1,2.3-3,4.2-5.5,5.5
			c-2,1-4.3,1.5-5.7,3.4c-0.2,0.2-0.5,0.3-0.9,0.4c-4.3,0.9-8.4,0.8-11.9-2.6c-1-0.9-2.3-1.5-3.5-2.1c-2.6-1.3-4.8-2.9-6-5.7
			c-0.1-0.3-0.3-0.7-0.5-0.8c-2.7-1.3-4-3.8-5.3-6.4c-1.6,1.4-2,3.3-2.9,4.8c-0.6,1.1-1.1,2.3-1.9,3.3c-0.9,1.2-1.6,2.4-1.8,3.9
			c-0.1,0.5-0.1,1-0.3,1.4c-1.9,4.6-4,9.1-6.3,13.5c-1,1.8-1.5,3.9-2.2,5.9c-0.1,0.4,0.1,0.9,0.2,1.4c0.3,1.9-0.2,2.7-1.9,3.5
			c-0.4,0.2-0.8,0.6-1,1c-1.5,3.4-3.2,6.7-4.4,10.2c-1,2.7-0.9,5.5,0.3,8.5c0.4-0.8,0.9-1.4,1-2.1c0.4-2.5,1-4.9,2.2-7.1
			c0.3-0.5,0.1-1.3,0.1-1.9c0-0.8,0-1.6,0.2-2.3c0.8,2.8,0,5.6-0.4,8.3c-0.6,4.1-1.2,8.2-1.5,12.3c-0.1,1.6,0.4,3.3,0.6,5
			c0.2,1.8,0.4,3.7,0.3,5.5c-0.2,4.5-0.6,9-0.8,13.5c-0.1,1.8,0.3,3.7,0.3,5.6c0.1,3.1,0.1,6.1,0,9.2c0,2-0.6,3.9-2,5.4
			c-1.5,1.6-1.2,3.2-0.2,4.6c1.2,1.7,1.6,3.5,2.1,5.4c0.1,0.5,0.2,0.9,0.2,1.4c0,2.2,0,4.5,0,6.6c0.9,0.3,1.9,0.4,2.2,0.8
			c0.4,0.6,0.2,1.5,0.2,2.2c0,2.5,0,5,0,7.5c0,3.7,0.1,7.4,0.1,11.1c0,1.4,0.1,2.7,0.2,4.1c0.4,3.4,0.8,6.8,1.2,10.2
			c0.1,0.8,0.5,1.5,0.9,2.2c1.2,2.4,3.1,4.6,3.3,7.4c0,0.5,0.2,1,0.1,1.4c-0.2,2.3,0.2,4.5,0.9,6.8c1.4,4.3,2.2,8.7,3.2,13.1
			c0.2,1,0.6,2,1,3c0.1,0.2,0.3,0.5,0.3,0.6c-0.6,3.1,1.4,5.3,2.7,7.7c0.5,0.9,1,1.8,0.6,2.7c-0.5,1.1-0.1,1.9,0.6,2.6
			c2.1,2.1,3.4,4.8,4.6,7.5c0.2,0.4,0.4,0.9,0.7,1.3c2.6,3.5,5.3,7,8,10.5c0.5,0.6,1.2,1,1.8,1.5c0.4,0.3,0.8,0.5,1.1,0.9
			c3.1,4.4,7,8.1,10.1,12.4c1,1.3,1.5,3,2.2,4.5c-1.1,0.6,0.5,2-0.9,2.6c-0.3,0.1-0.3,0.8-0.3,1.3c-0.3,2.4-0.5,4.8-0.9,7.2
			c-0.4,2-1.6,3.6-3.4,4.7c-1.9,1.1-3.7,2.2-5.5,3.3c-0.7,0.4-1.5,0.8-2,1.4c-2.5,2.9-6,4-9.2,5.5c-1.1,0.5-2.4,0.4-3.6,0.5
			c-2.6,0.3-5.1,0.6-7.7,0.9c-1.3,0.1-1.5,0.5-1.3,2c0.1,0.9,0.2,2-0.1,2.8c-0.5,1.4-0.3,2.4,1.1,2.8c0,1.3-0.3,2.3-1.7,2.7
			c-0.8,0.2-1,1-0.9,1.8c0.4,3.5-0.8,6.8-0.8,10.2c0,4.7,0.4,9.2,2.9,13.3c1.4,2.3,1.1,5,1.5,7.5c0.3,1.9,0.3,3.8,0.7,5.7
			c0.3,1.6,0.2,3-0.7,4.4c-1.2,1.8-2.1,3.8-1.7,6.1c0.5,2.9-1.4,4.5-3.7,5.6c-1.3,0.6-2.5,1-3.1,2.5c-0.2,0.4-0.8,0.8-1.4,0.9
			c-2.1,0.8-4.2,1.8-6.4,2.1c-3.5,0.5-7.1,0.5-10.7,0.5c-3.2,0-5.9-1.7-9.2-3.4c1-0.2,1.5-0.3,1.9-0.4c1.4-0.3,1.9-1,1.4-2.4
			c-0.5-1.3-1.3-2.6-1.6-4c-1.2-5.1-2.4-10.2-3.5-15.3c-0.2-0.7-0.1-1.7,0.2-2.4c1-2.1,0.2-4-1.1-5.4c-1.9-2.1-3.1-4.5-4.3-6.9
			c-0.2-0.5-0.7-1-1.2-1.1c-2.5-0.7-2.5-2.9-2.9-4.8c-0.4-1.8,0.1-3.8-1.1-5.6c-0.6-0.9-0.2-2.4-0.4-3.5c-0.3-1.6-0.9-3.1-1.2-4.7
			c-0.5-2.6-0.9-5.2-1.2-7.9c-0.5-3.4-1-6.9-2.3-10.1c-0.2-0.5-0.3-1.1-0.4-1.6c-0.5-2.2-1-4.4-1.7-6.5c-0.1-0.5-0.6-0.9-1.1-1.2
			c-0.9-0.6-1.9-1.1-2.9-1.6c-3.9-2-7.9-3.9-11.9-5.8c-1.5-0.7-3-1.5-4.6-2c-1.2-0.4-2.6-0.5-3.9-0.7c-2.3-0.5-4.6-1.1-6.9-1.5
			c-1-0.2-2.3-0.1-3,0.5c-1.3,1.1-2.8,0.8-4.2,0.8c-1-0.1-1.9,0-2.3,0.8c-0.5,1-1.6,2-1,3.3c0.8,1.8,0.2,3.3-0.6,4.8
			c-2.2,4.1-4.5,8.1-6.5,12.3c-1.2,2.5-2.3,5.1-2.4,8c0,0.9-0.5,1.9-1.1,2.6c-1.5,1.8-1.3,3.9-0.9,5.9c0.2,1.1,0.6,2.2,1,3.2
			c0.6,1.4,0.6,2.9,0.7,4.4c0.2,3.2,1,6.3,1.6,9.4c0.1,0.5,0.4,0.9,0.7,1.3c-1.5,2.4-1.6,5.3-0.2,8c-0.6,0.6-1.2,1.2-0.7,2.3
			c0.7,1.6,0.1,3.5-0.5,4.8c-0.7,1.5-0.5,2.8-0.5,4.2c0,1.1-0.3,1.8-0.9,2.6c-0.8,0.9-1.5,1.8-2.3,2.7c-0.7,0.9-1.4,1.7-2.1,2.5
			c-2.1,0.7-4.4,1.1-6.4,2c-2.8,1.3-5.2,0.5-7.7-0.5c-1.5-0.6-2.5-1.6-3.2-3.3c-0.3-0.9-1.7-1.6-2.8-2c-1.5-0.6-2.5-1.3-3.4-2.8
			c-1.4-2.2-3.3-4.1-5.3-5.8c-1.7-1.4-2.7-3.3-3.6-5.3c-0.4-0.9-0.9-1.5-1.8-2.1c-1.2-0.8-2.3-2.2-2.9-3.6c-0.8-1.9-1.5-3.6-3.6-4.5
			c-0.8-0.3-1.2-1.1-1.3-2.2c0-1.3-0.2-2.6-0.6-3.8c-0.2-0.6-0.8-1.2-1.3-1.5c-1-0.5-1.4-1.3-1.5-2.3c-0.3-3.8,0-7.6,0.6-11.4
			c1-5.5,3-10.9,3.3-16.6c0.1-1.5,0.8-2.9,1.1-4.4c0.2-0.6,0.3-1.3,0.3-1.9c0.1-1.5,0.1-3.1,0.4-4.5c0.8-3.2-0.4-6.2-0.4-9.3
			c0-1.1,0.2-2.2,0.4-3.3c0.4-1.7,0.8-3.4,0.4-5.2c-0.3-1.2,0-2.5,0.2-3.8c0.3-1.8,0.2-2.2-1.4-3.2c-1.5-0.9-1.7-2.1-1.8-3.7
			c-0.2-3.9,0.7-7.7,1.1-11.5c0.5-4.4,1.1-8.7,1.4-13.1c0.1-2.6-0.3-5.3-0.5-7.9c-0.3-3.7-1.9-7.2-1.9-10.9c0-1.2-0.6-2.3-1-3.5
			c-0.5-1.5-1-3.1-1.6-4.6c-0.1-0.3-0.4-0.6-1-1.3c0,1.3,0,2,0,2.6c-0.7-2.8-1.8-5.5-1.1-8.5c0.4-1.9,0.3-4.1-0.2-6
			c-0.4-1.5-1.5-2.8-2.5-4c-1.6-1.9-2.5-4.4-4.8-5.7c-0.7-2.3-3.1-3.6-3.7-6.1c-0.4-1.6-1.2-3.1-3-3.9c-0.9-0.4-1.5-1.6-2-2.6
			c-0.2-0.4,0.1-1.3,0.4-1.7c1.2-1.3,1.3-2.7,0.3-4c-1-1.4-1-3-1.7-4.4c-0.9-1.8-1.9-3.5-2.7-5.4c-3.5-7.2-6.8-14.5-9.3-22.1
			c-0.6-1.9-1.1-3.9-2.1-5.6c-1.3-2.5-2.7-4.9-3.2-7.7c-0.1-0.8-1-1.4-1.5-2.2c-0.5-0.9-1.2-1.6-1.1-2.8c0.1-1.6-1.3-2-2.9-2.4
			c-0.1-1.2-0.2-2.5-0.3-3.7c-0.1-1-0.1-1.9-0.2-2.9c-0.2-1.3-0.4-2.5-0.7-3.8c-0.2-0.8-0.4-1.6-0.9-2.2c-0.7-0.9-0.8-1.9-0.6-3
			c0.3-2.1,1.3-4.2,0.5-6.4c-0.1-0.3,0.1-0.6,0.2-0.9c1-3,2.3-5.9,2.9-8.9c0.6-3.4,2.8-5,5.4-6.6c2.4-1.6,3.4-4.2,4.6-6.7
			c1.5-3.4,2-7.3,4-10.6c0.6-0.9,0.5-2.3,0.7-3.5c0.4-1.9,0.7-3.8,1.4-5.6c1.4-3.6,2.5-7.1,2.7-11c0-0.8,0.5-1.5,0.7-2.3
			c1.5-4.3,2-8.9,2.9-13.4c0.4-1.6,0.1-3.3,0.2-5c0-0.6,0.1-1.3,0.3-1.9c0.9-3.1,1.2-6.4,2.8-9.4c0.2-0.3,0.3-0.8,0.3-1.2
			c0-5.3,1.4-10.5,1.8-15.8c0.3-3.7,0.9-7.4,1.2-11.1c0.1-1.1,0.6-2.4,1.2-3.3c1.6-2.4,2.7-4.7,2.2-7.7c-0.2-1.6-0.1-3.4,1.2-4.8
			c0.3-0.3,0.5-0.9,0.5-1.3c0.3-4.1,1.5-8.1,2.6-12c0.6-2.3,1.3-4.6,1.6-7c0.1-1.1,0.6-2.2,1.2-3.2c0.3-0.5,1-1.1,1.6-1.2
			c1-0.1,1,0.9,1.1,1.6c0,0.2,0.2,0.4,0.5,0.8c0.3-0.5,0.7-0.8,0.8-1.1c0.7-3.1,2.7-5.4,4.4-8c0.5-0.7,1.1-1.5,1.3-2.3
			c0.5-2,1.7-3.6,3-5.1c1.4-1.5,1.3-1.6,3.6-0.9c1.2-1.7,2.4-3.3,3.6-5.1c4.1-6.1,8.2-12.1,12.2-18.3c2-3.1,3.8-6.4,5.7-9.5
			c0.6-1,1.3-1.8,1.9-2.8c0.5-0.7,0.9-1.5,1.2-2.3c0.6-1.6,0.9-2.1,2.6-3.5c2.3,1.4,3.8,0.1,5.2-1.7c1.6-2,3.2-4.1,4.8-6
			c0.7-0.8,1.8-1.4,2.5-2.2c1.5-1.7,2.9-3.5,4.4-5.1c1.6-1.6,3.3-3,5-4.5c1-0.9,2.1-1.8,3.1-2.7c1.3-1.3,2.6-2.7,4-3.8
			c1-0.9,2.2-1.6,3.4-2.3c2.2-1.1,4-2.6,5.3-5c0.5,0.3,0.9,0.5,1.5,0.9c0.3-0.4,0.7-0.7,0.7-1.1c0.1-1.3,0.8-2,1.6-2.9
			c1.3-1.2,2.4-2.6,3.7-3.8c0.9-0.9,2-1.6,3-2.3c3.1-2.3,5.2-5.6,7.7-8.4c3.6-4.1,7.2-8.1,11.9-11c1.1-0.7,2-1.8,2.9-2.8
			c2-2,4-4,6-6c0.8-0.9,1.5-1.9,2.4-2.7c0.4-0.4,1.1-1,1.5-0.9c1.5,0.4,2.7-0.1,3.9-0.9c0.3-0.2,0.7-0.1,1.2-0.1
			c0.3,1.1-0.5,1.3-1,1.8c-0.8,0.8-1.5,1.6-2.3,2.5c-0.3,0.4-0.5,0.8-0.9,1.1c-2.3,2.2-4.6,4.5-7,6.7C41.8,64.4,40.1,65.5,38.4,66.7
			L38.4,66.7z M44.4,565.8c-0.1-0.2-0.3-0.4-0.5-0.5s-0.4,0-0.6,0c0.2,0.2,0.3,0.5,0.5,0.6C43.9,565.9,44.2,565.8,44.4,565.8
			c0,0.2-0.1,0.4-0.1,0.6c-0.2,0.6-0.3,1.3,0.5,1.6s1.4-0.1,1.6-1.3C45.7,566.4,45,566.1,44.4,565.8z M45.6,387.5
			c0.3-1.7-0.2-3.2-1.1-4.6C44.9,384.4,45.3,386,45.6,387.5c0.8,3.3,1.5,6.7,2.3,10.1c0.4,1.9,1.7,2.5,3.4,1.7
			c-0.8-0.8-1.8-1.6-2.3-2.6c-0.8-1.9-1.3-3.9-2-5.9C46.7,389.7,46.1,388.6,45.6,387.5z M49.5,375.8c0-1.2,0.2-2.4,0-3.6
			c-0.7-5.8-1.5-11.5-2.4-17.2c-0.2-1.2-0.5-2.3-0.9-3.5c-1,0.6-0.9,1.3-0.8,2c0.5,4.2,0.7,8.3,1.4,12.5
			C47.5,369.3,47.4,372.9,49.5,375.8c0,0.7-0.5,1.3-1.2,1.1c-0.5-0.1-1.2-0.6-1.4-1c-0.4-1-0.7-2.1-0.9-3.2
			c-0.8-3.9-1.6-7.7-2.4-11.6c0-0.2-0.3-0.4-0.7-1c0.1,1.9,0,3.4,0.3,4.8c0.5,2.6,1.2,5.1,1.8,7.7c1,4.5,1.9,8.9,2.9,13.4
			c0.3,1.5,0.5,3,0.9,4.5c0.2,0.7,0.6,1.3,0.9,2c1.6-0.5,1.5-1.6,1.4-2.5c-0.2-3.6-0.3-7.1-0.6-10.6C50.4,378.1,49.9,377,49.5,375.8
			z M58.4,564.3L58.4,564.3c-0.4,0.8-0.8,1.7-1.2,2.6c-1.1,0.1-2.1,0.2-3,0.1c-1.2-0.1-2.2,0.3-3.1,1.1c-0.5,0.4-1,0.8-1.5,1.2
			c-4.3,3.4-5.6,9-3.2,13.5c1.6,3,3.2,6,4.9,9c0.8,1.4,1.3,2.7,1.4,4.3c0.4,5.8,4.4,10.5,10.1,10.9c1.9,0.1,4,0.2,5.7-0.5
			c2.8-1.3,4.9-3.6,6.2-6.5c0.3-0.8,1.1-1.4,1.7-2.2c-1.3-2.3-0.7-4.8-0.1-7.5c-1.2-0.5-1.1-1.8-1-3c0.1-2.7,0.1-5.3-0.9-7.9
			c-0.4-1.2-0.8-2.3,0.5-3.2c0.2-0.2,0.2-0.7,0.2-1.1c-0.1-1.8-0.3-2.2-2.3-2.5c-1.9-0.3-2.9-1.4-3.9-3.3c1.6,0.1,2.9,0.2,4.4,0.2
			c0.4-1.5-0.3-2.5-1.4-3.1c-1.5-0.7-3.1-1.2-4.7-1.8c-1-0.3-2-0.5-3-0.9c-1.2-0.5-2.3-1.3-3.5-1.8c-2.3-0.8-4.8-0.3-7-1.7
			c-0.9-0.6-1.8,0.3-1.6,1.5c0.1,0.6,0.2,1.2,0.3,1.9c1.8-0.3,3.6-0.6,5.7-1c-0.5,0.6-0.8,1-1.2,1.5
			C57.5,564.2,57.9,564.3,58.4,564.3z M104.6,256c-1.9,1.5-2.7,3.6-3.2,5.8c-0.4,2-0.3,4.2-0.9,6.2c-0.8,2.3-0.5,4.5-0.3,6.7
			c0.3,2.1,1,4,2.9,5.4c0.9-0.9,0.8-1.7,0.6-2.7s-0.1-2.3,0.4-3.2c0.8-1.6,2-1.6,3.3-0.4c1.1,1,0.9,2.1,0.8,3.4
			c-0.4,3.8,0.3,7.4,2.6,10.6c1.2,1.7,1.9,2,3.8,1.1c1-0.5,2-1,3.2-1.6c-0.1-1-0.2-1.9-0.3-2.9c-0.3-1.6,0.2-2.9,1.3-3.6
			c1.3-0.7,2.1,0.2,3,0.9c1.4,1.2,2,1.1,3.2-0.3c0.4-0.5,0.7-1.1,1.1-1.6c1.1-1.7,2.1-3.4,3.2-5.1c0.8-1.3,1.4-2.6,0.9-4.3
			c-0.5-1.6,0.4-3.2,2-3.7c1.4-0.4,1.9-1.4,2.1-2.6c0.3-1.8,0.5-3.7,0.6-5.5c0.1-2.6,0.2-5.2,0-7.7c-0.2-2.9-0.8-5.8-1.1-8.6
			c-0.6-4.5-0.9-9,0.6-13.4c0.2-0.7,0-1.8-0.4-2.5c-1-1.8-1.8-3.6-2.1-5.6c-0.1-1.1-0.8-2.2-1.2-3.3c-0.2-0.1-0.4-0.1-0.6-0.2
			c-0.3,0.5-0.6,0.9-0.9,1.4c-1.6,2.3-3.1,4.7-4.7,7c-0.8,1.2-1.9,2.2-2.6,3.5c-1.6,3.1-3.8,6.1-4.5,9.6c0,0.2-0.3,0.4-0.5,0.7
			c-0.6-0.2-1.1-0.4-2.2-0.8c2.5-1.6,2.1-4.1,2.7-6.3c-0.8,0.4-1.5,0.9-1.9,1.6c-0.7,1.1-1.2,2.3-1.9,3.3c-0.6,0.9-1.4,1.6-2.2,2.5
			c-1.5-0.8-1.5,0.5-1.8,1.3c-0.4,1.1-0.6,2.4-1.1,3.4c-1,2-1.5,4.1-1,6.3c0.3,1.5-0.2,2.5-1.1,3.5
			C105.6,254.7,105.1,255.4,104.6,256L104.6,256z M-44.9,531.6c0.7-1.5,2.2-1.8,1.9-3.3c-1.3,0.2-2.6,0.4-3.8,0.6
			c-1.3,0.2-1.4,1.1-1,2.2c-3.3-0.4-5.8,0.6-8,2.6c-0.8,0.8-1.7,1-3,0.2c0.3,1.2,0.8,2.1-0.3,2.7c-0.2,0.1-0.3,0.6-0.3,0.9
			c-0.1,2-0.3,4-0.3,6c0,4.1,0.1,8.3,0.1,12.4c0,6.2,0,12.5,0,18.7c0,2.4,0.6,4.6,2.1,6.6c0.8,1,1.5,2.1,2.1,3.3
			c1.9,3.5,4.8,5.3,8.7,5.8c4.6,0.6,8.1-1.2,10.5-5c2.5-4,2.7-8.3-0.1-12.3c-0.9-1.3-1.4-2.4-0.3-3.3c-0.3-1.1-0.7-1.9-0.7-2.7
			c-0.1-2.1,0-4.2,0-6.3c0-4.9,0.2-9.7,0.1-14.6c0-2.6-0.6-5.2,2.1-7.1c-0.7-0.3-1.1-0.5-1.5-0.7c-0.5-0.2-1.1-0.2-1.4-0.6
			c-1.4-1.8-2.8-3.8-3.9-5.3C-43,532.2-43.9,531.9-44.9,531.6z M431.6,164.3c2.1-1.4,2.2-1.4,4.1-0.3c0.6,0.4,1.3,0.7,1.8,1.2
			c3,2.2,6,4.4,8.9,6.7c0.7,0.5,1.3,0.8,2.2,0.5c2.4-0.8,4.6-0.6,6.3,1.5c0.2,0.3,0.9,0.4,1.2,0.3s0.6-0.7,0.5-1
			c-0.1-0.7-0.3-1.4-0.6-2c-0.4-0.9-0.9-1.7-1.3-2.6c-0.8-1.7-1.5-3.4-2.3-5c-0.3-0.7-0.7-1.5-0.8-2.3c-0.1-0.5,0.3-1.1,0.5-1.7
			c0.7,0.2,1.3,0.4,1.9,0.7c0.2,0.1,0.3,0.6,0.4,0.9c1.7,4,3.7,7.8,6.5,11.5c0.1-0.4,0.1-0.7,0.1-1c0-0.5,0-1-0.1-1.5
			c-0.8-6.8-3.1-13.2-5.9-19.4c-1.2-2.7,0-5.4-1-8c-0.1-0.2,0.1-0.5,0.2-0.7c1.7-1.9,0.4-3.9,0.2-5.8c0-0.4-0.9-0.8-1.4-0.9
			c-0.2,0-0.6,0.7-0.9,1.2c-0.1,0.1,0,0.3,0,0.5c-0.4,1.8-1.1,2.1-2.7,1.3c-0.6-0.3-1.3-0.7-2-1.1c-1.2,0.9-2.4,0.8-3.7-0.1
			c-2.1-1.5-4.3-2.8-6.4-4.3c-0.8-0.6-1.4-1-2.4-0.7c-0.1,1.4,0.8,2.3,1.4,3.3c0.7,1.4,0.2,2.3-1.3,2.6c-1.2,0.2-2.1-0.3-2.8-1.1
			c-0.6-0.6-1.1-1.4-2.5-1c0.3,1.6,1,2.9,2.5,3.9s2.6,2.2,2.3,4.3c-0.6,0.3-1.3,0.7-2,1.1c0.3,1,0.7,1.8,0.9,2.6
			c0.1,0.4-0.1,1.1-0.4,1.2c-0.4,0.2-1.1,0.3-1.5,0.1c-1-0.5-1.9-1.2-2.9-1.8c-0.5-0.3-1.3-0.7-1.8-0.5c-1.6,0.7-2.8,0-4.1-0.7
			c-0.3-0.1-0.7-0.1-1-0.1c0.2,0.9,0.7,1.4,1.1,1.9c0.5,0.6,1.2,1.2,1.4,1.9c0.2,0.6,0.1,1.6-0.2,2c-0.4,0.4-1.3,0.3-1.9,0.2
			c-0.6-0.1-1.2-0.6-1.6-1c-1.9-1.8-3.8-3.7-5.7-5.5c-1.5-1.4-1.6-1.4-3.5-0.1c-1-0.4-2-0.8-3.2-1.2c0,0.7,0.1,1.2,0,1.6
			c-0.1,0.6-0.2,1.4-0.6,1.6c-0.4,0.2-1.2,0-1.7-0.2c-1.3-0.8-2.8-1.5-3.8-2.6c-2-2.5-4.7-3.9-7.2-5.7c-1.5-1-2.7-2.3-4.6-3.8
			c0.6,1.9,1,3.3,1.4,4.8c-0.9,0.4-1.5,0.7-2.3,1.1c0.2,0.4,0.3,0.7,0.5,0.9c2.7,2.6,5.6,4.8,8.6,7c1,0.8,2,1.7,3.1,2.3
			c2.5,1.5,5.1,2.9,7.7,4.5c1.4,0.8,2.5,2,3.8,2.9c1,0.6,1.9,1.2,2.4,2.3c0.4,0.9,1.1,1.2,2.2,1.1c2.4-0.2,4.7,0,6.8,1.6
			c1.2,1,2.5,1.8,3.8,2.6c2,1.2,4,2.4,6,3.6c0.4,0.2,0.9,0.2,1.7,0.4C434.5,167.7,432,166.8,431.6,164.3z M458.8,144.5
			c0.8-5.8-1.7-10.9-3.2-16.2c-0.1-0.3-0.5-0.6-0.9-1c-0.2,0.6-0.6,1-0.5,1.3C456.1,133.8,456.2,139.5,458.8,144.5z M451.8,128.1
			c2.6-2.3,2.5-5.2-0.3-8.6c-0.9,0.5-1.3,1.1-0.8,2.2c0.7,1.3,0.4,2.5-0.7,3.5c-0.2,0.2-0.3,0.7-0.4,1.1
			C450.4,126.9,451,127.5,451.8,128.1z M378.3,129.6c-0.2,0.2-0.4,0.3-0.6,0.5c0.9,1.2,1.7,2.4,2.7,3.5c1.1,1.2,2.3,2.3,3.6,3.2
			c1.1,0.8,1.8,2.4,3.6,2.3C384.6,135.8,382,132.2,378.3,129.6z M51.2,402.1c-0.7,1.2-1.4,2.1-1.9,3.1c-0.3,0.6-0.5,1.6-0.2,2
			c0.8,1.1,1.8,2.2,3.6,2.6C52.2,407,51.7,404.7,51.2,402.1z M66.3,370.3c-1.2,1.4-0.9,3.1-0.9,4.6c-0.1,1.6-0.6,3.3,0.4,5.2
			C67.3,376.7,66.3,373.5,66.3,370.3z M146.2,172c-0.1-0.1-0.2-0.2-0.3-0.4c-2.5,2.1-4.4,4.7-6,7.6c-0.1,0.2,0.1,0.7,0.2,1.6
			C142.3,177.6,144.2,174.8,146.2,172z M47.8,535.9c0.5-1,0.5-2-0.3-2.1c-1.4-0.2-2.9-0.6-4.5,0.3C44.3,536,46.2,535.3,47.8,535.9z
			 M-82.3,258.3c1.4-2.5,1.7-4.1,1-6.1C-81.6,254.3-82,256.3-82.3,258.3z M63.7,540.2c0,0.2,0.1,0.5,0.1,0.7c0.7,0,1.4,0.3,2,0.1
			c0.3-0.1,0.5-0.8,0.7-1.3c-0.4-0.2-0.9-0.5-1.2-0.4C64.7,539.5,64.2,539.9,63.7,540.2z M39,532.1c0.8,1.3,1.4,2.3,2,3.3
			C42.3,533.3,42,532.9,39,532.1z M-51.4,165.1c-1.5,0.7-2.1,1.8-2.2,4C-52.2,167.6-51.5,166.5-51.4,165.1z M44.4,562.3
			c-1.3-1.1-1.3-1.1-3-0.8C42.4,563.5,42.8,563.6,44.4,562.3z M30.4,529.7c-0.7-0.5-1.2-0.9-1.8-1.1c-0.3-0.1-0.8,0.1-1.2,0.2
			c0.1,0.4,0,0.8,0.2,1.1C28.2,530.5,28.9,531,30.4,529.7z M212.8,77.5c-1.7,0.2-1.7,0.2-2,1.6C212.7,79.5,212.9,79.4,212.8,77.5z
			 M48.9,560.2c-0.9-0.7-1.6-0.9-2.2,0.1c-0.1,0.2,0.1,0.9,0.3,1C48,561.8,48.5,561.1,48.9,560.2z M141.8,182.3
			c-0.8,1-2.1,1.8-1.4,3.7C141.7,185,141.5,183.6,141.8,182.3z M45.7,557.3c-1-0.7-1.5-1.5-2.6-1C43.9,557.8,43.9,557.8,45.7,557.3z
			 M113.8,227.5c-0.2,1.1-0.4,1.9-0.6,2.8C114.8,228.7,114.8,228.7,113.8,227.5z M105.8,252.1c0.2-0.9,0.3-1.6,0.4-2.2
			C104.9,250.3,104.2,250.9,105.8,252.1z M-25.2,511.6c-0.8-0.9-0.8-0.9-1.4-0.6c-0.1,0,0,0.3,0,0.6
			C-26.2,511.6-25.7,511.6-25.2,511.6z M95.8,541.9c0.6-0.5,1-0.7,1.2-1c0.1-0.2,0.1-0.5,0.1-0.9C96,540.4,96,540.4,95.8,541.9z
			 M94.8,537c1.3,1.4,1.3,1.4,2.3,0.4C96.3,537.2,95.7,537.1,94.8,537z M75.4,563.3c-0.3,0.5-0.5,0.8-0.6,1.1c0,0.1,0.4,0.5,0.4,0.4
			c0.3-0.2,0.6-0.4,0.8-0.7C76,564,75.7,563.7,75.4,563.3z M-72.9,189.1c-0.2-0.1-0.4-0.2-0.6-0.2c-0.5,0.4-0.9,0.8-0.2,2
			C-73.3,190.1-73.1,189.6-72.9,189.1z M376.2,149.1c-0.5-0.3-0.8-0.5-1.1-0.7c-0.1,0.3-0.4,0.5-0.4,0.8c0,0.2,0.4,0.5,0.6,0.6
			C375.5,149.8,375.8,149.4,376.2,149.1z M-29.7,533.5c-0.5-0.3-0.8-0.5-1.1-0.6c-0.1,0.2-0.4,0.5-0.4,0.7s0.4,0.5,0.6,0.5
			C-30.3,534-30.1,533.7-29.7,533.5z M-80.5,250.2c0.2,0,0.5,0,0.7,0.1c0.1-0.6,0.2-1.2,0.3-1.8c-0.2,0-0.3-0.1-0.5-0.1
			C-80.2,248.9-80.4,249.6-80.5,250.2z M87.6,544.3c0.1,0.2,0.3,0.4,0.3,0.4c0.2-0.1,0.4-0.2,0.6-0.3c-0.1-0.1-0.2-0.3-0.3-0.3
			C88,544.1,87.8,544.2,87.6,544.3z M-15.4,518.4c-0.1-0.1-0.1-0.3-0.2-0.3s-0.3,0.1-0.4,0.1c0.1,0.2,0.2,0.3,0.3,0.5
			C-15.6,518.6-15.5,518.5-15.4,518.4z M221.2,74.5c-0.1-0.1-0.2-0.3-0.3-0.3c-0.1,0-0.3,0.1-0.4,0.2c0.1,0.1,0.2,0.3,0.4,0.4
			C221,74.7,221.1,74.6,221.2,74.5z M325.2,104.1c-0.1,0.4-0.3,0.7-0.2,0.7c0.2,0.2,0.4,0.2,0.6,0.4
			C325.5,104.9,325.4,104.6,325.2,104.1z M425,134.3c0.4,0.2,0.6,0.3,0.8,0.3c0.1,0,0.3-0.2,0.3-0.3c0-0.2-0.1-0.4-0.2-0.5
			C425.8,133.9,425.6,134,425,134.3z M-68.2,191.2c0,0.2-0.1,0.4-0.1,0.6c0,0.1,0.2,0.1,0.4,0.2c0.1-0.2,0.1-0.4,0.2-0.6
			C-67.7,191.3-68,191.2-68.2,191.2z"/>
		<path class="st0" d="M330.4,371.9c-6.2-2.9-12.4-2.5-18.3-2.2c-0.9,1.1-1.4,2.3-2.3,2.8c-1.7,0.9-3.6,0.8-5.4,0.3
			s-3.6-1.1-5.2-1.8c-1.5-0.7-2.9-1.8-4.3-2.6c-0.3-0.2-0.6-0.3-0.9-0.4c-0.9,0.6-1.8,1.2-2.6,1.7c-3-0.9-0.9-2.9-0.9-4.5
			c-1.4-0.7-2.7-0.4-3.9,0.2c-0.3,0.2-0.5,0.4-0.8,0.6c-0.8,0.5-1.7,0.7-2.4-0.2c-0.7-0.9-0.6-1.8,0.2-2.6c0.6-0.6,1.2-1.3,2-1.8
			c2-1.2,1.2-3,1.1-4.6c0-1.6-1.5-1.5-2.4-1.9c-0.2-0.1-0.4-0.2-0.6-0.3c-0.2-2.6,0.6-3.7,2.9-4.2c2.1-0.4,2.9-2,2-3.9
			c-0.5-0.9-1.1-1.5-0.2-2.5c1-1.1,2.2-1.3,3.5-1c0.8,0.2,1.5,0.6,2.2,1c0.7,2.4,1.1,2.6,3.6,2.5c1-0.1,2.1,0.1,3.1,0.2
			c3.6,0.3,7.2,1.2,10.8,0.7c0.4,0,0.8-0.2,1.3-0.3c-0.1-1.6-0.8-2.7-1.8-3.6c-2.2-2.1-4.5-4.2-6.8-6.2c-0.6-0.5-1.6-0.8-2.4-1
			c-1.5-0.4-2.7-1.1-3.8-2.1c-1.3-1.1-2.7-2.1-4-3.2c-2-1.8-4-3.5-5.9-5.4c-2-2-3.9-4-6-6.2c-0.3,0.2-0.8,0.5-1.3,0.8
			c-1.4-0.7-1.7-1.7-1.2-3c0.2-0.5,0.4-1.2,0.2-1.6c-1.2-2.9-0.9-6-1.5-9c-0.1-0.3-0.3-0.6-0.4-0.9c-3.8,3.5-6.7,7.7-10.7,10.7
			c1.2-2.6,3.1-4.8,4.9-7s3.4-4.5,4.4-7.2c0.4-1.1,0.4-2-0.5-3.2c-5.1,2.3-9.8,5.4-15.5,6.3c1.3-0.7,2.6-1.3,3.8-2
			c3.3-1.9,6.6-3.8,9.8-5.7c1-0.6,1.1-1.3,0.7-2.3c-0.8-1.8-1.6-3.6-2.3-5.3c-0.3-0.7-0.8-1.3-0.9-2c-0.7-4.7-1.7-9.5,0.2-14.1
			c0.7-1.8,2-3.5,3-5.2c0.5-0.9,1.2-1.7,2-2.7c-3.2-1.6-6.9-1.8-9-4.9c-0.9,0.2-1.7,0.4-2.5,0.5c-2.6,0.4-4.4-1.6-3.7-4.1
			c0.1-0.5,0.4-1.1,0.5-1.6c0.3-1.3-0.4-2-1.7-1.9c-0.3,0-0.6,0.2-0.9,0.2c-1,0.1-1.7-0.3-2.2-1.2c-0.5-0.8-0.3-1.6,0.2-2.3
			c0.5-0.6,1.2-1.1,1.8-1.6c0.9-0.9,1.9-1.8,1.3-3.5c-1.5,0-3,0.1-4.3-1c-1.2-1.1-1.4-1.8-0.3-3c0.5-0.5,1.2-0.9,1.8-1.1
			c1-0.4,2.1-1,3.2-1c1.9-0.1,3.9-0.7,5.7,0.9c1.1,1,2.4,1.8,3.7,2.2c1,0.4,2.3,0.4,3.5,0.2c2.4-0.3,4.2,1,6.2,1.8
			c3,1.2,5.9,2.7,9.1,3.3c0.8,0.2,1.6,0.8,2.4,1.2c0.8,0.3,1.6,0.5,2.4,0.8c1.3-4.4-1-8.2-1-12.5c0.4,0.5,0.6,0.6,0.7,0.8
			c1,3.6,2,7.1,3.1,10.7c0.6,2.3,1.8,3.2,4.1,3.4c1.7,0.1,2.1-0.2,2.5-1.9c0.3-1.6,0.6-3.2,1.1-4.7c0,1.7,0.1,3.4,0,5
			s0.3,2.9,2.1,3.4c0.6,0.2,1.1,0.6,1.7,1c2,1.4,4.2,1.7,6.5,1.3c3.8-0.6,7.5-0.1,11.2-0.1c2.4,0.1,4.1,1.4,5.8,2.8
			c1.5,1.2,3.6,1.5,4.8,3.2c0.2,0.3,1.3,0.3,1.8,0.1c2-0.7,4.1-1.2,5.8-2.3c2.8-1.8,6-1.7,9.1-2.3c1.6-0.3,3.4-0.2,5-0.2
			c4.6-0.1,9.2-0.1,13.8-0.3c0.9,0,1.9-0.4,2.8-0.7c1.6-0.6,3-0.9,4.5,0.4c0.8,0.7,1.9,1.1,3.1,1.7c-0.2,0.7-0.2,1.6-0.7,2.2
			c-3.4,4.5-6.9,9-10.4,13.4c-1.3,1.6-3,2.9-4.4,4.4c-1.9,2-1.4,4.1,1.1,5.2c0.1,0.1,0.3,0.2,0.4,0.2c4.2,0.4,7.6,3,11.7,3.9
			c3.8,0.8,7.6,1.5,11.4,2.4c1,0.2,2.1,0.7,2.6,1.5c1.4,2,2.6,4.2,3.9,6.4c0.2,0.3,0.4,0.5,0.5,0.8c0.9,4.6,4.3,7.9,6.3,11.9
			c1.6,3.4,4.5,6.1,5.6,9.8c0.4,1.2,1.4,2.2,2.2,3.2c1.9,2.5,4,4.9,5.9,7.4c1.2,1.6,2.1,3.4,3.1,5.2c0.5,0.8,1,1.5,1.5,2.2
			c0.5,0.6,1,1.1,2,1.1c1.7,0,2,0.4,1.7,2.1c-0.4,2.5-0.6,5,0.5,7.4c0.4,0.7,0.8,1.4,1.1,2.1c0.7,1.5,1.5,3,2.1,4.6
			c0.7,1.7,1.3,3.5,1.8,5.3c0.2,0.7,0.2,1.4,0.3,2.2c0,0.3-0.1,0.6,0,1c0,0.3,0,0.7,0.2,0.9c0.8,1.9,1.7,3.7,2.6,5.9
			c0.7-0.5,1.2-1,1.8-1.3c0.6-0.4,1.2-0.8,1.8-1.1c3,1.2,4.2,3.8,5.1,6.5c0.6,1.8,0.8,3.8,1.1,5.7c0.6,4.6,0.2,9.2-0.3,13.8
			c-0.2,2.2-0.6,4.3-1.6,6.3c-0.6,1.3-1,2.8-0.9,4.2c0.1,4.1-0.3,8.1-1.5,12c-0.1,0.5-0.2,1-0.2,1.4c0.8,6.2-0.1,12.3-0.9,18.3
			c-0.2,1.7-1,3.2-1.4,4.9c-0.4,1.9-0.5,3.8-0.8,5.7c-0.2,2.1-0.3,4.2-0.6,6.2c-0.1,0.5-0.7,0.9-1.1,1.4c-0.4-0.4-0.9-0.7-1.1-1.1
			c-0.3-0.7-0.4-1.5-0.7-2.6c-1.8,1.6-3.3,3-3.8,5.2c-0.2,0.9-0.6,1.9-1.3,2.5c-2.3,2.2-4.3,4.5-5.5,7.6c-0.4,1.1-1.7,1.9-2.6,2.8
			c-0.8,0.9-1.8,1.6-2.5,2.5c-1.9,2.5-3.7,5-6.3,7c-1.6,1.2-3,2.7-3.5,4.8c-0.3,1.2-1.2,2.4-1.9,3.5c-0.8,1.2-1.7,2.3-2.5,3.6
			c-0.6,0.9-1.2,1.7-2.3,1.4c-2.9-0.7-4.4,1.4-5.7,3.2c-1.3,1.9-3.1,3.2-4.9,4.6c-1.4,1.1-2.5,2.5-3.7,3.8c-1,1.2-2,2.5-2.9,3.8
			c-1.3,1.7-2.5,3.4-3.8,5c-1,1.2-2.3,2.3-3.3,3.5c-1.7,2-3.2,4.1-4.8,6.1c-0.9,1.1-1.6,2.6-3.7,2c-0.6-0.2-1.6,0.9-2.3,1.5
			c-1.3,1.3-2.6,2.7-3.7,4.1c-0.9,1.1-2,2.3-2.2,3.7c-0.4,1.9-2,2.7-2.7,4.2c-0.2,0.4-0.7,0.7-1.2,0.8c-2,0.4-3.3,2-4.9,3
			c-2.7,1.8-5.6,3.5-8.6,5c-2.5,1.2-4.8,2.7-6.9,4.4c-2.5,2-4.6,4.5-7,6.7c-2,1.9-4.1,3.8-6.3,5.7c-1.7,1.6-3.6,3-5.3,4.6
			c-1.1,1-2.3,1.4-3.7,1.6c-1.2,0.2-2.3,0.5-4,0.8c-1.3-0.4-1.3-2-1.5-3.5c-2.2-0.8-3.5,0.7-4.9,1.6c-2.7,1.8-5.2,4-8.3,5.4
			c-1.6,0.7-3,2.2-4.5,3.2c-0.5,0.4-1.1,0.7-1.7,0.9c-1.3,0.4-2.6,0.7-3.7,1.6c-1.6,1.3-2.7,0.6-2.9-1.4c-0.1-0.6-0.1-1.2-0.1-2.2
			c-2,0.8-3.8,1.6-5.6,2.4c-0.7-0.8-1.1-1.3-1.7-1.9c-0.7,0.2-1.3,0.5-2,0.5c-0.8,0-1.9,0.1-2.5-0.3c-1.2-1.1-2.3-0.6-3.4,0
			c-2.6,1.4-5.1,2.7-7.6,4.3c-0.9,0.5-1.5,0.6-2.5,0.5c-1.5-0.2-3-0.2-4.3,0.9c-0.4,0.3-1.1,0.2-1.6,0.4c-0.7,0.2-1.5,0.5-2.4,0.9
			c0.6,1.1,1,2,1.7,3.2c-1,0-1.6,0-2.2,0c-1.2,0.1-1.8,0.5-1.5,1.7c0.8,3.2,1.8,6.3,2.7,9.5c0.1,0.4,0.4,0.7,0.6,1
			c0.8,1.3,1.8,2.5,2.4,3.8c0.8,1.6,1.5,2.3,3.2,1.9c1.5-0.3,2.5-0.2,3.3,1.2c0.2,0.3,0.4,0.5,0.7,0.6c0.9,0.3,1.8,0.7,1.6,1.8
			c-0.2,1.1-0.8,2.1-2,2.5c-1.8,0.6-3.7,1.1-5.5,1.8c-1.4,0.5-3,0.6-3.8,2.2c-0.2,0.4-0.9,0.5-1.5,0.7c-2.3,0.8-4.6,1.5-6.9,2.4
			c-3.5,1.4-6.5,0.4-9.3-1.8c-0.3-0.2-0.2-1,0.1-1.6c-0.7-0.8-1.4-1.5-1.9-2.4c-1.5-2.6-1.8-2.7-4.5-1.5c-3.7-1.2-3.9-4.5-4.5-7.6
			c-0.3-1.7-0.6-3.5-1.2-5.1c-0.4-1.3-1.3-2.3-2.7-2.5c-1.1-0.1-2.3,0-2.8-1c-0.5-1.2-0.6-2.6-0.8-4c-0.1-0.8,0.1-1.6,0.2-2.3
			c-0.4-0.2-0.6-0.3-0.8-0.4c-2.3-0.8-3-1.8-1.9-4c1.3-2.8,3-5.3,5.4-7.3c2.6-2.3,5-4.7,7.3-7.3c2.2-2.5,4.5-5.1,7.5-6.7
			c0.3-0.2,0.6-0.5,0.9-0.8c3.7-3.6,7.9-6.5,12.4-9.1c2.5-1.5,5.1-2.7,7.6-4.3c2.3-1.5,4.6-2.9,7-4.2c3.2-1.8,6.3-3.9,9.7-5.3
			c1-0.4,1.8-1.2,2.7-1.8c0.1,0.1,0.3,0.2,0.4,0.3c-0.6,1-1.2,1.9-1.9,3c2.4,0.7,4-0.7,5.3-1.8c1.7-1.4,3.6-1.5,5.6-1.8
			c2.4-0.4,4.8-0.7,7.1-1.3c2.5-0.6,4.9-1.5,7.4-2.1c1.9-0.4,3.9-0.4,5.7-1c2.4-0.8,5.1-1.5,7.1-3c2.2-1.6,4.8-2.5,7.1-4.3
			c0-2.3,2.2-2.9,3.7-4.2c2.6-2.2,5.1-4.4,7.7-6.6c0.1-0.1,0.3-0.2,0.3-0.4c1.1-3.9,4.2-6.2,6.9-8.7c2.5-2.3,4.4-4.9,6.1-7.7
			c1-1.6,2-3.1,3.1-4.6c2.5-3.4,3.8-7.3,5.2-11.1c1.3-3.6,2.6-7.1,3.9-10.7c1.3-3.8,0.9-7.8,0.7-11.7c-1.2-0.4-2.5,0.6-3-0.8
			c-0.5-1.3,0.6-2.1,1.3-2.9c1.4-1.7,1.4-2.8,0.1-5.1c-0.4,0.5-0.8,0.9-1.3,1.5c-1.4-1.8-3.3-3-2.8-5.7c0.1-0.7-0.5-1.6-0.9-2.4
			c-0.3-0.5-0.8-0.8-1.2-1.2c-1.9-1.8-3.2-3.8-3.4-6.5c-0.1-1.6-1.1-3.1-1.2-4.6c-0.1-3,0.4-6,2.4-8.4c0.4-0.5,0.9-1,1.4-1.3
			c1.7-1.1,1.7-1.1,2.2-2.9c1.4-0.7,2.8-0.4,4.1,0.4c1.8,1,3.9,1.6,4.9,3.7c0.1,0.2,0.3,0.3,0.5,0.5c1.8,1.2,3.5,2.5,5.4,3.8
			c0.7-0.6,0.5-1.6,0.4-2.5c-0.3-2.7,0-5.3,0.3-7.9c0.2-1.6-0.5-3.3-0.9-4.9c-0.4-1.6-0.9-3.1-1.3-4.7c-0.1-0.4-0.1-1-0.4-1.1
			c-1.6-0.8-1.3-2.4-1.7-3.7c-0.8-2.6-1.9-5.1-3-7.9c-0.8,0.5-1.3,0.8-2.2,1.3c-0.2-0.7-0.5-1.3-0.4-1.8c0.4-1.5-0.1-2.7-0.9-3.9
			c-0.6-0.9-0.9-1.9-1.3-2.8c-0.5-1-0.7-2.4-1.5-3c-2.1-1.4-3.4-3.6-4.9-5.5c-1.6-1.9-3.8-2.8-5.7-4.2c-1.4-1.1-3.2-0.6-4.8-0.7
			C331.7,373.9,331.3,374,330.4,371.9z M291,542.6C291,542.6,291.1,542.7,291,542.6c0.3-0.6,0.5-1.2,0.9-1.8c0.3-0.6,0.8-1,1.3-1.8
			c-2.1,0.3-3.8,0.3-5.4,0.7c-3.1,0.9-6.6,1.1-9.4,3c-0.9,0.6-1.8,1.1-2.8,1.4c-2.4,0.8-4.8,1.5-7.1,2.3c-2.8,1-5.3,3-8.4,3.2
			c-0.8,0.1-1.6,0.3-2.3,0.7c-0.5,0.3-1.1,0.9-1.1,1.4c-0.1,1.9-1.3,2.8-2.8,3.6c-0.8,0.4-1.6,0.9-2.1,1.6c-2.1,2.8-4.9,4.6-7.7,6.6
			c-2.2,1.5-4,3.4-6.4,4.6c-0.5,0.3-1,0.9-1.1,1.5c-0.4,2.7-2.2,4.8-3.2,7.3c-0.3,0.7-0.5,1.5-1,1.9c-2.7,1.9-2.1,5.1-3.1,7.7
			c-0.2,0.4,0.4,1.4,0.9,1.7c0.3,0.2,1.1-0.2,1.6-0.4c0.3-0.1,0.4-0.4,0.7-0.6c1.9,1.8,1.9,1.8,3.5,0c0.2-0.2,0.4-0.3,0.6-0.4
			c1-0.3,0.9-1.1,1.1-1.9c0.4-1.2,1-2.6,1.9-3.5c1.3-1.2,1.9-2.5,2.3-4.1c0.1-0.6,0.5-1.3,0.9-1.5c3.7-1.6,7.4-3.1,11.2-4.7
			c1.4-0.6,3-0.9,4.2-1.8c1.6-1.2,3.2-0.9,4.8-0.5c0.5,0.1,1,0.4,1.2,0.5c1.3-0.5,2.2-1.1,3.2-1.1c0.9,0,1.8,0.8,2.9,1.3
			c0.7-0.4,1.5-1,2.4-1.5s2-0.7,2.8-1.4c1.9-1.6,3.5-1.2,5.2,0.2c0.1,0.1,0.3,0,0.3,0c1.3-0.6,2.4-1.3,3.6-1.7c2-0.8,2-0.8,3.3,1
			c0.2,0.3,0.6,0.5,0.8,0.8c0.4-0.1,0.6-0.1,0.8-0.2c4.2-1.9,8.4-3.8,12.6-5.7c1.2-0.5,2.2-1.1,3.7-0.5c1.3,0.5,2.7,0.1,3.9-0.8
			c1.2-0.9,2.4-1.6,3.5-2.6c1.7-1.7,4-2.6,5.5-4.6c0.7-0.8,1.8-1.2,2.9-0.7c1.3,0.6,2.4-0.1,3.4-0.6c0.4-0.2,0.6-0.6,0.9-0.7
			c0.6-0.2,1.4-0.4,1.7-0.1c0.4,0.4,0.7,1.2,0.7,1.9c0,0.4-0.6,0.9-1,1.3c-0.9,0.7-1.9,1.3-2.7,2.1c-0.3,0.3-0.3,0.9-0.4,1.4
			c0.5,0,1.1,0.1,1.4-0.2c1.5-1.3,2.9-2.6,4.2-4c0.2-0.2,0.5-0.8,0.4-1.1c-1-2.1,1-3.2,1.6-4.8c0.3-0.6,1-1,1.6-0.3
			c0.7,0.7,1.4,0.5,1.9,0c1.7-1.4,3.5-2.9,5.1-4.4c2.5-2.3,4.9-4.7,7.3-7.1c1.8-1.8,3.5-3.6,5.2-5.4c0.7-0.7,1.4-1.5,2.3-1.7
			c1.3-0.2,2-0.9,2.5-2s1.2-1.8,2.6-1.7c0.6,0,1.3-0.6,1.7-1.1c3.3-4.1,6.5-8.2,9.7-12.4c2-2.6,2-2.8,5.2-1.8c1.1-1,2.3-1.9,3.5-3
			c0.5-0.4,1.1-1.1,1-1.6c-0.2-2.4,1.5-3.6,2.9-5c2.5-2.5,5.8-4.2,7-7.9c0-0.1,0.2-0.3,0.3-0.4c4-5.2,8-10.6,12.2-15.7
			c1.8-2.2,3.3-4.9,6.3-5.7c0.2-0.1,0.4-0.3,0.5-0.5c5.4-6.3,9.8-13.2,12.7-21c0.2-0.7,0.7-1.2,1.2-1.8c0.2-0.2,0.9-0.3,1.1-0.2
			c0.3,0.3,0.6,0.9,0.5,1.2c-0.3,0.9-0.7,1.8-1.2,2.6c-0.4,0.8-0.5,1.6,0.1,2.8c0.5-1.1,0.8-1.7,1-2.4c0.8-3,1.7-6,2.4-9.1
			c0.4-1.8,1-3.4,2.8-4.3c0.8-0.4,1.1-1.1,1.2-2c0.4-3,0.9-5.9,1.3-8.9c0.2-1.3,0.6-2.5,2-3c0.5-0.2,1-0.9,1-1.4
			c0.4-4.3,0.9-8.5,1.1-12.8c0.1-2.7-0.1-5.4-1.4-7.8c-0.9-1.7-1.2-3.5-1.5-5.3c-0.5-3.3-0.8-6.7-2.2-9.6c-1.3-2.7-2-5.6-2.9-8.4
			c-0.4-1.2-0.6-2.5-0.9-3.8c-1.6-5.1-3.2-10.2-4.8-15.3c-0.6-1.8-1.4-3.4-3-4.6c-0.6-0.4-1.1-1.2-1.3-1.9c-0.6-1.7-1.1-3.4-1.7-5.1
			c-1.2-3.3-2.3-6.6-3.8-9.7c-1.4-2.9-3.3-5.5-5-8.3c-3.3-5.4-6.8-10.6-10.9-15.4c-0.5-0.6-1.1-1.4-1.1-2.1c-0.2-2.7-1.8-4.8-3.2-7
			c-0.5-0.9-0.8-1.9-1.3-2.8c-0.5-1.1-0.7-2.5-1.6-3.2c-2.4-1.8-5-3.5-7.7-4.9c-1.8-0.9-3.7-1.5-5.6-2.1c-2.4-0.9-4.8-1.7-7.2-2.5
			c-0.4-0.1-0.8-0.3-1.1-0.4c-1.3-0.5-2.6-1.2-4-1.6c-1.7-0.4-3.5-0.6-5.2-0.9c-3.4-0.6-6.7-0.7-10.1,0.1c-0.5,0.1-1,0.2-1.4,0.1
			c-1.3-0.1-2.2-1-2.3-2.1c-0.1-1.1,0.5-1.9,1.7-2.4c1.9-0.7,3.8-1.4,5.7-2c2.5-0.9,4.5-2.6,6.4-4.4c2.8-2.7,5.5-5.5,8.2-8.3
			c0.9-1,1.8-1.9,2.7-2.9c-0.1-0.2-0.2-0.3-0.3-0.5c-0.8,0.4-1.7,0.7-2.5,1.1c-0.7,0.3-1.4,0.7-2.2,1c-1,0.4-2.1,0.7-3.1,1.2
			c-1.6,0.8-2.8,2.1-4.7,2.3c-0.6,0.1-1.2,0.9-1.7,1.5c-0.7,0.8-1.2,1.5-2.4,1.1c-0.5-0.2-1.1,0.2-1.6,0.2c-1.1-0.1-2.4,0.1-3.3-0.4
			c-1.7-0.8-3.4-1-5.2-1c-1.2,0-2.3-0.2-3.3-1.1c-1-0.8-2.3-1-3.7-0.5c-0.9,0.4-2,0.5-3,0.6c-2.1,0.1-2.3-0.1-2-2.2
			c0.2-1.4-0.5-2-1.5-2.4c-0.7-0.3-1.5-0.3-2.6-0.6c1,2.7-0.5,4.1-2.1,5.4c-1.1,0.9-2.5,1.7-3.3,2.8c-2.1,2.8-5,4.1-8.2,4.8
			c-1.7,0.4-3.5,0.7-5.3,0c-2-0.8-2.7-2.6-1.6-4.5c0.4-0.7,1-1.3,1.4-2c2.8-4.1,6.6-6.5,11.6-6.9c0.5,0,1-0.2,1.6-0.3
			c-0.5-1.1-0.9-2.1-1.4-3.1c-1.1-0.2-2.3-0.5-3.5-0.5c-1.8,0-3.6,0.1-5.3,0.4c-2,0.4-4.3,0.1-6,1.7c-0.8,0.7-1.6,0.9-2.6,1.1
			c-1.6,0.3-3.3,0-4.6,1.4c-0.7,0.8-1.9,0.4-2.4-0.7c-0.4-0.9-1-1.7-2-1.5c-1.9,0.5-4.1,0.5-5.6,1.9c-1.4,1.2-2.6,2.6-3.9,4
			c-2.2,2.3-4.3,4.6-6.5,6.8c-0.4,0.4-1.1,0.5-1.7,0.7c-0.4,1.6-0.5,3.2,0.1,4.9c0.3,1.1,0,2.4,0,3.5c0,0.5,0.1,1.3,0.4,1.5
			c1,0.7,0.9,1.7,0.9,2.6c-0.1,2.2,0.5,4.1,1.5,6.3c1.4-0.1,2.7-0.2,4.1-0.4c1.4-0.1,2.1,0.5,1.7,1.9c-0.3,0.9-1.1,1.8-1.7,2.5
			c-1.8,2-1.7,1.9-0.5,4.4c1.2,2.4,2.2,4.9,1,7.6c-0.5,1.2-0.3,2.4,0.9,3.3c0.3,0.2,0.6,0.5,0.8,0.9c2.2,3.8,5.3,6.9,8.3,10.1
			c1.8,2,4.1,3.6,6.2,5.3c0.5,0.4,1.1,0.7,1.7,0.9c1.4,0.5,2.9,0,3.7-1.3c0.7-1.2,1.6-1.4,2.6-0.8c1.7,0.9,3.7,1.3,4.6,3.3
			c0.2,0.4,0.7,0.7,1,1c2.7,2.2,4.4,5.1,6.1,8.1c1.7,3.2,3.3,6.5,5,9.7c0.4,0.7,0.8,1.4,1.4,1.9c0.5,0.4,1.3,0.9,1.8,0.8
			s1.1-1,1.2-1.6c0.2-1.9,0.3-3.8,0.3-5.8c0-1.3-0.6-2.6-0.5-3.8c0.1-2.5-0.6-4.6-1.8-6.7c-1-1.7-0.6-2.6,1.1-3.4
			c0.4-0.2,0.7-0.3,1.3-0.5c-0.2-1-0.5-1.9-0.6-2.8c-0.2-1.1-0.5-2.2-0.3-3.3c0.2-1.7,1.7-2.4,3.2-1.7c2.1,1,4.2,2,6.2,3.1
			c2.4,1.3,4.4,3.6,7.5,3.5c0.4,0,1.1,1,1.2,1.6c0.2,1-0.7,1.5-1.5,1.6c-1.7,0.2-2.7,1.1-3.4,2.7c-0.8,1.7-2,3.1-4.3,3
			c-0.6,0-1.2,0.5-1.8,0.7c-1,0.3-1.4,1-1.3,2c0.1,2,0.3,4,0.3,6s0.1,4-0.1,6c-0.3,3.1-0.9,6.2-1.4,9.3c0,0.1,0.1,0.3,0.3,0.5
			c2.8-1.5,5.4,0.2,7.7,1.3c2.9,1.4,5.3,3.6,7.9,5.6c0.8,0.6,1.4,1.5,2.1,2.2c1.9-1.8,1.9-1.9,0.8-3.7c-0.5-0.8-0.5-1.5,0-2.3
			c0.9-1.3,0.5-2.5-0.5-3.5c-0.4-0.4-0.8-0.8-1.1-1.3c-2.1-2.6-1.8-4.1,1-5.8c0.1-0.1,0.2-0.3,0.4-0.7c-0.2-0.9-0.4-1.9-0.6-3
			c-0.1-0.5-0.4-0.9-0.4-1.4c-0.1-0.8,0-1.8,0.9-2c0.6-0.2,1.4,0.1,2,0.2c0.4,0.1,0.7,0.5,0.9,0.8c1.3,1.6,2.5,3.1,3.7,4.7
			c0.3,0.4,0.5,0.8,0.7,1.3c0.6,1.3,1.1,2.5-0.2,3.8c-0.6,0.6-0.6,1.4-0.2,2.3c0.8,1.9,1.7,3.7,2.1,5.7c0.9,3.9,2,7.8,3.7,11.5
			c0.9,2,1.8,3.9,3.1,5.7c1,1.4,2,2.7,3,4.1c0.4,0.6,0.7,1.7-0.1,1.9c-1.8,0.5-1.3,1.8-1.3,2.9c0.1,1.1,0.3,2.2,0.5,3.4
			c0.7,4.1,1.3,8.3,2.1,12.4c1,5.8,2.5,11.5,0.8,17.4c-0.1,0.3,0.1,0.7,0,1c-0.4,1.6-0.6,3.3-1.1,4.9c-1.1,2.9-2.8,5.6-3.3,8.8
			c-0.3,1.9-1.1,3.5-2.1,5.1c-0.5,0.7-0.6,1.8-0.6,2.7c0.1,2.8,0.5,5.6,0.7,8.5c0,0.6-0.2,1.3-0.3,2.1c-1.8-1.3-0.6-3.5-2.1-4.7
			c-0.3,0.3-0.5,0.5-0.6,0.7c-1,3-2.4,5.8-2.7,9c-0.1,1.6-0.4,3.2-0.7,4.8c-0.7,3.5-1.4,7-2,10.5c-0.2,1.2-0.2,2.5-0.6,3.6
			c-1,2.8-1.4,5.6-1.7,8.5c-0.1,1.2-0.1,2.5-1.6,3.8c0.1-1.3,0.1-2.1,0.1-2.9c0.2-1.7,0.4-3.4,0.6-5.1c0.2-1.3,0.4-2.6,0.5-3.8
			c0.2-2.1,0.4-4.3,0.5-6.4c0-0.3-0.2-0.7-0.6-1.5c-1.5,2.7-2.7,5-3.9,7.4c-1.1,2.2-2,4.4-3.2,6.5c-1.5,2.8-3.3,5.4-4.9,8.1
			c-0.3,0.5-0.8,1.2-0.7,1.7c0.6,2.6-0.9,4.3-2.3,6.1c-2.4,3.2-5.8,5.4-8.7,8c-1.2,1-2.7,2.3-3,3.6c-0.5,2.6-1.7,4.3-3.6,5.7
			c-2.3,1.6-4.7,3.2-7,4.7c-2.1,1.4-4.2,2.7-6.4,4c-2.1,1.2-4.2,2.4-6.5,3.3c-2.1,0.8-4.3,1.2-6.5,1.9c-0.6,0.2-1.1,0.6-1.7,0.9
			C294.9,540.4,293,541.5,291,542.6z M327,365c-0.2-0.4-0.2-0.7-0.4-0.8c-2.5-1.4-3.4-3.8-4.2-6.3c-0.3-1.1-0.9-2.1-1.5-3
			c-0.4-0.5-1.1-1-1.7-1.2c-4-1.1-8.2-0.1-12.1-1.4c-0.1,0-0.3,0-0.5,0c-2.4,0.3-4.8,0.7-7.2,1c-1.2,0.1-2,0.6-2.3,1.8
			c-0.3,0.9-0.7,1.9-0.7,2.8s0.3,2.2,0.9,2.6c2.3,1.4,4.7,2.8,7.5,3c2.5,0.2,4.8-0.3,7.1-1.3c0.8-0.4,1.8-0.6,2.5-0.4
			c1.5,0.4,2.9,1,4.2,1.8c2,1.4,4.3,1.7,6.6,1.9C325.8,365.5,326.4,365.2,327,365z M288.3,256.6c0-0.2,0.1-0.5,0.1-0.7
			c-2.3-2.1-5.4-2.8-8.1-4c-0.1-0.1-0.3-0.1-0.5-0.1c-2.1,0.6-4-0.6-6.1-0.9c-1-0.1-1.9-0.3-2.9-0.2c-1.3,0.1-1.8,0.8-1.8,2.1
			c0,0.4,0,0.8,0,1.2c0,1.8,0.3,2.2,2.1,2.6c0.8,0.2,1.8,0.3,2.2,0.8c1.4,1.7,3.3,1.8,5.1,2.3c1.4,0.3,2.6,0.2,4-0.9
			c-1.2-0.4-2.1-0.8-3.4-1.3C282.5,257.2,285.4,256.9,288.3,256.6z M343.4,263.9c1.5,2.6,3.6,3.3,5.9,3.1c2.1-0.2,4.1-1.1,6.1-1.2
			c2.5-0.1,4.4-1.3,6.4-2.5c0.7-0.4,1.4-0.9,2.2-1.5c-1.1-1.1-2.1-0.8-3.2-0.8c-3.1,0.1-6.3,0.6-9.4,0.2
			C348.2,260.8,346.3,263.2,343.4,263.9z M356.2,436.9c-0.6,1-1.1,1.8-1.5,2.5c-0.2,0-0.4,0-0.6-0.1c-0.7-1.8-1.7-3.6-2.1-5.5
			c-0.3-1.1,0.2-2.5,0.4-3.9c-0.9-0.7-2-1.4-3-2.1c-1.9,0.9-2.5,1.9-1.7,3.7c0.9,2.1,2.1,4.1,3.3,6c0.9,1.5,2.1,2.8,3.1,4.2
			c0.3,0.4,0.6,1,1.1,1.3s1.2,0.4,1.7,0.3c0.2-0.1,0.4-1,0.4-1.5C357,440.3,356.6,438.8,356.2,436.9z M235.7,592.5
			c-0.1,2.7,0.2,3,2.1,2.3C237.2,594.1,236.5,593.4,235.7,592.5z M436.2,451.5c0-0.1-0.1-0.3-0.1-0.4c-0.1,0.1-0.3,0.2-0.4,0.4
			c0,0.1,0.2,0.2,0.2,0.4C435.9,451.7,436.1,451.6,436.2,451.5z"/>
		<path class="st0" d="M1,481.7c0.2-1.8,0.6-3.1,1.8-4.1c0.9-0.7,1.9-0.8,2.9-0.4c1.3,0.5,2.6,0.9,3.8,1.5c1,0.4,2,1,2.9,1.5
			c1.4-0.9,2.7-1.9,4.2-2.7c0.4-0.2,1.3-0.3,1.5,0c0.8,0.9,1.8,0.6,2.7,0.5c3.9-0.2,7.9-0.4,11.8-0.6c1-0.1,2.1-0.2,3.1-0.3
			c0.8-0.1,1.6-0.3,2.3-0.3c2.5-0.1,3.6-0.9,4.2-3.4c0.8-3,2.7-3.7,5.3-2c1.4,0.9,2.8,1.8,3.4,3.6c0.4,1,1.3,1.9,1.9,2.8
			c1.7,2.8,2,5.5,0.1,8.1c-1.2,1.7-2.1,3.8-3.2,6c-1,0.2-2.4,0.3-3.9,0.3c-1.8,0-3.6,1.2-5.5,1.7c-2.3,0.6-4.7,1.3-7,1.4
			c-1.8,0.1-3.6-0.6-5.4-1c-2.6-0.6-5.1-1.4-7.7-2.1c-1.1-0.3-2.2-0.4-3.2-0.8c-1.2-0.5-2.4-1.3-3.5-2.1c-0.7-0.5-6.3-4-7-4.4
			C4.6,484.3,2.7,483.2,1,481.7z M22.7,485.5c-0.1,0.2-0.1,0.4-0.2,0.6c0.9,0.5,1.8,1,2.7,1.4c1.1,0.4,2.2,0.5,3.3,0.7
			c1,0.2,2,0.6,3,0.7c2.9,0.1,5.8-0.4,8.5-1.5c1.2-0.5,2.1-1.2,3-2.4c-0.9-0.2-1.5-0.5-2.1-0.5c-5.8,0-11.5,1.4-17.3,0.8
			C23.3,485.2,23,485.4,22.7,485.5z"/>
		<path class="st0" d="M26.9,260.9c-0.2,1-0.2,1.7-0.5,2.3c-2.6,4.9-1.6,9.3,2,13.1c2.2,2.4,4.8,4.5,7.4,6.6c1.3,1.1,3,1.5,4.7,1.7
			c0.8,0.1,1.6,0.5,2.4,0.9c4.4,2,6.9,6.1,9.8,9.7c0.7,0.9,1.7,1.7,2.6,2.5c1.1,1,1.9,2.2,1.9,3.7c0,1.3,0.6,2.3,1.3,3.3
			c0.6,0.9,1,2,1.5,3c0.4,0.8,0.8,1.6,1.3,2.2c1.1,1.2,1.2,2.5,0.4,3.8c-0.7,1.1-1.5,2.3-2.4,3.2c-0.4,0.3-1.5,0.3-2-0.1
			c-1.6-1-3.3-2-3.9-4.1c-0.4-1.3-1.5-2.5-2.1-3.8c-0.9-2-1.9-3.9-2.5-6c-0.5-1.8-1.7-3.1-2.7-4.5c-0.4-0.6-0.8-1.2-1.2-1.8
			c-0.1-0.2-0.2-0.5-0.3-0.6c-1.5-1.2-3-2.6-4.6-3.7c-2.5-1.7-5-3.2-7.6-4.8c-1.4-0.9-3-1.5-4.5-2.2c-1.1-0.5-2.2-1-3.2-1.5
			c-0.3-0.1-0.5-0.4-0.6-0.7c-1.1-3.1-3.4-5.9-3.2-9.5c-1.4-2.1-0.3-4.4-0.4-6.6c-0.1-1.5,0.6-2.3,2.1-2.2c1.2,0.1,1.6-0.6,1.9-1.4
			C24.6,262.5,24.9,261.5,26.9,260.9z"/>
		<path class="st0" d="M112.2,29.3c-2.9,0.8-5.7,1.7-8.5,2.5c-0.4,0.1-1.2,0.3-1.3,0.1c-1-1.4-2.8-0.7-4-1.6c-0.4-0.3-1.4-0.2-2,0.1
			c-3.2,1.3-6.5,2.5-9.5,4.1c-5.2,2.8-10.3,5.6-14.9,9.4c-0.9,0.8-2.1,1.3-3,2.1c-2.5,2.2-5,4.4-7.4,6.6c-2.3,2.2-2.4,2.2-5.8,2.6
			c-0.8-0.9-0.4-1.8,0.4-2.5c1.2-1,2.3-2,3.5-2.9c1.1-0.8,1.4-1.7,0.6-2.8c0.8-1.2,1.9-1.5,3-2.1c1-0.5,1.4-1.9,2.7-2.3
			c1.1-0.4,2.2-1.1,3.1-1.8c1-0.7,1.8-1.6,2.7-2.5c2.4,1.7,4.3-0.1,5.8-1.1c4.1-2.9,8.7-4.9,12.9-7.4c4.1-2.4,8.2-4.9,12.2-7.3
			c0.8-0.5,1.5-1,2.2-1.4c0.4,0.2,0.8,0.3,0.9,0.5c0.8,1.3,1.9,1,3,0.5c3.3-1.5,6.6-3,9.9-4.6c1.3-0.6,1.6,0.8,2.5,1.1
			c3.7-0.8,6.7-3.8,11.1-4.3c-0.9,1.5-1.5,2.5-3.1,2.4c-0.4,0-1,0.4-1.4,0.8c-1.8,1.4-3.5,2.8-5.3,4.2c-1,0.8-2.2,1.4-3.2,2.1
			c-1.6,1-2.9,1-4.3-0.2c-0.9-0.7-1.6-0.6-2.4-0.1c-1.1,0.7-2.2,1.4-3.2,2.2c-0.3,0.2-0.6,0.8-0.5,1.2c0,0.2,0.5,0.6,0.9,0.7
			C110.5,27.6,111.7,27.6,112.2,29.3z M108.2,27.7c-0.4-0.4-0.5-0.8-0.7-0.8c-0.3,0-0.6,0.1-0.8,0.3c-0.1,0.1,0.1,0.7,0.2,0.7
			C107.3,28,107.6,27.8,108.2,27.7z"/>
		<path class="st0" d="M250.6-29.8c1-1,2-2,3.2-3.1c-0.4-0.1-0.8-0.4-1.2-0.3c-2.2,0.3-4.3,0.7-6.5,1c-1.3,0.1-2.6,0.1-3.8-0.1
			c-1.6-0.1-1.8-1.6-2.2-2.8c-1.8,0-3.3,0.3-4.8,1.3c-2.6,1.8-5.3,3.5-8.7,3.4c-0.2,0-0.5-0.1-1.2-0.3c1-0.8,1.7-1.5,2.5-2
			c1.4-0.8,2.8-1.5,4.2-2.3c0.3-0.2,0.8-0.4,0.9-0.7c1.2-2.8,4-3.6,6.5-4.6c2.5-1.1,5.1-2.1,7.2-3.8c0.5-0.4,1.1-0.6,1.9-0.9
			c-0.1,2.4-2.9,3.3-2.6,5.7c2.4,0.7,4.3-2.2,6.8-0.7c-0.5,0.9-1.1,1.7-1.5,2.6c-0.2,0.4-0.3,1.1-0.1,1.5c0.1,0.3,0.9,0.4,1.3,0.3
			c3.9-0.9,7.7-0.1,11.5,0c0.4,0,0.9,0.1,1.1,0.3c2.8,2.4,6.1,3.1,9.7,2.8c0.6-0.1,1.5,0.2,1.9,0.6c1,0.9,1.8,2,2.8,3.1
			c-0.6,0.8-1.3,0.8-2.3,0.6c-2.2-0.5-4.4-0.8-6.6-1.2c-0.9-0.2-2-0.2-2.8-0.7c-2-1.3-4-0.9-6-0.6c-3.2,0.6-6.4,1.1-9.6,1.6
			C251.7-29.2,251.1-29.7,250.6-29.8L250.6-29.8z"/>
		<path class="st0" d="M68.9,62.3c1.4-1.2,2.9-2.5,4.4-3.8c1.5,0.7,2.5,1.8,2.6,3.7c4.2-2.1,7.1-5.5,11-8c0.1,1.1-0.6,1.4-1.1,1.8
			c-2.8,2.7-5.7,5.4-8.5,8.1c-4,3.7-7.4,7.9-10.6,12.2c-1.1,1.5-2.7,1.7-4.2,2c-1.2,0.3-1.9,0.9-2.5,1.6c-2.2,2.7-4.6,5.4-6.6,8.4
			c-1.1,1.7-2,3.6-3.3,5.3c-1,1.3-1.3,1.5-3.3,1.5c0.2-0.7,0.2-1.5,0.6-1.9c2.5-3.1,5-6.1,7.5-9.2c0.7-0.9,1.3-2,2-3
			c2.4-3.2,4.9-6.4,7.3-9.6c1.5-2.1,3-4.2,4.4-6.4C69,64.4,68.8,63.5,68.9,62.3z"/>
		<path class="st0" d="M367.2-4.7c-2.2,0.7-2.3,1.2-0.9,2.8c0.3,0.3,0.6,0.6,0.7,0.9c0.6,2.2,2.2,3.1,4.4,3.5c0.8,0.1,1.7,0.6,2.4,1
			c0.4,0.2,0.4,0.9,0.6,1.4c-0.6,0.2-1.2,0.7-1.6,0.6c-1.1-0.3-2.3-0.8-3.3-1.4c-2.2-1.3-4.6-2.1-7-3.1c-1.6-0.7-3.3-1.4-3.7-3.5
			c-0.1-0.4-0.6-0.8-1-1c-2.6-0.9-5.1-1.9-7.8-2.6c-1.1-0.3-2.4-0.1-3.6-0.2c-1-0.1-1.9-0.3-2.8-0.4c-0.4-0.1-0.8-0.3-1.2-0.2
			c-2.3,0.7-4.4-0.4-6.6-0.7c-0.9-0.1-1.9-0.2-2.9-0.2c-2.5,0-4.3-1.5-4.6-4.1c0.3-0.1,0.7-0.3,1.1-0.4c1.8-0.2,3.5-0.4,5.3-0.7
			c1.1-0.2,2,0.1,3.1,1.1c-0.6,0.1-1.1,0-1.3,0.2c-0.4,0.4-1,0.9-1.1,1.4c-0.1,0.8,0.6,1,1.3,1c4.2,0.3,8.4,0.5,12.6,0.8
			c1.9,0.1,3.6,0.5,5.4,1.1c2.8,0.9,5.6,1.4,8.5,2c0.1,0.8,0.1,1.6,0.2,2.5C364.9-3.3,365.2-5.8,367.2-4.7z"/>
		<path class="st0" d="M431.9,62.2c0.4-0.5,0.7-0.9,0.9-1.2c0.3,0.1,0.5,0,0.6,0.1c1,1,2.1,2,3.1,3.1c0.3,0.4,0.2,1.1,0.3,1.7
			c-0.5,0-1.2,0.3-1.5,0c-2.8-1.8-5.5-3.6-8.3-5.4c-1.4-0.9-2.7-1.9-4-2.7c-1.5,1.2,0.5,2-0.2,3.1c-4.8-4.9-9.6-9.8-14.6-14.9
			c2.3-0.2,3.8,0.1,5.1,1.7c0.8,1.1,2,1.9,3,2.8C421.1,54.7,426,58.9,431.9,62.2z"/>
		<path class="st0" d="M25.3,113.9c0.1-0.5,0-0.7,0.1-0.9c2.3-3.3,4.8-6.5,6.8-10c1.5-2.6,3.5-4.8,4.7-7.6c1.3-3,3.6-5.5,5.5-8.2
			c0.9-1.3,1.7-2.6,2.5-3.8c0.2-0.3,0.4-0.8,0.7-1c0.3-0.3,0.9-0.6,1.2-0.4c0.3,0.1,0.6,0.8,0.6,1.2c-0.2,0.9-0.4,1.7-0.8,2.5
			c-0.8,1.6-1.8,3.1-2.7,4.6c-0.3,0.5-0.7,1.2-1.2,1.5c-2.9,1.9-3.9,5.1-5.7,7.7c-1.1,1.7-2.4,3.3-3.6,4.9c-0.1,0.1-0.2,0.3-0.3,0.4
			c-2.5,2.2-3.6,3.7-4.7,6.4C27.7,112.4,26.7,113.2,25.3,113.9z"/>
		<path class="st0" d="M391.6,14.6c3.5,1.7,7.4,2.8,10.2,5.7c-0.1,0.2-0.1,0.3-0.2,0.5c-1.4-0.3-2.7-0.5-4.3-0.8
			c-0.1,0.8-0.2,1.5-0.4,2.3c-4.8-2.7-9.5-5.3-14.3-7.9c0.4-1.2,0.8-2.1,1.2-3.2c1.9,0.2,3.3,1.1,4,2.8c0.6,1.4,1.4,1.7,2.8,1
			C391,14.9,391.2,14.7,391.6,14.6z"/>
		<path class="st0" d="M423.8,65.9c0.7-0.9,1.3-1.7,2.1-2.7c1.4,1.3,2.7,2.4,3.8,3.6c2.9,3,5.8,6.1,8.6,9.2c1,1.1,1.9,2.2,1.9,3.8
			c0,0.8,0.4,1.6,0.8,2.7C435.2,76.9,429.6,71.6,423.8,65.9z"/>
		<path class="st0" d="M197.2-21c-0.4,0.4-0.7,0.9-1.1,1.2c-5,3.7-10.3,7-15.7,10c-2.1,1.2-4.2,2.4-5.7,4.4c-0.3,0.4-0.6,0.8-1,1
			c-1.6,0.6-3.2,1.2-4.9,1.7c-0.7-1.2-0.1-1.9,1-2.6c4.1-2.6,8.1-5.4,12.1-8c0.5-0.3,1.2-0.4,1.8-0.7c2.7-1.3,5-3.3,7.9-4.4
			c1.9-0.7,3.5-2,5.2-3C197-21.4,197.1-21.2,197.2-21z"/>
		<path class="st0" d="M415.3,41.1c-4.1-3.5-8.2-7-12.3-10.5c-0.3-0.3-0.8-0.7-0.7-0.9c0.4-1.7-0.6-3-1-4.5c1,0.7,2.1,1.4,3,2.2
			c2.4,2.1,4.8,4.3,7.2,6.4c0.8,0.7,1.5,1.4,1.5,2.8c0,1,1.1,2,1.8,3.1c0.3,0.4,0.5,0.8,0.8,1.2C415.5,40.9,415.4,41,415.3,41.1z"/>
		<path class="st0" d="M19.2,127.6c2.8-1.1,4-3.8,5.9-6.4c0.1,0.7,0.3,1,0.2,1.2c-1.3,2.7-2.9,5.2-5.3,7.1c-0.5,0.4-1.5,0.1-2.3,0.1
			c-0.4,0.8-0.8,1.6-1.4,2.2c-0.3,0.3-1,0.3-1.5,0.5c-0.1-0.4-0.4-0.9-0.3-1.3c0.1-0.6,0.5-1.2,0.8-1.7c1.3-2.2,2.6-4.5,3.9-6.7
			c1.2-1.9,2.8-3.5,3.5-5.6c0.1-0.3,0.7-0.4,1.3-0.8c0.1,2.5-1.3,4.1-2.4,5.6C20.4,123.5,19.5,125.4,19.2,127.6z"/>
		<path class="st0" d="M299.2-18.2c1.1-0.6,1.8-1,2.8-1.5c0.6,0.3,1.4,0.7,2.5,0.1c0.9-0.5,2.3-0.1,3.8-0.1c-0.4,0.8-0.6,1.2-1,1.8
			c0.9,0.7,1.8,1.4,3.1,2.4c-1,0.2-1.6,0.5-2.1,0.4C305.5-15.6,302.3-15.7,299.2-18.2z"/>
		<path class="st0" d="M341.3,98.6c0.4,0.1,0.9,0,1.1,0.2c3.1,2.7,6.2,5.5,9.7,8.7c-1.5-0.3-2.3-1.3-3.4-0.6
			c-0.1,0.1-0.7-0.1-0.8-0.3c-2.3-2.5-4.5-5-6.7-7.5C341.1,98.9,341.2,98.8,341.3,98.6z"/>
		<path class="st0" d="M-37.4,476.4c0.5-1,1-2,1.6-3.1c1.3-0.3,1.7,0.9,2.5,1.7c-0.8,0.5-1.7,0.8-2,1.3c-0.2,0.5,0.4,1.3,0.6,2
			c0.1,0.4,0.2,0.9,0.4,1.7c-1.5-0.2-2.7-0.3-3.9-0.4C-38.6,478.2-38,477.3-37.4,476.4C-37.3,476.3-37.4,476.4-37.4,476.4z"/>
		<path class="st0" d="M326.9-21.1c3.5,1.1,6.9-0.4,10.2,1c-0.1,1-0.5,1.3-1.4,1.3c-1.7,0-3.4,0-5.1,0.1S327.7-19,326.9-21.1z"/>
		<path class="st0" d="M393.6,8.9c-1.3,0.9-2.5,1-4,0.2c-1.8-0.9-3.8-1.2-6.1-1.9c0.6-0.7,1.1-1.3,1.4-1.6c1.2,0.9,2.2,1.7,3.2,2.4
			c1.8-1.7,2.1-1.7,3.8-0.4C392.5,8.1,393,8.5,393.6,8.9C393.6,9,393.6,8.9,393.6,8.9z"/>
		<path class="st0" d="M393.6,8.9C393.6,8.9,393.6,9,393.6,8.9c1.7,0.5,3.4,0.8,5.1,1.3c0.5,0.2,0.9,0.8,1.7,1.4
			c-0.9,0.2-1.3,0.5-1.7,0.4c-1-0.2-2-0.6-3-0.7C394.3,11.1,393.5,10.4,393.6,8.9z"/>
		<path class="st0" d="M72.8,330.7c-1,2.8-0.4,5.8-1,9.1C71.2,336.9,71.6,332.5,72.8,330.7z"/>
		<path class="st0" d="M163.4,0.5c0.1-1.8,0.1-1.8,2.5-2.6C165.9-0.3,165.6,0,163.4,0.5z"/>
		<path class="st0" d="M73.2,328.4c-0.8-1.7,0.2-3.2,0.4-4.8C74.7,325.3,73.6,326.8,73.2,328.4z"/>
		<path class="st0" d="M50.4,530.3c2.3,1.4,2.3,1.4,1.7,2.8C50,532.4,49.7,532,50.4,530.3z"/>
		<path class="st0" d="M-38.5,481.6c0.4-0.3,0.9-0.6,1.5-1.1c0.5,0.9,1,1.6,1.5,2.5c-1.6,0.6-2-0.8-3.1-0.7
			C-38.5,482.1-38.5,481.9-38.5,481.6z"/>
		<path class="st0" d="M250.6-29.9c-0.2,0.3-0.4,0.8-0.7,0.9c-1.1,0.3-2.3,0.4-3.5,0.4C247.7-29.6,248.7-31.3,250.6-29.9
			C250.6-29.8,250.6-29.9,250.6-29.9z"/>
		<path class="st0" d="M139.3,9.7c1-0.3,1.7-0.6,2.3-0.8c0.1,0.4,0.3,1,0.2,1.3C141.2,11,140.5,10.9,139.3,9.7z"/>
		<path class="st0" d="M372.5,113.9c1,0.5,1.5,0.8,2.1,1s1.2,0.3,2.2,1.1c-0.4,0.1-0.8,0.4-1.1,0.3
			C374.5,116.1,373.3,115.7,372.5,113.9z"/>
		<path class="st0" d="M72.7,535.1c-0.9-0.5-1.4-0.8-2.3-1.2c0.7-0.7,1.2-1.3,1.9-2C72.4,533,72.5,533.9,72.7,535.1z"/>
		<path class="st0" d="M312.4-15.1c1.2,0.1,2.4,0.3,3.9,0.4C314.5-13.6,314.4-13.6,312.4-15.1z"/>
		<path class="st0" d="M-72.6,221.8c-0.4,1.1-0.7,2.2-1.1,3.4C-74.5,224-74.5,224-72.6,221.8z"/>
		<path class="st0" d="M0.9,153.2c-0.5,1-1,2.1-1.5,3.1c-0.1,0-0.2-0.1-0.4-0.1c0.4-1.1,0.8-2.1,1.3-3.2
			C0.6,153,0.7,153.1,0.9,153.2z"/>
		<path class="st0" d="M158.1,3.3c0.5-1.5,1.3-1.7,2.6-1.2C160.1,3.2,159.2,3.2,158.1,3.3z"/>
		<path class="st0" d="M311.9,86.3c-1.2-1-2.8-1.5-2.9-3.4l-0.1,0.1C310.1,83.9,311.4,84.6,311.9,86.3L311.9,86.3z"/>
		<path class="st0" d="M40.7,70.5c-0.5,0.5-1,1.1-1.8,2c0-1.5,0.6-2,1.3-2.4C40.3,70.3,40.5,70.4,40.7,70.5z"/>
		<path class="st0" d="M-27.9,445c0.9-1.2,1.5-1.1,2.6-0.1C-26.3,444.9-26.9,445-27.9,445z"/>
		<path class="st0" d="M249.4,588.8c0.3,0.3,0.7,0.7,1,1c-0.1,0.1-0.2,0.3-0.3,0.4c-0.4-0.3-0.8-0.6-1.2-0.9
			C249.1,589.2,249.2,589,249.4,588.8z"/>
		<path class="st0" d="M27,119.4c-0.2,0.4-0.3,0.7-0.5,1.1c-0.2-0.1-0.4-0.2-0.5-0.3c0.2-0.3,0.4-0.7,0.7-1
			C26.8,119.3,26.9,119.3,27,119.4z"/>
		<path class="st0" d="M32.2,524.8c-0.4,0-0.8,0-1.2,0c0,0,0-0.4,0-0.6c0.4,0,0.8,0,1.2,0C32.2,524.4,32.2,524.6,32.2,524.8z"/>
		<path class="st0" d="M47.5,529c0.2-0.4,0.4-0.8,0.5-1.2c0.1,0,0.3,0.1,0.4,0.1c-0.1,0.4-0.3,0.8-0.4,1.2
			C47.9,529.2,47.7,529.1,47.5,529z"/>
		<path class="st0" d="M67.5,532.2c0.1,0.3,0.2,0.6,0.3,0.9c0,0-0.2,0.1-0.4,0.2c-0.1-0.3-0.3-0.5-0.4-0.8
			C67,532.5,67.2,532.4,67.5,532.2z"/>
		<path class="st0" d="M417.8,44.3c-0.4-0.4-0.9-0.8-1.4-1.3c0.4-0.2,0.6-0.4,0.6-0.4c0.4,0.4,0.8,0.8,1.3,1.3
			C418.1,44,418,44.2,417.8,44.3z"/>
		<path class="st0" d="M136.4,12.6c-0.4,0.3-0.7,0.4-1,0.6c-0.1-0.2-0.3-0.4-0.2-0.5c0.1-0.2,0.4-0.4,0.6-0.5
			C135.9,12.1,136.1,12.4,136.4,12.6z"/>
		<path class="st0" d="M-67.5,601.4c-0.1-0.6-0.2-1.2-0.4-1.8c0.2,0,0.3,0,0.5-0.1c0.1,0.6,0.1,1.2,0.2,1.8
			C-67.3,601.4-67.4,601.4-67.5,601.4z"/>
		<path class="st0" d="M71.6,341.2c0,0.3,0,0.5-0.1,0.6c-0.1,0.3-0.3,0.7-0.5,1c-0.1,0-0.2-0.1-0.1-0.1c0.1-0.4,0.2-0.9,0.4-1.3
			C71.3,341.3,71.4,341.3,71.6,341.2z"/>
		<path class="st0" d="M379.4,140.3c-0.2,0-0.3,0-0.5,0c-0.3-0.1-0.5-0.3-0.7-0.5c0,0,0.1-0.2,0.2-0.4c0.3,0.2,0.6,0.3,0.8,0.5
			C379.4,139.9,379.4,140.2,379.4,140.3L379.4,140.3z"/>
		<path class="st0" d="M-113.9,595.1c-0.1,0.1-0.1,0.3-0.2,0.3s-0.2-0.1-0.3-0.2c0.1-0.1,0.1-0.3,0.2-0.3
			C-114.1,594.9-114,595.1-113.9,595.1z"/>
		<path class="st0" d="M373.6-3.1c-0.1,0-0.2,0.1-0.4,0.1c0-0.1-0.1-0.2-0.1-0.3l0.2-0.1C373.4-3.3,373.5-3.2,373.6-3.1z"/>
		<path class="st0" d="M-53.1,615.4c-0.1,0.1-0.3,0.3-0.4,0.4c-0.1-0.1-0.2-0.3-0.2-0.3c0.1-0.2,0.2-0.3,0.3-0.5
			C-53.3,615.1-53.2,615.2-53.1,615.4z"/>
		<path class="st0" d="M67.8,536.6c-0.1,0-0.3,0-0.4,0c-0.1-0.1,0-0.3,0-0.4c0.1,0,0.3,0,0.4,0C67.9,536.3,67.8,536.5,67.8,536.6z"
			/>
		<path class="st0" d="M151,6.4c-0.2,0.1-0.4,0.2-0.6,0.2c0-0.1-0.1-0.3-0.1-0.4c0.1-0.1,0.2-0.2,0.4-0.2
			C150.8,6.1,150.9,6.2,151,6.4z"/>
		<path class="st0" d="M-36.1,488c0.1,0.3,0.2,0.5,0.2,0.7c0,0.1-0.2,0.3-0.2,0.3c-0.2-0.1-0.3-0.2-0.5-0.3
			C-36.5,488.5-36.4,488.4-36.1,488z"/>
		<path class="st0" d="M38.4,66.7c-0.2,0.5-0.4,1-0.6,1.5c-0.1-0.1-0.2-0.1-0.3-0.2C37.8,67.6,38.1,67.1,38.4,66.7L38.4,66.7z"/>
		<path class="st0" d="M378.3,129.6c3.7,2.6,6.2,6.2,9.3,9.4c-1.8,0.2-2.5-1.5-3.6-2.3c-1.3-0.9-2.5-2-3.6-3.2
			c-1-1.1-1.8-2.3-2.7-3.5C377.9,129.9,378.1,129.8,378.3,129.6z"/>
		<path class="st0" d="M47.8,535.9c-1.6-0.6-3.5,0.2-4.7-1.7c1.5-0.9,3.1-0.5,4.5-0.3C48.3,533.9,48.3,534.9,47.8,535.9z"/>
		<path class="st0" d="M-82.3,258.3c0.3-2,0.7-4.1,1-6.1C-80.6,254.2-80.9,255.8-82.3,258.3z"/>
		<path class="st0" d="M63.7,540.2c0.5-0.3,1-0.8,1.5-0.9c0.3-0.1,0.8,0.3,1.2,0.4c-0.2,0.4-0.4,1.2-0.7,1.3c-0.6,0.2-1.3,0-2-0.1
			C63.8,540.7,63.7,540.5,63.7,540.2z"/>
		<path class="st0" d="M39,532.1c3,0.8,3.3,1.2,2,3.3C40.4,534.4,39.8,533.5,39,532.1z"/>
		<path class="st0" d="M-51.4,165.1c-0.2,1.4-0.9,2.6-2.2,4C-53.5,166.9-52.9,165.7-51.4,165.1z"/>
		<path class="st0" d="M44.4,562.3c-1.6,1.3-2,1.2-3-0.8C43.1,561.3,43.1,561.3,44.4,562.3z"/>
		<path class="st0" d="M30.4,529.7c-1.5,1.3-2.2,0.8-2.8,0.1c-0.2-0.2-0.2-0.7-0.2-1.1c0.4-0.1,0.9-0.3,1.2-0.2
			C29.2,528.8,29.7,529.2,30.4,529.7z"/>
		<path class="st0" d="M212.8,77.5c0.1,1.9-0.1,2-2,1.6C211.1,77.7,211.1,77.7,212.8,77.5z"/>
		<path class="st0" d="M48.9,560.2c-0.4,0.9-0.9,1.6-1.9,1.1c-0.2-0.1-0.4-0.8-0.3-1C47.3,559.3,48,559.5,48.9,560.2z"/>
		<path class="st0" d="M44.4,565.8c0.7,0.3,1.3,0.7,1.9,1c-0.2,1.2-0.8,1.5-1.6,1.3c-0.8-0.3-0.7-1-0.5-1.6
			C44.3,566.2,44.4,565.9,44.4,565.8L44.4,565.8z"/>
		<path class="st0" d="M45.7,557.3c-1.9,0.5-1.9,0.5-2.6-1C44.2,555.9,44.7,556.7,45.7,557.3z"/>
		<path class="st0" d="M-25.2,511.6c-0.5,0-1,0-1.4,0c0-0.3-0.1-0.5,0-0.6C-26,510.7-26,510.7-25.2,511.6z"/>
		<path class="st0" d="M95.8,541.9c0.2-1.5,0.2-1.5,1.3-1.9c0,0.3,0,0.7-0.1,0.9C96.8,541.2,96.5,541.4,95.8,541.9z"/>
		<path class="st0" d="M94.8,537c0.9,0.2,1.5,0.3,2.3,0.4C96,538.3,96,538.3,94.8,537z"/>
		<path class="st0" d="M75.4,563.3c0.3,0.4,0.6,0.7,0.6,0.8c-0.2,0.3-0.5,0.5-0.8,0.7c0,0-0.4-0.3-0.4-0.4
			C74.9,564.1,75.1,563.8,75.4,563.3z"/>
		<path class="st0" d="M-72.9,189.1c-0.2,0.5-0.4,0.9-0.8,1.7c-0.8-1.1-0.4-1.6,0.2-2C-73.3,189-73.1,189.1-72.9,189.1z"/>
		<path class="st0" d="M376.2,149.1c-0.4,0.3-0.6,0.6-0.8,0.6c-0.2,0-0.6-0.3-0.6-0.6c0-0.2,0.2-0.5,0.4-0.8
			C375.4,148.6,375.7,148.8,376.2,149.1z"/>
		<path class="st0" d="M-29.7,533.5c-0.4,0.3-0.6,0.6-0.8,0.6c-0.2,0-0.6-0.3-0.6-0.5s0.2-0.5,0.4-0.7
			C-30.5,533-30.2,533.2-29.7,533.5z"/>
		<path class="st0" d="M-80.5,250.2c0.2-0.6,0.3-1.2,0.5-1.8c0.2,0,0.3,0.1,0.5,0.1c-0.1,0.6-0.2,1.2-0.3,1.8
			C-80.1,250.2-80.3,250.2-80.5,250.2z"/>
		<path class="st0" d="M44.4,565.7c-0.2,0.1-0.5,0.2-0.7,0.2c-0.2-0.1-0.3-0.4-0.5-0.6c0.2,0,0.5-0.1,0.6,0
			C44.1,565.3,44.2,565.6,44.4,565.7C44.4,565.8,44.4,565.7,44.4,565.7z"/>
		<path class="st0" d="M87.6,544.3c0.2-0.1,0.4-0.2,0.6-0.2c0.1,0,0.2,0.2,0.3,0.3c-0.2,0.1-0.4,0.2-0.6,0.3
			C87.8,544.7,87.7,544.5,87.6,544.3z"/>
		<path class="st0" d="M-15.4,518.4c-0.1,0.1-0.2,0.2-0.3,0.3c-0.1-0.2-0.2-0.3-0.3-0.5c0.1,0,0.3-0.2,0.4-0.1
			C-15.5,518.1-15.4,518.3-15.4,518.4z"/>
		<path class="st0" d="M221.2,74.5c-0.1,0.1-0.2,0.2-0.3,0.3c-0.1-0.1-0.2-0.3-0.4-0.4c0.1-0.1,0.3-0.2,0.4-0.2
			C221,74.2,221.1,74.4,221.2,74.5z"/>
		<path class="st0" d="M325.2,104.1c0.2,0.5,0.3,0.8,0.4,1.1c-0.2-0.1-0.4-0.2-0.6-0.4C325,104.8,325.1,104.6,325.2,104.1z"/>
		<path class="st0" d="M425,134.3c0.6-0.3,0.8-0.4,1-0.5c0.1,0.2,0.2,0.4,0.2,0.5s-0.2,0.3-0.3,0.3
			C425.7,134.6,425.5,134.5,425,134.3z"/>
		<path class="st0" d="M-68.2,191.2c0.2,0.1,0.4,0.2,0.4,0.2c0,0.2-0.1,0.4-0.2,0.6c-0.1-0.1-0.4-0.1-0.4-0.2
			C-68.3,191.6-68.2,191.4-68.2,191.2z"/>
		<path class="st0" d="M235.7,592.5c0.8,0.9,1.5,1.6,2.1,2.3C235.9,595.5,235.6,595.2,235.7,592.5z"/>
		<path class="st0" d="M436.2,451.5c-0.1,0.1-0.2,0.2-0.3,0.3c-0.1-0.1-0.3-0.3-0.2-0.4c0.1-0.1,0.3-0.2,0.4-0.4
			C436.1,451.2,436.1,451.4,436.2,451.5z"/>
		<path class="st0" d="M108.2,27.7c-0.6,0.1-0.9,0.3-1.3,0.3c-0.1,0-0.3-0.6-0.2-0.7c0.1-0.2,0.5-0.4,0.8-0.3
			C107.7,26.9,107.8,27.3,108.2,27.7z"/>
		<path class="st0" d="M107.4,269.5c0.1-0.6,0.3-1.3,0.4-1.9c0.1,0,0.3,0.1,0.4,0.1c-0.1,0.6-0.2,1.3-0.4,1.9
			C107.7,269.6,107.5,269.5,107.4,269.5z"/>
		<path class="st0" d="M104.6,256.1c1.4,0.3,1.4,0.3,0.5,1.9C104.9,257.2,104.7,256.6,104.6,256.1
			C104.6,256,104.6,256.1,104.6,256.1z"/>
		<path class="st0" d="M114,241.3c0.1-0.3,0.1-0.6,0.2-1c0.1,0,0.2,0,0.4,0.1c-0.1,0.3-0.1,0.6-0.2,1
			C114.2,241.4,114.1,241.4,114,241.3z"/>
		<path class="st0" d="M64.3,567.5c0.3-0.5,0.5-0.9,1-1.9c0.3,1.1,0.7,1.8,0.5,2.3c-0.1,0.4-1,0.6-1.6,0.6c-0.8,0-1.8,0-2.3-1.3
			C62.8,567.4,63.5,567.4,64.3,567.5z"/>
		<path class="st0" d="M58.4,564.3c0.7-0.6,1.3-1.7,2.9-0.4C60,564.1,59.2,564.2,58.4,564.3C58.3,564.3,58.4,564.3,58.4,564.3z"/>
		<path class="st0" d="M334,112.2c-0.1,0.1-0.2,0.2-0.3,0.3c-0.1-0.2-0.2-0.4-0.3-0.5c0,0,0.2-0.1,0.4-0.2
			C333.9,111.9,334,112,334,112.2z"/>
		<path class="st0" d="M406.8,361.2c2.1-1.5,3.1-1.3,4,0.5c1.2,2.4,2.3,5,3.5,7.4c0.9,1.9,1.9,3.7,2.6,5.7c1.6,4.1,4.4,7.6,5.5,12.1
			c0.5,2,1.8,3.7,3,5.9c-0.2,0.3-0.8,0.8-1.1,1.4c-0.3,0.6-0.4,1.3-0.6,2c-1.3-1.1-2.3-3.6-1.9-5.3c0.5-1.7,0.4-3.1-0.7-4.5
			c-0.6-0.7-0.7-1.8-1-2.7c-0.2-0.5-0.4-0.9-0.9-1.3c-0.3,2.4,1.1,4.5,1.2,6.9c-1.5-1.5-1.8-3.6-2.8-5.3c-1.1-1.9-2-3.8-3-5.8
			c-0.9-1.9-1.8-3.8-2.7-5.7c-1-1.9-2-3.7-3-5.6c-1-1.8-1.9-3.7-2.9-5.7c-0.8,0.2-1.4,0.4-2.4,0.7c-0.5-1.1-1.1-2-1.3-3.1
			c-0.9-3.8-3.1-7.1-4.5-10.7c-0.5-1.1-1.6-2-2.3-3.1c-0.8-1.2-1.7-2.5-0.2-3.9c0.3-0.3,0-1.2-0.2-1.7c-0.8-1.8-1.6-3.5-2.4-5.2
			c-0.2-0.4-0.4-0.9-0.6-1.3c-0.2-0.4-0.6-0.7-0.6-1c-0.1-0.7,0-1.4,0-2c0.7,0.1,1.4,0.1,1.9,0.4s0.8,0.9,1.2,1.3
			c0.1-0.1,0.3-0.2,0.4-0.2c-0.8-1.8-1.5-3.5-2.3-5.3c-0.3-0.8-0.7-1.7-0.8-2.5c-0.1-0.4,0.3-1.2,0.5-1.2c0.5-0.1,1.2,0.1,1.4,0.5
			c0.5,0.6,0.8,1.4,1.2,2.1c0.9,1.5,1.7,3,3,4.3c1.4,1.3,2.4,3,3.7,4.6c0.5-2-2.1-2.7-1.8-4.8c2.4,1.3,2.4,3.9,3.9,5.7
			c-2.4,0.8-1.7,2.5-1,3.8c1.3,2.4,1.6,5.3,3.9,7.2c0.8,0.7,0.7,1.7-0.5,2.6c-1-2-2-4-3-5.9c-1.1-1.9-2.2-3.7-3.5-5.7
			c-0.6,1.1-0.2,1.8,0.1,2.5c1.4,3.4,2.7,6.7,4.1,10.1c0.4,1,0.7,1.9,0,2.9c-0.3,0.4-0.3,1.1-0.2,1.6
			C404.8,356.1,405.8,358.5,406.8,361.2z M398.7,334.4c-0.1-0.1-0.2-0.3-0.2-0.4c-0.1,0.1-0.3,0.3-0.3,0.4s0.2,0.2,0.3,0.3
			C398.5,334.6,398.6,334.5,398.7,334.4z"/>
		<path class="st0" d="M296.9,299c-0.3-1.8-1.5-2.8-2.7-3.7c-0.7-0.5-1.5-1.2-1.1-2.2c0.3-0.8,0.9-1.7,1.6-1.9
			c0.7-0.2,1.8,0.3,2.3,0.8c1.7,1.9,2.8,4.3,3.4,6.8c0.2,0.7-0.5,1.7-0.8,2.7c0.7,2.6,1.7,5.3,2,8.2c0.2,2.4-0.4,5-0.7,7.4
			c-0.1,0.7-0.4,1.4-0.6,2.1c-0.9,2.9-3.6,3.7-5.6,1.5c-1.2-1.3-2.3-2.5-3.9-3.4c-1.5-0.8-1.5-2.7-1.4-4.2c0.2-3.5,1-6.9,2.8-10
			c0.3-0.6,0.8-1,1-1.6C293.9,299.9,295.2,299.2,296.9,299z"/>
		<path class="st0" d="M280.1,282.5c-0.2-1.3-0.5-2.7-0.5-4c0-3.2,1.7-5.6,4.4-7.3c2.5-1.6,4.8-1,7.1,0.2c1.4,0.7,1.8,1.8,1.5,3.5
			c-0.1,0.7-0.2,1.4-0.4,2.1c-0.6,2.9-2.1,5-5,6c-1.3,0.5-2.5,1.4-3.8,2C281.4,285.8,279.8,284.7,280.1,282.5z"/>
		<path class="st0" d="M417.4,423c-0.3-0.7-0.7-1.4-0.8-2.1c-0.6-3.5-1.1-7-1.8-10.5c-0.4-2.4-1.1-4.7-1.5-7
			c3.1,6.1,3.5,12.8,4.8,19.4C417.9,422.9,417.6,422.9,417.4,423z"/>
		<path class="st0" d="M417.8,434.6c-0.5-1-1-1.4-1-1.8c0.2-2.8,0.5-5.6,1-8.4c0.5,2.7,1.3,5.4,1,8.2
			C418.8,433.1,418.3,433.6,417.8,434.6z"/>
		<path class="st0" d="M403.9,328.8c-0.4-0.1-0.9-0.1-1.1-0.3c-1.8-2.3-3.5-4.6-5.3-6.9c-0.2-0.2-0.1-0.6-0.2-0.9
			c1,0.2,2.4,1.6,3.7,3.7C402.1,325.8,402.9,327.3,403.9,328.8L403.9,328.8z"/>
		<path class="st0" d="M403.9,328.8c1.2,1.8,2.5,3.5,3.7,5.3c0.3,0.5,0.5,1.1,0.7,1.6c-0.3,0.1-0.5,0.2-0.5,0.1
			C406.1,333.8,404.2,331.7,403.9,328.8L403.9,328.8z"/>
		<path class="st0" d="M234.4,584.9c-0.6-0.7-1-1.2-1.4-1.7c0.5-1,1.2-1.2,1.8-0.7C235.4,583.2,235.4,584,234.4,584.9z"/>
		<path class="st0" d="M397.1,323.5c0.5,0.8,1,1.6,1.5,2.4c0.3,0.5,0.4,1.1,0.4,1.7C397.7,326.4,396.5,325.4,397.1,323.5
			L397.1,323.5z"/>
		<path class="st0" d="M397.2,323.4c-1.4,0.3-1.9-0.6-2.6-1.8C396.3,321.4,396.2,323.2,397.2,323.4
			C397.1,323.5,397.2,323.4,397.2,323.4z"/>
		<path class="st0" d="M291,542.6c-0.5,0.2-1,0.4-1.5,0.6C289.8,541.7,290.4,542.2,291,542.6C291.1,542.7,291,542.6,291,542.6z"/>
		<path class="st0" d="M410.4,339.1c-0.2,0.1-0.3,0.3-0.5,0.4c-0.1-0.2-0.3-0.4-0.3-0.5c0.1-0.2,0.3-0.3,0.5-0.4
			C410.2,338.7,410.3,338.9,410.4,339.1z"/>
		<path class="st0" d="M398.7,334.4c-0.1,0.1-0.2,0.2-0.2,0.3c-0.1-0.1-0.3-0.2-0.3-0.3c0-0.2,0.2-0.3,0.3-0.4
			C398.5,334.1,398.6,334.2,398.7,334.4z"/>
	</g>
</g>
</svg>
