<?xml version="1.0" encoding="utf-8"?>
<!-- Generator: Adobe Illustrator 19.1.0, SVG Export Plug-In . SVG Version: 6.00 Build 0)  -->
<svg version="1.1" id="Layer_1" xmlns="http://www.w3.org/2000/svg" xmlns:xlink="http://www.w3.org/1999/xlink" x="0px" y="0px"
	 viewBox="-114 -98.7 612 792" style="enable-background:new -114 -98.7 612 792;" xml:space="preserve">
<style type="text/css">
	.st0{fill:#FFFFFF;}
</style>
<g>
	<path class="st0" d="M170.4,242.6c4.1,2.3,8.7,3.6,13.4,3.8c7.6,0.4,15.4-2.1,20.7-7.5c2.3,1.7,0.4,5.4-1.9,7.1
		c-7.3,5.5-17.4,7.1-26.1,4.3C173,249.1,169.2,246.1,170.4,242.6z"/>
	<path class="st0" d="M282.2,314.1c0-2.1,0.1-4.3,1.1-6.1s3-3.3,5.1-2.8c-3.4,28.5-1.8,57.5,4.7,85.4c-1.3,1-3.3,0.3-4.3-1
		s-1.3-3-1.6-4.6C283.5,361.6,281.8,337.8,282.2,314.1z"/>
	<path class="st0" d="M234.5,60.1c-11.4,3-21.2,10.1-32,14.9c-10.8,4.7-24.2,6.7-33.7-0.4c-6.2-4.6-10.4-12.9-18-14
		c-6.6-1-12.4,3.8-17.7,7.7c-7.2,5.2-15.4,9.5-24.3,9.8c-8.9,0.3-18.3-4.3-21.6-12.6c11.5,8.8,28.6,9.4,40.8,1.6
		c7.5-4.8,14.4-12.8,23.2-11.8c10,1.2,14.8,13.3,23.8,17.8c12.2,6.1,25.9-3.5,38.2-9.4c10.3-5,21.7-7.5,33.1-7.4
		c8,0.1,18.2,4.3,17,12.2c-1.5,9.8-0.6,21.6,7.8,26.8c7.2,4.5,16.5,1.9,25,0.8c8.4-1.2,19.2,0.8,21.6,9c1.5,5.3-1.4,10.8-2.6,16.2
		s0.9,12.9,6.5,13c8.5,0.3,17.4,0.7,24.5,5.2c7.1,4.6,11.3,14.8,6.5,21.8c-3.5,5,1.1,11.8,6.4,14.8s11.7,4.5,15.4,9.4
		c7.6,10.1-2.9,24.1-2,36.7c0.9,11.9,12.1,21.5,11.5,33.4c-0.6,10.9-13.4,19.2-23.6,15.4c-0.9-1.8,1-3.8,2.9-4.2
		c1.9-0.4,3.9,0.2,5.9,0.2c9.1-0.2,12-13,8.7-21.4s-10-15.9-10.1-25c-0.2-10.9,9.2-22.3,3.6-31.7c-5.5-9.2-22.3-8.9-24.2-19.5
		c-1.1-6,3.9-11.9,2.9-18c-1.3-8.5-12.1-10.9-20.7-11.6c-8.5-0.7-19.4-3.7-20-12.3c-0.5-6.5,5.9-12.3,4.8-18.8
		c-1.1-6.1-8.4-9.1-14.6-8.7s-12.2,2.8-18.4,2.8c-13.4-0.2-24.6-14.6-21.5-27.6c1.4-5.7-2.5-11.8-7.8-14.3
		C246.5,58.3,240.2,58.6,234.5,60.1z"/>
	<path class="st0" d="M85.4,232.9c2.7,2.7,7.4,0.5,10.1-2.2s5.9-6,9.7-5.2c-1.8,9.9-13.9,16.3-23.2,12.4c-2.2,5.5,0.6,11.9,4.7,16.2
		s9.5,7.1,14.1,10.8c16.1,13,21.5,35.2,22.4,55.8c0.2,5.8,0.7,12.7,5.7,15.8c-2.5-25.7,9.8-52.4,31-67.2c4.1-2.9,5-8.7,4-13.6
		s-3.5-9.4-4.8-14.2c-2.7-10.1,0.6-21.6,8.1-28.9c7.6-7.3,19.1-10,29.2-7c14.9,4.5,24.3,22,20.5,37.2c-3.9,15.1-19.9,25.9-35.5,24.4
		c-4.2-0.4-8.7-1.6-12.5,0.1c-1.9,0.8-3.4,2.3-4.9,3.7c-10.5,10.1-20.5,21.2-25.6,34.8c-4.9,13-4.9,27.2-4.9,41
		c0,28.8,0.1,57.8,4.7,86.3c0.9,5.4,1.1,12.5-3.9,14.8c-4.2-27.6-5.6-55.7-4.2-83.6c0.5-8.9,0.4-19.5-6.9-24.5c-2-1.4-2.6-4-3-6.5
		c-3.7-22.4-4.1-48.3-21.4-62.9c-4.1-3.5-9-6-13-9.7c-4.8-4.3-8.2-10-9.7-16.2c-0.8-3.3-1-7,0.8-9.8C78.5,231.8,83,230.5,85.4,232.9
		 M195.1,260.3c10.7-3.7,17-15.6,16.8-26.9c-0.1-7.4-3.2-15.3-9.7-18.9c-3.7-2.1-8.1-2.5-11.6-4.9c-4.4-2.9-10.4-0.9-14.6,2.2
		c-10.1,7.4-15.2,21.4-11,33.2C169.2,256.8,183.3,264.5,195.1,260.3z"/>
	<path class="st0" d="M346.5,419.1c-2.5-33-3.9-66.1-4.4-99.2c0-2.2,0.8-5.2,3-4.9c1.8,0.3,2.2,2.6,2.2,4.5
		c-0.6,34.3,0.9,68.7,4.5,102.8c0.2,1.6-2.4,2.3-3.6,1.3C346.8,422.5,346.6,420.7,346.5,419.1z"/>
	<path class="st0" d="M229.2,135.7c2.9-1.4,5,3.3,4.7,6.5c-0.9,9.7-4.5,19-5.1,28.8c-1.3,18.4,8,35.6,16,52.2s15.1,35.5,9.6,53.1
		c-2-21.3-8.2-42.2-18-61.2c-3.9-7.5-8.3-14.7-10.5-22.8c-3.8-14.2-0.4-29.2,3.1-43.4c-5.1,1.6-7.1,7.4-9.3,12.2s-7,9.9-11.9,7.9
		c-3.3-1.3-4.7-5.2-5.3-8.6c-1.8-9.2-1.2-18.9,1.7-27.9c-8.3,10.7-16,21.8-23.2,33.2c-2.8,4.5-10.2,4-14,0.2s-5.2-9.3-6.3-14.5
		c-2.5-11.7-5-23.4-7.5-35c-5.7,21.7-11.5,43.3-17.2,65c-0.6,2.2-1.6,4.8-3.8,5c-1.7,0.2-3.1-1.1-4.3-2.3
		c-6.4-6.6-12.9-13.2-19.3-19.8c9.9,29.6,9.8,62.4-0.3,91.9c-4.6-3.1-2.7-10.2-1-15.6c3.5-11.3,3.4-23.3,3.2-35.1
		c-0.3-14.4-0.8-29.7-9.1-41.4c-3.2-4.5-7.6-9.7-5.5-14.7c11.8,9.6,23.5,19.3,35.2,29.1c6.1-26.3,13.8-52.1,23-77.5
		c4.1,2.2,4.5,7.9,4.6,12.6c0.4,13.7,3.1,27.3,7.9,40.1c1.1,2.8,2.4,5.8,4.8,7.5c2.5,1.7,6.5,1.5,8-1.1
		c7.5-13.7,17.1-26.1,28.5-36.7c5.9,10.6-5.8,25.4,1.3,35.3c0.9,1.3,2.3,2.4,3.9,2.2c1.4-0.2,2.5-1.4,3.3-2.5
		C221.4,151.2,225.8,143.7,229.2,135.7z"/>
	<path class="st0" d="M151.2,352.2c-0.3-6.5-0.4-13.6,3.9-18.5c1.1,29.4,2.3,58.9,3.4,88.3c0.3,9.1,0.8,18.4,4.6,26.6
		c1,2.2-2.7,4.2-4.7,2.7s-2.3-4.3-2.4-6.8C154.3,413.8,152.8,383,151.2,352.2z"/>
	<path class="st0" d="M104.7,410.4c-4.9-0.8-6.5-7-6.9-12c-2.4-27.4-4.8-54.7-7.2-82.1c-0.2-2.7-0.2-6,2.1-7.4
		c3.3,4.2,3.6,10,3.8,15.3C97.6,353,100.3,381.8,104.7,410.4z"/>
	<path class="st0" d="M19.8,248.1c-2.3,9.4-15.7,12.9-23.7,7.3c-8-5.5-10.4-16.8-8-26.2c1.2-4.6,2.4-11.2-2.1-12.7
		c-8.9-3.1-10.5-15.7-6.5-24.3s11.4-15.1,15.8-23.5c-8.2-5.5-15.7-13.5-16.6-23.3c-1-11.7,7.9-22.4,18.6-27.2s22.8-5.1,34.5-5.2
		c-9.5-11.2-6.6-29.8,4.2-39.7S63.5,61.5,77.4,66c2.8,0.9,6.1,4,4,6.1c-12.9-4.7-28.2-5.9-39.6,1.6C30.3,81.2,26,99.6,36,109
		c2.6,2.4,0.7,7.1-2.5,8.6s-6.9,0.9-10.5,0.5c-13.1-1.4-27.9,2.1-35.5,12.9s-3.1,29.3,9.8,31.9c3.3,0.7,4.8,5,3.7,8.2
		s-3.8,5.5-6.3,7.8c-5.7,5.1-11.4,11.3-12.5,18.9s4.5,16.6,12.2,16.1c2.9-0.2,4.7,3.6,4.1,6.4c-0.7,2.9-2.8,5.2-4.1,7.8
		c-3.6,6.7-1.7,15.9,4.3,20.6S14.1,253.1,19.8,248.1z"/>
	<path class="st0" d="M331.7,252.9c6.8,9.3,14.5,17.8,20.6,27.5c6.8,10.7,11.4,22.6,14.9,34.8c6.1,21.9,8.3,44.6,10.5,67.2
		c1.3,13.9,2.7,27.8,4,41.6c-7.9-23.7-9-49-12.1-73.7c-3.1-24.8-8.5-50.2-23.3-70.3c-11.6-15.7-29.5-30.1-28.3-49.6
		C321.9,238.3,326.5,245.8,331.7,252.9z"/>
	<path class="st0" d="M277.3,251.5c1.6-4.3,2.7-10,7.2-10.7c0.7,6.5-1.5,13.3-5.9,18.2c-10,11-16.6,25.1-18.5,39.9
		c-2.2-0.1-4-2.2-4.4-4.4c-0.4-2.2,0.1-4.4,0.8-6.6c2.6-8.4,6.7-16.3,12-23.3C271.6,260.5,275.4,256.5,277.3,251.5z"/>
	<path class="st0" d="M260.8,428.7c-1.6-24.2-3.2-48.4-4.8-72.6c-1.2-17.8-2.4-35.9-8.4-52.8s-17.6-32.5-34.1-39.4
		c-3.1-1.3-1.1-6.6,2.1-7s6.2,2,8.6,4.2c7.6,6.9,15.2,14,20.7,22.7c10.2,16,12.2,35.7,13.8,54.5c3,35.4,5.6,70.8,7.8,106.2
		C262,441,261.2,434.5,260.8,428.7z"/>
	<path class="st0" d="M235.2,457.6c-2.8-44.6-4.9-89.3-6.1-134c-0.1-2.4,1.8-5.9,3.7-4.3c2.3,50.7,4.7,101.4,7,152
		C236.1,468,235.5,462.6,235.2,457.6z"/>
	<path class="st0" d="M35.1,241.6c0.7-1,1.5-2.2,2.7-2.4c3.4-0.5,2.9,5.1,1,7.9c-14.7,20.6-31.2,41.5-34.9,66.5
		c-1.7,11.6-0.4,23.4,0.8,35.1c2.5,23.8,5.1,47.6,7.6,71.4c0.3,2.7,0.8,5.7,3,7.1c0.7,2.5,1.4,5.3,0.4,7.6c-1,2.4-4.6,3.7-6.3,1.8
		c-0.8-0.9-0.9-2.1-1-3.3c-3-28-5.9-56-8.9-84c-1.6-15.5-3.3-31.4,0.8-46.4c3.4-12.8,10.7-24.1,17.9-35.2
		C23.8,259,29.5,250.3,35.1,241.6z"/>
	<path class="st0" d="M317,208.5c-0.7-5.6-4.4-11.3-9.9-12.5c-4.2-0.9-9.7,0.2-11.7-3.6c-0.9-1.7-3.4-1.3-5.1-0.4
		c-4.9,2.7-8.2,7.8-9.6,13.3c-1.4,5.4-1,11.2,0,16.7c1,5.3,2.6,10.7,6.1,14.8c3.5,4.1,9.2,6.8,14.4,5.4c7.2-1.9,10.7-9.9,13-17
		C316,219.8,317.7,214.2,317,208.5z M292.4,195.9c0.9-0.6,2.3-0.2,2.6,0.8c-0.9,0.4-1.7,0.9-2.6,1.3l-0.2,0.7
		C291.5,197.9,291.5,196.5,292.4,195.9z M312.4,213.7v6l0,0l0,0v0.3c0,0.8-0.4,1.3-0.9,1.7c-0.8,1.7-1.6,3.5-2.4,5.2
		c-2,4.3-4.5,9-9.1,10.3c-3.8,1-7.9-0.9-10.4-3.8c-2.5-3-3.8-6.8-4.6-10.6c0.1,0,0.2,0.1,0.3,0.1c-0.5-2.1-0.4-4.3-0.4-6.5
		c0-0.3,0.1-0.5,0.1-0.7c-0.1-0.4-0.2-0.9-0.2-1.4c0-1.5,0.7-3,1.5-4.3c2-3.6,4.7-7.3,8.7-8.4c2-0.6,4-0.5,6.1-0.2
		c3.5,0.4,7.3,1.2,9.8,3.7C313.3,207.1,314.2,211.1,312.4,213.7L312.4,213.7z"/>
	<path class="st0" d="M308.3,225.6v-2.7c-3.9,2.6-8.5,4-13.2,4c-2,0-4.2-0.4-6.1-1.4c0,1.2,0.2,2.3,0.8,3.4c0.3,0.6,0.3,1.1,0.1,1.6
		c1.8,0.7,3.6,1.2,5.5,1.5c3.7,0.5,7.7-0.4,10.2-3.1c0.8-0.9,1.7-1.9,2.6-2.8C308.3,226,308.3,225.8,308.3,225.6z"/>
	<path class="st0" d="M42.8,433.9c-0.9-0.5-1.2-1.7-1.4-2.7c-7.7-38.4-13.1-77.3-16.3-116.4c-0.3-3.8,0.9-9.3,4.8-8.8
		c1.8,40.5,7,80.9,15.6,120.6c1.1-0.7,2.1-1.6,2.8-2.7c1,3,0.2,6.5-2,8.9C45.5,433.7,44,434.5,42.8,433.9z"/>
	<path class="st0" d="M43.3,184.7c1.6-1.6,3.5-3.2,5.6-4c3.1-1.1,6.4-0.7,9.6-0.2c2.7,0.4,5.5,0.8,8,1.9c4.8,2,8.5,6.1,10.9,10.7
		c7.3,13.5,4.5,31.8-6.6,42.4c-3.4,3.3-8.6,4.1-13.3,3.4c-11.4-1.6-21.1-11.1-23.8-22.4C31.2,205.3,35.2,193,43.3,184.7 M45.4,190.9
		c-6.2,5.8-9.1,14.8-7.5,23.2s7.8,15.6,15.7,18.6c3.4,1.3,7.1,1.8,10.6,0.8c7.5-2.2,11-10.6,13.4-18c-1.8-1.3-3.8,1.3-4.9,3.2
		c-2.8,4.8-8.2,8-13.8,8s-11.1-3.1-13.9-7.9c-0.3-0.5-0.6-1.1-0.6-1.7c-0.1-2.2,3.1-3,5-1.9s3,3.1,4.7,4.5c3.3,2.6,8.2,2.2,11.8,0.1
		s6.3-5.5,8.8-8.8c3.2-4.2,1.5-10.3-1-14.9c-1.9-3.6-4.5-7-8-9C59.3,183.5,50.8,185.9,45.4,190.9z"/>
</g>
</svg>
