<?xml version="1.0" encoding="utf-8"?>
<!-- Generator: Adobe Illustrator 19.1.0, SVG Export Plug-In . SVG Version: 6.00 Build 0)  -->
<svg version="1.1" id="Layer_1" xmlns="http://www.w3.org/2000/svg" xmlns:xlink="http://www.w3.org/1999/xlink" x="0px" y="0px"
	 viewBox="-114 -98.7 612 792" style="enable-background:new -114 -98.7 612 792;" xml:space="preserve">
<style type="text/css">
	.st0{fill:#FFFFFF;stroke:#FFFFFF;stroke-miterlimit:10;}
	.st1{fill:#FFFFFF;stroke:#FFFFFF;stroke-width:2;stroke-miterlimit:10;}
	.st2{fill:none;}
	.st3{fill:none;stroke:#010101;stroke-width:2;stroke-miterlimit:10;}
</style>
<g>
	<path class="st0" d="M28.4,70.1L28.4,70.1"/>
	<path class="st0" d="M341.9,252.7L341.9,252.7"/>
	<path class="st1" d="M255.8,73.2c-47.1,4.8-94.7,9.5-141.8,4.6c-24.9-2.6-49.6-7.9-74.6-6.8c-1.5,0.1-3,0.2-4.1,1.2
		C34,73.4,34,75.4,34,77.1c0.9,56.7,1.9,113.4,2.8,170c-4.5-57.1-5.1-114.4-4.6-171.6c0-2.1,0.2-4.5,1.8-5.7c1.1-0.8,2.6-0.9,4-0.9
		c38-0.6,75.4,9.2,113.4,9.6C186.4,78.9,221.1,71.5,255.8,73.2z"/>
	<path class="st1" d="M95.2,303l0.2-0.3"/>
	<path class="st1" d="M37.3,370.7c0.4-7,0.7-14,1.1-21c0.3,9.5,3.9,22.3,13.4,21.5c81-7.5,162.3-12.3,243.6-14.4
		c1.6-5.8,3.1-11.9,1.8-17.7s-6.7-11.3-12.6-10.5c-17.8,2.2-35.8,4.4-53.4,1.3c35.4-1.5,70.8-3.4,106.2-5.9
		c-12.1,4.4-25.1,6.1-37.9,5.2c-0.3,7-0.5,14.1-0.8,21.1c-0.1,1.7-0.1,3.7,1,5c1.3,1.6,3.7,1.7,5.7,1.7c42.2,0.1,84.4,0.1,126.6,0.2
		c5.6,0,13.2-1.9,13-7.5c-3.4-93.1-2.8-186.4,1.9-279.5c-0.4,27.5-0.8,55.1-1.1,82.6c-0.9,63.7-1.8,127.5,2.9,191.1
		c0.5,6.7-4.9,12.7-11.2,15.2s-13.2,2.2-19.9,1.9C266,354.7,114.2,367.2-37,379.7c-9.7,0.8-18.9-5.5-24.3-13.6s-7.7-17.8-9.8-27.3
		C-89.2,255.5-97.2,170.3-97,85.1c0-3.6,0.3-7.7,3.1-9.9c2-1.6,4.7-1.8,7.2-1.9c37.3-1.9,74.7-2.4,112.1-1.7
		c-36.5,1.2-73.1,2.5-109.6,3.7c-2.3,0.1-4.7,0.2-6.5,1.6c-2.6,1.9-2.9,5.6-3.1,8.8c-2.5,59.5,4.9,118.9,12.2,178.1
		c4.2,34.2,8.6,69,22.8,100.4c1.4,3.1,3.1,6.4,6,8.2c2.7,1.7,6,1.8,9.2,1.9C-16.5,374.7,10.5,373.6,37.3,370.7z"/>
	<path class="st0" d="M96,329.1l0.5-0.6"/>
	<path class="st1" d="M307.4,160.7c-3.1-4.5-8-8.9-7.1-14.3c10.4,10.5,15.9,25.7,14.5,40.4c-1.2,13.5-7.9,26.5-6,39.9
		c4.1,29.6-8.8,58.6-21.3,85.7c-1.1,2.4-2.2,4.8-4.1,6.7c-7.1,7.4-19.4,3.1-29.6,4.4c6.3-0.9,12.5-1.9,18.8-2.8
		c2.9-0.4,6.1-1,8.3-2.9c1.8-1.5,2.9-3.7,3.9-5.9c12.4-26.5,25-54.8,21.5-83.8c-1.4-11.4,2.3-22.8,4.7-34
		C313.3,182.8,314,170.1,307.4,160.7z"/>
	<path class="st1" d="M161.5,154.6L161.5,154.6"/>
	<path class="st1" d="M-44.8,319c3,9.5,7.2,19.5,15.5,25c5,3.4,11,4.8,16.9,6.2c12.7,3,26.1,5.9,38.5,2c5.1-1.6,10.6-6.8,7.8-11.3
		c-3.4-5.4-12.9-0.6-17.7-4.8c16.1-17.3,22.2-43.3,15.5-66c0.5-7.4-0.1-14.8-1.7-22c-0.5-2.3-1.2-4.7-3.2-6c-1.5-1-3.4-1.1-5.2-1.1
		c-9.1-0.2-18.1-0.4-27.2-0.7c9.7-2.6,20-3.4,30-2.2c1.9,0.2,3.9,0.6,5.4,1.8c1.8,1.5,2.2,4,2.6,6.3c5,31.6,6.8,63.6,5.2,95.5
		c-0.3,6.9-6.4,12.4-12.9,14.3s-13.6,1.2-20.4,0.3c-9.6-1.2-19.3-2.4-28.2-6.2s-16.9-10.6-19.6-19.8c-1.6-5.4-1.8-12.1-6.5-15.3
		c-5.4-15.9-3.8-34,4.1-48.8c-0.3-3.4-5.8-3.9-8-1.2c-2.1,2.7-1.7,6.6-1.1,10c0.6,3.4,1.4,7.1-0.4,10.1c-1.9-10.1-3.9-20.2-5.8-30.3
		c-0.4-2-0.7-4.2,0.3-5.9c1.1-2,3.6-2.7,5.8-3.2c7.1-1.7,14.3-3.5,21.5-4.4c15.1-1.8,30.7,0.1,44.9,5.6c8.5,3.3,17.4,9.1,18.4,18.1
		C21.4,253.7,7.8,247-6,244.7c-13.9-2.4-28.1-0.8-41.9,1.7c-3,0.5-6.1,1.2-8.4,3.1c-2.3,1.9-3.6,5.5-2,8c1.9,3,6.2,2.8,9.7,3.4
		c3.5,0.5,7.5,4.1,5.5,7C-52.9,282.5-50.2,302.2-44.8,319 M34.8,313.6c0-0.5-0.1-1.2-0.6-1.3c-0.5-0.1-0.9,0.4-1.1,0.9
		c-3.5,6.8-6.9,13.7-10.4,20.5c-0.3,0.7-0.7,1.5-0.2,2.1c0.4,0.5,1.1,0.4,1.8,0.4c1.9-0.2,3.8-0.4,5.6-0.7c0.9-0.1,1.9-0.2,2.6-0.8
		c1.2-0.9,1.4-2.6,1.5-4.2C34.3,324.9,34.6,319.2,34.8,313.6z"/>
	<path class="st0" d="M250.5,143.7l0.2-0.3"/>
	<path class="st1" d="M251,322.8c-4.3,3.1-10.4,2-14.7-0.9c-4.4-2.9-7.5-7.3-11-11.2c-7.4-8.3-16.6-14.8-23.8-23.2
		c-12.4-14.4-18.3-34.2-15.9-53c0.7-5.3-1-10.6-1.5-15.9s0.5-11.5,5-14.4c4.5-3,12.3,0.7,11,5.9c-1.8-3-6-4.3-9.3-2.9
		c-3.2,1.4-5.1,5.4-4.1,8.8c2.7,9.3,1,19.2,1.3,28.9c0.6,21.1,11.6,41.6,28.7,54c5.9,4.2,10,10.5,15.1,15.6
		C237,319.4,243.9,323.8,251,322.8z"/>
	<path class="st0" d="M233.8,285.9l0.2-0.3"/>
	<path class="st0" d="M298.8,324.1c8.4-2.8,17.3-4.4,26.2-4.7c1.7-0.1,3.6-0.1,5.1-1c3.2-1.9,3.4-6.4,3.2-10.1
		c-0.8-18.7,0.1-37.4,2.9-55.9c0.2-1.4,0.5-3,1.6-3.9c-1.1,18.1-2.2,36.2-3.3,54.3c-0.2,3.2-0.2,6.7,2,9c1.7,1.8,1,4.8-0.7,6.5
		c-1.8,1.7-4.3,2.3-6.7,2.7C319.1,323,308.9,323.7,298.8,324.1z"/>
	<path class="st0" d="M138.6,306.5l0.2-0.3"/>
	<path class="st0" d="M-11.3,328.4c-0.7,0.7-1.8,1.1-2.8,0.9c-1.2-1.4,0.6-3.7,2.4-3.6s3.3,1.6,4.5,2.9c-0.5-2.3,1.4-4.4,3.1-6
		c3.4-3.3,6.9-6.7,10.3-10c0.1-2-2.3-3.4-4.4-3.1c-2,0.3-3.7,1.6-5.5,2.6s-4,1.7-5.8,0.7c-2.5-1.4-2.5-5.1-1.4-7.7
		c2.3-5.6,7.4-9.4,12.2-13c4.8-3.7,9.7-8,11.1-13.8c1.4-5.9-2.6-13.3-8.7-12.9c-2,2.1-1.7,5.9,0.5,7.7c0.9,0.7,2,1.2,2.7,2.1
		s0.5,2.6-0.7,2.8c-3.4-1.2-6.3-4.1-6.8-7.6s2-7.4,5.5-7.9c1.8-0.2,3.7,0.4,5.2,1.4c6.1,4.1,6.3,13.4,2.7,19.8s-9.9,10.7-15.6,15.2
		c-1.9,1.5-3.9,3.2-4.9,5.4c-1,2.2-0.9,5.2,0.9,6.8c2-3.2,6-5,9.7-4.4c3.7,0.7,6.9,3.7,7.7,7.4c-2.7,1.2-4.9,3.4-7,5.5
		c-1.9,2-3.8,4-5.7,5.9c-0.8,0.8-1.6,1.7-1.8,2.8c-0.6,2.8,2.7,6.4,0.5,8.2c-1.7,1.4-4.2-0.5-5.1-2.6
		C-9.1,332.1-9.4,329.5-11.3,328.4z"/>
	<path class="st0" d="M-35.4,360.6c-2.7-0.2-5.6-0.7-7.3-2.7c-1.2-1.3-1.6-3.1-2-4.8c-2.8-11.8-4.8-23.8-5.9-35.8
		c4.2,11,6.4,22.6,8.4,34.2c0.7,4.3,6.1,5.8,10.5,6.2c9.4,0.8,18.9,0.7,28.3-0.5c1.4-0.2,3.5,0.4,3,1.8
		C-11.9,361-23.8,361.6-35.4,360.6z"/>
	<path class="st0" d="M-35.6,136.7c-0.6,0.3-0.1,1.5,0.5,1.2C-34.4,137.6-35,136.4-35.6,136.7z"/>
	<path class="st1" d="M167.2,154.2c-0.7-0.1-1.4-0.2-2.2-0.3c0.4-0.9,2-0.8,2.4,0.1L167.2,154.2z"/>
	<path class="st0" d="M385.2,86.5c1.9-4.1,5.9-7.2,10.3-7.9c4.5-0.7,9.2,0.9,12.3,4.2c2.1,2.3,3.5,5.3,4.3,8.3
		c2.6,8.9,1.9,18.4,0,27.4c-1.6,7.8-5.5,16.8-13.4,18.2c-6.3,1.1-12.5-3.6-15.1-9.4c-2.6-5.8-2.5-12.5-1.9-18.9c0.4-5,1-10,1.8-14.9
		C383.8,91,384.2,88.7,385.2,86.5 M397.5,84.4c-4.1,0.4-7.3,3.9-8.7,7.8c-1.4,3.8-1.5,8-1.8,12.1c-0.4,4.6-1.2,9.3-0.6,13.9
		c0.5,4.6,2.7,9.4,6.8,11.6c4.1,2.3,10.1,1,11.9-3.3c3.4-8.1,4.9-17,4.6-25.8c-0.2-3.8-0.7-7.7-2.7-11C405,86.5,401.3,84,397.5,84.4
		z"/>
	<path class="st1" d="M-59.6,129.8c-0.5,0.8-2,0-1.6-0.8C-60.8,128.2-59.3,129-59.6,129.8L-59.6,129.8z"/>
	<path class="st0" d="M-17,328c0.6,1.2,0.3,2.6,0.6,4c0.2,1.3,1.4,2.7,2.7,2.3c2-0.7,3.6,1.6,4.3,3.6c-3.1,2.7-8.8,0.4-9.3-3.6
		c-0.1-1,0-2-0.3-3c-1.1-3.1-5.6-2.7-8.6-4.1c-2.7-1.3-4.2-4.4-4.4-7.4c-0.2-3,0.7-6,1.5-8.8c2.5-8.4,5-16.7,7.5-25.1
		c0.6-2.1,1.2-4.3,0.5-6.4c-0.7-2-3.5-3.5-5.2-2.1c-1.4,1.1-3.6,0.7-4.9-0.6c-1.3-1.3-1.7-3.2-1.6-5c0.2-5.1,4.6-9.9,9.6-9.7
		c5,0.2,9.1,6.4,6.6,10.8c-0.8-2.9-2.7-5.7-5.5-6.9c-2.8-1.1-6.6,0-7.7,2.9c-1.1,2.8,1.8,6.5,4.7,5.6c3.7-1.2,7.4,2.6,7.8,6.5
		s-1.4,7.5-3,11.1c-3.5,8.2-5.8,16.9-6.8,25.8c-0.2,2-0.3,4.3,1.1,5.7C-24.7,326.4-18.6,324.5-17,328z"/>
	<path class="st0" d="M79.3,344.7c-0.5-0.7,1-1.5,1.6-0.8C81.5,344.6,79.9,345.3,79.3,344.7L79.3,344.7z"/>
	<path class="st1" d="M273.3,210.8c-1.5,9.5-0.7,19.4,2.3,28.6c1,3,2.2,6,2,9.2c-0.2,3.1-2.4,6.4-5.6,6.6c-1.4,0.1-2.8-0.5-4.3-0.9
		c-2.9-0.7-5.9-0.2-8.9,0.1c-2.9,0.4-6,0.7-8.8-0.2c-2.8-0.9-5.4-3.2-5.7-6.2c-0.2-3,2.9-6,5.7-5c-2,1.1-2.9,3.8-2,5.9
		c1.4,3.4,6.1,3.8,9.7,3.2c3.6-0.6,7.6-1.8,10.7,0.2c2.3,1.5,5.5-0.8,6.2-3.4c0.6-2.7-0.4-5.4-1.3-8c-3.2-9.5-4.1-19.8-2.8-29.8
		C271.5,211,272.4,210.9,273.3,210.8z"/>
	<path class="st0" d="M358.1,135.5c-4.3-0.6-7.8-3.7-9.9-7.5c-2-3.8-2.7-8.1-3.1-12.4c-0.8-9.2-0.1-18.6,2-27.6
		c1.1-4.9,5.1-9.1,10-10.6c4.9-1.4,10.5-0.1,14.1,3.5c6.2,6,5.8,15.8,5,24.3c-0.2,1.8-0.3,3.6-0.5,5.4c-0.5,5.7-1.1,11.6-3.8,16.6
		C369.2,132.3,363.7,136.3,358.1,135.5 M366.5,126.9c1.5-1.6,2.1-3.8,2.6-5.9c2-8.5,2.7-17.3,2-26c-0.2-3.1-0.7-6.4-2.6-8.9
		c-3.2-4.3-10.5-4.7-14.2-0.8c-2.8,3-3.3,7.3-3.7,11.4c-0.3,3.3-0.6,6.6-0.9,9.9c-0.5,5.8-1,12.1,2,17.2
		C354.8,128.8,362.6,131.2,366.5,126.9z"/>
	<path class="st0" d="M-31.4,144c-0.2-0.8,1.2-1.3,1.6-0.6c0.3,0.7-1.2,1.3-1.4,0.6H-31.4z"/>
	<path class="st0" d="M-6.9,144.4c-1.2,0.4-1.5-1.7-0.9-2.8C-6.6,141.7-6,143.6-6.9,144.4L-6.9,144.4z"/>
	<path class="st0" d="M208.3,328.8c6.9,0.7,14,0.4,20.8-1c0.5,1.1,1,2.2,1.5,3.2c-25.7,0.8-51.4,1.3-77.1,1.7c-3.1,0-4.5-3.9-4.9-7
		c-0.2-1.2-0.3-2.4,0.2-3.4s2.1-1.6,2.9-0.8c-0.9,2.5,0.9,5.4,3.2,6.7c2.4,1.3,5.2,1.4,7.9,1.4C177.9,329.5,193.1,327.3,208.3,328.8
		z"/>
	<path class="st1" d="M-12.3,117.8c-1,0.3-2.4-0.3-2.2-1.3c0.9-0.7,2.5,0.2,2.4,1.4L-12.3,117.8z"/>
	<path class="st1" d="M265.8,268.5c-1.6-2.5-1.3-6.1,0.7-8.3c2-2.2,5.6-2.8,8.3-1.3c2.8,4.1,4.7,8.7,5.7,13.5
		c-2.4,0.6-3.7-2.6-4.9-4.7c-1.4-2.5-4.1-4.1-7-4.3c-1.1,0.8-0.9,2.6-0.1,3.6c0.8,1.1,2.1,1.7,3.2,2.5c4.1,2.8,6.5,8,6,12.9
		c-0.2,2.1,2,3.8,4.2,3.8c2.1,0,4-1.3,5.7-2.6c1.5-1.1,3-2.5,3.2-4.3s-2-3.8-3.5-2.7c-1.8,1.3-4.5-0.4-5.1-2.5s0.2-4.4,1.1-6.4
		c2,0.7,0.4,3.9,1.3,5.8c0.6,1.4,2.5,1.7,3.9,1.1s2.3-1.8,3.3-3c1.5,5,0.7,11.1-3.3,14.6c-4,3.4-11.3,2.6-13.3-2.3
		c-1-2.5-0.5-5.5-1.8-7.9C271.8,272.7,267.8,271.5,265.8,268.5 M273.2,260.3c0-0.9-1.8-0.1-1,0.3c0.2,0.7,1.6,0.3,1.3-0.4
		L273.2,260.3z"/>
	<path class="st0" d="M325.3,90.3c-0.2-0.5-0.1-1.1,0.1-1.7c0.5-1.9,1.1-3.8,1.6-5.8c0.7-2.6,1.5-5.3,3.5-7.1s5.6-2,7.1,0.2
		c0.4,17.2,0.7,34.4,1.1,51.5c0.1,2.8,0,5.9-1.9,7.9s-6.3,1.2-6.3-1.5c0-13.1,0-26.2,0-39.3c0-1-0.1-2.2-0.9-2.9
		C328.2,90.9,325.9,91.7,325.3,90.3z"/>
	<path class="st1" d="M100.5,309.3c-1.2,0.2-2.3-1.6-1.3-2.3c1,0,1.8,1.3,1.2,2.2L100.5,309.3z"/>
	<path class="st1" d="M145.7,236.7c-0.5-0.6,0.6-1.4,1.2-0.9s0.6,1.4,0.4,2.1C146.6,238,145.9,237.5,145.7,236.7L145.7,236.7z"/>
	<path class="st1" d="M237.6,280c-0.8,0.8-1.6,1.6-2.3,2.4c-5.5-4.2-7.4-12.5-4.3-18.7c0.6,4.8,4.5,9.1,9.3,10.1s10-1.3,12.5-5.5
		c2.1-3.5,2.3-8.1,5.1-11.1c1.3,9.7-3.2,20-11.3,25.5c0.5-2.4,1.1-4.9,1.6-7.3c-4,2.1-8.9,2.2-13,0.3
		C235,277.4,236.1,279.2,237.6,280z"/>
	<path class="st0" d="M16.5,87.5c-1,0.5-2.3,0-2.6-1.1c0.9-0.5,2.2,0,2.5,1L16.5,87.5z"/>
	<path class="st0" d="M-14.4,269.4c0.1-2.9,3.6-4.7,6.3-3.9s4.5,3.5,5.2,6.3C0,285-18.4,296-15.3,309.2c-0.5,1.4-2.6,0.1-3.1-1.4
		c-1.7-5.6,1.4-11.4,4.8-16.1s7.4-9.4,8-15.2c0.3-2.5-0.3-5.3-2.1-7C-9.4,267.9-12.7,267.6-14.4,269.4z"/>
	<path class="st0" d="M123.5,334.1c1.1-0.4,2.2,1.4,1.3,2.2C124.1,335.8,123.6,335,123.5,334.1L123.5,334.1z"/>
	<path class="st1" d="M145.9,224.6c-1.4-0.1-2.2-1.6-2.6-3c-3.9-12.4-4.8-25.5-5.6-38.4c-0.3-5-0.6-10-0.9-15
		c-0.2-3.1-0.3-6.5,1.4-9.2c1.7-2.6,6.1-3.7,8-1.2c-0.8,2-4.1,1.5-5.5,3.1c-0.8,0.9-0.8,2.1-0.8,3.2
		C139.7,184.4,141.7,204.7,145.9,224.6z"/>
	<path class="st0" d="M114.6,328.8c0.4,1-0.3,2.4-1.3,2.2c-0.5-0.9-0.6-2-0.3-3.1C113.4,327.2,114.9,327.9,114.6,328.8L114.6,328.8z
		"/>
	<path class="st0" d="M311.9,117.7c-0.6-4.3-0.3-8.7,1.1-12.8c0.6,4.9,1.1,9.7,1.7,14.6c2.9-2,4.6-5.6,4.1-9.1s-3-6.6-6.3-7.7
		c-0.9-3.9-4.2-6.8-6-10.4c-1.8-3.6-0.9-9.3,3.1-9.8c-2.3,3.8-1.5,9.3,1.8,12.3c4.3,3.9,7.6,9,9.5,14.5c1.1,3.2,1.4,7.3-1.3,9.3
		c-1.2,0.9-2.7,1.1-4,1.8c-1.2,0.8-2.1,2.6-1.1,3.7c-4.4-2.7-7.7-7-9.4-11.8c1.1-1.3,3.1,0.6,3.5,2.3
		C309.1,116.2,310.3,118.5,311.9,117.7z"/>
	<path class="st1" d="M103.6,301.8c-0.8-0.5-0.1-1.9,0.9-1.8c0.9,0,1.6,0.8,2.2,1.5C105.7,301.9,104.6,302,103.6,301.8L103.6,301.8z
		"/>
	<path class="st1" d="M55.1,323.5c1.9-1.4,2.8-3.8,3.6-6c0.4-1,0.8-2,1.6-2.6s1.9-0.7,2.9-0.8c3-0.3,6.1-0.5,9.1-0.8
		c-3,3.9-11.2,1.9-12.5,6.6c-1.5,5-6.3,8.9-11.6,9.1C47.8,326,52.5,325.4,55.1,323.5z"/>
	<path class="st1" d="M-36.1,90.3c1.2,0.1,1.8,2,0.9,2.8c-1.4,0.3-2.3-2.5-0.8-2.4L-36.1,90.3z"/>
	<path class="st0" d="M269.5,126.6c9.5-1.2,19.5,4.4,23.5,13.2c-0.7,0.4-1.4,0.8-2.1,1.2c-3.1-4-6.4-8.1-11.1-9.9
		C276.2,129.8,271.7,129.7,269.5,126.6z"/>
	<path class="st0" d="M267.7,132.5c0.4-1.4,3-0.4,2.5,0.9c-0.8,0.6-2.2,0-2.3-1L267.7,132.5z"/>
	<path class="st1" d="M239.8,195c-2-0.3-3.9,0.7-5.8,1.2c-4.3,1.3-9.3,0.5-13-2.1c-1.4-1-2.7-2.3-2.9-4c-0.2-1.7,1.3-3.6,2.9-3.3
		c-0.1,2.9,2.8,5.2,5.7,5.7c2.9,0.4,5.8-0.4,8.7-0.8c2.9-0.5,6.1-0.4,8.4,1.4c0.8,0.6,1.5,1.5,2.5,1.8c1,0.2,2.3-0.8,1.8-1.7
		c1.8-0.1,3.2,2.3,2.2,3.8c-0.9,1.8-3.6,1.7-5.4,0.8C243.4,196.8,241.8,195.3,239.8,195z"/>
	<path class="st1" d="M75,292.8c1.8,0.7,2.4,3.3,1,4.7c-1.5-0.4-1.4-2.5-1-4V292.8z"/>
	<path class="st0" d="M340.8,225.8c-1.4,0.5-2.2-1.6-2.3-3c-0.7-22.6,0-45.3,2.1-67.9c2.1,2.9,2.1,6.8,2,10.4
		C342,185.4,341.4,205.6,340.8,225.8z"/>
	<path class="st0" d="M344.1,71.8c-1.3,0.3-3.4,0-3.1-1.4c1.3-0.1,2.6-0.2,4-0.4C345.7,70.6,345,72.1,344.1,71.8L344.1,71.8z"/>
	<path class="st1" d="M-46.1,110.4c-0.4-3.8-0.8-7.6-1.2-11.4c-0.2-2.3-0.4-4.9,1-6.8c1.4-1.8,5.1-1.7,5.5,0.6
		c0.8,0.4,0.9,1.7,0.2,2.3c-0.8-1.6-3.6-1.1-4.4,0.6s-0.3,3.6,0.3,5.4c0.8,2.8,1.7,5.7,0.9,8.5c-0.8,2.8-3.9,5.1-6.5,3.9
		C-49.5,111.8-47.9,110.7-46.1,110.4z"/>
	<path class="st0" d="M263.5,72.3c-0.5,1.7-11.2,1.5-12.9,0.9c0.9-1.4,11.2-1.8,12.7-0.9H263.5z"/>
	<path class="st1" d="M227.3,208.3c3.3-2.7,7.4-4.7,11.7-4.5c4.3,0.2,8.6,3.2,9.2,7.4c-5.8-5.6-16.4-5-21.4,1.4
		C224.9,212.3,225.9,209.5,227.3,208.3L227.3,208.3z"/>
	<path class="st0" d="M313.5,89.1c0.4,1-0.3,2.4-1.3,2.2c-0.7-1.7-0.6-3.7,0.1-5.4c1.2,0.3,1.8,2,1.1,3L313.5,89.1z"/>
	<path class="st1" d="M203.2,151.5c-6.3,0.8-12.7,1.6-19,2.4c-4.1,0.5-8.7,0.9-11.9-1.7c8.8-1.1,17.6-2.2,26.4-3.2
		C200.7,148.8,203.7,149.5,203.2,151.5z"/>
	<path class="st0" d="M307.1,70.3c0.8-0.6,16.7,0,16.6,1c-1.7,0.7-36.7,1.3-38.4,0.6c-0.2-1.3,20.4-1.9,21.6-1.6H307.1z"/>
	<path class="st1" d="M252.9,259.9c0.2,5.8-4.7,11.3-10.5,11.8c-1.1,0.1-2.4-0.1-3-1C244.9,268.5,249.6,264.7,252.9,259.9z"/>
	<path class="st1" d="M298.1,195.7c0.7,0.5,1.2,1.4,1.3,2.2c-1,0.5-2.1,0.6-3.1,0.4c-0.4-0.6-0.6-1.4-0.4-2.2
		C296.6,195.7,297.4,195.6,298.1,195.7L298.1,195.7z"/>
	<path class="st0" d="M299.9,97.6c0.4,6.8,0.7,13.6,1.1,20.4c0.4,7.7,0.8,15.5,1.2,23.2c-1.2,1.3-2.8-1.2-2.8-2.9
		c-0.3-12.2-0.7-24.4-1-36.6C298.3,100.2,298.4,98.2,299.9,97.6z"/>
	<path class="st0" d="M430.1,70.6c-7,0.2-13.9,0.4-20.9,0.6c-1.5,0-3.3,0-4.2-1.3c12.4-1.3,25-1.9,37.5-1.7
		C438.8,70.3,434.4,70.5,430.1,70.6z"/>
	<path class="st0" d="M285.3,73.4c-0.7-0.9,0.2-2.3,1.3-2.6c1.1-0.2,2.2,0.3,3.3,0.9c-0.9,1.2-2.7,1.6-4,0.9L285.3,73.4z"/>
	<path class="st0" d="M285.8,280.6c-0.8,1.3-3.3,0.3-2.9-1.2c0.9-1.3,3.5-0.3,3.2,1.3L285.8,280.6z"/>
	<path class="st1" d="M-59.1,114.5c0.7-0.3,1.5-0.7,2.2-0.4c0.6,0.2,1,0.8,0.9,1.4c-5.5,0.1-10.1,5.8-9,11.2
		c-2.3-1.6-2.3-5.1-0.7-7.4C-64.2,117-61.6,115.7-59.1,114.5z"/>
	<path class="st1" d="M77.4,320.8c-0.1-1,1.1-1.7,2-1.4s1.4,1.3,1.6,2.2c-1.1,0.8-2.9,0.3-3.4-0.9L77.4,320.8z"/>
	<path class="st0" d="M342.1,267.7c-0.4,10.5-0.9,21.1-1.5,31.6c-0.1,2.1-0.4,4.5-2.3,5.5c0.3-13.1,1.1-26.2,2.2-39.3
		C341.4,265,342.1,266.6,342.1,267.7z"/>
	<path class="st1" d="M146.7,251.7c0.5,8.8,1,17.6,1.5,26.3c0.3,4.5,0.5,9.2-1.1,13.4C144.4,278.4,144.3,264.8,146.7,251.7z"/>
	<path class="st0" d="M241.2,280.2c0.9-0.9,2.2-1.4,3.5-1.1c0.2,1.8-3.1,2.7-3.4,0.9L241.2,280.2z"/>
	<path class="st0" d="M311.4,146c6,0.7,11.9,1.4,17.9,2.1c1.6,0.2,3.7,1.5,2.7,2.8c-8.5-0.5-17-1.1-25.4-1.8
		c-0.5-1.1,0.3-2.4,1.4-2.8C309,145.7,310.3,145.9,311.4,146z"/>
	<path class="st0" d="M229.6,136.6c0.4-1.2,2.6,0.2,1.7,1.1c-0.7,0.5-1.6,1-2.3,0.6c-0.8-0.3-0.6-1.9,0.2-1.6L229.6,136.6z"/>
	<path class="st0" d="M321.1,70.1c1.9,0.1,3.8,0.2,5.8,0.3c-1.3,2.1-4.9,2.3-6.4,0.3L321.1,70.1z"/>
	<path class="st1" d="M281.6,205.5c1.9,0,3.8,0.9,5.5,1.8c3.6,1.9,7.2,3.7,10.8,5.6c-5.1,2.6-10.2-5.7-15.8-4.7
		C281.9,207.3,281.8,206.4,281.6,205.5z"/>
	<path class="st1" d="M-29.5,127.2c0.2,0.8,0.1,1.6-0.4,2.2c-1.2,0-2.3-1-2.3-2.2s1.1-2.3,2.3-2.3
		C-29.5,125.6-29.4,126.4-29.5,127.2L-29.5,127.2z"/>
	<path class="st1" d="M279.1,199.2c-1.5-2.4-0.5-5.9,1.8-7.6s5.5-1.7,8.2-0.6c1.6,0.7,3.1,1.8,4.2,3.2c-0.5,1.7-2.9,1.2-4.7,0.9
		C285.1,194.3,281.1,196.1,279.1,199.2z"/>
	<path class="st1" d="M83.5,324.4c1.6,1.3,0.7,4.4-1.3,4.8c-0.5-1.5-0.1-3.3,1.1-4.3L83.5,324.4z"/>
	<path class="st1" d="M215.4,146.5c-1.6,1.7-4.3,2.4-6.6,1.8c3.7-3.4,8.4-5.7,13.3-6.6c-1.5,2.4-4,4.1-6.7,4.7L215.4,146.5z"/>
	<path class="st1" d="M-31.3,100.4c1.8,1.8,3.5,3.7,5.3,5.5c-4.8,2.1-8-7.8-13.2-6.8c0.6-1.5,2.5-2.1,4.1-1.6
		C-33.6,98.1-32.4,99.3-31.3,100.4z"/>
	<path class="st0" d="M6.2,138.9c-0.5,1-1,2.1-1.5,3.1c-1.4-1.2-2-3.3-1.4-5.1c1.1-0.7,2.8,0.5,2.5,1.8L6.2,138.9z"/>
	<path class="st1" d="M271.7,149.5c-3.4-3.3-5.7-7.7-6.4-12.4C269.3,139.8,271.8,144.6,271.7,149.5z"/>
	<path class="st1" d="M285.3,218.3c-1.5-1.1-0.5-4,1.4-3.9c1.2,0.9,1.7,2.5,1.2,3.9C287.2,218.9,286,218.9,285.3,218.3L285.3,218.3z
		"/>
	<path class="st0" d="M-55.6,147.1c-1.7-0.1-3.1-1.9-2.8-3.5c1.2,1.1,2.4,2.2,3.6,3.2L-55.6,147.1z"/>
	<path class="st1" d="M251.1,143.5c4.2,1.2,7.6,4.9,8.5,9.2C255.8,150.7,252.7,147.4,251.1,143.5z"/>
	<path class="st1" d="M4.1,101.5c-1.2-1.1-1.2-3.1-0.1-4.3c1.3,1.9,1.9,4.2,1.7,6.5C4.8,103.3,4.2,102.5,4.1,101.5L4.1,101.5z"/>
	<path class="st1" d="M-44.5,130.7c1.1-2.7,5.5-2.2,7.2,0.1c1.2,1.6,1.7,3.7,1.3,5.7C-36.8,132.9-40.7,130.2-44.5,130.7z"/>
	<path class="st0" d="M337.8,235.3c0.8,3,0.9,6.2,0.2,9.2c-0.2,0.8-1.7,1-1.2,0.4C336.4,241.6,336,238,337.8,235.3z"/>
	<path class="st1" d="M134.3,289.7c1-1.2,2.6,0.9,2.7,2.5c0.4,4.7,0.8,9.4,1.1,14.1c-1.4-0.6-1.8-2.3-2-3.9
		C135.5,298.3,134.9,294,134.3,289.7z"/>
	<path class="st1" d="M109.7,312.4c-1.8,1.6-4.5,2.1-6.8,1.5c2-1.4,4.4-2.2,6.9-2L109.7,312.4z"/>
	<path class="st1" d="M-9.1,100.9c-4.2-2.1-9.1-2.9-13.8-2.2C-18.9,95.2-11.8,96.3-9.1,100.9z"/>
	<path class="st1" d="M8.7,112c-1.2-1.6-1.4-3.8-0.6-5.7c2.1,1.9,2.9,5.3,1.8,8c-0.9,0.5-1.5-1.2-1.3-2.2L8.7,112z"/>
	<path class="st0" d="M257.1,130.4c0.4-2.2,4-2.1,5.2-0.2c0.5,0.7,0.7,1.6,1,2.4c0.5,1.6,1,3.3,1.6,4.9
		C262.6,134.8,259.9,132.4,257.1,130.4z"/>
	<path class="st0" d="M311.2,81.7c-0.4-2.4,0.2-5.1,1.8-7c2.2,2.7,4.4,5.5,6.7,8.2c-2.7-0.3-5.5-0.6-8.2-0.9L311.2,81.7z"/>
	<path class="st0" d="M78.8,335.5c-0.6-0.9-0.1-2.2,0.9-2.5c2.5,0.8,2.5,5.1,0,5.9C79.4,337.7,79.1,336.6,78.8,335.5L78.8,335.5z"/>
	<path class="st0" d="M367.2,71.1c11.7-1.6,34-2.6,45.8-1.1C401.3,71.4,379,72.5,367.2,71.1L367.2,71.1z"/>
	<path class="st1" d="M-20.3,131.8c-2.1,0.9-4.8-0.8-4.9-3c2.3-0.2,4.8,1.1,5.9,3.1L-20.3,131.8z"/>
	<path class="st1" d="M227.5,275.9c2,3.1,4.1,6.2,6.1,9.3C229.6,284.2,226.9,279.9,227.5,275.9z"/>
	<path class="st1" d="M138.1,315.1c1,0,1.9,0,2.9-0.1c0.4,1.5-1.3,2.8-2.8,2.6s-2.7-1.3-3.8-2.3
		C134.3,313.7,136.8,314.1,138.1,315.1L138.1,315.1z"/>
	<path class="st0" d="M95.9,329.3c0.6,2.8-0.7,5.9-3.2,7.4c-0.1-2.8,1.1-5.7,3.2-7.5V329.3z"/>
	<path class="st1" d="M282.7,139.6c2.1,0.6,3.6,2.8,3.3,5c-3-1.3-5.7-3.4-7.5-6.1c1.5-0.4,3.1,0.1,4.1,1.2L282.7,139.6z"/>
	<path class="st1" d="M233.3,216.5c-0.4-2.4,1.8-5,4.2-4.8c2.4,0.2,4,3.6,2.4,5.4C238.2,219.1,234.5,218.7,233.3,216.5L233.3,216.5z
		"/>
	<path class="st0" d="M62.1,337.2c1.4-1.6,3.9-2.2,5.9-1.4c-0.9,2.4-3.4,4.1-5.9,4.1C61.4,339.1,61.4,337.9,62.1,337.2L62.1,337.2z"
		/>
	<path class="st1" d="M95.1,302.7c-3.3-0.4-6.2-2.8-7.3-5.9C90.9,297.6,93.6,299.8,95.1,302.7z"/>
	<path class="st1" d="M-1.3,129c-0.6-1.3-1.1-2.7-1.7-4c3,1,5.5,3.7,6.1,6.8c-1.7-0.2-3.4-1.3-4.1-2.9L-1.3,129z"/>
	<path class="st0" d="M261,72.8c4.4-1.2,14.4-2.2,19-1.8c1.4,0.1,6.7,0.1,7.5,1.2C281.8,72.9,266.6,73.8,261,72.8z"/>
	<path class="st0" d="M365.9,71.4c-5.3,0.6-10.6,0.8-15.9,0.5c-0.9,0-27.3-0.5-27.2-1.4C328.7,69.4,360.2,69.7,365.9,71.4z"/>
	<path class="st0" d="M51.6,334.8c1.7-1.1,4.5,0.1,4.7,2.2c-2.4-0.4-5,0.3-6.9,1.8C48.9,337.2,49.9,335.3,51.6,334.8L51.6,334.8z"/>
	<path class="st0" d="M298.8,91.8c-0.6-7-0.4-14.1,0.6-21.1c1.2,7.5,1.5,15.2,0.8,22.8C299.4,93.9,298.8,92.7,298.8,91.8z"/>
	<path class="st1" d="M-51.5,135.2c0.3-1,1.7-1.5,2.6-0.9c-1.2,2.3-2.5,4.5-3.7,6.8c-1.4-1.7-0.9-4.6,1-5.8L-51.5,135.2z"/>
	<path class="st0" d="M150.2,314.7c-1.1-4.3-1.3-8.8-0.5-13.2c1.7,4.8,2.5,9.9,2.1,15C150.9,316.5,150.4,315.5,150.2,314.7z"/>
	<path class="st0" d="M340.7,148.5c1.9,1,1.2,4.5-1,4.7c-0.9-2-2.8-3.5-5-4c1.4-1.7,4.2-1.9,5.8-0.6L340.7,148.5z"/>
	<path class="st1" d="M-10.5,126.7c2,2.3,2.6,5.7,1.6,8.5c-0.9-1.5-1.8-2.9-2.7-4.4c-0.6-1-1.2-2.1-1.1-3.2c0.2-1.1,1.7-2,2.5-1.3
		L-10.5,126.7z"/>
	<path class="st0" d="M233.9,286.3c3.4-1.1,7-1.8,10.6-2.1C242.4,287.7,237.1,288.7,233.9,286.3z"/>
	<path class="st1" d="M122.6,296.7c-2-0.2-3-2.8-2.3-4.7c0.7-1.9,2.3-3.3,3.7-4.7c0.4,3-0.3,6-1.8,8.6L122.6,296.7z"/>
	<path class="st1" d="M78.4,289.8c-0.4-0.9,1.5-1.5,1.5-0.5c2,1.5,3.1,4,2.9,6.5C80.9,294.2,79.4,292.1,78.4,289.8L78.4,289.8z"/>
</g>
<path class="st2" d="M308.5,70.7c4.6-1.4,9.6-1.4,14.3-0.2"/>
<path class="st3" d="M355.3,71.3"/>
<path class="st3" d="M330,71.3"/>
</svg>
