<?xml version="1.0" encoding="utf-8"?>
<!-- Generator: Adobe Illustrator 18.1.1, SVG Export Plug-In . SVG Version: 6.00 Build 0)  -->
<svg version="1.1" id="Layer_1" xmlns="http://www.w3.org/2000/svg" xmlns:xlink="http://www.w3.org/1999/xlink" x="0px" y="0px"
	 viewBox="0 0 595.3 841.9" enable-background="new 0 0 595.3 841.9" xml:space="preserve">
<g>
	<path fill="#FFFFFF" stroke="#000000" stroke-width="4.8642" stroke-miterlimit="10" d="M255.4,124.2c-0.1-0.4-0.2-0.8-0.3-1.2
		c-0.9-1.6-1.8-3.2-2.8-4.8c-1.3-2.1-2.7-4.2-4.6-7c-5.4-0.5-9,1.2-10.9,5.8c1,0.5,2,1,1.5,0.7c-1.8,7.5-3.3,14.2-4.8,20.8
		c-0.3,0-0.6-0.1-0.9-0.1c0.2-2.9,0.5-5.9,0.7-8.8c-0.4-0.1-0.8-0.1-1.1-0.2c-1.6,3.7-3.1,7.4-5,11.7c1.3-0.6,2.3-1.1,3.2-1.5
		c0.3,0.3,0.5,0.6,0.8,0.9c-2.6,2.8-5.2,5.6-7.8,8.3c0.2,0.2,0.4,0.4,0.7,0.5c1.1-0.4,2.1-0.8,3.2-1.2c0.2,0.2,0.4,0.4,0.6,0.5
		c1.5,3.6,2.9,7.3,4.4,10.9c-1,0.7-1.9,1.3-2.9,2c-1-2.3-2-4.6-3-6.9c-0.5,0.4-1.1,0.8-1.6,1.3c0,2.1,0,4.2,0,6.3
		c-0.5,0-0.9,0.1-1.4,0.1c-0.4-1.4-0.9-2.9-1.4-4.6c-1.5,0.6-2.6,1.1-3.7,1.6c-0.4-1.2-0.9-2.5-1.3-3.7c-1.1-2-2.1-3.9-3.2-5.9
		c-1.1-1.6-2.2-3.2-3.1-4.7c1.8-1.6,4.7-2.9,5-4.7c1-5.2,4.2-6,9.3-5.3c-3.8-3.2-6.6-2-8.9,0.5c-1.7,1.8-2.5,4.8-4.5,6.2
		c-6,4.4-2.2,6.3,1.7,8.4c-0.3,5.9-5.9,3.8-8.7,6.1c-1.4-3.6-2.7-7.1-4-10.5c1.1,5.5-10.7,1.8-6.1,9.6c-6.8-2.2-7.2-3.5-3.4-8.9
		c-1.2-1.9-2.3-3.7-3.5-5.6c0.3-1.4,0.5-2.7,1.1-5.3c-3.4,4.1-6,7.2-8.7,10.3c-1.1-1.4-2.4-3.1-3.9-4.9c-3.5,7.9,7.1,9.2,6.9,15
		c-5-1.3-9.5-2.4-13.8-3.8c-4.4-1.4-8.7-3.2-13.7-5c2.5-2.2,4.8-4.3,7.2-6.4c-2.5,0.6-4.2,2.1-6.1,2.9c-3.5,1.5-3.5,4.6-3.6,7.4
		c-0.3,7-1.7,13.6-5.6,18.4c1.4,2.1,2.7,4.1,4,6c-0.4,0.3-0.9,0.7-1.3,1c-1.2-0.9-2.3-1.8-3.5-2.6c-0.4,1.3-0.7,2-0.9,2.8
		c-0.5-0.1-0.9-0.1-1.4-0.2c0.4-4,0.9-7.9,1.3-11.9c-1,0.1-2.4,0.3-2.5,0.2c-1.5-6.1,5.5-5.3,6.8-9.8c-2.9,1.2-5.8,2.5-8.9,3.7
		c-0.4-1.5-0.9-3-1.3-4.5c-0.8-0.1-1.5-0.3-1.9-0.1c-2.8,1.3-5.5,2.6-8.3,4c4.7,3.7,3.4,12.5-3.5,21.4c0.5-2.6,0.7-4.6,1.2-6.5
		c0.6-2,1.4-3.9,2-5.3c-3,0.3-5.6,0.5-8.9,0.8c1.1-2,1.7-3.2,2.5-4.7c-6.5,1.9-9.7,9.5-8.6,20c0.5-1.9,0.9-3.3,1.6-5.6
		c1,1.6,1.4,2.4,2,3.3c1.6-9.5,2.5-10.9,7.8-10.5c-1.3,8.6-2.5,17.2-3.7,25c3-6.4,6.3-13.3,9.6-20.3c0,11.4,0,11.4,3,12.9
		c0.7-2.8,1.4-5.6,2.4-9.6c1.3,3.5,2.2,5.8,3.1,8.1c0.5-1.2,1-2.1,1.4-3c0.5,0.4,0.9,0.7,1.4,1.1c0,2.2,0,4.3,0,6.5
		c-0.4-0.4-0.9-0.7-1.3-1.1c-2.2,2.1-5.3,3.8-6.4,6.4c-1.6,3.8-1.7,8.1-2.4,12.3c-0.6,3.3-1.1,6.6-1.6,9.9c-0.5-0.1-0.9-0.2-1.4-0.3
		c-0.2-2.3-0.4-4.7-0.6-7c-1.6,1.1-2.1,2.3-2.1,3.4c0,4.3,0.1,8.6,0.2,13c-1.8-4.2-3.6-8.3-5.2-12c-2.6,5.4-1.4,9.2,5,13.8
		c-0.8,0.7-1.6,1.8-2.5,1.9c-3.9,0.4-7.9,0.5-12.2,0.7c0-1.6,0-4,0-6.3c-0.4,0.3-0.8,0.6-1.2,0.9c-1.6-1.4-3.3-2.9-5.1-4.5
		c0.6,2.6,2.3,5.5,1.5,7.5c-3.6,9.5,1,17,5.1,25.7c0-3.9,0-6.9,0-10c0.3,0,0.6,0,0.9,0.1c0.2,2,0.4,3.9,0.6,5.9c0.2,0,0.4,0,0.6-0.1
		c0.2-1.8,0.4-3.7,0.6-5.5c0.4,0,0.9-0.1,1.3-0.1c1.3,4.6,2.5,9.2,3.8,13.7c1.4-7.8-2.3-16.9,5.6-22.5c1.4,7.7,2.7,15.2,4,22.7
		c-0.5,0.1-1.1,0.2-1.6,0.3c-0.8-3.5-1.6-7-2.6-11c-2.4,6.8,0.6,24.7,5,28.7c-1-2.3-1.7-4-1.9-4.4c2.5-1.6,4.5-2.8,6.2-3.9
		c-1.3-0.8-3.3-2-3.3-2.2c1.3-2.7,2.8-5.2,4.8-8.5c1.3,3.9,2.1,6.5,2.8,8.7c-1.3,2-3,3.6-3.4,5.5c-1.3,5.4-1.4,10.8,2,15.6
		c0.5,1.9,0.8,4,1.7,5.7c1,1.8,2.5,3.4,3.9,5.2c0-8.5,0-15.8,0-22.9c-0.3,0.4-1.2,1.4-1.7,2.6c-1.4,3.1-2.6,6.3-3.9,9.4
		c-0.2-1.6-0.3-3.2-0.5-4.8c-1-5.7,2.1-12.1,6.6-13.3c-0.7-0.8-1.4-1.5-2.3-2.5c1.8-0.6,3.3-1.2,6-2.1c-0.8,6.1-1.4,11.1-2.2,16.1
		c-0.9,6,1.2,10.2,6.1,11.7c-5.1-6-5.7-8.8-3.2-13c1.5,0.6,3.2,1.9,4.3,1.6c2-0.7,3.6-2.4,5.6-3.9c0,1.1,0,2.7,0,4.2
		c0,0,0.2-0.2,0.2-0.2c-0.5,0.9-1.3,1.7-1.5,2.6c-0.4,2.7-0.6,5.5-0.8,8.2c2,0.7,4.1,2.5,3.7,3.4c-2.2,6.7,0.7,14.6-4.5,20.6
		c-1.3-0.6-3.4-1-3.8-2c-1.2-2.7-1.6-5.8-2.4-8.7c-0.4,0.1-0.9,0.2-1.3,0.3c1.2,5.2,2.4,10.3,3.6,16c1.2-1.7,2.5-3.7,3.8-5.7
		c0.6,1.1,1.2,2.2,1.8,3.3c1-2.2,2-4.4,3.2-7c1.5,2.9,2.7,5.2,3.9,7.5c0.4-6.2-2.9-13.1,6.2-15c1.6,3.1,3.1,6.1,4.7,9.1
		c0.2-0.1,0.5-0.2,0.7-0.3c-0.5-4.4-1-8.9-1.6-13.3c0.2,0,0.5,0.1,0.7,0.1c2.7,5.1,5.4,10.1,7.5,14.2c-1.3-8-2.7-16.6-4-25.3
		c0.9-1.1,2.1-2.5,3.1-3.8c0.9,3.1,1.8,6,2.5,8.5c1.4-2.6,3.1-6.9,3.9-6.7c4.9,0.8,7.4-1.8,9.4-6.2c0.6,3.8,1,6.7,1.5,9.5
		c2.8-0.8,4.8-1.5,7.3-2.2c0.4,1.6,0.8,3.1,1.3,5.1c-3.9,0.7-7.7,0.4-10.4,2.1c-2.4,1.5-6.1,3.6-4.9,8.1c0.9,3.2,1.3,6.4,1.9,9.7
		c-0.4-9.9,1.2-16.6,5.7-17.5c1.8-0.3,4,0.9,6,1.4c0,0.6,0,1.1,0,1.7c1.7-1.4,3.3-2.7,4.8-3.9c1.9,3.3,4.1,7.6,6.7,11.6
		c7,10.6,14.3,21.2,21.4,31.7c0.3,0.4,0.8,0.7,1.2,1.1c4.6,5.6,9.3,11.1,13.8,16.7c5.5,6.8,10.9,13.6,16.2,20.5
		c1.1,1.4,2.3,3.1,2.6,4.8c1.6,11.6,4,23.2,4.2,34.8c0.3,14-1.1,28-2.1,42c-0.6,8.5-1.6,17.1-2.7,25.6c-1.2,9.7-3.2,19.3-4,29
		c-1,13.2-1,26.5-1.7,39.8c-0.9,16.4-2.3,32.9-3,49.3c-0.5,13.9-0.3,27.9-0.5,41.8c0,1-1.2,2-1.6,3.1c-0.8,2.7-1.9,5.4-2,8.1
		c-0.2,10.8-0.1,21.6-0.1,32.6c7.1,0,13.6,0,19.2,0c-1.9-16.5-4-32.5-5.4-48.6c-0.7-8,0.2-16,0.3-24.1c0.1-12.2-0.2-24.3,0.2-36.5
		c0.3-9.6,0.3-19.3,4.3-27.7c-1.7-1.7-3.1-3.5-3.2-5.4c-0.3-3.9-0.1-7.8,0.4-11.6c1.7-13.6,1.3-28.2,6.1-40.6
		c7.5-19.2,18.5-37.1,28.6-55.2c4.2-7.5,10.3-14.1,15.1-21.3c13.7-20.4,29.9-38,52.4-48.9c1-0.5,1.5-2.2,2.2-3.4
		c9.2-10.8,18.5-21.7,27.7-32.5c5.6-2.6,9-7.3,11.5-13.2c0.9,2.6,1.6,4.5,2.4,6.7c-3,2.5-6.4,5.3-9.7,8.1c0.1,0.3,0.3,0.5,0.4,0.8
		c3.7-1.8,7.3-3.5,11.3-5.5c-0.7,5.8-1.3,11.4-2,17.1c6.3-4.9,5.4,4.7,9,4.6c3.9-3.5,7.6-6.9,12.1-10.9c1.2,2.5,2.4,5.2,3.6,7.6
		c2-2.8,4.8-6.5,7.6-10.4c4.8,2.5,0.9,7.4,1.4,12.1c1.5-1.2,2.4-2.1,3.7-3.1c0.3,3,0.5,5.6,0.7,8.1c0.6,0,1.2-0.1,1.8-0.1
		c-0.2-5.4-0.7-10.8-0.3-16.1c0.1-1.7-0.4-5.9,4.1-5.2c0.6,0.1,1.5-1.4,2.1-2.2c2.4-3.4,4.8-6.9,7.1-10.3c0.4,0.3,0.9,0.6,1.3,1
		c-0.2,1.6-0.4,3.2-0.5,4.9c1.6-2.5,6.1-4.2,2.5-7.9c-0.2-0.2,1.2-1.8,1.9-2.8c0,0-0.2-0.2-0.2-0.2c0.9,5.5,2,10.9,2.6,16.4
		c0.2,2.5-0.7,5-1.3,8.9c3.4-3.7,6.1-6.5,8.9-9.5c0.2,2.4,0.4,4.4,0.5,6.5c0.4,0,0.7,0,1.1-0.1c0.8-2,1.5-3.9,2.3-6
		c1.1,1.2,2,2.2,2.9,3.2c0.2-0.2,0.5-0.4,0.7-0.6c-0.6-1.6-1.2-3.2-2.2-5.8c2,1.5,3.1,2.4,4.2,3.2c0.4-0.2,0.7-0.4,1.1-0.6
		c-1.1-3-2.1-6-3.3-9.4c1.3-1.7,3-3.9,4.6-6c0.2,0.1,0.4,0.2,0.6,0.3c-0.7,2.6-1.3,5.1-2,7.7c0.2,0.1,0.5,0.2,0.7,0.2
		c0.9-1.7,1.8-3.4,2.7-5.3c0.6,0.9,0.9,1.5,1.4,2.2c1-2.8,1.8-5.1,2.6-7.4c0.4,0.2,0.9,0.3,1.3,0.5c-0.4,1.9-0.8,3.8-1.1,5.7
		c0.2,0.1,0.5,0.1,0.7,0.2c1.2-3,2.4-5.9,3.5-8.9c0.4,0.1,0.8,0.3,1.2,0.4c-0.4,2-0.7,4.1-1.1,6.1c0.9-0.1,1.5-0.2,2.4-0.3
		c-1.2,2.9-2.2,5.3-3.2,7.6c0.3,0.1,0.5,0.2,0.8,0.3c3.3-5.3,6.7-10.6,9.5-15.2c0,2.8,0,6.8,0,10.7c1.8-0.3,4.2,0,5.1-1
		c1.9-2.1,4.1-5,4.1-7.5c0-2.5-1.3-2.8,0.7-3.9c4-2.3,5.1-5.4,3.9-9.7c-0.2-0.6,0.6-1.5,0.9-2.3c0.5,0,1-0.1,1.5-0.1
		c0.4,1.7,0.8,3.3,1.2,5c-0.7,1.7-1.3,3.4-2,5.1c-0.4,1.7-1.1,3.4-1.1,5.1c0.1,5.1,0.5,10.2,0.8,15.3c1.1-5,6.5-7.4,6.4-14
		c-0.1-6.2-1.5-13.8,4.7-18.9c0.6-0.5,0.1-2,0.6-2.6c2.8-3,1.2-6.5,0-9c-1-2.1-4.4-3-6.7-4.4c-0.5,0.6-1,1.3-1.5,1.9
		c1.3,0.5,2.7,1.1,5.1,2c-4.2,0.6-6.3,1-8.5,1.3c-0.1-0.3-0.3-1.2-0.6-2.1c-0.4,0-0.8,0-1.1,0.1c0,4.9,0,9.9,0,14.8
		c-0.9,0-1.7,0.1-2.6,0.1c-0.2-3.5-0.4-7.1-0.6-10.6c-0.4,0.1-0.9,0.1-1.3,0.2c-0.5,1.4-0.9,2.8-1.9,5.5c-1.6-2.9-2.5-4.6-3.5-6.4
		c2.9-0.6,4.9-1.1,6.9-1.5c0-0.2-0.1-0.4-0.1-0.6c-3.2,0.2-6.4,0.4-11.3,0.8c3.2-5.1,5.5-8.8,7.8-12.5c0.4,0.2,0.9,0.5,1.3,0.7
		c-1.1,2.3-2.2,4.7-3.2,6.9c1.3,0.2,2.8,0.4,4.1,0.6c0-6.3,0-12.6,0-19c0,0-0.1,0.1-0.1,0.1c1.7-1.8,4.7-3.5,4.8-5.3
		c0-4.7-1-9.5-2.1-14.1c-0.5-2.2-3.5-4.5-3-6c1.4-3.9-1-5.7-2.8-8.1c-0.3-0.5-0.2-1.3-0.4-2.7c4,1.8,7.2,3.4,10.6,4.9
		c0.2-4.5-3.4-4.7-6.3-5.4c-6-1.5-11.9-2.5-15.3-8.9c-1.6-3-5.1-5-7.7-7.4c-0.4,0.4-0.8,0.7-1.2,1.1c1.4,2,2.8,4.1,4.3,6.3
		c-3-1-5.2-1.7-7.5-2.4c-0.5-1-1.2-2-1.4-3c-0.5-2.9-0.8-5.7-1.1-8.6c-0.8,0-1.5-0.1-2.3-0.1c2.9,4,1.1,5.3-1.8,5.5
		c1.3,2.4,2.5,4.6,3.6,6.9c1,2.2,2.2,2.5,4,0.8c1.1,1.2,2.1,2.5,3.3,3.8c-6.1,1.3-9.3-2.4-12.3-6.7c2,5.5,0.3,7.1-7,6.9
		c-0.9-2-1.7-4-2.6-6c0.3-0.3,0.7-0.7,1-1c1.8,1.3,3.5,2.6,5.9,4.3c-0.6-3.4-1-6.4-1.5-9.4c-0.6,0.1-1.2,0.2-1.9,0.3
		c0.1,1.2,0.3,2.4,0.4,3.5c-3.3-0.4-6.5-0.7-10-1.1c0.5-2.3,0.9-3.8,1.3-5.8c-1.9,2.4-3.4,4.3-4.9,6.2l0.2,0.1
		c-6-3.4-6.3,3.7-9.6,5.6c-0.7-1.2-1.2-2.3-1.9-3.1c-3-3.3-4.7-8.8-11-6.6c-0.2,0.1-2-2.9-1.7-3.3c3.2-4-0.6-5.8-2.6-7.7
		c-2.5-2.3-5.5-4-8.3-6c-0.3-0.2-0.3-0.9-0.6-1.8c1.4,0.5,2.4,0.8,3.8,1.3c-0.6-1.5-1.1-2.7-2.6-6.2c-4.2,4-7.5,7-10.7,10.1
		c0.4,0.5,0.9,0.9,1.3,1.4c-0.9-2.7-1.7-5.4-2.7-8.5c1.9,0.9,3.4,1.6,5,2.4c0.2-0.3,0.3-0.6,0.5-0.9c-2.4-1.8-4.7-3.7-7.1-5.5
		c0.4-0.7,0.9-1.4,1.3-2.1c2.1,0.9,4.2,1.7,6.3,2.6c-0.9-2.7-2.2-5.6-4.2-6.2c-5.2-1.7-10.1-0.4-12.9,3c-3.1-1.9-5.7-3.6-8.3-5.2
		c0.4-0.5,1.3-1.6,3.3-3.9c-3.3,1.1-5,1.9-6.7,2.1c-0.5,0.1-1.2-1.6-1.8-2.6c2.1-1.8,3.5-5.8,7.5-0.9c0.1-0.7,0.2-1.5,0.3-2.2
		c-1.8-1.1-3.6-2.2-5.6-3.4c1.1-11.4,0.8-11.9-5.6-11.3c-0.5,1.6-1.7,3.3-1.3,4.5c1.4,4.6,3.2,9,4.9,13.4c-2.4-2.4-4.3-6-7.2-7.1
		c-6.2-2.3-6.6-2.2-4.7-8.7c-3.2-2.9-6.3-5.7-9.7-8.8c0.2-0.4,0.5-1.5,0.8-2.2c-2.8,0.4-5.4,0.8-9.1,1.3c2.8-3.5,4.8-6,7-8.7
		c-2.7,0.1-5,0.3-8.5,0.4c2-2.3,3-3.5,4.1-4.8c-1.3-1-2.3-1.7-2.9-2.3c-1.2,4.3-2.4,8.5-3.6,12.6c0.4-0.2,0.9-0.5,1.3-0.7
		c0.6,1.3,1.2,2.7,1.9,4.5c-8.1,0.8-8.7-6.1-12.3-8.8c1.5-1.1,2.8-2,4.1-3c-0.2-0.4-0.4-0.9-0.6-1.3c-1.5,0.4-3,0.9-4.8,1.4
		c0.1-1.7,0.1-3.2,0.2-5.2c-5.8,3.5-10.4,1.2-14.7-3.5c-2.4,3-4.5,5.7-6.9,8.9c-1.4-4.1-2.5-7.1-3.7-10.3c1,0,1.6,0,3,0
		c-2.7-3.3-4.9-5.9-7.6-9.1c-1.2,4.2-2,6.8-2.7,9.4c-0.5,0-1.1-0.1-1.6-0.1c-0.2-2.6-0.5-5.3-0.9-9.6c-3.6,2.6-6.6,4.9-9.7,7.1
		c-0.2-0.3-0.4-0.5-0.7-0.8c1-1.2,2-2.4,3.1-3.7c-2.7,0.7-5,1.4-8.2,2.3c-0.1,0.1-0.6,1.6-1.6,2.7c-0.3,0.3-2.3-0.2-2.7-0.8
		c-2-3.5-3.8-7.1-6.1-11.7c-2.6,0-6.5-0.4-10.3,0.1c-3.4,0.4-7.3,1-7.1,6.1c0.1,1.3-0.1,2.6-0.2,3.9c-2.5-1.6-4.7-3-7.7-5
		c-1-5.7-2.3-6.5-8.3-3c-5.1,3-9.6,4.8-13.6-2.2c-0.4,0.5-0.8,1-1.3,1.4c1.8,4,3.6,8.1,5.4,12.1
		C256.8,122.5,256.1,123.3,255.4,124.2z M103.3,199.7c-2.4-3.2-6-4.4-8.2-0.9c-1.8,2.8-1.4,7-2.2,11.3c1.7-0.9,3.4-1.8,6.4-3.4
		c-6.3,7.1-8.8,14.6-9.6,23c1.8-1.1,3.1-1.8,4.4-2.6c-0.5-0.2-0.9-0.4-1.4-0.6c2-5.8,4-11.6,6.2-17.3c0,0,1.2,0.4,1.8,0.6
		c0,5.2,0,10.3,0,15.7c0.8-0.2,1.8-0.1,2.1-0.5c2-2.9,3.8-5.9,5.6-8.9c0.3-0.5-0.3-1.4-0.3-2.1c-0.3-4.1-0.5-8.2-0.8-13.1
		C106.7,200.7,105,200.2,103.3,199.7z M102.1,235.2c0.2,4.7,0.5,9.4,0.7,14.1c0.3-0.1,0.6-0.1,0.9-0.2c0-6.9,0-13.8,0-20.7
		c-0.7-0.2-1.5-0.4-2.2-0.6c-1.9,4.5-3.7,9.1-5.6,13.6c0.8,0.4,1.7,0.8,2.5,1.2C99.6,240.3,100.8,237.9,102.1,235.2z"/>
	<path fill="#FFFFFF" stroke="#000000" stroke-width="4.8642" stroke-miterlimit="10" d="M137.7,289c-3.4-4.9-3.3-10.3-1.9-15.6
		c0.5-1.9,2.2-3.5,3.4-5.5c-0.7-2.2-1.6-4.8-2.8-8.7c-2,3.3-3.5,5.9-4.8,8.5c-0.1,0.2,2,1.4,3.3,2.2c-1.8,1.1-3.7,2.3-6.2,3.9
		c0.2,0.4,0.9,2.1,1.9,4.4c-4.4-4-7.4-21.9-5-28.7c0.9,4,1.8,7.5,2.6,11c0.5-0.1,1.1-0.2,1.6-0.3c-1.3-7.5-2.6-15-4-22.7
		c-7.9,5.6-4.1,14.7-5.6,22.5c-1.3-4.6-2.5-9.2-3.8-13.7c-0.4,0-0.9,0.1-1.3,0.1c-0.2,1.8-0.4,3.7-0.6,5.5c-0.2,0-0.4,0-0.6,0.1
		c-0.2-2-0.4-3.9-0.6-5.9c-0.3,0-0.6,0-0.9-0.1c0,3,0,6.1,0,10c-4.1-8.7-8.7-16.2-5.1-25.7c0.8-2-0.9-4.9-1.5-7.5
		c1.9,1.6,3.5,3.1,5.1,4.5c0.4-0.3,0.8-0.6,1.2-0.9c0,2.3,0,4.7,0,6.3c4.3-0.2,8.3-0.3,12.2-0.7c0.9-0.1,1.7-1.3,2.5-1.9
		c0.1-0.6,0.2-1.3,0.2-1.9c-0.1-4.3-0.3-8.6-0.2-13c0-1.1,0.5-2.3,2.1-3.4c0.2,2.3,0.4,4.7,0.6,7c0.5,0.1,0.9,0.2,1.4,0.3
		c0.5-3.3,1-6.6,1.6-9.9c0.7-4.1,0.8-8.5,2.4-12.3c1.1-2.6,4.2-4.3,6.4-6.4c0.4,0.4,0.9,0.7,1.3,1.1c0-2.2,0-4.3,0-6.5
		c-0.5-0.4-0.9-0.7-1.4-1.1c-0.4,0.9-0.9,1.8-1.4,3c-0.9-2.3-1.8-4.6-3.1-8.1c-1,4-1.7,6.8-2.4,9.6c-3-1.6-3-1.6-3-12.9
		c-3.3,7-6.6,13.9-9.6,20.3c1.1-7.8,2.4-16.4,3.7-25c-5.3-0.4-6.2,0.9-7.8,10.5c-0.6-1-1.1-1.8-2-3.3c-0.6,2.3-1.1,3.7-1.6,5.6
		c-1.1-10.5,2.1-18.1,8.6-20c-0.8,1.5-1.4,2.7-2.5,4.7c3.3-0.3,5.9-0.5,8.9-0.8c-0.5,1.4-1.4,3.3-2,5.3c-0.5,1.9-0.7,3.9-1.2,6.5
		c6.9-8.8,8.3-17.6,3.5-21.4c2.8-1.4,5.5-2.7,8.3-4c0.4-0.2,1.1,0.1,1.9,0.1c0.4,1.5,0.9,3,1.3,4.5c3-1.3,5.9-2.5,8.9-3.7
		c-1.3,4.5-8.3,3.7-6.8,9.8c0,0.1,1.5-0.1,2.5-0.2c-0.4,4-0.9,7.9-1.3,11.9c0.5,0.1,0.9,0.1,1.4,0.2c0.3-0.8,0.5-1.6,0.9-2.8
		c1.2,0.9,2.4,1.8,3.5,2.6c0.4-0.3,0.9-0.7,1.3-1c-1.3-1.9-2.5-3.9-4-6c3.9-4.8,5.3-11.4,5.6-18.4c0.1-2.9,0.1-5.9,3.6-7.4
		c1.9-0.8,3.6-2.3,6.1-2.9c-2.4,2.1-4.7,4.2-7.2,6.4c5,1.9,9.3,3.6,13.7,5c4.4,1.4,8.9,2.4,13.8,3.8c0.2-5.8-10.4-7.1-6.9-15
		c1.5,1.9,2.8,3.5,3.9,4.9c2.7-3.2,5.2-6.3,8.7-10.3c-0.5,2.5-0.8,3.9-1.1,5.3c-5.5,3.4-5.9,4.3-4.1,10.3c2.5-1.5,5-3.1,7.6-4.7
		c-3.8,5.5-3.4,6.8,3.4,8.9c-4.6-7.8,7.2-4,6.1-9.6c1.3,3.4,2.6,6.8,4,10.5c2.7-2.3,8.4-0.2,8.7-6.1c0.2-0.2,0.3-0.3,0.5-0.5
		c1.1,2,2.1,3.9,3.2,5.9c-2.9,1.3-5.8,2.6-8.7,3.8c0.2,0.5,0.4,1,0.6,1.5c1.4,0.2,2.9,0.4,3.4,0.4c0.9,2.4,1.7,4.3,2.5,6.2
		c0.4-0.1,0.8-0.2,1.1-0.4c-0.2-1.5-0.4-3-0.6-4.5c0.5,0.2,0.9,0.4,1.4,0.6c0.5-1.4,1-2.7,1.6-4.1c1.1-0.5,2.3-1,3.7-1.6
		c0.5,1.7,1,3.1,1.4,4.6c0.5,0,0.9-0.1,1.4-0.1c0-2.1,0-4.2,0-6.3c0.5-0.4,1.1-0.8,1.6-1.3c1,2.3,2,4.6,3,6.9c1-0.7,1.9-1.3,2.9-2
		c-1.5-3.6-2.9-7.3-4.4-10.9c1.8,2,3.5,4,5.6,6.4c-0.5-4.2-1-7.9-1.5-11.7c-0.5-0.1-1-0.1-1.5-0.2c-1.1,1.6-2.1,3.3-3.2,4.9
		c-1.1,0.4-2.1,0.8-3.2,1.2c-0.2-0.2-0.4-0.4-0.7-0.5c2.6-2.8,5.2-5.6,7.8-8.3c-0.3-0.3-0.5-0.6-0.8-0.9c-0.9,0.4-1.9,0.9-3.2,1.5
		c1.8-4.3,3.4-8,5-11.7c0.4,0.1,0.8,0.1,1.1,0.2c-0.2,2.9-0.5,5.9-0.7,8.8c0.3,0,0.6,0.1,0.9,0.1c1.5-6.6,3.1-13.3,4.8-20.8
		c0.5,0.2-0.5-0.2-1.5-0.7c1.9-4.5,5.6-6.2,10.9-5.8c1.8,2.8,3.2,4.9,4.6,7c1,1.6,1.9,3.2,2.8,4.8c-2.5-2-5-4.1-7.5-6.1
		c-1.8,5.2-3.3,9.6-4.9,14c1.2-0.8,2.6-1.8,4-2.7c-0.1,0.5-0.2,1.1-0.3,1.6c2,0.7,4,1.4,6,2.1c0.2-0.5,0.4-1.1,0.6-1.6
		c-1.1-0.4-2.1-0.7-3.9-1.3c2.4-1.7,4.2-3,6-4.3c0.7,1.9,1,5.1,2.1,5.3c5.4,1.3,7.6-3.6,10.2-6.8c0.9-1.1-0.2-4-0.5-6
		c0-0.3-0.9-0.5-1.2-0.6c-2.3,2.7-4.4,5.3-6.6,8c-0.6-1-1.1-2-1.6-2.9c-1.8-4-3.6-8.1-5.4-12.1c0.4-0.5,0.8-1,1.3-1.4
		c3.9,7,8.5,5.2,13.6,2.2c5.9-3.5,7.3-2.7,8.3,3c3,1.9,5.2,3.3,7.7,5c0.1-1.2,0.2-2.6,0.2-3.9c-0.3-5.1,3.7-5.6,7.1-6.1
		c3.8-0.5,7.7-0.1,10.3-0.1c2.4,4.6,4.1,8.3,6.1,11.7c0.4,0.6,2.4,1.2,2.7,0.8c1-1.1,1.5-2.6,1.6-2.7c3.2-0.9,5.5-1.5,8.2-2.3
		c-1.1,1.3-2.1,2.5-3.1,3.7c0.2,0.3,0.4,0.5,0.7,0.8c3-2.2,6.1-4.5,9.7-7.1c0.4,4.3,0.6,6.9,0.9,9.6c0.5,0,1.1,0.1,1.6,0.1
		c0.8-2.6,1.5-5.3,2.7-9.4c2.7,3.2,4.9,5.9,7.6,9.1c-1.3,0-2,0-3,0c1.1,3.2,2.2,6.2,3.7,10.3c2.5-3.2,4.6-5.9,6.9-8.9
		c4.3,4.7,8.8,7,14.7,3.5c-0.1,2-0.2,3.5-0.2,5.2c1.8-0.5,3.3-0.9,4.8-1.4c0.2,0.4,0.4,0.9,0.6,1.3c-1.3,1-2.6,1.9-4.1,3
		c3.6,2.7,4.2,9.6,12.3,8.8c-0.8-1.8-1.3-3.1-1.9-4.5c-0.4,0.2-0.9,0.5-1.3,0.7c1.2-4.1,2.4-8.3,3.6-12.6c0.7,0.5,1.6,1.3,2.9,2.3
		c-1.2,1.4-2.2,2.5-4.1,4.8c3.5-0.2,5.7-0.3,8.5-0.4c-2.2,2.7-4.2,5.2-7,8.7c3.7-0.5,6.3-0.9,9.1-1.3c-0.3,0.7-0.6,1.8-0.8,2.2
		c3.3,3,6.5,5.9,9.7,8.8c-1.9,6.5-1.5,6.4,4.7,8.7c2.9,1.1,4.8,4.6,7.2,7.1l-0.1-0.1c0.6,0.9,1.3,2.6,1.8,2.5c1.8-0.2,3.5-1,6.7-2.1
		c-2,2.3-2.9,3.4-3.3,3.9c2.5,1.6,5.2,3.3,8.3,5.2c2.8-3.3,7.8-4.6,12.9-3c2,0.7,3.3,3.5,4.2,6.2c-2.1-0.9-4.2-1.7-6.3-2.6
		c-0.4,0.7-0.9,1.4-1.3,2.1c2.4,1.8,4.7,3.7,7.1,5.5c-0.2,0.3-0.3,0.6-0.5,0.9c-1.5-0.7-3.1-1.5-5-2.4c1,3.1,1.9,5.8,2.7,8.5
		c-0.4-0.5-0.9-0.9-1.3-1.4c3.3-3.1,6.5-6.1,10.7-10.1c1.4,3.5,1.9,4.7,2.6,6.2c-1.4-0.5-2.4-0.8-3.8-1.3c0.3,0.9,0.3,1.6,0.6,1.8
		c2.8,2,5.8,3.7,8.3,6c2,1.9,5.8,3.7,2.6,7.7c-0.3,0.4,1.5,3.4,1.7,3.3c6.4-2.2,8.1,3.3,11,6.6c0.7,0.8,1.1,1.9,1.9,3.1
		c3.4-1.9,3.6-9,9.6-5.6c-8.2,4.3-9.3,6-7.8,12.5c-1,3.9-1.9,7.9-2.9,11.8c0.8,0.2,1.5,0.4,2.3,0.5c1-4.1,2-8.2,3-12.3
		c0.6,1.3,1.1,2.7,1.2,2.8c3.5-3.8,7.3-7.9,11.3-12.4c-2.5-1-4.9-2-7.3-3c1.5-1.9,3.1-3.8,4.9-6.2c-0.4,1.9-0.8,3.5-1.3,5.8
		c3.5,0.4,6.7,0.8,10,1.1c-0.1-1.1-0.3-2.3-0.4-3.5c0.6-0.1,1.2-0.2,1.9-0.3c0.5,3,1,6,1.5,9.4c-2.3-1.7-4.1-3-5.9-4.3
		c-0.3,0.3-0.7,0.7-1,1c0.8,2,1.7,4,2.6,6c7.3,0.2,9-1.4,7-6.9c2.9,4.3,6.2,8,12.3,6.7c-1.1-1.3-2.2-2.6-3.3-3.8
		c-0.3-0.5-0.6-1-0.9-1.5c2.2,0.7,4.5,1.4,7.5,2.4c-1.5-2.2-2.9-4.2-4.3-6.3c0.4-0.4,0.8-0.7,1.2-1.1c2.6,2.5,6,4.5,7.7,7.4
		c3.5,6.3,9.3,7.4,15.3,8.9c2.8,0.7,6.5,0.8,6.3,5.4c-3.4-1.6-6.7-3.1-10.6-4.9c0.2,1.5,0.1,2.3,0.4,2.7c1.7,2.4,4.1,4.2,2.8,8.1
		c-0.5,1.4,2.5,3.8,3,6c1.1,4.6,2.1,9.4,2.1,14.1c0,1.8-3.1,3.5-4.7,5.3c1-1.6,1.9-3.3,3.4-5.8c-0.4-1.3-1.2-3.8-2-6.6
		c-5.3,5.2-5.2,5.2-2,10.8c0.3,0.5,0.4,1,0.6,1.6c0,6.3,0,12.7,0,19c-1.3-0.2-2.9-0.4-4.1-0.6c1-2.2,2.1-4.5,3.2-6.9
		c-0.4-0.2-0.9-0.5-1.3-0.7c-2.3,3.7-4.6,7.4-7.8,12.5c5-0.3,8.1-0.6,11.3-0.8c0,0.2,0.1,0.4,0.1,0.6c-2,0.4-4,0.9-6.9,1.5
		c1,1.9,2,3.5,3.5,6.4c0.9-2.7,1.4-4.1,1.9-5.5c0.4-0.1,0.9-0.1,1.3-0.2c0.2,3.5,0.4,7.1,0.6,10.6c0.9,0,1.7-0.1,2.6-0.1
		c0-4.9,0-9.9,0-14.8c0.4,0,0.8,0,1.1-0.1c0.2,0.9,0.5,1.7,0.6,2.1c2.2-0.3,4.2-0.7,8.5-1.3c-2.4-1-3.8-1.5-5.1-2
		c0.5-0.6,1-1.3,1.5-1.9c2.3,1.4,5.6,2.4,6.7,4.4c1.2,2.5,2.8,6,0,9c-0.5,0.6-0.1,2.2-0.6,2.6c-6.2,5.1-4.8,12.8-4.7,18.9
		c0.1,6.6-5.3,9.1-6.4,14c-0.3-5.1-0.7-10.2-0.8-15.3c0-1.7,0.7-3.4,1.1-5.1c0.4,3.1,0.8,6.3,1.2,9.4c0.5,0,1,0,1.4,0
		c0.4-5.2,0.9-10.3,1.3-15.7c-0.8,0.5-1.4,0.9-2,1.2c-0.4-1.7-0.8-3.3-1.2-5c-0.5,0-1,0.1-1.5,0.1c-0.3,0.8-1.1,1.7-0.9,2.3
		c1.3,4.3,0.1,7.4-3.9,9.7c-2,1.2-0.7,1.5-0.7,3.9c0,2.5-2.2,5.4-4.1,7.5c-0.9,1-3.3,0.7-5.1,1c0-3.9,0-7.9,0-10.7
		c-2.9,4.6-6.2,9.9-9.5,15.2c-0.3-0.1-0.5-0.2-0.8-0.3c1-2.4,2-4.8,3.2-7.6c-0.9,0.1-1.5,0.2-2.4,0.3c0.4-2,0.7-4.1,1.1-6.1
		c-0.4-0.1-0.8-0.3-1.2-0.4c-1.2,3-2.4,5.9-3.5,8.9c-0.2-0.1-0.5-0.1-0.7-0.2c0.4-1.9,0.8-3.8,1.1-5.7c-0.4-0.2-0.9-0.3-1.3-0.5
		c-0.8,2.3-1.6,4.6-2.6,7.4c-0.4-0.7-0.8-1.3-1.4-2.2c-1,1.9-1.8,3.6-2.7,5.3c-0.2-0.1-0.5-0.2-0.7-0.2c0.7-2.6,1.3-5.1,2-7.7
		c-0.2-0.1-0.4-0.2-0.6-0.3c-1.7,2.1-3.3,4.3-4.6,6c1.2,3.4,2.3,6.4,3.3,9.4c-0.4,0.2-0.7,0.4-1.1,0.6c-1.1-0.8-2.2-1.7-4.2-3.2
		c1,2.6,1.6,4.2,2.2,5.8c-0.2,0.2-0.5,0.4-0.7,0.6c-0.9-1-1.8-2-2.9-3.2c-0.8,2-1.6,4-2.3,6c-0.4,0-0.7,0-1.1,0.1
		c-0.2-2-0.3-4-0.5-6.5c-2.8,3-5.4,5.8-8.9,9.5c0.6-3.8,1.5-6.4,1.3-8.9c-0.5-5.5-1.7-11-2.5-16.4c4.2,0.4,8.4,0.8,8.9-5.2
		c-1.6-0.4-3.2-0.7-5.1-1.1c0.2-3.5,0.5-7.7,0.7-12c-1.8,1.6-2.9,3.3-3.1,5.2c-0.6,4.4-0.8,8.8-1.2,13.3c-0.7,1-2,2.6-1.9,2.8
		c3.6,3.7-1,5.4-2.5,7.9c0.2-1.6,0.4-3.2,0.5-4.9c-0.4-0.3-0.9-0.6-1.3-1c-2.4,3.5-4.7,6.9-7.1,10.3c-0.6,0.9-1.5,2.3-2.1,2.2
		c-4.5-0.7-4,3.5-4.1,5.2c-0.4,5.3,0.1,10.8,0.3,16.1c-0.6,0-1.2,0.1-1.8,0.1c-0.2-2.5-0.4-5.1-0.7-8.1c-1.2,1-2.2,1.8-3.7,3.1
		c-0.4-4.7,3.5-9.5-1.4-12.1c-2.8,3.9-5.6,7.6-7.6,10.4c-1.2-2.5-2.4-5.1-3.6-7.6c-4.5,4-8.2,7.3-12.1,10.9c-3.6,0.1-2.7-9.5-9-4.6
		c0.7-5.7,1.3-11.3,2-17.1c-4,1.9-7.7,3.7-11.3,5.5c-0.1-0.3-0.3-0.5-0.4-0.8c3.3-2.8,6.7-5.6,9.7-8.1c-0.8-2.3-1.5-4.2-2.4-6.7
		c-2.5,5.9-5.9,10.6-11.5,13.2c1.3-3.8,2.6-7.6,3.9-11.4c-0.6-0.3-1.2-0.6-1.8-0.9c-2.6,2.8-5.1,5.8-7.8,8.5
		c-8.3,8-17.2,15.3-21.6,26.5c-1.2,3.1-3.4,5.9-5.2,8.9c1.6-4.1,3.3-8.2,4.9-12.2c-0.3-0.2-0.6-0.4-0.8-0.6
		c-5.3,5.8-10.5,11.6-15.8,17.4c0.4,0.4,0.8,0.8,1.2,1.2c3.6-2,7.2-4,10.8-6c-3.8,2.7-7.7,5.4-11.5,8.2c-2.3,1.7-4.4,3.6-6.6,5.4
		c0.3,0.3,0.5,0.7,0.8,1c7.3-4.5,14.7-9,22-13.5c-0.7,1.1-1.2,2.8-2.2,3.4c-22.5,11-38.7,28.6-52.4,48.9
		c-4.9,7.2-10.9,13.7-15.1,21.3c-10.1,18.1-21.1,36-28.6,55.2c-4.9,12.4-4.4,27-6.1,40.6c-0.5,3.8-0.6,7.8-0.4,11.6
		c0.1,1.9,1.5,3.8,3.2,5.4c-4.1,8.4-4,18.2-4.3,27.7c-0.4,12.2-0.1,24.3-0.2,36.5c-0.1,8-0.9,16.1-0.3,24.1
		c1.3,16.1,3.5,32.1,5.4,48.6c-5.6,0-12.1,0-19.2,0c0-11-0.1-21.8,0.1-32.6c0.1-2.7,1.2-5.4,2-8.1c0.3-1.1,1.6-2,1.6-3.1
		c0.2-13.9,0-27.9,0.5-41.8c0.6-16.4,2.1-32.9,3-49.3c0.7-13.3,0.7-26.6,1.7-39.8c0.7-9.7,2.7-19.3,4-29c1.1-8.5,2.1-17,2.7-25.6
		c1-14,2.4-28,2.1-42c-0.2-11.6-2.6-23.2-4.2-34.8c-0.2-1.7-1.5-3.3-2.6-4.8c-5.3-6.9-10.7-13.7-16.2-20.5
		c-4.5-5.6-9.2-11.2-13.8-16.7c-0.3-0.4-0.9-0.7-1.2-1.1c-7.2-10.6-14.4-21.1-21.4-31.7c-2.7-4-4.9-8.4-6.7-11.6
		c-1.4,1.2-3.1,2.5-4.8,3.9c0-0.6,0-1.1,0-1.7c-2-0.5-4.1-1.7-6-1.4c-4.5,0.8-6.1,7.6-5.7,17.5c-0.6-3.2-1-6.5-1.9-9.7
		c-1.2-4.5,2.5-6.5,4.9-8.1c2.6-1.7,6.5-1.4,10.4-2.1c-0.5-2-0.9-3.5-1.3-5.1c-2.5,0.7-4.5,1.4-7.3,2.2c-0.4-2.8-0.9-5.7-1.5-9.5
		c-2.1,4.4-4.5,7-9.4,6.2c-0.9-0.1-2.5,4.2-3.9,6.7c-0.7-2.4-1.6-5.3-2.5-8.5c-1.1,1.3-2.2,2.7-3.1,3.8c1.4,8.6,2.8,17.3,4,25.3
		c-2.1-4-4.8-9.1-7.5-14.2c-0.2,0-0.5-0.1-0.7-0.1c0.5,4.4,1,8.9,1.6,13.3c-0.2,0.1-0.5,0.2-0.7,0.3c-1.5-3-3.1-6-4.7-9.1
		c-9.2,1.9-5.8,8.8-6.2,15c-1.2-2.3-2.4-4.6-3.9-7.5c-1.2,2.6-2.2,4.8-3.2,7c-0.6-1.1-1.2-2.2-1.8-3.3l0.1,0.1
		c5.2-6,2.3-13.9,4.5-20.6c0.3-0.9-1.8-2.7-3.7-3.4c0.3-2.7,0.4-5.5,0.8-8.2c0.1-0.9,1-1.7,1.5-2.6c0.7,1.9,1.3,3.7,2.1,5.9
		c1.3-0.6,2.4-1.1,3.5-1.6c2.2,4.9,5.8,6.9,11.4,5.2c-1.4-3.7,3.9-7.6-0.3-12.4c-0.6,2-0.9,3.1-1.5,5c-1.7-6.7,1.6-15.1-8.5-16.9
		c0,2.9,0,5.7,0,8.5c-0.2,0-0.3,0.1-0.5,0.1c-0.6-2.4-1.2-4.8-1.8-7.2c-0.6,0.1-1.2,0.2-1.8,0.2c0,2.9,0.3,5.8-0.1,8.6
		c-0.3,1.7-1.8,3.2-2.8,4.8c0-1.5,0-3.1,0-4.2c-2,1.5-3.6,3.2-5.6,3.9c-1.1,0.4-2.7-0.9-4.3-1.6c-2.5,4.2-1.9,7,3.2,13
		c-4.9-1.4-7-5.6-6.1-11.7c0.8-5,1.4-10,2.2-16.1c-2.7,0.9-4.1,1.4-6,2.1c0.9,1,1.6,1.8,2.3,2.5c-4.5,1.2-7.6,7.6-6.6,13.3
		C137.4,285.8,137.5,287.4,137.7,289L137.7,289z M212.5,283.8c1.4,0.2,2.7,0.3,4.7,0.6c-0.6-2.8-1-4.9-1.3-6.1
		c-3.1,1.6-5.8,3-9.3,4.7c2.4,0.3,4.2,0.5,6,0.7c-0.9,0.6-1.9,1.2-2.7,1.9c-0.8,0.8-2,1.9-1.8,2.7c0.4,1.5,1.4,3,2.3,4.3
		c0.7,1,1.6,1.7,2.5,2.5c0.8-0.9,1.6-1.8,2.5-2.7c0.3,0.6,0.7,1.3,1.1,2c0.7-1.1,2.2-3,1.9-3.3c-1.2-1.3-2.8-2.1-4.8-3.5
		C213.3,286.9,212.9,285.3,212.5,283.8z M386.5,316.8c2.3-2.8,4.7-5.6,6.8-8.1c-0.2-0.5,0,0,0.2,0.5c0.2,0.6,0.4,1.1,0.6,1.7
		c0.6-0.2,1.2-0.4,1.8-0.5c-0.8-3-1.6-6-2.5-9.3c-8.3,7.2-17,18.6-16.6,21.5c1.8-0.9,3.6-1.8,5.5-2.7c-3.1,3.5-6.3,7-9.4,10.6
		c0.5,0.5,1.1,1,1.6,1.5c5.4-5,10.9-10,16.3-15.1c-0.4-0.4-0.7-0.8-1.1-1.1C388.6,316,387.5,316.4,386.5,316.8z M385,338.4
		c1.4-0.2,3.5,0.1,4-0.7c4-5.9,8-11.9,11.4-18.2c1-1.8,0.2-4.7,0.2-7c-0.7-0.1-1.4-0.2-2.1-0.4c-1,1.9-1.6,4.3-3.2,5.6
		c-6.2,5.3-7,6.6-7.6,11.8C387.3,332.5,385.9,335.4,385,338.4c0.6-4.3,1.1-8.7,1.9-14.8c-5,3.9-8.4,7.1-12.2,9.4
		c-3.9,2.4-5.6,5.7-5.8,10c0,0.7-0.4,1.5-0.7,2.2c-3.4,8.7-6.9,17.3-9.7,24.3c7-7.2,15.3-15.6,23.4-24.2
		C383.5,343.6,384,340.7,385,338.4z M340.6,313.1c-1.2,2.7-2.4,5.4-4.3,9.5c0-2.7,0-3.9,0-6c-4.2,3.4-7.9,6-11.1,9.1
		c-1.1,1-1.2,3.3-1.3,5c-0.2,3.8-0.1,7.6-0.1,11.4c-0.3,0-0.6,0-0.9,0c-0.4-2.5-0.8-4.9-1.4-8.9c-2.1,4.6-3.5,7.6-5,11.1
		c-1.7-3.2-3-5.8-4.5-8.5c-5.2,4.2-9,8.8-10,16c-1.8,11.9-4.6,23.7-7.2,35.5c-2.2,10.1-5.1,20.1-7.1,30.3
		c-1.3,6.5,0.1,13.9-2.6,19.5c-4.6,9.7-4.5,19.8-5.4,29.9c-0.3,4-0.8,7.9-1.1,11.9c0.5,0.2,1,0.3,1.4,0.5c1-1.4,2.1-2.8,3-4.2
		c9.8-16.5,19.5-33,29.2-49.5c1.5-2.6,3.6-4.9,4.5-7.6c3.1-9.8,10-16.3,18-22.1c3.7-2.7,7.4-5.8,10-9.6
		c12.7-18.8,20.4-39.9,27.1-61.3c1.6-5-0.6-9.4-4.4-12.6c-2.5-2.1-3.2-3.9-2.1-6.8c0.8-2.2,1.1-4.5,1.6-6.8
		c-0.5-0.1-0.9-0.2-1.4-0.3c-0.3,0.9-0.7,1.9-0.9,2.8c-0.2,1.2-0.3,2.4-0.5,3.8c-6.5-3.4-7-3.3-8.5,3.5c-1.5-1.2-2.8-2.3-4-3.3
		c3.4-3.7,3.9-7.8,0.7-13.6c0,4.1,0,6.8,0,10.6c-1.6-2.2-2.5-3.4-3.7-4.9c-0.3,1.4-0.5,2.3-0.7,3.6c-1.6-3.8-3-7-5.1-11.7
		c-1.6,4.1-3.8,7.3-4,10.7C338.7,304.2,340,308.7,340.6,313.1z M281.3,314.9c-2,1.9-4.1,2.9-4.5,4.3c-0.9,4-1.6,8.3-1.3,12.4
		c1.2,14.6,1,29.3,4.5,43.9c2.4,10.2,5.8,20.7,2.9,31.8c-1.2,4.7-0.8,9.7-1.2,14.6c5.5-18.4,10.4-36.9,14.3-55.5
		c2-9.5,5-19.2,1.7-29.2c-1.3-4-2.7-8.1-3.3-12.3c-0.5-3.3,0.2-6.8,0.3-10.2c-0.7-0.2-1.5-0.4-2.2-0.6c-1.5,2.3-3,4.7-4.3,6.8
		c-4-2.6-2.2-5.8-1.1-9.2c0.4-1.3-0.4-3.1-0.7-4.6c-0.2,0.1-0.5,0.2-0.7,0.3c-1,5.6-2,11.2-2.9,16.8c-0.5-0.1-1.1-0.2-1.6-0.3
		C281.3,320.8,281.3,317.9,281.3,314.9z M273,376.9c0.4-17.4,0.6-17.6-5.7-27.4c-10.8-16.8-21.9-33.5-33.4-50.9
		c-1.5,2.7-2.3,4-3.4,6c0-3.4,0-6,0-8.7c-0.3,0-0.5,0-0.8,0c-0.5,2.2-1,4.4-1.6,6.9c-0.9-4.8-1.7-9.1-2.5-13.4
		c-0.8,5.2-0.4,10,0,14.8c0.3,3.7,0,7.5,1.1,10.9c1.1,3.4,3.5,6.4,5.6,9.4c9.5,13.4,19,26.9,28.9,40.1
		C264.5,369.1,268.8,372.6,273,376.9z M254.1,285.9c-4.6,1.3-3.6,5.3-3.1,8.4c1.7,9.6,3.9,19.1,5.9,28.7c0.6,2.7,0.9,5.6,2.2,7.9
		c3.9,6.8,8.3,13.4,12.1,19.5c0-8.5,0.7-17.7-0.4-26.5c-0.4-3.4-1.1-6.6-0.6-10.2c0.3-2.1,0.2-5.8-1-6.3c-4-1.9-4.3-5-4.7-8.6
		c-0.3-2.5-1.3-5-2.5-8.9c-0.3,3.5-0.5,5.4-0.7,7.3c-0.3,0-0.6,0-0.9,0.1c-0.5-1.8-0.9-3.6-1.6-6.2c-1,1.4-1.6,2.2-2.6,3.6
		C255.5,291.5,254.8,288.8,254.1,285.9z M242.5,308.8c0.4-0.2,0.8-0.4,1.2-0.7c-0.3-2.2-0.4-4.4-0.9-6.5
		c-2.9-12.2-5.7-24.4-8.8-36.5c-1.6-6.3-7.1-6.8-13.1-7.9c1.2,2.8,2,5,3.2,7.7c-1.5-0.8-2.4-1.3-3.7-1.9c-0.1,9.6,2.8,17.7,8.3,25.2
		c0.4-0.9,0.8-1.8,1.2-2.8c0.8,1.5,1.4,2.7,1.9,3.8c1.5-1.2,2.7-2.2,4-3.2c0,2.1,0,4.1,0,5.8c-1.3,0.2-2.2,0.4-3.4,0.6
		C235.9,298.2,239.2,303.5,242.5,308.8z M245.8,295.3c-0.3,0-0.5,0.1-0.8,0.1c-0.4-2.1-1.3-4.3-1-6.4c0.7-4.8,2.6-9.6,2.8-14.4
		c0.1-3.6-0.9-10-2.7-10.5c-4.9-1.4-3.7-5-4.9-7.8c-0.8-1.7-1.8-3.4-2.7-5.1c-1.3,2.1-2.7,4-3.8,6.2c-0.3,0.6,0.5,1.7,1,2.5
		c6.9,13.7,9.2,28.6,11,43.5c1,8.2,5.7,13.6,10.6,21c-0.2-3.2-0.2-4.9-0.5-6.5c-1.7-8.7-3.4-17.4-5.3-26.1c-0.3-1.2-1.8-2.1-3.2-3.7
		C246,291.3,245.9,293.3,245.8,295.3z M137.8,219.4c-1.4-2.7-2-3.9-2.6-5.2c-0.5,0-1.1,0-1.6,0c-0.1,3.7-0.9,7.6,0,11
		c1.3,5.1,5.8,1.2,8,2.1c3-5.1,5.8-9.7,8.8-14.8c-3.1,0.8-5.9,1.5-9.7,2.5c-0.3-0.5-1.5-2.1-2.8-3.9
		C137.8,213.5,137.8,215.6,137.8,219.4z M377.8,315.2c6.1-7.6,11.4-14.2,16.8-20.9c-0.4-0.4-0.7-0.9-1.1-1.3
		c-3.2,2.7-5.5,2.5-6.3-1.3c-0.8,2.8-1.6,5.7-2.6,9.5c-1.4-3.7-2.3-6.1-3.3-8.6c-1.6,3.3-2.2,6.7-2.6,10
		C378.4,306.1,378.2,309.6,377.8,315.2z M514.8,246.3c-0.5-0.2-0.9-0.5-1.4-0.7c-1.4,3.8-2.8,7.7-4.4,12.2c-0.8-1.6-1.2-2.3-1.5-2.9
		c-0.3,0.1-0.5,0.2-0.8,0.3c0.6,2.1,1.2,4.2,2,7c1.4-1.6,2-2.3,2.3-2.6c2.7,3.3,5.2,6.4,7.8,9.5c0.7-0.4,1.4-0.7,2.1-1.1
		c-2-4.8-4.1-9.6-6-14.1c0.9-0.6,1.9-1.1,2.9-1.7c-1.1-0.6-2.1-1.3-3.6-2.1C514.2,249.3,514.5,247.8,514.8,246.3z M151.2,184.3
		c-0.6-0.1-1.1-0.1-1.7-0.2c-0.8,7.8-1.8,15.6-2.3,23.4c-0.1,1.5,1,3.7,2.2,4.3c1.6,0.8,3.9,0.4,5.9,0.5c-0.2-1.8-0.3-3.6-0.6-5.4
		c-0.3-1.6-0.8-3.1-1.2-4.9c-0.9,0.8-1.7,1.4-2.3,1.9C151.2,197.2,151.2,190.8,151.2,184.3z M473.3,319.8c6.2-9.7,6.3-14.2,0-22.1
		C473.3,305.5,473.3,312.3,473.3,319.8z M498.7,268.4c-1.8,5.1-4.4,8.7-4,11.9c0.7,5.2,5,0.8,9.3,1.8
		C502.2,277.4,500.7,273.7,498.7,268.4z M133,171.3c1.8-0.6,2.8-0.8,3.8-1.2c1.5-0.6,4.1-1,4.3-1.9c0.3-1.7-0.7-3.7-1.3-5.5
		c-0.4-1.1-1.2-2.1-1.5-3.3c-0.3-0.9-0.1-1.9-0.1-2.8c-0.4,0-0.8,0-1.2,0C135.8,161.2,134.5,165.9,133,171.3z M410.8,187.9
		c5.2-3.9,4.8-4.9-5-13.5c0.6,5.3,1.1,9.7,1.6,14.4c1.5-1.8,2.3-2.8,3.1-3.7C410.5,185.9,410.6,186.6,410.8,187.9z M183.7,270.4
		c-0.5,1.8-0.9,3.2-1.3,4.7c-1.5-1.5-2.5-3.1-3.8-3.5c-0.8-0.2-3,1.7-3,2.6c0.1,2.1,1.1,4.2,1.7,6.5
		C186.1,276.4,187.2,274.5,183.7,270.4z M513.5,267c-3.5,0.1-6.4,1.1-5.2,4.7c1.2,3.5,3.7,6.5,5.7,9.8c0.4-0.1,0.8-0.2,1.2-0.3
		C514.6,276.5,514.1,271.8,513.5,267z M238.6,136.8c-3.2,4-3.2,7.5,0.1,11.3c4.4-0.9,7.8-2.4,5-7.9c-0.1-0.2-0.5-0.2-0.8-0.4
		c-0.3,1.5-0.5,2.8-0.7,4.2c-0.5,0.1-1,0.2-1.4,0.3C240,141.7,239.3,139.2,238.6,136.8z M315.7,319.6c-3.7,6.6-7,12.6-10.3,18.5
		c0.4,0.2,0.9,0.4,1.3,0.7C311.2,333.2,316.9,328.4,315.7,319.6z M242.8,149.9c-6.2,0.3-9.1,6.7-6.8,14.3
		C238.2,159.6,240.5,154.8,242.8,149.9z M130.9,236.9c-2.9,6.2-1.1,16.2,3.2,20.4C133,250.6,132,244,130.9,236.9z M259,141.6
		c0.7,0,1.5,0.1,2.2,0.1c0.1-2.8,0.2-5.6,0.3-8.4c-1.6,0.1-4-0.5-4.6,0.3c-1.1,1.5-1.2,3.7-1.8,5.7c0.6,0.2,1.2,0.4,1.8,0.7
		c0.5-0.7,1-1.4,1.7-2.3C258.8,139.2,258.9,140.4,259,141.6z M371.7,147.1c-3.6-4.2-6.8,0.3-9.5,1.4c-1.7,0.7-2.1,4.7-2.7,6.1
		C363.5,152.2,367.5,149.7,371.7,147.1z M371.3,182.6c1,0.2,1.9,0.4,2.9,0.6c1.5-2.8,3-5.6,4.4-8.4c-0.4-0.2-0.9-0.5-1.3-0.7
		c-0.7,0.4-1.5,0.9-2.4,1.4c-0.4-1-0.7-1.9-1-2.8c-0.3,0-0.6,0-1,0C372.4,175.9,371.8,179.2,371.3,182.6z M392.4,195.1
		c2.6-2.9,4.7-4.9,6.3-7.3c0.6-0.8,0.2-2.4,0.1-3.7c0-0.1-1.2-0.1-1.9-0.2c0.8,4.7-4.1-0.2-4.6,2.6
		C392.4,189.1,392.4,191.7,392.4,195.1z M228.1,182.2c0.3-3.7,0.7-7.5,1-11.1c-2.9,1.1-5.1,1.9-7.3,2.8
		C224.3,177.2,226.2,179.6,228.1,182.2z M154.1,251.6c-2.9-4.1-5.3-7.6-7.7-11c-0.3,0.2-0.7,0.3-1,0.5c1.8,4.7,3.6,9.4,5.9,15.4
		C153.1,253.3,153.8,252.1,154.1,251.6z M540.5,285.1c-0.6,0.1-1.2,0.3-1.8,0.4c-0.3,3.5-0.7,6.9-1,10.7c0.6,0.2,2.2,0.9,4.9,2
		C541.8,293.2,541.2,289.2,540.5,285.1z M420.3,181.1c-4.9,2.2-1.8,6-0.7,9.3c0.3,0.8,1.8,1.3,2.7,1.9c0.3-1.2,1-2.5,0.8-3.6
		C422.4,186.2,421.3,183.8,420.3,181.1z M317.1,277.1c-0.6-0.1-1.2-0.3-1.7-0.4c-0.5,2.9-1.4,5.7-1.2,8.5c0.1,0.8,3.5,1.5,5.5,1.8
		c0.5,0.1,1.2-1.5,1.9-2.5c-1.7-0.3-3.1-0.6-4.8-0.9c0.9-1.2,1.5-1.9,2.5-3.1c-1.5,0.4-2.3,0.5-3.7,0.9
		C316.2,279.7,316.6,278.4,317.1,277.1z M379.8,178.8c-1.8,2.9-3.4,5.5-5,8.1c1.2,0.1,2.5,0.6,3.7,0.3
		C383.3,186.1,382.5,183.1,379.8,178.8z M223.3,315.7c0.6-0.3,1.3-0.6,1.9-0.9c-2.3-4.7-4.6-9.4-6.9-14.1c-0.8,0.4-1.6,0.8-2.3,1.2
		C218.5,306.5,220.9,311.1,223.3,315.7z M448.4,320c0.6,0.2,1.1,0.5,1.7,0.7c1.1-5,2.2-9.9,3.4-15.7
		C445,308.8,451.7,315.7,448.4,320z M205.5,277.9c0.6,0.8,1.3,1.6,1.9,2.5c1.7-1.2,3.8-2.2,4.9-3.8c0.5-0.8-1.1-2.9-1.7-4.4
		C208.9,274.1,207.2,276,205.5,277.9z M394.4,180.9c-0.5-4.3-1.1-8.5-1.7-13.3C388.9,173.1,389.9,179.6,394.4,180.9z M485.3,258.1
		c0.3,0.5,0.6,1.1,0.9,1.6c1.7-0.4,4.1-0.3,4.9-1.4c1-1.4,0.5-3.7,0.7-5.7c-0.6-0.2-1.2-0.4-1.8-0.5
		C488.5,254.1,486.9,256.1,485.3,258.1z M164.6,153.5c0-0.4,0.1-0.9,0.1-1.3c-1.8-0.1-4.4-1.1-5.4-0.3c-2.2,1.8-3.5,4.6-5.2,6.9
		c0.2,0.2,0.4,0.4,0.6,0.6C158,157.4,161.3,155.4,164.6,153.5z M309.6,127.8c1.9,4.6,3.1,7.7,4.4,10.8c1.1-1,2.7-2.4,5-4.5
		C316,132.2,313.4,130.4,309.6,127.8z M219.1,279.8c-0.6,0.1-1.1,0.2-1.7,0.3c0.9,2.8,1.5,5.6,2.8,8.2c0.2,0.4,3.1-0.5,5.6-0.9
		C223,284.2,221.1,282,219.1,279.8z M362.3,180c0.7,0.9,1.7,2.1,2.9,3.7c3.1-3.7,6.4-6.2,1.4-9.9C365.3,175.6,364.1,177.4,362.3,180
		z M320.1,297c-2.2-3.3-3.6-5.3-5-7.4c-0.5,2.9-1,5.7-1.7,10C316.4,298.4,318.4,297.6,320.1,297z M325.5,277.9
		c0.2,1,0.6,2.9,1.2,6.2c2.2-5.1,3.9-9,5.6-12.9c-0.4-0.2-0.7-0.4-1.1-0.5C329.4,273,327.6,275.2,325.5,277.9z M440.8,268.3
		c-0.3,0-0.5-0.1-0.8-0.1c-0.4,2.6-1,5.1-1.2,7.7c-0.1,1.1,0.5,2.3,1.1,3.3c0.1,0.2,1.6,0.1,1.8-0.2c0.6-0.9,1.2-2.2,1-3.2
		C442.3,273.3,441.4,270.8,440.8,268.3z M375.3,310.5c0.4,0.1,0.7,0.2,1.1,0.2c0.2-3.1,0.7-6.2,0.6-9.2c0-1.7-0.8-3.5-1.6-5.1
		c-0.2-0.4-1.9,0-2.9,0c0.1,1.2,0.2,2.4,0.3,3.6c0.7-0.2,1.5-0.4,2.4-0.7C375.3,302.8,375.3,306.7,375.3,310.5z M447,325.9
		c0.8-0.2,1.6-0.4,2.4-0.6c-1-3.3-2.1-6.5-3.3-10.3c0.1,0-1-0.1-2.9-0.2C444.6,318.7,445.8,322.3,447,325.9z M508.9,296.3
		c5.4-8.1,5.4-8.1,1.8-10.3C510.1,289.6,509.5,292.9,508.9,296.3z M274.8,242.9c-3-2.7-5.3-4.8-7.6-6.9c-0.4,0.3-0.9,0.7-1.3,1
		c2,3.2,4,6.5,6.1,9.7c0,0,0.5-0.2,0.9-0.4c-0.6-1-1.3-2.1-2.1-3.4C272.1,242.9,273,242.9,274.8,242.9z M212.7,231.7
		c-0.5-0.1-1.1-0.1-1.6-0.2c0.1,3.7-4.6,6.8,0.6,12.4C212.1,238.9,212.4,235.3,212.7,231.7z M361.5,193.8c1.9,1.6,3.5,3,5.6,4.8
		c0-3.7,0-6.8,0-9.8c-0.4-0.6-0.8-1.1-1.2-1.7C364.5,189.3,363.1,191.4,361.5,193.8z M267.8,139.4c1-4.1,1.7-7.2,2.4-10.2
		c-0.7-0.2-1.4-0.4-2.1-0.6c-1,2.2-2,4.4-3.2,7C265.2,136,266.1,137.2,267.8,139.4z M219.5,301.5c0.7-0.1,1.4-0.1,2-0.2
		c0-3.6,0-7.2,0-11.5c-1.4,2.6-2.9,4.2-3.2,5.9C218.1,297.6,219.1,299.6,219.5,301.5z M456,336.6c5.5-4.2,6-5.9,2.5-10.4
		c-0.5,2.9-1,5.3-1.2,6.5c-0.6-0.2-1.8-0.7-3.5-1.3C454.6,333.3,455.2,334.8,456,336.6z"/>
	<path fill="#FFFFFF" stroke="#000000" stroke-width="4.8642" stroke-miterlimit="10" d="M379.1,365.8c-7.3,4.5-14.7,9-22,13.5
		c-0.3-0.3-0.5-0.7-0.8-1c2.2-1.8,4.3-3.7,6.6-5.4c3.8-2.8,7.7-5.5,11.5-8.2l-0.2,0.2c1.8-2.9,4-5.7,5.2-8.9
		c4.4-11.2,13.3-18.6,21.6-26.5c2.8-2.7,5.2-5.7,7.8-8.5c0.6,0.3,1.2,0.6,1.8,0.9c-1.3,3.8-2.6,7.6-3.9,11.4
		C397.6,344.2,388.4,355,379.1,365.8z"/>
	<path fill="#FFFFFF" stroke="#000000" stroke-width="4.8642" stroke-miterlimit="10" d="M100.8,209.8c-0.6-0.2-1.8-0.6-1.8-0.6
		c-2.1,5.8-4.1,11.5-6.2,17.3c0.5,0.2,0.9,0.4,1.4,0.6c-1.3,0.7-2.6,1.5-4.4,2.6c0.8-8.4,3.3-15.9,9.6-23c-3.1,1.6-4.7,2.5-6.4,3.4
		c0.7-4.3,0.4-8.5,2.2-11.3c2.2-3.4,5.7-2.2,8.2,0.9C102.5,203.1,101.6,206.4,100.8,209.8z"/>
	<path fill="#FFFFFF" stroke="#000000" stroke-width="4.8642" stroke-miterlimit="10" d="M100.8,209.8c0.8-3.4,1.7-6.8,2.5-10.1
		c1.7,0.5,3.4,1.1,4.1,1.3c0.3,4.9,0.5,9,0.8,13.1c0,0.7,0.6,1.6,0.3,2.1c-1.8,3-3.6,6-5.6,8.9c-0.3,0.4-1.3,0.3-2.1,0.5
		C100.8,220.1,100.8,215,100.8,209.8z"/>
	<path fill="#FFFFFF" stroke="#000000" stroke-width="4.8642" stroke-miterlimit="10" d="M405.1,168.6c-1.7-4.5-3.5-8.9-4.9-13.4
		c-0.4-1.2,0.8-2.9,1.3-4.5c6.4-0.5,6.7,0,5.6,11.3c2,1.2,3.8,2.3,5.6,3.4c-0.1,0.7-0.2,1.5-0.3,2.2c-4-4.9-5.5-0.9-7.5,0.9
		C405,168.5,405.1,168.6,405.1,168.6z"/>
	<path fill="#FFFFFF" stroke="#000000" stroke-width="4.8642" stroke-miterlimit="10" d="M257.5,121.6c0.5,0.9,1,1.9,1.6,2.9
		c2.2-2.6,4.3-5.2,6.6-8c0.3,0.1,1.1,0.3,1.2,0.6c0.3,2,1.4,4.9,0.5,6c-2.6,3.3-4.8,8.1-10.2,6.8c-1-0.2-1.4-3.5-2.1-5.3
		c0,0,0.3-0.4,0.3-0.4C256.1,123.3,256.8,122.5,257.5,121.6z"/>
	<path fill="#FFFFFF" stroke="#000000" stroke-width="4.8642" stroke-miterlimit="10" d="M255.4,124.2c0,0-0.3,0.4-0.3,0.4
		c-1.8,1.3-3.7,2.6-6,4.3c1.8,0.6,2.9,1,3.9,1.3c-0.2,0.5-0.4,1.1-0.6,1.6c-2-0.7-4-1.4-6-2.1c0.1-0.5,0.2-1.1,0.3-1.6
		c-1.4,1-2.8,1.9-4,2.7c1.5-4.4,3.1-8.8,4.9-14c2.5,2.1,5,4.1,7.5,6.1C255.2,123.4,255.3,123.8,255.4,124.2z"/>
	<path fill="#FFFFFF" stroke="#000000" stroke-width="4.8642" stroke-miterlimit="10" d="M102.1,235.2c-1.3,2.7-2.5,5.1-3.7,7.4
		c-0.8-0.4-1.7-0.8-2.5-1.2c1.9-4.5,3.7-9.1,5.6-13.6c0.7,0.2,1.5,0.4,2.2,0.6c0,6.9,0,13.8,0,20.7c-0.3,0.1-0.6,0.1-0.9,0.2
		C102.5,244.6,102.3,239.9,102.1,235.2z"/>
	<path fill="#FFFFFF" stroke="#000000" stroke-width="4.8642" stroke-miterlimit="10" d="M137.7,289.1c1.3-3.2,2.5-6.3,3.9-9.4
		c0.5-1.2,1.5-2.2,1.7-2.6c0,7.1,0,14.4,0,22.9c-1.4-1.9-3-3.4-3.9-5.2C138.5,292.9,138.3,290.9,137.7,289.1
		C137.7,289,137.7,289.1,137.7,289.1z"/>
	<path fill="#FFFFFF" stroke="#000000" stroke-width="4.8642" stroke-miterlimit="10" d="M218.2,159.5c-0.5,1.4-1,2.7-1.6,4.1
		c-0.5-0.2-0.9-0.4-1.4-0.6c0.2,1.5,0.4,3,0.6,4.5c-0.4,0.1-0.8,0.2-1.1,0.4c-0.8-1.9-1.5-3.8-2.5-6.2c-0.5-0.1-1.9-0.3-3.4-0.4
		c-0.2-0.5-0.4-1-0.6-1.5c2.9-1.3,5.8-2.6,8.7-3.8C217.3,157,217.8,158.2,218.2,159.5z"/>
	<path fill="#FFFFFF" stroke="#000000" stroke-width="4.8642" stroke-miterlimit="10" d="M191.1,146.6c-2.5,1.6-5.1,3.1-7.6,4.7
		c-1.8-6-1.4-6.9,4.1-10.3C188.8,142.9,189.9,144.7,191.1,146.6z"/>
	<path fill="#FFFFFF" stroke="#000000" stroke-width="4.8642" stroke-miterlimit="10" d="M213.2,150.4c-3.9-2.1-7.7-4.1-1.7-8.4
		c2-1.4,2.7-4.4,4.5-6.2c2.3-2.4,5.1-3.7,8.9-0.5c-5.1-0.7-8.3,0.1-9.3,5.3c-0.4,1.8-3.2,3.1-5,4.7c1,1.4,2,3,3.1,4.7
		C213.6,150,213.4,150.2,213.2,150.4z"/>
	<path fill="#FFFFFF" stroke="#000000" stroke-width="4.8642" stroke-miterlimit="10" d="M503.5,213c0.3,0.5,0.6,1,0.9,1.5
		c-1.7,1.6-3,1.4-4-0.8c-1-2.3-2.3-4.5-3.6-6.9c2.8-0.2,4.7-1.5,1.8-5.5c0.8,0,1.6,0.1,2.3,0.1c0.4,2.9,0.6,5.8,1.1,8.6
		C502.3,211,503.1,212,503.5,213z"/>
	<path fill="#FFFFFF" stroke="#000000" stroke-width="4.8642" stroke-miterlimit="10" d="M538.3,302.2c0.6-0.4,1.2-0.8,2-1.2
		c-0.5,5.4-0.9,10.6-1.3,15.7c-0.5,0-1,0-1.4,0c-0.4-3.1-0.8-6.3-1.2-9.4C537,305.6,537.6,303.9,538.3,302.2z"/>
	<path fill="#FFFFFF" stroke="#000000" stroke-width="4.8642" stroke-miterlimit="10" d="M127.1,228.3c-0.1,0.6-0.2,1.3-0.2,1.9
		c-6.4-4.6-7.6-8.5-5-13.8C123.4,220,125.3,224.2,127.1,228.3z"/>
	<path fill="#FFFFFF" stroke="#000000" stroke-width="4.8642" stroke-miterlimit="10" d="M155.1,317.6c-1.3,2-2.6,4-3.8,5.7
		c-1.3-5.6-2.5-10.8-3.6-16c0.4-0.1,0.9-0.2,1.3-0.3c0.7,2.9,1.2,5.9,2.4,8.7c0.4,1,2.5,1.3,3.8,2
		C155.2,317.7,155.1,317.6,155.1,317.6z"/>
	<path fill="#FFFFFF" stroke="#000000" stroke-width="4.8642" stroke-miterlimit="10" d="M227.2,148.3c1.1-1.6,2.1-3.3,3.2-4.9
		c0.5,0.1,1,0.1,1.5,0.2c0.5,3.7,1,7.5,1.5,11.7c-2.1-2.4-3.9-4.4-5.6-6.4C227.6,148.6,227.4,148.5,227.2,148.3z"/>
	<path fill="#FFFFFF" stroke="#000000" stroke-width="4.8642" stroke-miterlimit="10" d="M351.8,305.3c1.3,1,2.6,2.1,4,3.3
		c1.5-6.7,1.9-6.9,8.5-3.5c0.2-1.4,0.3-2.6,0.5-3.8c0.2-1,0.6-1.9,0.9-2.8c0.5,0.1,0.9,0.2,1.4,0.3c-0.5,2.3-0.8,4.6-1.6,6.8
		c-1.1,3-0.3,4.8,2.1,6.8c3.8,3.2,5.9,7.6,4.4,12.6c-6.7,21.5-14.4,42.6-27.1,61.3c-2.5,3.7-6.2,6.9-10,9.6
		c-8,5.8-14.9,12.3-18,22.1c-0.9,2.7-3,5.1-4.5,7.6c-9.7,16.5-19.5,33-29.2,49.5c-0.9,1.5-2,2.8-3,4.2c-0.5-0.2-1-0.3-1.4-0.5
		c0.4-4,0.8-7.9,1.1-11.9c0.9-10.1,0.8-20.1,5.4-29.9c2.7-5.7,1.3-13.1,2.6-19.5c2-10.2,4.8-20.2,7.1-30.3
		c2.6-11.8,5.4-23.6,7.2-35.5c1.1-7.2,4.8-11.8,10-16c1.4,2.7,2.8,5.4,4.5,8.5c1.6-3.5,3-6.5,5-11.1c0.6,4,1,6.5,1.4,8.9
		c0.3,0,0.6,0,0.9,0c0-3.8-0.1-7.6,0.1-11.4c0.1-1.7,0.2-4,1.3-5c3.2-3.1,6.9-5.8,11.1-9.1c0,2.1,0,3.3,0,6c1.9-4.1,3.1-6.8,4.3-9.5
		C344.3,310.5,348,307.9,351.8,305.3z"/>
	<path fill="#FFFFFF" stroke="#000000" stroke-width="4.8642" stroke-miterlimit="10" d="M281.3,314.9c0,2.9,0,5.9,0,8.9
		c0.5,0.1,1.1,0.2,1.6,0.3c1-5.6,2-11.2,2.9-16.8c0.2-0.1,0.5-0.2,0.7-0.3c0.3,1.5,1.1,3.3,0.7,4.6c-1.1,3.4-2.9,6.6,1.1,9.2
		c1.3-2.1,2.8-4.4,4.3-6.8c0.7,0.2,1.5,0.4,2.2,0.6c-0.1,3.4-0.8,6.9-0.3,10.2c0.6,4.2,2,8.2,3.3,12.3c3.2,10,0.3,19.7-1.7,29.2
		c-4,18.6-8.8,37.1-14.3,55.5c0.3-4.9,0-9.9,1.2-14.6c2.8-11-0.5-21.5-2.9-31.8c-3.4-14.5-3.3-29.2-4.5-43.9
		c-0.3-4.1,0.4-8.3,1.3-12.4C277.1,317.9,279.3,316.8,281.3,314.9z"/>
	<path fill="#FFFFFF" stroke="#000000" stroke-width="4.8642" stroke-miterlimit="10" d="M273,376.9c-4.2-4.3-8.5-7.8-11.8-12.2
		c-9.9-13.2-19.4-26.7-28.9-40.1c-2.1-3-4.5-6-5.6-9.4c-1.1-3.4-0.8-7.3-1.1-10.9c-0.4-4.8-0.8-9.7,0-14.8c0.8,4.3,1.6,8.6,2.5,13.4
		c0.6-2.5,1.1-4.7,1.6-6.9c0.3,0,0.5,0,0.8,0c0,2.6,0,5.3,0,8.7c1.1-2,1.9-3.3,3.4-6c11.4,17.4,22.5,34,33.4,50.9
		C273.6,359.3,273.4,359.5,273,376.9z"/>
	<path fill="#FFFFFF" stroke="#000000" stroke-width="4.8642" stroke-miterlimit="10" d="M254.1,285.9c0.7,2.9,1.4,5.6,2.2,8.7
		c1-1.4,1.6-2.2,2.6-3.6c0.7,2.6,1.2,4.4,1.6,6.2c0.3,0,0.6,0,0.9-0.1c0.2-1.9,0.4-3.8,0.7-7.3c1.1,3.9,2.2,6.4,2.5,8.9
		c0.4,3.6,0.7,6.7,4.7,8.6c1.1,0.5,1.3,4.2,1,6.3c-0.5,3.5,0.2,6.7,0.6,10.2c1.1,8.9,0.4,18,0.4,26.5c-3.8-6.1-8.2-12.7-12.1-19.5
		c-1.3-2.3-1.6-5.2-2.2-7.9c-2-9.6-4.2-19.1-5.9-28.7C250.4,291.2,249.5,287.2,254.1,285.9z"/>
	<path fill="#FFFFFF" stroke="#000000" stroke-width="4.8642" stroke-miterlimit="10" d="M242.5,308.8c-3.3-5.3-6.6-10.6-10.2-16.4
		c1.2-0.2,2.1-0.4,3.4-0.6c0-1.7,0-3.7,0-5.8c-1.3,1-2.4,1.9-4,3.2c-0.6-1.1-1.2-2.3-1.9-3.8c-0.4,1-0.8,1.8-1.2,2.8
		c-5.5-7.4-8.5-15.5-8.3-25.2c1.3,0.7,2.3,1.2,3.7,1.9c-1.1-2.8-2-4.9-3.2-7.7c6,1.2,11.5,1.6,13.1,7.9c3.1,12.1,5.9,24.3,8.8,36.5
		c0.5,2.1,0.6,4.3,0.9,6.5C243.3,308.3,242.9,308.5,242.5,308.8z"/>
	<path fill="#FFFFFF" stroke="#000000" stroke-width="4.8642" stroke-miterlimit="10" d="M245.8,295.3c0.1-2,0.2-4,0.4-7.1
		c1.5,1.6,3,2.5,3.2,3.7c1.9,8.7,3.6,17.4,5.3,26.1c0.3,1.6,0.3,3.3,0.5,6.5c-4.9-7.4-9.6-12.7-10.6-21c-1.8-14.9-4-29.8-11-43.5
		c-0.4-0.8-1.2-2-1-2.5c1.1-2.2,2.5-4.1,3.8-6.2c0.9,1.7,2,3.3,2.7,5.1c1.2,2.8,0,6.4,4.9,7.8c1.8,0.5,2.8,6.9,2.7,10.5
		c-0.2,4.8-2.1,9.6-2.8,14.4c-0.3,2,0.6,4.2,1,6.4C245.3,295.4,245.5,295.4,245.8,295.3z"/>
	<path fill="#FFFFFF" stroke="#000000" stroke-width="4.8642" stroke-miterlimit="10" d="M385,338.4c-1,2.3-1.4,5.2-3.1,6.9
		c-8,8.7-16.4,17-23.4,24.2c2.8-6.9,6.2-15.6,9.7-24.3c0.3-0.7,0.6-1.4,0.7-2.2c0.2-4.4,1.8-7.6,5.8-10c3.9-2.4,7.2-5.5,12.2-9.4
		C386.1,329.8,385.5,334.1,385,338.4L385,338.4z"/>
	<path fill="#FFFFFF" stroke="#000000" stroke-width="4.8642" stroke-miterlimit="10" d="M158.1,283c1-1.6,2.5-3.1,2.8-4.8
		c0.5-2.8,0.1-5.7,0.1-8.6c0.6-0.1,1.2-0.2,1.8-0.2c0.6,2.4,1.2,4.8,1.8,7.2c0.2,0,0.3-0.1,0.5-0.1c0-2.8,0-5.7,0-8.5
		c10.1,1.7,6.8,10.2,8.5,16.9c0.6-1.9,0.9-3,1.5-5c4.2,4.8-1.1,8.7,0.3,12.4c-5.6,1.8-9.2-0.2-11.4-5.2c-1.1,0.5-2.2,1-3.5,1.6
		c-0.8-2.2-1.4-4.1-2.1-5.9C158.2,282.8,158.1,283,158.1,283z"/>
	<path fill="#FFFFFF" stroke="#000000" stroke-width="4.8642" stroke-miterlimit="10" d="M351.8,305.3c-3.7,2.6-7.5,5.2-11.2,7.8
		c-0.6-4.4-1.9-8.8-1.5-13.2c0.2-3.4,2.4-6.7,4-10.7c2,4.7,3.4,7.9,5.1,11.7c0.3-1.3,0.4-2.2,0.7-3.6c1.1,1.5,2,2.8,3.7,4.9
		c0-3.8,0-6.4,0-10.6C355.6,297.5,355.2,301.5,351.8,305.3z"/>
	<path fill="#FFFFFF" stroke="#000000" stroke-width="4.8642" stroke-miterlimit="10" d="M385,338.4c0.9-3,2.3-5.9,2.7-9
		c0.7-5.1,1.5-6.5,7.6-11.8c1.5-1.3,2.1-3.7,3.2-5.6c0.7,0.1,1.4,0.2,2.1,0.4c0,2.4,0.8,5.2-0.2,7c-3.4,6.3-7.4,12.3-11.4,18.2
		C388.5,338.5,386.4,338.2,385,338.4C385,338.4,385,338.4,385,338.4z"/>
	<path fill="#FFFFFF" stroke="#000000" stroke-width="4.8642" stroke-miterlimit="10" d="M137.8,219.4c0-3.8,0-5.9,0-8.2
		c1.3,1.8,2.5,3.4,2.8,3.9c3.8-1,6.6-1.7,9.7-2.5c-3,5.1-5.8,9.7-8.8,14.8c-2.2-0.9-6.7,2.9-8-2.1c-0.9-3.4,0-7.3,0-11
		c0.5,0,1.1,0,1.6,0C135.9,215.4,136.5,216.7,137.8,219.4z"/>
	<path fill="#FFFFFF" stroke="#000000" stroke-width="4.8642" stroke-miterlimit="10" d="M377.8,315.2c0.4-5.6,0.6-9.1,1-12.6
		c0.4-3.4,1-6.7,2.6-10c0.9,2.4,1.9,4.9,3.3,8.6c1-3.8,1.8-6.6,2.6-9.5c0.8,3.9,3.2,4.1,6.3,1.3c0.4,0.4,0.7,0.9,1.1,1.3
		C389.3,301,383.9,307.6,377.8,315.2z"/>
	<path fill="#FFFFFF" stroke="#000000" stroke-width="4.8642" stroke-miterlimit="10" d="M382.2,319.8c-1.8,0.9-3.6,1.8-5.5,2.7
		c-0.4-2.9,8.3-14.3,16.6-21.5c0.9,3.3,1.7,6.3,2.5,9.3c-0.6,0.2-1.2,0.4-1.8,0.5c-0.2-0.6-0.4-1.1-0.6-1.7
		c-0.2-0.5-0.3-0.9-0.2-0.5c-2.1,2.5-4.4,5.3-6.8,8.1C385.1,317.8,383.7,318.8,382.2,319.8z"/>
	<path fill="#FFFFFF" stroke="#000000" stroke-width="4.8642" stroke-miterlimit="10" d="M514.8,246.3c-0.3,1.5-0.6,3.1-0.7,3.7
		c1.4,0.9,2.5,1.5,3.6,2.1c-1,0.6-2,1.2-2.9,1.7c1.9,4.5,4,9.3,6,14.1c-0.7,0.4-1.4,0.7-2.1,1.1c-2.5-3.1-5-6.2-7.8-9.5
		c-0.3,0.4-0.9,1.1-2.3,2.6c-0.8-2.8-1.4-4.9-2-7c0.3-0.1,0.5-0.2,0.8-0.3c0.3,0.6,0.6,1.2,1.5,2.9c1.6-4.6,3-8.4,4.4-12.2
		C513.9,245.8,514.3,246,514.8,246.3z"/>
	<path fill="#FFFFFF" stroke="#000000" stroke-width="4.8642" stroke-miterlimit="10" d="M151.2,184.3c0,6.5,0,12.9,0,19.7
		c0.6-0.5,1.4-1.2,2.3-1.9c0.5,1.8,1,3.3,1.2,4.9c0.3,1.8,0.4,3.6,0.6,5.4c-2-0.1-4.2,0.3-5.9-0.5c-1.2-0.6-2.3-2.9-2.2-4.3
		c0.6-7.8,1.5-15.6,2.3-23.4C150.1,184.2,150.6,184.3,151.2,184.3z"/>
	<path fill="#FFFFFF" stroke="#000000" stroke-width="4.8642" stroke-miterlimit="10" d="M468.6,222.1c-1.5-6.5-0.5-8.1,7.8-12.5
		c0,0-0.2-0.1-0.2-0.1c2.4,1,4.8,2,7.3,3c-4.1,4.4-7.9,8.6-11.3,12.4c-0.1-0.1-0.6-1.5-1.2-2.8C470.2,222.1,469.4,222.1,468.6,222.1
		z"/>
	<path fill="#FFFFFF" stroke="#000000" stroke-width="4.8642" stroke-miterlimit="10" d="M374.5,364.8c-3.6,2-7.2,4-10.8,6
		c-0.4-0.4-0.8-0.8-1.2-1.2c5.3-5.8,10.5-11.6,15.8-17.4c0.3,0.2,0.6,0.4,0.8,0.6c-1.6,4.1-3.3,8.2-4.9,12.2
		C374.3,365,374.5,364.8,374.5,364.8z"/>
	<path fill="#FFFFFF" stroke="#000000" stroke-width="4.8642" stroke-miterlimit="10" d="M473.3,319.8c0-7.5,0-14.3,0-22.1
		C479.6,305.6,479.5,310.1,473.3,319.8z"/>
	<path fill="#FFFFFF" stroke="#000000" stroke-width="4.8642" stroke-miterlimit="10" d="M478.9,316.7c0.4-4.4,0.6-8.9,1.2-13.3
		c0.3-1.9,1.4-3.6,3.1-5.2c-0.3,4.3-0.5,8.5-0.7,12c2,0.4,3.5,0.7,5.1,1.1c-0.5,6-4.7,5.6-8.9,5.2
		C478.7,316.5,478.9,316.7,478.9,316.7z"/>
	<path fill="#FFFFFF" stroke="#000000" stroke-width="4.8642" stroke-miterlimit="10" d="M498.7,268.4c2.1,5.3,3.5,9,5.3,13.7
		c-4.3-1-8.6,3.4-9.3-1.8C494.2,277.1,496.8,273.5,498.7,268.4z"/>
	<path fill="#FFFFFF" stroke="#000000" stroke-width="4.8642" stroke-miterlimit="10" d="M133,171.3c1.5-5.4,2.8-10.1,4.1-14.8
		c0.4,0,0.8,0,1.2,0c0,0.9-0.2,1.9,0.1,2.8c0.3,1.1,1.2,2.1,1.5,3.3c0.6,1.8,1.6,3.8,1.3,5.5c-0.2,0.9-2.8,1.3-4.3,1.9
		C135.9,170.4,134.8,170.7,133,171.3z"/>
	<path fill="#FFFFFF" stroke="#000000" stroke-width="4.8642" stroke-miterlimit="10" d="M410.8,187.9c-0.2-1.3-0.3-2-0.4-2.8
		c-0.8,0.9-1.5,1.9-3.1,3.7c-0.5-4.7-1-9.1-1.6-14.4C415.6,182.9,415.9,184,410.8,187.9z"/>
	<path fill="#FFFFFF" stroke="#000000" stroke-width="4.8642" stroke-miterlimit="10" d="M382.2,319.8c1.4-1,2.8-2,4.3-3
		c1-0.4,2.1-0.8,3.1-1.1c0.4,0.4,0.7,0.8,1.1,1.1c-5.4,5-10.9,10-16.3,15.1c-0.5-0.5-1.1-1-1.6-1.5
		C375.9,326.9,379.1,323.4,382.2,319.8z"/>
	<path fill="#FFFFFF" stroke="#000000" stroke-width="4.8642" stroke-miterlimit="10" d="M212.5,283.8c0.4,1.6,0.9,3.1,1.1,3.9
		c2,1.3,3.6,2.2,4.8,3.5c0.3,0.3-1.2,2.2-1.9,3.3c-0.4-0.7-0.8-1.4-1.1-2c-0.8,0.9-1.6,1.8-2.5,2.7c-0.8-0.8-1.8-1.6-2.5-2.5
		c-0.9-1.3-2-2.8-2.3-4.3c-0.2-0.7,1-1.9,1.8-2.7c0.8-0.8,1.8-1.3,2.7-1.9C212.6,283.7,212.5,283.8,212.5,283.8z"/>
	<path fill="#FFFFFF" stroke="#000000" stroke-width="4.8642" stroke-miterlimit="10" d="M183.7,270.4c3.5,4.2,2.4,6-6.3,10.3
		c-0.7-2.2-1.7-4.3-1.7-6.5c0-0.9,2.2-2.8,3-2.6c1.3,0.4,2.3,2,3.8,3.5C182.9,273.6,183.2,272.2,183.7,270.4z"/>
	<path fill="#FFFFFF" stroke="#000000" stroke-width="4.8642" stroke-miterlimit="10" d="M513.5,267c0.6,4.8,1.2,9.5,1.8,14.2
		c-0.4,0.1-0.8,0.2-1.2,0.3c-2-3.2-4.5-6.3-5.7-9.8C507.1,268.1,509.9,267.1,513.5,267z"/>
	<path fill="#FFFFFF" stroke="#000000" stroke-width="4.8642" stroke-miterlimit="10" d="M238.6,136.8c0.7,2.4,1.4,4.9,2.2,7.4
		c0.5-0.1,1-0.2,1.4-0.3c0.2-1.4,0.5-2.7,0.7-4.2c0.3,0.2,0.7,0.2,0.8,0.4c2.8,5.5-0.6,7-5,7.9C235.4,144.4,235.4,140.8,238.6,136.8
		z"/>
	<path fill="#FFFFFF" stroke="#000000" stroke-width="4.8642" stroke-miterlimit="10" d="M315.7,319.6c1.2,8.8-4.5,13.6-9,19.1
		c-0.4-0.2-0.9-0.4-1.3-0.7C308.7,332.2,312,326.2,315.7,319.6z"/>
	<path fill="#FFFFFF" stroke="#000000" stroke-width="4.8642" stroke-miterlimit="10" d="M242.8,149.9c-2.3,4.9-4.6,9.7-6.8,14.3
		C233.7,156.6,236.6,150.2,242.8,149.9z"/>
	<path fill="#FFFFFF" stroke="#000000" stroke-width="4.8642" stroke-miterlimit="10" d="M530.1,260.9c-0.2-0.5-0.3-1.1-0.6-1.6
		c-3.3-5.6-3.3-5.6,2-10.8c0.8,2.8,1.6,5.3,2,6.6C532,257.7,531,259.3,530.1,260.9C530,260.9,530.1,260.9,530.1,260.9z"/>
	<path fill="#FFFFFF" stroke="#000000" stroke-width="4.8642" stroke-miterlimit="10" d="M130.9,236.9c1.1,7.1,2.1,13.7,3.2,20.4
		C129.7,253.1,128,243.1,130.9,236.9z"/>
	<path fill="#FFFFFF" stroke="#000000" stroke-width="4.8642" stroke-miterlimit="10" d="M259,141.6c-0.1-1.2-0.2-2.5-0.3-3.9
		c-0.6,0.9-1.2,1.6-1.7,2.3c-0.6-0.2-1.2-0.4-1.8-0.7c0.5-1.9,0.6-4.2,1.8-5.7c0.6-0.8,3-0.3,4.6-0.3c-0.1,2.8-0.2,5.6-0.3,8.4
		C260.5,141.7,259.7,141.7,259,141.6z"/>
	<path fill="#FFFFFF" stroke="#000000" stroke-width="4.8642" stroke-miterlimit="10" d="M371.7,147.1c-4.2,2.6-8.3,5.1-12.2,7.5
		c0.6-1.4,0.9-5.4,2.7-6.1C364.9,147.4,368.1,142.9,371.7,147.1z"/>
	<path fill="#FFFFFF" stroke="#000000" stroke-width="4.8642" stroke-miterlimit="10" d="M371.3,182.6c0.5-3.3,1.1-6.7,1.6-10
		c0.3,0,0.6,0,1,0c0.3,0.9,0.7,1.8,1,2.8c0.9-0.5,1.6-1,2.4-1.4c0.4,0.2,0.9,0.5,1.3,0.7c-1.5,2.8-3,5.6-4.4,8.4
		C373.2,182.9,372.2,182.7,371.3,182.6z"/>
	<path fill="#FFFFFF" stroke="#000000" stroke-width="4.8642" stroke-miterlimit="10" d="M392.4,195.1c0-3.4,0-6,0-8.5
		c0.5-2.7,5.3,2.2,4.6-2.6c0.7,0,1.9,0.1,1.9,0.2c0.1,1.2,0.5,2.8-0.1,3.7C397,190.2,394.9,192.2,392.4,195.1z"/>
	<path fill="#FFFFFF" stroke="#000000" stroke-width="4.8642" stroke-miterlimit="10" d="M228.1,182.2c-2-2.6-3.8-5-6.3-8.3
		c2.3-0.9,4.5-1.7,7.3-2.8C228.8,174.7,228.5,178.5,228.1,182.2z"/>
	<path fill="#FFFFFF" stroke="#000000" stroke-width="4.8642" stroke-miterlimit="10" d="M154.1,251.6c-0.3,0.5-1,1.7-2.8,4.8
		c-2.3-6-4.1-10.7-5.9-15.4c0.3-0.2,0.7-0.3,1-0.5C148.8,244,151.2,247.5,154.1,251.6z"/>
	<path fill="#FFFFFF" stroke="#000000" stroke-width="4.8642" stroke-miterlimit="10" d="M540.5,285.1c0.6,4.1,1.2,8.1,2,13.1
		c-2.6-1.1-4.2-1.7-4.9-2c0.4-3.8,0.7-7.2,1-10.7C539.3,285.4,539.9,285.2,540.5,285.1z"/>
	<path fill="#FFFFFF" stroke="#000000" stroke-width="4.8642" stroke-miterlimit="10" d="M420.3,181.1c1,2.8,2.1,5.1,2.8,7.6
		c0.3,1.1-0.5,2.4-0.8,3.6c-0.9-0.6-2.4-1.1-2.7-1.9C418.5,187.1,415.4,183.3,420.3,181.1z"/>
	<path fill="#FFFFFF" stroke="#000000" stroke-width="4.8642" stroke-miterlimit="10" d="M317.1,277.1c-0.5,1.3-1,2.6-1.6,4.2
		c1.4-0.3,2.2-0.5,3.7-0.9c-1,1.2-1.5,1.9-2.5,3.1c1.7,0.3,3.1,0.6,4.8,0.9c-0.7,1-1.4,2.6-1.9,2.5c-2-0.3-5.4-1-5.5-1.8
		c-0.2-2.8,0.7-5.7,1.2-8.5C316,276.8,316.6,277,317.1,277.1z"/>
	<path fill="#FFFFFF" stroke="#000000" stroke-width="4.8642" stroke-miterlimit="10" d="M379.8,178.8c2.8,4.2,3.5,7.2-1.3,8.5
		c-1.1,0.3-2.4-0.2-3.7-0.3C376.3,184.4,377.9,181.8,379.8,178.8z"/>
	<path fill="#FFFFFF" stroke="#000000" stroke-width="4.8642" stroke-miterlimit="10" d="M223.3,315.7c-2.4-4.6-4.9-9.2-7.3-13.8
		c0.8-0.4,1.6-0.8,2.3-1.2c2.3,4.7,4.6,9.4,6.9,14.1C224.6,315.1,224,315.4,223.3,315.7z"/>
	<path fill="#FFFFFF" stroke="#000000" stroke-width="4.8642" stroke-miterlimit="10" d="M448.4,320c3.3-4.3-3.4-11.1,5.1-15
		c-1.3,5.8-2.4,10.8-3.4,15.7C449.6,320.5,449,320.2,448.4,320z"/>
	<path fill="#FFFFFF" stroke="#000000" stroke-width="4.8642" stroke-miterlimit="10" d="M468.6,222.1c0.8,0,1.6,0,2.4,0
		c-1,4.1-2,8.2-3,12.3c-0.8-0.2-1.5-0.4-2.3-0.5C466.7,230,467.7,226,468.6,222.1z"/>
	<path fill="#FFFFFF" stroke="#000000" stroke-width="4.8642" stroke-miterlimit="10" d="M205.5,277.9c1.7-1.9,3.4-3.8,5.1-5.7
		c0.6,1.5,2.2,3.6,1.7,4.4c-1.1,1.6-3.2,2.6-4.9,3.8C206.8,279.5,206.1,278.7,205.5,277.9z"/>
	<path fill="#FFFFFF" stroke="#000000" stroke-width="4.8642" stroke-miterlimit="10" d="M394.4,180.9c-4.5-1.3-5.5-7.8-1.7-13.3
		C393.3,172.3,393.9,176.5,394.4,180.9z"/>
	<path fill="#FFFFFF" stroke="#000000" stroke-width="4.8642" stroke-miterlimit="10" d="M485.3,258.1c1.6-2,3.2-4,4.8-6
		c0.6,0.2,1.2,0.4,1.8,0.5c-0.2,1.9,0.2,4.3-0.7,5.7c-0.7,1.1-3.2,1-4.9,1.4C485.9,259.2,485.6,258.6,485.3,258.1z"/>
	<path fill="#FFFFFF" stroke="#000000" stroke-width="4.8642" stroke-miterlimit="10" d="M164.6,153.5c-3.3,2-6.6,3.9-9.9,5.9
		c-0.2-0.2-0.4-0.4-0.6-0.6c1.7-2.4,3.1-5.1,5.2-6.9c1-0.8,3.5,0.1,5.4,0.3C164.7,152.6,164.6,153,164.6,153.5z"/>
	<path fill="#FFFFFF" stroke="#000000" stroke-width="4.8642" stroke-miterlimit="10" d="M309.6,127.8c3.8,2.6,6.5,4.4,9.4,6.4
		c-2.3,2.1-3.9,3.5-5,4.5C312.7,135.5,311.4,132.3,309.6,127.8z"/>
	<path fill="#FFFFFF" stroke="#000000" stroke-width="4.8642" stroke-miterlimit="10" d="M219.1,279.8c2,2.2,3.9,4.5,6.7,7.6
		c-2.6,0.5-5.4,1.3-5.6,0.9c-1.3-2.6-1.9-5.4-2.8-8.2C217.9,280,218.5,279.9,219.1,279.8z"/>
	<path fill="#FFFFFF" stroke="#000000" stroke-width="4.8642" stroke-miterlimit="10" d="M362.3,180c1.8-2.6,3-4.4,4.3-6.3
		c5,3.7,1.7,6.2-1.4,9.9C364,182.2,363,180.9,362.3,180z"/>
	<path fill="#FFFFFF" stroke="#000000" stroke-width="4.8642" stroke-miterlimit="10" d="M320.1,297c-1.8,0.7-3.8,1.4-6.7,2.6
		c0.7-4.3,1.2-7.1,1.7-10C316.5,291.6,317.9,293.7,320.1,297z"/>
	<path fill="#FFFFFF" stroke="#000000" stroke-width="4.8642" stroke-miterlimit="10" d="M212.5,283.8c0,0,0.2-0.1,0.2-0.1
		c-1.8-0.2-3.6-0.4-6-0.7c3.5-1.8,6.2-3.1,9.3-4.7c0.2,1.2,0.7,3.3,1.3,6.1C215.2,284.1,213.8,283.9,212.5,283.8z"/>
	<path fill="#FFFFFF" stroke="#000000" stroke-width="4.8642" stroke-miterlimit="10" d="M325.5,277.9c2.1-2.7,3.9-4.9,5.7-7.2
		c0.4,0.2,0.7,0.4,1.1,0.5c-1.7,3.9-3.4,7.8-5.6,12.9C326,280.8,325.7,278.9,325.5,277.9z"/>
	<path fill="#FFFFFF" stroke="#000000" stroke-width="4.8642" stroke-miterlimit="10" d="M440.8,268.3c0.7,2.5,1.5,5,2,7.5
		c0.2,1-0.5,2.2-1,3.2c-0.2,0.3-1.7,0.4-1.8,0.2c-0.5-1-1.2-2.2-1.1-3.3c0.2-2.6,0.8-5.1,1.2-7.7
		C440.2,268.2,440.5,268.3,440.8,268.3z"/>
	<path fill="#FFFFFF" stroke="#000000" stroke-width="4.8642" stroke-miterlimit="10" d="M375.3,310.5c0-3.8,0-7.7,0-11.3
		c-0.9,0.3-1.7,0.5-2.4,0.7c-0.1-1.2-0.2-2.4-0.3-3.6c1,0,2.7-0.4,2.9,0c0.8,1.6,1.5,3.4,1.6,5.1c0.1,3.1-0.4,6.2-0.6,9.2
		C376.1,310.7,375.7,310.6,375.3,310.5z"/>
	<path fill="#FFFFFF" stroke="#000000" stroke-width="4.8642" stroke-miterlimit="10" d="M447,325.9c-1.2-3.6-2.4-7.2-3.8-11.1
		c1.9,0.1,2.9,0.2,2.9,0.2c1.2,3.8,2.3,7.1,3.3,10.3C448.6,325.5,447.8,325.7,447,325.9z"/>
	<path fill="#FFFFFF" stroke="#000000" stroke-width="4.8642" stroke-miterlimit="10" d="M508.9,296.3c0.6-3.3,1.2-6.7,1.8-10.3
		C514.3,288.2,514.3,288.2,508.9,296.3z"/>
	<path fill="#FFFFFF" stroke="#000000" stroke-width="4.8642" stroke-miterlimit="10" d="M274.8,242.9c-1.9,0-2.7,0-4.1,0
		c0.8,1.4,1.5,2.4,2.1,3.4c-0.3,0.1-0.8,0.4-0.9,0.4c-2.1-3.2-4.1-6.4-6.1-9.7c0.4-0.3,0.9-0.7,1.3-1
		C269.6,238.1,271.8,240.1,274.8,242.9z"/>
	<path fill="#FFFFFF" stroke="#000000" stroke-width="4.8642" stroke-miterlimit="10" d="M212.7,231.7c-0.3,3.6-0.6,7.2-1.1,12.2
		c-5.2-5.6-0.5-8.8-0.6-12.4C211.6,231.6,212.1,231.6,212.7,231.7z"/>
	<path fill="#FFFFFF" stroke="#000000" stroke-width="4.8642" stroke-miterlimit="10" d="M361.5,193.8c1.6-2.4,3-4.6,4.4-6.7
		c0.4,0.6,0.8,1.1,1.2,1.7c0,3.1,0,6.2,0,9.8C365,196.8,363.4,195.5,361.5,193.8z"/>
	<path fill="#FFFFFF" stroke="#000000" stroke-width="4.8642" stroke-miterlimit="10" d="M267.8,139.4c-1.7-2.2-2.6-3.3-2.9-3.7
		c1.2-2.7,2.2-4.9,3.2-7c0.7,0.2,1.4,0.4,2.1,0.6C269.5,132.2,268.8,135.3,267.8,139.4z"/>
	<path fill="#FFFFFF" stroke="#000000" stroke-width="4.8642" stroke-miterlimit="10" d="M219.5,301.5c-0.4-1.9-1.4-3.9-1.1-5.8
		c0.2-1.8,1.7-3.4,3.2-5.9c0,4.3,0,7.9,0,11.5C220.9,301.4,220.2,301.5,219.5,301.5z"/>
	<path fill="#FFFFFF" stroke="#000000" stroke-width="4.8642" stroke-miterlimit="10" d="M456,336.6c-0.8-1.9-1.4-3.3-2.2-5.2
		c1.7,0.6,2.9,1.1,3.5,1.3c0.2-1.3,0.7-3.6,1.2-6.5C462,330.7,461.5,332.5,456,336.6z"/>
</g>
</svg>
