<?xml version="1.0" encoding="utf-8"?>
<!-- Generator: Adobe Illustrator 19.1.0, SVG Export Plug-In . SVG Version: 6.00 Build 0)  -->
<svg version="1.1" id="Layer_1" xmlns="http://www.w3.org/2000/svg" xmlns:xlink="http://www.w3.org/1999/xlink" x="0px" y="0px"
	 viewBox="-122 -123.6 595.3 841.9" style="enable-background:new -122 -123.6 595.3 841.9;" xml:space="preserve">
<style type="text/css">
	.st0{fill:none;stroke:#FFFFFF;stroke-width:4.8642;stroke-miterlimit:10;}
</style>
<g>
	<path class="st0" d="M133.4,0.6c-0.1-0.4-0.2-0.8-0.3-1.2c-0.9-1.6-1.8-3.2-2.8-4.8c-1.3-2.1-2.7-4.2-4.6-7
		c-5.4-0.5-9,1.2-10.9,5.8c1,0.5,2,1,1.5,0.7c-1.8,7.5-3.3,14.2-4.8,20.8c-0.3,0-0.6-0.1-0.9-0.1c0.2-2.9,0.5-5.9,0.7-8.8
		c-0.4-0.1-0.8-0.1-1.1-0.2c-1.6,3.7-3.1,7.4-5,11.7c1.3-0.6,2.3-1.1,3.2-1.5c0.3,0.3,0.5,0.6,0.8,0.9c-2.6,2.8-5.2,5.6-7.8,8.3
		c0.2,0.2,0.4,0.4,0.7,0.5c1.1-0.4,2.1-0.8,3.2-1.2c0.2,0.2,0.4,0.4,0.6,0.5c1.5,3.6,2.9,7.3,4.4,10.9c-1,0.7-1.9,1.3-2.9,2
		c-1-2.3-2-4.6-3-6.9c-0.5,0.4-1.1,0.8-1.6,1.3c0,2.1,0,4.2,0,6.3c-0.5,0-0.9,0.1-1.4,0.1c-0.4-1.4-0.9-2.9-1.4-4.6
		c-1.5,0.6-2.6,1.1-3.7,1.6c-0.4-1.2-0.9-2.5-1.3-3.7c-1.1-2-2.1-3.9-3.2-5.9c-1.1-1.6-2.2-3.2-3.1-4.7c1.8-1.6,4.7-2.9,5-4.7
		c1-5.2,4.2-6,9.3-5.3c-3.8-3.2-6.6-2-8.9,0.5c-1.7,1.8-2.5,4.8-4.5,6.2c-6,4.4-2.2,6.3,1.7,8.4c-0.3,5.9-5.9,3.8-8.7,6.1
		c-1.4-3.6-2.7-7.1-4-10.5c1.1,5.5-10.7,1.8-6.1,9.6c-6.8-2.2-7.2-3.5-3.4-8.9c-1.2-1.9-2.3-3.7-3.5-5.6c0.3-1.4,0.5-2.7,1.1-5.3
		c-3.4,4.1-6,7.2-8.7,10.3c-1.1-1.4-2.4-3.1-3.9-4.9c-3.5,7.9,7.1,9.2,6.9,15c-5-1.3-9.5-2.4-13.8-3.8c-4.4-1.4-8.7-3.2-13.7-5
		c2.5-2.2,4.8-4.3,7.2-6.4c-2.5,0.6-4.2,2.1-6.1,2.9c-3.5,1.5-3.5,4.6-3.6,7.4c-0.3,7-1.7,13.6-5.6,18.4c1.4,2.1,2.7,4.1,4,6
		c-0.4,0.3-0.9,0.7-1.3,1c-1.2-0.9-2.3-1.8-3.5-2.6c-0.4,1.3-0.7,2-0.9,2.8c-0.5-0.1-0.9-0.1-1.4-0.2c0.4-4,0.9-7.9,1.3-11.9
		c-1,0.1-2.4,0.3-2.5,0.2c-1.5-6.1,5.5-5.3,6.8-9.8C25,32.5,22.1,33.8,19,35c-0.4-1.5-0.9-3-1.3-4.5c-0.8-0.1-1.5-0.3-1.9-0.1
		c-2.8,1.3-5.5,2.6-8.3,4c4.7,3.7,3.4,12.5-3.5,21.4c0.5-2.6,0.7-4.6,1.2-6.5c0.6-2,1.4-3.9,2-5.3c-3,0.3-5.6,0.5-8.9,0.8
		c1.1-2,1.7-3.2,2.5-4.7c-6.5,1.9-9.7,9.5-8.6,20c0.5-1.9,0.9-3.3,1.6-5.6c1,1.6,1.4,2.4,2,3.3c1.6-9.5,2.5-10.9,7.8-10.5
		c-1.3,8.6-2.5,17.2-3.7,25C2.9,65.9,6.2,59,9.5,52c0,11.4,0,11.4,3,12.9c0.7-2.8,1.4-5.6,2.4-9.6c1.3,3.5,2.2,5.8,3.1,8.1
		c0.5-1.2,1-2.1,1.4-3c0.5,0.4,0.9,0.7,1.4,1.1c0,2.2,0,4.3,0,6.5c-0.4-0.4-0.9-0.7-1.3-1.1c-2.2,2.1-5.3,3.8-6.4,6.4
		c-1.6,3.8-1.7,8.1-2.4,12.3c-0.6,3.3-1.1,6.6-1.6,9.9c-0.5-0.1-0.9-0.2-1.4-0.3c-0.2-2.3-0.4-4.7-0.6-7C5.5,89.3,5,90.5,5,91.6
		c0,4.3,0.1,8.6,0.2,13c-1.8-4.2-3.6-8.3-5.2-12c-2.6,5.4-1.4,9.2,5,13.8c-0.8,0.7-1.6,1.8-2.5,1.9c-3.9,0.4-7.9,0.5-12.2,0.7
		c0-1.6,0-4,0-6.3c-0.4,0.3-0.8,0.6-1.2,0.9c-1.6-1.4-3.3-2.9-5.1-4.5c0.6,2.6,2.3,5.5,1.5,7.5c-3.6,9.5,1,17,5.1,25.7
		c0-3.9,0-6.9,0-10c0.3,0,0.6,0,0.9,0.1c0.2,2,0.4,3.9,0.6,5.9c0.2,0,0.4,0,0.6-0.1c0.2-1.8,0.4-3.7,0.6-5.5c0.4,0,0.9-0.1,1.3-0.1
		c1.3,4.6,2.5,9.2,3.8,13.7c1.4-7.8-2.3-16.9,5.6-22.5c1.4,7.7,2.7,15.2,4,22.7c-0.5,0.1-1.1,0.2-1.6,0.3c-0.8-3.5-1.6-7-2.6-11
		c-2.4,6.8,0.6,24.7,5,28.7c-1-2.3-1.7-4-1.9-4.4c2.5-1.6,4.5-2.8,6.2-3.9c-1.3-0.8-3.3-2-3.3-2.2c1.3-2.7,2.8-5.2,4.8-8.5
		c1.3,3.9,2.1,6.5,2.8,8.7c-1.3,2-3,3.6-3.4,5.5c-1.3,5.4-1.4,10.8,2,15.6c0.5,1.9,0.8,4,1.7,5.7c1,1.8,2.5,3.4,3.9,5.2
		c0-8.5,0-15.8,0-22.9c-0.3,0.4-1.2,1.4-1.7,2.6c-1.4,3.1-2.6,6.3-3.9,9.4c-0.2-1.6-0.3-3.2-0.5-4.8c-1-5.7,2.1-12.1,6.6-13.3
		c-0.7-0.8-1.4-1.5-2.3-2.5c1.8-0.6,3.3-1.2,6-2.1c-0.8,6.1-1.4,11.1-2.2,16.1c-0.9,6,1.2,10.2,6.1,11.7c-5.1-6-5.7-8.8-3.2-13
		c1.5,0.6,3.2,1.9,4.3,1.6c2-0.7,3.6-2.4,5.6-3.9c0,1.1,0,2.7,0,4.2l0.2-0.2c-0.5,0.9-1.3,1.7-1.5,2.6c-0.4,2.7-0.6,5.5-0.8,8.2
		c2,0.7,4.1,2.5,3.7,3.4c-2.2,6.7,0.7,14.6-4.5,20.6c-1.3-0.6-3.4-1-3.8-2c-1.2-2.7-1.6-5.8-2.4-8.7c-0.4,0.1-0.9,0.2-1.3,0.3
		c1.2,5.2,2.4,10.3,3.6,16c1.2-1.7,2.5-3.7,3.8-5.7c0.6,1.1,1.2,2.2,1.8,3.3c1-2.2,2-4.4,3.2-7c1.5,2.9,2.7,5.2,3.9,7.5
		c0.4-6.2-2.9-13.1,6.2-15c1.6,3.1,3.1,6.1,4.7,9.1c0.2-0.1,0.5-0.2,0.7-0.3c-0.5-4.4-1-8.9-1.6-13.3c0.2,0,0.5,0.1,0.7,0.1
		c2.7,5.1,5.4,10.1,7.5,14.2c-1.3-8-2.7-16.6-4-25.3c0.9-1.1,2.1-2.5,3.1-3.8c0.9,3.1,1.8,6,2.5,8.5c1.4-2.6,3.1-6.9,3.9-6.7
		c4.9,0.8,7.4-1.8,9.4-6.2c0.6,3.8,1,6.7,1.5,9.5c2.8-0.8,4.8-1.5,7.3-2.2c0.4,1.6,0.8,3.1,1.3,5.1c-3.9,0.7-7.7,0.4-10.4,2.1
		c-2.4,1.5-6.1,3.6-4.9,8.1c0.9,3.2,1.3,6.4,1.9,9.7c-0.4-9.9,1.2-16.6,5.7-17.5c1.8-0.3,4,0.9,6,1.4c0,0.6,0,1.1,0,1.7
		c1.7-1.4,3.3-2.7,4.8-3.9c1.9,3.3,4.1,7.6,6.7,11.6c7,10.6,14.3,21.2,21.4,31.7c0.3,0.4,0.8,0.7,1.2,1.1
		c4.6,5.6,9.3,11.1,13.8,16.7c5.5,6.8,10.9,13.6,16.2,20.5c1.1,1.4,2.3,3.1,2.6,4.8c1.6,11.6,4,23.2,4.2,34.8c0.3,14-1.1,28-2.1,42
		c-0.6,8.5-1.6,17.1-2.7,25.6c-1.2,9.7-3.2,19.3-4,29c-1,13.2-1,26.5-1.7,39.8c-0.9,16.4-2.3,32.9-3,49.3
		c-0.5,13.9-0.3,27.9-0.5,41.8c0,1-1.2,2-1.6,3.1c-0.8,2.7-1.9,5.4-2,8.1c-0.2,10.8-0.1,21.6-0.1,32.6c7.1,0,13.6,0,19.2,0
		c-1.9-16.5-4-32.5-5.4-48.6c-0.7-8,0.2-16,0.3-24.1c0.1-12.2-0.2-24.3,0.2-36.5c0.3-9.6,0.3-19.3,4.3-27.7
		c-1.7-1.7-3.1-3.5-3.2-5.4c-0.3-3.9-0.1-7.8,0.4-11.6c1.7-13.6,1.3-28.2,6.1-40.6c7.5-19.2,18.5-37.1,28.6-55.2
		c4.2-7.5,10.3-14.1,15.1-21.3c13.7-20.4,29.9-38,52.4-48.9c1-0.5,1.5-2.2,2.2-3.4c9.2-10.8,18.5-21.7,27.7-32.5
		c5.6-2.6,9-7.3,11.5-13.2c0.9,2.6,1.6,4.5,2.4,6.7c-3,2.5-6.4,5.3-9.7,8.1c0.1,0.3,0.3,0.5,0.4,0.8c3.7-1.8,7.3-3.5,11.3-5.5
		c-0.7,5.8-1.3,11.4-2,17.1c6.3-4.9,5.4,4.7,9,4.6c3.9-3.5,7.6-6.9,12.1-10.9c1.2,2.5,2.4,5.2,3.6,7.6c2-2.8,4.8-6.5,7.6-10.4
		c4.8,2.5,0.9,7.4,1.4,12.1c1.5-1.2,2.4-2.1,3.7-3.1c0.3,3,0.5,5.6,0.7,8.1c0.6,0,1.2-0.1,1.8-0.1c-0.2-5.4-0.7-10.8-0.3-16.1
		c0.1-1.7-0.4-5.9,4.1-5.2c0.6,0.1,1.5-1.4,2.1-2.2c2.4-3.4,4.8-6.9,7.1-10.3c0.4,0.3,0.9,0.6,1.3,1c-0.2,1.6-0.4,3.2-0.5,4.9
		c1.6-2.5,6.1-4.2,2.5-7.9c-0.2-0.2,1.2-1.8,1.9-2.8l-0.2-0.2c0.9,5.5,2,10.9,2.6,16.4c0.2,2.5-0.7,5-1.3,8.9
		c3.4-3.7,6.1-6.5,8.9-9.5c0.2,2.4,0.4,4.4,0.5,6.5c0.4,0,0.7,0,1.1-0.1c0.8-2,1.5-3.9,2.3-6c1.1,1.2,2,2.2,2.9,3.2
		c0.2-0.2,0.5-0.4,0.7-0.6c-0.6-1.6-1.2-3.2-2.2-5.8c2,1.5,3.1,2.4,4.2,3.2c0.4-0.2,0.7-0.4,1.1-0.6c-1.1-3-2.1-6-3.3-9.4
		c1.3-1.7,3-3.9,4.6-6c0.2,0.1,0.4,0.2,0.6,0.3c-0.7,2.6-1.3,5.1-2,7.7c0.2,0.1,0.5,0.2,0.7,0.2c0.9-1.7,1.8-3.4,2.7-5.3
		c0.6,0.9,0.9,1.5,1.4,2.2c1-2.8,1.8-5.1,2.6-7.4c0.4,0.2,0.9,0.3,1.3,0.5c-0.4,1.9-0.8,3.8-1.1,5.7c0.2,0.1,0.5,0.1,0.7,0.2
		c1.2-3,2.4-5.9,3.5-8.9c0.4,0.1,0.8,0.3,1.2,0.4c-0.4,2-0.7,4.1-1.1,6.1c0.9-0.1,1.5-0.2,2.4-0.3c-1.2,2.9-2.2,5.3-3.2,7.6
		c0.3,0.1,0.5,0.2,0.8,0.3c3.3-5.3,6.7-10.6,9.5-15.2c0,2.8,0,6.8,0,10.7c1.8-0.3,4.2,0,5.1-1c1.9-2.1,4.1-5,4.1-7.5
		s-1.3-2.8,0.7-3.9c4-2.3,5.1-5.4,3.9-9.7c-0.2-0.6,0.6-1.5,0.9-2.3c0.5,0,1-0.1,1.5-0.1c0.4,1.7,0.8,3.3,1.2,5
		c-0.7,1.7-1.3,3.4-2,5.1c-0.4,1.7-1.1,3.4-1.1,5.1c0.1,5.1,0.5,10.2,0.8,15.3c1.1-5,6.5-7.4,6.4-14c-0.1-6.2-1.5-13.8,4.7-18.9
		c0.6-0.5,0.1-2,0.6-2.6c2.8-3,1.2-6.5,0-9c-1-2.1-4.4-3-6.7-4.4c-0.5,0.6-1,1.3-1.5,1.9c1.3,0.5,2.7,1.1,5.1,2
		c-4.2,0.6-6.3,1-8.5,1.3c-0.1-0.3-0.3-1.2-0.6-2.1c-0.4,0-0.8,0-1.1,0.1c0,4.9,0,9.9,0,14.8c-0.9,0-1.7,0.1-2.6,0.1
		c-0.2-3.5-0.4-7.1-0.6-10.6c-0.4,0.1-0.9,0.1-1.3,0.2c-0.5,1.4-0.9,2.8-1.9,5.5c-1.6-2.9-2.5-4.6-3.5-6.4c2.9-0.6,4.9-1.1,6.9-1.5
		c0-0.2-0.1-0.4-0.1-0.6c-3.2,0.2-6.4,0.4-11.3,0.8c3.2-5.1,5.5-8.8,7.8-12.5c0.4,0.2,0.9,0.5,1.3,0.7c-1.1,2.3-2.2,4.7-3.2,6.9
		c1.3,0.2,2.8,0.4,4.1,0.6c0-6.3,0-12.6,0-19l-0.1,0.1c1.7-1.8,4.7-3.5,4.8-5.3c0-4.7-1-9.5-2.1-14.1c-0.5-2.2-3.5-4.5-3-6
		c1.4-3.9-1-5.7-2.8-8.1c-0.3-0.5-0.2-1.3-0.4-2.7c4,1.8,7.2,3.4,10.6,4.9c0.2-4.5-3.4-4.7-6.3-5.4c-6-1.5-11.9-2.5-15.3-8.9
		c-1.6-3-5.1-5-7.7-7.4c-0.4,0.4-0.8,0.7-1.2,1.1c1.4,2,2.8,4.1,4.3,6.3c-3-1-5.2-1.7-7.5-2.4c-0.5-1-1.2-2-1.4-3
		c-0.5-2.9-0.8-5.7-1.1-8.6c-0.8,0-1.5-0.1-2.3-0.1c2.9,4,1.1,5.3-1.8,5.5c1.3,2.4,2.5,4.6,3.6,6.9c1,2.2,2.2,2.5,4,0.8
		c1.1,1.2,2.1,2.5,3.3,3.8c-6.1,1.3-9.3-2.4-12.3-6.7c2,5.5,0.3,7.1-7,6.9c-0.9-2-1.7-4-2.6-6c0.3-0.3,0.7-0.7,1-1
		c1.8,1.3,3.5,2.6,5.9,4.3c-0.6-3.4-1-6.4-1.5-9.4c-0.6,0.1-1.2,0.2-1.9,0.3c0.1,1.2,0.3,2.4,0.4,3.5c-3.3-0.4-6.5-0.7-10-1.1
		c0.5-2.3,0.9-3.8,1.3-5.8c-1.9,2.4-3.4,4.3-4.9,6.2l0.2,0.1c-6-3.4-6.3,3.7-9.6,5.6c-0.7-1.2-1.2-2.3-1.9-3.1
		c-3-3.3-4.7-8.8-11-6.6c-0.2,0.1-2-2.9-1.7-3.3c3.2-4-0.6-5.8-2.6-7.7c-2.5-2.3-5.5-4-8.3-6c-0.3-0.2-0.3-0.9-0.6-1.8
		c1.4,0.5,2.4,0.8,3.8,1.3c-0.6-1.5-1.1-2.7-2.6-6.2c-4.2,4-7.5,7-10.7,10.1c0.4,0.5,0.9,0.9,1.3,1.4c-0.9-2.7-1.7-5.4-2.7-8.5
		c1.9,0.9,3.4,1.6,5,2.4c0.2-0.3,0.3-0.6,0.5-0.9c-2.4-1.8-4.7-3.7-7.1-5.5c0.4-0.7,0.9-1.4,1.3-2.1c2.1,0.9,4.2,1.7,6.3,2.6
		c-0.9-2.7-2.2-5.6-4.2-6.2c-5.2-1.7-10.1-0.4-12.9,3c-3.1-1.9-5.7-3.6-8.3-5.2c0.4-0.5,1.3-1.6,3.3-3.9c-3.3,1.1-5,1.9-6.7,2.1
		c-0.5,0.1-1.2-1.6-1.8-2.6c2.1-1.8,3.5-5.8,7.5-0.9c0.1-0.7,0.2-1.5,0.3-2.2c-1.8-1.1-3.6-2.2-5.6-3.4c1.1-11.4,0.8-11.9-5.6-11.3
		c-0.5,1.6-1.7,3.3-1.3,4.5c1.4,4.6,3.2,9,4.9,13.4c-2.4-2.4-4.3-6-7.2-7.1c-6.2-2.3-6.6-2.2-4.7-8.7c-3.2-2.9-6.3-5.7-9.7-8.8
		c0.2-0.4,0.5-1.5,0.8-2.2c-2.8,0.4-5.4,0.8-9.1,1.3c2.8-3.5,4.8-6,7-8.7c-2.7,0.1-5,0.3-8.5,0.4c2-2.3,3-3.5,4.1-4.8
		c-1.3-1-2.3-1.7-2.9-2.3c-1.2,4.3-2.4,8.5-3.6,12.6c0.4-0.2,0.9-0.5,1.3-0.7c0.6,1.3,1.2,2.7,1.9,4.5c-8.1,0.8-8.7-6.1-12.3-8.8
		c1.5-1.1,2.8-2,4.1-3c-0.2-0.4-0.4-0.9-0.6-1.3c-1.5,0.4-3,0.9-4.8,1.4c0.1-1.7,0.1-3.2,0.2-5.2c-5.8,3.5-10.4,1.2-14.7-3.5
		c-2.4,3-4.5,5.7-6.9,8.9c-1.4-4.1-2.5-7.1-3.7-10.3c1,0,1.6,0,3,0c-2.7-3.3-4.9-5.9-7.6-9.1c-1.2,4.2-2,6.8-2.7,9.4
		c-0.5,0-1.1-0.1-1.6-0.1c-0.2-2.6-0.5-5.3-0.9-9.6c-3.6,2.6-6.6,4.9-9.7,7.1c-0.2-0.3-0.4-0.5-0.7-0.8c1-1.2,2-2.4,3.1-3.7
		c-2.7,0.7-5,1.4-8.2,2.3c-0.1,0.1-0.6,1.6-1.6,2.7c-0.3,0.3-2.3-0.2-2.7-0.8c-2-3.5-3.8-7.1-6.1-11.7c-2.6,0-6.5-0.4-10.3,0.1
		c-3.4,0.4-7.3,1-7.1,6.1c0.1,1.3-0.1,2.6-0.2,3.9c-2.5-1.6-4.7-3-7.7-5c-1-5.7-2.3-6.5-8.3-3c-5.1,3-9.6,4.8-13.6-2.2
		c-0.4,0.5-0.8,1-1.3,1.4c1.8,4,3.6,8.1,5.4,12.1C134.8-1.1,134.1-0.3,133.4,0.6z M-18.7,76.1c-2.4-3.2-6-4.4-8.2-0.9
		c-1.8,2.8-1.4,7-2.2,11.3c1.7-0.9,3.4-1.8,6.4-3.4c-6.3,7.1-8.8,14.6-9.6,23c1.8-1.1,3.1-1.8,4.4-2.6c-0.5-0.2-0.9-0.4-1.4-0.6
		c2-5.8,4-11.6,6.2-17.3c0,0,1.2,0.4,1.8,0.6c0,5.2,0,10.3,0,15.7c0.8-0.2,1.8-0.1,2.1-0.5c2-2.9,3.8-5.9,5.6-8.9
		c0.3-0.5-0.3-1.4-0.3-2.1c-0.3-4.1-0.5-8.2-0.8-13.1C-15.3,77.1-17,76.6-18.7,76.1z M-19.9,111.6c0.2,4.7,0.5,9.4,0.7,14.1
		c0.3-0.1,0.6-0.1,0.9-0.2c0-6.9,0-13.8,0-20.7c-0.7-0.2-1.5-0.4-2.2-0.6c-1.9,4.5-3.7,9.1-5.6,13.6c0.8,0.4,1.7,0.8,2.5,1.2
		C-22.4,116.7-21.2,114.3-19.9,111.6z"/>
	<path class="st0" d="M15.7,165.4c-3.4-4.9-3.3-10.3-1.9-15.6c0.5-1.9,2.2-3.5,3.4-5.5c-0.7-2.2-1.6-4.8-2.8-8.7
		c-2,3.3-3.5,5.9-4.8,8.5c-0.1,0.2,2,1.4,3.3,2.2c-1.8,1.1-3.7,2.3-6.2,3.9c0.2,0.4,0.9,2.1,1.9,4.4c-4.4-4-7.4-21.9-5-28.7
		c0.9,4,1.8,7.5,2.6,11c0.5-0.1,1.1-0.2,1.6-0.3c-1.3-7.5-2.6-15-4-22.7c-7.9,5.6-4.1,14.7-5.6,22.5c-1.3-4.6-2.5-9.2-3.8-13.7
		c-0.4,0-0.9,0.1-1.3,0.1c-0.2,1.8-0.4,3.7-0.6,5.5c-0.2,0-0.4,0-0.6,0.1c-0.2-2-0.4-3.9-0.6-5.9c-0.3,0-0.6,0-0.9-0.1
		c0,3,0,6.1,0,10c-4.1-8.7-8.7-16.2-5.1-25.7c0.8-2-0.9-4.9-1.5-7.5c1.9,1.6,3.5,3.1,5.1,4.5c0.4-0.3,0.8-0.6,1.2-0.9
		c0,2.3,0,4.7,0,6.3c4.3-0.2,8.3-0.3,12.2-0.7c0.9-0.1,1.7-1.3,2.5-1.9c0.1-0.6,0.2-1.3,0.2-1.9c-0.1-4.3-0.3-8.6-0.2-13
		c0-1.1,0.5-2.3,2.1-3.4c0.2,2.3,0.4,4.7,0.6,7c0.5,0.1,0.9,0.2,1.4,0.3c0.5-3.3,1-6.6,1.6-9.9c0.7-4.1,0.8-8.5,2.4-12.3
		c1.1-2.6,4.2-4.3,6.4-6.4c0.4,0.4,0.9,0.7,1.3,1.1c0-2.2,0-4.3,0-6.5c-0.5-0.4-0.9-0.7-1.4-1.1c-0.4,0.9-0.9,1.8-1.4,3
		c-0.9-2.3-1.8-4.6-3.1-8.1c-1,4-1.7,6.8-2.4,9.6c-3-1.6-3-1.6-3-12.9C6,59,2.7,65.9-0.3,72.3c1.1-7.8,2.4-16.4,3.7-25
		c-5.3-0.4-6.2,0.9-7.8,10.5c-0.6-1-1.1-1.8-2-3.3C-7,56.8-7.5,58.2-8,60.1c-1.1-10.5,2.1-18.1,8.6-20c-0.8,1.5-1.4,2.7-2.5,4.7
		C1.4,44.5,4,44.3,7,44c-0.5,1.4-1.4,3.3-2,5.3c-0.5,1.9-0.7,3.9-1.2,6.5c6.9-8.8,8.3-17.6,3.5-21.4c2.8-1.4,5.5-2.7,8.3-4
		c0.4-0.2,1.1,0.1,1.9,0.1c0.4,1.5,0.9,3,1.3,4.5c3-1.3,5.9-2.5,8.9-3.7c-1.3,4.5-8.3,3.7-6.8,9.8c0,0.1,1.5-0.1,2.5-0.2
		c-0.4,4-0.9,7.9-1.3,11.9c0.5,0.1,0.9,0.1,1.4,0.2c0.3-0.8,0.5-1.6,0.9-2.8c1.2,0.9,2.4,1.8,3.5,2.6c0.4-0.3,0.9-0.7,1.3-1
		c-1.3-1.9-2.5-3.9-4-6c3.9-4.8,5.3-11.4,5.6-18.4c0.1-2.9,0.1-5.9,3.6-7.4c1.9-0.8,3.6-2.3,6.1-2.9c-2.4,2.1-4.7,4.2-7.2,6.4
		c5,1.9,9.3,3.6,13.7,5s8.9,2.4,13.8,3.8c0.2-5.8-10.4-7.1-6.9-15c1.5,1.9,2.8,3.5,3.9,4.9c2.7-3.2,5.2-6.3,8.7-10.3
		c-0.5,2.5-0.8,3.9-1.1,5.3c-5.5,3.4-5.9,4.3-4.1,10.3c2.5-1.5,5-3.1,7.6-4.7c-3.8,5.5-3.4,6.8,3.4,8.9c-4.6-7.8,7.2-4,6.1-9.6
		c1.3,3.4,2.6,6.8,4,10.5c2.7-2.3,8.4-0.2,8.7-6.1c0.2-0.2,0.3-0.3,0.5-0.5c1.1,2,2.1,3.9,3.2,5.9c-2.9,1.3-5.8,2.6-8.7,3.8
		c0.2,0.5,0.4,1,0.6,1.5c1.4,0.2,2.9,0.4,3.4,0.4c0.9,2.4,1.7,4.3,2.5,6.2c0.4-0.1,0.8-0.2,1.1-0.4c-0.2-1.5-0.4-3-0.6-4.5
		c0.5,0.2,0.9,0.4,1.4,0.6c0.5-1.4,1-2.7,1.6-4.1c1.1-0.5,2.3-1,3.7-1.6c0.5,1.7,1,3.1,1.4,4.6c0.5,0,0.9-0.1,1.4-0.1
		c0-2.1,0-4.2,0-6.3c0.5-0.4,1.1-0.8,1.6-1.3c1,2.3,2,4.6,3,6.9c1-0.7,1.9-1.3,2.9-2c-1.5-3.6-2.9-7.3-4.4-10.9c1.8,2,3.5,4,5.6,6.4
		c-0.5-4.2-1-7.9-1.5-11.7c-0.5-0.1-1-0.1-1.5-0.2c-1.1,1.6-2.1,3.3-3.2,4.9c-1.1,0.4-2.1,0.8-3.2,1.2c-0.2-0.2-0.4-0.4-0.7-0.5
		c2.6-2.8,5.2-5.6,7.8-8.3c-0.3-0.3-0.5-0.6-0.8-0.9c-0.9,0.4-1.9,0.9-3.2,1.5c1.8-4.3,3.4-8,5-11.7c0.4,0.1,0.8,0.1,1.1,0.2
		c-0.2,2.9-0.5,5.9-0.7,8.8c0.3,0,0.6,0.1,0.9,0.1c1.5-6.6,3.1-13.3,4.8-20.8c0.5,0.2-0.5-0.2-1.5-0.7c1.9-4.5,5.6-6.2,10.9-5.8
		c1.8,2.8,3.2,4.9,4.6,7c1,1.6,1.9,3.2,2.8,4.8c-2.5-2-5-4.1-7.5-6.1c-1.8,5.2-3.3,9.6-4.9,14c1.2-0.8,2.6-1.8,4-2.7
		c-0.1,0.5-0.2,1.1-0.3,1.6c2,0.7,4,1.4,6,2.1c0.2-0.5,0.4-1.1,0.6-1.6c-1.1-0.4-2.1-0.7-3.9-1.3c2.4-1.7,4.2-3,6-4.3
		c0.7,1.9,1,5.1,2.1,5.3c5.4,1.3,7.6-3.6,10.2-6.8c0.9-1.1-0.2-4-0.5-6c0-0.3-0.9-0.5-1.2-0.6c-2.3,2.7-4.4,5.3-6.6,8
		c-0.6-1-1.1-2-1.6-2.9c-1.8-4-3.6-8.1-5.4-12.1c0.4-0.5,0.8-1,1.3-1.4c3.9,7,8.5,5.2,13.6,2.2c5.9-3.5,7.3-2.7,8.3,3
		c3,1.9,5.2,3.3,7.7,5c0.1-1.2,0.2-2.6,0.2-3.9c-0.3-5.1,3.7-5.6,7.1-6.1c3.8-0.5,7.7-0.1,10.3-0.1c2.4,4.6,4.1,8.3,6.1,11.7
		c0.4,0.6,2.4,1.2,2.7,0.8c1-1.1,1.5-2.6,1.6-2.7c3.2-0.9,5.5-1.5,8.2-2.3c-1.1,1.3-2.1,2.5-3.1,3.7c0.2,0.3,0.4,0.5,0.7,0.8
		c3-2.2,6.1-4.5,9.7-7.1c0.4,4.3,0.6,6.9,0.9,9.6c0.5,0,1.1,0.1,1.6,0.1c0.8-2.6,1.5-5.3,2.7-9.4c2.7,3.2,4.9,5.9,7.6,9.1
		c-1.3,0-2,0-3,0c1.1,3.2,2.2,6.2,3.7,10.3c2.5-3.2,4.6-5.9,6.9-8.9c4.3,4.7,8.8,7,14.7,3.5c-0.1,2-0.2,3.5-0.2,5.2
		c1.8-0.5,3.3-0.9,4.8-1.4c0.2,0.4,0.4,0.9,0.6,1.3c-1.3,1-2.6,1.9-4.1,3c3.6,2.7,4.2,9.6,12.3,8.8c-0.8-1.8-1.3-3.1-1.9-4.5
		c-0.4,0.2-0.9,0.5-1.3,0.7c1.2-4.1,2.4-8.3,3.6-12.6c0.7,0.5,1.6,1.3,2.9,2.3c-1.2,1.4-2.2,2.5-4.1,4.8c3.5-0.2,5.7-0.3,8.5-0.4
		c-2.2,2.7-4.2,5.2-7,8.7c3.7-0.5,6.3-0.9,9.1-1.3c-0.3,0.7-0.6,1.8-0.8,2.2c3.3,3,6.5,5.9,9.7,8.8c-1.9,6.5-1.5,6.4,4.7,8.7
		c2.9,1.1,4.8,4.6,7.2,7.1l-0.1-0.1c0.6,0.9,1.3,2.6,1.8,2.5c1.8-0.2,3.5-1,6.7-2.1c-2,2.3-2.9,3.4-3.3,3.9c2.5,1.6,5.2,3.3,8.3,5.2
		c2.8-3.3,7.8-4.6,12.9-3c2,0.7,3.3,3.5,4.2,6.2c-2.1-0.9-4.2-1.7-6.3-2.6c-0.4,0.7-0.9,1.4-1.3,2.1c2.4,1.8,4.7,3.7,7.1,5.5
		c-0.2,0.3-0.3,0.6-0.5,0.9c-1.5-0.7-3.1-1.5-5-2.4c1,3.1,1.9,5.8,2.7,8.5c-0.4-0.5-0.9-0.9-1.3-1.4C312.6,65,315.8,62,320,58
		c1.4,3.5,1.9,4.7,2.6,6.2c-1.4-0.5-2.4-0.8-3.8-1.3c0.3,0.9,0.3,1.6,0.6,1.8c2.8,2,5.8,3.7,8.3,6c2,1.9,5.8,3.7,2.6,7.7
		c-0.3,0.4,1.5,3.4,1.7,3.3c6.4-2.2,8.1,3.3,11,6.6c0.7,0.8,1.1,1.9,1.9,3.1c3.4-1.9,3.6-9,9.6-5.6c-8.2,4.3-9.3,6-7.8,12.5
		c-1,3.9-1.9,7.9-2.9,11.8c0.8,0.2,1.5,0.4,2.3,0.5c1-4.1,2-8.2,3-12.3c0.6,1.3,1.1,2.7,1.2,2.8c3.5-3.8,7.3-7.9,11.3-12.4
		c-2.5-1-4.9-2-7.3-3c1.5-1.9,3.1-3.8,4.9-6.2c-0.4,1.9-0.8,3.5-1.3,5.8c3.5,0.4,6.7,0.8,10,1.1c-0.1-1.1-0.3-2.3-0.4-3.5
		c0.6-0.1,1.2-0.2,1.9-0.3c0.5,3,1,6,1.5,9.4c-2.3-1.7-4.1-3-5.9-4.3c-0.3,0.3-0.7,0.7-1,1c0.8,2,1.7,4,2.6,6c7.3,0.2,9-1.4,7-6.9
		c2.9,4.3,6.2,8,12.3,6.7c-1.1-1.3-2.2-2.6-3.3-3.8c-0.3-0.5-0.6-1-0.9-1.5c2.2,0.7,4.5,1.4,7.5,2.4c-1.5-2.2-2.9-4.2-4.3-6.3
		c0.4-0.4,0.8-0.7,1.2-1.1c2.6,2.5,6,4.5,7.7,7.4c3.5,6.3,9.3,7.4,15.3,8.9c2.8,0.7,6.5,0.8,6.3,5.4c-3.4-1.6-6.7-3.1-10.6-4.9
		c0.2,1.5,0.1,2.3,0.4,2.7c1.7,2.4,4.1,4.2,2.8,8.1c-0.5,1.4,2.5,3.8,3,6c1.1,4.6,2.1,9.4,2.1,14.1c0,1.8-3.1,3.5-4.7,5.3
		c1-1.6,1.9-3.3,3.4-5.8c-0.4-1.3-1.2-3.8-2-6.6c-5.3,5.2-5.2,5.2-2,10.8c0.3,0.5,0.4,1,0.6,1.6c0,6.3,0,12.7,0,19
		c-1.3-0.2-2.9-0.4-4.1-0.6c1-2.2,2.1-4.5,3.2-6.9c-0.4-0.2-0.9-0.5-1.3-0.7c-2.3,3.7-4.6,7.4-7.8,12.5c5-0.3,8.1-0.6,11.3-0.8
		c0,0.2,0.1,0.4,0.1,0.6c-2,0.4-4,0.9-6.9,1.5c1,1.9,2,3.5,3.5,6.4c0.9-2.7,1.4-4.1,1.9-5.5c0.4-0.1,0.9-0.1,1.3-0.2
		c0.2,3.5,0.4,7.1,0.6,10.6c0.9,0,1.7-0.1,2.6-0.1c0-4.9,0-9.9,0-14.8c0.4,0,0.8,0,1.1-0.1c0.2,0.9,0.5,1.7,0.6,2.1
		c2.2-0.3,4.2-0.7,8.5-1.3c-2.4-1-3.8-1.5-5.1-2c0.5-0.6,1-1.3,1.5-1.9c2.3,1.4,5.6,2.4,6.7,4.4c1.2,2.5,2.8,6,0,9
		c-0.5,0.6-0.1,2.2-0.6,2.6c-6.2,5.1-4.8,12.8-4.7,18.9c0.1,6.6-5.3,9.1-6.4,14c-0.3-5.1-0.7-10.2-0.8-15.3c0-1.7,0.7-3.4,1.1-5.1
		c0.4,3.1,0.8,6.3,1.2,9.4c0.5,0,1,0,1.4,0c0.4-5.2,0.9-10.3,1.3-15.7c-0.8,0.5-1.4,0.9-2,1.2c-0.4-1.7-0.8-3.3-1.2-5
		c-0.5,0-1,0.1-1.5,0.1c-0.3,0.8-1.1,1.7-0.9,2.3c1.3,4.3,0.1,7.4-3.9,9.7c-2,1.2-0.7,1.5-0.7,3.9c0,2.5-2.2,5.4-4.1,7.5
		c-0.9,1-3.3,0.7-5.1,1c0-3.9,0-7.9,0-10.7c-2.9,4.6-6.2,9.9-9.5,15.2c-0.3-0.1-0.5-0.2-0.8-0.3c1-2.4,2-4.8,3.2-7.6
		c-0.9,0.1-1.5,0.2-2.4,0.3c0.4-2,0.7-4.1,1.1-6.1c-0.4-0.1-0.8-0.3-1.2-0.4c-1.2,3-2.4,5.9-3.5,8.9c-0.2-0.1-0.5-0.1-0.7-0.2
		c0.4-1.9,0.8-3.8,1.1-5.7c-0.4-0.2-0.9-0.3-1.3-0.5c-0.8,2.3-1.6,4.6-2.6,7.4c-0.4-0.7-0.8-1.3-1.4-2.2c-1,1.9-1.8,3.6-2.7,5.3
		c-0.2-0.1-0.5-0.2-0.7-0.2c0.7-2.6,1.3-5.1,2-7.7c-0.2-0.1-0.4-0.2-0.6-0.3c-1.7,2.1-3.3,4.3-4.6,6c1.2,3.4,2.3,6.4,3.3,9.4
		c-0.4,0.2-0.7,0.4-1.1,0.6c-1.1-0.8-2.2-1.7-4.2-3.2c1,2.6,1.6,4.2,2.2,5.8c-0.2,0.2-0.5,0.4-0.7,0.6c-0.9-1-1.8-2-2.9-3.2
		c-0.8,2-1.6,4-2.3,6c-0.4,0-0.7,0-1.1,0.1c-0.2-2-0.3-4-0.5-6.5c-2.8,3-5.4,5.8-8.9,9.5c0.6-3.8,1.5-6.4,1.3-8.9
		c-0.5-5.5-1.7-11-2.5-16.4c4.2,0.4,8.4,0.8,8.9-5.2c-1.6-0.4-3.2-0.7-5.1-1.1c0.2-3.5,0.5-7.7,0.7-12c-1.8,1.6-2.9,3.3-3.1,5.2
		c-0.6,4.4-0.8,8.8-1.2,13.3c-0.7,1-2,2.6-1.9,2.8c3.6,3.7-1,5.4-2.5,7.9c0.2-1.6,0.4-3.2,0.5-4.9c-0.4-0.3-0.9-0.6-1.3-1
		c-2.4,3.5-4.7,6.9-7.1,10.3c-0.6,0.9-1.5,2.3-2.1,2.2c-4.5-0.7-4,3.5-4.1,5.2c-0.4,5.3,0.1,10.8,0.3,16.1c-0.6,0-1.2,0.1-1.8,0.1
		c-0.2-2.5-0.4-5.1-0.7-8.1c-1.2,1-2.2,1.8-3.7,3.1c-0.4-4.7,3.5-9.5-1.4-12.1c-2.8,3.9-5.6,7.6-7.6,10.4c-1.2-2.5-2.4-5.1-3.6-7.6
		c-4.5,4-8.2,7.3-12.1,10.9c-3.6,0.1-2.7-9.5-9-4.6c0.7-5.7,1.3-11.3,2-17.1c-4,1.9-7.7,3.7-11.3,5.5c-0.1-0.3-0.3-0.5-0.4-0.8
		c3.3-2.8,6.7-5.6,9.7-8.1c-0.8-2.3-1.5-4.2-2.4-6.7c-2.5,5.9-5.9,10.6-11.5,13.2c1.3-3.8,2.6-7.6,3.9-11.4
		c-0.6-0.3-1.2-0.6-1.8-0.9c-2.6,2.8-5.1,5.8-7.8,8.5c-8.3,8-17.2,15.3-21.6,26.5c-1.2,3.1-3.4,5.9-5.2,8.9
		c1.6-4.1,3.3-8.2,4.9-12.2c-0.3-0.2-0.6-0.4-0.8-0.6c-5.3,5.8-10.5,11.6-15.8,17.4c0.4,0.4,0.8,0.8,1.2,1.2c3.6-2,7.2-4,10.8-6
		c-3.8,2.7-7.7,5.4-11.5,8.2c-2.3,1.7-4.4,3.6-6.6,5.4c0.3,0.3,0.5,0.7,0.8,1c7.3-4.5,14.7-9,22-13.5c-0.7,1.1-1.2,2.8-2.2,3.4
		c-22.5,11-38.7,28.6-52.4,48.9c-4.9,7.2-10.9,13.7-15.1,21.3c-10.1,18.1-21.1,36-28.6,55.2c-4.9,12.4-4.4,27-6.1,40.6
		c-0.5,3.8-0.6,7.8-0.4,11.6c0.1,1.9,1.5,3.8,3.2,5.4c-4.1,8.4-4,18.2-4.3,27.7c-0.4,12.2-0.1,24.3-0.2,36.5
		c-0.1,8-0.9,16.1-0.3,24.1c1.3,16.1,3.5,32.1,5.4,48.6c-5.6,0-12.1,0-19.2,0c0-11-0.1-21.8,0.1-32.6c0.1-2.7,1.2-5.4,2-8.1
		c0.3-1.1,1.6-2,1.6-3.1c0.2-13.9,0-27.9,0.5-41.8c0.6-16.4,2.1-32.9,3-49.3c0.7-13.3,0.7-26.6,1.7-39.8c0.7-9.7,2.7-19.3,4-29
		c1.1-8.5,2.1-17,2.7-25.6c1-14,2.4-28,2.1-42c-0.2-11.6-2.6-23.2-4.2-34.8c-0.2-1.7-1.5-3.3-2.6-4.8c-5.3-6.9-10.7-13.7-16.2-20.5
		c-4.5-5.6-9.2-11.2-13.8-16.7c-0.3-0.4-0.9-0.7-1.2-1.1c-7.2-10.6-14.4-21.1-21.4-31.7c-2.7-4-4.9-8.4-6.7-11.6
		c-1.4,1.2-3.1,2.5-4.8,3.9c0-0.6,0-1.1,0-1.7c-2-0.5-4.1-1.7-6-1.4c-4.5,0.8-6.1,7.6-5.7,17.5c-0.6-3.2-1-6.5-1.9-9.7
		c-1.2-4.5,2.5-6.5,4.9-8.1c2.6-1.7,6.5-1.4,10.4-2.1c-0.5-2-0.9-3.5-1.3-5.1c-2.5,0.7-4.5,1.4-7.3,2.2c-0.4-2.8-0.9-5.7-1.5-9.5
		c-2.1,4.4-4.5,7-9.4,6.2c-0.9-0.1-2.5,4.2-3.9,6.7c-0.7-2.4-1.6-5.3-2.5-8.5c-1.1,1.3-2.2,2.7-3.1,3.8c1.4,8.6,2.8,17.3,4,25.3
		c-2.1-4-4.8-9.1-7.5-14.2c-0.2,0-0.5-0.1-0.7-0.1c0.5,4.4,1,8.9,1.6,13.3c-0.2,0.1-0.5,0.2-0.7,0.3c-1.5-3-3.1-6-4.7-9.1
		c-9.2,1.9-5.8,8.8-6.2,15c-1.2-2.3-2.4-4.6-3.9-7.5c-1.2,2.6-2.2,4.8-3.2,7c-0.6-1.1-1.2-2.2-1.8-3.3l0.1,0.1
		c5.2-6,2.3-13.9,4.5-20.6c0.3-0.9-1.8-2.7-3.7-3.4c0.3-2.7,0.4-5.5,0.8-8.2c0.1-0.9,1-1.7,1.5-2.6c0.7,1.9,1.3,3.7,2.1,5.9
		c1.3-0.6,2.4-1.1,3.5-1.6c2.2,4.9,5.8,6.9,11.4,5.2c-1.4-3.7,3.9-7.6-0.3-12.4c-0.6,2-0.9,3.1-1.5,5c-1.7-6.7,1.6-15.1-8.5-16.9
		c0,2.9,0,5.7,0,8.5c-0.2,0-0.3,0.1-0.5,0.1c-0.6-2.4-1.2-4.8-1.8-7.2c-0.6,0.1-1.2,0.2-1.8,0.2c0,2.9,0.3,5.8-0.1,8.6
		c-0.3,1.7-1.8,3.2-2.8,4.8c0-1.5,0-3.1,0-4.2c-2,1.5-3.6,3.2-5.6,3.9c-1.1,0.4-2.7-0.9-4.3-1.6c-2.5,4.2-1.9,7,3.2,13
		c-4.9-1.4-7-5.6-6.1-11.7c0.8-5,1.4-10,2.2-16.1c-2.7,0.9-4.1,1.4-6,2.1c0.9,1,1.6,1.8,2.3,2.5c-4.5,1.2-7.6,7.6-6.6,13.3
		C15.4,162.2,15.5,163.8,15.7,165.4L15.7,165.4z M90.5,160.2c1.4,0.2,2.7,0.3,4.7,0.6c-0.6-2.8-1-4.9-1.3-6.1
		c-3.1,1.6-5.8,3-9.3,4.7C87,159.7,88.8,159.9,90.5,160.2c-0.8,0.5-1.8,1.1-2.6,1.8c-0.8,0.8-2,1.9-1.8,2.7c0.4,1.5,1.4,3,2.3,4.3
		c0.7,1,1.6,1.7,2.5,2.5c0.8-0.9,1.6-1.8,2.5-2.7c0.3,0.6,0.7,1.3,1.1,2c0.7-1.1,2.2-3,1.9-3.3c-1.2-1.3-2.8-2.1-4.8-3.5
		C91.3,163.3,90.9,161.7,90.5,160.2z M264.5,193.2c2.3-2.8,4.7-5.6,6.8-8.1c-0.2-0.5,0,0,0.2,0.5c0.2,0.6,0.4,1.1,0.6,1.7
		c0.6-0.2,1.2-0.4,1.8-0.5c-0.8-3-1.6-6-2.5-9.3c-8.3,7.2-17,18.6-16.6,21.5c1.8-0.9,3.6-1.8,5.5-2.7c-3.1,3.5-6.3,7-9.4,10.6
		c0.5,0.5,1.1,1,1.6,1.5c5.4-5,10.9-10,16.3-15.1c-0.4-0.4-0.7-0.8-1.1-1.1C266.6,192.4,265.5,192.8,264.5,193.2z M263,214.8
		c1.4-0.2,3.5,0.1,4-0.7c4-5.9,8-11.9,11.4-18.2c1-1.8,0.2-4.7,0.2-7c-0.7-0.1-1.4-0.2-2.1-0.4c-1,1.9-1.6,4.3-3.2,5.6
		c-6.2,5.3-7,6.6-7.6,11.8C265.3,208.9,263.9,211.8,263,214.8c0.6-4.3,1.1-8.7,1.9-14.8c-5,3.9-8.4,7.1-12.2,9.4
		c-3.9,2.4-5.6,5.7-5.8,10c0,0.7-0.4,1.5-0.7,2.2c-3.4,8.7-6.9,17.3-9.7,24.3c7-7.2,15.3-15.6,23.4-24.2
		C261.5,220,262,217.1,263,214.8z M218.6,189.5c-1.2,2.7-2.4,5.4-4.3,9.5c0-2.7,0-3.9,0-6c-4.2,3.4-7.9,6-11.1,9.1
		c-1.1,1-1.2,3.3-1.3,5c-0.2,3.8-0.1,7.6-0.1,11.4c-0.3,0-0.6,0-0.9,0c-0.4-2.5-0.8-4.9-1.4-8.9c-2.1,4.6-3.5,7.6-5,11.1
		c-1.7-3.2-3-5.8-4.5-8.5c-5.2,4.2-9,8.8-10,16c-1.8,11.9-4.6,23.7-7.2,35.5c-2.2,10.1-5.1,20.1-7.1,30.3
		c-1.3,6.5,0.1,13.9-2.6,19.5c-4.6,9.7-4.5,19.8-5.4,29.9c-0.3,4-0.8,7.9-1.1,11.9c0.5,0.2,1,0.3,1.4,0.5c1-1.4,2.1-2.8,3-4.2
		c9.8-16.5,19.5-33,29.2-49.5c1.5-2.6,3.6-4.9,4.5-7.6c3.1-9.8,10-16.3,18-22.1c3.7-2.7,7.4-5.8,10-9.6
		c12.7-18.8,20.4-39.9,27.1-61.3c1.6-5-0.6-9.4-4.4-12.6c-2.5-2.1-3.2-3.9-2.1-6.8c0.8-2.2,1.1-4.5,1.6-6.8
		c-0.5-0.1-0.9-0.2-1.4-0.3c-0.3,0.9-0.7,1.9-0.9,2.8c-0.2,1.2-0.3,2.4-0.5,3.8c-6.5-3.4-7-3.3-8.5,3.5c-1.5-1.2-2.8-2.3-4-3.3
		c3.4-3.7,3.9-7.8,0.7-13.6c0,4.1,0,6.8,0,10.6c-1.6-2.2-2.5-3.4-3.7-4.9c-0.3,1.4-0.5,2.3-0.7,3.6c-1.6-3.8-3-7-5.1-11.7
		c-1.6,4.1-3.8,7.3-4,10.7C216.7,180.6,218,185.1,218.6,189.5z M159.3,191.3c-2,1.9-4.1,2.9-4.5,4.3c-0.9,4-1.6,8.3-1.3,12.4
		c1.2,14.6,1,29.3,4.5,43.9c2.4,10.2,5.8,20.7,2.9,31.8c-1.2,4.7-0.8,9.7-1.2,14.6c5.5-18.4,10.4-36.9,14.3-55.5
		c2-9.5,5-19.2,1.7-29.2c-1.3-4-2.7-8.1-3.3-12.3c-0.5-3.3,0.2-6.8,0.3-10.2c-0.7-0.2-1.5-0.4-2.2-0.6c-1.5,2.3-3,4.7-4.3,6.8
		c-4-2.6-2.2-5.8-1.1-9.2c0.4-1.3-0.4-3.1-0.7-4.6c-0.2,0.1-0.5,0.2-0.7,0.3c-1,5.6-2,11.2-2.9,16.8c-0.5-0.1-1.1-0.2-1.6-0.3
		C159.3,197.2,159.3,194.3,159.3,191.3z M151,253.3c0.4-17.4,0.6-17.6-5.7-27.4c-10.8-16.8-21.9-33.5-33.4-50.9
		c-1.5,2.7-2.3,4-3.4,6c0-3.4,0-6,0-8.7c-0.3,0-0.5,0-0.8,0c-0.5,2.2-1,4.4-1.6,6.9c-0.9-4.8-1.7-9.1-2.5-13.4
		c-0.8,5.2-0.4,10,0,14.8c0.3,3.7,0,7.5,1.1,10.9s3.5,6.4,5.6,9.4c9.5,13.4,19,26.9,28.9,40.1C142.5,245.5,146.8,249,151,253.3z
		 M132.1,162.3c-4.6,1.3-3.6,5.3-3.1,8.4c1.7,9.6,3.9,19.1,5.9,28.7c0.6,2.7,0.9,5.6,2.2,7.9c3.9,6.8,8.3,13.4,12.1,19.5
		c0-8.5,0.7-17.7-0.4-26.5c-0.4-3.4-1.1-6.6-0.6-10.2c0.3-2.1,0.2-5.8-1-6.3c-4-1.9-4.3-5-4.7-8.6c-0.3-2.5-1.3-5-2.5-8.9
		c-0.3,3.5-0.5,5.4-0.7,7.3c-0.3,0-0.6,0-0.9,0.1c-0.5-1.8-0.9-3.6-1.6-6.2c-1,1.4-1.6,2.2-2.6,3.6
		C133.5,167.9,132.8,165.2,132.1,162.3z M120.5,185.2c0.4-0.2,0.8-0.4,1.2-0.7c-0.3-2.2-0.4-4.4-0.9-6.5
		c-2.9-12.2-5.7-24.4-8.8-36.5c-1.6-6.3-7.1-6.8-13.1-7.9c1.2,2.8,2,5,3.2,7.7c-1.5-0.8-2.4-1.3-3.7-1.9c-0.1,9.6,2.8,17.7,8.3,25.2
		c0.4-0.9,0.8-1.8,1.2-2.8c0.8,1.5,1.4,2.7,1.9,3.8c1.5-1.2,2.7-2.2,4-3.2c0,2.1,0,4.1,0,5.8c-1.3,0.2-2.2,0.4-3.4,0.6
		C113.9,174.6,117.2,179.9,120.5,185.2z M123.8,171.7c-0.3,0-0.5,0.1-0.8,0.1c-0.4-2.1-1.3-4.3-1-6.4c0.7-4.8,2.6-9.6,2.8-14.4
		c0.1-3.6-0.9-10-2.7-10.5c-4.9-1.4-3.7-5-4.9-7.8c-0.8-1.7-1.8-3.4-2.7-5.1c-1.3,2.1-2.7,4-3.8,6.2c-0.3,0.6,0.5,1.7,1,2.5
		c6.9,13.7,9.2,28.6,11,43.5c1,8.2,5.7,13.6,10.6,21c-0.2-3.2-0.2-4.9-0.5-6.5c-1.7-8.7-3.4-17.4-5.3-26.1c-0.3-1.2-1.8-2.1-3.2-3.7
		C124,167.7,123.9,169.7,123.8,171.7z M15.8,95.8c-1.4-2.7-2-3.9-2.6-5.2c-0.5,0-1.1,0-1.6,0c-0.1,3.7-0.9,7.6,0,11
		c1.3,5.1,5.8,1.2,8,2.1c3-5.1,5.8-9.7,8.8-14.8c-3.1,0.8-5.9,1.5-9.7,2.5c-0.3-0.5-1.5-2.1-2.8-3.9C15.8,89.9,15.8,92,15.8,95.8z
		 M255.8,191.6c6.1-7.6,11.4-14.2,16.8-20.9c-0.4-0.4-0.7-0.9-1.1-1.3c-3.2,2.7-5.5,2.5-6.3-1.3c-0.8,2.8-1.6,5.7-2.6,9.5
		c-1.4-3.7-2.3-6.1-3.3-8.6c-1.6,3.3-2.2,6.7-2.6,10C256.4,182.5,256.2,186,255.8,191.6z M392.8,122.7c-0.5-0.2-0.9-0.5-1.4-0.7
		c-1.4,3.8-2.8,7.7-4.4,12.2c-0.8-1.6-1.2-2.3-1.5-2.9c-0.3,0.1-0.5,0.2-0.8,0.3c0.6,2.1,1.2,4.2,2,7c1.4-1.6,2-2.3,2.3-2.6
		c2.7,3.3,5.2,6.4,7.8,9.5c0.7-0.4,1.4-0.7,2.1-1.1c-2-4.8-4.1-9.6-6-14.1c0.9-0.6,1.9-1.1,2.9-1.7c-1.1-0.6-2.1-1.3-3.6-2.1
		C392.2,125.7,392.5,124.2,392.8,122.7z M29.2,60.7c-0.6-0.1-1.1-0.1-1.7-0.2c-0.8,7.8-1.8,15.6-2.3,23.4c-0.1,1.5,1,3.7,2.2,4.3
		c1.6,0.8,3.9,0.4,5.9,0.5c-0.2-1.8-0.3-3.6-0.6-5.4c-0.3-1.6-0.8-3.1-1.2-4.9c-0.9,0.8-1.7,1.4-2.3,1.9
		C29.2,73.6,29.2,67.2,29.2,60.7z M351.3,196.2c6.2-9.7,6.3-14.2,0-22.1C351.3,181.9,351.3,188.7,351.3,196.2z M376.7,144.8
		c-1.8,5.1-4.4,8.7-4,11.9c0.7,5.2,5,0.8,9.3,1.8C380.2,153.8,378.7,150.1,376.7,144.8z M11,47.7c1.8-0.6,2.8-0.8,3.8-1.2
		c1.5-0.6,4.1-1,4.3-1.9c0.3-1.7-0.7-3.7-1.3-5.5c-0.4-1.1-1.2-2.1-1.5-3.3c-0.3-0.9-0.1-1.9-0.1-2.8c-0.4,0-0.8,0-1.2,0
		C13.8,37.6,12.5,42.3,11,47.7z M288.8,64.3c5.2-3.9,4.8-4.9-5-13.5c0.6,5.3,1.1,9.7,1.6,14.4c1.5-1.8,2.3-2.8,3.1-3.7
		C288.5,62.3,288.6,63,288.8,64.3z M61.7,146.8c-0.5,1.8-0.9,3.2-1.3,4.7c-1.5-1.5-2.5-3.1-3.8-3.5c-0.8-0.2-3,1.7-3,2.6
		c0.1,2.1,1.1,4.2,1.7,6.5C64.1,152.8,65.2,150.9,61.7,146.8z M391.5,143.4c-3.5,0.1-6.4,1.1-5.2,4.7c1.2,3.5,3.7,6.5,5.7,9.8
		c0.4-0.1,0.8-0.2,1.2-0.3C392.6,152.9,392.1,148.2,391.5,143.4z M116.6,13.2c-3.2,4-3.2,7.5,0.1,11.3c4.4-0.9,7.8-2.4,5-7.9
		c-0.1-0.2-0.5-0.2-0.8-0.4c-0.3,1.5-0.5,2.8-0.7,4.2c-0.5,0.1-1,0.2-1.4,0.3C118,18.1,117.3,15.6,116.6,13.2z M193.7,196
		c-3.7,6.6-7,12.6-10.3,18.5c0.4,0.2,0.9,0.4,1.3,0.7C189.2,209.6,194.9,204.8,193.7,196z M120.8,26.3c-6.2,0.3-9.1,6.7-6.8,14.3
		C116.2,36,118.5,31.2,120.8,26.3z M8.9,113.3c-2.9,6.2-1.1,16.2,3.2,20.4C11,127,10,120.4,8.9,113.3z M137,18
		c0.7,0,1.5,0.1,2.2,0.1c0.1-2.8,0.2-5.6,0.3-8.4c-1.6,0.1-4-0.5-4.6,0.3c-1.1,1.5-1.2,3.7-1.8,5.7c0.6,0.2,1.2,0.4,1.8,0.7
		c0.5-0.7,1-1.4,1.7-2.3C136.8,15.6,136.9,16.8,137,18z M249.7,23.5c-3.6-4.2-6.8,0.3-9.5,1.4c-1.7,0.7-2.1,4.7-2.7,6.1
		C241.5,28.6,245.5,26.1,249.7,23.5z M249.3,59c1,0.2,1.9,0.4,2.9,0.6c1.5-2.8,3-5.6,4.4-8.4c-0.4-0.2-0.9-0.5-1.3-0.7
		c-0.7,0.4-1.5,0.9-2.4,1.4c-0.4-1-0.7-1.9-1-2.8c-0.3,0-0.6,0-1,0C250.4,52.3,249.8,55.6,249.3,59z M270.4,71.5
		c2.6-2.9,4.7-4.9,6.3-7.3c0.6-0.8,0.2-2.4,0.1-3.7c0-0.1-1.2-0.1-1.9-0.2c0.8,4.7-4.1-0.2-4.6,2.6
		C270.4,65.5,270.4,68.1,270.4,71.5z M106.1,58.6c0.3-3.7,0.7-7.5,1-11.1c-2.9,1.1-5.1,1.9-7.3,2.8C102.3,53.6,104.2,56,106.1,58.6z
		 M32.1,128c-2.9-4.1-5.3-7.6-7.7-11c-0.3,0.2-0.7,0.3-1,0.5c1.8,4.7,3.6,9.4,5.9,15.4C31.1,129.7,31.8,128.5,32.1,128z
		 M418.5,161.5c-0.6,0.1-1.2,0.3-1.8,0.4c-0.3,3.5-0.7,6.9-1,10.7c0.6,0.2,2.2,0.9,4.9,2C419.8,169.6,419.2,165.6,418.5,161.5z
		 M298.3,57.5c-4.9,2.2-1.8,6-0.7,9.3c0.3,0.8,1.8,1.3,2.7,1.9c0.3-1.2,1-2.5,0.8-3.6C300.4,62.6,299.3,60.2,298.3,57.5z
		 M195.1,153.5c-0.6-0.1-1.2-0.3-1.7-0.4c-0.5,2.9-1.4,5.7-1.2,8.5c0.1,0.8,3.5,1.5,5.5,1.8c0.5,0.1,1.2-1.5,1.9-2.5
		c-1.7-0.3-3.1-0.6-4.8-0.9c0.9-1.2,1.5-1.9,2.5-3.1c-1.5,0.4-2.3,0.5-3.7,0.9C194.2,156.1,194.6,154.8,195.1,153.5z M257.8,55.2
		c-1.8,2.9-3.4,5.5-5,8.1c1.2,0.1,2.5,0.6,3.7,0.3C261.3,62.5,260.5,59.5,257.8,55.2z M101.3,192.1c0.6-0.3,1.3-0.6,1.9-0.9
		c-2.3-4.7-4.6-9.4-6.9-14.1c-0.8,0.4-1.6,0.8-2.3,1.2C96.5,182.9,98.9,187.5,101.3,192.1z M326.4,196.4c0.6,0.2,1.1,0.5,1.7,0.7
		c1.1-5,2.2-9.9,3.4-15.7C323,185.2,329.7,192.1,326.4,196.4z M83.5,154.3c0.6,0.8,1.3,1.6,1.9,2.5c1.7-1.2,3.8-2.2,4.9-3.8
		c0.5-0.8-1.1-2.9-1.7-4.4C86.9,150.5,85.2,152.4,83.5,154.3z M272.4,57.3c-0.5-4.3-1.1-8.5-1.7-13.3
		C266.9,49.5,267.9,56,272.4,57.3z M363.3,134.5c0.3,0.5,0.6,1.1,0.9,1.6c1.7-0.4,4.1-0.3,4.9-1.4c1-1.4,0.5-3.7,0.7-5.7
		c-0.6-0.2-1.2-0.4-1.8-0.5C366.5,130.5,364.9,132.5,363.3,134.5z M42.6,29.9c0-0.4,0.1-0.9,0.1-1.3c-1.8-0.1-4.4-1.1-5.4-0.3
		c-2.2,1.8-3.5,4.6-5.2,6.9c0.2,0.2,0.4,0.4,0.6,0.6C36,33.8,39.3,31.8,42.6,29.9z M187.6,4.2c1.9,4.6,3.1,7.7,4.4,10.8
		c1.1-1,2.7-2.4,5-4.5C194,8.6,191.4,6.8,187.6,4.2z M97.1,156.2c-0.6,0.1-1.1,0.2-1.7,0.3c0.9,2.8,1.5,5.6,2.8,8.2
		c0.2,0.4,3.1-0.5,5.6-0.9C101,160.6,99.1,158.4,97.1,156.2z M240.3,56.4c0.7,0.9,1.7,2.1,2.9,3.7c3.1-3.7,6.4-6.2,1.4-9.9
		C243.3,52,242.1,53.8,240.3,56.4z M198.1,173.4c-2.2-3.3-3.6-5.3-5-7.4c-0.5,2.9-1,5.7-1.7,10C194.4,174.8,196.4,174,198.1,173.4z
		 M203.5,154.3c0.2,1,0.6,2.9,1.2,6.2c2.2-5.1,3.9-9,5.6-12.9c-0.4-0.2-0.7-0.4-1.1-0.5C207.4,149.4,205.6,151.6,203.5,154.3z
		 M318.8,144.7c-0.3,0-0.5-0.1-0.8-0.1c-0.4,2.6-1,5.1-1.2,7.7c-0.1,1.1,0.5,2.3,1.1,3.3c0.1,0.2,1.6,0.1,1.8-0.2
		c0.6-0.9,1.2-2.2,1-3.2C320.3,149.7,319.4,147.2,318.8,144.7z M253.3,186.9c0.4,0.1,0.7,0.2,1.1,0.2c0.2-3.1,0.7-6.2,0.6-9.2
		c0-1.7-0.8-3.5-1.6-5.1c-0.2-0.4-1.9,0-2.9,0c0.1,1.2,0.2,2.4,0.3,3.6c0.7-0.2,1.5-0.4,2.4-0.7
		C253.3,179.2,253.3,183.1,253.3,186.9z M325,202.3c0.8-0.2,1.6-0.4,2.4-0.6c-1-3.3-2.1-6.5-3.3-10.3c0.1,0-1-0.1-2.9-0.2
		C322.6,195.1,323.8,198.7,325,202.3z M386.9,172.7c5.4-8.1,5.4-8.1,1.8-10.3C388.1,166,387.5,169.3,386.9,172.7z M152.8,119.3
		c-3-2.7-5.3-4.8-7.6-6.9c-0.4,0.3-0.9,0.7-1.3,1c2,3.2,4,6.5,6.1,9.7c0,0,0.5-0.2,0.9-0.4c-0.6-1-1.3-2.1-2.1-3.4
		C150.1,119.3,151,119.3,152.8,119.3z M90.7,108.1c-0.5-0.1-1.1-0.1-1.6-0.2c0.1,3.7-4.6,6.8,0.6,12.4
		C90.1,115.3,90.4,111.7,90.7,108.1z M239.5,70.2c1.9,1.6,3.5,3,5.6,4.8c0-3.7,0-6.8,0-9.8c-0.4-0.6-0.8-1.1-1.2-1.7
		C242.5,65.7,241.1,67.8,239.5,70.2z M145.8,15.8c1-4.1,1.7-7.2,2.4-10.2c-0.7-0.2-1.4-0.4-2.1-0.6c-1,2.2-2,4.4-3.2,7
		C143.2,12.4,144.1,13.6,145.8,15.8z M97.5,177.9c0.7-0.1,1.4-0.1,2-0.2c0-3.6,0-7.2,0-11.5c-1.4,2.6-2.9,4.2-3.2,5.9
		C96.1,174,97.1,176,97.5,177.9z M334,213c5.5-4.2,6-5.9,2.5-10.4c-0.5,2.9-1,5.3-1.2,6.5c-0.6-0.2-1.8-0.7-3.5-1.3
		C332.6,209.7,333.2,211.2,334,213z"/>
	<path class="st0" d="M257.1,242.2c-7.3,4.5-14.7,9-22,13.5c-0.3-0.3-0.5-0.7-0.8-1c2.2-1.8,4.3-3.7,6.6-5.4
		c3.8-2.8,7.7-5.5,11.5-8.2l-0.2,0.2c1.8-2.9,4-5.7,5.2-8.9c4.4-11.2,13.3-18.6,21.6-26.5c2.8-2.7,5.2-5.7,7.8-8.5
		c0.6,0.3,1.2,0.6,1.8,0.9c-1.3,3.8-2.6,7.6-3.9,11.4C275.6,220.6,266.4,231.4,257.1,242.2z"/>
	<path class="st0" d="M-21.2,86.2c-0.6-0.2-1.8-0.6-1.8-0.6c-2.1,5.8-4.1,11.5-6.2,17.3c0.5,0.2,0.9,0.4,1.4,0.6
		c-1.3,0.7-2.6,1.5-4.4,2.6c0.8-8.4,3.3-15.9,9.6-23c-3.1,1.6-4.7,2.5-6.4,3.4c0.7-4.3,0.4-8.5,2.2-11.3c2.2-3.4,5.7-2.2,8.2,0.9
		C-19.5,79.5-20.4,82.8-21.2,86.2z"/>
	<path class="st0" d="M-21.2,86.2c0.8-3.4,1.7-6.8,2.5-10.1c1.7,0.5,3.4,1.1,4.1,1.3c0.3,4.9,0.5,9,0.8,13.1c0,0.7,0.6,1.6,0.3,2.1
		c-1.8,3-3.6,6-5.6,8.9c-0.3,0.4-1.3,0.3-2.1,0.5C-21.2,96.5-21.2,91.4-21.2,86.2z"/>
	<path class="st0" d="M283.1,45c-1.7-4.5-3.5-8.9-4.9-13.4c-0.4-1.2,0.8-2.9,1.3-4.5c6.4-0.5,6.7,0,5.6,11.3c2,1.2,3.8,2.3,5.6,3.4
		c-0.1,0.7-0.2,1.5-0.3,2.2c-4-4.9-5.5-0.9-7.5,0.9C283,44.9,283.1,45,283.1,45z"/>
	<path class="st0" d="M135.5-2c0.5,0.9,1,1.9,1.6,2.9c2.2-2.6,4.3-5.2,6.6-8c0.3,0.1,1.1,0.3,1.2,0.6c0.3,2,1.4,4.9,0.5,6
		c-2.6,3.3-4.8,8.1-10.2,6.8c-1-0.2-1.4-3.5-2.1-5.3l0.3-0.4C134.1-0.3,134.8-1.1,135.5-2z"/>
	<path class="st0" d="M133.4,0.6L133.1,1c-1.8,1.3-3.7,2.6-6,4.3c1.8,0.6,2.9,1,3.9,1.3c-0.2,0.5-0.4,1.1-0.6,1.6
		c-2-0.7-4-1.4-6-2.1c0.1-0.5,0.2-1.1,0.3-1.6c-1.4,1-2.8,1.9-4,2.7c1.5-4.4,3.1-8.8,4.9-14c2.5,2.1,5,4.1,7.5,6.1
		C133.2-0.2,133.3,0.2,133.4,0.6z"/>
	<path class="st0" d="M-19.9,111.6c-1.3,2.7-2.5,5.1-3.7,7.4c-0.8-0.4-1.7-0.8-2.5-1.2c1.9-4.5,3.7-9.1,5.6-13.6
		c0.7,0.2,1.5,0.4,2.2,0.6c0,6.9,0,13.8,0,20.7c-0.3,0.1-0.6,0.1-0.9,0.2C-19.5,121-19.7,116.3-19.9,111.6z"/>
	<path class="st0" d="M15.7,165.5c1.3-3.2,2.5-6.3,3.9-9.4c0.5-1.2,1.5-2.2,1.7-2.6c0,7.1,0,14.4,0,22.9c-1.4-1.9-3-3.4-3.9-5.2
		C16.5,169.3,16.3,167.3,15.7,165.5C15.7,165.4,15.7,165.5,15.7,165.5z"/>
	<path class="st0" d="M96.2,35.9c-0.5,1.4-1,2.7-1.6,4.1c-0.5-0.2-0.9-0.4-1.4-0.6c0.2,1.5,0.4,3,0.6,4.5c-0.4,0.1-0.8,0.2-1.1,0.4
		c-0.8-1.9-1.5-3.8-2.5-6.2c-0.5-0.1-1.9-0.3-3.4-0.4c-0.2-0.5-0.4-1-0.6-1.5c2.9-1.3,5.8-2.6,8.7-3.8
		C95.3,33.4,95.8,34.6,96.2,35.9z"/>
	<path class="st0" d="M69.1,23c-2.5,1.6-5.1,3.1-7.6,4.7c-1.8-6-1.4-6.9,4.1-10.3C66.8,19.3,67.9,21.1,69.1,23z"/>
	<path class="st0" d="M91.2,26.8c-3.9-2.1-7.7-4.1-1.7-8.4c2-1.4,2.7-4.4,4.5-6.2c2.3-2.4,5.1-3.7,8.9-0.5c-5.1-0.7-8.3,0.1-9.3,5.3
		c-0.4,1.8-3.2,3.1-5,4.7c1,1.4,2,3,3.1,4.7C91.6,26.4,91.4,26.6,91.2,26.8z"/>
	<path class="st0" d="M381.5,89.4c0.3,0.5,0.6,1,0.9,1.5c-1.7,1.6-3,1.4-4-0.8c-1-2.3-2.3-4.5-3.6-6.9c2.8-0.2,4.7-1.5,1.8-5.5
		c0.8,0,1.6,0.1,2.3,0.1c0.4,2.9,0.6,5.8,1.1,8.6C380.3,87.4,381.1,88.4,381.5,89.4z"/>
	<path class="st0" d="M416.3,178.6c0.6-0.4,1.2-0.8,2-1.2c-0.5,5.4-0.9,10.6-1.3,15.7c-0.5,0-1,0-1.4,0c-0.4-3.1-0.8-6.3-1.2-9.4
		C415,182,415.6,180.3,416.3,178.6z"/>
	<path class="st0" d="M5.1,104.7c-0.1,0.6-0.2,1.3-0.2,1.9c-6.4-4.6-7.6-8.5-5-13.8C1.4,96.4,3.3,100.6,5.1,104.7z"/>
	<path class="st0" d="M33.1,194c-1.3,2-2.6,4-3.8,5.7c-1.3-5.6-2.5-10.8-3.6-16c0.4-0.1,0.9-0.2,1.3-0.3c0.7,2.9,1.2,5.9,2.4,8.7
		c0.4,1,2.5,1.3,3.8,2C33.2,194.1,33.1,194,33.1,194z"/>
	<path class="st0" d="M105.2,24.7c1.1-1.6,2.1-3.3,3.2-4.9c0.5,0.1,1,0.1,1.5,0.2c0.5,3.7,1,7.5,1.5,11.7c-2.1-2.4-3.9-4.4-5.6-6.4
		C105.6,25,105.4,24.9,105.2,24.7z"/>
	<path class="st0" d="M229.8,181.7c1.3,1,2.6,2.1,4,3.3c1.5-6.7,1.9-6.9,8.5-3.5c0.2-1.4,0.3-2.6,0.5-3.8c0.2-1,0.6-1.9,0.9-2.8
		c0.5,0.1,0.9,0.2,1.4,0.3c-0.5,2.3-0.8,4.6-1.6,6.8c-1.1,3-0.3,4.8,2.1,6.8c3.8,3.2,5.9,7.6,4.4,12.6
		c-6.7,21.5-14.4,42.6-27.1,61.3c-2.5,3.7-6.2,6.9-10,9.6c-8,5.8-14.9,12.3-18,22.1c-0.9,2.7-3,5.1-4.5,7.6
		c-9.7,16.5-19.5,33-29.2,49.5c-0.9,1.5-2,2.8-3,4.2c-0.5-0.2-1-0.3-1.4-0.5c0.4-4,0.8-7.9,1.1-11.9c0.9-10.1,0.8-20.1,5.4-29.9
		c2.7-5.7,1.3-13.1,2.6-19.5c2-10.2,4.8-20.2,7.1-30.3c2.6-11.8,5.4-23.6,7.2-35.5c1.1-7.2,4.8-11.8,10-16c1.4,2.7,2.8,5.4,4.5,8.5
		c1.6-3.5,3-6.5,5-11.1c0.6,4,1,6.5,1.4,8.9c0.3,0,0.6,0,0.9,0c0-3.8-0.1-7.6,0.1-11.4c0.1-1.7,0.2-4,1.3-5
		c3.2-3.1,6.9-5.8,11.1-9.1c0,2.1,0,3.3,0,6c1.9-4.1,3.1-6.8,4.3-9.5C222.3,186.9,226,184.3,229.8,181.7z"/>
	<path class="st0" d="M159.3,191.3c0,2.9,0,5.9,0,8.9c0.5,0.1,1.1,0.2,1.6,0.3c1-5.6,2-11.2,2.9-16.8c0.2-0.1,0.5-0.2,0.7-0.3
		c0.3,1.5,1.1,3.3,0.7,4.6c-1.1,3.4-2.9,6.6,1.1,9.2c1.3-2.1,2.8-4.4,4.3-6.8c0.7,0.2,1.5,0.4,2.2,0.6c-0.1,3.4-0.8,6.9-0.3,10.2
		c0.6,4.2,2,8.2,3.3,12.3c3.2,10,0.3,19.7-1.7,29.2c-4,18.6-8.8,37.1-14.3,55.5c0.3-4.9,0-9.9,1.2-14.6c2.8-11-0.5-21.5-2.9-31.8
		c-3.4-14.5-3.3-29.2-4.5-43.9c-0.3-4.1,0.4-8.3,1.3-12.4C155.1,194.3,157.3,193.2,159.3,191.3z"/>
	<path class="st0" d="M151,253.3c-4.2-4.3-8.5-7.8-11.8-12.2c-9.9-13.2-19.4-26.7-28.9-40.1c-2.1-3-4.5-6-5.6-9.4s-0.8-7.3-1.1-10.9
		c-0.4-4.8-0.8-9.7,0-14.8c0.8,4.3,1.6,8.6,2.5,13.4c0.6-2.5,1.1-4.7,1.6-6.9c0.3,0,0.5,0,0.8,0c0,2.6,0,5.3,0,8.7
		c1.1-2,1.9-3.3,3.4-6c11.4,17.4,22.5,34,33.4,50.9C151.6,235.7,151.4,235.9,151,253.3z"/>
	<path class="st0" d="M132.1,162.3c0.7,2.9,1.4,5.6,2.2,8.7c1-1.4,1.6-2.2,2.6-3.6c0.7,2.6,1.2,4.4,1.6,6.2c0.3,0,0.6,0,0.9-0.1
		c0.2-1.9,0.4-3.8,0.7-7.3c1.1,3.9,2.2,6.4,2.5,8.9c0.4,3.6,0.7,6.7,4.7,8.6c1.1,0.5,1.3,4.2,1,6.3c-0.5,3.5,0.2,6.7,0.6,10.2
		c1.1,8.9,0.4,18,0.4,26.5c-3.8-6.1-8.2-12.7-12.1-19.5c-1.3-2.3-1.6-5.2-2.2-7.9c-2-9.6-4.2-19.1-5.9-28.7
		C128.4,167.6,127.5,163.6,132.1,162.3z"/>
	<path class="st0" d="M120.5,185.2c-3.3-5.3-6.6-10.6-10.2-16.4c1.2-0.2,2.1-0.4,3.4-0.6c0-1.7,0-3.7,0-5.8c-1.3,1-2.4,1.9-4,3.2
		c-0.6-1.1-1.2-2.3-1.9-3.8c-0.4,1-0.8,1.8-1.2,2.8c-5.5-7.4-8.5-15.5-8.3-25.2c1.3,0.7,2.3,1.2,3.7,1.9c-1.1-2.8-2-4.9-3.2-7.7
		c6,1.2,11.5,1.6,13.1,7.9c3.1,12.1,5.9,24.3,8.8,36.5c0.5,2.1,0.6,4.3,0.9,6.5C121.3,184.7,120.9,184.9,120.5,185.2z"/>
	<path class="st0" d="M123.8,171.7c0.1-2,0.2-4,0.4-7.1c1.5,1.6,3,2.5,3.2,3.7c1.9,8.7,3.6,17.4,5.3,26.1c0.3,1.6,0.3,3.3,0.5,6.5
		c-4.9-7.4-9.6-12.7-10.6-21c-1.8-14.9-4-29.8-11-43.5c-0.4-0.8-1.2-2-1-2.5c1.1-2.2,2.5-4.1,3.8-6.2c0.9,1.7,2,3.3,2.7,5.1
		c1.2,2.8,0,6.4,4.9,7.8c1.8,0.5,2.8,6.9,2.7,10.5c-0.2,4.8-2.1,9.6-2.8,14.4c-0.3,2,0.6,4.2,1,6.4
		C123.3,171.8,123.5,171.8,123.8,171.7z"/>
	<path class="st0" d="M263,214.8c-1,2.3-1.4,5.2-3.1,6.9c-8,8.7-16.4,17-23.4,24.2c2.8-6.9,6.2-15.6,9.7-24.3
		c0.3-0.7,0.6-1.4,0.7-2.2c0.2-4.4,1.8-7.6,5.8-10c3.9-2.4,7.2-5.5,12.2-9.4C264.1,206.2,263.5,210.5,263,214.8L263,214.8z"/>
	<path class="st0" d="M36.1,159.4c1-1.6,2.5-3.1,2.8-4.8c0.5-2.8,0.1-5.7,0.1-8.6c0.6-0.1,1.2-0.2,1.8-0.2c0.6,2.4,1.2,4.8,1.8,7.2
		c0.2,0,0.3-0.1,0.5-0.1c0-2.8,0-5.7,0-8.5c10.1,1.7,6.8,10.2,8.5,16.9c0.6-1.9,0.9-3,1.5-5c4.2,4.8-1.1,8.7,0.3,12.4
		c-5.6,1.8-9.2-0.2-11.4-5.2c-1.1,0.5-2.2,1-3.5,1.6c-0.8-2.2-1.4-4.1-2.1-5.9C36.2,159.2,36.1,159.4,36.1,159.4z"/>
	<path class="st0" d="M229.8,181.7c-3.7,2.6-7.5,5.2-11.2,7.8c-0.6-4.4-1.9-8.8-1.5-13.2c0.2-3.4,2.4-6.7,4-10.7
		c2,4.7,3.4,7.9,5.1,11.7c0.3-1.3,0.4-2.2,0.7-3.6c1.1,1.5,2,2.8,3.7,4.9c0-3.8,0-6.4,0-10.6C233.6,173.9,233.2,177.9,229.8,181.7z"
		/>
	<path class="st0" d="M263,214.8c0.9-3,2.3-5.9,2.7-9c0.7-5.1,1.5-6.5,7.6-11.8c1.5-1.3,2.1-3.7,3.2-5.6c0.7,0.1,1.4,0.2,2.1,0.4
		c0,2.4,0.8,5.2-0.2,7c-3.4,6.3-7.4,12.3-11.4,18.2C266.5,214.9,264.4,214.6,263,214.8L263,214.8z"/>
	<path class="st0" d="M15.8,95.8c0-3.8,0-5.9,0-8.2c1.3,1.8,2.5,3.4,2.8,3.9c3.8-1,6.6-1.7,9.7-2.5c-3,5.1-5.8,9.7-8.8,14.8
		c-2.2-0.9-6.7,2.9-8-2.1c-0.9-3.4,0-7.3,0-11c0.5,0,1.1,0,1.6,0C13.9,91.8,14.5,93.1,15.8,95.8z"/>
	<path class="st0" d="M255.8,191.6c0.4-5.6,0.6-9.1,1-12.6c0.4-3.4,1-6.7,2.6-10c0.9,2.4,1.9,4.9,3.3,8.6c1-3.8,1.8-6.6,2.6-9.5
		c0.8,3.9,3.2,4.1,6.3,1.3c0.4,0.4,0.7,0.9,1.1,1.3C267.3,177.4,261.9,184,255.8,191.6z"/>
	<path class="st0" d="M260.2,196.2c-1.8,0.9-3.6,1.8-5.5,2.7c-0.4-2.9,8.3-14.3,16.6-21.5c0.9,3.3,1.7,6.3,2.5,9.3
		c-0.6,0.2-1.2,0.4-1.8,0.5c-0.2-0.6-0.4-1.1-0.6-1.7c-0.2-0.5-0.3-0.9-0.2-0.5c-2.1,2.5-4.4,5.3-6.8,8.1
		C263.1,194.2,261.7,195.2,260.2,196.2z"/>
	<path class="st0" d="M392.8,122.7c-0.3,1.5-0.6,3.1-0.7,3.7c1.4,0.9,2.5,1.5,3.6,2.1c-1,0.6-2,1.2-2.9,1.7c1.9,4.5,4,9.3,6,14.1
		c-0.7,0.4-1.4,0.7-2.1,1.1c-2.5-3.1-5-6.2-7.8-9.5c-0.3,0.4-0.9,1.1-2.3,2.6c-0.8-2.8-1.4-4.9-2-7c0.3-0.1,0.5-0.2,0.8-0.3
		c0.3,0.6,0.6,1.2,1.5,2.9c1.6-4.6,3-8.4,4.4-12.2C391.9,122.2,392.3,122.4,392.8,122.7z"/>
	<path class="st0" d="M29.2,60.7c0,6.5,0,12.9,0,19.7c0.6-0.5,1.4-1.2,2.3-1.9c0.5,1.8,1,3.3,1.2,4.9c0.3,1.8,0.4,3.6,0.6,5.4
		c-2-0.1-4.2,0.3-5.9-0.5c-1.2-0.6-2.3-2.9-2.2-4.3c0.6-7.8,1.5-15.6,2.3-23.4C28.1,60.6,28.6,60.7,29.2,60.7z"/>
	<path class="st0" d="M346.6,98.5c-1.5-6.5-0.5-8.1,7.8-12.5l-0.2-0.1c2.4,1,4.8,2,7.3,3c-4.1,4.4-7.9,8.6-11.3,12.4
		c-0.1-0.1-0.6-1.5-1.2-2.8C348.2,98.5,347.4,98.5,346.6,98.5z"/>
	<path class="st0" d="M252.5,241.2c-3.6,2-7.2,4-10.8,6c-0.4-0.4-0.8-0.8-1.2-1.2c5.3-5.8,10.5-11.6,15.8-17.4
		c0.3,0.2,0.6,0.4,0.8,0.6c-1.6,4.1-3.3,8.2-4.9,12.2C252.3,241.4,252.5,241.2,252.5,241.2z"/>
	<path class="st0" d="M351.3,196.2c0-7.5,0-14.3,0-22.1C357.6,182,357.5,186.5,351.3,196.2z"/>
	<path class="st0" d="M356.9,193.1c0.4-4.4,0.6-8.9,1.2-13.3c0.3-1.9,1.4-3.6,3.1-5.2c-0.3,4.3-0.5,8.5-0.7,12
		c2,0.4,3.5,0.7,5.1,1.1c-0.5,6-4.7,5.6-8.9,5.2C356.7,192.9,356.9,193.1,356.9,193.1z"/>
	<path class="st0" d="M376.7,144.8c2.1,5.3,3.5,9,5.3,13.7c-4.3-1-8.6,3.4-9.3-1.8C372.2,153.5,374.8,149.9,376.7,144.8z"/>
	<path class="st0" d="M11,47.7c1.5-5.4,2.8-10.1,4.1-14.8c0.4,0,0.8,0,1.2,0c0,0.9-0.2,1.9,0.1,2.8c0.3,1.1,1.2,2.1,1.5,3.3
		c0.6,1.8,1.6,3.8,1.3,5.5c-0.2,0.9-2.8,1.3-4.3,1.9C13.9,46.8,12.8,47.1,11,47.7z"/>
	<path class="st0" d="M288.8,64.3c-0.2-1.3-0.3-2-0.4-2.8c-0.8,0.9-1.5,1.9-3.1,3.7c-0.5-4.7-1-9.1-1.6-14.4
		C293.6,59.3,293.9,60.4,288.8,64.3z"/>
	<path class="st0" d="M260.2,196.2c1.4-1,2.8-2,4.3-3c1-0.4,2.1-0.8,3.1-1.1c0.4,0.4,0.7,0.8,1.1,1.1c-5.4,5-10.9,10-16.3,15.1
		c-0.5-0.5-1.1-1-1.6-1.5C253.9,203.3,257.1,199.8,260.2,196.2z"/>
	<path class="st0" d="M90.5,160.2c0.4,1.6,0.9,3.1,1.1,3.9c2,1.3,3.6,2.2,4.8,3.5c0.3,0.3-1.2,2.2-1.9,3.3c-0.4-0.7-0.8-1.4-1.1-2
		c-0.8,0.9-1.6,1.8-2.5,2.7c-0.8-0.8-1.8-1.6-2.5-2.5c-0.9-1.3-2-2.8-2.3-4.3c-0.2-0.7,1-1.9,1.8-2.7c0.8-0.8,1.8-1.3,2.7-1.9
		C90.6,160.1,90.5,160.2,90.5,160.2z"/>
	<path class="st0" d="M61.7,146.8c3.5,4.2,2.4,6-6.3,10.3c-0.7-2.2-1.7-4.3-1.7-6.5c0-0.9,2.2-2.8,3-2.6c1.3,0.4,2.3,2,3.8,3.5
		C60.9,150,61.2,148.6,61.7,146.8z"/>
	<path class="st0" d="M391.5,143.4c0.6,4.8,1.2,9.5,1.8,14.2c-0.4,0.1-0.8,0.2-1.2,0.3c-2-3.2-4.5-6.3-5.7-9.8
		C385.1,144.5,387.9,143.5,391.5,143.4z"/>
	<path class="st0" d="M116.6,13.2c0.7,2.4,1.4,4.9,2.2,7.4c0.5-0.1,1-0.2,1.4-0.3c0.2-1.4,0.5-2.7,0.7-4.2c0.3,0.2,0.7,0.2,0.8,0.4
		c2.8,5.5-0.6,7-5,7.9C113.4,20.8,113.4,17.2,116.6,13.2z"/>
	<path class="st0" d="M193.7,196c1.2,8.8-4.5,13.6-9,19.1c-0.4-0.2-0.9-0.4-1.3-0.7C186.7,208.6,190,202.6,193.7,196z"/>
	<path class="st0" d="M120.8,26.3c-2.3,4.9-4.6,9.7-6.8,14.3C111.7,33,114.6,26.6,120.8,26.3z"/>
	<path class="st0" d="M408.1,137.3c-0.2-0.5-0.3-1.1-0.6-1.6c-3.3-5.6-3.3-5.6,2-10.8c0.8,2.8,1.6,5.3,2,6.6
		C410,134.1,409,135.7,408.1,137.3C408,137.3,408.1,137.3,408.1,137.3z"/>
	<path class="st0" d="M8.9,113.3c1.1,7.1,2.1,13.7,3.2,20.4C7.7,129.5,6,119.5,8.9,113.3z"/>
	<path class="st0" d="M137,18c-0.1-1.2-0.2-2.5-0.3-3.9c-0.6,0.9-1.2,1.6-1.7,2.3c-0.6-0.2-1.2-0.4-1.8-0.7c0.5-1.9,0.6-4.2,1.8-5.7
		c0.6-0.8,3-0.3,4.6-0.3c-0.1,2.8-0.2,5.6-0.3,8.4C138.5,18.1,137.7,18.1,137,18z"/>
	<path class="st0" d="M249.7,23.5c-4.2,2.6-8.3,5.1-12.2,7.5c0.6-1.4,0.9-5.4,2.7-6.1C242.9,23.8,246.1,19.3,249.7,23.5z"/>
	<path class="st0" d="M249.3,59c0.5-3.3,1.1-6.7,1.6-10c0.3,0,0.6,0,1,0c0.3,0.9,0.7,1.8,1,2.8c0.9-0.5,1.6-1,2.4-1.4
		c0.4,0.2,0.9,0.5,1.3,0.7c-1.5,2.8-3,5.6-4.4,8.4C251.2,59.3,250.2,59.1,249.3,59z"/>
	<path class="st0" d="M270.4,71.5c0-3.4,0-6,0-8.5c0.5-2.7,5.3,2.2,4.6-2.6c0.7,0,1.9,0.1,1.9,0.2c0.1,1.2,0.5,2.8-0.1,3.7
		C275,66.6,272.9,68.6,270.4,71.5z"/>
	<path class="st0" d="M106.1,58.6c-2-2.6-3.8-5-6.3-8.3c2.3-0.9,4.5-1.7,7.3-2.8C106.8,51.1,106.5,54.9,106.1,58.6z"/>
	<path class="st0" d="M32.1,128c-0.3,0.5-1,1.7-2.8,4.8c-2.3-6-4.1-10.7-5.9-15.4c0.3-0.2,0.7-0.3,1-0.5
		C26.8,120.4,29.2,123.9,32.1,128z"/>
	<path class="st0" d="M418.5,161.5c0.6,4.1,1.2,8.1,2,13.1c-2.6-1.1-4.2-1.7-4.9-2c0.4-3.8,0.7-7.2,1-10.7
		C417.3,161.8,417.9,161.6,418.5,161.5z"/>
	<path class="st0" d="M298.3,57.5c1,2.8,2.1,5.1,2.8,7.6c0.3,1.1-0.5,2.4-0.8,3.6c-0.9-0.6-2.4-1.1-2.7-1.9
		C296.5,63.5,293.4,59.7,298.3,57.5z"/>
	<path class="st0" d="M195.1,153.5c-0.5,1.3-1,2.6-1.6,4.2c1.4-0.3,2.2-0.5,3.7-0.9c-1,1.2-1.5,1.9-2.5,3.1c1.7,0.3,3.1,0.6,4.8,0.9
		c-0.7,1-1.4,2.6-1.9,2.5c-2-0.3-5.4-1-5.5-1.8c-0.2-2.8,0.7-5.7,1.2-8.5C194,153.2,194.6,153.4,195.1,153.5z"/>
	<path class="st0" d="M257.8,55.2c2.8,4.2,3.5,7.2-1.3,8.5c-1.1,0.3-2.4-0.2-3.7-0.3C254.3,60.8,255.9,58.2,257.8,55.2z"/>
	<path class="st0" d="M101.3,192.1c-2.4-4.6-4.9-9.2-7.3-13.8c0.8-0.4,1.6-0.8,2.3-1.2c2.3,4.7,4.6,9.4,6.9,14.1
		C102.6,191.5,102,191.8,101.3,192.1z"/>
	<path class="st0" d="M326.4,196.4c3.3-4.3-3.4-11.1,5.1-15c-1.3,5.8-2.4,10.8-3.4,15.7C327.6,196.9,327,196.6,326.4,196.4z"/>
	<path class="st0" d="M346.6,98.5c0.8,0,1.6,0,2.4,0c-1,4.1-2,8.2-3,12.3c-0.8-0.2-1.5-0.4-2.3-0.5
		C344.7,106.4,345.7,102.4,346.6,98.5z"/>
	<path class="st0" d="M83.5,154.3c1.7-1.9,3.4-3.8,5.1-5.7c0.6,1.5,2.2,3.6,1.7,4.4c-1.1,1.6-3.2,2.6-4.9,3.8
		C84.8,155.9,84.1,155.1,83.5,154.3z"/>
	<path class="st0" d="M272.4,57.3c-4.5-1.3-5.5-7.8-1.7-13.3C271.3,48.7,271.9,52.9,272.4,57.3z"/>
	<path class="st0" d="M363.3,134.5c1.6-2,3.2-4,4.8-6c0.6,0.2,1.2,0.4,1.8,0.5c-0.2,1.9,0.2,4.3-0.7,5.7c-0.7,1.1-3.2,1-4.9,1.4
		C363.9,135.6,363.6,135,363.3,134.5z"/>
	<path class="st0" d="M42.6,29.9c-3.3,2-6.6,3.9-9.9,5.9c-0.2-0.2-0.4-0.4-0.6-0.6c1.7-2.4,3.1-5.1,5.2-6.9c1-0.8,3.5,0.1,5.4,0.3
		C42.7,29,42.6,29.4,42.6,29.9z"/>
	<path class="st0" d="M187.6,4.2c3.8,2.6,6.5,4.4,9.4,6.4c-2.3,2.1-3.9,3.5-5,4.5C190.7,11.9,189.4,8.7,187.6,4.2z"/>
	<path class="st0" d="M97.1,156.2c2,2.2,3.9,4.5,6.7,7.6c-2.6,0.5-5.4,1.3-5.6,0.9c-1.3-2.6-1.9-5.4-2.8-8.2
		C95.9,156.4,96.5,156.3,97.1,156.2z"/>
	<path class="st0" d="M240.3,56.4c1.8-2.6,3-4.4,4.3-6.3c5,3.7,1.7,6.2-1.4,9.9C242,58.6,241,57.3,240.3,56.4z"/>
	<path class="st0" d="M198.1,173.4c-1.8,0.7-3.8,1.4-6.7,2.6c0.7-4.3,1.2-7.1,1.7-10C194.5,168,195.9,170.1,198.1,173.4z"/>
	<path class="st0" d="M90.5,160.2l0.2-0.1c-1.8-0.2-3.6-0.4-6-0.7c3.5-1.8,6.2-3.1,9.3-4.7c0.2,1.2,0.7,3.3,1.3,6.1
		C93.2,160.5,91.8,160.3,90.5,160.2z"/>
	<path class="st0" d="M203.5,154.3c2.1-2.7,3.9-4.9,5.7-7.2c0.4,0.2,0.7,0.4,1.1,0.5c-1.7,3.9-3.4,7.8-5.6,12.9
		C204,157.2,203.7,155.3,203.5,154.3z"/>
	<path class="st0" d="M318.8,144.7c0.7,2.5,1.5,5,2,7.5c0.2,1-0.5,2.2-1,3.2c-0.2,0.3-1.7,0.4-1.8,0.2c-0.5-1-1.2-2.2-1.1-3.3
		c0.2-2.6,0.8-5.1,1.2-7.7C318.2,144.6,318.5,144.7,318.8,144.7z"/>
	<path class="st0" d="M253.3,186.9c0-3.8,0-7.7,0-11.3c-0.9,0.3-1.7,0.5-2.4,0.7c-0.1-1.2-0.2-2.4-0.3-3.6c1,0,2.7-0.4,2.9,0
		c0.8,1.6,1.5,3.4,1.6,5.1c0.1,3.1-0.4,6.2-0.6,9.2C254.1,187.1,253.7,187,253.3,186.9z"/>
	<path class="st0" d="M325,202.3c-1.2-3.6-2.4-7.2-3.8-11.1c1.9,0.1,2.9,0.2,2.9,0.2c1.2,3.8,2.3,7.1,3.3,10.3
		C326.6,201.9,325.8,202.1,325,202.3z"/>
	<path class="st0" d="M386.9,172.7c0.6-3.3,1.2-6.7,1.8-10.3C392.3,164.6,392.3,164.6,386.9,172.7z"/>
	<path class="st0" d="M152.8,119.3c-1.9,0-2.7,0-4.1,0c0.8,1.4,1.5,2.4,2.1,3.4c-0.3,0.1-0.8,0.4-0.9,0.4c-2.1-3.2-4.1-6.4-6.1-9.7
		c0.4-0.3,0.9-0.7,1.3-1C147.6,114.5,149.8,116.5,152.8,119.3z"/>
	<path class="st0" d="M90.7,108.1c-0.3,3.6-0.6,7.2-1.1,12.2c-5.2-5.6-0.5-8.8-0.6-12.4C89.6,108,90.1,108,90.7,108.1z"/>
	<path class="st0" d="M239.5,70.2c1.6-2.4,3-4.6,4.4-6.7c0.4,0.6,0.8,1.1,1.2,1.7c0,3.1,0,6.2,0,9.8C243,73.2,241.4,71.9,239.5,70.2
		z"/>
	<path class="st0" d="M145.8,15.8c-1.7-2.2-2.6-3.3-2.9-3.7c1.2-2.7,2.2-4.9,3.2-7c0.7,0.2,1.4,0.4,2.1,0.6
		C147.5,8.6,146.8,11.7,145.8,15.8z"/>
	<path class="st0" d="M97.5,177.9c-0.4-1.9-1.4-3.9-1.1-5.8c0.2-1.8,1.7-3.4,3.2-5.9c0,4.3,0,7.9,0,11.5
		C98.9,177.8,98.2,177.9,97.5,177.9z"/>
	<path class="st0" d="M334,213c-0.8-1.9-1.4-3.3-2.2-5.2c1.7,0.6,2.9,1.1,3.5,1.3c0.2-1.3,0.7-3.6,1.2-6.5
		C340,207.1,339.5,208.9,334,213z"/>
</g>
</svg>
