<?xml version="1.0" encoding="utf-8"?>
<!-- Generator: Adobe Illustrator 19.1.0, SVG Export Plug-In . SVG Version: 6.00 Build 0)  -->
<svg version="1.1" id="Layer_1" xmlns="http://www.w3.org/2000/svg" xmlns:xlink="http://www.w3.org/1999/xlink" x="0px" y="0px"
	 viewBox="-114 -98.7 612 792" style="enable-background:new -114 -98.7 612 792;" xml:space="preserve">
<style type="text/css">
	.st0{fill:#FFFFFF;}
</style>
<g>
	<path class="st0" d="M218.2,250c-2.1,1-3.7-2.1-3.9-4.4c-1.4-13.5-1.7-27.2-1.1-40.7c0.3-0.8,1.6-0.7,2.1,0s0.5,1.6,0.5,2.5
		C215.1,221.6,215.9,235.9,218.2,250z"/>
	<path class="st0" d="M-33.9,80.2c0-1.9,0.1-4.1,1.4-5.5s3.4-1.6,5.4-1.7c149.2-7.5,298.6-8.9,447.9-4.1
		c-0.7,33.3-1.5,66.6-2.2,99.9c-39.3,4.6-79,6-118.5,7.4c-24.4,0.8-48.8,1.7-73.1,2.5c-83.5,2.9-167.2,5.8-250.4-1
		c4.1-2,8.9-1.9,13.5-1.6c121.1,5.7,242.4,0.3,363.4-5.2c20.5-0.9,41.2-1.9,61.3-6.2c1.6-30.1,2.3-60.3,2.1-90.5
		c-1.8,2-4.6,3.7-7,2.6c-2.4-1.1-1.8-5.9,0.8-5.3C265.1,67.6,119.4,69-26,75.7c4.7,7.7,15.6,7.7,24.6,7c37.9-3.1,76-3.4,113.9-0.8
		C76.1,82.4,39.7,83,3.3,83.5c-9.1,0.1-20.6,2-23,10.8c1.5-6.9-3.4-14.6-10.3-16.2c-1,31.3-0.3,62.7,2.2,93.9
		c5.1,0.7,9.5-4.5,10.2-9.6s-1.2-10.2-2.6-15.2c-4.7-16.7-4.3-34.3-2.7-51.6c1.5,18,3,35.9,4.5,53.9c0.6,7.3,6.8,13.2,13.7,15.8
		c6.9,2.6,14.4,2.5,21.8,2.3c49.6-1,99.1-1.9,148.7-2.9c-54.7,4.9-109.8,7-164.6,3.6c-9.7-0.6-21.3-0.6-26.9,7.5
		c-2,2.9-5.6-1.8-5.8-5.3C-33.1,140.4-33.8,110.3-33.9,80.2z"/>
	<path class="st0" d="M350,237.6c0.5-12.5,1.1-25,1.6-37.5c0.1-1.2,0.1-2.4,0.8-3.4c0.7-1,2.1-1.5,3.1-0.8
		c-1.9,16.1-2.7,32.3-2.4,48.5C350.4,243.9,349.9,240.3,350,237.6z"/>
	<path class="st0" d="M404.8,77.7c2,1.5,2.5,4.2,3,6.7c4.2,24.9,2.8,50.8-4,75.2c0.7,1.5,1.4,3,2.1,4.5c-4.3-4.4-11.6-2.7-17.6-1.5
		c-8.4,1.7-16.9,1.7-25.5,1.8c-64.7,0.4-129.4,0.7-194.1,1.1c73.2-1.9,146.5-3.9,219.7-5.8c4.4-0.1,9.2-0.4,12.2-3.7
		c1.9-2,2.6-4.8,3.2-7.5c4.5-20.4,4.9-41.7,1.1-62.2c-0.4-1.9-0.8-4-2.2-5.3c-1.6-1.5-4-1.7-6.2-1.8c-81-3.4-162.2-2.5-243.1,2.8
		c-11.6,0.8-23.3,1.6-34.8,0.1C157,79,195.5,76.8,234,75.7c54.8-1.6,109.7-1.1,164.6,0.4C400.6,76.2,403,76.3,404.8,77.7z"/>
	<path class="st0" d="M264.1,94.6c-0.6,6.3-1.2,12.6-1.7,18.9c1.3,1.8,4.4,1,5.6-0.9s1-4.3,0.7-6.5c-0.6-3.9-1.4-7.8-2.6-11.6
		c1.8-1.3,3.8,1.6,4.2,3.8c0.9,5.7,1.3,11.6,0.9,17.4c0,0.8-0.2,1.7-0.8,2.1c-0.4,0.2-0.8,0.2-1.3,0.2c-2.5,0-5.1,0-7.3-1.1
		c-2.2-1.2-3.8-3.9-2.8-6.2c1.2-2.7,1-5.7,1.2-8.7C260.5,99.2,261.5,96,264.1,94.6z"/>
	<path class="st0" d="M224.2,441.1c-97.5,7.3-195,14.7-292.6,22c13.2-6.4,21.2-22,18.8-36.5C-61.8,352-37.3,275.7-44,200.4
		c-3.9-44.4-18.7-88.3-13.9-132.6c165-8.1,330.4-16.2,495.2-5.8c2.8,0.2,5.8,0.5,7.7,2.5c1.8,1.9,2,4.8,2.1,7.4
		c5.6,117.5,1.2,235.5-13.2,352.3c7.4,0.1,14.7,3.5,19.5,9c-53.6-0.5-107.1,0.5-160.6,3c3.9,2.4,7.9,4.9,11.8,7.3
		c-6,2.2-13.5-1.2-15.6-7.2C267.5,437.9,245.9,439.5,224.2,441.1 M160.6,309.4c43.2-9.3,87.8-12.5,131.9-9.5
		c7.1,0.5,16.3,3.3,16.1,10.5c-1,38.3-2,76.5-3,114.8c0,1.8,0,3.8,1.2,5.2c1.4,1.6,3.8,1.6,5.8,1.6c43.4-0.8,86.9-1.6,130.3-2.3
		c-27.3-5.7-55.4-5-83.2-4.2c-17,0.5-33.9,0.9-50.9,1.4c40.2-6.3,81.2-7.2,121.6-2.2c15-114.4,19.7-230.2,14.2-345.5
		c-0.2-3.6-0.5-7.6-2.8-10.4c-3-3.6-8.2-4.1-12.8-4.4c-159.6-9.6-319.7-1.8-479.4,6c-1.6,0.1-3.4,0.2-4.5,1.4
		c-1.2,1.2-1.3,3-1.3,4.6c-0.8,45.3,13.1,89.5,15.8,134.7c2.7,44.8-5.6,89.4-8.4,134.2c-2.1,33.1-1.1,66.3,2.9,99.2
		c0.3,2.6,1.6,6,4.2,5.6c55.1-7.8,110.9-11,166.5-9.4c2.3-35.4,6.8-70.6,13.5-105.3c1.5-7.9,3.6-16.5,10.1-21.2
		C152,311.4,156.4,310.3,160.6,309.4 M220.5,326c1.2,36.8,2.5,73.6,3.7,110.5c19.9-1.4,39.9-2.8,59.8-4.2c2.2-0.2,5.1-1,5-3.3
		c-2.1-38.6-1.5-77.4,1.9-115.9c2.9-0.2,3.6,3.9,3.3,6.8c-3.5,33.8-4.4,67.9-2.7,101.9c0.1,2.9,0.4,6.1,2.1,8.4
		c1.8,2.4,5.6,3.4,7.7,1.3c1.3-1.4,1.5-3.5,1.5-5.4c1-37.3,2-74.7,3-112c0.1-3.5-0.8-8.2-4.3-8.4c-2.9,3.2-7.6,3.7-11.8,4
		c-21.2,1.7-42.5,3.4-63.7,5.2C221.5,315.2,220.3,321.4,220.5,326 M217.5,317.6c-17.4,1.9-34.9,3.7-52.3,5.6c-3.5,0.4-7.5,1-9.6,3.9
		c-1.1,1.5-1.4,3.5-1.7,5.3c-5.9,36.4-11.7,72.9-17.6,109.3c-0.2,1.5-0.4,3.3,0.8,4.2c0.9,0.7,2.1,0.6,3.2,0.5
		c25.2-2.7,50.3-5.3,75.5-8c1.3-0.1,2.8-0.4,3.7-1.4c0.7-0.9,0.8-2.2,0.8-3.3C220.4,395,219.5,356.3,217.5,317.6 M148.7,317.7
		c-3.2,2.3-4.3,6.4-5.2,10.1C134,367,129,407.3,128.6,447.7c4.4-2.4,5.1-8.3,5.6-13.2C137.7,395.3,151.8,356.9,148.7,317.7
		 M-59.5,460.1c59-8.3,118.6-11.8,178.1-10.5c2.1,0,5-0.6,5-2.7c0-2-2.6-2.7-4.6-2.8c-51.8-2.2-103.6,2.6-155.2,7.5
		C-44.7,452.4-54,453.7-59.5,460.1 M213,309.6c0.3-2.5,1-4.9,2.1-7.1c-18,3.3-36,6.5-54,9.8c-2.7,0.5-5.7,1.1-7.6,3.2s-1.6,6.1,1,7
		c18.7-6.4,39.5-3.2,58.7-7.9c2.2-0.5,4.6-1.3,5.7-3.3c1.2-1.9,0-5.2-2.3-5C216.7,308,214.9,309.7,213,309.6 M297.4,303.7
		c-24.4-3.3-49.1-1.2-73.6,0.9c-0.9,0.1-1.8,0.2-2.4,0.8c-0.4,0.4-0.5,0.9-0.7,1.5c-0.5,2,0,5.1,2.1,5c23.5-1.9,47.1-3.9,70.6-5.8
		C295.1,305.9,297.2,305.3,297.4,303.7z"/>
	<path class="st0" d="M200.3,374c-1.6-3.3-3.9-7.4-1.5-10.2c5.2,0.7,8.2,6.5,8.5,11.8s-1.2,10.5-0.6,15.8c0.4,3.3,1.5,6.6,0.7,9.8
		s-5.2,5.6-7.5,3.2c-2.1-2.2-0.5-5.8,0.8-8.5C203.8,389,203.7,380.8,200.3,374 M203.8,401.4c1.1-1.3,0.7-3.5-0.7-4.4
		c-0.9,1.1-1.4,2.6-1.5,4C202.3,401.4,203.2,401.6,203.8,401.4 M202.7,369.6c-1.3,0.1-0.9,2.6,0.4,2.3c0.5-0.6,0.3-1.8-0.5-2.1
		L202.7,369.6z"/>
	<path class="st0" d="M115.9,322.1c2,1.2,2.1,4,2,6.3c-1,18.8-1.9,37.6-2.9,56.4C69.2,392.2,23,397-23.4,399c-1.5,0.1-3.3,0-4.3-1.1
		c-0.8-0.9-0.8-2.1-0.9-3.3c-0.8-19.3-0.8-38.6,0.1-57.9c19.2-2.9,38.4-5.8,57.6-8.7c27.8-4.2,55.9-8.4,83.9-6.5
		C114.1,321.5,115.1,321.6,115.9,322.1 M112.6,376c0.8-14.8,1.5-29.5,2.3-44.3c0.2-3.2-0.7-7.7-4-7.6c-44.8,0.8-89.5,6.1-133.2,15.7
		c-4.1,0.9-4.8,6.3-4.7,10.5c0.5,13.7,0.9,27.4,1.4,41.1c0,1.1,0.1,2.4,0.7,3.3c1.2,1.9,3.9,2,6.2,1.8c41.3-3,82.6-7.3,123.6-12.9
		c2.4-0.3,5.1-0.8,6.5-2.8C112.4,379.4,112.5,377.7,112.6,376z"/>
	<path class="st0" d="M235.1,252.8c-3.8-15.4-4.7-31.5-2.6-47.2c2.4,15.5,3.7,31.2,3.8,46.9c3.5,1,7.4,0.8,10.7-0.8
		c-6.5-4.5-7.3-13.6-7.4-21.6c-0.2-9.4-0.3-18.9-0.5-28.3c-11.3,1.2-22.8,0.7-33.9-1.4c24.8-1.1,49.7-2.3,74.5-3.4
		c4.7-0.2,10.5,0.3,12.3,4.6c0.7,1.7,0.6,3.6,0.4,5.4c-1.2,13.6-2.4,27.3-3.6,40.9c-0.2,1.8-0.4,3.7-1.8,4.8
		c-0.9,0.7-2.1,0.8-3.3,0.9c-36.5,3.3-73.2,4.9-109.9,4.9c-3.5,0-7.1-0.1-10.3-1.5c-3.2-1.4-5.8-4.7-5.4-8.1
		c1.7-14.5,3.4-29,5.1-43.5c0.1-1.1,0.3-2.3,0.9-3.3c1-1.5,2.9-1.9,4.7-2.3c11.1-2,22.5-1.9,33.6,0.4c-5.8,3.6-13.2,1.4-19.9,0.6
		c-6.8-0.8-15.5,1.5-16.4,8.2c-1.4,9.8-2.7,19.7-4.1,29.5c-0.5,3.8-1,7.7,0.3,11.3c1.3,3.5,5.2,6.5,8.8,5.4c5.2-1.6,5.5-8.6,4.9-14
		c-1.1-11.1-1.1-22.2,0-33.3c0.2-2.2,1.7-5.2,3.7-4.2c-1.6,14.4-2.1,29-1.4,43.5c0.1,2.1,0.3,4.3,1.5,6s3.9,2.5,5.5,1
		c-2.5-14.1-3.3-28.5-2.2-42.8c0.2-2.2,1.3-5.1,3.4-4.6c-0.2,9.2-0.5,18.4-0.7,27.6c-0.1,5.9-0.2,12.2,3,17.1s10.9,7.3,15,3.1
		c-0.2-17.4-0.3-34.8-0.3-52.2c2.8,0.8,3.3,4.6,3.3,7.5c0,14.8-0.1,29.6-0.1,44.4C216.3,255.1,225.8,254.6,235.1,252.8 M245.6,245.2
		c0.6-1.9,2-3.6,3.8-4.5c2.2,3-3.9,7.9-1.2,10.5c0.8,0.7,1.9,0.8,3,0.8c4.3,0.1,8.7-0.1,13-0.5c0.8-16.5,2.3-33,4.4-49.3
		c0.3-2.2-3.1-3.3-4.8-2c-1.8,1.3-2.2,3.8-2.4,6c-1.7,14-2,28.2-0.9,42.2c-1,0.1-1.9,0.3-2.9,0.4c-1-16.1-0.6-32.2,1-48.2
		c-5.5,0.8-11.1,1.5-16.7,2c0.4,12.7,0.8,25.5,1.1,38.2C243.1,242.7,243.7,245.2,245.6,245.2 M266.4,251c5.3,0.3,10.6,0.4,15.9,0.3
		c2.6,0,3.6-3.3,3.8-5.9c1.1-12.5,2.1-24.9,3.2-37.4c0.2-2.5,0.2-5.4-1.7-6.9c-1.1-0.9-2.5-1.1-3.9-1.2c-2.4-0.3-4.9-0.6-7.3-0.9
		c-1.1-0.1-2.2-0.2-3.1,0.3c-1.4,0.8-1.7,2.6-1.9,4.2C269.7,219.4,268.1,235.2,266.4,251z"/>
	<path class="st0" d="M242.8,355c2.4-0.5,4.6,2.1,4.4,4.6c-0.1,2.5-1.8,4.5-3.5,6.3s-3.6,3.6-4.3,5.9c-1.6,4.9,2.1,10.4,0.1,15.1
		c-2.3,5.4,7.2,11.2,3.9,16.1c-1.7,2.6-6.1,1.9-8.1-0.5s-2.2-5.8-2.4-8.9c-0.3-8.8,0-17.6,1.4-26.3c0.3-2,0.8-4,2.1-5.5
		c1.3-1.5,3.8-2.1,5.3-0.8c-1.7,1.1-3,2.8-3.7,4.7C243,365.6,246,358.7,242.8,355 M237.3,401c1.6,1,3.6-1.1,3.2-3
		c-0.4-1.8-2.1-3-3.7-4c-0.8,2.2-0.4,4.7,1.1,6.5L237.3,401z"/>
	<path class="st0" d="M0.6,273.1c-3.4-3.3-9.6,0.1-13.6-2.4c-2.9-1.8-3.3-5.7-3.5-9.1c-0.5-12-1.1-24-1.6-36c-0.1-2.3-0.2-4.8,1-6.9
		c1.8-3,5.7-3.8,9.1-4.3c21.3-3.4,42.6-6.8,63.9-10.2c1.4,14.6,1.4,29.3-0.1,43.9c-0.6,6-2.7,13.4-8.7,14.4
		c7.3-16.7,9.5-35.5,6.1-53.4c-0.1-0.6-0.3-1.3-0.8-1.7c-0.6-0.4-1.3-0.3-2-0.2c-5.1,1-10.1,2-15.2,3c-1.5,0.3-3.1,0.6-4.3,1.7
		c-1.9,1.7-2,4.5-2,7c0.2,14.4,1,28.8,2.2,43.2c0.1,1.2,0.3,2.6,1.3,3.3c0.9,0.7,2.1,0.6,3.2,0.5c7.5-0.7,14.9-1.5,22.4-2.2
		c1.3-0.1,2.9-0.4,3.5-1.6c0.4-0.7,0.3-1.6,0.2-2.4c-1.8-17.2-2.3-34.5-1.4-51.7c0.1-1.6,0.2-3.4,1.4-4.5c1-1,2.4-1.2,3.7-1.4
		c6.5-0.9,13.1-1.1,19.6-0.5c-0.3,5.3,0.1,10.7,1.3,15.9c0.6-4.4,1.2-8.9,1.7-13.3c0.1-1.1,0.4-2.3,1.2-3c0.7-0.6,1.7-0.6,2.7-0.5
		c4.7,0.1,9.4,0.5,14,1.2c3.1,0.5,6.7,1.3,8.2,4.1c0.9,1.6,0.9,3.4,0.9,5.2c0,14.3,0.1,28.6,0.1,42.9c0,5.4-1.8,12.7-7.2,12.5
		C72.2,265.5,36.2,267.7,0.6,273.1 M-7,218c-2.4-1.2-5.4,0.4-6.7,2.8c-1.3,2.3-1.2,5.1-1.2,7.8c0.2,10,0.5,20,0.7,30
		c0.1,2.7,0.2,5.5,1.7,7.7c1.6,2.3,4.8,3.3,7.4,2.5c2.7-0.8,4.7-3.5,4.7-6.3c0.2-10.9,0.5-21.8,0.7-32.7c0.1-4,0.4-8.4,3.4-11
		c-0.7,16-1.4,31.9-2,47.9c7.8,0.1,15.7,0.2,23.5,0.3c0.8,0,1.8,0,2.4-0.6c0.8-0.7,0.8-2,0.6-3.1c-2.1-16.8-2.9-33.8-2.5-50.7
		c-1.5-1.4-4.1-0.2-5,1.7c-0.8,1.9-0.4,4-0.1,6c2.4,13.8,1.7,27.9,1,41.9c-0.1,1.2-0.2,2.5-1.1,3.2c-0.9,0.8-2.7,0.2-2.6-0.9
		c1.8-13.9,1.9-27.9,0.2-41.8c-0.2-2-0.5-4-1.6-5.7s-3-3-5-2.5c-2.7,0.6-5.5,0-8.2,0.2c-2.7,0.3-5.8,2-5.8,4.7
		c-0.4,13.1-0.8,26.3-1.2,39.4c-0.1,1.8-0.1,3.7-1.2,5.2s-3.4,2.1-4.7,0.8c3.7-4.4,3.8-10.6,3.8-16.2c0-9.1,0-18.3-0.1-27.4
		c0-0.8,0-1.6-0.4-2.3C-6.1,218.6-6.5,218.3-7,218 M96.3,203.8c-1.2,0-2.5,0.1-3.5,0.7c-1.7,1-2.1,3.2-2.4,5.2
		c-2.2,15.7-2,31.7,0.6,47.3c0.3,1.5,0.6,3.2,1.7,4.3c2.3,2.3,6.2,1,9.5,1.4c2,0.2,4,1.2,5.9,0.7c3.3-0.9,4-5.2,4.1-8.7
		c0.2-14,0.4-28,0.6-42c0-3.5-2.8-6.5-6-7.8C103.3,203.6,99.8,203.7,96.3,203.8 M86.7,237.2c0.4-3.6,0.9-7.6-1.5-10.3
		c-0.7,4.9-1.4,9.8-2.1,14.7c-0.9,6-1.9,12.5-6.2,16.8c-1.1-0.2-2.2-0.5-3.3-0.7c9.4-14.2,9.5-32.4,9.2-49.5c0-1.2-0.1-2.5-0.7-3.5
		c-0.6-1-2.1-1.6-3.1-1c-3.7,2.5-9.1-0.8-13,1.4c-3.3,1.8-3.6,6.3-3.5,10.1c0.3,11.6,0.6,23.1,0.9,34.7c0.1,2.9,0.2,6,1.4,8.7
		c1.3,2.7,4,4.8,7,4.5c5.7-0.7,11.5-1,17.2-0.7C86.6,254.1,85.8,245.6,86.7,237.2z"/>
	<path class="st0" d="M343.5,99.4c-2.6,11.8-3.2,24-1.7,35.9c0.3,2.4,1.8,5.5,4.1,4.7c0.7-0.3,1.2-0.9,1.7-1.6
		c2.3-3.6,3.2-8.2,2.3-12.4c-0.5-2.5,2.1-4.9,4.7-4.7s4.7,2.4,5.5,4.8c0.9,2.4,0.7,5.1,0.4,7.7c-0.5,4.2-1.3,8.4-2.4,12.4
		c-0.8,2.8-1.8,5.7-3.9,7.7c-5.2,5.1-14.7,2.1-18.8-3.9c-4.1-6.1-4.3-13.9-4.3-21.2c-0.1-11.7-0.2-23.6,3.1-34.9
		c1.6-5.5,9-7.6,14.2-5.2c5.2,2.4,8.3,7.9,9.8,13.4c0.9,3.3,1.4,7-0.3,10c-1.7,3-6.3,4.4-8.6,1.9c-2-2.1-1.4-5.4-1.3-8.3
		C347.9,102.8,346.4,99.2,343.5,99.4 M353.8,124.5c-0.1,4.5-0.8,8.9-2.1,13.2c-0.7,2.2-1.6,4.6-3.7,5.6c-2.9,1.6-6.8-0.4-8.4-3.3
		c-1.6-2.9-1.6-6.4-1.6-9.8c0.1-7.6,0.2-15.1,0.3-22.7c0-2.4,0.1-4.8,1-7s2.9-4.1,5.3-4.2c2.7-0.1,5.1,2.2,5.9,4.8s0.5,5.4,0.2,8.1
		c-0.2,1.7,2.5,2.3,3.6,1.1c1.2-1.2,1.2-3.1,1-4.7c-0.5-4.2-1.7-8.5-4.6-11.5c-3-3-8.1-4.2-11.5-1.7c-2.6,1.9-3.5,5.4-4.1,8.6
		c-1.8,10.4-1.3,21-0.8,31.6c0.3,5.4,0.8,11.3,4.1,15.6c3.4,4.3,10.7,5.9,14.1,1.7c1.3-1.6,1.8-3.7,2.3-5.8
		c0.8-3.6,1.7-7.2,2.5-10.7c0.4-1.8,0.9-3.8,0.4-5.6C357.4,125.9,355.7,124.2,353.8,124.5z"/>
	<path class="st0" d="M399.3,188.5c-15.7,1.5-31.5,2.9-47.2,4.4c-1.7,0.2-3.6,0.4-4.8,1.7c-1,1.2-1.1,2.8-1.2,4.4
		c-0.6,12.7-1.1,25.3-1.7,38c-0.1,2.6-0.2,5.3,0.8,7.6c1,2.4,3.3,4.4,5.9,4.1c7.6-0.8,15.2-1.6,22.7-2.4
		c-1.1-15.5-1.5-31.1-1.3-46.6c0-2.4,0.7-5.5,3.1-5.8c0,14.1-0.1,28.2-0.1,42.2c0,3.1,0.1,6.4,1.9,8.8c1.8,2.5,6.1,3.2,7.8,0.7
		c-1.6-17.5-1.8-35.1-0.6-52.6c2.9,1.3,3,5.2,2.7,8.4c-1.4,14.9-1,29.9,1.1,44.6c3.7-0.2,7.4-0.5,11.1-0.7c0.9-0.1,2-0.2,2.6-0.9
		c0.5-0.6,0.5-1.5,0.4-2.2c-0.7-17.4-1.4-34.9-2.1-52.3c-0.1-3.5,4.6-4.6,8.1-4.6c6.2,0.1,12.4,0.2,18.5,0.3c1.8,0,3.8,0.1,5.3,1.1
		c2.8,1.9,2.9,6,2.6,9.4c-1,13.6-2.1,27.2-3.1,40.9c-0.3,3.8-1,8.3-4.3,10.1c-1.5,0.8-3.4,0.9-5.1,1c-10.9,0.4-21.8,0.9-32.7,1.3
		c-0.2,2.1-0.4,4.2-0.6,6.3c-3.8-5.7-12-5.9-18.8-5.4c-11.4,0.8-22.9,1.6-34.3,2.4c-3.3,0.2-7.3,0.2-9.1-2.6c-1-1.5-1-3.5-0.9-5.3
		c0.3-16.1,0.7-32.2,1-48.2c0-0.9,0.1-1.9,0.7-2.6c0.6-0.6,1.5-0.8,2.4-0.8c20.5-2.1,40.9-4.2,61.4-6.3
		C394.2,186.4,397.5,186.3,399.3,188.5 M414.6,243.9c2.9,0.4,5.8,0.9,8.6,0.2c2.8-0.7,5.4-3,5.6-5.9c1-13.8,2-27.6,3-41.4
		c0.2-2.5,0.2-5.4-1.7-6.9c-0.9-0.8-2.2-1-3.4-1.2c-4.4-0.7-9-0.5-13.4,0.5C413.8,207.4,414.2,225.6,414.6,243.9 M334.5,248.9
		c2.9,0.6,7.1,0.1,7.2-2.8c0.5-15.9,0.9-31.8,1.4-47.8c0-1,0-2.2-0.8-2.9c-0.5-0.4-1.1-0.5-1.6-0.6c-3.5-0.5-7.2-0.1-10.5,1
		c-0.6,14.9-1.2,29.8-1.8,44.6c-0.1,2.3-0.1,4.9,1.6,6.6C331.2,248.3,332.9,248.6,334.5,248.9 M404.4,231.2c0,2.8,0.1,5.7,1.1,8.4
		s3.1,5.1,5.9,5.7c0.4-17,0-34-1.2-51c-0.1-2-0.4-4.1-1.9-5.4s-4.5-0.6-4.5,1.3C404,203.9,404.2,217.5,404.4,231.2z"/>
	<path class="st0" d="M425.8,354.9c-0.9,1-2.3,1.1-3.7,1.2c-30.8,2.7-61.6,5.4-92.5,8.2c-1.6,0.1-3.3,0.3-4.7-0.6
		c-1.9-1.2-2.3-3.9-2.4-6.2c-0.7-14-1.5-28-2.2-42c-0.2-3,0.3-7,3.2-7.8c0.6,16.3,1.1,32.6,1.7,49c0,1.4,0.2,2.9,1.2,3.8
		s2.6,0.8,3.9,0.7c30.5-2.7,61-5.4,91.4-8.1c1.9-0.2,2.4-2.6,2.5-4.5c0.6-14.6,1.2-29.3,1.8-43.9c0-1,0.1-2.1-0.5-2.9
		c-0.8-1.1-2.3-1.3-3.6-1.4c-16.7-1.4-33.6-1-50.2,1.2c-13.9,1.9-28.4,5-41.8,0.6c32,1.9,64.4-11.5,95.6-4.3
		c1.1,0.2,2.2,0.6,2.9,1.4c0.9,1,0.8,2.5,0.8,3.8c-0.8,16-1.6,32.1-2.4,48.1C426.8,352.6,426.7,354,425.8,354.9z"/>
	<path class="st0" d="M387.2,85.9c2-0.2,4.2-0.3,5.7,1.1c1.5,1.3,1.7,3.6,1.8,5.6c0.1,3.9-0.3,8.7-3.9,10.2c-2,0.8-4.2,0.3-6.3-0.2
		c-2.1-0.5-4.3-1.1-6.3-0.3s-3.2,3.6-1.7,5.2c1.2,2.2,4.7,1,7.1,1.9c3.2,1.2,3.3,5.7,2.8,9.1c-0.3,1.7-0.6,3.5-1.7,4.9
		s-3.3,2-4.6,0.9c-1-0.8-2.5,0-3.2,1c-2,2.7-1.4,6.8,1,9.3c2.3,2.4,6,3.3,9.3,2.7c3-0.6,5.9,2.2,6.5,5.2c0.7,3-0.2,6.1-1.1,9
		s-4.8,3.2-7.8,3c-3.8-0.3-7.6-0.6-11.4-0.9c-2.5-0.2-5.2-0.5-6.8-2.4c-1.5-1.7-1.6-4.2-1.6-6.5c0-17.9,0.4-35.7,1.2-53.6
		c2.9,1.3,3.1,5.3,2.9,8.4c-0.9,14.7-1.1,29.4-0.5,44.1c0.1,1.6,0.2,3.2,1.1,4.5c1.3,1.6,3.5,2,5.6,2.2c1.7,0.2,3.4,0.4,5,0.6
		c2.8,0.3,5.7,0.6,8.1-0.8c2.4-1.4,3.5-5.2,1.3-7c-4-4-12.2-1.5-15.5-6.2c-1-1.5-1.3-3.4-1.5-5.2c-0.3-2.8-0.6-5.8,0.5-8.3
		c1.2-2.6,4.3-4.5,6.8-3.2c1.8,0.9,3.8-1.4,3.4-3.3c-0.4-1.9-2.2-3.2-4-4s-3.8-1.3-5.3-2.6c-2.6-2.2-2.9-6.4-0.9-9.1
		c2-2.7,5.9-3.7,9-2.5c2.7,1,6,0.6,7.9-1.5c1.9-2.2,1.3-6.2-1.3-7.2c-1.1-0.4-2.2-0.4-3.4-0.3c-7.3,0.5-14.6,1-21.9,1.4
		c-1.3-1.5,1.4-3.1,3.3-3.3C373.7,87,380.5,86.4,387.2,85.9z"/>
	<path class="st0" d="M80.9,139.4c-0.1-16.3-14.7-28.7-19.2-44.3c-0.8-3-6.3-1.8-7.5-4.7c2-2.3,6-1.6,8.2,0.5s3.2,5.1,4.3,8
		c2.6,6.9,6.1,13.4,10.3,19.4c1.8-9.5-4.8-19.8-0.8-28.6c3.6-0.7,7.3-1.4,10.8-0.5s6.7,4,6.5,7.6c-1.1,19.4,0.1,38.8,3.5,57.9
		c0.4,2.2-1.4,4.4-3.5,5.2c-2.1,0.8-4.5,0.6-6.7,0.4c-1.4-0.1-2.8-0.3-4-1c-1.7-1-2.6-3-3.4-4.8c-5.5-12.6-10.6-25.4-15.2-38.4
		c1,13,1.9,26.1,1.1,39.2c-0.2,4-3.5,7.6-7.5,8.2s-8.2-1.8-9.6-5.6c-0.8-2.1-0.8-4.4-0.7-6.7c0.3-19.5,0.6-39.1,1-58.6
		c0-0.8,0.1-1.7,0.8-2c1.2-0.6,2,1.4,2,2.7c-0.2,18.2-0.4,36.4-0.6,54.6c0,2.7,0,5.6,1.2,8.1s4.1,4.3,6.7,3.4c3.3-1.1,4-5.4,4.1-8.9
		c0.2-12.9-0.5-25.8-2.3-38.6c-0.4-3.3-0.1-7.9,3.2-8.5c4.4,16.9,10.9,33.3,19.3,48.7c1.5,2.7,3.7,5.7,6.7,5.2
		c2.1-0.3,3.6-2.3,4-4.4c0.4-2.1,0-4.2-0.4-6.3c-2.9-15.1-4-30.6-3-45.9c0.1-1.9,0.2-3.9-0.8-5.5c-1.4-2.3-4.4-2.9-7.1-3
		c-1.2,0-2.5,0.1-3.2,0.9c-0.7,0.8-0.6,2-0.5,3c1.1,12.3,2.9,24.6,5.6,36.7c0.5,2.2,1,4.6,0.3,6.8C83.2,139.4,82.1,139.4,80.9,139.4
		z"/>
	<path class="st0" d="M270.1,131.5c-0.2-2.9-1.3-6.6-4.2-6.9c-3.4-0.4-5.1,4-5.5,7.5c-0.8,6.3-1.6,12.5-2.4,18.8
		c-0.4,3.1-1.2,6.8-4.2,7.9c-2.7,1.1-5.9-0.9-7.2-3.6c-1.3-2.6-1.1-5.7-0.9-8.7c1.3-17.1,4.2-34,7.6-50.8c0.6-2.7,1.2-5.6,2.8-7.9
		c1.6-2.3,4.5-4,7.2-3.3c3.6,0.9,7.9-1.1,10.7,1.2c1.6,1.4,2,3.7,2.2,5.8c2.1,19.8,4.1,39.5,6.2,59.3c0.2,1.9,0.4,4-0.7,5.6
		c-2.1,3.4-7.9,2-10-1.4s-1.6-7.8-1.4-11.8C270.5,139.4,270.4,135.4,270.1,131.5 M257.3,127.6c0.2-2.8,2.1-5.5,4.7-6.6
		s5.8-0.5,8,1.4c3,2.7,3.3,7.3,3.4,11.4c0.1,4.5,0.2,9,0.3,13.5c0,1.7,0.1,3.6,1,5.1s2.9,2.5,4.4,1.7c-1.9-19.6-3.7-39.3-5.6-58.9
		c-0.2-1.8-0.4-3.7-1.3-5.3c-2.5-4-9.1-3.4-12.4,0s-4.2,8.4-5,13.1c-2.6,15.7-5.3,31.5-5.5,47.5c0,1.4,0.2,3.2,1.5,3.7
		c1.9,0.7,3.2-1.8,3.6-3.8C255.9,142.8,256.8,135.2,257.3,127.6z"/>
	<path class="st0" d="M24.9,146.7c2.6,3.9,9.8,0.4,13.1,3.8c1.8,1.8,1.4,4.8,0.5,7.2c-0.6,1.5-1.5,3.1-3,3.8c-1.8,1-4,0.5-6,0
		c-9.4-2-19.1-2-28.5-0.2c-2.8,0.5-5.3-2.5-5-5.3c0.4-2.8,2.8-5,5.5-5.8c2.7-0.9,5.6-0.7,8.4-0.5c-2-13.4-2.3-27.1-0.9-40.6
		c0.3-3-3.8-4.4-6.9-4.1c-3.1,0.3-6.9,0.6-8.4-2.1c-1.2-2.3,0.2-5.2-0.7-7.6c-0.4-1-1.1-1.8-1.4-2.9C-8.7,91.4-8,90-7,90.1
		c13.3,1.3,26.7,0.6,39.7-2.1c1.9-0.4,3.8,1.1,4.5,2.9c0.7,1.8,0.6,3.8,0.4,5.8c-0.1,1.5-0.3,3-1.2,4.1c-3.1,3.5-10-1.2-13.2,2.2
		c-1.3,1.4-1.3,3.6-1.1,5.5C23.2,121.2,24.1,133.9,24.9,146.7 M13.9,149.8c-0.9,2.8-4.6,3-7.5,3c-2.9-0.1-6.7,0.9-6.9,3.7
		c2.4,1.5,5.6,1,8.5,0.6c5.9-0.8,11.9-0.8,17.8,0.2c3.9,0.6,9.1,0.8,10.4-2.9c-2.1-2.2-5.6-2.2-8.6-2.6c-3-0.4-6.6-2.2-6.5-5.3
		c0.3-14-0.8-28-3.3-41.8c-0.5-2.6,1.7-5.1,4.2-6s5.2-0.7,7.9-0.7c2.3,0,5.3-0.9,5.2-3.2c-0.1-2.4-3.4-2.9-5.7-2.7
		c-8.1,0.6-16.2,1.3-24.3,1.9c-2,0.2-4.2,0.3-5.9,1.4c-1.7,1.1-2.9,3.4-2,5.2c2.1,2,5.5,1.1,8.3,0.7c2.9-0.4,6.8,0.8,6.6,3.7
		c-1.1,13.8-0.5,27.8,1.9,41.5C14.1,147.6,14.3,148.7,13.9,149.8z"/>
	<path class="st0" d="M310,89.2c1.1-1.6,3.4-2,5.3-2.2c2.1-0.2,4.2-0.4,6.2,0.3s3.7,2.5,3.5,4.6c-1.7,19.8-1.6,39.8,0.2,59.6
		c0.3,3.3-3.2,6-6.5,5.9c-3.8,0-7.1-2.7-9.1-6s-2.7-7-3.4-10.7c-1.1-5.8-2.3-11.7-3.4-17.5c-0.3-1.7-1.1-3.8-2.8-4
		c0.9,11.2,1.9,22.3,2.8,33.5c0.1,0.9,0.1,1.8-0.3,2.5c-0.6,0.9-1.8,1.2-2.8,1.4c-2.1,0.4-4.2,0.8-6.2,0.3s-4-2-4.3-4.1
		c-2.3-18.8-3.3-37.8-3.1-56.8c0-1.5,0.1-3.1,0.8-4.4c1.5-2.4,4.8-2.8,7.7-2.9c2.8-0.1,5.9-0.1,8.1,1.7c1.7,1.4,2.4,3.5,3,5.6
		c1.6,6.4,1.6,13.9,6.4,18.4c-0.9-6.8-1.7-13.7-2.6-20.5C309.3,92.4,309.1,90.6,310,89.2 M318.6,89.8c-2.2-0.7-4.5,0.9-5.4,3
		s-0.7,4.5-0.4,6.7c1.3,10.8,3.5,21.6,3.6,32.4c0,1.4-0.9,3.5-2.2,2.9c-3.4-10.9-6.8-21.8-10.2-32.6c-1-3.1-2.1-6.4-4.5-8.5
		s-6.7-2.6-8.7,0c-1,1.3-1.2,3.1-1.3,4.7c-1,12.7,0.3,25.5,1.6,38.1c0.4,3.6,0.7,7.2,1.1,10.9c0.3,3.2,2,7.4,5.1,6.7
		c2.7-0.6,3-4.3,2.7-7c-1.6-15.3-3.3-30.6-4.9-45.9c1-0.8,2.3,0.7,2.8,1.9c5.3,13.1,9.6,26.7,12.9,40.4c0.7,3,1.6,6.3,4.2,8.1
		s7.2,0.3,6.9-2.8c-1.6-16.9-1.6-34-0.2-50.9C321.8,94.8,321.6,90.8,318.6,89.8z"/>
	<path class="st0" d="M212.2,127.1c-0.4,10.2-0.8,20.3-1.2,30.5c0,0.6-0.1,1.2-0.4,1.7c-0.6,0.8-1.7,0.9-2.8,0.9
		c-2.8,0-5.7,0-8.3-1.2c-2.5-1.2-4.6-4-3.9-6.7c4.8-20.5-2.3-42.1,1-62.9c0.4-2.6,3.7-3.5,6.4-3.7c5.7-0.4,11.4-0.4,17.1,0
		c3.8,0.3,7.7,0.8,10.8,2.8c4.9,3.3,6.8,9.9,5.6,15.7c-1.1,5.8-4.7,10.8-8.7,15.2c-1.4,1.5-3,3.6-1.9,5.4
		c4.9,8.3,9.4,16.7,13.5,25.4c1.4,3,2.3,7.4-0.7,8.7c-3.8,1.7-8.5-0.1-11.4-3.1s-4.4-7.1-5.8-11.1c-1.6-4.4-3.1-8.7-4.7-13.1
		C216.2,129.5,214.6,126.7,212.2,127.1 M237.6,155.5c-3.4-9.3-8-18.1-13.6-26.2c-1.1-1.6-2.3-3.2-2.7-5c-0.5-1.9,0-4.1,1.6-5.1
		c5.9-3.9,9.9-10.6,10.4-17.7c0.1-2.1,0-4.3-0.9-6.2c-2.6-5.7-10.1-6.8-16.3-7.2c-1-0.1-2.5,0.9-1.7,1.5c8,1.1,14.1,9.8,12.4,17.7
		s-10.9,13.2-18.6,10.9c-0.3-8.9,0.3-17.8,1.6-26.7c0.3-2-1.9-3.6-3.9-3.5c-2.6,0.1-4.7,2.2-5.7,4.5s-1,5-1,7.6
		c0.1,15.2,2.1,30.4,0.8,45.5c-0.3,2.8-0.6,5.9,0.9,8.3c1.4,2.4,5.5,3.4,7.1,1c0.7-1,0.7-2.3,0.7-3.5c-0.1-8.8-0.2-17.6-0.3-26.5
		c2.4-2.1,6.4-1.3,8.8,0.8s3.6,5.3,4.8,8.3c1.4,3.8,2.9,7.5,4.3,11.3c1,2.7,2.1,5.4,4,7.5S234.9,156.4,237.6,155.5 M211.3,112.6
		c0,0.5-0.1,1.1,0.2,1.4c1.3,1.6,4,1.3,5.8,0.4c4.5-2.3,7.2-7.9,6.1-12.8c-1.1-5-5.8-8.9-10.9-9.2
		C211.5,99.1,211.1,105.8,211.3,112.6z"/>
	<path class="st0" d="M151.5,149.2c3.8,6.2,11.4,9.7,18.5,8.6s13.3-6.8,15.1-13.8c0.7-2.7,0.7-5.5,0.7-8.3c0.1-11-0.2-22-0.9-32.9
		c-0.1-1-0.1-2-0.5-2.9c-1.2-2.7-5.6-3.1-7.3-0.7c0.6,9.3,1.2,18.6,1.8,27.9c0.3,4.8,0.6,9.8-0.9,14.4c-1.5,4.6-5.3,8.8-10.2,9.3
		c-5.4,0.6-10.4-3.7-12.4-8.7c-2.1-5-1.9-10.6-1.7-16.1c0.3-7.8,0.6-15.6,0.9-23.4c0.1-2.8-0.1-6.2-2.5-7.7c-1.2-0.7-2.7-0.8-4-1.3
		s-2.4-2.1-1.7-3.3c2.8,0.2,5.7,0.4,8.1,1.7c2.5,1.3,4.5,4,4.1,6.7c-1.5,10.8-2,21.8-1.6,32.7c0.1,3.4,0.4,7,1.9,10s4.7,5.6,8.1,5.4
		c3.5-0.2,6.4-3.2,7.5-6.5c1.2-3.3,1-6.9,0.8-10.4c-0.6-10.3-1.1-20.6-1.7-30.9c-0.1-2.3,1.9-4.3,4.1-4.8c2.2-0.6,4.6-0.1,6.8,0.3
		c1,0.2,2,0.4,2.7,1.1c0.9,0.9,1,2.4,1,3.7c0.1,10.7,0.2,21.4,0.3,32.2c0,4.6,0.1,9.2-0.7,13.7c-0.5,2.9-1.4,5.7-3,8.1
		c-5.1,7.6-16,8.8-24.9,6.6c-2.8-0.7-5.5-1.6-7.8-3.3c-6.9-5.1-7.6-15-7.6-23.5c-0.1-12.2-0.2-24.5-0.2-36.7c0.9-0.5,2-0.6,3-0.5
		c0.1,11.4,0.3,22.7,0.4,34.1C147.9,136.6,148.1,143.6,151.5,149.2z"/>
	<path class="st0" d="M104.9,94c1-2.5,2.3-5.3,4.8-6.4c5.3-2.3,11.6-2.2,16.8,0.4c5.2,2.6,9.1,7.5,10.5,13.1
		c1.1,4.6-0.2,10.5-4.7,11.9c-4.3,1.4-9.2-3.4-7.8-7.7c1-3.3-2.2-6.9-5.6-6.6c-3.4,0.2-6.1,3.7-5.9,7.1c0.2,3.4,2.9,6.4,6.1,7.4
		c6.6,2.2,12.3,6.7,15.9,12.6c5.6,9.2,5.5,22.1-1.8,30s-21.6,8.6-28.5,0.3c-3.7-4.4-4.9-10.5-4.6-16.2c0.1-1.5,0.3-3,0.9-4.3
		c1.3-2.6,4.4-4.2,7.2-3.6c2.8,0.5,5.2,3.1,5.4,6c0.2,3.2,2.1,6.7,5.3,7.4c4.8,1,8.4-5.3,6.9-9.9c-1.6-4.6-6.1-7.4-10.5-9.6
		s-9.1-4.1-11.9-8.1C98.7,110.9,101.7,101.6,104.9,94 M125,127.2c3.2,2.8,5.2,7,4.9,11.3c-0.3,4.2-3.1,8.3-7.1,9.7s-9-0.4-10.9-4.2
		c-0.8-1.6-1-3.4-1.9-4.9c-0.8-1.6-2.6-2.9-4.3-2.3c-1.8,0.6-2.2,2.9-2.2,4.8c0,3.3,0.6,6.7,2.2,9.6c4.2,7.1,14.9,8.9,21.7,4.2
		c6.9-4.6,9.5-14.2,7-22.1c-2.5-7.9-9.3-14-17-16.9c-4.5-1.6-8-5.9-8.3-10.7s3-9.6,7.7-10.7c4.6-1,10,2.3,10.6,7
		c0.4,2.7,0,6.3,2.5,7.1c2.8,0.9,4.5-3.3,3.9-6.2c-1.4-7.6-8.3-13.7-16-14.2c-1.6-0.1-3.3,0-4.8,0.7c-3.7,1.6-5.5,5.7-6.9,9.5
		c-1.6,4.2-3.2,8.8-1.8,13.1c1.4,4.1,5.2,6.8,9.1,8.8C117.6,122.9,121.8,124.3,125,127.2z"/>
</g>
</svg>
