<?xml version="1.0" encoding="utf-8"?>
<!-- Generator: Adobe Illustrator 19.1.0, SVG Export Plug-In . SVG Version: 6.00 Build 0)  -->
<svg version="1.1" id="Layer_1" xmlns="http://www.w3.org/2000/svg" xmlns:xlink="http://www.w3.org/1999/xlink" x="0px" y="0px"
	 viewBox="174 -123.6 1190.6 841.9" style="enable-background:new 174 -123.6 1190.6 841.9;" xml:space="preserve">
<style type="text/css">
	.st0{fill:#FFFFFF;}
</style>
<g>
	<path class="st0" d="M582.4,363.6c-0.9,0.6-1.8,1.2-2.8,1.2c-3.5,0.1-3.8-5-5.6-8c-1.1-2-3.2-3.2-4.7-4.9c-1.5-1.7-2.4-4.4-1-6.1
		c1-1.2,2.8-1.4,4.4-1.5c3.5-0.3,7-0.5,10.3,0.5c3.3,1,6.4,3.6,6.9,7C590.7,356.7,586.5,360.8,582.4,363.6z"/>
	<path class="st0" d="M1016,158.4c0.2,4.3,5.1,6.3,9.1,8c7.3,3,13.9,8.1,18.2,14.8c5,7.7,4.2,21.3-4.9,22.4
		c-0.5-17.2-13.2-33.3-29.8-37.8c0.1,3.7-3.3,7.2-7,7.1c-1.2-16.7-20.9-29.1-36.4-23.1c-2.6,1-4.2-2.7-5.7-5
		c-2.3-3.5-6.7-4.8-10.7-5.8c-21.1-5.1-42.8-7.6-64.5-7.5c2.1,3.2,1.4,8-1.4,10.5c-3.5-6-11.4-8.3-18.3-7.4
		c-6.9,1-13.1,4.6-19.1,8.1c-14.4,8.5-28.7,16.9-43.1,25.4c26,8.4,49.7,24,67.6,44.7c5-1.6,11.1,1.4,12.8,6.3
		c-7.7-1.1-15.5-2.1-23.2-3.2c-6.2-12.5-17.8-22.2-31.2-26.1c-8.3-15.3-32.5-18.4-44.4-5.7c-12.1,13-23,27-32.5,41.9
		c15.5,0.6,31,1.3,46.5,1.9c5.5,0.2,12.9-1.2,13.1-6.7c2.1,8.7,12,12.7,20.3,16.1c21,8.6,40,22.2,55,39.3c2.2,7,5.8,13.5,10.6,18.9
		c1.5-1.9,4-3,6.5-2.8c-9.6,16.7,14.7,36,10.8,54.9c-10.7-9.4-14.5-24.1-18.9-37.7s-11.2-28.1-24.4-33.4
		c-1.4-11.6-13.8-20.6-25.3-18.2c2.4-6.1-4.5-11.6-10.6-14.2c-12.7-5.3-26.4-8.4-40.2-9c8,3.9,14.4,11.1,17.3,19.5
		c1.2,3.6,0.9,8.9-2.8,9.5c-1.4,0.2-2.8-0.4-4.1-1.1c-8.9-5-15.2-14.3-16.5-24.4c-0.9-7.2-11.4-8.4-17.9-5.2
		c-6.5,3.2-12.4,9-19.7,8.9c0.5-2.6,0.9-5.2,1.4-7.8c-9-0.3-15.6,9.3-16.1,18.3s3.2,17.6,5.6,26.3c3.5,12.7,4.2,26.2,2.2,39.2
		c4.1,3.9,11.7,3,14.8-1.7c-1.3-2.1-2.6-4.2-3.9-6.3c0-3.8,6-1.3,8.9,1.2c8.5,7.7,21.7,4.7,32.6,1.3c2.9,6,10.3,7.9,16.6,9.9
		c12.7,4.1,24.4,11.4,33.7,21c9.7,10,16.5,26.5,7.7,37.3c-6.4,7.8-18.5,8.9-25.3,16.4c-2.6-6.6-13.7-7-16.8-0.7
		c-0.5-3.6-0.9-7.5,0.6-10.9s5.6-5.8,8.9-4.2c2.2,1.1,3.6,3.7,6,3.9c4.2,0.3,6.1-6.9,10.3-6.5c1.8,0.1,3.5,1.7,5.2,1.1
		c1.5-0.5,1.9-2.4,2.1-4c1-8.4,2-17.5-2.2-24.8c-2-3.5-5-6.4-8.2-8.9c-19.9-16.1-46.7-23.4-72.1-19.5c-4.3,0.7-8.7,1.7-12,4.5
		c-3.6,3.1-5.3,7.9-6.8,12.5c-3.8,11.4-7.5,22.8-11.3,34.2c5.8-8.9,21.2-9.3,26.8-0.2c0.9,1.6,1.6,3.5,1.1,5.2
		c-1,3.3-5.2,4.2-8.6,4.4c-8.3,0.6-17.7,0.9-23.4-5.1c-3.9,3.1,2,9.5,0.3,14.1c-1.5,3.9-7.4,3.7-10.9,1.3s-6.2-6.1-10.3-7.2
		c1.2,3.9,2.4,7.8,3.7,11.8c-10.5-3.1-22.4-1-31.1,5.5c2-9.9,7.6-19,15.5-25.3c-3.3-3.5-8.8-4.8-13.3-2.9c0.9-2.6,1.9-5.2,2.8-7.7
		c-11.5-7.3-19.4-19.1-26.9-30.5c-4.9-7.4-9.7-14.9-14.6-22.3c-0.5-6.3-1-12.6-1.6-19c-0.6-6.8-1.4-14.3-6.4-19.1
		c-5-4.7-15.3-3.5-16.4,3.2c0.8,2.6,0.1,5.7-1.9,7.7c-2.8-5.9-11.7-3.1-17.1,0.5c-13,8.5-27.6,20.1-26.4,35.5
		c-1.8-1-3.6-1.9-5.4-2.9c-5.6,1.5-6.9,8.8-9.5,14c-2.6,5.2-12.2,7.8-12.9,2.1c16.6-17.1,31.4-36,44-56.2c-0.7,2.3-0.1,5,1.5,6.8
		c12.7-9.2,27.3-15.8,42.5-19.2c2.5-0.6,3.5-3.4,4.1-5.9c2.7-11.6,4.5-23.5,5.2-35.4c9.5-7.2,16.9-17.3,20.8-28.6
		c-6.2-2.2-12.5-4.4-18.7-6.7c-3.1-1.1-6.4-2.2-9.7-1.7c-3.3,0.6-6.4,3.5-5.8,6.8c-9.8-11.4-27.7-9.6-42.5-6.9
		c-6,1.1-13.1,3-15.2,8.8c-1.1,2.9-3.1,7.4-5.4,5.5c1.5-2.6-0.2-6.5-3.1-7.1c-8.2,2.8-16.5,5.7-23.4,11s-12.1,13.4-11.6,22.1
		c0.5,8.6,8.1,16.9,16.7,16.1c5-0.5,4.3,8.9-0.6,9.9s-9.4-2.8-13.2-6c-3.8-3.2-9.2-6.3-13.6-3.8c4.7-4.3,3.1-11.9,2.2-18.2
		c-0.9-6.3,0.6-14.8,7-15.7c-1.6-2.9-4.4-5.1-7.6-5.9c-0.4-2.2,2.3-3.8,4.5-3.5s4.2,1.5,6.4,1.8c2.8,0.4,5.5-0.7,8-1.8
		c20.6-8.8,41.2-17.5,61.8-26.3c-1.1,2.3-1,5.1,0,7.5c14-1.5,28.3-0.8,42,2.1c3.7-2.6,0.6-8.3-2.2-11.9c-2.8-3.5-4.3-10.3,0.2-11.3
		c6.7-0.3,14.1,2,17.3,7.8c3.2,5.8-1,15-7.6,14.3c3.9,7.1,13.6,9.5,21.5,7.3c7.9-2.1,14.3-7.7,20.3-13.2c4.4-4,9-9.8,6.6-15.2
		c6.6,10,21.9,5.6,32.6,0.2c23.3-12,56.2,12.1,76.2-4.8c14.6-12.4,31.4-22.1,49.4-28.6c6.7-2.4,13.7-4.5,18.9-9.3
		c4.4-4.1,7.3-10,12.6-12.9s14.3,0.8,12.6,6.6c-1,3.6-5.6,5.9-5.2,9.6c11.2,2,22.6,2.4,33.9,1.2c9,6.7,21.1,9,32,6
		c2.7-0.7,5.2,1.3,7.3,3.1c15.1,12.8,35.5,19.1,55.3,17.2C1022.7,156.2,1019.4,158.3,1016,158.4 M738.1,230.9
		c2.3-0.7,4.6-1.4,6.5-2.8c2-1.4,3.4-3.5,4.7-5.5c3.8-5.5,7.5-11,11.3-16.5c0.5-0.8,1.1-1.6,1.1-2.6c0.1-1.7-1.4-3-2.2-4.5
		s-0.5-4.1,1.2-4c10.9,0.5,20.9-10.3,19.6-21.1c-0.1-0.9-0.3-1.8-0.8-2.5c-0.9-1.3-2.7-1.6-4.2-1.8c-13.7-2.1-28.4-4-40.7,2.4
		c-2.7,1.4-5.6,3.2-8.4,2.1c-5-1.8-10.4,0.4-15.2,2.5c-13,5.8-26.2,11.8-36.3,21.8c17.3,7.1,32.5,19.3,43.3,34.6
		c2,2.8,6.2,2.1,9.4,1.1C731,233.1,734.6,232,738.1,230.9 M666.2,331.2c-1.7,1.7-3.3,3.5-5,5.2c5.7,9.5,12.9,18.2,21.1,25.7
		c4.4,4,9.8,7.8,15.6,7c-0.2,1.8-0.5,3.6-0.7,5.4c2.2,0.8,3.8,2.6,5.5,4.2s3.9,3,6.2,2.7s4.1-3.4,2.5-5.1c-17-18.4-27.1-43-28.2-68
		c-0.3-6.5-0.5-14.1-5.9-17.7c-1.7-1.2-0.6-4,1.2-5.1c1.8-1.1,4.1-1.6,5.3-3.3c1.5-2.1,0.5-5.1-1.4-6.8c-1.9-1.7-4.5-2.3-7-2.7
		c-9.4-1.7-19-2-28.5-0.9c-1.6,0.2-3.4,0.5-4.5,1.7c-1.3,1.5-1.1,3.7-0.8,5.7c0.7,4.8,1.3,9.7,2,14.5c0.4,2.7,0.8,5.6,2.5,7.8
		c1.7,2.2,5,3.4,7.3,1.9c-2.2,2.3-3.1,5.7-3.1,8.9C650.1,321.2,657.2,330.1,666.2,331.2 M645.3,243.5c-0.9,4.8-1.8,9.6-2.7,14.3
		c-0.4,2-0.7,4.1-0.2,6c0.6,1.9,2.4,3.7,4.4,3.5c12.2-1.4,24.7-0.7,36.7,2c1.6,0.4,3-1.2,3.9-2.5c3.8-5.8,7-12,9.4-18.4
		c-3.2-0.3-6.4-2.9-6.1-6.1c0.3-3.2,5.4-4.9,6.9-2c1.3,2.5,4.6,3.5,7.4,2.9s5.1-2.4,7.4-4.1c0.8-0.6,1.7-1.4,1.8-2.4
		c0.1-0.9-0.5-1.7-1-2.4c-9.6-12.9-22.5-23.4-37-30.3c-2.6-1.2-6-2.1-7.9,0c-6.6,7.6-12.4,16-17.1,24.9c2.2,0.6,2.1,4,0.6,5.7
		s-3.8,2.7-5,4.6C645.9,240.3,645.6,241.9,645.3,243.5 M717.5,296.1c0.2-1.1,0.5-2.3,0.1-3.4c-0.4-1.2-1.4-2-2.4-2.8
		c-6-4.5-12.6-8-19.6-10.5c-1.5-0.5-3.3-1-4.5,0.1c-0.7,0.6-1,1.6-1.2,2.5c-2.6,11.2-1.6,22.8-0.6,34.3c0.2,2,0.4,4.2,1.8,5.7
		c1.4,1.5,4.3,1.7,5.2-0.1c1.4,1.3,1.2,3.6,0.3,5.4c-0.9,1.7-2.2,3.2-2.8,5c-0.7,2.6,0.2,5.3,1.3,7.7c3.4,7.8,7.9,15,13.5,21.4
		c1.7-1.7,1.6-4.5,1.5-7c-0.8-13.8,0.5-27.7,3.7-41.1c-2.8,0.7-6-1-6.8-3.7c3.1,0.1,6-2,7.7-4.6
		C716.2,302.2,716.9,299.1,717.5,296.1 M718.5,243.1c-12.1,4.9-21.7,15.6-25.2,28.2c8.5,4.8,17.1,9.3,25.8,13.6c1.6-2,3.3-4.1,4-6.6
		c0.8-2.5,0.5-5.5-1.4-7.2c-1.4-1.3,1-3,2.6-3.9c4.3-2.3,5.3-8.4,3.5-13S722.2,246.3,718.5,243.1 M720.9,297.2
		c-1.4,1.8-2.8,3.8-2.8,6.1c0,2.3,2.4,4.6,4.5,3.6c1.4,1.4-1.4,3.1-3.2,4c-3.1,1.7-4,5.7-4.6,9.2c-1.8,10.8-3.5,21.7-2.1,32.6
		c0.3,2.3,1.9,5.2,4,4.2c3.3-7.3,7.7-14.1,12.8-20.2c4.1-4.9,9-10,8.9-16.3c0-5.2-3.4-9.7-6.7-13.8c-1.9-2.3-3.7-4.7-5.6-7
		C724.9,297.9,722.7,296,720.9,297.2 M739.6,305.9c2.1-7.8,0.5-16.1-1.1-24.1c-0.6-2.8-2.6-6.4-5.2-5.3c-1.9,0.8-4.1,1.1-6.1,0.6
		c-3.7,2.2-4.5,7.4-3,11.4s4.7,7.1,7.8,10C734.4,301,737,303.4,739.6,305.9 M739.4,238.4c-2.4-0.6-5-1.1-7.4-0.6
		c-2.5,0.5-4.8,2.4-5.1,4.9c-0.3,2.8,2,5.1,4,6.9c1.2,0.9,2.7-0.5,3.5-1.7C736.4,244.9,738.1,241.7,739.4,238.4 M648.1,177.4
		c0,2.3,3,4,5,2.8s1.9-4.6-0.1-5.7C650.9,173.3,648,175.1,648.1,177.4 M800.3,252.9c-0.3,1.4,1.7,2.4,2.9,1.5
		c1.1-0.9,0.9-2.8-0.1-3.7s-2.7-1-4-0.5c0.1,0.9,0.2,1.7,0.4,2.6 M731.7,270.9c1.2,0.4,2.1-1.2,2.5-2.5c-0.8-1.2-2.1-2.1-3.5-2.5
		c-0.8,0.6-1.3,1.5-1.5,2.5C730,269.2,730.8,270.1,731.7,270.9L731.7,270.9z"/>
</g>
</svg>
