<?xml version="1.0" encoding="utf-8"?>
<!-- Generator: Adobe Illustrator 19.1.0, SVG Export Plug-In . SVG Version: 6.00 Build 0)  -->
<svg version="1.1" id="Layer_1" xmlns="http://www.w3.org/2000/svg" xmlns:xlink="http://www.w3.org/1999/xlink" x="0px" y="0px"
	 viewBox="174 -123.6 1190.6 841.9" style="enable-background:new 174 -123.6 1190.6 841.9;" xml:space="preserve">
<style type="text/css">
	.st0{fill:#FFFFFF;}
</style>
<g>
	<path class="st0" d="M717.4,91.9c3.6,7.6,9.6,14.1,16.9,18.2c-4.8-4.5-5.5-12.6-1.7-17.9c7.8,9.5,18.1,16.9,29.6,21.3
		c-1-8.3,0-16.8,3-24.6c8.3,6.8,14.6,16.2,17.7,26.5c4.5-24.2,14.7-47.4,29.6-67c2,4.6-1,9.8-3.6,14.1
		c-27.9,46.1-24.4,103.9-20,157.6c27.3-42,43.9-90.9,47.9-140.9c4.4,29.4-0.4,60.1-13.4,86.9c11.8-6.4,22.4-15.2,30.9-25.6
		c-6.7,12.3-13.5,24.5-20.2,36.8c8.4-6.2,16.9-12.4,25.3-18.7c-2.2,5.1-4.5,10.3-6.7,15.4c3.3-1.1,6.7-2.3,10-3.4
		c-3.6,9.4-6,19.2-7,29.2c7.2-7.6,14.5-15.1,22.1-22.3c-10.4,36.6-44.7,65-82.6,68.6c-4.7,0.4-6.9,6-8,10.6
		C769,333.4,764,413.2,772.4,491.5c16.9-49.5,28.7-100.9,35-152.8c1.9-15.3,3.3-30.8,8.2-45.4s13.9-28.5,27.4-35.9
		c30.8-17,71.8,4.6,103.4-10.9c-8.6,12-25.6,14.1-40.3,12.4s-29.5-6.2-43.9-3.2c-23.2,4.8-38.6,27.7-44.4,50.7
		c-5.7,23-4.3,47.1-7.6,70.6c-3.1,22.1-10.3,43.5-16.5,64.9c-19.4,66.5-29.7,135.2-39.9,203.7c4.7-56.7,9.4-113.5,14-170.2
		c0.5-6.3,1-12.8-0.9-18.9c-1.9-6.1-6.8-11.6-13.1-12.4c-24.1-2.8-42.6-23.3-53.3-45.2c-10.7-21.8-15.9-46-27.2-67.5
		c2.2-2.8,6.5,0.6,8.2,3.8c9.6,17.2,19.2,34.4,28.9,51.7c-2.5-22.1-4.9-44.3-7.4-66.4c5.6,20.8,12.1,42.9,28.7,56.6
		c-1.4-16.5-2.9-32.9-4.3-49.4c6.9,16.7,13.9,33.4,20.8,50.2c1.3-13,2.6-26.1,3.9-39.1c3.8,8.7,7.6,17.4,11.4,26.1
		c3.4-26,6.9-51.9,10.3-77.9c1-7.2,1.2-16.1-4.9-20.1c-26.3-17.2-43.8-47.3-45.9-78.6c7.1,16.2,14.3,32.5,21.4,48.7
		c-4.7-17.9-4.8-37-0.2-54.9c1.7,8.2,3.6,16.5,5.7,24.6c0.6-6.5,2.7-12.8,5.9-18.4c4.5,9.5,9,18.9,13.5,28.4
		c8.6-14.6,14.5-32.3,9.5-48.5s-24.5-28.4-39.6-20.7c-16.8,8.6-39.7,1.9-49.3-14.3c11.2,5.3,25.7,2.1,33.7-7.3
		c-18.3-10.6-29.7-32.1-28.1-53.1c0.2-2.9,3.1-6.7,5.1-4.6c1.3,13.9,5.7,27.5,12.7,39.5C713.3,102,714.8,96.6,717.4,91.9
		 M749.7,424.2c-7.7-19.8-18.3-38.5-31.2-55.4c-1.6-2.1-3.2-4.1-5.3-5.7c-0.8,18.7,5.9,37.6,18.1,51.7
		C736,420.2,742.6,425.3,749.7,424.2 M828.8,168.2c-15.2,15.3-26.7,34.3-33.2,54.9c-0.5,1.5-0.9,3-0.6,4.5
		c16.5-17.6,29.8-38.2,38.9-60.6C832.7,165.5,830.2,166.8,828.8,168.2 M817.7,205.4c-6.6,9.3-13.2,18.6-19.8,27.9
		c-1.2,1.8-2.2,4.7-0.2,5.6c18.7-17.1,34.2-37.6,45.5-60.3C832.4,184.8,824.8,195.3,817.7,205.4 M701.5,381.6
		c-2.4,9.5,2.8,19.2,8.9,26.8c6,7.7,13.1,14.6,20.8,20.6c4.6,3.5,9.7,6.8,15.5,7.1c-1.6-4.1-5.4-6.9-8.9-9.6
		C722.6,414.5,710.1,399,701.5,381.6 M853.4,207.3c-7.4,4.2-14.8,8.4-22.2,12.5c-9.1,5.1-18.4,10.4-25.3,18.3
		c21.4-2.8,41.4-15.5,53.1-33.7C857.1,205.3,855.2,206.3,853.4,207.3 M757.2,423.8c3.2-1.4,2.7-6.1,1.5-9.4
		c-5.8-16.2-12.9-31.9-21.4-46.8c-0.7,4.6-0.7,9.2,0.1,13.8c1.6,9.1,6.1,17.3,10.5,25.4C751,412.4,754.1,418.1,757.2,423.8
		 M737.4,104.2c4.5,9.1,12.1,16.3,19.5,23.2c2.6,2.4,5.3,4.9,6.9,8.1c1.9,3.8,2.9,9,6.9,10.1c2.2-5.5,1.9-11.9-0.8-17.2
		c-3.6-7.2-11-11.7-18-15.7C747.1,109.8,742.3,107,737.4,104.2 M751,142.1c1.2-0.9-0.4-2.6-1.8-3.1c-5.6-1.9-11.6-2.4-17.4-2.1
		c-8.4,0.5-16.7,2.9-24.1,7c2.2,3.9,7.8,3.7,12.2,3C730.2,145.3,740.6,143.7,751,142.1 M745.9,220.2c2.6,12.6,8.4,24.5,16.8,34.3
		c1,1.1,2.4,2.4,3.8,1.9c-4.6-14.4-10.8-28.3-18.4-41.4C745.9,214.8,745.4,218.1,745.9,220.2 M760.5,211.1c-0.6-0.9-1.2-1.8-2.1-2.4
		c-0.7-0.5-1.8-0.7-2.4,0c2.5,12.6,7.3,24.8,14.1,35.8C772.1,232.7,766.9,221,760.5,211.1 M757.4,364.3c-0.4-2.2-1.4-5-3.7-5.1
		c-0.6,14.4,1.8,28.9,7.1,42.3c2-1.4,1.9-4.3,1.6-6.7C760.9,384.7,759.2,374.5,757.4,364.3 M728.5,118.2c7.2,6,15,11.2,23.4,15.3
		c1.3,0.6,3,1.2,4,0.1c-11.6-9.2-23.3-18.4-34.9-27.7C720.8,110.9,724.7,115,728.5,118.2 M833.3,208.9c-0.8,1-1.7,2.1-2.2,3.3
		c-0.2,0.6-0.4,1.2-0.4,1.9c10.9-3.7,19.3-14.1,20.7-25.5C845,194.9,839.2,201.9,833.3,208.9 M767.1,101.3c-0.2,5.9,0,12.2,3.3,17
		c1.5,2.2,3.5,4,5.9,5.2C776.9,115.2,773.4,106.7,767.1,101.3 M781,239.5c0.4-0.5,0.5-1.2,0.5-1.8c0.6-7.1-0.5-14.4-3.1-21.1
		c-2.6,5.8-2.2,12.4-1.8,18.8c0.1,1.3,0.2,2.7,1,3.7S780.2,240.5,781,239.5z"/>
</g>
</svg>
