<?xml version="1.0" encoding="utf-8"?>
<!-- Generator: Adobe Illustrator 19.1.0, SVG Export Plug-In . SVG Version: 6.00 Build 0)  -->
<svg version="1.1" id="Layer_1" xmlns="http://www.w3.org/2000/svg" xmlns:xlink="http://www.w3.org/1999/xlink" x="0px" y="0px"
	 viewBox="-122 -123.6 595.3 841.9" style="enable-background:new -122 -123.6 595.3 841.9;" xml:space="preserve">
<style type="text/css">
	.st0{fill:none;stroke:#000000;stroke-width:6;stroke-miterlimit:10;}
	.st1{fill:#FFFFFF;}
</style>
<line class="st0" x1="-313.9" y1="15.4" x2="-312.4" y2="0.4"/>
<g>
	<g>
		<path class="st1" d="M13.5,492.9c1.9,0.3,3.8,0.8,5.8,1c1.5,0.2,3.1-0.1,4.7,0c3.9,0.2,7.7,0.6,11.6,0.8c3.8,0.1,7.6,0,11.4,0
			c4.7,0,9.3-0.1,13.9-0.2c7.5-0.2,14.8-1.8,21.8-4.1c2.3-0.8,4.4-2,6.5-3.1c3.3-1.6,6.5-3.2,9.7-5c1.9-1,3.7-2.3,5.4-3.6
			c1.6-1.2,2.8-2.8,3.7-4.7c1.2-2.7,2.5-5.3,3.9-7.9c0.5-0.9,0.9-1.9,2.2-1.8c0.9,0,1.8,1.4,1.7,2.7c0,1.8-0.1,3.7-0.9,5.4
			c-1.5,3.5-3.4,6.8-6.3,9.3c-1.1,0.9-2.3,1.8-3.6,2.5c-2.8,1.5-5.6,3-8.4,4.4c-3.4,1.7-6.7,3.5-10.1,5.2c-2.7,1.4-5.6,2.1-8.6,2.7
			c-3.9,0.7-7.7,1.7-11.7,2.1c-4.8,0.5-9.7,0.6-14.6,0.7c-7.7,0.2-15.3,0.2-23,0.4c-2.7,0.1-5.4,0.5-8.1,0.8c-0.4,0-0.9,0.2-1.3,0.5
			c-1.5,1-2.9,0.8-4.3-0.3c-2.7-2.1-5.8-3.5-9.1-4.5c-3.7-1.1-7.3-0.5-11,0.4c-0.8,0.2-1.6,0.2-2.4,0.4c-6.1,1.4-11.5,4.1-16,8.5
			c-2.1,2-3.8,4.2-4.7,7.1c-0.6,1.9-0.2,2.9,1.9,3.1c3.7,0.3,7.4,0.4,11.1,0.5c2.4,0.1,4.8,0,7.2-0.1c7.2-0.3,14.4-0.7,21.6-0.9
			c5.7-0.2,11.5-0.5,17.2-0.3c7.8,0.3,15.5-0.3,23.2,0c7.9,0.3,15.8,0.5,23.7,0.8c3.1,0.1,6.2,0.5,9.3,0.8c7,0.6,14,1,21.1,0.9
			c2.1,0,4.1,0.1,6.2,0c2.9-0.1,5.9-0.4,8.8-0.7c1.5-0.2,3-0.7,4.5-1c0.2-0.1,0.5-0.1,0.6-0.3c1.4-1.9,3-3.7,4.2-5.8
			c0.9-1.6,1.7-3,3.1-4.2c1.3-1.1,2.4-2.5,3.6-3.8c3.3-3.5,5.9-7.5,9.6-10.6c2.7-2.3,3.9-5.7,1.6-9.3c-0.8-1.2-1.3-2.6-1.9-4
			c-0.9-2-0.7-4.1,0-6.1c0.4-1.2,0.6-2.6,0.6-3.8c-0.1-3.6-0.5-7.3-0.6-10.9c-0.2-6.9-0.5-13.8-0.4-20.7c0.1-7.1,0.4-14.3,0.9-21.4
			c0.4-6.6,1-13.1,1.8-19.7c0.8-6.1,2-12.1,2.9-18.1c0.9-6.2,1.9-12.4,3.3-18.5c0.4-1.8,0.9-3.6,1.5-5.4c2.1-7.1,4.2-14.2,6.3-21.4
			c1.3-4.4,2.8-8.7,4.1-13.1c0.5-1.6,0.8-3.3,1.4-4.9c0.4-1.1,1-2.1,1.8-3c1.1-1.2,2.8-1.3,4-0.5c1.2,0.7,1.5,1.5,1,2.8
			c-1.1,2.8-1.9,5.7-3.4,8.3c-1.1,1.9-1.7,4.1-2.4,6.3c-0.9,2.6-1.8,5.3-2.6,7.9c-1.2,3.6-2.4,7.2-3.5,10.8c-1.2,4-2.5,8-3.4,12
			c-1.4,6.4-2.4,12.9-3.6,19.4c-0.5,2.7-1,5.3-1.4,8c-0.7,4.8-1.3,9.7-1.9,14.5c-0.1,0.5,0,1.1,0,1.7c2.6-0.4,3.7,1.2,4.8,2.9
			c2.6,3.8,5.3,7.4,8,11.1c2.1,2.8,4,5.7,6.2,8.4c3.4,4.1,6.4,8.6,9.4,13c1,1.4,2,2.7,3,4.1c0.2,0.3,0.5,0.6,0.7,0.9
			c1.1,1.9,2,3.8,3.2,5.6c1.7,2.5,3.7,4.8,5.6,7.1c2.5,3,4.9,6,7.5,8.8c2,2.1,4.3,3.9,6.6,5.8c4.1,3.3,9.1,4.7,14,6.3
			c4.7,1.5,9.5,2.2,14.3,2.8c6,0.8,12,1.3,18,1.3c6.4,0,12.9,0.1,19.3,0.1c5,0,10-0.2,15.1-0.4c5-0.2,10.1-0.3,15.1-0.6
			c2.3-0.1,4.6-0.6,6.9-0.6c10.4-0.4,20.8-0.5,31.2,0.5c4.8,0.4,9.6,0,14.4,0.1c4.4,0,8.8,0.2,13.2,0.3c2.5,0.1,5,0.1,7.4,0.1
			c3.9,0.2,7.7,0.4,11.6,0.5c1.4,0.1,2.8-0.1,4.2-0.1c5.3,0.1,10.5,0.1,15.8,0.2c1.1,0,2.2-0.1,3.2-0.3c0.9-0.1,1.7,0,2.2,0.8
			c0.4,0.5,0.8,1,1.3,1.3c1.1,0.7,0.8,1.8,0.6,2.7c-0.3,1-1.2,1.3-2.2,1.3c-0.2,0-0.5-0.1-0.7-0.1c-6.6-1.7-13.3-1.7-20.1-1.7
			c-5,0-10.1-0.3-15.1-0.4c-2.9-0.1-5.9,0-8.8-0.1c-7.5-0.2-15-0.5-22.4-0.7c-6.8-0.3-13.6-0.7-20.4-0.9c-3.6-0.1-7.1,0.2-10.7,0.3
			c-3.2,0.1-6.5,0.3-9.7,0.4c-8.4,0.3-16.8,0.6-25.2,0.9c-4.5,0.2-9,0.4-13.4,0.4c-6.4-0.1-12.7-0.5-19.1-0.5
			c-7.2,0-14.2-1.2-21.2-2.4c-4.7-0.8-9.4-1.9-13.8-3.8c-5-2.2-9.5-5.3-13.1-9.4c-3.6-4-7.2-7.9-10.6-12c-2.5-3-4.6-6.4-6.9-9.6
			c-2.5-3.6-4.9-7.3-7.3-11c-1.4-2.1-2.8-4.1-4.2-6.1c-1.3-1.8-2.8-3.5-4.3-5.2c-2.5-2.9-4.7-5.9-6.8-9.1c-1.9-3-4.3-5.8-7.6-8.1
			c-0.2,1.5-0.5,2.8-0.6,4c-0.3,4.2-0.6,8.4-0.8,12.5c-0.2,4.5-0.2,9-0.2,13.4c0.1,6,0.3,11.9,0.6,17.9c0.3,4.9,0.8,9.7,1.2,14.6
			c0,0.5,0.2,1.1,0.4,1.6c1,2.2,1.7,4.5,1.4,6.9c-0.2,2.1,1,3.8,1.7,5.7c0.7,2,0.9,3.9,0.7,5.9c-0.1,0.8-0.6,1.8-1.2,2.4
			c-2,2.1-4.2,4.1-6.4,6.1c-3.8,3.4-6.5,7.7-9.2,11.8c-0.6,0.8-1,1.8-1.8,2.4c-1.5,1.2-2.4,2.8-3.3,4.5c-1.5,3.1-3.8,4.7-7.4,5.2
			c-7.7,1.1-15.5,0.9-23.2,0.5c-5-0.3-10-1.1-15-1.6c-1.5-0.2-3.1-0.3-4.6-0.3c-3.8-0.1-7.6-0.4-11.3-1.2c-2.3-0.5-4.8-0.5-7.2-0.6
			c-3.2-0.1-6.5-0.2-9.7-0.2c-5.9-0.1-11.8-0.3-17.6-0.4c-5.6-0.1-11.1-0.2-16.7,0c-5.8,0.2-11.6,0.7-17.3,1
			c-5.3,0.3-10.5,0.5-15.8,0.7c-5.7,0.2-11.5,0.3-17.2,0.5c-1.1,0-2.1,0.3-3.1,0.6c-2.1,0.7-4.1,1.1-6.1-0.5c-1.7-1.3-2.4-3.5-1-5
			c2.2-2.3,3.2-5.2,4.9-7.8c3.7-5.8,8.4-10.1,14.9-12.4c2-0.7,4.1-1.4,6.1-2.3c1.4-0.7,2.7-1.8,4.1-2.6c1.2-0.7,2.5-1.3,3.8-1.6
			c4-0.9,8-1.1,12-0.9c3.7,0.2,7.4-0.1,11.2,0c1.8,0,3.5,0.3,5.3,0.4c9.9,0.4,19.7-0.2,29.5-0.9c8.1-0.6,16-1.7,23.8-4.2
			c2.5-0.8,5.1-1.4,7.5-2.4c1.9-0.8,3.5-2.1,5.3-3.2c0.8-0.6,1.5-1.3,2.3-2c1.4-1.2,2.5-2.7,2.9-4.6c0.1-0.8,0.4-1.5,0.6-2.2
			c0.8-2.3,1.5-4.5,1.6-7s0.9-5,1.2-7.6c0.5-3.8,0.9-7.5,1.1-11.3c0.3-8.3,0.5-16.6,0.5-24.9c0-6-0.8-11.9-2.1-17.7
			c-0.9-4-1.8-8-2.9-12c-0.5-1.8-1-3.7-2.7-5c-0.9-0.7-1.2-1.7-0.5-2.7c0.6-0.9,0.3-1.6-0.3-2.3c-2.4-3-4.6-6-7.1-8.9
			c-5.4-6.2-10.9-12.2-16.4-18.3c-0.5-0.6-1.2-1-1.8-1.3c-0.9-0.5-1.7-1.3-1.7-2.4c0.2-4.5-1.8-8.4-2.9-12.6c-0.7-2.6-1.3-5.3-1.6-8
			c-0.4-4.4-0.7-8.8-0.5-13.2c0.5-7.6,1.3-15.1,2.3-22.7c0.6-4.9,3.2-9.2,5.2-13.6c1.2-2.7,2.5-5.3,3.9-7.9c1.4-2.3,2.9-4.6,4.6-6.7
			c3.2-4,6.5-8,10-11.6c5.7-5.9,12.7-9.9,20.1-13.3c4.8-2.2,9.7-4,14.7-5.9c1.5-0.6,3.1-0.9,4.8-1.1c1.7-0.3,3.6,1.2,4,2.8
			c0.4,1.5-0.4,2.7-2,2.6c-4.7-0.3-8.9,1.4-13.3,2.9c-7.6,2.8-14.3,7.1-20.8,11.7c-2.4,1.7-4.5,4-6.6,6.2c-2.4,2.6-4.8,5.3-7.1,8
			c-2.5,2.9-4.2,6.3-5.8,9.7c-1.3,2.7-2.8,5.4-4,8.1c-2,4.7-3.2,9.6-3.6,14.6c-0.6,6.2-1.2,12.3-1.4,18.5
			c-0.1,5.3,0.3,10.5,1.7,15.7c0.4,1.7,0.9,3.4,2.8,4.3c0.5,0.2,0.9,1.2,1,1.9c0.3,1.7,0.7,3.3,1.6,4.8c0.8,1.4,0.9,3.1,1.5,4.6
			c0.6,1.3,1.3,2.7,2.1,3.9c0.9,1.3,2.1,2.5,3.2,3.7c3.1,3.7,6.2,7.3,9.2,11c3.3,4,6.6,8,9.8,12.1c1.3,1.6,2.5,3.4,3.7,5.1
			c1,1.5,2.2,2.8,3.9,3.5c2.7,1.1,3.5,3.2,3.3,6c-0.1,2.4-0.4,4.9,0.1,7.2c1,4.8,2.4,9.6,3.6,14.4c0.4,1.7,0.6,3.5,1,5.2
			c1,4.8,2,9.5,3.2,14.3c1.6,6.7,2.7,13.5,3.6,20.3c0.4,3.1,0.6,6.3,2.4,9.1c0.8,1.3,0.6,2.7-0.5,3.9c-1.2,1.3-2.7,2-4.4,1.3
			c-1.7-0.7-2.5-1.6-1.9-3.4c0.9-3,0.8-6,0.1-9c-0.2-1.1-0.3-2.3-0.4-3.5c-0.7-7.7-2.5-15.3-4.1-22.9c-1.4-6.2-3.1-12.3-4.7-18.4
			c-0.9-3.4-1.9-6.8-3.1-10.2c0.3,2.7,0.6,5.3,0.8,8c0.3,4.7,0.5,9.4,0.6,14.1c0,4.8-0.2,9.6-0.2,14.4c0,8.2-0.5,16.3-2,24.3
			c-0.5,2.9-0.6,5.9-0.7,8.8c-0.1,1.5-0.2,2.9-1.2,4.2c-0.1,0.1-0.2,0.3-0.2,0.4c-0.8,3.2-3.1,4.8-6,5.8c-1.4,0.5-2.6,1.3-3.9,2
			c-3.5,1.9-7.3,2.9-11.2,3.8c-6,1.3-11.9,2.8-18,3.8c-3.6,0.6-7.4,0.5-11.1,0.8c-5.6,0.4-11.1,0.8-16.7,1.1c-4,0.2-8,0.6-12.1,0.1
			c-2.8-0.3-5.6-0.1-8.4-0.1c-0.3,0-0.5,0.1-0.8,0.2C13.5,492.5,13.5,492.7,13.5,492.9z"/>
		<path class="st1" d="M73.4,92.4c0.9-2.7,2.4-4.6,4.1-6.4c6.4-7,13.4-13.4,21.2-18.8c4.3-2.9,8.7-5.7,13-8.6c1.5-1,3-2.3,4.4-3.4
			c0.3-0.2,0.4-0.5,0.4-1.1c-0.8,0.3-1.6,0.5-2.3,0.8c-6.2,3-12.6,5.8-18.5,9.2C88.3,68.4,81,73,74.4,78.7c-1.5,1.3-2.7,2.9-4.1,4.4
			c-0.5,0.6-0.9,1.3-1.5,1.8s-1.5,0.8-2.2,1c-0.9,0.2-1.8-0.1-2.1-1.1c-0.2-0.7-0.1-1.6,0.3-2.1c0.9-1.2,1.9-2.5,3.1-3.4
			c5.8-4.1,11.7-8.2,17.6-12.2c8.7-5.9,18.2-10.3,27.7-14.7c6.8-3.1,13.9-5.3,21.1-7.1c1.3-0.3,2.6-1.1,3.9-1.5
			c0.9-0.3,1.8-0.7,2.7-0.6c2.6,0.1,4,2.5,2.8,4.8c-0.8,1.7-2,3.1-2.8,4.8c-1.6,3.8-3.1,7.8-4.7,11.6c-1.2,2.9-2.3,5.9-3.8,8.7
			c-1.6,3.1-3.5,6-5.5,8.9c-2.9,4.2-6.5,7.8-10.3,11.3c-6.9,6.4-15.2,10.3-23.9,13.6c-0.9,0.3-1.8,0.5-2.7,0.5
			c-1.2,0-1.6,0.6-1.8,1.7c-0.4,2.7,0.2,5.2,1,7.8c0.5,1.6,0.9,3.3,1.2,5c0.3,1.5-0.3,2.7-1.4,3.8c-0.9,0.9-1.7,2-2.6,3
			c-1.6,1.9-1.3,4.2-1.2,6.4c0.1,0.9,0.2,1.7,0.2,2.5c0,1.2,0.3,2.2,1.4,3c0.7,0.6,1.1,1.6,1.5,2.5c0.8,1.8,1.4,3.6,2.2,5.4
			c1.6,3.8,4.3,6.3,8.4,7.2c7.9,1.9,15.9,3.7,23.7,5.9c4.6,1.3,9.1,3.1,13.5,4.8c3.2,1.3,6.3,2.8,9.5,4.3c5.6,2.7,10.9,5.9,16,9.4
			c6.7,4.6,13.4,9.2,19.3,14.8c3,2.9,5.9,5.9,8.6,9.1c3.3,4,6.4,8.1,9.6,12.3c3,4,5.5,8.4,7.8,12.9c3.2,6.2,5.7,12.8,7.6,19.5
			c1.2,4.3,1.6,8.8,2.2,13.3c0.7,5.4,0.5,10.8,0,16.3c-0.4,3.7-0.1,7.5-0.6,11.1c-1,7.9,0.3,15.8-0.4,23.7c-0.2,2.3-0.1,4.7,0.1,7
			c0.1,1.3,0.7,2.6,1.1,4c0.2,0.7,0.6,1.3,0.6,2c0,2.1,0.9,4.3-0.2,6.4c-0.2,0.3,0,0.9,0.1,1.4c0.6,4.1,1.2,8.1,1.8,12.2
			c0.3,1.9,0.5,3.8,0.8,5.7c0.8,5.8,2.2,11.4,3.8,16.9c1,3.4,2,6.8,3.2,10.2c1.7,4.7,3.4,9.4,5.5,14c2.8,6.2,5.8,12.3,10.1,17.6
			c1.3,1.6,2.4,3.4,4.1,4.7c0.3,0.2,0.5,0.6,0.7,0.9c3.4,5.1,7.8,9.2,13,12.4c1.7,1.1,3.2,2.6,4.9,3.7c2.1,1.4,4.1,2.7,6.4,3.8
			c3.1,1.4,6.4,2.7,9.7,3.7c5.1,1.6,10.3,3.1,15.7,3.9c4.8,0.7,9.7,1.1,14.5,1.5c1.5,0.1,3.1,0,4.6,0c8-0.4,16.1-0.8,24.1-1.2
			c1.4-0.1,2.8,0.1,4.2,0.1c4.5,0.1,9.1,0.2,13.6,0.4c1.7,0.1,3.2-0.2,4.6-1.2c0.5-0.3,1.2-0.6,1.7-0.6c2.2,0.3,4.4,0.7,6.5,1.3
			c0.8,0.2,1.3,1.2,1.9,1.9c0.7,0.7,1.2,1.6,2.1,2c3.8,2,7.6,3.9,11.4,5.8c2.4,1.2,4.8,2.1,7.2,3.2c3.6,1.7,7.1,3.7,10.8,5.3
			c6.3,2.7,12.6,5.5,19.3,7.3c3.5,1,6.9,2.2,10.4,3.2c3.1,0.9,6.2,1.5,9.5,2.3c0,1.3,0,2.7,0,4.4c-0.8-0.1-1.6-0.2-2.4-0.3
			c-5.8-1.1-11.3-3.1-16.9-5c-8.6-2.9-16.9-6.4-25.2-10c-7.7-3.3-15.3-7.1-23-10.5c-3.8-1.7-7.7-3.3-11.7-4.6
			c-2.2-0.7-4.6-0.6-6.9-0.7c-5-0.2-10.1-0.4-15.1-0.4c-5.3,0-10.5,0.2-15.8,0.4c-9.9,0.3-19.8,0.9-29.7-0.9
			c-7.8-1.4-15.4-3.4-22.8-6.2c-6.5-2.4-12.4-6-17.7-10.5c-4.5-3.7-8.9-7.6-12.6-12c-4.6-5.5-8.7-11.3-11.9-17.7
			c-3.5-7-6.4-14.3-9.1-21.6c-1.8-4.8-3.2-9.7-4.3-14.7c-1.6-6.9-3-13.9-3.9-21c-0.9-6.8-2.1-13.6-2.7-20.5
			c-0.4-4.2-0.1-8.5-0.1-12.8c0-1.9-0.1-3.6-0.5-5.5c-0.5-2.6-0.7-5.4-0.7-8.1c0.1-4,0.5-8,0.9-12c0.8-7,1.2-14,0.9-21.1
			c-0.3-7-1.9-13.6-4.2-20.2c-2.2-6.5-5-12.7-8.4-18.6c-5.6-9.6-12.4-18.4-20.3-26.2c-5.7-5.6-11.9-10.3-18.5-14.8
			c-4.3-2.9-8.6-5.9-13.2-8.2c-3.8-1.9-7.7-3.7-11.5-5.5c-2.1-1-4.2-1.9-6.4-2.7c-8.1-2.9-16.5-4.7-25-6.2
			c-3.8-0.7-7.6-1.4-11.4-2.2c-0.5-0.1-1.1-0.1-1.9-0.2c0.2,2.5,0.6,4.7,2.2,6.5c1.2,1.4,2,3,1.3,4.9c-0.4,1-1.1,1.9-1.7,2.7
			c-1,1.4-2.2,2.8-3.2,4.3c-1.8,2.7-3.5,5.5-5.3,8.2c-1.4,2.1-3.6,2.9-6,2.9c-0.8,0-1.7,0.2-2.5,0.3c-3.6,0.2-7.1,0.4-10.7,0.6
			c-0.2,0-0.5,0-0.7-0.1c-3.7-2.1-8.1-1.9-11.9-3.7c-0.7-0.3-1.5-0.3-2.3-0.3c-2.4-0.2-4.3-1.1-5.2-3.6c-1-2.7-2.2-5.3-3.3-7.9
			c-0.1-0.4-0.2-0.8-0.5-1c-2.8-2.4-4.7-5.9-8.5-7c-0.5-0.1-1.1-0.6-1.1-1c-0.3-2.2-2.7-3-3.2-5c0-0.2-0.3-0.3-0.5-0.4
			c-2.6-1.5-5.4-2.7-7.8-4.5c-2.4-1.8-4.5-4-6.6-6.1c-0.9-0.8-1.1-2-0.7-3.3c0.6-2.2,1-4.4,1.8-6.5c0.6-1.8,0.6-3.5,0.4-5.3
			c-0.2-1.9,0.6-2.9,2.3-3.1c1.8-0.2,3,0.6,2.9,2.4c-0.1,2.7,0,5.7-1.1,8c-2.1,4.6,0.9,7.4,4.5,9.5c1.4,0.8,2.9,1.5,4.2,2.4
			c1.9,1.3,3,3.1,2.3,5.4c1.2,1.4,2.3,2.6,3.6,3.8c0.5,0.5,1.2,0.8,1.9,1.2c1.4,0.7,2.9,1.4,4.4,2.1c0.9,0.4,1.8,0.8,2.8,1
			c1.5,0.3,2.6,1.1,3.3,2.4c1.2,2.2,2.9,4.3,2.8,7c0,0.4,0.2,1,0.5,1.3c1.6,1.4,2.7,3.4,5,4c0.7,0.2,1.5,0.6,2.1,1
			c3.9,2.4,8.3,2.8,12.8,2.6c2.5-0.1,5-0.2,7.4-0.3c1.3,0,2.3-0.5,3.2-1.5c1.7-1.8,3.4-3.6,4.2-6c0.1-0.3,0.1-0.6,0.2-1.1
			c-1.4,0.1-2.5,0.5-3.6,1.2c-2.6,1.6-4.9,1.4-7.2-0.6c-2.1-1.8-4.3-3.6-6.4-5.4c-0.5-0.4-1-1-1.3-1.6c-0.7-1.1-0.7-2.2,0.2-3.2
			c2.4-2.6,4.1-3.2,7.2-2c1.5,0.6,3.1,1.1,4.7,1.4c1.4,0.2,2.9,0.1,4.4,0c1.7-0.2,3.3-0.6,5.1-0.9c0.1-2.3-0.8-4.4-1.4-6.5
			c-1.6-5.8-3.4-11.6-5-17.4c-0.5-1.9-0.7-3.8-0.8-5.7c0-1.3-0.5-2-1.6-2.5c-0.9-0.5-1.7-1.1-2.4-1.8c-2.8-3.2-2.3-8.7,1.1-11.4
			c1.5-1.2,3-2.4,5.2-2.4c0.3,0,0.7-0.3,1.2-0.5c-0.3-1.9-0.7-3.8-1-5.7c-0.1-0.8-0.3-1.7-0.2-2.5c0.4-2.1-0.3-3.9-1.3-5.7
			c-0.8-1.4-0.4-2.5,1-3.2c1.2-0.6,2.1-0.2,2.5,1.1c0.3,1.1,0.6,2.2,1,3.4c0.4,1.1,0.9,1.3,1.9,0.8c0.8-0.4,1.5-0.8,2.3-1.1
			c0.5-0.2,1.1-0.5,1.6-0.4c2.2,0.7,4-0.3,5.8-1c8.8-3.6,16.2-9.4,22.5-16.5c4.4-5,7.9-10.8,10.5-16.9c1.8-4.3,2.9-9,4.2-13.5
			c0.1-0.2,0-0.4-0.1-0.9c-0.5,0.1-0.9,0.2-1.3,0.4c-2.5,1.6-5.4,2.5-7.4,4.7c-0.6,0.7-1.6,1-2.4,1.4c-5.6,2.6-10.7,6-15.2,10.2
			c-1.4,1.3-2.9,2.5-4.9,2.9c-0.7,0.1-1.3,0.5-1.8,1c-3,2.8-6.2,5.4-8.6,8.8c-1.4,2-2.9,3.8-4.4,5.7c-0.9,1.1-1.3,2.4-1.4,3.9
			c-0.1,2.8-1.4,3.9-4,3.2c-2.3-0.7-4.5-1.7-6.6-2.7C75.2,92.3,75.2,92.1,73.4,92.4z M126.9,50.3c-2.6,0.5-4.5,1.4-6.9,2.7
			c1,0.4,1.6,0.8,1.9,0.7C123.6,52.8,125.4,52.2,126.9,50.3z M135.5,51.9c0.6-1.4,1.4-2.5,0.3-3.4c-0.6-0.5-1.4-0.4-2,0.6
			C134.3,49.9,134.8,50.7,135.5,51.9z"/>
		<path class="st1" d="M52.7,289.5c-1.8,1.3-3,0.8-4.3-0.1c-0.6-0.5-1.6-0.6-2.4-0.7c-5.8-0.9-11.8-1.4-17.4-2.9
			c-9.1-2.5-18-5.8-26-11c-2.5-1.6-4.8-3.4-7.2-5.1c-0.7-0.5-1.4-1-2-1.5c-1.9-1.5-3.6-2.2-5.7-0.1c-1,1-2.5,1.3-2.8,3
			c-0.1,0.5-1,1-1.5,1.3c-2,1.1-3.6,2.6-4.9,4.5c-1.2,1.6-2.4,3.2-3.8,4.7c-5.5,5.9-10.5,12.2-14.9,19c-2.2,3.5-4.6,6.8-7,10.2
			c-2.2,3.1-4.1,6.4-5,10.2c-0.3,1.1-0.2,2.3-0.4,3.4c-0.1,1.1-0.3,2.1-0.5,3.1c-0.4,1.9-1.6,3.3-2.9,4.7c-1.2,1.4-2.3,2.9-3.3,4.4
			c-1.1,1.6-2.5,3.1-4.4,3.6c-4.3,1.1-5.4,4.2-5.5,8.1c0,1.6-0.7,2.7-1.7,3.6c-2.3,2.1-6.2,1.2-7-1.8c-1.2-4.8-2.3-9.7-1.9-14.7
			c0.1-1.7,0.9-3.3,1.3-4.9c0.6-2.4,1.9-4.2,3.9-5.8c3.9-3.2,7.3-6.9,10.2-11.1c2.5-3.6,5.4-6.8,8-10.3c4.1-5.7,8.6-11.2,11.1-17.9
			c0.4-1,0.8-2,1.4-2.9c3.3-4.7,4.4-10.2,6-15.5c0.9-2.9,1.5-5.9,2.4-8.8c0.7-2.4,0.6-4.7,0.5-7.1c-0.6-8.7-3.2-16.7-7.4-24.3
			c-1-1.8-2-3.5-3-5.2s-1.6-3.4-1.5-5.5c0.1-2.2-0.3-4.5-0.3-6.7s0.2-4.5,0.6-6.7c0.7-4,2.1-7.8,3.7-11.5c0.2-0.6,0.6-1.1,1-1.5
			c2.7-2.8,5.4-5.5,8.1-8.3c2.5-2.5,5.1-5,7.7-7.5c3.8-3.8,6.8-8.2,9.3-12.9c2.2-4.2,5.1-8,7.7-11.9c0.3-0.5,0.8-0.8,0.9-1.3
			c1.5-4.4,5-7.4,7.8-10.9c0.4-0.5,0.8-1,1.1-1.5c2.5-4.5,5-8.9,7.5-13.4c2.6-4.7,2.9-9.7,2.5-14.9c-0.1-1.5-0.3-2.9-0.7-4.4
			c-0.5-1.9-1.2-3.6-1.8-5.5c-0.4-1.4-0.8-2.8-1.1-4.2c-0.2-1.1-0.5-1.8-1.7-1.8s-1.6-0.8-1.8-1.8s-0.3-2-0.3-3
			C3.5,81,3.7,75.6,4.1,70.1c0.5-7.4,1.1-14.8,1.7-22.2c0.1-0.8,0.1-1.7,0.2-2.5c0.6-4.6,1.3-9.2,2-13.8c0.1-1,0.4-1.9,1.1-2.7
			c0.4-0.5,0.7-1.2,0.8-1.8c0.3-2.1,0.6-4.3,0.8-6.5c0.2-1.8,0-3.5-0.8-5.2c-1-2.5-1-5.1,0.4-7.6c0.5-0.9,1.3-1.6,2.4-1.5
			c1.2,0.1,1.8,1,2,2c0.7,4.3,3.5,7.1,6.5,9.9c1.7,1.6,3.4,3.4,5,5.2c2.5,2.8,5,5.7,7.4,8.7c2.2,2.8,4.4,5.6,6.4,8.6
			c2.1,3.1,4,6.2,5.8,9.5c2.7,5,3.7,10.4,2.8,16c-0.5,3.1-1.1,6.1-1.7,9.1c-0.1,0.6-0.2,1.2-0.3,1.9c2.9,1.1,5.7,2.2,8.5,3.3
			c0.9,0.4,1.8,0.9,2.5,1.6c0.8,0.7,1,1.8,0.4,2.8c-0.5,0.9-1.5,1.2-2.4,1c-1-0.3-2-0.9-2.8-1.5c-2.1-1.8-4.6-1.5-7-2
			c-0.3-0.1-0.8,0.4-1.1,0.7c-0.3,0.4-0.6,1-0.7,1.5c-0.7,3-2.7,4.9-5.2,6.5c-1.3,0.8-2.6,1.1-3.9,0.3c-2.9-1.7-4.9-3.8-4.8-7.6
			c0.1-4.3,0.3-8.6-0.3-12.8c-0.9-6-1.3-12.2-3.4-18c-1.2-3.2-1.6-6.6-2.8-9.8c-1.1-3-2.7-5.9-4.2-8.8c-0.6-1.2-1.5-2.4-2.2-3.5
			c-0.3-0.4-0.7-0.7-1.3-1.3c-0.3,0.8-0.6,1.3-0.7,1.9c-0.6,2.9-1.2,5.8-1.7,8.7c-0.1,0.5-0.3,1.2-0.1,1.6c0.7,1.6,0.2,3.2-0.1,4.8
			c-1,5.1-2.1,10.2-2.8,15.3C10,65.3,10,68.8,10,72.3s0.6,6.9,1.4,10.3c0.5,2.1,0.6,4.3,1.2,6.4c0.4,1.4,1.1,2.7,1.8,4
			c0.5,0.9,1.4,1.7,1.8,2.7c0.4,0.9,0.7,2,0.5,2.9c-0.3,1.2,0.1,1.9,0.8,2.7c0.7,0.7,1.5,1.4,2.1,2.2c0.5,0.6,1,1.3,0.3,2.1
			s-1.6,0.5-2.3,0c-0.8-0.6-1.6-1.2-2.5-1.9c-0.8,1.6-0.6,3-0.4,4.3c1.1,7.5-0.9,14.1-5.1,20.2c-3.2,4.7-6.3,9.4-9.5,14.1
			c-0.4,0.6-0.6,1.3-0.9,1.9c-0.8,1.7-1.5,3.4-2.4,5c-3,4.8-6.2,9.5-9.3,14.2c-1.5,2.3-2.9,4.6-4.6,6.7c-2.6,3.1-5.4,6-8.1,9
			c-3.6,3.9-7.3,7.8-10.8,11.8c-0.7,0.8-1.3,1.8-1.7,2.7c-1.4,3.7-2.9,7.4-4.1,11.1s-0.8,7.3,0.7,10.9c0.4,0.9,0.8,1.9,0.9,2.9
			c0.2,3.5,1.2,6.8,2.8,9.8c3.4,6.2,5.1,13,7.1,19.6c0.5,1.6,0.8,3.2,1.5,4.7c0.8,1.8,0.3,3.3-0.4,4.9c-1.8,4.2-3.6,8.4-5.2,12.7
			c-1.6,4.4-2.9,9-4.6,13.4c-0.7,1.8-1.7,3.5-2.7,5.1c-2.6,4.3-5.1,8.7-7.9,12.9c-2.4,3.6-5,7.1-7.6,10.5
			c-3.4,4.5-7.1,8.8-10.5,13.3c-0.8,1.1-1.4,2.4-1.6,3.8c-0.3,1.9-1.1,3.4-2.7,4.4c-1.3,0.8-2,1.9-2.3,3.3c-0.1,0.4,0.1,0.9,0.3,1.5
			c1.5-0.7,2.7-1.4,4-2c0.6-0.3,1.1-0.6,1.7-0.8c1.6-0.5,2.7-1.3,3.3-2.9c0.3-0.8,1.3-1.5,2.1-2c2.4-1.4,3.7-3.3,3.3-6.3
			c-0.3-2.8,0.9-5.1,2.6-7.3c4.3-5.8,8.5-11.6,12.8-17.4c2.9-4,5.8-8,8.8-12c3.8-5.1,7.7-10.1,11.5-15.2c0.7-1,1.1-2.2,1.7-3.3
			c0.2-0.3,0.1-0.8,0.4-1.1c2.3-2.7,0.9-6,1.3-8.9c0.1-0.5-0.6-1.2-1-1.7c-1.8-2.4-3.8-4.7-5.6-7.2c-0.5-0.7-0.8-1.7-0.9-2.6
			c-0.1-1.3,1.1-1.8,2.1-0.9c0.7,0.7,1.3,1.5,1.9,2.3c2,2.5,3.7,5.4,6.4,7.3c0.4,0.3,0.9,0.7,1.4,0.9c1.9,0.5,3.7,1.3,5,2.8
			c0.1,0.1,0.2,0.2,0.4,0.2c3.7,0.7,5.9,3.7,8.7,5.8c5.1,3.8,9.8,8,15.7,10.6c4.4,1.9,8.7,4,13.4,5.2c0.6,0.1,1.2,0.2,2.3,0.4
			c-0.7-1.2-1-2-1.5-2.7c-2.8-4.3-5.7-8.7-8.5-13c-0.9-1.4-1.5-3-2.2-4.6c-0.5-1.1-1-2.3-1.4-3.4c-0.9-2.2-0.1-4.7,1.8-5.6
			c1.6-0.7,2.9-0.3,3.7,1.3c0.3,0.7,0.5,1.5,0.5,2.2c0.2,4.1,1.9,7.6,4.3,10.9c1.1,1.5,2.2,3,3.3,4.5c2.1,2.8,4.8,5,7.7,7
			c1.2,0.8,2.5,1.6,3.8,2.2c2.3,1.1,2.3,1.1,3.8-1.3c0.8,0.3,1.8,0.5,2.7,0.9c1.3,0.6,2.5,1.3,3.7,1.9c1.3,0.6,2.5,1,4,0.6
			c1.4-0.4,2.6,0.1,3.3,1.5c0.3,0.5,0.7,1,1.2,1.4c1.1,0.8,1.3,1.8,0.8,3.1c-0.2,0.4-0.3,0.9-0.6,1.3c-2.9,4.4-5.8,8.8-8.7,13.2
			c-0.6,1-0.9,1.8-0.8,3c0.4,3.4-0.7,4.9-4.1,5.5c-1,0.2-1.7,0.5-2.3,1.3c-2.8,4.3-5.7,8.6-8.5,13.1c-1.2,1.9-2,4-2.8,6.1
			c-0.3,0.7-0.2,1.5-0.1,2.4c1.7-4.7,5.6-7.1,9.3-9.8c2.7-1.9,5.6-3.7,8.4-5.4c1-0.6,2.2-1.1,3.7-1.8c-0.1,0.9,0,1.5-0.2,1.9
			c-0.7,1-1.5,2-2.4,2.8c-1.9,1.7-4,3.2-5.9,4.9c-2.7,2.3-5.1,4.8-6.4,8.1c-1,2.5-2.3,4.6-4.8,6c-0.9,0.5-1.5,1.9-2,3
			c-0.5,1.2-0.7,2.5-1.1,3.8c-0.3,1.1-1.1,1.9-2.2,2.3c-2.2,0.8-4.1-0.4-4.3-2.8c-0.2-2-0.1-4-1.1-5.9c-0.4-0.8,0.3-2.2,0.6-3.3
			c1.4-3.7,3.6-7,5.7-10.4c3.6-5.7,7.3-11.4,10.9-17c0.6-0.9,0.8-1.6,0.7-2.8c-0.6-3.4,0.9-5.3,4.4-6.1c0.6-0.1,1.2-0.4,1.5-0.8
			c2.2-3.2,4.4-6.4,5.4-10.2C52.8,290.7,52.7,290.4,52.7,289.5z M19.3,22.8c0.3,1.1,0.4,2.2,0.8,3.2c1,2.1,2.1,4.1,3.2,6.2
			c2,3.7,4.2,7.2,6,11c3.1,6.3,6,12.8,8.9,19.2c2.2,4.7,3.7,9.5,3.9,14.7c0,0.4,0.3,0.7,0.4,1.1c1-2.1,1.7-4.3,2.2-6.4
			c1.6-6.9,1.7-13.7-2-20.1c-2.5-4.3-5.2-8.4-8.1-12.4c-2.8-3.8-5.9-7.4-8.9-11C24.1,26.1,21.9,24.3,19.3,22.8z"/>
		<path class="st1" d="M42.5,122.1c-0.3-4.7,1.4-7.9,4.7-10.5c2.3-1.8,4.8-3.4,7.7-4.1c3-0.7,7.1,0.7,9,3.1c1.5,1.9,3,3.7,4.5,5.6
			c0.2,0.3,0.5,0.6,0.7,0.9c0.8,1,1,2.1,0.3,3.2c-0.6,1-1.6,1.4-2.8,1.3c-0.3,0-0.6-0.1-0.9-0.1c-0.7,0-1.5-0.3-2,0
			c-0.9,0.5-1.7,1.4-2.4,2.2c-0.2,0.2,0,1,0.3,1.4c0.2,0.3,0.7,0.4,1,0.5c1.8,0.8,2.3,2.2,1,3.8c-1.2,1.5-2.9,2.4-4.7,2.9
			c-1.3,0.4-2.7,0.6-4.1,0.8c-2.3,0.4-4.4,0-6.3-1.6c-1.1-1-2.5-1.6-3.6-2.6C43.1,126.9,42.1,124.5,42.5,122.1z"/>
		<path class="st1" d="M142.6,402.3c0.4,0.9,0.8,1.4,0.8,1.9c0.2,2.8,0.3,5.5,0.5,8.3c0.4,7,0.7,14.1,1.1,21.1
			c0.1,1.2-0.1,2.5-0.3,3.7c-0.1,0.4-0.6,0.8-0.9,1.2c-0.4-0.4-1-0.7-1.2-1.2c-0.5-2.1-0.9-4.2-1.1-6.4c-0.5-6-0.9-12-0.5-18.1
			C141.3,409.4,141.3,406,142.6,402.3z"/>
		<path class="st1" d="M418.7,483.9c-0.5-1.9-0.9-3.4-1.3-5c6.1-2.6,34.4-5.5,39.5-3.9c-0.7,1.4-2,1.9-3.3,2.2
			c-10.5,2.2-21.1,4.5-31.7,6.6C421,483.8,419.9,483.8,418.7,483.9z"/>
		<path class="st1" d="M63,181c-1.1,0-1.8-0.6-1.8-1.7s1.5-2.5,2.6-2.4c0.9,0,1.8,1.1,1.8,2.1C65.6,180.1,64.4,181,63,181z"/>
		<path class="st1" d="M56.4,175.4c-1.3,1.1-2,1.2-2.6,0.5c-0.5-0.6-0.4-1.2,0.2-1.6C55.1,173.7,55.8,174.2,56.4,175.4z"/>
	</g>
</g>
</svg>
