<?xml version="1.0" encoding="utf-8"?>
<!-- Generator: Adobe Illustrator 19.1.0, SVG Export Plug-In . SVG Version: 6.00 Build 0)  -->
<svg version="1.1" id="Layer_1" xmlns="http://www.w3.org/2000/svg" xmlns:xlink="http://www.w3.org/1999/xlink" x="0px" y="0px"
	 viewBox="174 -123.6 1190.6 841.9" style="enable-background:new 174 -123.6 1190.6 841.9;" xml:space="preserve">
<style type="text/css">
	.st0{fill:#FFFFFF;}
</style>
<g>
	<path class="st0" d="M681.6,460c0.4-1.5,2.6-1.1,3.9-0.5c-0.2,1.6-2.9,2-3.5,0.5H681.6z"/>
	<path class="st0" d="M671,389.8c3.2-1.8,7.5,1.3,7.7,4.9c0.3,3.6-2.4,6.9-5.6,8.7c-3.7,2-8,2.4-12.1,2.8c3.4,1.5,6.8,3.1,10.2,4.6
		c1.2,1.4-0.8,3.4-2.6,3.6c-1.8,0.3-3.9,0.1-5.1,1.5c-0.7,0.9-0.7,2.3-0.6,3.5c0.3,4.8,0.6,9.7,2.7,14c2.1,4.3,6.6,7.8,11.4,7.2
		c-7,7-14.2,14.2-18.5,23.2s-5.3,20.1,0,28.5c1.8-8,4.1-15.9,6.7-23.6c1.1,5.9,2.1,11.9,3.2,17.8c0.7,4.1,1.5,8.3,4.2,11.5
		c2.7,3.1,7.9,4.4,10.9,1.6c-3.1-5.9-3.9-13-2-19.4c6.9,1.5,3.5,13.8,9.4,17.7c3,2,7.5,0.5,9.6-2.5s2.4-6.9,2-10.5
		c-0.9-8-4.9-15.6-10.9-20.9c2.4-2.3,6.4,0.1,8.4,2.7c2,2.6,4.4,6,7.7,5.6c1.5-0.2,2.8-1.2,4-2.1c5.2-4.1,10.5-8.2,15.7-12.4
		c-17.1-9.6-31.1-24.6-39.5-42.3c18.9,14.9,37.8,29.7,56.7,44.6c5-7.8,12.1-14.2,20.3-18.4c-1.2,7-6.1,12.8-9.4,19.2
		c-3.3,6.4-4.9,14.8-0.1,20.2c3.8-4.2,10.3-5.6,15.4-3.4c-9.5,6.5-17.7,15-23.7,24.8c-2.2,3.7,3.7,7.7,7.7,6s6.1-5.9,9.1-9
		s8.5-5,11.3-1.7c-4.4,3-9.1,6.5-10.5,11.6c-1.4,5.2,3.1,11.8,8.2,10.3c2.3-0.7,3.9-2.7,5.3-4.5c3.8-4.9,7.5-9.8,11.3-14.7
		c2.1,5.7,0.1,12.6-4.6,16.4c10.5,1.3,18.9-10.6,17.6-21.1c-1.3-10.5-9.2-18.9-17.6-25.4c1.9-3.8,7.6-3.5,11-0.9
		c3.4,2.5,5.4,6.5,8.6,9.2c3.2,2.7,8.7,3.8,11.2,0.4c1.2-1.6,1.3-3.7,1.4-5.6c0.3-16.6-4.1-33.2-12.6-47.5
		c6.8-0.2,13.6,3.7,16.9,9.7c2.1,8.9,4.2,17.9,6.3,26.8c3.8,3,8.5-2.3,10.3-6.7c5.2-12.1,10.3-24.1,15.5-36.2
		c3.9,5.8,3.5,13.5,1.5,20.2c-2.1,6.7-5.6,12.8-7.6,19.5c-0.3,1.1-0.6,2.5,0.2,3.4s2.2,0.9,3.4,0.8c3.8-0.4,7.5-0.7,11.3-1.1
		c4.3-0.4,9.3-1.3,11.2-5.1c1.8-3.6-0.1-7.9-0.6-11.9s2.3-9.4,6.1-8c0.2,1.9,0.3,3.9,0.5,5.8c7.4-5,10.2-16,6-23.9
		c-4.2-8-14.8-11.9-23.1-8.6c-1.1-1.3-1.4-3.3-0.5-4.7c-2.4-1.3-5.5,0.8-6.4,3.4c-0.9,2.6-0.1,5.4,0.6,8.1c-4.6-4-8.2-9.4-10-15.2
		c2.5-3.4,1.2-8.2,0.6-12.4c-0.7-4.2,0.4-9.7,4.6-10.6c2.2-0.4,2-3.6,1.3-5.7c-4.9-14.2-11.4-27.8-19.2-40.6c-1.8-3-3.5-7.5-0.5-9.4
		c7.3-4.8,3-16.5-3.3-22.4c-6.4-6-14.9-12-14.5-20.7c13.4,9.7,27.6,21.2,30.4,37.5c1,5.8,0.4,11.7,1.1,17.5
		c2.1,17.7,15.6,32.7,16.5,50.5c0.3,6.3,1,15.2,7.3,15.5c10.7,0.5,20.7,8.4,23.6,18.8c2.9,10.4-1.6,22.3-10.6,28.3
		c-5.6,3.7,2.9,14-1.8,18.6c-9.6,1.2-19.2,2.4-28.8,3.6c-9.7,1.2-20,2.6-27.8,8.5c-7.9,5.9-12.1,15.3-15.5,24.5
		c-2.1,5.8-4,11.8-7.9,16.5c-3.9,4.8-10.3,8-16.2,6.3c1.4,2.5-0.7,6.2-3.5,6.3c-2.9,0.1-5.3-3.3-4.1-6c-6.8,0.2-13.5,3.1-18.3,8
		c-2.4,2.5-5.4-3-3.8-6c1.5-3.1,4.3-6.8,2.1-9.4c-2.1-2.6-6.3-0.3-8.4,2.3c-2.2,2.6-5.5,5.6-8.3,3.8c3.2-15.3,4.4-31.1,3.5-46.8
		c-0.2-4-0.8-8.4-3.9-11c-3.9-3.3-9.8-1.9-14.7-0.4c-8.2,2.5-18.1,7.4-17.5,16c0.8,11.5-0.5,23.1-3.8,34.1c-4.7-2.4-9-5.5-12.8-9.2
		c0.7,2.4,1.3,5,0.3,7.2c-1.1,2.2-4.8,3.1-5.9,0.9c-6.9-13.1-28.2-12.1-35.6-25c-4.7-8.2-1.5-18.5,2.7-26.9
		c4.2-8.4,9.6-16.9,9.4-26.3c-2.1,1.8-4.8,2.9-7.5,2.9c2.2-7,3.4-14.4,3.6-21.8c0-2-1.2-4.8-3-3.9c-7.3,3.7-16-0.1-23.2-3.8
		c-4.7-2.4-9.5-4.9-12.8-9.1c-5.2-6.6-5.3-15.7-5.3-24c0.2-19.6,0.5-39.8,8.2-57.8c6-14.1,16.2-26,26.3-37.6
		c6.2-7.1,12.3-14.2,18.5-21.4c2.7-3.1,7.1-6.5,10.5-4.2c-3.9,10.8-12.9,18.8-20.7,27.3c-17.6,19-30.4,42.5-36.8,67.6
		c-2.8,11-4.4,22.6-1.7,33.6c2.7,11,10.3,21.3,21.1,24.6c4.6,1.4,10.8,0.8,12.5-3.7c2.1-5.3-3.7-10.1-8.6-12.8
		c4.7-1.8,10.3-0.9,14.2,2.1c3.5-0.4,2.8-6.1-0.1-8.2c-2.9-2.1-6.9-3.1-8.3-6.4c4.1-3.2,11.1,2.6,14.9-0.9c3.2-3-0.9-8.6-5.3-9.3
		c-4.4-0.7-9,1-13.3-0.3c-4.3-1.3-6.7-8.3-2.5-9.8c1.1-0.4,2.3-0.2,3.5,0c3.6,0.5,7.2,1.1,10.7,1.6c-5.9-6.9-17.6-7.5-24.3-1.4
		c-3.2-2.9,0.3-8.3,4.2-10.2c11.7-5.8,27.7-0.4,33.4,11.3c3.2,6.5,5.3,15.9,12.6,16.3c2.5,0.1,2.8,4.2,0.8,5.7
		c-1.9,1.6-4.7,1.4-7.2,1.7C674.4,386.3,671.5,387.4,671,389.8 M854.1,391.3c-1.3,2.5,0.3,6,3.1,6.6c2-2.1,0.2-6.3-2.8-6.2
		 M779.4,525.5c-1,0.3-0.5,2.3,0.5,2.1c0.8,0.1,1.5-0.8,1.3-1.6s-1.3-1.1-2-0.6L779.4,525.5z"/>
	<path class="st0" d="M823,236.9c-0.2-5.6-0.5-11.2-0.7-16.8c-0.1-3.4-0.3-6.8-1.3-10c-1.5-4.9-4.8-9.7-3.4-14.6
		c1.2-1.5,3.5,0.3,4.4,1.9c5.6,10.2,7.9,22.2,6.7,33.8c-0.2,1.6-0.4,3.2-1.4,4.5S824.3,237.7,823,236.9z"/>
	<path class="st0" d="M813.9,269.6c4.7,5.9,14.1,4.6,20.9,1.3c6.8-3.3,13.7-8,21.2-7c10,1.4,19.6-5.5,24.7-14.2
		c5.1-8.7,6.5-18.9,7.8-28.9c2.3,2.1,5,3.8,8,4.8c2-19.8,3.9-40-0.3-59.4c-4.2-19.5-15.6-38.4-33.6-46.8
		c-7.3-3.4-16.1-5.5-20.1-12.4c16.4,0.9,32.3,8.7,43,21.1c9,10.4,14.3,23.4,19.4,36.2c1.1,2.6,1.5,6.6-1.2,7.4
		c11,33.4-2.3,73.4-31.1,93.5c-2,1.4-4.1,2.7-6.4,3c-2.9,0.4-5.7-0.7-8.6-0.9c-7.9-0.7-14.8,4.5-21.8,8.3s-16.4,6.1-22,0.6
		s-14.6-3.8-22.3-2.4s-17.5,0.9-20.7-6.1c19.9-0.6,39.6-6.3,56.8-16.3c2.4-1.4,5.5,1.6,5.2,4.4s-2.6,4.9-4.9,6.5
		C823.5,265.4,818.8,267.9,813.9,269.6z"/>
	<path class="st0" d="M756,164.6c1.4-2.5,3.5-4.7,6.1-5.8c6.9-3,15.3,2.2,17.9,9.3c0.3,0.8,0.5,1.6,0.2,2.3c-0.9,2.3-5.2,1.7-5.6,4
		c0.6,2.3,2.5,4,4,5.9s2.5,4.7,1,6.6c-0.6,0.7-1.4,1.2-2.3,1.5c-6.5,2.7-14.6,0.9-19.2-4.4S752.6,170.7,756,164.6z"/>
	<path class="st0" d="M619.7,220.5c-9.2-7.8-14.8-19.3-24.8-26c0.4,2,0.4,4.1,0,6.2c-6.7,0.4-10-8-10.5-14.6
		c-1-11.5,0.2-23.3,3.3-34.4c4,5.7,0.2,13.7,1.5,20.6c0.6,3.1,2.3,6,4,8.6c12.1,18.6,28.7,34.3,48.1,45.1c4.9,2.7,10.9,5.2,15.9,2.8
		c4.4-2.1,9.6,0.1,13.4,3.1c3.8,3,7.1,6.8,11.5,8.6c2.7,1.1,6,1.6,7.7,4s-1,7-3.3,5.2c5.1,5.2,11.7,8.9,18.7,10.7
		c-2.3,4-7.9,5-12.3,3.6c-4.4-1.4-7.9-4.6-11.5-7.6c-10-8.4-21.1-15.4-33-20.7C638.7,231.1,628,227.6,619.7,220.5z"/>
	<path class="st0" d="M701.5,249.4c-2.3-3.2-4.4-8.2-1.2-10.4c2.9-2,6.6,0.9,9.2,3.3c4.4,4.1,9.7,7.5,15.7,8.1
		c8.5,0.9,17.2-4.1,25.3-1.3c3.1,1.1,6,4.8,3.9,7.3c-0.7,0.8-1.8,1.2-2.8,1.5c-7.2,2.4-14.5,4.8-22,5.3c-7.6,0.5-15.6-1.1-21.3-6
		C705.6,254.9,703.5,252.1,701.5,249.4z"/>
	<path class="st0" d="M796,406.8c-7.9,7.3-16.4,14-25.3,19.9c-15.6,10.3-38.8,7-50.8-7.4c1.7-4.2-1.6-9.6-6.1-10.1
		c-0.4-2.4,2-4.4,4.3-5.2s4.9-1.1,6.7-2.7c1.8-1.6,1.9-5.3-0.5-5.9c-4-1-4.3-7.1-1.5-10c2.8-3,7.2-3.7,11.2-4.5s8.4-2.2,10.4-5.8
		c-3.5-2.5-7-5-10.5-7.5c3.7-11.5,27.1-3,30.7-14.5c-4.2-2.1-4.3-8.1-2.6-12.5s4.6-8.4,4.6-13.1c0-3.6-1.8-6.9-2-10.4s2.6-7.8,6-6.8
		c4.4,10.9,5.8,23.1,4,34.7c3.9,1,5.3,6.4,3.6,10.1s-5.3,6.1-8.8,8.2c1.4,2.1,2.7,4.2,4.1,6.2c-3.4,0.8-6.7-1-9.8-2.5
		s-7-2.6-9.9-0.7s-1.9,7.8,1.5,7.3c3.3-0.5,4.8,4.8,2.5,7.3s-6,2.6-9.4,2.7s-7.1,0.5-9.2,3.1c-2.1,2.6,0,7.8,3.2,6.8
		c4.5-1.4,9.6-0.9,13.7,1.3c0.8,5.2-6,8.1-11.3,8.1s-11.8-0.3-14.4,4.2c8.4,4.4,18.2,6.1,27.5,4.6c-2.1,7.1-11.4,8.5-18.8,8.5
		c5.1,7.5,16.6,9.7,24.1,4.6c12.3-8.3,11.1-29.4,24.3-36.2c-2,7.9-4.4,15.7-7.2,23.4c11-5.6,18.1-16.4,24.7-26.7
		c6.3-9.9,12.9-21.6,9.3-32.8c-3.5-10.6-7-21.3-10.5-31.9c-1.5-4.5-1.6-11.5,3.2-12c4.6-0.5,6.2,5.9,6.4,10.5
		c0.5,8.4,2.5,16.7,5.9,24.3c4.9,11,3.6,24.1-1.4,35.1C813.1,389.4,804.8,398.6,796,406.8z"/>
	<path class="st0" d="M692.5,100.4c1.3,2.8,1.6,7.1-1.3,8.1c-3.2,1-5.3-3.2-6.6-6.2c-6.3-14.3-26-18.7-32.5-32.8
		c3.3-2.4,8-0.1,11.4,2.2C674.9,79.4,686.8,87.9,692.5,100.4z"/>
	<path class="st0" d="M699.3,162.1c3.3,2.1,4.4,6.9,2.4,10.2c5.6-3.3,11.1-6.7,16.7-10c5.1-3,11.8-1.4,16.6,1.9
		c6.9,4.8,11.2,12.8,13.1,21c1.8,8.2,1.5,16.8,0.6,25.2c-0.5,4.5-1.1,9.1-3.1,13.2s-5.6,7.6-10.1,8.4c-8.3,1.5-15.2-6.3-23.3-8.6
		c-5.2-1.5-10.8-0.8-15.9-2.6c-8.9-3.2-13.6-13.9-12-23.3s7.9-17.3,15.2-23.3c-6.8,1.1-14-2.7-17.1-8.8c-3.1-6.1-1.7-14.2,3.3-19
		c2.8-2.7,6.8-4.3,10.6-3.6c3.8,0.8,7.1,4.4,6.7,8.3c-0.4,3.9-5,6.9-8.5,5.1C693.1,158.7,697,160.6,699.3,162.1 M726.7,209.8
		c-3,3.5-2.2,9.7,1.7,12.2s9.9,0.8,11.9-3.4c0.7-1.5,1-3.3,1.1-5c1.2-12.6-0.5-25.4-4.9-37.2c-1-2.6-2.7-5.5-5.4-5.5
		c-0.9,4.6-6,6.8-10.3,8.8c-4.3,1.9-9,5.5-8.2,10.1c0.5,2.6,2.7,4.6,3.4,7.2c0.4,1.5,0.2,3.2,0.8,4.7s2.4,2.7,3.7,1.8
		c2.7-1.9,6.6-2.1,9.6-0.5c2.9,1.7,4.7,5.1,4.5,8.5C731.9,212.6,728.6,211.9,726.7,209.8 M691.3,207c1.1,2.1,2.3,4.1,3.7,6
		c2,2.7,7.1,1.9,8-1.4s-2.8-6.7-6-5.5c-1.3-1.1-0.9-3.2-0.1-4.6c0.8-1.4,2-2.8,2.1-4.5c0.1-2.7-3.1-4.6-5.6-3.8
		c-2.5,0.8-4.1,3.5-4.3,6.2C689.1,202,690.1,204.6,691.3,207z"/>
	<path class="st0" d="M827.8,183.8c7.9,1.5,15.5,4.4,22.4,8.5c-1.7-6.5-6-12.2-11.7-15.7c-6.6-4-15.5-5.5-19.3-12.3
		c7.2-7.1,17.8-10.5,27.8-8.9c10,1.5,19,8,23.8,16.9c0.6,1.1,1.1,2.3,0.9,3.5c-0.2,1.2-1.4,2.3-2.6,1.9
		c-8.5-9.6-21.6-14.9-34.3-13.8c-0.6,2.7,2.5,4.6,5,5.8c14,7,21.4,25,16.4,39.9c-5.3-8.6-13.6-15.4-23.1-18.8
		c-1.3-0.5-3.2-0.6-3.6,0.7c5.7,6.1,10,13.6,12.4,21.6c0.6,2.1,0.1,5.4-2.1,5c-3.1-3.5-6.2-7-9.3-10.5c1.1-0.8,0.5-2.4-0.2-3.6
		c-3.5-6-6.9-12-10.4-18C821.2,183.3,824.9,183.3,827.8,183.8z"/>
	<path class="st0" d="M702.1,102.9c-1.9-2-1.4-5.5,0.4-7.7c1.8-2.1,4.5-3.3,7.1-4.3c5.8-2.3,11.6-4.7,17.5-7
		c4.2-1.7,9.5-3.2,12.7-0.1c-2.1,3.3-4.3,6.6-6.5,9.8c7.1-2.3,14.2-4.7,21.4-7c10-3.3,21.7-6.3,30.3-0.3c2,1.4,3.1,5.4,0.6,5.6
		c-5.6,0.6-10.8,4.7-12.5,10.1c6.6-0.9,13.3-1.4,19.9-1.4c3.3,0,7.2,0.3,9.2,2.9c2.1,2.6-0.4,7.8-3.5,6.5c-4.1-1.7-9.4,0.8-10.6,5.1
		c13.1,3.5,25.1-8.1,38.5-10.5c3-0.5,7,0,7.7,3c-12.6,4.8-25.2,9.7-37.8,14.5c-2.6,1-5.3,2-8,1.4s-5.1-3.5-4-6.1
		c0.6-1.4-1.3-2.6-2.8-2.9c-6.3-1.1-13.1,1.8-16.8,7c-2.1,0.9-3.1-2.6-2.7-4.9c1.3-7.1,2.6-14.2,3.9-21.2
		c-10.3,4.3-20.6,8.6-30.8,12.9c-3.1,1.3-6.5,2.6-9.8,1.9s-6-4.7-4.2-7.6c1.5-2.4-1-5.7-3.8-6.1c-2.8-0.4-5.5,1.1-7.8,2.7
		C707.4,100.8,705,102.6,702.1,102.9 M726,100.1c-1.1,0.3-1.7,1.9-1.1,2.9c1.5,0.2,3.1,0,4.6-0.5C729.4,100.9,727.5,99.5,726,100.1
		 M767.9,93.1c-1.1,0.1-0.8,2.2,0.3,2.1S769,93,767.9,93.1z"/>
	<path class="st0" d="M667,322.7c-1.9,0.4-3.9,0.8-5.8,0.3s-3.7-2-3.7-4c0-1.7,1.2-3.1,2.4-4.2c6.9-6.8,15.4-11.7,22.1-18.6
		c3.3-3.4,6.1-7.2,8.8-11.1c3.8-5.2,7.6-10.5,11.4-15.7c-1.6,15.9-9.6,31.1-21.8,41.4c-1,0.8-0.7,2.5,0.1,3.5c0.8,1,1.9,1.7,2.6,2.8
		c1.5,2.3,0.4,5.4-1.2,7.6s-3.9,3.9-5.2,6.3s-1.2,6,1.1,7.4c2.6,1.5,0.6,5.5,0.8,8.5c0.2,2.8,2.6,5,3.6,7.6c0.9,2.7-1.5,6.7-3.9,5.1
		c-4.8-5.6-9.5-11.3-14.3-16.9c-2.4-2.8-5-6.7-3.3-10c1-1.9,3.1-3,4.7-4.4C667.1,327,668.3,324.4,667,322.7z"/>
	<path class="st0" d="M582.9,146.4c-1.8-0.4-1.7-3.1-1.1-4.8c4-10.7,10.6-20.5,19-28.2c1.6-1.5-0.7-4.2-2.8-4.1s-3.9,1.8-5.9,2.6
		c-2,0.9-5,0.5-5.4-1.7c12-19.6,32.2-34.1,54.6-39.3c1.8-0.4,3.9-0.7,5.5,0.3c1.6,1,1.8,3.9,0,4.5c-15.4,4.9-30.2,11.7-43.9,20.2
		c-3,1.8-6.2,5.8-3.8,8.3c2.4-0.8,4.9-1.6,7.3-0.7c2.3,0.8,3.9,4.1,2.1,5.9C598.1,120.1,589.3,132.7,582.9,146.4z"/>
	<path class="st0" d="M668.3,144.4c0.1,1-0.4,2-1,3c-2.9,5.1-5.9,10.3-8.8,15.4c3.1-1.3,7-0.2,9,2.5c1.3,10-0.4,20.3-4.9,29.3
		c-1.9,3.7-4.2,7.2-5.5,11.2c-1.2,4-1.2,8.6,1.4,11.9c-4.5-1-7.6-5.3-8.5-9.8s0-9.1,1.3-13.5c2.2-7.6,5.3-14.9,9.2-21.7
		c-0.9-0.6-1.8-1.1-2.7-1.7c-3.3,2.6-7,4.9-10.9,6.6c-2.2-2.6-0.8-6.5,0.8-9.5c4.3-7.9,9.3-15.3,14.9-22.3c1.8-2.2-1.1-5.2-3.8-6.2
		c-7.4-2.7-16.1-1.6-22.6,2.9c-1.8,1.2-4.2-1.2-3.8-3.3c0.4-2.1,2.3-3.5,4.2-4.6c6.1-3.4,12.9-5.5,19.8-6c3.4-0.3,7.6-0.7,8.9-3.8
		c-5.1-6.9-13.7-11-22.3-10.6c-4.5,0.2-9.4,1.4-13.1-1.2c1.5-3.9,6.2-5.5,10.4-5.5s8.3,1.2,12.5,0.7c4.5-0.6,8.9,1.8,12,5.2
		s4.9,7.6,6.7,11.7c0.7,1.5,1.2,3.4,0.1,4.6c-0.6,0.7-1.6,0.9-2.5,1c-5.1,0.9-10.2,1.8-15.4,2.7c3.9,2.6,7.7,5.2,11.6,7.7
		C666.8,141.9,668.2,142.9,668.3,144.4z"/>
</g>
</svg>
