<?xml version="1.0" encoding="utf-8"?>
<!-- Generator: Adobe Illustrator 18.1.1, SVG Export Plug-In . SVG Version: 6.00 Build 0)  -->
<svg version="1.1" id="Layer_1" xmlns="http://www.w3.org/2000/svg" xmlns:xlink="http://www.w3.org/1999/xlink" x="0px" y="0px"
	 viewBox="0 0 595.3 841.9" enable-background="new 0 0 595.3 841.9" xml:space="preserve">
<g>
	<g>
		<path fill="#FFFFFF" d="M-136.5,683.4c0-193.5,0-387,0-580.5c290.1,0,580.2,0,870.4,0c0,193.5,0,387,0,580.5
			C443.8,683.4,153.7,683.4-136.5,683.4z M334.2,131.7c1.5-3,3.1-1.7,4.4-0.7c3.5,2.6,6.6,5.7,10.3,7.9c3.8,2.3,4.9,5.4,4.3,9.6
			c-0.6-1.8-1.3-3.6-1.9-5.4c-0.3,0.1-0.5,0.1-0.8,0.2c0.1,1.6,0.2,3.2,0.3,4.8c-1.5-1.2-2.8-2.2-4.2-3.4c0.5-0.9,0.9-1.8,1.8-3.4
			c-4.2,2.1-4.6-0.9-5.4-3.5c-3.1,4.8,0.8,6.8,2.9,8.7c-5.4,0.7-10.6,1.4-15.9,2.1c1.9,4.9,6.7,3.9,10,5.4c-0.2,0.5-0.3,1-0.5,1.4
			c-3.6-0.9-7.2-1.8-11.5-2.9c1.2,1.1,1.9,1.8,2.6,2.4c0,0.3-0.1,0.7-0.1,1c-2.2,0-4.4,0.1-6.5,0c-1.7-0.1-3.3-0.4-5-0.5
			c-3.2-0.2-1,2.2-1.4,3.3c-1.1,2.9-8.6,5.6-10.4,3.1c-1.7-2.4-3.7-1.9-5.7-2.3c-3.1-0.7-6.2-1-9.2-1.9c-3.1-1-5.8-2.1-8.8,0.3
			c-0.9,0.7-2.7,0.2-4.1,0.1c-1-0.1-2-0.4-3-0.6c-0.2,0.3-0.3,0.6-0.5,0.8c1.2,0.5,2.3,1,3.5,1.5c-1.4,1.3-2.2,1.8-2.4,1.6
			c-3.4-4.1-8.3-2.2-12.4-2.6c-2.3-0.2-6.7-0.5-6.9,4.3c0,0.5-1.6,1.2-2.5,1.3c-1.1,0.1-2.3-0.3-3.5-0.4c0.2,0.3,0.4,0.7,0.6,1
			c-2.9,2.3-5.8,4.7-8.7,7c1.2,0.9,2.3,1.7,4.1,3c-2.2-0.3-3.4-0.5-5-0.8c0.1,1.1,0.2,1.9,0.3,2.6c-2.5,0.3-4.8,0.5-7.1,0.8
			c0,0.2,0,0.4,0,0.5c0.9,0.2,1.8,0.5,3.8,1c-2.5,0.6-3.9,0.9-5.4,1.2c0,0.2,0,0.5,0,0.7c1.7,0.1,3.4,0.2,5.5,0.4
			c-3.5,2.7-7.7,1.4-10.9,4.9c-6.1,6.6-12.3,13.1-16.4,21.2c-0.3,0.5-0.3,1.6,0,2c1.5,2,0.7,3.5-0.6,5.2c-0.4,0.6-0.4,2.3,0.1,2.7
			c1,0.9,3.1,2.3,3.7,1.9c3.9-2.6,7.7-5.4,11-8.6c2.8-2.7,4.9-6.1,7.3-9.1c-0.8,0-1.9,0-3.1,0c-0.1-0.4-0.2-0.7-0.2-1.1
			c1.3-0.3,2.7-0.7,4-1.1c4.5-1.3,9-2.5,13.4-3.9c0.6-0.2,1.2-1.9,1.1-2.8c-0.6-4,0.2-5.9,3.9-7.7c0.5-0.3,1-0.5,1.8-0.9
			c-0.9-0.4-1.5-0.7-2-0.9c3,0.8,6.2-2,9.6,0.7c-1.6,0.8-2.7,1.2-4.5,2.1c3,1.7,5.5,3.1,8,4.5c-2.4,4.4-1.5,6.3,4.2,8.5
			c1.2,0.5,2.6,1.1,3.3,2.2c2.2,3.4,5.6,3.3,8.9,3.6c1.4,0.1,3,0.1,4.2,0.8c5.4,3,9.9,0.4,14.5-2c1.4-0.8,3.1-1.4,4.7-1.4
			c4.8,0,9.6,0.4,14.5,0.6c0.4,5.9,8.5,6.1,10,11.9c1.6-5-3.3-6.1-5-9.4c1.4-1.9,2.8-3.9,4.7-6.5c0.7,5.1,2.7,3.3,4.9,1.8
			c0.9-0.6,2.2-1.1,3.3-1c3,0.4,6,1.2,9,1.8c0.3-1.5,0.4-2.2,0.5-3c4.4,2,4.5,2.2,4,8c3.2,0,6.4,0,9.5,0c0,0.2,0,0.4,0,0.6
			c-2.9,0.3-5.8,0.7-8.6,1c0.1,0.4,0.1,0.8,0.2,1.2c1.4,0,2.8-0.1,4.1,0c0.9,0.1,1.7,0.5,2.5,0.8c1.1,0.4,2.1,1,3.2,1.5
			c1.2,0.6,2.6,0.9,3.6,1.7c2.1,1.8,3.8,4.2,6.1,5.6c3.4,2.1,5,4.9,3.8,8.7c-0.5,1.7-1.3,3.5-2.4,4.8c-3.4,4.1-3.8,8.3-1.4,13
			c0.9,1.8,1.4,3.9,2,5.8c0.2,0.8,0.3,1.7,0.3,2.5c-0.1,3-0.3,5.9-0.5,8.9c0,0.7,0.1,1.4,0,2.2c-0.2,3.8-0.5,7.6-0.6,11.4
			c-0.1,5.7,0.2,11.3-0.1,17c-0.2,3.6-1.9,7.1-1.7,10.6c0.7,9.5-3.2,18.2-3.8,27.5c-0.2,2.6-0.9,5.2-1.5,8.5c-0.4-3.4-0.7-6-1-8.5
			c-0.3-2.7-0.4-5.5-0.7-8.3c-0.4,0.2-0.7,0.3-1.1,0.5c-0.7-1.1-2-2-2.1-3.2c-0.7-4.4-1.1-8.8-1.6-13.3c-0.3-2.4-1.5-3.8-3.8-2.5
			c-2,1.1-2.8,0.5-3.5-1.3c-0.4-0.9-0.8-2.2-1.4-2.4c-2.7-0.7-1.9-2.6-1.8-4.3c0.1-0.9,0.4-1.8,0.6-2.7c-1.6-0.6-2.9-1.4-4.3-1.5
			c-3.4-0.2-3.7-2.1-3.4-4.9c0.1-1.2-0.6-2.5-1.1-4.1c1.3-1.3,3.6-2.9,1.5-6.2c-1.4,1.8-2.6,3.4-4.3,5.5c0.1-4.2-1-6.6-4.1-8
			c-0.9-0.4-2.2-2.2-2-2.5c0.6-1.1,1.8-2,3-2.5c1.3-0.5,2.8-0.4,4.2-0.5c0.3,0,0.6,0.1,1,0.2c-0.5,0.7-1,1.3-2,2.7
			c2.4-0.4,3.9-0.6,5.6-0.8c-1-2.7,0.9-6.3-3.5-7c-0.1,0.9-0.3,1.7-0.5,3.1c-2.9-1.6-5.7-3.9-8.1,1c-1.9-2.5-3.5-4.6-5.1-6.7
			c2.2,0.6,4.6,1.4,7.3,2.2c-0.3-4.1-0.3-4.1-4.4-7.4c-4.7,2-6.6,2.1-8.1,0.3c3.9-3.1,3.6-4.1-0.5-7c-2.3-1.6-4.2-3.9-6.4-5.9
			c1.5-1.6,2.6-2.4,3.3-3.5c0.7-1.1,1-2.4,1.5-3.7c0.9-2.3,0.7-3.6-2.2-3.9c-1.4-0.2-3.1-1.2-3.9-2.4c-1.6-2.2-8.3-6.4-10.1-5.1
			c-2.1,1.4-3.1-0.1-4.5-0.2c-1.7-0.1-4.4-0.4-5,0.5c-1.5,2.2-2.1,5-3.1,7.4c4.4,1.3,8.7,2.6,13,3.9c0.2,0.1,0.3,0.4,0.5,0.5
			c1.5,1.2,4.2,2.3,4.3,3.7c0.2,1.4-2.1,3.1-3.3,4.7c-0.2,0.2-0.4,0.4-0.7,0.7c0-1.2,0-2.1,0-4.2c-4,5.6-9.3,4.4-14.2,4.8
			c-2.8,0.2-4.1-1-4.6-3.3c-6.4,0.5-12.8,0.9-19.2,1.4c0.3-0.5,0.5-0.9,0.7-1.5c-4.3-0.5-8.5-1.1-12.7-1.6c-2.3-0.3-4.5-0.6-6.8-0.8
			c-6.4-0.6-12.9-1.3-19.3-1.8c-0.7-0.1-1.7,0.5-2.3,1c-2.4,1.9-5,1.4-7-0.3c-2.7-2.3-4.9-1.8-7,0.4c-5.3,5.4-10.5,10.8-15.6,16.4
			c-1.2,1.3-2,3-3.1,4.4c-3.2,4-6.5,7.8-9.7,11.8c-0.5,0.6-0.7,1.6-0.8,2.4c-0.5,3.6-1,3.9-3.5,2.1c-2.4,1.9-4.8,3.5-6.8,5.6
			c-2.9,3.1-5.7,6.4-8.2,9.8c-8.8,11.7-15.2,24.6-20.4,38.1c-0.6,1.5-0.5,3.3-0.8,5.2c4,0,7.3,0,8.2,4.6c1.3-1.5,2.2-2.7,3.2-3.8
			c0.3,0.2,0.7,0.4,1,0.6c-1.5,3.2-3.1,6.3-4.5,9.5c-1.7,3.7-3.6,7.3-4.9,11.2c-2.5,7.2-0.1,15.5-5.1,22.1c-0.6,0.8-1.2,1.6-1.8,2.5
			c-0.6-0.7-1.2-1.5-1.9-2.2c-0.2-0.3-0.5-0.5-1.1-1c-0.4,0.8-1,1.4-1.1,2.1c-1,6.1-2.2,12.3-2.7,18.5c-0.6,7.6,0.2,15.2,3.7,22.1
			c1.4,2.8,1.6,5.6-0.5,7.7c-3.4,3.3-4.2,7.1-4,11.5c0,1.1-0.6,2.3-0.9,3.5c-0.3,1.3-0.5,2.6-0.6,3.9c-0.4,3.9-0.6,7.7-1.1,11.6
			c-0.2,1.9-1.1,3.8-1.1,5.7c0,3.9,0.4,7.8,0.4,11.7c0,0.7-0.7,1.7-1.4,2.2c-2.6,2-3.4,4.5-2.1,9c2.3-3.7,4.2-6.7,6-9.8
			c-0.3,2.3-0.9,4.6-1.9,6.6c-1.9,3.5-4.4,6.8-6.3,10.3c-3.3,6.2-6.5,12.4-9.4,18.7c-1.2,2.6-1.7,5.5-1.9,8.4
			c-0.1,1.7,0.9,3.5,1.4,5.3c1.5-0.8,2.9-1.7,4.4-2.5c0.2-0.1,0.5,0,1.2,0c0.6,2.1,1.1,4.5,1.8,6.7c1,3,3.3,3.4,5.4,1.1
			c2.9-3.2,5.9-6.4,8.8-9.6c5.8-6.3,11.5-12.7,17.3-19c1-1.1,2.2-1.9,4-3.5c1.2,6.5,2.3,12.2,3.3,17.8c0.5,3.1,1.4,6.2,1.1,9.2
			c-0.5,4.4-1.7,8.7-2.9,13.1c-3.9,14.9-7.9,29.7-11.9,44.6c-2.4,9-4.7,18-7,26.9c-1.2,4.7,0.4,7.1,5.3,7.9c1,0.2,2.1,0.2,3.5,0.3
			c-1.2,3.7-0.4,6.2,3.2,7.6c0.5,0.2,0.9,1.7,0.9,2.5c-0.3,3.3-0.8,6.6-1.3,9.8c0.2-0.2,0.4-0.4,0.6-0.7c0.3-0.5,0.5-1.1,0.7-1.7
			c1.9-7.2,4.4-14.1,9.9-19.7c1.7-1.8,2.8-4.4,0.8-7c5.3-1.3,8-5.4,8-10.8c0-2,1.1-4.1,1.9-6.1c0.6-1.5,1.5-2.9,2.1-4.5
			c1.4-3.8,2.6-7.6,3.9-11.5c1.2-3.4,2.3-6.8,3.6-10.1c1.5-4.1,0.8-8.8,4.8-12.2c3.8-3.2,7.1-7.1,10.4-10.9c2-2.2,3.3-5.1,5.5-7.1
			c8.1-7.3,15.1-15.3,19.8-25.2c2.9-6.1,5.9-12.1,8.8-18.2c1.7-3.6,4.5-5.4,7-4.7c5.5,1.8,11.5-0.7,14.8-5.4c2.7-3.9,6.1-7.4,9-11.1
			c1-1.3,2.3-2.7,2.6-4.3c0.6-3.9,3-5.4,6.3-5.9c8.6-1.4,17.3-2.7,25.5-4c1.1,3.1,1.7,6.1,3.3,8.4c1.5,2.2,6.1,2,8.7,0
			c-0.8-0.9-1.6-1.7-2.4-2.5c-2.1-2.5-1-5.7,2.3-6.2c4.5-0.6,9.1-1.1,13.6-1.5c1.6-0.1,3.4,0,5,0.5c3,0.9,3.5,2.5,1.2,4.6
			c-1.7,1.6-3.9,2.8-6.6,4.7c2,0.2,3.4,0.6,4.7,0.5c5.6-0.4,9.5-3.5,11.7-8.4c1.4-3.1,3.1-5,6.5-5.4c6-0.7,11.9-1.7,17.9-2.4
			c8.1-1,16.3-1.5,24.4-2.9c7.8-1.3,15.5-3.3,23.2-5.2c6.3-1.5,12.6-3.2,18.8-5c1.1-0.3,2.6-2.2,2.5-3.1c-0.8-5.5-6.6-11-12.1-11.2
			c-3.9-0.1-7.9,0.4-11.9,0.8c-7.2,0.8-14.4,2.9-21.5,2.5c-6.6-0.4-12.6,1.1-18.9,2.1c-5.9,1-11.8,2.6-17.8,2.7
			c-9.4,0.2-15.4-7.9-12.3-16.7c2-5.6,5.2-10.8,8-16.1c3.4-6.3,7.2-12.3,10.3-18.7c3.1-6.5,5.4-13.4,8.4-20c3.8-8.3,7-16.6,8.2-25.7
			c0.9-6.8,2.1-13.5,3.2-20.3c1.2-6.9,3.1-13.7,3.7-20.6c1-10.7,1.2-21.4,1.6-32.1c0.2-4.8-0.2-9.6-0.3-14.5
			c-0.1-5.2-0.3-10.4,0-15.5c0.2-4.2,0.7-8.4,1.9-12.4c1.8-5.5,9.9-9.9,15-8c8.6,3.1,16.7,1.3,24.7-1.6c6.7-2.4,13.1-5.7,19.8-7.8
			c5.8-1.8,12-2.4,18.1-3.5c5.4-1,9.2-5.1,9.7-10.1c-2.7,0.3-5.7,1.6-8.2,0.9c-17.2-4.6-34.3-9.8-51.5-14.4c-3.8-1-8-0.2-11.8-1.1
			c-3.6-0.9-6.8-3.4-10.4-4.2c-3.7-0.8-5-3.2-6.1-6.1c0.3-0.2,0.6-0.4,0.8-0.6c1,1.5,2,2.9,3,4.4c0.4-0.3,0.7-0.5,1.1-0.8
			c-1.4-2.1-2.9-4.2-4.3-6.4c-1.4-2.2-3.7-4.4-3.8-6.7c-0.1-3.5-2-3.8-4.4-4.4c-1.2-0.3-3.1-0.6-3.2-1.3c-0.3-1.1,0.5-2.6,0.9-4.1
			c-1-1.6-2.2-3.5-3.4-5.5c-0.2,0.1-0.4,0.2-0.6,0.3c0.4,1.1,0.9,2.3,1.5,3.8c-3,0.2-5.5,0.3-7.6,0.5c0-2,0-3.9,0-5.7
			c-0.3,0-0.7,0-1,0c0,1,0,2,0,3.1c-1.6-0.6-2.9-1.1-4.4-1.6c-0.2,1-0.3,1.7-0.5,2.6c-7-9.8-16.5-16.4-22.5-15.6
			C332.6,128.4,333.3,129.8,334.2,131.7z M294.6,128.8c-11.8-4.3-22.8-1.3-33.5,4.2c2.2-0.3,4.2-1,6.4-1.3c3.3-0.4,6.2-1.6,9.2-3.2
			c2.5-1.4,6.3-0.5,9.5-0.4C289,128.2,291.8,128.6,294.6,128.8z M328.9,215.6c3,2.6,16.5-0.9,19.8-5.1
			C341.7,212.3,335.7,213.8,328.9,215.6z M270.4,228.2c0.8,0.6,1.6,1.2,3.3,2.5c-0.1-2.6-0.2-4.3-0.3-5.9c-1.6,0.2-3.4,0.1-4.7,0.8
			c-2.4,1.2-2.6,3.4-1.6,6.5C268.4,230.5,269.3,229.5,270.4,228.2z M282.1,233.9c-1.5,1.4-2.5,2.3-3.5,3.2c1,0.8,2.1,2.3,2.8,2.2
			c1.3-0.3,2.4-1.6,3.5-2.5C284.2,236,283.4,235.1,282.1,233.9z"/>
		<path d="M334.2,131.7c-0.9-1.9-1.6-3.3-2.2-4.7c6-0.8,15.5,5.8,22.5,15.6c0.2-0.9,0.3-1.6,0.5-2.6c1.5,0.6,2.9,1.1,4.4,1.6
			c0-1.2,0-2.2,0-3.1c0.3,0,0.7,0,1,0c0,1.8,0,3.7,0,5.7c2.1-0.1,4.7-0.3,7.6-0.5c-0.6-1.6-1-2.7-1.5-3.8c0.2-0.1,0.4-0.2,0.6-0.3
			c1.2,1.9,2.4,3.8,3.4,5.5c-0.4,1.5-1.2,2.9-0.9,4.1c0.2,0.7,2.1,1,3.2,1.3c2.4,0.5,4.3,0.9,4.4,4.4c0.1,2.3,2.4,4.5,3.8,6.7
			c1.4,2.2,2.9,4.2,4.3,6.4c-0.4,0.3-0.7,0.5-1.1,0.8c-1-1.5-2-2.9-3-4.4c-0.3,0.2-0.6,0.4-0.8,0.6c1.1,2.9,2.3,5.2,6.1,6.1
			c3.6,0.8,6.8,3.4,10.4,4.2c3.8,0.9,8,0,11.8,1.1c17.2,4.7,34.3,9.8,51.5,14.4c2.5,0.7,5.6-0.5,8.2-0.9c-0.5,4.9-4.3,9.1-9.7,10.1
			c-6.1,1.1-12.3,1.7-18.1,3.5c-6.8,2.1-13.2,5.3-19.8,7.8c-8,2.9-16.1,4.7-24.7,1.6c-5.1-1.9-13.2,2.5-15,8
			c-1.3,3.9-1.7,8.2-1.9,12.4c-0.3,5.2,0,10.4,0,15.5c0.1,4.8,0.4,9.6,0.3,14.5c-0.3,10.7-0.6,21.5-1.6,32.1
			c-0.6,6.9-2.5,13.8-3.7,20.6c-1.2,6.7-2.4,13.5-3.2,20.3c-1.2,9.1-4.4,17.4-8.2,25.7c-3,6.6-5.3,13.5-8.4,20
			c-3.1,6.4-6.9,12.4-10.3,18.7c-2.8,5.3-6.1,10.5-8,16.1c-3.1,8.8,2.9,16.9,12.3,16.7c5.9-0.1,11.9-1.7,17.8-2.7
			c6.2-1,12.3-2.5,18.9-2.1c7.1,0.4,14.3-1.6,21.5-2.5c3.9-0.5,7.9-1,11.9-0.8c5.5,0.2,11.3,5.6,12.1,11.2c0.1,0.9-1.4,2.8-2.5,3.1
			c-6.2,1.9-12.5,3.5-18.8,5c-7.7,1.9-15.4,3.9-23.2,5.2c-8.1,1.3-16.3,1.9-24.4,2.9c-6,0.7-11.9,1.7-17.9,2.4
			c-3.4,0.4-5.2,2.3-6.5,5.4c-2.2,4.9-6.2,8-11.7,8.4c-1.3,0.1-2.7-0.3-4.7-0.5c2.7-1.8,4.8-3,6.6-4.7c2.3-2.2,1.9-3.7-1.2-4.6
			c-1.6-0.5-3.3-0.6-5-0.5c-4.6,0.4-9.1,0.9-13.6,1.5c-3.3,0.4-4.4,3.6-2.3,6.2c0.7,0.9,1.6,1.7,2.4,2.5c-2.6,2-7.2,2.3-8.7,0
			c-1.6-2.4-2.1-5.4-3.3-8.4c-8.2,1.3-16.9,2.5-25.5,4c-3.3,0.5-5.8,2.1-6.3,5.9c-0.2,1.5-1.5,3-2.6,4.3c-3,3.7-6.3,7.2-9,11.1
			c-3.3,4.7-9.3,7.1-14.8,5.4c-2.5-0.8-5.2,1.1-7,4.7c-2.9,6.1-5.9,12.1-8.8,18.2c-4.7,9.9-11.7,17.9-19.8,25.2
			c-2.2,2-3.5,4.8-5.5,7.1c-3.3,3.8-6.6,7.7-10.4,10.9c-3.9,3.4-3.3,8.1-4.8,12.2c-1.2,3.4-2.4,6.7-3.6,10.1
			c-1.3,3.8-2.5,7.7-3.9,11.5c-0.6,1.5-1.5,3-2.1,4.5c-0.8,2-1.9,4.1-1.9,6.1c0,5.4-2.7,9.6-8,10.8c2,2.6,1,5.3-0.8,7
			c-5.5,5.5-8,12.4-9.9,19.7c-0.2,0.6-0.4,1.1-0.7,1.7c-0.2,0.3-0.4,0.5-0.6,0.7c0.4-3.3,1-6.5,1.3-9.8c0.1-0.8-0.3-2.3-0.9-2.5
			c-3.6-1.4-4.4-4-3.2-7.6c-1.4-0.1-2.5-0.1-3.5-0.3c-4.9-0.8-6.5-3.2-5.3-7.9c2.3-9,4.6-18,7-26.9c3.9-14.9,7.9-29.7,11.9-44.6
			c1.1-4.3,2.4-8.6,2.9-13.1c0.3-3-0.6-6.2-1.1-9.2c-1-5.6-2.1-11.3-3.3-17.8c-1.8,1.5-3,2.4-4,3.5c-5.8,6.3-11.5,12.7-17.3,19
			c-2.9,3.2-5.9,6.4-8.8,9.6c-2.1,2.3-4.5,1.9-5.4-1.1c-0.7-2.3-1.3-4.6-1.8-6.7c-0.7,0-1-0.1-1.2,0c-1.5,0.8-2.9,1.7-4.4,2.5
			c-0.5-1.8-1.6-3.6-1.4-5.3c0.2-2.8,0.8-5.8,1.9-8.4c2.9-6.4,6.1-12.6,9.4-18.7c1.9-3.5,4.4-6.8,6.3-10.3c1.1-2,1.6-4.3,1.9-6.6
			c-1.9,3.1-3.8,6.1-6,9.8c-1.4-4.5-0.6-7,2.1-9c0.7-0.5,1.4-1.4,1.4-2.2c0-3.9-0.4-7.8-0.4-11.7c0-1.9,0.9-3.8,1.1-5.7
			c0.4-3.9,0.7-7.7,1.1-11.6c0.1-1.3,0.4-2.6,0.6-3.9c0.2-1.2,0.9-2.3,0.9-3.5c-0.2-4.4,0.6-8.2,4-11.5c2.2-2.1,2-4.9,0.5-7.7
			c-3.6-6.9-4.3-14.5-3.7-22.1c0.5-6.2,1.8-12.3,2.7-18.5c0.1-0.7,0.7-1.3,1.1-2.1c0.6,0.5,0.9,0.7,1.1,1c0.6,0.7,1.3,1.5,1.9,2.2
			c0.6-0.8,1.2-1.6,1.8-2.5c5-6.6,2.7-14.9,5.1-22.1c1.3-3.8,3.2-7.5,4.9-11.2c1.5-3.2,3-6.3,4.5-9.5c-0.3-0.2-0.7-0.4-1-0.6
			c-0.9,1.1-1.9,2.3-3.2,3.8c-0.9-4.6-4.3-4.6-8.2-4.6c0.3-1.9,0.2-3.7,0.8-5.2c5.2-13.5,11.6-26.5,20.4-38.1
			c2.6-3.4,5.3-6.7,8.2-9.8c2-2.1,4.4-3.7,6.8-5.6c2.5,1.8,3,1.5,3.5-2.1c0.1-0.8,0.3-1.8,0.8-2.4c3.2-4,6.5-7.9,9.7-11.8
			c1.1-1.4,1.9-3.1,3.1-4.4c5.2-5.5,10.4-11,15.6-16.4c2.1-2.1,4.3-2.7,7-0.4c2,1.7,4.5,2.2,7,0.3c0.6-0.5,1.6-1,2.3-1
			c6.4,0.5,12.9,1.2,19.3,1.8c2.3,0.2,4.5,0.5,6.8,0.8c4.2,0.5,8.4,1.1,12.7,1.6c-0.3,0.5-0.5,0.9-0.7,1.5c6.5-0.5,12.8-1,19.2-1.4
			c0.5,2.3,1.9,3.6,4.6,3.3c4.9-0.4,10.1,0.8,14.2-4.8c0,2.1,0,3,0,4.2c0.4-0.3,0.6-0.5,0.7-0.7c1.2-1.6,3.5-3.3,3.3-4.7
			c-0.2-1.4-2.8-2.5-4.3-3.7c-0.2-0.1-0.3-0.5-0.5-0.5c-4.3-1.3-8.6-2.6-13-3.9c0.9-2.4,1.5-5.3,3.1-7.4c0.6-0.9,3.3-0.5,5-0.5
			c1.5,0.1,2.5,1.6,4.5,0.2c1.9-1.3,8.6,2.9,10.1,5.1c0.8,1.2,2.5,2.2,3.9,2.4c2.9,0.4,3.1,1.7,2.2,3.9c-0.5,1.2-0.8,2.6-1.5,3.7
			c-0.7,1.1-1.8,1.9-3.3,3.5c2.1,2,4,4.3,6.4,5.9c4.1,2.8,4.4,3.9,0.5,7c1.5,1.8,3.4,1.7,8.1-0.3c4.1,3.3,4.1,3.3,4.4,7.4
			c-2.7-0.8-5.2-1.5-7.3-2.2c1.6,2.1,3.2,4.2,5.1,6.7c2.4-4.9,5.2-2.6,8.1-1c0.2-1.3,0.3-2.2,0.5-3.1c4.5,0.6,2.5,4.3,3.5,7
			c-1.7,0.2-3.2,0.5-5.6,0.8c1-1.4,1.5-2,2-2.7c-0.4-0.1-0.7-0.2-1-0.2c-1.4,0.1-2.9,0-4.2,0.5c-1.2,0.5-2.3,1.4-3,2.5
			c-0.2,0.3,1.1,2.1,2,2.5c3.2,1.4,4.2,3.8,4.1,8c1.7-2.2,2.9-3.7,4.3-5.5c2.1,3.3-0.2,4.9-1.5,6.2c0.5,1.7,1.2,2.9,1.1,4.1
			c-0.3,2.8,0,4.7,3.4,4.9c1.4,0.1,2.7,0.9,4.3,1.5c-0.2,0.9-0.5,1.8-0.6,2.7c-0.1,1.7-1,3.6,1.8,4.3c0.6,0.2,1.1,1.5,1.4,2.4
			c0.7,1.8,1.5,2.4,3.5,1.3c2.3-1.3,3.6,0.1,3.8,2.5c0.5,4.4,0.9,8.9,1.6,13.3c0.2,1.2,1.4,2.1,2.1,3.2c0.4-0.2,0.7-0.3,1.1-0.5
			c0.2,2.8,0.4,5.5,0.7,8.3c0.2,2.6,0.6,5.1,1,8.5c0.6-3.3,1.4-5.9,1.5-8.5c0.6-9.2,4.5-18,3.8-27.5c-0.2-3.5,1.5-7,1.7-10.6
			c0.3-5.6,0-11.3,0.1-17c0.1-3.8,0.4-7.6,0.6-11.4c0-0.7-0.1-1.4,0-2.2c0.2-3,0.4-5.9,0.5-8.9c0-0.8,0-1.7-0.3-2.5
			c-0.6-2-1-4-2-5.8c-2.4-4.7-2-8.9,1.4-13c1.1-1.4,1.9-3.1,2.4-4.8c1.2-3.8-0.4-6.6-3.8-8.7c-2.3-1.4-4-3.9-6.1-5.6
			c-1-0.8-2.4-1.2-3.6-1.7c-1.1-0.5-2.1-1-3.2-1.5c-0.8-0.3-1.7-0.7-2.5-0.8c-1.4-0.1-2.8,0-4.1,0c-0.1-0.4-0.1-0.8-0.2-1.2
			c2.9-0.3,5.8-0.7,8.6-1c0-0.2,0-0.4,0-0.6c-3.2,0-6.3,0-9.5,0c0.5-5.8,0.4-6-4-8c-0.1,0.8-0.3,1.6-0.5,3c-3-0.6-6-1.4-9-1.8
			c-1-0.1-2.4,0.3-3.3,1c-2.2,1.5-4.3,3.3-4.9-1.8c-1.9,2.6-3.4,4.6-4.7,6.5c1.6,3.3,6.6,4.4,5,9.4c-1.4-5.8-9.6-6-10-11.9
			c-4.9-0.2-9.7-0.6-14.5-0.6c-1.6,0-3.2,0.7-4.7,1.4c-4.6,2.4-9.1,5-14.5,2c-1.2-0.7-2.8-0.7-4.2-0.8c-3.4-0.3-6.7-0.2-8.9-3.6
			c-0.6-1-2.1-1.7-3.3-2.2c-5.7-2.2-6.6-4.1-4.2-8.5c-2.5-1.4-5-2.8-8-4.5c1.8-0.8,2.8-1.3,4.5-2.1c-3.4-2.8-6.7,0.1-9.6-0.7
			c0.6,0.3,1.1,0.5,2,0.9c-0.8,0.4-1.3,0.7-1.8,0.9c-3.7,1.8-4.5,3.7-3.9,7.7c0.1,0.9-0.4,2.6-1.1,2.8c-4.4,1.5-8.9,2.7-13.4,3.9
			c-1.3,0.4-2.7,0.7-4,1.1c0.1,0.4,0.2,0.7,0.2,1.1c1.2,0,2.3,0,3.1,0c-2.3,3-4.5,6.4-7.3,9.1c-3.3,3.2-7.2,6-11,8.6
			c-0.6,0.4-2.7-0.9-3.7-1.9c-0.5-0.4-0.6-2.1-0.1-2.7c1.3-1.7,2.1-3.2,0.6-5.2c-0.3-0.4-0.2-1.4,0-2c4.1-8.1,10.3-14.6,16.4-21.2
			c3.2-3.5,7.5-2.2,10.9-4.9c-2-0.1-3.8-0.2-5.5-0.4c0-0.2,0-0.5,0-0.7c1.4-0.3,2.8-0.6,5.4-1.2c-2-0.5-2.9-0.8-3.8-1
			c0-0.2,0-0.4,0-0.5c2.3-0.2,4.6-0.5,7.1-0.8c-0.1-0.8-0.2-1.5-0.3-2.6c1.5,0.2,2.8,0.4,5,0.8c-1.8-1.3-2.9-2.1-4.1-3
			c2.9-2.3,5.8-4.7,8.7-7c-0.2-0.3-0.4-0.7-0.6-1c1.2,0.2,2.4,0.5,3.5,0.4c0.9-0.1,2.5-0.8,2.5-1.3c0.2-4.8,4.6-4.6,6.9-4.3
			c4.1,0.4,9-1.5,12.4,2.6c0.1,0.1,1-0.3,2.4-1.6c-1.2-0.5-2.3-1-3.5-1.5c0.2-0.3,0.3-0.6,0.5-0.8c1,0.2,2,0.6,3,0.6
			c1.4,0.1,3.3,0.6,4.1-0.1c3-2.5,5.7-1.3,8.8-0.3c2.9,1,6.1,1.3,9.2,1.9c2,0.4,4-0.1,5.7,2.3c1.8,2.5,9.3-0.2,10.4-3.1
			c0.4-1.1-1.9-3.5,1.4-3.3c1.7,0.1,3.3,0.4,5,0.5c2.2,0.1,4.4,0,6.5,0c0-0.3,0.1-0.7,0.1-1c-0.7-0.6-1.4-1.3-2.6-2.4
			c4.3,1.1,7.9,2,11.5,2.9c0.2-0.5,0.3-1,0.5-1.4c-3.3-1.5-8.1-0.5-10-5.4c5.3-0.7,10.5-1.4,15.9-2.1c-2.1-1.9-6-3.9-2.9-8.7
			c0.8,2.7,1.2,5.6,5.4,3.5c-0.8,1.7-1.3,2.5-1.8,3.4c1.4,1.2,2.7,2.2,4.2,3.4c-0.1-1.6-0.2-3.2-0.3-4.8c0.3-0.1,0.5-0.1,0.8-0.2
			c0.6,1.8,1.3,3.6,1.9,5.4c0.6-4.2-0.4-7.3-4.3-9.6c-3.7-2.2-6.8-5.3-10.3-7.9C337.3,130,335.7,128.7,334.2,131.7z M319.4,294.9
			c1.4,0.2,3.1,0.1,4.1,0.8c0.5,0.4,0.3,2.8-0.3,3.5c-1.5,1.6-3.5,2.7-5.6,4.2c1.1,0.6,2.4,1.3,3.1,1.7c-0.8,1.4-1.7,2.8-2.3,3.8
			c-1.8,0.8-4.1,1.1-4.9,2.3c-1,1.7-0.9,4.1-1.1,6.2c-0.1,0.7,0.5,1.4,0.8,2.1c-1,0.2-1.9,0.6-2.9,0.7c-1.9,0.2-3.8,0.3-5.7,0.5
			c0,0.3,0,0.7,0,1c1.6,0.3,3.2,0.5,4.6,0.8c-0.2,0.6-0.5,1.4-0.4,1.5c2.6,1.4,1.9,2.8,0.2,4.5c-2.4,2.4-2,3.8,1.2,4.7
			c1,2.3-4.9,1.8-1.9,4.5c2,0,4.3-0.1,5.4,1c2.7,2.6-1.3,3.9-2,6.3c5.6,3.1,8.2-4.7,14.1-3.5c-1.7,1.3-2.7,2.2-3.8,2.9
			c-2,1.3-4.3,2.2-6,3.8c-2,1.9-3.7,4.2-5.2,6.5c-1.4,2.1-2.4,4.5-3.5,6.8c-0.4,0.8-0.8,1.7-0.8,2.6c0,0.3,1.3,0.7,2.1,0.7
			c2.5,0.1,4.4,0.9,5,3.5c-3.4,3.5-5.5-1.6-7.4-1.2c-1.6,2-2.8,3.4-3.9,4.9c-0.5,0.7-1.3,1.6-1.2,2.3c0.3,1.9,7.2,6,9,5.4
			c1.9-2.3,4.5-6.1,6.2-5.7c4,0.9,5.1-1,6.6-4c1.1,2.3,2.3,4.5,2.3,6.8c0,3.2-0.7,6.4-1.1,9.3c0.9,0.7,1.9,1.5,3.4,2.7
			c0.5-1.4,1.7-2.9,1.4-4c-1.1-3.8,1.8-4.5,4-6.4c0.1,1.5,0.2,2.5,0.2,3.5c0.2,0,0.4,0,0.6,0c0.3-1,0.6-2,0.9-3
			c0.2,0.2,0.5,0.5,0.7,0.7c1.4-1.1,2.8-2.2,4.8-3.8c0.3,2.3,0.5,4.4,0.7,6.2c1.3-0.4,2.5-0.7,4-1.2c0.5-1.4,1.2-3.3,1.8-5.2
			c0.3,0.1,0.6,0.2,0.8,0.2c-0.2,2.9-0.5,5.8-0.7,8.8c1.6-2.9,2.3-5.9,3.2-8.8c2-6.1,4.3-12,6-18.2c0.8-2.8,0.6-5.9,0.7-8.9
			c0.1-2.9,0.1-5.9-0.1-8.8c0-1.2-0.2-3.2-0.8-3.3c-1.3-0.4-2.9-0.1-4.2,0.3c-1,0.3-1.8,1.2-3,2c-0.2-2-0.2-3.3-0.4-4.6
			c-0.4-2.3-0.8-4.6-1.2-6.9c-0.6-2.9-0.7-6-1.9-8.7c-2-4.3-3.2-8.6-2.3-13.9c-1.4,1.3-2.4,2.4-3.6,3.4c-1.2,0.9-2.5,1.7-3,2.1
			c-1.8-2.4-3.6-4.6-5.1-6.9c-1.3-2.1-2.2-4.3-3.3-6.5c0.3-0.2,0.7-0.4,1-0.7c1.5,1.8,3,3.7,4.8,5.7c0.3-2.7,1.2-5.3,0.5-7.3
			c-0.8-2-2.4-4.8-5.9-3.1c1.4-4.5,0.9-5.4-3.2-5.4c0.6,0.7,1.7,1.5,1.6,1.8c-0.9,1.9-0.6,4.7-3.7,5.2
			C321.5,293.1,320.5,294.2,319.4,294.9c-0.2-1.3-0.4-2.7-0.6-4.1c-0.8,0-1.7,0.1-2.6,0.1c0.3,1.8,0.5,3.5,0.8,5.7
			C318,296,318.7,295.5,319.4,294.9z M286.6,369.3c-3.7,4.9-3.5,6,1.8,9.2c0.1,0.1,0.2,0.1,0.3,0.2c2,2.2,4.2,1.1,5.1-0.6
			c1.2-2.2-1.2-2.9-2.8-3.7c-0.9-0.4-1.6-1.3-2.3-1.9c0.7-0.7,1.4-1.6,2.2-2.2c0.7-0.5,1.7-0.4,2.4-0.9c1.9-1.3,3.8-2.8,5.8-4.2
			c-2.2-0.9-3.8-1.2-4.8-2.1c-4.4-4-7.9-3.2-10,2.4c1.3-0.2,2.5-0.3,3.8-0.5c0,0.3,0.1,0.7,0.1,1c-2.1,0.3-4.2,0.7-7,1.1
			c1.5,0.7,2.2,1,2.8,1.3c-1.7,1-3.1,1.8-4.5,2.7c0.1,0.2,0.2,0.4,0.3,0.6C282.1,371,284.3,370.1,286.6,369.3z M337.9,382.1
			c-0.9,3.4-4,6.9,0.5,9.9c3.6,2.5,3.5,6.4-0.2,9c-2.7,1.9-4.3,3.8-2.7,6.7c-5.2,5.2-5,12-6.9,18c0.5-0.2,0.8-0.6,1.1-1
			c3.1-5.4,2.7-12.6,8.5-16.6c0.1-0.1,0.1-0.2,0.1-0.3c1.9-6.8,3.8-13.5,5.6-20.3c0.1-0.5-0.5-1.2-0.8-1.8c-1,0.8-1.7,1.4-2.7,2.3
			C339.5,385.8,338.7,383.9,337.9,382.1z M241.6,352c0.3-0.2,0.5-0.4,0.8-0.7c-0.1-1.1-0.6-2.3-0.2-3.1c2-4.4-0.8-4.7-4-5
			c-3.2-0.2-4.8,1.8-3.7,4.8c0.4,1,1.1,1.9,2.1,3.6c0.2-1.9,0.2-2.7,0.3-3.5C238.6,349.5,240.1,350.8,241.6,352z M233.2,339.1
			c0.4,0.3,1.5,1.9,2.3,1.7c2.1-0.4,5.1-0.7,4.6-3.8c-0.3-1.6-1.6-3.6-3-4.4C235.7,331.7,233.3,335.1,233.2,339.1z M178,350.9
			c0.9,1.6,1.7,3.1,2.6,4.6c0.4,0,0.7,0,1.1,0c0.3-2.5,1-5,0.5-7.3c-0.2-0.9-4.4-2-4.8-1.5c-1.5,1.8-2.1,4.4-3,6.6
			c0.3,0.2,0.7,0.3,1,0.5C176.2,352.8,177,352,178,350.9z M337.1,289.2c3.5-4.6-4.5-6.3-1.8-10.6c-1.5,0.2-2.2,0.3-2.5,0.3
			c-0.6,2.2-1.1,4.1-1.8,6.7C332.5,286.4,334.6,287.7,337.1,289.2z M272.9,166.5c0.1-0.4,0.1-0.8,0.2-1.2c-3.8-0.7-7-4.7-11.3-2.5
			c-0.1,0.5-0.2,0.9-0.3,1.4C265.2,165.1,269.1,165.8,272.9,166.5z M263.5,311.1c0,4.5,0,8.4,0,12.8
			C266.5,320.2,266.5,314.2,263.5,311.1z M234.3,370.4c0.4,0,0.7-0.1,1.1-0.1c-0.1-2.7-0.3-5.4-0.4-8.1
			C231.8,365.2,231.9,367.2,234.3,370.4z M157.9,333.3c5.5-2.5,6.9-4.1,6.8-7.6C162.3,328.4,160.1,330.9,157.9,333.3z M240.2,363.6
			c-3.5,3.2-3.5,4.4-0.5,6.4C239.9,367.7,240.1,365.6,240.2,363.6z M295.4,356.4c-0.4,0.2-0.8,0.3-1.2,0.5c0.2,1.2,0.1,2.6,0.7,3.4
			c0.4,0.5,2.1-0.2,3.2-0.4c0-0.3,0.1-0.7,0.1-1C297.2,358,296.3,357.2,295.4,356.4z M331,396.8c0.6,0,1.2,0,1.8,0
			c-0.1-1.8-0.3-3.7-0.4-5.5c-0.6,0-1.2,0.1-1.8,0.1C330.7,393.2,330.9,395,331,396.8z M286.8,383.6c-0.3-0.2-0.6-0.3-0.9-0.5
			c-0.6,1.2-1.3,2.4-1.9,3.6c1.2,0.2,2.4,0.4,3.8,0.6C287.4,385.6,287.1,384.6,286.8,383.6z M275.1,419.1c-0.6-0.3-1.1-0.6-1.7-0.8
			c-0.8,1.6-1.5,3.3-2.3,4.9c0.4,0.2,0.9,0.4,1.3,0.7C273.3,422.3,274.2,420.7,275.1,419.1z"/>
		<path d="M294.6,128.8c-2.8-0.3-5.6-0.6-8.5-0.7c-3.2-0.1-7-1-9.5,0.4c-3,1.7-5.8,2.8-9.2,3.2c-2.1,0.3-4.2,1-6.4,1.3
			C271.8,127.5,282.8,124.5,294.6,128.8z"/>
		<path d="M328.9,215.6c6.8-1.8,12.8-3.3,19.8-5.1C345.4,214.7,331.9,218.2,328.9,215.6z"/>
		<path d="M270.4,228.2c-1.1,1.2-2,2.3-3.4,3.8c-1-3.1-0.8-5.3,1.6-6.5c1.4-0.7,3.1-0.5,4.7-0.8c0.1,1.7,0.2,3.3,0.3,5.9
			C272,229.4,271.2,228.8,270.4,228.2z"/>
		<path d="M282.1,233.9c1.3,1.3,2.1,2.1,2.8,2.9c-1.2,0.9-2.2,2.2-3.5,2.5c-0.8,0.2-1.9-1.4-2.8-2.2
			C279.6,236.1,280.6,235.2,282.1,233.9z"/>
		<path fill="#FFFFFF" d="M319.4,295c1.1-0.7,2.1-1.9,3.3-2.2c3.1-0.5,2.8-3.3,3.7-5.2c0.1-0.3-1-1.1-1.6-1.8c4.1,0.1,4.6,1,3.2,5.4
			c3.5-1.7,5.1,1.2,5.9,3.1c0.7,2-0.2,4.6-0.5,7.3c-1.7-2-3.2-3.9-4.8-5.7c-0.3,0.2-0.7,0.4-1,0.7c1.1,2.2,2,4.5,3.3,6.5
			c1.5,2.4,3.3,4.6,5.1,6.9c0.5-0.4,1.8-1.1,3-2.1c1.2-0.9,2.2-2.1,3.6-3.4c-0.9,5.3,0.3,9.6,2.3,13.9c1.2,2.6,1.4,5.7,1.9,8.7
			c0.5,2.3,0.9,4.6,1.2,6.9c0.2,1.3,0.2,2.7,0.4,4.6c1.2-0.8,2-1.7,3-2c1.4-0.4,3-0.7,4.2-0.3c0.6,0.2,0.8,2.2,0.8,3.3
			c0.1,2.9,0.1,5.9,0.1,8.8c-0.1,3,0.1,6.1-0.7,8.9c-1.7,6.1-4,12.1-6,18.2c-0.9,2.9-1.6,5.9-3.2,8.8c0.2-2.9,0.5-5.8,0.7-8.8
			c-0.3-0.1-0.6-0.2-0.8-0.2c-0.7,1.9-1.3,3.8-1.8,5.2c-1.5,0.4-2.7,0.8-4,1.2c-0.2-1.7-0.4-3.9-0.7-6.2c-2.1,1.6-3.4,2.7-4.8,3.8
			c-0.2-0.2-0.5-0.5-0.7-0.7c-0.3,1-0.6,2-0.9,3c-0.2,0-0.4,0-0.6,0c-0.1-1-0.1-2-0.2-3.5c-2.2,1.8-5.1,2.5-4,6.4
			c0.3,1.1-0.9,2.7-1.4,4c-1.5-1.2-2.5-2-3.4-2.7c0.4-2.9,1.2-6.1,1.1-9.3c0-2.3-1.2-4.5-2.3-6.8c-1.5,3.1-2.6,4.9-6.6,4
			c-1.7-0.4-4.3,3.4-6.2,5.7c-1.8,0.6-8.6-3.5-9-5.4c-0.1-0.7,0.7-1.6,1.2-2.3c1.1-1.5,2.3-2.9,3.9-4.9c1.9-0.3,4,4.7,7.4,1.2
			c-0.6-2.6-2.4-3.4-5-3.5c-0.7,0-2.1-0.4-2.1-0.7c0-0.8,0.4-1.7,0.8-2.6c1.1-2.3,2.1-4.7,3.5-6.8c1.5-2.3,3.2-4.7,5.2-6.5
			c1.7-1.6,4-2.5,6-3.8c1.1-0.7,2.1-1.6,3.8-2.9c-5.9-1.2-8.5,6.7-14.1,3.5c0.7-2.4,4.7-3.7,2-6.3c-1.1-1.1-3.4-1-5.4-1
			c-3.1-2.7,2.9-2.2,1.9-4.5c-3.2-0.9-3.7-2.3-1.2-4.7c1.7-1.7,2.4-3.1-0.2-4.5c-0.1,0,0.2-0.8,0.4-1.5c-1.4-0.2-3-0.5-4.6-0.8
			c0-0.3,0-0.7,0-1c1.9-0.1,3.8-0.2,5.7-0.5c1-0.1,1.9-0.5,2.9-0.7c-0.3-0.7-0.9-1.4-0.8-2.1c0.2-2.1,0.1-4.5,1.1-6.2
			c0.8-1.2,3.1-1.5,4.9-2.3c0.6-0.9,1.4-2.4,2.3-3.8c-0.7-0.4-2-1.1-3.1-1.7c2.1-1.5,4.1-2.6,5.6-4.2c0.7-0.7,0.9-3.1,0.3-3.5
			C322.5,295,320.8,295.2,319.4,295L319.4,295z M326,372.2c0.5,0,1,0,1.5,0c0.2-2,0.3-4,0.7-5.9c0.2-0.9,0.9-2.2,1.6-2.4
			c0.7-0.2,1.9,0.4,2.7,1.1c0.7,0.6,0.9,1.7,1.4,2.4c0.5,0.7,1.1,1.4,1.7,2c0.2,0.1,1.4-0.6,1.3-0.8c-0.2-1-0.5-2-0.9-2.9
			c-0.2-0.5-1-0.7-1.4-1.1c-3.4-3.3-3.8-6.7-1.9-11c0.5-1.2,0.5-2.6,0.8-4.1c-3.6,1.2-6.7,2.3-10,3.4c0.3,1.2,0.7,2.6,1.4,4.8
			c-1.5-0.6-2.2-1-3-1.1c-0.8-0.1-2.2-0.3-2.5,0.2c-0.4,0.6-0.4,1.9,0,2.6c0.5,0.9,1.4,1.8,2.3,2.1c4,0.9,4.1,3.8,3.9,7
			C325.5,369.6,325.8,370.9,326,372.2z M320.9,323.7c0.2-3.4,0.2-5.6,0.3-7.9c-1.5,0.8-3.2,2.2-3.1,3.4
			C318.2,320.8,319.8,322.1,320.9,323.7z"/>
		<path fill="#FFFFFF" d="M286.6,369.3c-2.3,0.8-4.5,1.7-6.8,2.5c-0.1-0.2-0.2-0.4-0.3-0.6c1.4-0.8,2.8-1.7,4.5-2.7
			c-0.7-0.3-1.4-0.6-2.8-1.3c2.8-0.4,4.9-0.8,7-1.1c0-0.3-0.1-0.7-0.1-1c-1.3,0.2-2.5,0.3-3.8,0.5c2-5.6,5.6-6.3,10-2.4
			c1,0.9,2.7,1.2,4.8,2.1c-2,1.5-3.9,2.9-5.8,4.2c-0.7,0.5-1.7,0.4-2.4,0.9c-0.8,0.6-1.5,1.4-2.2,2.2c0.8,0.6,1.4,1.5,2.3,1.9
			c1.7,0.8,4,1.5,2.8,3.7c-0.9,1.7-3.1,2.8-5.1,0.6c-0.1-0.1-0.2-0.1-0.3-0.2C283.1,375.3,282.9,374.2,286.6,369.3z"/>
		<path fill="#FFFFFF" d="M337.9,382.1c0.8,1.8,1.5,3.7,2.5,6c1-0.8,1.8-1.5,2.7-2.3c0.3,0.6,0.9,1.3,0.8,1.8
			c-1.8,6.8-3.7,13.5-5.6,20.3c0,0.1,0,0.3-0.1,0.3c-5.8,4-5.4,11.2-8.5,16.6c-0.2,0.4-0.5,0.7-1.1,1c1.9-6,1.7-12.8,6.9-18
			c-1.7-2.9,0-4.8,2.7-6.7c3.7-2.6,3.9-6.5,0.2-9C334,389,337.1,385.5,337.9,382.1z"/>
		<path fill="#FFFFFF" d="M241.6,352c-1.5-1.2-3-2.4-4.7-3.8c-0.1,0.9-0.2,1.7-0.3,3.5c-1-1.7-1.7-2.6-2.1-3.6
			c-1.2-3,0.5-5.1,3.7-4.8c3.2,0.2,6,0.5,4,5c-0.4,0.8,0.1,2.1,0.2,3.1C242.1,351.5,241.8,351.7,241.6,352z"/>
		<path fill="#FFFFFF" d="M233.2,339.1c0.1-4,2.5-7.3,3.9-6.5c1.4,0.8,2.7,2.7,3,4.4c0.5,3.2-2.5,3.5-4.6,3.8
			C234.7,340.9,233.6,339.4,233.2,339.1z"/>
		<path fill="#FFFFFF" d="M178,350.9c-1,1.1-1.8,1.9-2.5,2.8c-0.3-0.2-0.7-0.3-1-0.5c0.9-2.3,1.5-4.8,3-6.6c0.4-0.5,4.6,0.6,4.8,1.5
			c0.5,2.3-0.3,4.9-0.5,7.3c-0.4,0-0.7,0-1.1,0C179.7,354,178.9,352.5,178,350.9z"/>
		<path fill="#FFFFFF" d="M337.1,289.2c-2.6-1.5-4.6-2.8-6.1-3.6c0.7-2.6,1.2-4.5,1.8-6.7c0.3,0,1-0.1,2.5-0.3
			C332.6,282.9,340.6,284.6,337.1,289.2z"/>
		<path fill="#FFFFFF" d="M272.9,166.5c-3.8-0.7-7.6-1.5-11.4-2.2c0.1-0.5,0.2-0.9,0.3-1.4c4.3-2.3,7.5,1.8,11.3,2.5
			C273,165.8,272.9,166.2,272.9,166.5z"/>
		<path fill="#FFFFFF" d="M263.5,311.1c3,3.1,3,9.1,0,12.8C263.5,319.5,263.5,315.6,263.5,311.1z"/>
		<path fill="#FFFFFF" d="M234.3,370.4c-2.4-3.1-2.5-5.2,0.6-8.2c0.1,2.7,0.3,5.4,0.4,8.1C235,370.3,234.7,370.3,234.3,370.4z"/>
		<path fill="#FFFFFF" d="M157.9,333.3c2.2-2.5,4.4-4.9,6.8-7.6C164.8,329.2,163.4,330.8,157.9,333.3z"/>
		<path fill="#FFFFFF" d="M240.2,363.6c-0.2,2-0.3,4-0.5,6.4C236.7,368.1,236.8,366.8,240.2,363.6z"/>
		<path fill="#FFFFFF" d="M295.4,356.4c0.9,0.8,1.9,1.6,2.8,2.4c0,0.3-0.1,0.7-0.1,1c-1.1,0.2-2.8,0.8-3.2,0.4
			c-0.7-0.8-0.5-2.2-0.7-3.4C294.6,356.7,295,356.5,295.4,356.4z"/>
		<path fill="#FFFFFF" d="M331,396.8c-0.1-1.8-0.3-3.6-0.4-5.4c0.6,0,1.2-0.1,1.8-0.1c0.1,1.8,0.3,3.7,0.4,5.5
			C332.2,396.8,331.6,396.8,331,396.8z"/>
		<path fill="#FFFFFF" d="M319.4,294.9c-0.7,0.5-1.4,1-2.3,1.7c-0.3-2.2-0.6-3.9-0.8-5.7c0.8,0,1.8-0.1,2.6-0.1
			C319,292.3,319.2,293.6,319.4,294.9C319.4,295,319.4,294.9,319.4,294.9z"/>
		<path fill="#FFFFFF" d="M286.8,383.6c0.3,1,0.6,2,1,3.8c-1.4-0.2-2.6-0.4-3.8-0.6c0.6-1.2,1.3-2.4,1.9-3.6
			C286.2,383.3,286.5,383.4,286.8,383.6z"/>
		<path fill="#FFFFFF" d="M275.1,419.1c-0.9,1.6-1.8,3.2-2.7,4.7c-0.4-0.2-0.9-0.4-1.3-0.7c0.8-1.6,1.5-3.3,2.3-4.9
			C274,418.5,274.6,418.8,275.1,419.1z"/>
		<path d="M326,372.2c-0.2-1.3-0.5-2.6-0.4-3.9c0.2-3.2,0.1-6-3.9-7c-0.9-0.2-1.9-1.2-2.3-2.1c-0.4-0.7-0.4-2,0-2.6
			c0.3-0.4,1.6-0.3,2.5-0.2c0.8,0.1,1.6,0.6,3,1.1c-0.6-2.2-1-3.7-1.4-4.8c3.3-1.1,6.4-2.2,10-3.4c-0.3,1.5-0.2,3-0.8,4.1
			c-2,4.3-1.5,7.6,1.9,11c0.4,0.4,1.2,0.6,1.4,1.1c0.5,0.9,0.8,1.9,0.9,2.9c0,0.2-1.2,0.9-1.3,0.8c-0.7-0.5-1.3-1.2-1.7-2
			c-0.5-0.8-0.7-1.9-1.4-2.4c-0.7-0.6-1.9-1.3-2.7-1.1c-0.7,0.3-1.4,1.5-1.6,2.4c-0.4,1.9-0.5,3.9-0.7,5.9
			C327,372.2,326.5,372.2,326,372.2z"/>
		<path d="M320.9,323.7c-1.1-1.6-2.7-3-2.8-4.4c-0.1-1.3,1.6-2.6,3.1-3.4C321.1,318.1,321,320.4,320.9,323.7z"/>
	</g>
</g>
</svg>
