<?xml version="1.0" encoding="utf-8"?>
<!-- Generator: Adobe Illustrator 19.1.0, SVG Export Plug-In . SVG Version: 6.00 Build 0)  -->
<svg version="1.1" id="Layer_1" xmlns="http://www.w3.org/2000/svg" xmlns:xlink="http://www.w3.org/1999/xlink" x="0px" y="0px"
	 viewBox="-122 -123.6 595.3 841.9" style="enable-background:new -122 -123.6 595.3 841.9;" xml:space="preserve">
<style type="text/css">
	.st0{fill:#FFFFFF;stroke:#FFFFFF;stroke-width:2;stroke-miterlimit:10;}
</style>
<g>
	<path class="st0" d="M280.2,638.3c-1.9-0.2-3.8-0.5-5.7-0.5c-4.6-0.2-9.2-0.3-13.8-0.5c-2.1-0.1-4-0.8-5.7-2
		c-1.4-0.9-2.9-1.5-4.5-1.5c-2.6,0-4.9-0.9-7.1-2.3c-1.6-1-3.4-1.8-5.5-1.9c-1.4,3.6-3.8,1.1-5.9,1.3c-0.1-0.7-0.1-1.1-0.1-1.5
		c-1.1-0.1-2.2-0.3-3.2-0.4c-1.1-0.1-2.3-0.4-3.3-0.2c-1.1,0.3-1.8,0.1-2.6-0.6c-0.4-0.3-1.1-0.8-1.4-0.6c-1.3,0.6-2.1-0.2-3-0.9
		c-0.7-0.6-1.4-1.2-2.1-1.8c-3.1,1.9-3.4,0.9-5.1-1.9c-0.7,0.1-1.6,0.6-2.2,0.4c-2.8-1.1-5.9-1.2-8.4-3.1c-0.3-0.2-0.7-0.4-1.1-0.6
		c-3.1-1.4-6.3-2.6-9.4-4.2c-2.8-1.4-5.4-3.1-8.1-4.7c-1-0.6-1.8-1.4-2.7-1.9c-2.2-1.2-4.5-2.2-6.5-3.5c-5.8-3.8-11.4-7.7-17.5-10.9
		c-0.4-0.2-0.9-0.4-1.3-0.7c-3.8-2.9-8.2-4.2-12.9-5c-1.3-0.2-2.4-0.1-3.4,1.1c0.4,0.4,0.8,0.9,1.3,1.1c1.5,0.8,3,1.5,4.5,2.3
		c4.4,2.3,8.9,4.5,13.2,7c5.2,3,10.2,6.2,15.2,9.5c1.9,1.2,4,2.2,4.8,4.8c0.5,1.5,1.9,2,3.4,1.5c0.9-0.3,1.6-0.2,2.4,0.3
		c3.6,2,7.3,3.9,10.9,5.8c1.8,1,3.8,1.8,5.4,2.8c1.7,1.1,3.5,1.8,5.4,2.3c0.8,0.2,1.8,0.3,1.8,1.6c0,0.3,0.5,0.9,0.7,0.9
		c1.6-0.1,2.7,0.5,3.7,1.8c0.1,0.2,0.6,0.1,0.9,0.1c0.8,0,1.6,0,2.4,0c1.1,2.2,2.6,3.1,5.1,2.6c3.3-0.6,6.5,0.2,9.4,1.8
		c1,0.5,1.6,1.7,2.4,2.6c-8.1,0-16.2,0-24.3,0c-1.9-1.1-3.9-0.9-6-0.9C199.9,637.5,312.5,638.3,280.2,638.3z M147.8,131
		c-4,0.6-7.5,2.6-11.1,4.2c1.1,0,2.1-0.1,3-0.5c1.8-0.7,3.6-1.5,5.3-2.3C145.9,131.9,146.8,131.4,147.8,131c0.8-0.2,1.7-0.3,2.6-0.5
		c-0.1-0.2-0.1-0.4-0.2-0.6C149.4,130.3,148.6,130.6,147.8,131z M39.8,342.3c1.7,2.5,4,3.6,6,2.4C43.9,343.2,42.2,342,39.8,342.3
		c2.3-1.3,4.7-2.6,7-4s4.5-2.8,6.7-4.3c0.4-0.3,0.8-1.1,0.6-1.4c-0.7-1.3,0.3-1.7,1-2.4c1.9-1.6,3.8-3.2,5.8-4.8
		c0.7-0.6,1.5-1.2,2.2-1.8c0.8,0.5,1.7,0.8,2.3,0.5c1.2-0.7,2.4-1.6,3.4-2.6c3.2-3.2,5.5-7.2,9-10.2c0.5-0.4,0.7-1.1,1-1.6
		c1.9-2.9,3.7-5.8,6.7-7.9c1.7-1.2,3.1-2.8,4.6-4.3c0.4-0.4,0.7-1,0.7-1.5c0-1.1,0.7-1.7,1.4-2.4c1.9-1.9,3.8-3.7,5.6-5.7
		c1.4-1.6,2.6-3.4,2.7-5.6c0.2-3.3,1.1-6.3,2.4-9.4c0.4-1,0.7-2,1-3c0.8-3-0.3-5.5-3-6.9c-1.3-0.7-2.7-1.2-4.1-1.5
		c-2.4-0.6-4.9-1.2-6.9-2.9c-1.7-1.4-3.5-2.9-5.1-4.5c-1.8-1.7-3.5-3.6-6.2-3.4c-1.9,0.1-3.1-0.7-4.1-2c-1.1-1.4-2.2-2.8-3.3-4.2
		c-4-5.1-8.5-9.7-14-13.4c-1.5-1-3.3-1.8-4.9-2.7c-2-1.2-2.1-1.5-1.6-3.7c0.4-1.7,0.7-3.5,1.2-5.2c0.4-1.3,0.2-2.5-0.2-3.8
		c-3.3,2.2-2.8,6.4-5.3,9.1c-1.2-0.5-2.2-1-3.4-1.5c-1-0.4-1.3-1.1-1.6-2.2c-0.3-1.3-1-2.6-1.8-3.6c-2.7-3.1-6.2-4.8-10.2-5.6
		c-1.2-0.2-2.2-0.7-3-1.8c-0.7-1.1-1.7-1.9-2.6-2.9c-0.4-0.5-0.7-1-1.1-1.6c5.4-3.8,10-8.3,13.5-13.7c-4.9,4.1-9.9,8.2-14.8,12.4
		c-0.5-0.4-0.8-0.6-1.1-0.8c-4.4-3.8-8.8-7.6-13.2-11.4c-0.6-0.5-1.2-1.1-1.9-1.5c-1.2-0.7-2.4-0.6-3.1,0.2c-0.8,1-0.7,2.3,0.3,3.3
		c0.9,0.9,2,1.7,3,2.5c4.4,3.4,8.9,6.8,13.2,10.3c2,1.6,3.9,3.4,5.7,5.3c1.4,1.4,1.2,2.7-0.7,3.6c-0.5,0.3-1,0.5-1.6,0.6
		c-2.3,0.5-4.4,1.8-6.8,1.6c-0.4,0-0.9,0.3-1.3,0.5c-2.4,1.1-4.7,2.3-7.4,3.6c0.4-0.9,0.7-1.4,0.9-2c0.7-1.7,1.6-3.3,2.1-5.1
		c0.7-2.6-0.2-3.9-2.7-4.8c-2-0.7-3.9-1.5-5.8-2.4c-0.8-0.4-1.8-1.2-2-2c-0.6-1.8-1.2-3.8-1-5.7c0.2-1.8,0-3.3-1.4-4.7
		c2-1.7,1.8-3.8,1-5.9c0.7-0.3,1.1-0.5,1.5-0.7c2.6-0.9,2.9-1.7,1.7-4.2c-0.8-1.7-1.7-3.4-2.6-5.2c-0.7-1.4-1.5-2.7-2-4.1
		c-0.4-1.1-1.1-2.2-0.5-3.5c1.3-0.3,2.6-0.6,4.2-1c0,0.6,0,1.1,0,1.5c0,0.5,0,0.9,0,1.5c4-3.5,8.2-11,7.7-14.2c-3.4,2-4.2,6-7,8.9
		c-0.5-3-0.9-5.5-1.3-8c-0.2-1,0.1-1.9,1.1-2.5c1.4-0.9,1.9-2.2,1.8-4c-0.2-2.7-0.2-5.5-0.3-8.3c0-2.3,0-4.6,1.1-6.7
		c3.1,1.1,3.1,1,2.4,3.9c-0.7,3.4-1.4,6.8-2,10.2c-0.1,0.4,0.1,0.9,0.2,1.4c0.2,0,0.4,0,0.6,0.1c0.4-1.1,0.9-2.2,1.2-3.3
		c0.9-3,1.7-6.1,2.5-9.1c0.4-1.3,1-2.4,2.1-3.4c1.5-1.4,2.7-3.4,2.4-5.6c-0.5-3.6,0.9-6.5,2.7-9.3c3.2-4.9,7.2-9.2,11.3-13.3
		c4.2-4.2,8.5-8.2,12.8-12.3c0.6-0.6,1.4-1.3,1.4-2.4c-2.2,1.6-4.3,3.4-6.4,5.2c-2.1,1.8-4.2,3.6-6.2,5.5c-2.1,1.9-4.1,3.9-6.1,5.9
		c-1.9,1.8-3.6,4-6.2,6c0.3-2.4,1.2-4,1.7-5.6c0.7-2.1,1.7-4.2,2.1-6.4c0.5-3,1.1-5.9,2.3-8.6c2.4-5.7,4.3-11.5,7.5-16.8
		c0.9-1.5,1.9-2.9,2.8-4.4c0.2,0.1,0.4,0.2,0.6,0.3c-0.8,1.7-1.5,3.5-2.3,5.2c-1.8,4-4.6,7.6-5.5,12.1c-0.2,1.2,0,1.9,0.7,2.6
		c2.3,2.1,5.2,1.6,7.1-1.2c1.7-2.5,3.4-5,5.1-7.4c0.6-0.8,1.4-1.4,2.5-2.4c0,1,0.2,1.4,0.1,1.7c-0.3,1.1,0.2,1.7,1,2.3
		c1.6,1.2,3.7,1.1,5.1-0.3c0.6-0.6,1.1-1.2,1.5-1.9c3.2-6.2,7.4-11.6,11.7-17c3.7-4.7,7.9-9,12.1-13.3c4.9-5,10-9.7,15.7-13.8
		c0.6-0.4,1.3-0.8,1.9-1.2c0.2,0.2,0.3,0.3,0.5,0.5c-1.9,2.7-3.7,5.5-5.7,8.1c-2,2.7-4.4,5.1-5.9,8.2c2,3.4,4.1,3.8,6.9,1.5
		c1.6-1.3,3.1-2.8,4.6-4.3c5.9-5.9,12.5-11,19.8-15.2c0.6-0.4,1.3-0.7,2-1c0.1,0.2,0.3,0.3,0.4,0.5c-0.4,0.6-0.7,1.2-1.1,1.7
		c-0.9,0.9-2,1.7-2.9,2.6c-1.3,1.1-2.5,2.3-3.7,3.5c-0.8,0.8-0.7,1.5,0,2.4c1.5,1.9,3.5,2.4,5.6,1.2c1.5-0.9,2.9-2.1,4.4-3
		c9-5.4,18.7-8.8,28.8-11.6c1.8-0.5,3.7-1.3,5.6,0.1c0.3,0.2,1.2,0,1.5-0.3s0.3-1.1,0.2-1.5c-0.4-1.2-1.4-1.8-2.5-2
		c-0.9-0.1-1.8-0.2-2.6,0.1c-5.1,1.5-10.3,2.8-15.3,4.6c-4.3,1.5-8.4,3.5-12.6,5.2c-0.7,0.3-1.4,0.9-2.3,0.1c0.5-0.7,1-1.3,1.5-1.9
		c0.6-0.8,1.2-1.5,1.6-2.4c0.8-1.5,0.5-2.4-0.9-3.3c-1.6-1.1-3.2-1-4.8,0c-4.7,2.7-9.3,5.5-14,8.2c-0.3,0.2-0.7,0.5-1,0.7
		c-1.7,1.4-3.4,2.8-5.1,4.1c-0.6,0.5-1.5,0.8-2.2,1.1c1.3-3.7,3.6-6.5,6.3-8.9c0.9-0.8,1.8-1.6,2.6-2.5c0.6-0.6,0.5-1.3,0.2-2
		c-1.2-2.3-3.7-2.8-5.7-1c-1.1,1-2,2.2-3.2,2.9c-5.2,2.9-9.5,7-13.8,11c-9,8.3-17.4,17.2-25,26.8c-0.9,1.2-2.1,2.2-3,3.2
		c-3.2-1.1-3.3-1-4.9,1.5c-0.2,0.4-0.6,0.8-1,0.9c-2.9,0.6-4.7,2.7-6.7,4.6c-1.6,1.6-3,3.2-4.5,4.8c-0.1-0.9,0-1.6,0.2-2.2
		c2.4-5.9,4.8-11.8,7.3-17.7c0.4-0.9,0.8-1.8-0.1-2.6c-1-0.9-2.4-1.1-3.4-0.4c-0.7,0.5-1.3,1.3-1.8,1.9c-1.6,2-3.2,4.1-4.8,6.1
		c-0.8-0.8-1.5-1.6-2.3-0.4c-1.7,2.5-3.6,4.8-4.9,7.5c-2.8,5.9-5.2,12-7.6,18.1c-1.3,3.1-2.4,6.4-3.2,9.6
		c-1.9,7.7-3.8,15.4-6.8,22.8c-0.2,0.5-0.6,0.8-0.9,1.3c-1.4-2-1.3-5.8-0.4-15.1c0.6-5.2,2.2-10,5.1-14.4c-1.7-1-2.8-0.2-3.4,0.7
		c-1.3,1.9-2.8,3.9-3.4,6.1c-0.9,3.2-1.3,6.5-1.7,9.8c-0.4,2.9-0.4,5.8-0.6,8.7c-0.1,1.9-0.4,3.6-1.7,5.2c-0.7,0.8-1.1,2-1.2,3.1
		c-0.3,3-0.4,5.9-0.6,8.9c-0.1,1-0.3,2-0.4,3c-0.7-0.1-1-0.2-1.3-0.2c-3-0.2-4,1.1-3.2,3.9c1.2,4.4,2.3,8.9,3.5,13.4
		c0.2,0.7,0.3,1.5,0.4,2.3c-1.6-2.7-2.8-5.5-3.9-8.3c-0.4-1-0.7-2-0.9-3c-1-3.7-2-7.5-3-11.3c-0.3-1.3-0.6-2.7-0.9-4
		c-0.2-0.8-0.6-1.4-1.5-1.3c-0.9,0.2-1.7,0.8-1.6,1.8c0.1,0.7,0.3,1.4,0.5,2.1c0.6,2.1,1.3,4.2,1.9,6.3c1.2,4.6,2.3,9.3,3.5,13.9
		c0.2,0.9,0.3,1.8-0.5,2.4c-1.2,0.9-1.4,2.2-1,3.5c1.2,4.7,1.7,9.5,1.5,14.3c0,1.2,0.8,2.4,1.3,3.8c-0.7,0.5-1.5,1.1-2.3,1.8
		c-3.1,2.5-4.9,5.6-4,9.7c0.2,1.1,0.2,2.2,0.1,3.3c-0.3,2.8-1.1,5.4-2.5,8c-1.5,2.6-1.9,5.6,0,8.4c2,3,3.9,6.1,6,9.1
		c1.2,1.8,0.8,3.1-1.3,3.1c-2,0.1-3.4,1.1-4.7,2.2c-1.8,1.5-3.4,3.2-5.2,4.6c-4,3.2-7.9,6.4-12,9.5c-3.1,2.3-6.3,4.5-9.5,6.7
		c-2.4,1.7-4.6,3.5-7.4,4.5c-0.9,0.3-1.7,0.9-2.5,1.5c-1.9,1.4-3.7,2.9-5.5,4.3c-4,3.2-8,6.3-11.9,9.5c-2.7,2.2-5.4,4.3-8.1,6.5
		c-0.3,0.2-0.7,0.6-0.7,0.9c0.1,1.5-1,2.1-1.8,3c-1.3,1.3-2.8,2.5-4.2,3.7c-1.2,1-2.4,2.4-3.9,2.8c-2.4,0.6-3.6,2.3-5,3.9
		c-1.6,2-3.1,4.2-4.9,6c-3.2,3.4-6.7,6.6-10,9.8c-0.7,0.7-1.3,1.4-2.1,2c-2.6,2.1-2.8,3.9-0.3,6.2c0.4,0.4,0.9,0.8,1.4,0.9
		c3.2,0.9,5.2,3.5,7.9,5.1c0.4,0.2,0.6,0.9,0.7,1.4c0.6,1.9,1.8,2.7,3.6,2.2c1.6-0.5,3.1-0.1,4.4,0.6c1.6,0.9,3.2,1.9,4.7,3
		c3.8,2.8,7.9,5.1,12.4,6.6c2.2,0.7,4.5,1.3,6.7,2c3.2,1.1,6.5,2.1,9.7,3.3c6.3,2.3,12.9,3.1,19.5,3.3c6.5,0.2,13,0.2,19.4,0
		c7.2-0.1,14.4-0.3,21.6-0.8c5.4-0.3,10.8-0.5,16,1c1.4,0.4,2.8,0.4,4-0.3c2.6-1.4,5.3-1.9,8.2-1.9c1.6,0,2.8-0.7,3.6-2
		c0.3-0.5,0.8-0.9,1.4-1.2c1.4-0.7,2.9-1.4,4.4-2C36.7,343.1,38.3,342.7,39.8,342.3z M133.6,239.7c0.4-0.5,0.7-0.8,0.9-1.2
		c2.3-4.6,4.7-9.2,7-13.8c2.3-4.5,4.5-9.1,6.9-13.6c2.3-4.2,4.7-8.3,7.1-12.4c1.7-2.9,3.3-5.8,5.1-8.5c3.8-5.7,7.8-11.3,11.8-16.9
		c2.7-3.8,5.6-7.5,8.5-11.2c1.6-1.9,3.4-3.7,5-5.5c4.2-4.8,8.8-9,13.7-13c2.9-2.3,6-4.5,8.9-6.7c0.6-0.4,1.4-0.7,1.4-1.9
		c-1.2,0.6-2.2,0.9-3,1.5c-2.4,1.6-4.7,3.5-7.1,5c-3.9,2.3-7.1,5.3-10.4,8.3c-6.5,6.1-12.4,12.7-17.9,19.7c-1,1.3-1.8,2.7-2.8,3.9
		c-5,6.3-9.5,13.1-13.7,20c-0.7,1.2-1.9,2.2-3.1,3.5c0.3-2.1,0.7-3.8,0.8-5.4c0.3-3.1,0-6.1-1.4-9c-1.1-2.1-0.6-4.1,0.8-6.1
		c4.9-6.7,9.6-13.4,14.4-20.1c0.7-1,1.3-2.1,2-3.1c-0.1-0.1-0.3-0.2-0.4-0.3c-1.6,1.9-3.3,3.7-4.9,5.6c-1.2,1.3-2.6,2.4-3.7,3.8
		c-3,3.9-5.8,8-8.7,11.9c-0.3,0.5-0.8,0.8-1.3,1.2c-1.3-2.8-2.4-5.5-3.7-7.9c-2.1-3.9-5.7-6.4-8.9-9.1c-2.1-1.7-4.3-2.3-6.9-2.4
		c-2.9-0.1-5.8-0.4-8.7-0.7c-2.8-0.3-5.5-0.4-8.2,0.4c-0.7,0.2-1.7,0.6-2,1.2c-0.5,1.1-1.3,1.3-2.2,1.7c-1,0.5-2,1.1-3,1.5
		c-1.3,0.5-2.6,0.9-3.8,1.3c-0.7,0.2-1.4,0.4-2,0.8c-5.5,4.4-10.2,9.4-13.5,15.7c-1.3,2.4-2.4,5-3.4,7.5c-1.5,3.9-2.6,7.8-2.5,12
		c0,1.6-0.3,3.2-0.7,4.7c-0.3,1.1-0.2,2,0.7,2.6c1.2,0.8,1.7,1.8,1.9,3.2c0.1,0.6,0.5,1.2,0.9,1.7c2,2.7,4.5,4.8,7.6,6.3
		c2.5,1.2,2.9,2.3,2.1,4.8c-0.7,2.1-1.6,4.2-2.3,6.4c-2.1,6.7-4.3,13.4-6.3,20.1c-0.4,1.2-0.4,2.5-0.6,3.9c1.5-0.3,2.3-0.7,2.6-1.9
		c1.1-3.5,2.4-6.9,3.3-10.4c1.4-5.3,2.6-10.7,3.9-16c0.2-0.8,0.5-1.6,0.7-2.4c0.5,0.1,0.8,0.1,1,0.2c2.1,1.5,4.5,2.1,7.1,2.3
		c0.8,0.1,1.7,0.5,2.4,0.9c1.3,0.7,2.4,1,3.5-0.2c0.3-0.3,0.8-0.6,1.2-0.8c1.5-0.8,2.2-0.6,3.2,0.8c0.8,1.2,1.9,1.7,3.3,1.8
		c2.5,0.2,5,0,7.4-0.7c2.5-0.8,4.7-2.1,6.8-3.6c5.8-4,10.8-8.7,15.3-14.2c0.3-0.4,0.7-0.8,1.1-1.3c0.2,0.6,0.1,1-0.2,1.4
		c-1.2,2.3-2.6,4.5-3.7,6.8c-1.7,3.5-3.4,7-5,10.5c-1.5,3.5-3.2,6.9-4.2,10.5C133.3,236.4,132.8,237.8,133.6,239.7z M469,374.5
		c0.1,0,0.2-0.1,0.3-0.1c-0.3-1.6-0.9-3.2-0.7-4.8c0.2-2.1-0.2-4-0.7-6c-3-10.7-6-21.3-9.1-32c-1.2-4-2.3-8.1-3.6-12.1
		c-1.6-4.8-3.3-9.4-5-14.2c-0.9-2.6-1.5-5.3-2.6-7.8c-1.9-4.3-3.8-8.6-6-12.7c-4.3-8.1-9.1-16-14.2-23.7
		c-5.9-8.8-12.4-17.2-19.5-25.1c-1.9-2.1-3-4.4-3.1-7.1c-0.1-1.6-0.1-3.2-0.2-4.9c-0.1-1.9-0.1-3.9-0.4-5.8
		c-1.5-7.9-5.5-14.4-11.2-20c-1.3-1.3-2.5-2.7-3.7-4.2c-0.4-0.4-0.7-0.9-0.8-1.5c-0.6-3.2-2.4-5.7-4.4-8.3c-1.8-2.4-3.8-4.8-4-8.1
		c0-1-0.9-2.1-1.7-2.8c-1.1-1-2.5-1.8-3.8-2.6c-1.8-1.1-3.7-2-5.5-3c-3-1.8-5.9-3.7-8.9-5.5s-5.9-3.7-8.2-6.4
		c-3.2-3.7-2.8-5.8,0.4-8.1c0.1,0,0.1-0.1,0.2-0.2c3.1-2.8,3.5-5.6,1-8.9c-1.5-2-3.3-3.8-5.1-5.5c-2.8-2.6-5.8-4.9-8.6-7.5
		c-5.8-5.3-11.6-10.7-17.2-16.1c-3-2.9-6.1-5.9-8.1-9.6c-0.4-0.8-0.7-1.7-1.2-3c1.5-0.2,2.6-0.4,3.7-0.6c1.6-0.3,3.2-0.6,4.7-1
		c1.2-0.3,1.5-1.3,1.5-2.5c-0.1-1.6-0.9-2.8-2-3.8c-1.6-1.6-3.3-3.1-5.2-4.4c-3.2-2.3-6.5-4.3-9.7-6.5c-6-4.2-12.2-8-18.5-11.5
		c-4.8-2.6-9.6-5.3-15-6.8c-2.2-0.6-4.3-1.5-6.4-2.2c-0.5-0.2-0.8-0.6-1.5-1.1c1.4-0.6,2.5-1.1,3.6-1.6c1.3-0.6,2.2-1.4,2.2-2.9
		c-0.1-1.5-1-2.6-2.4-3c-1.2-0.4-2.5-0.7-3.8-0.8c-4.5-0.4-9-0.7-13.6-1c-1.6-0.1-3.2-0.2-5.1-1.2c1-0.6,1.6-1,2.3-1.4
		c1.7-1,3.6-1.8,5.2-3.1c1.9-1.5,1.7-3.7-0.4-5c-1.1-0.7-2.3-1.2-3.6-1.4c-8.6-1.8-17.4-1.6-26.1-1.5c-2.3,0-4.5,0.2-6.8,0.3
		c-0.7,0-1.4-0.1-2.5-0.2c0.7-0.7,1-1.1,1.4-1.2c2.7-1.3,5.4-2.6,8.1-3.9c1.2-0.6,2.5-1.1,3.6-1.9c1.2-0.9,1.3-1.9,0.5-3.2
		c-1.2-1.8-3-2.1-4.9-1.9c-3.2,0.2-6.5,0.4-9.7,1c-6.9,1.2-13.8,2.6-20.7,4c-2,0.4-3.9,0.9-6,0.3c-0.8-0.3-2-0.1-2.8,0.2
		c-2.4,0.8-4.7,1.7-7,2.6c-6,2.4-12.1,4.8-18.1,7.1c-0.8,0.3-1.7,0.5-2.6,0.7c-5.1,0.9-9.9,2.4-14.5,4.6c-4.5,2.1-9.3,3.8-13.9,5.6
		c-0.9,0.4-1.7,0.9-2,1.9c2.1,2.2,4.2,2.4,6.7,0.7c2.4-1.6,4.9-3.2,7.1-4.6c0.5,0.2,0.6,0.2,0.8,0.3c0.3,0.2,0.5,0.4,0.8,0.6
		c2.2,1.9,3.6,1.9,5.8,0.3c2-1.4,4-2.7,6.1-4c1.8-1.2,3.7-1.9,5.9-2c1.5-0.1,3.1-0.4,4.6-0.7c6-1.2,11.9-2.6,17.9-3.5
		c4.8-0.7,9.7-1.2,14.5,0c4.6,1.1,9.1,2.1,13.9,2.5c1.4,0.1,2.7,0.3,4.1,0.6c2.8,0.5,5.4,1.5,7.8,3.2c2.5,1.9,5.1,3.7,7.8,5.3
		c2,1.2,4.3,1.9,6.4,2.8c2.3,1,4.5,2,6.5,3.7c2.1,1.9,4.4,3.6,6.8,5.1c1.7,1.1,3.7,1.7,5.5,2.5c4.6,2.1,9.1,4.3,12.6,8
		c2.8,3,6.1,5.4,9.5,7.5c5.4,3.4,10.9,6.7,16.4,9.8c5.1,2.9,8.5,7,10.7,12.5c1.5,3.7,3.5,7.1,6.5,9.8c2.3,2.1,4.5,4.4,6.8,6.6
		c0.3,0.3,0.8,0.4,1.7,0.9c-0.5-1.5-0.7-2.6-1.2-3.4c-1.1-1.7-2.3-3.4-3.7-4.8c-2.5-2.7-4.9-5.4-5.8-9.1c-1.3-4.7-3.9-8.5-8-11.2
		c-4.5-3.1-8.9-6.1-13.4-9.2c-2.5-1.7-5.1-3.2-7.5-4.9c-2.3-1.5-4.7-3-6.7-4.8c-4.4-4.1-9.1-7.8-14.7-10.2
		c-4.2-1.8-7.9-4.4-11.4-7.4c-0.4-0.3-0.6-0.8-1-1.3c3.7-0.8,16.1-0.3,18.3,0.8c-0.8,0.5-1.5,0.9-2.1,1.2c-1.1,0.4-2.2,0.6-3.2,1
		c-1.7,0.7-2,1.6-1.3,3.2c0.9,2,2.7,2.6,4.7,2.9c8.6,1.7,17,4.1,24.6,8.6c7.6,4.4,15,9,22.1,14c2.1,1.5,4.2,3,6.2,4.6
		c0.7,0.5,1.5,1,1.3,2.3c-0.9,0.1-1.7,0.3-2.6,0.4c-1,0.1-1.9,0.1-2.9,0.3c-2.4,0.4-3.5,1.9-3.1,4.3c0.2,1,0.5,2.1,1,3
		c1.3,2,2.7,4.1,4.3,5.8c2.8,3,5.7,5.9,8.7,8.8c4.3,4.2,8.6,8.6,13.2,12.5c4.3,3.8,8.7,7.4,12.7,11.6c2.9,3,2.9,4.5-0.3,7.1
		c-2.5,2-2.8,4.4-2.4,7.3c0.5,3.3,2.7,5.6,5.1,7.4c4.4,3.4,9,6.6,13.6,9.7c2.5,1.7,5,3.3,7.5,4.9c1.5,1,2.7,2.2,3.5,3.9
		c1.6,3.1,3.4,6,5.7,8.7c1.1,1.3,2.1,2.9,2.5,4.6c0.9,3.3,2.5,6,5.2,8.2c2.7,2.2,5.6,4.3,7.9,7.1c2.6,3.2,4.3,6.7,4.7,10.7
		c0.3,2.7-0.1,5.5-0.2,8.2c0,0.5-0.1,1-0.3,1.9c-1.3-1.1-2.5-1.8-3.4-2.8c-2.4-2.5-4.7-5.1-6.9-7.8c-0.8-1-1-2.5-1.5-3.8
		c-0.6-1.5-1.1-1.8-2.3-1.6c-1.2,0.2-1.8,1.1-1.9,2.2c0,0.7,0,1.5,0.4,2.1c1.1,2,2.1,4.3,3.7,6c3.5,3.8,7.3,7.3,11,11
		c2.2,2.2,4.2,4.4,5.4,7.5c3.2,8.8,6.6,17.6,9.6,26.4c2.8,8,5.4,16.1,7.2,24.4c0.6,3,1.5,6,2,9c0.4,2.4,0.6,4.8,0.9,7.2
		c0.1,0.9,0.5,1.9,0.9,2.8c0.3,0.7,1,1.1,2,0.5c0.1-0.9,0.5-1.9,0.4-2.9c-0.2-3.6-0.4-7.3-0.8-10.9c-0.7-6.1-2.2-12.1-4.2-17.9
		c-0.8-2.4-1.8-4.9-2.7-7.3c-1.5-3.9-2.8-7.8-4.5-11.5c-1.8-4-3.2-8.1-4.5-12.3c-0.1-0.5,0-1,0-1.5c0.2-0.1,0.3-0.1,0.5-0.2
		c0.5,0.6,1.1,1.1,1.6,1.7c3.4,4.6,6.8,9.1,10.1,13.7c6.4,9,11.9,18.5,16.8,28.4c1.4,2.7,2.5,5.6,3.7,8.4c0.2,0.4,0.3,0.8,0.5,1.1
		c1.7,2.2,2.3,4.9,3.3,7.4c1.3,3.4,2.5,7,3.7,10.5c1.8,5.2,3.5,10.4,5.2,15.6c2.2,6.6,4.3,13.2,6.4,19.9c1.4,4.3,2.9,8.6,4.2,12.9
		C467.1,368.2,468,371.4,469,374.5z M-24.9,555.3c0.7,0.6,1.1,1.2,1.7,1.4c2,0.8,2.2,2.6,2.7,4.2c0.1,0.5,0.1,1,0.2,1.4
		c1.5,6.5,4.1,12.6,7.1,18.5c1.1,2.2,2.7,4.2,4.1,6.2c0.2,0.3,0.8,0.3,1.3,0.4c0.1-0.4,0.4-0.9,0.3-1.3c-0.5-1.7-0.8-3.5-1.6-5.1
		c-1.2-2.6-1.3-5.5-2.9-7.9c-0.1-0.1-0.2-0.3-0.1-0.4c0.4-1.1-0.5-1.7-0.8-2.6c-0.9-2.3-2.2-4.5-2-7.1c0.1-0.9,0-2.1-0.5-2.7
		c-1.3-1.7-1.2-3.7-1.4-5.5c-0.3-2.3-0.4-4.7-0.7-7.1c-0.9-6.7-0.5-13.4-0.1-20.1c0.1-1.4,0.6-2.7,0.6-4.1
		c0.2-7.3,1.8-14.4,2.9-21.6c0.4-2.9,1.3-5.7,2-8.5c1-4.1,1.7-8.2,2.9-12.2c1.5-4.9,3.3-9.8,5.3-14.5c3-7,5.6-14.3,9.6-20.9
		c2.9-4.9,5.4-9.9,8.3-14.8c3.6-6.1,7.4-12.1,11.2-18.1c1.2-1.9,2.5-3.8,3.9-5.6s3-3.5,4.6-5.3c1-1.1,2-2.3,3-3.4
		c-1.3,2.6-3,4.9-4.5,7.3c-1.7,2.7-3.1,5.7-4.9,8.3c-5,7.2-8.9,15-12.2,23.1c-4.3,10.5-7.9,21.2-10,32.4c-1.2,6.3-2.2,12.6-2.1,19
		c0,4.1,0.2,8.2,0.3,12.4c0.1,3.5,0.3,6.9,0.5,10.4c0.1,0.8,0.4,1.6,0.7,2.3c0.2,0,0.4-0.1,0.6-0.1c0-0.8,0-1.7,0-2.5
		c-0.1-4.4-0.6-8.7,0.6-13c0.1-0.4,0-0.8,0-1.2c0-4.2-0.1-8.4,0.1-12.6c0.2-3.7,0.8-7.4,1.5-11c0.5-2.9,1.6-5.8,2.1-8.7
		c1.2-6.8,4.3-13.1,5.9-19.7c0-0.2,0.1-0.3,0.2-0.4c1.7-4.1,3.3-8.2,5.1-12.3c2.2-5.1,3.9-10.5,7.4-14.9c0.4-0.6,0.7-1.3,1.1-1.9
		c0.8-1.3,1.4-2.7,2.3-3.9c3.5-4.5,7.1-9,10.7-13.5c2.4-3.1,4.8-6.3,7.2-9.4c0.4-0.5,0.9-1,1.5-1.6c0.4,1.4,0.7,2.6,1,3.8
		c1.6-2.4,2.3-4.8,2.6-7.4c0.1-0.8,0.2-1.7,0.6-2.3c0.8-1.1,0.8-2.1,0.3-3.4c-1.3-2.9-0.3-5.3,2.6-6.4c1.8-0.7,2.9-1.9,3.8-3.5
		c1.4-2.6,1.4-5.3,0.8-8c-0.4-1.8-0.2-3.1,1.3-4.3c1.2-0.9,1.2-2,0.5-3.3c-0.3-0.6-0.6-1.2-1-1.7c-1.3-1.3-2.4-3-3.9-3.8
		c-1.3-0.6-2.1-1.3-2.7-2.4c-0.5-0.8-1.1-1.6-1.6-2.5c-0.9-1.6-2.4-2.1-4-2.3c-1.6-0.2-2.8,0.3-3.2,1.5c-0.5,1.2-0.3,2.2,1.2,3.1
		c2.8,1.8,4.3,4.6,5.9,7.3c2,3.3,1.7,5.1-1,7.9c-0.2,0.2-0.5,0.4-0.7,0.7c-1.4,1.5-2.8,3-4.6,4.8c1.5,0.1,2.5,0.1,3.6,0.2
		c-0.3,3.4-0.5,6.7-0.7,10c0,0.4-0.3,0.9-0.6,1.2c-1,1.1-2.1,2.1-3.1,3.1c-2.9,2.7-5.9,5.3-8.7,8.1c-0.9,0.9-1.7,1.9-3.4,1.4
		c0,2.8-1.7,4.6-3.2,6.5c-1,1.3-2.1,2.5-3,3.8c-2.5,3.4-4.9,6.8-7.3,10.2c-1.5,2.2-2.8,4.6-4.4,6.7c-1.3,1.6-2.1,3.6-4,4.8
		c-1.3,0.9-2.4,2.5-3,4c-3.1,6.9-6.5,13.6-10.2,20.1c-4.6,8.1-8.8,16.4-12.2,25c-1.3,3.2-2.2,6.6-3.4,9.8
		c-2.4,6.4-4.8,12.9-5.3,19.8c-0.2,2.2-0.3,4.3-0.5,6.5c-0.3,3.7-0.6,7.4-0.8,11.1c-0.3,6.2-0.5,12.4-0.6,18.7
		c-0.1,4-0.1,8.1,0,12.1c0,2.1,0.3,4.1,0.4,6.1C-23.2,554.5-23.9,554.8-24.9,555.3z M200.6,215.8c0.3-0.7,0.5-1.3,0.8-1.7
		c2.6-3.9,5.3-7.7,7.9-11.7c7.6-11.5,16.1-22.1,26.8-30.8c4.6-3.8,9.5-7,15.2-9c2.3-0.8,4.7-1.9,7.3-1.5c0.4,0.1,0.9-0.3,1.6-0.6
		c-1.1-1.3-2.3-1.5-3.7-1.6c-3.4-0.2-6.6,0.9-9.6,2.2c-6.7,3-12.5,7.4-17.8,12.5c-2.1,2-4.4,3.8-5.6,6.6c-0.3,0.6-1,1-1.6,1.4
		c-0.6,0.5-1.3,0.8-1.7,1.3c-1.5,1.9-3,3.8-4.4,5.8c-2.7,3.6-5.6,7.1-8.1,10.9c-2.4,3.5-4.5,7.3-6.8,10.9c-0.7,1.1-1.3,2.1-1.1,3.6
		c0.2,1.6-0.5,2.8-2.4,3.3c-2.3,0.6-4.5,1.4-6.7,2.2c-8.8,3.2-17.6,6.6-26.4,9.7c-7.9,2.8-15.2,6.8-22.2,11.3
		c-5.7,3.6-11.2,7.4-16.7,11.3c-3.6,2.5-7,5.2-10,8.4c-4.8,5.1-8.4,11.1-12.5,16.7c-0.5,0.7-0.8,1.6-1,2.5c-0.3,1.4,0.1,2.1,1.5,2.6
		c1.1,0.4,1.7,0.1,2.4-1.4c0.7-1.3,1.2-2.7,2.1-3.8c3.4-4.4,6.8-8.9,10.3-13.2c4.1-5,9.3-8.7,14.5-12.4c3.8-2.7,7.8-5.2,11.8-7.6
		c2.9-1.8,5.7-3.7,8.8-5.1c6.8-3,13.7-5.9,20.6-8.5c9.7-3.7,19.6-7.1,29.4-10.8c2.6-1,5.1-2.4,7.6-3.7c0.9-0.5,1.8-1.2,1.4-2.8
		C208.1,212.3,204.8,215.4,200.6,215.8z M333.6,144.7c-0.1,0.1-0.2,0.2-0.4,0.4c0.4,0.8,0.8,1.6,1.2,2.3c1,1.7,2,3.3,2.9,5
		c1.2,2.5,2.3,5,3.3,7.5c0.8,1.8,1.6,3.5,2.1,5.4c1.3,4.3,2.5,8.7,3.5,13.1c1,4.3,1.7,8.8,0.9,13.3c-0.8,4.6-1.3,9.1-1.2,13.7
		c0.1,7.8-1.6,15-5.8,21.6c-1.1,1.8-2.2,3.6-3.4,5.3c-3.3,4.9-5.2,10.2-5.1,16.2c0.1,5.8,0.2,11.7-0.6,17.5c-0.5,3.3,0,6.4,1.5,9.4
		c0.9,2,1.7,4,2.4,6.1c0.8,2.6,0.7,5.3-0.9,7.7c-1.2,1.7-2.4,3.5-3.6,5.2c-2.4,3.4-4.9,6.7-6.3,10.6c-2.4,7.1-6.4,13.2-11.6,18.6
		c-2.8,2.9-5.5,5.9-8.2,8.9c-0.6,0.7-1.8,1.3-1.1,2.8c2.9-1.3,5.5-2.9,7.7-5c6.3-6,10.8-13.3,15.2-20.6c1.5-2.4,2.6-5,4.1-7.4
		c2-3.3,4.2-6.5,6.3-9.8c1.9-3,2.9-6.2,2.1-9.7c-0.5-2.6-1.3-5.2-2.4-7.6c-1.4-3.3-2-6.6-1.5-10.1c0.6-4.2,0.4-8.4-0.5-12.6
		c-0.5-2.5-0.7-4.8,0.1-7.1c0.8-2,1.5-4.1,2.6-6c2-3.6,4.3-7,6.3-10.6c0.8-1.4,1.4-2.9,1.8-4.5c1-3.4,1.9-6.9,2.7-10.3
		c0.5-1.9,0.9-3.8,1.2-5.7c0.6-4.4,1-8.8,1.8-13.2c0.8-4.8,0.2-9.3-1-13.9c-0.5-2-1.2-3.9-1.5-5.9c-0.9-5.9-2.4-11.7-4.4-17.3
		c-2-5.3-5.5-9.3-9.6-12.8C334.2,144.8,333.9,144.8,333.6,144.7z M131.2,137.9c-2.6-0.6-4.6,0.1-6.6,1.1c-1.4,0.7-2.8,1.4-4.1,2
		c-4.2,2.1-8.9,2.7-12.9,5.4c-2.1,1.4-4.6,2.4-6.7,3.8c-2.9,1.9-5.7,4-8.5,6.1c-0.3,0.2-0.6,0.6-0.9,0.9c-1.2,1.2-2.4,2.4-3.5,3.7
		c-2.3,2.4-4.6,4.8-6.9,7.1c-1,1.1-2,2.1-3.9,1.8c-1.2-0.2-2.5,0.4-3.2,1.9c-1,1.9-2.4,3.7-3.8,5.3c-2.5,3-5.1,5.9-7.7,8.8
		c-4.9,5.4-9.7,11.1-15.2,16c-1.7,1.5-3.3,3.3-4.8,4.9c1,1.3,1.9,1.3,2.9,0.5c1.2-0.9,2.5-1.8,3.6-2.8c5.8-5,10.7-11,16.6-16
		c1.9-1.6,3.4-3.7,5.1-5.5c0.6-0.6,1.1-1.2,1.7-1.8c-3.2,6.7-6.6,13.1-9.8,19.6c-5.7,11.7-7.8,17.4-7.8,21.1
		c0.5-1.2,0.8-1.9,1.1-2.6c0.3-0.8,0.6-1.5,0.9-2.3c3.4-8.1,7.5-15.8,11.9-23.3c2.8-4.8,5.4-9.6,8.5-14.1
		c3.8-5.4,8.1-10.5,12.2-15.7c0.7-0.9,1.3-1.9,2.2-2.6c4.1-3.4,8.2-6.8,12.4-10.2c1.1-0.9,2.3-1.9,3.9-1.2c0.3,0.1,0.8-0.1,1.2-0.2
		c1.5-0.6,3-1.2,4.4-2c5-2.6,10.1-5.2,15.1-7.8C129.5,139.4,130.2,138.7,131.2,137.9z M65.4,404.3c-0.2,0-0.3,0-0.5-0.1
		c-0.2-0.6-0.3-1.3-0.5-1.8c-1.2-2.9-2.3-5.8-3.6-8.7c-0.4-1-1.2-2.3-2.5-1.7s-0.9,2-0.6,3.1c0.8,3.1,1.7,6.2,2.7,9.3
		c0.4,1.2,1.1,2.4,1.8,3.4c0.8,1.2,2,1.4,2.8,0.3c0.9-1.2,2.1-1.4,3.5-1.8c0.4,0.8,0.9,1.6,1.1,2.4c0.8,4.4,1.6,8.9,2.2,13.4
		c0.5,3.4,0.6,6.9,0.9,10.3c0.1,0.6,0.3,1.3,0.4,1.9c0.2,1.1,0.4,2.2,0.5,3.3c0.3,5.8,0.4,11.6,0.7,17.4c0.2,3.9,0.6,7.9,0.9,11.8
		c0.1,1.4,0.8,2.1,1.8,2.2c1.1,0.1,2.1-0.8,2.3-2.1c0.1-0.4,0-0.8,0-1.2c-0.1-4.5-0.4-9-0.4-13.5c0-5.3-0.3-10.7,1-15.9
		c0.4-1.6,0.1-3.1-0.7-4.6c-1.5-3.2-2.6-6.6-3-10.2c-0.4-2.9-0.9-5.7-1.3-8.6c-0.3-2.1-0.5-4.2-0.9-6.2c-0.2-1.1-0.4-2.2-0.7-3.3
		c-0.6-1.7-2.2-2.7-4-2.6c-1.7,0.1-2.9,0.9-3.4,2.6C65.7,403.6,65.5,403.9,65.4,404.3z M389.8,398.3c1.6,0,1.7,0,1.9-1
		c0.4-1.7,0.7-3.5,1-5.2c1.6-8.5,3.1-17,4.7-25.5c0.5-2.4,1-4.8,2.1-6.9c1-2,1.1-3.7,0.4-5.8c-1.1-3.1-1.9-6.3-2.8-9.5
		c-0.3-1-0.4-2.1-0.7-3c-1.8-4.5-2.5-9.4-3.4-14.1c-1.4-7.4-1-14.8,0.1-22.2c0.4-2.4,0.1-5,0-7.5c-0.1-1-0.8-1.9-2-1.7
		c-1.1,0.2-1.6,1-1.7,2.1c-0.3,3.5-0.5,7.1-0.9,10.6c-0.7,6.9-0.3,13.9,0.8,20.7c0.5,3.1,1.3,6.3,2,9.4c0.8,3.8,2,7.5,2.9,11.3
		c0.3,1.3,0.6,2.7,0.5,4.1c-0.3,4.6-0.6,9.2-1.2,13.7c-0.8,6.6-1.8,13.1-2.6,19.7C390.4,391,390.2,394.7,389.8,398.3z M224.6,204.8
		c1.2,1,2.2,1.1,3.1,0.4c1.3-0.9,2.7-1.8,3.8-2.9c3.8-4.1,8.1-7.6,12.6-10.9c2.9-2.1,5.6-4.4,7.2-7.7c1.6-3.4,4-6.2,6.6-8.9
		c2.1-2.2,4.2-4.5,6.2-6.8c1.2-1.4,1.5-3,1.2-4.8c-0.3-1.7-0.8-3.3-1.2-4.9c-0.8-3.1-1.3-6.1-0.8-9.4c0.9-6,3.5-11.4,5.1-17.1
		c0.6-2,1-4.1,1.2-6.2c0.1-1.1,0-2.5-1.7-3.1c-0.3,0.7-0.7,1.4-1,2.1c-0.6,1.5-1.1,3-1.6,4.6c-1.8,5.5-3.6,11.1-5.3,16.7
		c-0.8,2.5-1,5.1-0.5,7.7c0.4,2.1,0.6,4.4,1.3,6.4c0.7,2.2,0.2,4-1.1,5.7c-2.7,3.6-5.4,7.1-8.1,10.6c-1.6,2.1-3.3,4.2-4.7,6.5
		c-1.3,2.1-2.6,4.1-4.6,5.6c-4,3-8.2,5.8-11.7,9.4C228.6,199.8,226.3,202,224.6,204.8z M182.7,199c1.1-1.2,2.2-2.3,3.1-3.5
		c4.2-5.6,8.2-11.4,12.6-16.9c4.8-5.9,10-11.6,15.5-16.9c5.2-5.1,10.8-9.7,16.3-14.5c2.5-2.1,5.3-3.9,8-5.8c1.2-0.9,2.3-2,3.6-2.8
		c2.9-2,6-3.8,8.9-5.8c0.8-0.5,1.4-1.2,2.1-1.8c-0.1-0.1-0.1-0.3-0.2-0.4c-0.8,0.3-1.6,0.5-2.3,0.9c-5.8,2.3-10.8,6.1-16,9.5
		c-6.1,4.1-12,8.5-17.3,13.7c-3.1,3-6.1,6-9,9.1c-2.7,2.8-5.3,5.7-7.8,8.6c-3.3,3.8-6.7,7.6-9.9,11.6c-3.1,3.8-5.8,7.8-7.9,12.2
		C181.9,196.9,181.2,197.8,182.7,199z M121.6,52.9c-0.1-0.2-0.2-0.4-0.3-0.6c-0.7,0.1-1.4,0.2-2,0.4c-3.3,1.2-6.7,2.4-10,3.7
		c-5.6,2.3-11.2,4.7-16.8,7c-12.1,4.8-23.7,10.5-34.1,18.3c-2.5,1.9-4.9,3.9-7.3,6c-0.7,0.6-1.4,1.3-1.3,2.4
		c1.5,0.3,2.5-0.4,3.5-1.2c2-1.7,4-3.6,5.9-5.3c1-0.9,1.9-2,3.1-2.6c5.3-2.8,10.6-5.5,16-8.1c5.8-2.8,11.6-5.3,17.4-8
		c4.6-2.2,9.2-4.3,14.3-5.1c2.1-0.3,4.1-0.9,6-1.8C118.5,57,120.5,55.4,121.6,52.9z M190.6,131.1c1.2-0.3,2.2-0.6,3.2-0.9
		c1.3-0.5,2.5-1.1,3.8-1.6c7.3-2.8,14.9-4.4,22.4-6.3c5.2-1.3,10.4-2.3,15.6-3.5c1.1-0.3,2.4-0.2,3.2-1.5c-1.1-1.1-2.4-0.7-3.5-0.6
		c-7.6,1.1-15.2,2.2-22.5,4.4c-3.7,1.1-7.5,1.9-11.3,2.8c-3.6,0.8-7.3,1.5-10.9,2.4c-1.5,0.4-1.8,1.1-1.2,2.5
		C189.7,129.5,190.1,130.1,190.6,131.1z M173.5,131.1c-0.8,0.3-1.1,0.4-1.4,0.5c-4.6,2.9-9.2,5.8-13.7,8.8c-1.5,1-2.8,2.4-4.2,3.7
		c-0.8,0.7-1.1,1.6-0.1,2.4C157.8,145.2,169.8,135.8,173.5,131.1z M328.9,139.3c0.1-0.1,0.3-0.2,0.4-0.3c-1.3-3.2-3.3-6-5-8.9
		c-1.7-3-2.6-6.6-5.9-9.1c-0.3,1.2-0.8,2.1-0.6,2.8c0.5,1.9,0.9,3.9,2,5.4c1.9,2.7,4.1,5.2,6.3,7.7
		C326.9,137.7,327.9,138.5,328.9,139.3z M273.5,357.9c5.1-1,9.5-3.5,13.4-6.5c1.2-0.9,2.9-1.6,3.3-3.9c-5.6,3.3-10.8,6.4-16.1,9.5
		C273.9,357.2,273.7,357.6,273.5,357.9z M62.3,223.3c0.2,0.1,0.4,0.2,0.6,0.2c2.5-7.1,5.1-14.1,7.6-21.2c-0.6,0.1-0.9,0.3-1.1,0.7
		c-0.9,1.9-1.8,3.8-2.6,5.7c-0.8,1.8-1.5,3.5-2.1,5.4c-0.4,1.4-0.6,2.8-1,4.2C63.4,219.9,62.8,221.6,62.3,223.3z M76.7,195.1
		c1.1-1.2,1.6-2.3,1.6-3.6c-0.1-1.1-0.5-1.8-1.6-2.1c-1-0.3-1.7,0.1-1.7,1.1C75.2,192,75.2,193.8,76.7,195.1z M142.6,125.5
		c2.5,1,2.7,0.9,3.6-0.6C144.9,124.1,143.9,124.4,142.6,125.5z M245.6,575c2-0.1,2-0.1,2-1.1C246.9,574.2,246.2,574.6,245.6,575z
		 M467.6,599.8c0-0.2,0-0.4,0-0.5c-0.5,0-0.9,0.1-1.4,0.1c0,0.1,0,0.3,0,0.4C466.7,599.8,467.2,599.8,467.6,599.8z M36.8,599.8
		c-0.2-0.1-0.3-0.3-0.5-0.4c-0.3,0.3-0.5,0.6-0.8,0.9c0.1,0.1,0.3,0.3,0.4,0.4C36.2,600.4,36.5,600.1,36.8,599.8z M327.2,604.8
		c-1.2,0.6-1.2,0.6-0.6,1.5C326.7,605.9,326.9,605.6,327.2,604.8z M324.4,610.9c-0.1-0.1-0.2-0.1-0.4-0.2c-0.2,0.3-0.4,0.5-0.5,0.8
		c0.2,0.1,0.4,0.2,0.6,0.3C324.2,611.5,324.3,611.2,324.4,610.9z M307.1,624.4c-0.1,0.2-0.2,0.3-0.4,0.5c0.4,0.2,0.7,0.5,1.1,0.7
		c0.1-0.1,0.2-0.2,0.3-0.4C307.8,625,307.4,624.7,307.1,624.4z M92.7,563.7c0.1,0,0.3-0.1,0.4-0.1c-0.2,0-0.3-0.1-0.5-0.1
		c-0.1,0-0.2,0-0.2,0C92.5,563.6,92.6,563.7,92.7,563.7z"/>
	<path class="st0" d="M230.6,638.3c-0.8-0.9-1.5-2-2.4-2.6c-2.9-1.5-6.1-2.4-9.4-1.8c-2.5,0.5-4-0.4-5.1-2.6c-0.8,0-1.6,0-2.4,0
		c-0.3,0-0.8,0.1-0.9-0.1c-0.9-1.2-2.1-1.9-3.7-1.8c-0.2,0-0.7-0.6-0.7-0.9c0-1.3-1-1.4-1.8-1.6c-1.9-0.5-3.6-1.2-5.4-2.3
		c-1.7-1-3.6-1.9-5.4-2.8c-3.7-1.9-7.3-3.8-10.9-5.8c-0.9-0.5-1.5-0.6-2.4-0.3c-1.5,0.5-2.9,0-3.4-1.5c-0.8-2.6-2.9-3.6-4.8-4.8
		c-5-3.3-10-6.5-15.2-9.5c-4.3-2.5-8.8-4.7-13.2-7c-1.5-0.8-3-1.5-4.5-2.3c-0.5-0.2-0.8-0.7-1.3-1.1c1-1.1,2.1-1.3,3.4-1.1
		c4.6,0.8,9,2.1,12.9,5c0.4,0.3,0.9,0.4,1.3,0.7c6.1,3.2,11.8,7.2,17.5,10.9c2.1,1.3,4.4,2.3,6.5,3.5c1,0.5,1.8,1.4,2.7,1.9
		c2.7,1.6,5.3,3.3,8.1,4.7c3.1,1.5,6.2,2.8,9.4,4.2c0.4,0.2,0.8,0.3,1.1,0.6c2.5,1.9,5.6,2,8.4,3.1c0.6,0.2,1.5-0.2,2.2-0.4
		c1.7,2.8,2,3.8,5.1,1.9c0.7,0.6,1.4,1.2,2.1,1.8c0.9,0.7,1.7,1.5,3,0.9c0.3-0.1,1,0.3,1.4,0.6c0.8,0.7,1.5,1,2.6,0.6
		c1-0.3,2.2,0.1,3.3,0.2c1,0.1,2.1,0.2,3.2,0.4c0,0.4,0.1,0.9,0.1,1.5c2-0.2,4.5,2.3,5.9-1.3c2.1,0.1,3.9,0.9,5.5,1.9
		c2.2,1.4,4.5,2.3,7.1,2.3c1.7,0,3.2,0.6,4.5,1.5c1.7,1.2,3.6,1.9,5.7,2c4.6,0.2,9.2,0.3,13.8,0.5c1.9,0.1,3.8,0.4,5.7,0.5
		C263.7,638.3,247.1,638.3,230.6,638.3z"/>
	<path class="st0" d="M199,638.3c0.4-0.3,0.9-0.8,1.3-0.9c2,0,4.1-0.2,6,0.9C203.8,638.3,201.4,638.3,199,638.3z"/>
	<path class="st0" d="M-72.4,638.3"/>
	<path class="st0" d="M39.8,342.3c-1.5,0.4-3.1,0.8-4.6,1.3c-1.5,0.6-3,1.2-4.4,2c-0.5,0.3-1,0.7-1.4,1.2c-0.9,1.3-2,2-3.6,2
		c-2.9-0.1-5.6,0.5-8.2,1.9c-1.3,0.7-2.6,0.7-4,0.3c-5.3-1.5-10.6-1.3-16-1c-7.2,0.4-14.4,0.6-21.6,0.8c-6.5,0.1-13,0.1-19.4,0
		c-6.6-0.2-13.2-1-19.5-3.3c-3.2-1.2-6.4-2.2-9.7-3.3c-2.2-0.7-4.5-1.3-6.7-2c-4.5-1.5-8.6-3.7-12.4-6.6c-1.5-1.1-3.1-2.1-4.7-3
		c-1.3-0.7-2.8-1.1-4.4-0.6c-1.8,0.6-3-0.3-3.6-2.2c-0.2-0.5-0.3-1.1-0.7-1.4c-2.7-1.6-4.7-4.3-7.9-5.1c-0.5-0.1-1-0.6-1.4-0.9
		c-2.5-2.3-2.3-4.1,0.3-6.2c0.7-0.6,1.4-1.3,2.1-2c3.4-3.3,6.8-6.5,10-9.8c1.8-1.9,3.2-4,4.9-6c1.4-1.7,2.6-3.3,5-3.9
		c1.4-0.4,2.6-1.8,3.9-2.8c1.4-1.2,2.9-2.4,4.2-3.7c0.8-0.8,1.9-1.5,1.8-3c0-0.3,0.4-0.7,0.7-0.9c2.7-2.2,5.4-4.4,8.1-6.5
		c4-3.2,8-6.4,11.9-9.5c1.8-1.5,3.6-2.9,5.5-4.3c0.8-0.6,1.6-1.1,2.5-1.5c2.8-1,5.1-2.8,7.4-4.5c3.2-2.2,6.4-4.4,9.5-6.7
		c4.1-3.1,8-6.3,12-9.5c1.8-1.5,3.5-3.1,5.2-4.6c1.4-1.1,2.8-2.1,4.7-2.2c2.1-0.1,2.5-1.3,1.3-3.1c-2-3-4-6.1-6-9.1
		c-1.8-2.8-1.5-5.8,0-8.4c1.5-2.5,2.3-5.2,2.5-8c0.1-1.1,0.1-2.3-0.1-3.3c-0.9-4.2,0.9-7.2,4-9.7c0.8-0.7,1.6-1.3,2.3-1.8
		c-0.5-1.5-1.4-2.7-1.3-3.8c0.2-4.9-0.2-9.6-1.5-14.3c-0.3-1.3-0.2-2.6,1-3.5c0.8-0.6,0.8-1.5,0.5-2.4c-1.2-4.6-2.3-9.3-3.5-13.9
		c-0.5-2.1-1.2-4.2-1.9-6.3c-0.2-0.7-0.4-1.4-0.5-2.1c-0.1-1.1,0.6-1.7,1.6-1.8c0.9-0.2,1.3,0.5,1.5,1.3c0.3,1.3,0.5,2.7,0.9,4
		c1,3.8,2,7.5,3,11.3c0.3,1,0.6,2,0.9,3c1.1,2.8,2.3,5.6,3.9,8.3c-0.1-0.8-0.2-1.5-0.4-2.3c-1.1-4.5-2.3-8.9-3.5-13.4
		c-0.8-2.9,0.2-4.2,3.2-3.9c0.3,0,0.6,0.1,1.3,0.2c0.1-1,0.3-2,0.4-3c0.2-3,0.3-6,0.6-8.9c0.1-1.1,0.5-2.3,1.2-3.1
		c1.3-1.5,1.6-3.3,1.7-5.2c0.2-2.9,0.3-5.8,0.6-8.7c0.4-3.3,0.8-6.6,1.7-9.8c0.6-2.2,2.1-4.2,3.4-6.1c0.7-1,1.8-1.7,3.4-0.7
		c-2.9,4.4-4.6,9.2-5.1,14.4c-1,9.3-1,13.1,0.4,15.1c0.3-0.5,0.7-0.9,0.9-1.3c3-7.4,4.9-15.1,6.8-22.8c0.8-3.3,2-6.5,3.2-9.6
		c2.4-6.1,4.9-12.2,7.6-18.1c1.2-2.7,3.2-5,4.9-7.5c0.8-1.2,1.5-0.4,2.3,0.4c1.6-2.1,3.2-4.1,4.8-6.1c0.5-0.7,1.1-1.4,1.8-1.9
		c0.9-0.7,2.4-0.5,3.4,0.4c0.9,0.8,0.5,1.7,0.1,2.6c-2.5,5.9-4.9,11.8-7.3,17.7c-0.3,0.6-0.4,1.4-0.2,2.2c1.5-1.6,3-3.3,4.5-4.8
		c1.9-1.9,3.8-4,6.7-4.6c0.4-0.1,0.8-0.5,1-0.9c1.7-2.6,1.7-2.6,4.9-1.5c0.9-1,2.1-2,3-3.2c7.6-9.6,16-18.5,25-26.8
		c4.3-4,8.6-8.1,13.8-11c1.2-0.7,2.2-1.9,3.2-2.9c2-1.8,4.5-1.3,5.7,1c0.4,0.7,0.4,1.4-0.2,2c-0.8,0.9-1.8,1.7-2.6,2.5
		c-2.7,2.4-5,5.2-6.3,8.9c0.7-0.4,1.6-0.6,2.2-1.1c1.7-1.3,3.4-2.7,5.1-4.1c0.3-0.3,0.6-0.5,1-0.7c4.6-2.8,9.3-5.5,14-8.2
		c1.6-0.9,3.2-1,4.8,0c1.4,0.9,1.7,1.8,0.9,3.3c-0.4,0.9-1.1,1.6-1.6,2.4c-0.5,0.6-1,1.2-1.5,1.9c0.9,0.8,1.7,0.2,2.3-0.1
		c4.2-1.7,8.3-3.7,12.6-5.2c5-1.8,10.2-3.1,15.3-4.6c0.8-0.2,1.8-0.2,2.6-0.1c1.2,0.2,2.2,0.8,2.5,2c0.1,0.5,0.1,1.2-0.2,1.5
		c-0.3,0.3-1.2,0.5-1.5,0.3c-1.9-1.4-3.8-0.6-5.6-0.1c-10,2.8-19.8,6.2-28.8,11.6c-1.5,0.9-2.9,2.1-4.4,3c-2.1,1.2-4.1,0.7-5.6-1.2
		c-0.6-0.8-0.8-1.6,0-2.4c1.2-1.2,2.5-2.3,3.7-3.5c1-0.9,2-1.7,2.9-2.6c0.5-0.5,0.8-1.1,1.1-1.7c-0.1-0.2-0.3-0.3-0.4-0.5
		c-0.7,0.3-1.4,0.6-2,1c-7.3,4.2-13.8,9.3-19.8,15.2c-1.5,1.5-3,3-4.6,4.3c-2.8,2.3-4.9,1.9-6.9-1.5c1.5-3.1,3.8-5.5,5.9-8.2
		c2-2.6,3.8-5.4,5.7-8.1c-0.2-0.2-0.3-0.3-0.5-0.5c-0.6,0.4-1.3,0.7-1.9,1.2c-5.7,4.1-10.8,8.8-15.7,13.8
		c-4.2,4.3-8.3,8.6-12.1,13.3c-4.3,5.4-8.5,10.8-11.7,17c-0.4,0.7-0.9,1.3-1.5,1.9c-1.4,1.4-3.5,1.5-5.1,0.3c-0.7-0.6-1.3-1.2-1-2.3
		c0.1-0.3,0-0.8-0.1-1.7c-1.1,1-1.9,1.6-2.5,2.4c-1.8,2.4-3.5,4.9-5.1,7.4c-1.8,2.7-4.8,3.2-7.1,1.2c-0.8-0.7-1-1.4-0.7-2.6
		c0.9-4.5,3.7-8.1,5.5-12.1c0.8-1.7,1.5-3.5,2.3-5.2c-0.2-0.1-0.4-0.2-0.6-0.3c-0.9,1.5-1.9,2.9-2.8,4.4c-3.2,5.3-5.2,11.2-7.5,16.8
		c-1.2,2.8-1.8,5.7-2.3,8.6c-0.4,2.2-1.4,4.3-2.1,6.4c-0.6,1.7-1.4,3.2-1.7,5.6c2.6-2,4.3-4.2,6.2-6c2.1-2,4.1-4,6.1-5.9
		s4.1-3.7,6.2-5.5c2.1-1.8,4.1-3.6,6.4-5.2c0,1.1-0.8,1.7-1.4,2.4c-4.2,4.1-8.6,8.1-12.8,12.3c-4.1,4.1-8.1,8.3-11.3,13.3
		c-1.8,2.8-3.2,5.7-2.7,9.3c0.3,2.2-0.8,4.2-2.4,5.6c-1.1,1-1.7,2.1-2.1,3.4c-0.8,3-1.6,6.1-2.5,9.1c-0.3,1.1-0.8,2.2-1.2,3.3
		c-0.2,0-0.4,0-0.6-0.1c-0.1-0.5-0.3-1-0.2-1.4c0.6-3.4,1.2-6.8,2-10.2c0.6-2.9,0.7-2.9-2.4-3.9c-1.2,2.1-1.2,4.4-1.1,6.7
		c0,2.8,0.1,5.5,0.3,8.3c0.1,1.7-0.4,3.1-1.8,4c-1,0.6-1.2,1.5-1.1,2.5c0.4,2.5,0.8,5.1,1.3,8c2.8-2.9,3.6-6.9,7-8.9
		c0.5,3.2-3.7,10.7-7.7,14.2c0-0.6,0-1,0-1.5s0-0.9,0-1.5c-1.5,0.4-2.9,0.7-4.2,1c-0.6,1.3,0.1,2.4,0.5,3.5c0.5,1.4,1.3,2.7,2,4.1
		c0.9,1.7,1.8,3.4,2.6,5.2c1.2,2.5,0.9,3.2-1.7,4.2c-0.4,0.2-0.9,0.4-1.5,0.7c0.7,2.1,1,4.2-1,5.9c1.4,1.4,1.6,2.8,1.4,4.7
		c-0.2,1.8,0.4,3.8,1,5.7c0.2,0.8,1.2,1.5,2,2c1.9,0.9,3.8,1.7,5.8,2.4c2.5,0.9,3.4,2.3,2.7,4.8c-0.5,1.8-1.4,3.4-2.1,5.1
		c-0.2,0.6-0.5,1.1-0.9,2c2.7-1.3,5.1-2.5,7.4-3.6c0.4-0.2,0.9-0.6,1.3-0.5c2.5,0.2,4.5-1.1,6.8-1.6c0.5-0.1,1.1-0.3,1.6-0.6
		c1.8-0.9,2.1-2.2,0.7-3.6c-1.8-1.8-3.7-3.7-5.7-5.3c-4.3-3.5-8.8-6.8-13.2-10.3c-1-0.8-2-1.6-3-2.5c-1-1-1.1-2.3-0.3-3.3
		c0.6-0.8,1.9-0.9,3.1-0.2c0.7,0.4,1.3,1,1.9,1.5c4.4,3.8,8.8,7.6,13.2,11.4c0.3,0.3,0.6,0.5,1.1,0.8c5-4.1,9.9-8.3,14.8-12.4
		c-3.6,5.4-8.1,9.9-13.5,13.7c0.4,0.6,0.7,1.1,1.1,1.6c0.8,1,1.9,1.8,2.6,2.9c0.8,1.1,1.8,1.5,3,1.8c4,0.8,7.5,2.5,10.2,5.6
		c0.9,1,1.5,2.3,1.8,3.6c0.3,1.1,0.6,1.8,1.6,2.2c1.1,0.5,2.2,1,3.4,1.5c2.5-2.6,2-6.9,5.3-9.1c0.5,1.3,0.6,2.5,0.2,3.8
		c-0.5,1.7-0.8,3.5-1.2,5.2c-0.5,2.2-0.4,2.5,1.6,3.7c1.6,0.9,3.3,1.7,4.9,2.7c5.4,3.6,9.9,8.2,14,13.4c1.1,1.4,2.2,2.8,3.3,4.2
		c1,1.3,2.3,2.1,4.1,2c2.7-0.1,4.4,1.8,6.2,3.4c1.6,1.5,3.4,3,5.1,4.5c2,1.7,4.4,2.2,6.9,2.9c1.4,0.4,2.8,0.9,4.1,1.5
		c2.7,1.4,3.8,4,3,6.9c-0.3,1-0.5,2-1,3c-1.3,3-2.2,6-2.4,9.4c-0.1,2.2-1.3,4-2.7,5.6c-1.8,2-3.7,3.8-5.6,5.7
		c-0.7,0.7-1.4,1.3-1.4,2.4c0,0.5-0.4,1.1-0.7,1.5c-1.5,1.5-2.9,3.1-4.6,4.3c-3,2.1-4.8,5-6.7,7.9c-0.4,0.5-0.5,1.3-1,1.6
		c-3.5,2.9-5.8,7-9,10.2c-1,1-2.2,1.9-3.4,2.6c-0.5,0.3-1.4,0-2.3-0.5c-0.7,0.6-1.5,1.2-2.2,1.8c-1.9,1.6-3.8,3.2-5.8,4.8
		c-0.7,0.6-1.7,1.1-1,2.4c0.1,0.3-0.3,1.1-0.6,1.4c-2.2,1.5-4.4,3-6.7,4.3C44.5,339.7,42.1,341,39.8,342.3L39.8,342.3z M-92.9,326.4
		c0.2,0.3,0.3,0.6,0.4,0.7c4.9,4.2,10.3,7.5,16.5,9.4c5.8,1.8,11.8,3,17.8,3.9c5.8,0.8,11.6,1.7,17.4,2c9.1,0.5,18.3,0.6,27.4,0.9
		c4.1,0.2,8.3-0.3,12.1,1.7c0.2,0.1,0.5,0.1,0.7,0.1c4.7-0.3,9.4-0.7,14-1c0.5,0,1.3-0.4,1.4-0.7c0.3-1.5,1.6-1.7,2.7-2.1
		c5-1.7,10-3.2,14.5-6.1c2.5-1.6,5.3-2.9,7.8-4.4c3.1-1.9,6.2-3.8,9.2-5.8c0.6-0.4,1-1.2,1.5-1.8c0.8-1,1.5-2.1,2.4-2.9
		c2.3-1.8,4.6-3.5,7-5.2c0.6-0.4,1.3-0.8,2.5-1.5c-0.1,1.5-0.2,2.4-0.4,3.9c1.2-1.3,1.9-2.2,2.8-3c3-3.1,5.5-6.8,9.8-8.5
		c0.3-0.1,0.5-0.4,0.7-0.6c2.3-2.8,4.6-5.6,6.9-8.4c2.7-3.4,5.4-6.8,8-10.3c0.8-1,1.3-2.3,1.7-3.5c0.2-0.5,0-1.4-0.3-1.7
		c-1.3-1-1.6-2.4-1.7-3.9c-0.2-1.6-1-2.8-2-4c-1.5-1.8-3-3.6-4.3-5.5c-0.9-1.4-1.9-2.6-3.2-3.7c-5.3-4.5-10.2-9.4-14.4-15
		c-2.7-3.6-5.5-6.9-9-9.8c-2.3-1.9-4.8-3.8-5.8-6.9c-1,0.4-1.4,1-1.5,2.1c-0.3,2.3-0.7,2.5-3,2c-0.4-0.1-0.8-0.2-1.2-0.1
		c-2.8,0.7-5.5,0.1-8.2-0.2c-3.3-0.4-6.6-0.6-9.9-0.7c-1.3-0.1-2.2,0.4-2.7,1.9c-0.6,1.8-2,2.5-4,2.4c-0.6,0-1.2,0-2.1,0
		c0.7,1.5,1.9,2,3,2.6c0.8,0.5,1.4,1.1,0.7,2.3c-1.1-0.2-2.2-0.4-3.3-0.6c-1.6-0.4-3-2-3.1-3.6c-0.1-1.5-0.1-3-0.2-4.6
		c-0.2-3.1,0.7-4.4,3.7-4.8c2.1-0.3,4.3-0.4,6.5-0.5c4.4-0.1,8.7,0.6,12.8,2.2c1.1,0.4,2.3,0.6,3.5,0.6c-1-0.8-2.2-1.3-3-2.1
		c-1.1-1.1-2.5-1.7-3.9-1.9c-4.5-0.7-9.1-1.4-13.7-1.8c-3.3-0.3-6.4,0.7-9.3,2.4c-5.3,3.1-10.5,6.4-15.8,9.5
		c-2.3,1.3-4.6,2.7-7.1,3.7c-1.6,0.7-3.2,1.6-5.1,1.2c-0.5-0.1-1.1,0.3-1.6,0.5c-0.9,0.4-1.7,1-2.5,1.5c-6.4,3.9-12.9,7.4-18.8,12
		c-7.4,5.8-15.1,11.2-22.5,16.9c-6.8,5.2-13.4,10.7-20.2,15.9c-4.3,3.3-8.1,6.9-11.1,11.3c-2.3,3.3-5.2,6.1-8.2,8.8
		c-2,1.8-3.6,4.1-5.1,6.4c-1.3,1.9-0.6,2.9,1.6,3.3c4.6,0.7,9.3,1.4,13.9,2.1c1,0.2,2.1,0.3,2.6,1.5
		C-89,326.2-91.1,325.6-92.9,326.4z M95.2,271.6c1-2.5,0.8-3.1-1.3-4.2c-0.9-0.4-1.6-1-2.5-1.4c-0.4-0.2-0.9-0.3-1.4-0.4
		c-0.1,0.1-0.1,0.3-0.2,0.4C91.6,267.9,93.4,269.8,95.2,271.6z"/>
	<path class="st0" d="M133.6,239.7c-0.8-1.9-0.3-3.3,0.1-4.9c1.1-3.7,2.7-7.1,4.2-10.5c1.5-3.6,3.2-7.1,5-10.5
		c1.1-2.3,2.5-4.5,3.7-6.8c0.2-0.4,0.3-0.8,0.2-1.4c-0.4,0.4-0.7,0.8-1.1,1.3c-4.4,5.4-9.5,10.2-15.3,14.2c-2.1,1.5-4.3,2.8-6.8,3.6
		c-2.4,0.7-4.9,0.9-7.4,0.7c-1.4-0.1-2.5-0.6-3.3-1.8c-1-1.4-1.7-1.6-3.2-0.8c-0.4,0.2-0.9,0.5-1.2,0.8c-1.1,1.2-2.2,0.9-3.5,0.2
		c-0.8-0.4-1.6-0.8-2.4-0.9c-2.5-0.2-4.9-0.8-7.1-2.3c-0.2-0.1-0.5-0.1-1-0.2c-0.2,0.8-0.5,1.6-0.7,2.4c-1.3,5.3-2.5,10.7-3.9,16
		c-0.9,3.5-2.2,6.9-3.3,10.4c-0.4,1.2-1.2,1.6-2.6,1.9c0.2-1.5,0.3-2.8,0.6-3.9c2.1-6.7,4.2-13.4,6.3-20.1c0.7-2.1,1.6-4.2,2.3-6.4
		c0.9-2.6,0.4-3.7-2.1-4.8c-3.1-1.5-5.6-3.6-7.6-6.3c-0.4-0.5-0.8-1.1-0.9-1.7c-0.2-1.3-0.7-2.4-1.9-3.2c-0.9-0.6-1-1.5-0.7-2.6
		c0.4-1.6,0.7-3.2,0.7-4.7c-0.1-4.2,0.9-8.2,2.5-12c1-2.5,2.1-5.1,3.4-7.5c3.3-6.3,8-11.3,13.5-15.7c0.5-0.4,1.3-0.6,2-0.8
		c1.3-0.5,2.6-0.8,3.8-1.3c1-0.4,2-1,3-1.5c0.9-0.4,1.7-0.7,2.2-1.7c0.3-0.6,1.2-1,2-1.2c2.7-0.9,5.4-0.7,8.2-0.4
		c2.9,0.3,5.8,0.6,8.7,0.7c2.6,0.1,4.8,0.7,6.9,2.4c3.3,2.8,6.8,5.3,8.9,9.1c1.3,2.5,2.4,5.1,3.7,7.9c0.4-0.4,1-0.7,1.3-1.2
		c2.9-4,5.8-8,8.7-11.9c1.1-1.4,2.5-2.5,3.7-3.8c1.7-1.8,3.3-3.7,4.9-5.6c0.1,0.1,0.3,0.2,0.4,0.3c-0.7,1-1.3,2.1-2,3.1
		c-4.8,6.7-9.6,13.5-14.4,20.1c-1.5,2-1.9,4-0.8,6.1c1.4,2.9,1.7,5.9,1.4,9c-0.1,1.7-0.5,3.3-0.8,5.4c1.2-1.3,2.3-2.3,3.1-3.5
		c4.2-6.9,8.7-13.6,13.7-20c1-1.3,1.8-2.7,2.8-3.9c5.5-7,11.4-13.7,17.9-19.7c3.2-3,6.5-6,10.4-8.3c2.5-1.5,4.7-3.4,7.1-5
		c0.9-0.6,1.9-0.9,3-1.5c0,1.2-0.8,1.5-1.4,1.9c-3,2.3-6,4.4-8.9,6.7c-4.9,3.9-9.6,8.2-13.7,13c-1.6,1.9-3.5,3.6-5,5.5
		c-2.9,3.7-5.8,7.4-8.5,11.2c-4,5.6-7.9,11.2-11.8,16.9c-1.9,2.7-3.5,5.7-5.1,8.5c-2.4,4.1-4.8,8.2-7.1,12.4
		c-2.4,4.5-4.6,9.1-6.9,13.6c-2.3,4.6-4.7,9.2-7,13.8C134.3,238.9,134,239.1,133.6,239.7z M143.8,179.6c-1.5-4.3-2.7-8.6-5.5-12.3
		c-0.5-0.6-1.1-1.1-1.8-1.6c-1-0.8-2-0.4-2.9,0.2s-0.7,1.5-0.3,2.4c0.2,0.4,0.3,0.7,0.5,1.1C136.5,173.5,139.9,176.8,143.8,179.6z
		 M105.1,176.4c-0.2-0.2-0.4-0.4-0.6-0.6c-0.9,0.7-2,1.3-2.8,2.2c-1,1-1.9,2.2-2.8,3.4c-1.8,2.3-1.8,2.3-1.2,5.5
		C100.3,183.3,102.7,179.9,105.1,176.4z M133,172.2c0.1,1.7-1.9,2.3-1,3.8c0.6,1.1,1.4,2.2,2.3,3c0.9,0.9,1.5,0.7,3.3-1
		C136.1,176.2,134.7,174.4,133,172.2z M136.9,205.8c3.2-1.6,5.7-6.2,5.4-9.7C139.2,198.7,138.8,202.7,136.9,205.8z M100.1,200.2
		c3.2-2.7,5.6-5.6,7.5-9.5C105.6,192.1,101.9,196.9,100.1,200.2z M102.5,203.7c3.3-2.4,7.9-8.4,8.4-10.9
		C107.9,196.6,105.2,200.2,102.5,203.7z M132.6,209.6c-1.3-1.1-2.2-1.9-3.5-3c-0.1,1.7-0.2,3.1-0.3,4.8
		C130.2,210.8,131.3,210.3,132.6,209.6z M128.2,200c-1.4,0.8-1.4,0.8-1.7,2.3C127.2,201.4,127.7,200.7,128.2,200z M131,169.2
		c-0.6,1.2-0.6,1.3,0.3,1.7c0.1,0.1,0.4-0.1,0.7-0.3C131.7,170.1,131.4,169.6,131,169.2z M108.3,171.6c-0.1-0.1-0.3-0.2-0.4-0.3
		c-0.5,0.4-1.4,0.6-0.8,1.9C107.6,172.6,107.9,172.1,108.3,171.6z M97.9,191.7c0.2,0.1,0.4,0.3,0.5,0.4c0.4-0.6,0.8-1.2,1.2-1.8
		c-0.1-0.1-0.3-0.2-0.4-0.3C98.8,190.5,98.4,191.1,97.9,191.7z M131.3,195.6c-0.1-0.1-0.3-0.2-0.4-0.3c-0.3,0.5-0.7,1-1,1.5
		c0,0,0.1,0.2,0.3,0.3C130.5,196.6,130.9,196.1,131.3,195.6z M109.7,187.7c-0.1-0.1-0.2-0.1-0.3-0.2c-0.2,0.3-0.3,0.6-0.7,1.2
		c0.5-0.3,0.7-0.3,0.7-0.4C109.5,188.1,109.6,187.9,109.7,187.7z"/>
	<path class="st0" d="M469,374.5c-0.9-3.2-1.9-6.3-2.9-9.5c-1.4-4.3-2.8-8.6-4.2-12.9c-2.1-6.6-4.2-13.2-6.4-19.9
		c-1.7-5.2-3.5-10.4-5.2-15.6c-1.2-3.5-2.3-7-3.7-10.5c-1-2.5-1.5-5.2-3.3-7.4c-0.2-0.3-0.3-0.7-0.5-1.1c-1.2-2.8-2.4-5.7-3.7-8.4
		c-4.9-9.8-10.4-19.4-16.8-28.4c-3.3-4.6-6.7-9.1-10.1-13.7c-0.5-0.6-1-1.1-1.6-1.7c-0.2,0.1-0.3,0.1-0.5,0.2c0,0.5-0.1,1,0,1.5
		c1.2,4.2,2.7,8.3,4.5,12.3c1.7,3.7,3,7.7,4.5,11.5c0.9,2.4,1.9,4.8,2.7,7.3c2,5.8,3.5,11.8,4.2,17.9c0.4,3.6,0.6,7.2,0.8,10.9
		c0.1,1-0.3,2-0.4,2.9c-1,0.6-1.7,0.3-2-0.5c-0.4-0.9-0.7-1.8-0.9-2.8c-0.4-2.4-0.5-4.8-0.9-7.2c-0.6-3-1.4-6-2-9
		c-1.8-8.3-4.4-16.4-7.2-24.4c-3-8.9-6.4-17.6-9.6-26.4c-1.1-3.2-3.1-5.3-5.4-7.5c-3.7-3.6-7.5-7.2-11-11c-1.6-1.7-2.6-3.9-3.7-6
		c-0.3-0.6-0.4-1.4-0.4-2.1c0.1-1.1,0.6-2,1.9-2.2c1.2-0.2,1.7,0.1,2.3,1.6c0.5,1.3,0.7,2.8,1.5,3.8c2.1,2.7,4.5,5.3,6.9,7.8
		c0.9,1,2.1,1.7,3.4,2.8c0.1-0.9,0.2-1.4,0.3-1.9c0.1-2.7,0.5-5.5,0.2-8.2c-0.4-4-2.2-7.5-4.7-10.7c-2.3-2.8-5.1-4.9-7.9-7.1
		c-2.7-2.2-4.3-4.9-5.2-8.2c-0.4-1.6-1.4-3.3-2.5-4.6c-2.3-2.7-4.1-5.6-5.7-8.7c-0.9-1.7-2-2.9-3.5-3.9c-2.5-1.6-5-3.2-7.5-4.9
		c-4.6-3.2-9.2-6.3-13.6-9.7c-2.4-1.9-4.6-4.1-5.1-7.4c-0.4-2.9-0.1-5.4,2.4-7.3c3.2-2.6,3.1-4.1,0.3-7.1c-4-4.1-8.4-7.8-12.7-11.6
		c-4.6-4-8.8-8.3-13.2-12.5c-2.9-2.9-5.9-5.7-8.7-8.8c-1.6-1.8-3-3.8-4.3-5.8c-0.6-0.9-0.9-1.9-1-3c-0.4-2.4,0.7-3.9,3.1-4.3
		c0.9-0.2,1.9-0.2,2.9-0.3c0.9-0.1,1.7-0.2,2.6-0.4c0.2-1.3-0.6-1.8-1.3-2.3c-2-1.6-4.1-3.1-6.2-4.6c-7.2-5-14.6-9.6-22.1-14
		c-7.7-4.5-16-6.9-24.6-8.6c-2-0.4-3.8-0.9-4.7-2.9c-0.8-1.6-0.4-2.6,1.3-3.2c1.1-0.4,2.2-0.6,3.2-1c0.7-0.3,1.3-0.7,2.1-1.2
		c-2.2-1.1-14.6-1.6-18.3-0.8c0.4,0.5,0.6,1,1,1.3c3.5,2.9,7.1,5.6,11.4,7.4c5.6,2.4,10.3,6,14.7,10.2c2,1.9,4.4,3.3,6.7,4.8
		c2.5,1.7,5.1,3.2,7.5,4.9c4.5,3,9,6.1,13.4,9.2c4,2.8,6.7,6.5,8,11.2c1,3.6,3.3,6.4,5.8,9.1c1.4,1.5,2.6,3.1,3.7,4.8
		c0.5,0.8,0.7,1.9,1.2,3.4c-1-0.5-1.4-0.6-1.7-0.9c-2.3-2.2-4.5-4.4-6.8-6.6c-3-2.7-5-6.2-6.5-9.8c-2.2-5.4-5.6-9.6-10.7-12.5
		c-5.5-3.2-11-6.4-16.4-9.8c-3.4-2.2-6.7-4.5-9.5-7.5c-3.5-3.7-8-6-12.6-8c-1.8-0.8-3.8-1.4-5.5-2.5c-2.4-1.5-4.7-3.2-6.8-5.1
		c-1.9-1.7-4.2-2.7-6.5-3.7c-2.1-0.9-4.4-1.6-6.4-2.8c-2.7-1.6-5.3-3.4-7.8-5.3c-2.4-1.7-5-2.7-7.8-3.2c-1.4-0.3-2.7-0.5-4.1-0.6
		c-4.7-0.3-9.3-1.4-13.9-2.5c-4.8-1.1-9.7-0.6-14.5,0c-6,0.8-11.9,2.3-17.9,3.5c-1.5,0.3-3,0.6-4.6,0.7c-2.2,0.1-4.1,0.8-5.9,2
		c-2,1.3-4.1,2.6-6.1,4c-2.3,1.6-3.6,1.6-5.8-0.3c-0.2-0.2-0.5-0.4-0.8-0.6c-0.1-0.1-0.3-0.1-0.8-0.3c-2.3,1.5-4.7,3-7.1,4.6
		c-2.5,1.7-4.6,1.5-6.7-0.7c0.3-1,1.1-1.5,2-1.9c4.7-1.8,9.4-3.5,13.9-5.6c4.7-2.2,9.5-3.7,14.5-4.6c0.9-0.1,1.7-0.4,2.6-0.7
		c6-2.4,12.1-4.8,18.1-7.1c2.3-0.9,4.7-1.8,7-2.6c0.9-0.3,2-0.5,2.8-0.2c2.1,0.7,4,0.1,6-0.3c6.9-1.4,13.8-2.8,20.7-4
		c3.2-0.6,6.4-0.8,9.7-1c1.9-0.1,3.7,0.2,4.9,1.9c0.9,1.3,0.8,2.3-0.5,3.2c-1.1,0.8-2.4,1.3-3.6,1.9c-2.7,1.3-5.4,2.5-8.1,3.9
		c-0.4,0.2-0.6,0.6-1.4,1.2c1.2,0.1,1.8,0.2,2.5,0.2c2.3-0.1,4.5-0.2,6.8-0.3c8.7-0.2,17.5-0.3,26.1,1.5c1.2,0.3,2.5,0.8,3.6,1.4
		c2.1,1.3,2.3,3.5,0.4,5c-1.6,1.2-3.5,2-5.2,3.1c-0.6,0.4-1.3,0.8-2.3,1.4c1.9,0.9,3.5,1.1,5.1,1.2c4.5,0.3,9.1,0.6,13.6,1
		c1.3,0.1,2.5,0.5,3.8,0.8c1.4,0.5,2.3,1.5,2.4,3s-0.9,2.3-2.2,2.9c-1.1,0.5-2.2,1-3.6,1.6c0.7,0.5,1.1,0.9,1.5,1.1
		c2.1,0.8,4.2,1.7,6.4,2.2c5.4,1.4,10.2,4.1,15,6.8c6.4,3.5,12.6,7.4,18.5,11.5c3.2,2.2,6.5,4.2,9.7,6.5c1.8,1.3,3.5,2.9,5.2,4.4
		c1.1,1,1.9,2.2,2,3.8c0.1,1.2-0.3,2.2-1.5,2.5c-1.5,0.4-3.1,0.7-4.7,1c-1.1,0.2-2.2,0.3-3.7,0.6c0.5,1.3,0.8,2.2,1.2,3
		c2.1,3.7,5.1,6.7,8.1,9.6c5.6,5.5,11.4,10.8,17.2,16.1c2.8,2.6,5.8,4.9,8.6,7.5c1.8,1.7,3.6,3.5,5.1,5.5c2.6,3.4,2.2,6.2-1,8.9
		c-0.1,0.1-0.1,0.1-0.2,0.2c-3.2,2.3-3.7,4.4-0.4,8.1c2.3,2.6,5.2,4.6,8.2,6.4s5.9,3.7,8.9,5.5c1.8,1.1,3.7,2,5.5,3
		c1.3,0.8,2.7,1.5,3.8,2.6c0.8,0.7,1.7,1.8,1.7,2.8c0.1,3.4,2.1,5.7,4,8.1c1.9,2.5,3.7,5.1,4.4,8.3c0.1,0.5,0.4,1,0.8,1.5
		c1.2,1.4,2.4,2.9,3.7,4.2c5.7,5.6,9.7,12.1,11.2,20c0.4,1.9,0.3,3.9,0.4,5.8c0.1,1.6,0.1,3.2,0.2,4.9c0.2,2.7,1.2,5,3.1,7.1
		c7.1,7.9,13.6,16.3,19.5,25.1c5.1,7.7,9.9,15.6,14.2,23.7c2.2,4.1,4.2,8.4,6,12.7c1.1,2.5,1.7,5.2,2.6,7.8c1.6,4.7,3.4,9.4,5,14.2
		c1.3,4,2.5,8,3.6,12.1c3,10.6,6.1,21.3,9.1,32c0.5,1.9,1,3.8,0.7,6c-0.2,1.5,0.4,3.2,0.7,4.8C469.2,374.4,469.1,374.5,469,374.5z
		 M238.1,48.5c-0.1-3.5-0.1-3.5,2.8-4.8c2.1-1,4.2-2,6.3-3.1c0.9-0.5,1.9-0.9,2-2.5c-1.1-0.2-2.1-0.6-3.2-0.7
		c-4-0.2-8.1-0.3-12.1-0.3s-7.9,0.3-11.9,0.5c-0.4,0-0.7,0.3-1.2,0.6c1.9,1.2,3.6,2.3,5.2,3.4c1.4,1,2.7,2.4,4.2,3.3
		C232.6,46.3,235.2,47.5,238.1,48.5z M219.5,26.5c0-0.2-0.1-0.4-0.1-0.6c-0.4-0.1-0.9-0.2-1.3-0.2c-3.1,0.4-6.2,0.5-9.1,1.2
		c-5.4,1.2-10.7,2.7-16,4.1c-0.9,0.3-1.8,0.9-3,1.5c0.8,0.3,1,0.5,1.3,0.6c3.6,0.5,7.2,1.1,10.8,1.6c1.1,0.2,1.9,0.1,2.8-0.8
		c0.9-0.9,2.1-1.5,3.3-2c2.7-1.3,5.4-2.5,8.2-3.8C217.4,27.6,218.4,27,219.5,26.5z M183.4,33.4c0-0.3,0.1-0.6,0.1-0.8
		c-0.6-0.2-1.3-0.7-1.9-0.7c-3,0.3-6,0.8-8.6,2.8C176.5,34.2,179.9,33.8,183.4,33.4z"/>
	<path class="st0" d="M-24.9,555.3c1-0.5,1.7-0.8,2.6-1.2c-0.1-2-0.4-4.1-0.4-6.1c-0.1-4-0.1-8.1,0-12.1c0.1-6.2,0.4-12.4,0.6-18.7
		c0.2-3.7,0.5-7.4,0.8-11.1c0.2-2.2,0.3-4.3,0.5-6.5c0.5-6.9,2.9-13.4,5.3-19.8c1.2-3.2,2.1-6.6,3.4-9.8c3.5-8.6,7.6-17,12.2-25
		c3.8-6.5,7.2-13.2,10.2-20.1c0.7-1.5,1.7-3.1,3-4c1.9-1.2,2.7-3.2,4-4.8c1.6-2.1,2.9-4.5,4.4-6.7c2.4-3.4,4.8-6.8,7.3-10.2
		c0.9-1.3,2-2.5,3-3.8c1.5-1.9,3.2-3.6,3.2-6.5c1.8,0.5,2.5-0.5,3.4-1.4c2.8-2.8,5.8-5.4,8.7-8.1c1.1-1,2.1-2,3.1-3.1
		c0.3-0.3,0.5-0.8,0.6-1.2c0.3-3.3,0.5-6.6,0.7-10c-1.1-0.1-2.1-0.1-3.6-0.2c1.7-1.8,3.2-3.3,4.6-4.8c0.2-0.2,0.5-0.4,0.7-0.7
		c2.7-2.8,3-4.6,1-7.9c-1.6-2.7-3.1-5.5-5.9-7.3c-1.4-0.9-1.6-2-1.2-3.1c0.5-1.2,1.6-1.7,3.2-1.5c1.6,0.2,3.1,0.8,4,2.3
		c0.5,0.8,1,1.6,1.6,2.5c0.7,1.1,1.4,1.8,2.7,2.4c1.6,0.7,2.7,2.4,3.9,3.8c0.4,0.5,0.7,1.1,1,1.7c0.7,1.2,0.6,2.4-0.5,3.3
		c-1.5,1.1-1.7,2.5-1.3,4.3c0.6,2.7,0.6,5.4-0.8,8c-0.9,1.7-2,2.9-3.8,3.5c-2.9,1.1-3.9,3.5-2.6,6.4c0.5,1.3,0.5,2.2-0.3,3.4
		c-0.4,0.6-0.5,1.5-0.6,2.3c-0.3,2.6-1,5-2.6,7.4c-0.3-1.2-0.6-2.3-1-3.8c-0.6,0.6-1.1,1.1-1.5,1.6c-2.4,3.1-4.8,6.3-7.2,9.4
		c-3.5,4.5-7.1,9-10.7,13.5c-0.9,1.2-1.6,2.6-2.3,3.9c-0.4,0.6-0.6,1.3-1.1,1.9c-3.5,4.5-5.2,9.8-7.4,14.9
		c-1.8,4.1-3.4,8.2-5.1,12.3c-0.1,0.1-0.1,0.3-0.2,0.4c-1.6,6.7-4.7,12.9-5.9,19.7c-0.5,2.9-1.5,5.8-2.1,8.7
		c-0.7,3.6-1.3,7.3-1.5,11c-0.3,4.2-0.1,8.4-0.1,12.6c0,0.4,0.1,0.8,0,1.2c-1.2,4.3-0.7,8.7-0.6,13c0,0.8,0,1.7,0,2.5
		c-0.2,0-0.4,0.1-0.6,0.1c-0.2-0.8-0.6-1.6-0.7-2.3c-0.2-3.5-0.4-6.9-0.5-10.4c-0.2-4.1-0.3-8.2-0.3-12.4c0-6.4,0.9-12.7,2.1-19
		c2.1-11.2,5.7-21.9,10-32.4c3.3-8.1,7.2-15.9,12.2-23.1c1.8-2.6,3.2-5.6,4.9-8.3c1.5-2.4,3.1-4.7,4.5-7.3c-1,1.1-2,2.3-3,3.4
		c-1.5,1.8-3.1,3.5-4.6,5.3c-1.4,1.8-2.7,3.7-3.9,5.6c-3.8,6-7.6,12-11.2,18.1c-2.9,4.9-5.4,9.9-8.3,14.8
		c-3.9,6.6-6.5,13.9-9.6,20.9c-2,4.7-3.8,9.6-5.3,14.5c-1.2,4-2,8.1-2.9,12.2c-0.7,2.8-1.5,5.6-2,8.5c-1.1,7.2-2.7,14.3-2.9,21.6
		c0,1.4-0.5,2.7-0.6,4.1c-0.3,6.7-0.7,13.4,0.1,20.1c0.3,2.4,0.4,4.7,0.7,7.1c0.2,1.8,0.2,3.8,1.4,5.5c0.5,0.7,0.6,1.8,0.5,2.7
		c-0.2,2.6,1.2,4.8,2,7.1c0.3,0.9,1.2,1.5,0.8,2.6c0,0.1,0.1,0.3,0.1,0.4c1.6,2.4,1.7,5.3,2.9,7.9c0.7,1.6,1.1,3.4,1.6,5.1
		c0.1,0.4-0.2,0.8-0.3,1.3c-0.4-0.1-1.1-0.1-1.3-0.4c-1.4-2-3-4-4.1-6.2c-3-5.9-5.6-12-7.1-18.5c-0.1-0.5-0.1-1-0.2-1.4
		c-0.5-1.7-0.7-3.5-2.7-4.2C-23.8,556.5-24.2,555.9-24.9,555.3z M55.1,368c2.2-1.4,2.5-3,1.3-6C54.6,363,53.8,363,55.1,368z"/>
	<path class="st0" d="M200.6,215.8c4.2-0.4,7.6-3.5,11.7-2.9c0.3,1.6-0.5,2.3-1.4,2.8c-2.5,1.3-5,2.7-7.6,3.7
		c-9.8,3.7-19.6,7.1-29.4,10.8c-6.9,2.6-13.8,5.5-20.6,8.5c-3.1,1.4-5.9,3.3-8.8,5.1c-4,2.5-8,4.9-11.8,7.6
		c-5.2,3.7-10.4,7.4-14.5,12.4c-3.5,4.3-6.9,8.7-10.3,13.2c-0.9,1.1-1.4,2.5-2.1,3.8c-0.7,1.4-1.3,1.8-2.4,1.4
		c-1.4-0.5-1.8-1.2-1.5-2.6c0.2-0.9,0.5-1.8,1-2.5c4-5.7,7.7-11.6,12.5-16.7c3-3.2,6.4-5.9,10-8.4c5.5-3.8,11-7.7,16.7-11.3
		c7-4.5,14.3-8.5,22.2-11.3c8.9-3.1,17.6-6.5,26.4-9.7c2.2-0.8,4.4-1.7,6.7-2.2c1.9-0.5,2.6-1.7,2.4-3.3c-0.2-1.5,0.4-2.4,1.1-3.6
		c2.3-3.6,4.3-7.4,6.8-10.9c2.6-3.7,5.4-7.3,8.1-10.9c1.5-1.9,2.9-3.9,4.4-5.8c0.4-0.5,1.1-0.9,1.7-1.3c0.6-0.5,1.3-0.8,1.6-1.4
		c1.2-2.8,3.5-4.6,5.6-6.6c5.3-5.1,11.1-9.5,17.8-12.5c3-1.4,6.2-2.4,9.6-2.2c1.3,0.1,2.5,0.3,3.7,1.6c-0.7,0.3-1.1,0.7-1.6,0.6
		c-2.6-0.4-5,0.7-7.3,1.5c-5.7,1.9-10.6,5.2-15.2,9c-10.7,8.7-19.3,19.3-26.8,30.8c-2.6,3.9-5.3,7.8-7.9,11.7
		C201.1,214.5,200.9,215,200.6,215.8z"/>
	<path class="st0" d="M333.6,144.7c0.3,0.1,0.6,0.2,0.8,0.4c4.1,3.6,7.7,7.5,9.6,12.8c2.1,5.6,3.6,11.4,4.4,17.3
		c0.3,2,1,3.9,1.5,5.9c1.2,4.6,1.8,9.2,1,13.9c-0.8,4.4-1.1,8.8-1.8,13.2c-0.3,1.9-0.7,3.8-1.2,5.7c-0.9,3.4-1.7,6.9-2.7,10.3
		c-0.4,1.5-1,3.1-1.8,4.5c-2,3.6-4.3,7-6.3,10.6c-1.1,1.9-1.8,4-2.6,6c-0.9,2.3-0.6,4.7-0.1,7.1c0.8,4.1,1.1,8.4,0.5,12.6
		c-0.5,3.6,0,6.9,1.5,10.1c1.1,2.4,1.9,5,2.4,7.6c0.7,3.5-0.2,6.7-2.1,9.7c-2.1,3.3-4.3,6.5-6.3,9.8c-1.5,2.4-2.6,5-4.1,7.4
		c-4.4,7.4-9,14.6-15.2,20.6c-2.2,2.1-4.8,3.7-7.7,5c-0.7-1.5,0.5-2.1,1.1-2.8c2.7-3,5.4-6,8.2-8.9c5.2-5.4,9.2-11.5,11.6-18.6
		c1.3-4,3.9-7.3,6.3-10.6c1.2-1.7,2.4-3.5,3.6-5.2c1.6-2.4,1.7-5.1,0.9-7.7c-0.6-2.1-1.4-4.1-2.4-6.1c-1.5-3-2-6.1-1.5-9.4
		c0.9-5.8,0.7-11.6,0.6-17.5c-0.1-6,1.8-11.3,5.1-16.2c1.2-1.7,2.2-3.5,3.4-5.3c4.2-6.6,5.8-13.8,5.8-21.6c0-4.6,0.4-9.2,1.2-13.7
		c0.8-4.4,0-8.9-0.9-13.3c-1-4.4-2.2-8.7-3.5-13.1c-0.5-1.8-1.4-3.6-2.1-5.4c-1.1-2.5-2.1-5.1-3.3-7.5c-0.8-1.7-1.9-3.4-2.9-5
		c-0.4-0.8-0.8-1.5-1.2-2.3C333.3,144.9,333.5,144.8,333.6,144.7z"/>
	<path class="st0" d="M131.2,137.9c-1,0.8-1.8,1.5-2.6,1.9c-5,2.6-10,5.3-15.1,7.8c-1.4,0.7-2.9,1.3-4.4,2c-0.4,0.2-0.9,0.4-1.2,0.2
		c-1.7-0.7-2.8,0.3-3.9,1.2c-4.2,3.3-8.3,6.7-12.4,10.2c-0.8,0.7-1.5,1.7-2.2,2.6c-4.1,5.2-8.4,10.3-12.2,15.7
		c-3.2,4.5-5.7,9.4-8.5,14.1c-4.4,7.5-8.5,15.3-11.9,23.3c-0.3,0.7-0.6,1.5-0.9,2.3c-0.3,0.7-0.6,1.4-1.1,2.6c0-3.6,2-9.3,7.8-21.1
		c3.2-6.5,6.6-12.9,9.8-19.6c-0.6,0.6-1.1,1.2-1.7,1.8c-1.7,1.9-3.2,3.9-5.1,5.5c-5.9,5-10.7,11-16.6,16c-1.2,1-2.4,1.9-3.6,2.8
		c-1,0.7-1.9,0.8-2.9-0.5c1.6-1.6,3.1-3.4,4.8-4.9c5.5-5,10.2-10.6,15.2-16c2.6-2.9,5.2-5.8,7.7-8.8c1.4-1.7,2.7-3.4,3.8-5.3
		c0.8-1.4,2-2.1,3.2-1.9c1.9,0.3,2.8-0.8,3.9-1.8c2.3-2.3,4.6-4.7,6.9-7.1c1.2-1.2,2.4-2.4,3.5-3.7c0.3-0.3,0.5-0.6,0.9-0.9
		c2.8-2,5.6-4.2,8.5-6.1c2.1-1.4,4.6-2.4,6.7-3.8c4-2.7,8.7-3.3,12.9-5.4c1.4-0.7,2.8-1.4,4.1-2
		C126.6,138.1,128.6,137.3,131.2,137.9z"/>
	<path class="st0" d="M65.4,404.3c0.1-0.4,0.3-0.7,0.4-1.1c0.5-1.7,1.6-2.6,3.4-2.6c1.8-0.1,3.4,0.9,4,2.6c0.4,1,0.6,2.2,0.7,3.3
		c0.3,2.1,0.6,4.2,0.9,6.2c0.4,2.9,0.9,5.7,1.3,8.6c0.5,3.6,1.6,7,3,10.2c0.7,1.6,1.1,3,0.7,4.6c-1.3,5.3-1,10.6-1,15.9
		c0,4.5,0.3,9,0.4,13.5c0,0.4,0,0.8,0,1.2c-0.2,1.3-1.2,2.2-2.3,2.1c-1.1,0-1.7-0.7-1.8-2.2c-0.3-3.9-0.7-7.9-0.9-11.8
		c-0.3-5.8-0.4-11.6-0.7-17.4c0-1.1-0.3-2.2-0.5-3.3c-0.1-0.6-0.3-1.3-0.4-1.9c-0.3-3.4-0.5-6.9-0.9-10.3c-0.6-4.5-1.4-8.9-2.2-13.4
		c-0.1-0.8-0.7-1.6-1.1-2.4c-1.4,0.4-2.6,0.6-3.5,1.8c-0.8,1.1-2,0.9-2.8-0.3c-0.7-1.1-1.4-2.2-1.8-3.4c-1-3.1-1.9-6.2-2.7-9.3
		c-0.3-1-0.7-2.5,0.6-3.1c1.4-0.6,2.1,0.8,2.5,1.7c1.3,2.8,2.5,5.8,3.6,8.7c0.2,0.6,0.3,1.2,0.5,1.8
		C65.1,404.3,65.2,404.3,65.4,404.3z"/>
	<path class="st0" d="M389.8,398.3c0.3-3.6,0.6-7.2,1-10.8c0.8-6.6,1.8-13.1,2.6-19.7c0.5-4.6,0.9-9.2,1.2-13.7
		c0.1-1.3-0.2-2.7-0.5-4.1c-0.9-3.8-2.1-7.5-2.9-11.3c-0.7-3.1-1.5-6.3-2-9.4c-1.1-6.8-1.5-13.8-0.8-20.7c0.4-3.5,0.6-7.1,0.9-10.6
		c0.1-1.1,0.6-1.9,1.7-2.1c1.2-0.2,2,0.7,2,1.7c0.2,2.5,0.4,5,0,7.5c-1.1,7.4-1.5,14.8-0.1,22.2c0.9,4.8,1.6,9.6,3.4,14.1
		c0.4,1,0.5,2,0.7,3c0.9,3.2,1.8,6.4,2.8,9.5c0.7,2.1,0.6,3.8-0.4,5.8c-1,2.1-1.6,4.6-2.1,6.9c-1.7,8.5-3.2,17-4.7,25.5
		c-0.3,1.7-0.6,3.5-1,5.2C391.5,398.3,391.4,398.3,389.8,398.3z"/>
	<path class="st0" d="M224.6,204.8c1.7-2.8,4-5,6.2-7.2c3.5-3.6,7.7-6.4,11.7-9.4c2-1.5,3.3-3.5,4.6-5.6c1.4-2.3,3.1-4.4,4.7-6.5
		c2.7-3.6,5.4-7.1,8.1-10.6c1.3-1.7,1.8-3.5,1.1-5.7c-0.7-2.1-0.9-4.3-1.3-6.4c-0.5-2.6-0.2-5.2,0.5-7.7c1.7-5.6,3.5-11.1,5.3-16.7
		c0.5-1.5,1-3.1,1.6-4.6c0.3-0.7,0.6-1.4,1-2.1c1.7,0.7,1.8,2,1.7,3.1c-0.2,2.1-0.6,4.1-1.2,6.2c-1.6,5.7-4.2,11.2-5.1,17.1
		c-0.5,3.2-0.1,6.3,0.8,9.4c0.4,1.6,0.9,3.3,1.2,4.9c0.3,1.7,0,3.4-1.2,4.8c-2,2.3-4.1,4.6-6.2,6.8c-2.6,2.7-5,5.5-6.6,8.9
		c-1.5,3.4-4.3,5.6-7.2,7.7c-4.5,3.3-8.8,6.8-12.6,10.9c-1.1,1.2-2.5,2-3.8,2.9C226.8,205.9,225.7,205.8,224.6,204.8z"/>
	<path class="st0" d="M182.7,199c-1.5-1.2-0.8-2.1-0.3-3c2.1-4.4,4.8-8.4,7.9-12.2c3.2-3.9,6.6-7.7,9.9-11.6
		c2.6-2.9,5.2-5.8,7.8-8.6c3-3.1,6-6.1,9-9.1c5.3-5.2,11.1-9.6,17.3-13.7c5.2-3.4,10.2-7.2,16-9.5c0.8-0.3,1.6-0.6,2.3-0.9
		c0.1,0.1,0.1,0.3,0.2,0.4c-0.7,0.6-1.4,1.3-2.1,1.8c-3,1.9-6,3.8-8.9,5.8c-1.3,0.8-2.4,1.9-3.6,2.8c-2.7,2-5.5,3.7-8,5.8
		c-5.5,4.7-11.1,9.4-16.3,14.5c-5.5,5.4-10.7,11-15.5,16.9c-4.4,5.5-8.4,11.3-12.6,16.9C184.9,196.7,183.8,197.7,182.7,199z"/>
	<path class="st0" d="M121.6,52.9c-1,2.5-3.1,4.1-5.4,5.1c-1.9,0.8-4,1.4-6,1.8c-5.1,0.8-9.7,2.9-14.3,5.1c-5.8,2.7-11.7,5.2-17.4,8
		c-5.4,2.6-10.7,5.3-16,8.1c-1.2,0.6-2.1,1.7-3.1,2.6c-2,1.8-3.9,3.6-5.9,5.3c-0.9,0.8-2,1.4-3.5,1.2c-0.1-1.1,0.6-1.8,1.3-2.4
		c2.4-2,4.8-4.1,7.3-6c10.4-7.8,22-13.5,34.1-18.3c5.6-2.2,11.2-4.7,16.8-7c3.3-1.3,6.7-2.5,10-3.7c0.6-0.2,1.4-0.3,2-0.4
		C121.4,52.5,121.5,52.7,121.6,52.9z"/>
	<path class="st0" d="M190.6,131.1c-0.5-1-0.9-1.6-1.2-2.2c-0.6-1.3-0.3-2.1,1.2-2.5c3.6-0.9,7.3-1.6,10.9-2.4
		c3.8-0.9,7.6-1.7,11.3-2.8c7.4-2.2,15-3.4,22.5-4.4c1.1-0.2,2.4-0.5,3.5,0.6c-0.7,1.3-2.1,1.3-3.2,1.5c-5.2,1.2-10.4,2.2-15.6,3.5
		c-7.5,1.8-15.2,3.4-22.4,6.3c-1.3,0.5-2.5,1.1-3.8,1.6C192.8,130.5,191.8,130.7,190.6,131.1z"/>
	<path class="st0" d="M173.5,131.1c-3.7,4.7-15.7,14.1-19.4,15.3c-1-0.8-0.7-1.6,0.1-2.4c1.4-1.3,2.7-2.6,4.2-3.7
		c4.5-3,9.1-5.9,13.7-8.8C172.3,131.4,172.6,131.4,173.5,131.1z"/>
	<path class="st0" d="M328.9,139.3c-0.9-0.8-2-1.6-2.8-2.5c-2.2-2.5-4.4-5-6.3-7.7c-1-1.5-1.5-3.5-2-5.4c-0.2-0.7,0.3-1.6,0.6-2.8
		c3.3,2.5,4.2,6.1,5.9,9.1c1.7,2.9,3.7,5.8,5,8.9C329.2,139.1,329,139.2,328.9,139.3z"/>
	<path class="st0" d="M273.5,357.9c0.2-0.3,0.4-0.7,0.7-0.9c5.2-3.1,10.5-6.2,16.1-9.5c-0.5,2.2-2.1,2.9-3.3,3.9
		C282.9,354.4,278.6,356.9,273.5,357.9z"/>
	<path class="st0" d="M62.3,223.3c0.5-1.7,1-3.3,1.5-5c0.4-1.4,0.6-2.9,1-4.2c0.6-1.8,1.3-3.6,2.1-5.4c0.8-1.9,1.7-3.8,2.6-5.7
		c0.2-0.3,0.4-0.6,1.1-0.7c-2.5,7.1-5.1,14.1-7.6,21.2C62.8,223.4,62.6,223.3,62.3,223.3z"/>
	<path class="st0" d="M76.7,195.1c-1.5-1.4-1.6-3.1-1.7-4.7c0-1,0.7-1.4,1.7-1.1c1.1,0.3,1.5,1.1,1.6,2.1
		C78.4,192.9,77.8,193.9,76.7,195.1z"/>
	<path class="st0" d="M39.7,342.3c2.5-0.4,4.2,0.9,6.1,2.3C43.8,345.8,41.5,344.8,39.7,342.3C39.8,342.3,39.7,342.3,39.7,342.3z"/>
	<path class="st0" d="M147.7,131c-0.9,0.5-1.8,1-2.7,1.4c-1.8,0.8-3.5,1.6-5.3,2.3c-0.9,0.4-2,0.5-3,0.5
		C140.3,133.6,143.8,131.6,147.7,131C147.8,131,147.7,131,147.7,131z"/>
	<path class="st0" d="M142.6,125.5c1.3-1.2,2.4-1.4,3.6-0.6C145.3,126.5,145.1,126.5,142.6,125.5z"/>
	<path class="st0" d="M245.6,575c0.6-0.4,1.3-0.7,2-1.1C247.6,574.9,247.6,574.9,245.6,575z"/>
	<path class="st0" d="M147.8,131c0.8-0.4,1.6-0.7,2.4-1.1c0.1,0.2,0.1,0.4,0.2,0.6C149.5,130.7,148.6,130.8,147.8,131
		C147.7,131,147.8,131,147.8,131z"/>
	<path class="st0" d="M467.6,599.8c-0.4,0-0.9,0-1.3,0c0-0.1,0-0.3,0-0.4c0.5,0,0.9-0.1,1.4-0.1
		C467.6,599.5,467.6,599.6,467.6,599.8z"/>
	<path class="st0" d="M36.8,599.8c-0.3,0.3-0.6,0.6-0.8,0.9c-0.1-0.1-0.3-0.3-0.4-0.4c0.3-0.3,0.5-0.6,0.8-0.9
		C36.5,599.5,36.6,599.7,36.8,599.8z"/>
	<path class="st0" d="M327.2,604.8c-0.3,0.7-0.5,1.1-0.6,1.5C326,605.5,326,605.5,327.2,604.8z"/>
	<path class="st0" d="M324.4,610.9c-0.1,0.3-0.2,0.6-0.3,0.9c-0.2-0.1-0.4-0.2-0.6-0.3c0.2-0.3,0.4-0.5,0.5-0.8
		C324.1,610.8,324.2,610.8,324.4,610.9z"/>
	<path class="st0" d="M307.1,624.4c0.3,0.3,0.6,0.6,1,0.8c-0.1,0.1-0.2,0.2-0.3,0.4c-0.4-0.2-0.7-0.5-1.1-0.7
		C306.9,624.7,307,624.6,307.1,624.4z"/>
	<path class="st0" d="M92.7,563.7c-0.1-0.1-0.2-0.1-0.2-0.2c0.1,0,0.2,0,0.2,0c0.2,0,0.3,0.1,0.5,0.1
		C92.9,563.7,92.8,563.7,92.7,563.7z"/>
	<path class="st0" d="M-92.9,326.4c1.9-0.8,4-0.2,5.4-1.9c-0.5-1.2-1.5-1.3-2.6-1.5c-4.6-0.7-9.3-1.4-13.9-2.1
		c-2.2-0.3-2.8-1.3-1.6-3.3c1.5-2.3,3.1-4.6,5.1-6.4c3-2.7,5.9-5.4,8.2-8.8c3-4.4,6.9-8.1,11.1-11.3c6.8-5.2,13.4-10.7,20.2-15.9
		c7.4-5.7,15.1-11.2,22.5-16.9c5.9-4.6,12.5-8.1,18.8-12c0.8-0.5,1.7-1,2.5-1.5c0.5-0.3,1.1-0.6,1.6-0.5c1.9,0.5,3.5-0.5,5.1-1.2
		c2.4-1,4.8-2.4,7.1-3.7c5.3-3.1,10.5-6.3,15.8-9.5c2.8-1.7,6-2.7,9.3-2.4c4.6,0.4,9.2,1,13.7,1.8c1.4,0.2,2.7,0.8,3.9,1.9
		c0.8,0.8,2,1.3,3,2.1c-1.2-0.1-2.4-0.2-3.5-0.6c-4.1-1.6-8.4-2.3-12.8-2.2c-2.2,0-4.4,0.1-6.5,0.5c-3,0.5-3.9,1.7-3.7,4.8
		c0.1,1.5,0.1,3,0.2,4.6c0.1,1.6,1.5,3.2,3.1,3.6c1.1,0.3,2.2,0.4,3.3,0.6c0.7-1.2,0.1-1.8-0.7-2.3c-1.1-0.7-2.3-1.2-3-2.6
		c0.9,0,1.5,0,2.1,0c2,0.1,3.4-0.5,4-2.4c0.5-1.5,1.4-1.9,2.7-1.9c3.3,0.2,6.6,0.3,9.9,0.7c2.7,0.3,5.4,0.9,8.2,0.2
		c0.4-0.1,0.8,0,1.2,0.1c2.3,0.5,2.7,0.3,3-2c0.1-1,0.6-1.6,1.5-2.1c1.1,3.1,3.5,5,5.8,6.9c3.5,2.9,6.3,6.3,9,9.8
		c4.2,5.6,9.2,10.5,14.4,15c1.3,1.1,2.3,2.3,3.2,3.7c1.3,2,2.8,3.8,4.3,5.5c1,1.2,1.8,2.4,2,4c0.2,1.5,0.5,2.8,1.7,3.9
		c0.4,0.3,0.5,1.2,0.3,1.7c-0.4,1.2-0.9,2.5-1.7,3.5c-2.6,3.5-5.3,6.9-8,10.3c-2.3,2.8-4.6,5.6-6.9,8.4c-0.2,0.2-0.4,0.5-0.7,0.6
		c-4.3,1.7-6.8,5.3-9.8,8.5c-0.8,0.9-1.6,1.8-2.8,3c0.1-1.5,0.2-2.4,0.4-3.9c-1.2,0.7-1.9,1.1-2.5,1.5c-2.4,1.7-4.7,3.4-7,5.2
		c-1,0.8-1.6,1.9-2.4,2.9c-0.5,0.6-0.9,1.4-1.5,1.8c-3,2-6.1,4-9.2,5.8c-2.6,1.5-5.3,2.8-7.8,4.4c-4.5,2.8-9.6,4.3-14.5,6.1
		c-1.1,0.4-2.4,0.5-2.7,2.1c-0.1,0.3-0.9,0.7-1.4,0.7c-4.7,0.4-9.4,0.7-14,1c-0.2,0-0.5,0-0.7-0.1c-3.8-2-8-1.5-12.1-1.7
		c-9.1-0.4-18.3-0.4-27.4-0.9c-5.8-0.3-11.6-1.2-17.4-2c-6-0.9-11.9-2.1-17.8-3.9c-6.3-1.9-11.6-5.2-16.5-9.4
		C-92.7,327-92.7,326.7-92.9,326.4z M51.3,292.5c-1.3,0.2-2.5,0.2-3.5,0.5c-8.9,2.8-17.7,5.7-26.6,8.4c-5.9,1.8-11.7,3.7-17.7,5.2
		c-8.8,2.1-17.7,3.9-26.5,5.9c-10.5,2.4-20.9,4.8-31.4,7.2c-5.5,1.3-11,2.7-16.5,3.9c-5,1-10,1.7-15,2.6c-0.9,0.2-1.7,0.6-2.6,0.9
		c0,0.2,0,0.4,0,0.6c0.8,0.3,1.5,0.7,2.3,0.8c0.9,0.1,1.8,0,2.7-0.1c5.2-0.8,10.4-1.4,15.6-2.4c8.6-1.8,17.2-3.8,25.8-5.8
		c6.5-1.5,12.9-3,19.4-4.4c7.8-1.7,15.7-3.2,23.5-5c5.3-1.3,10.5-2.9,15.6-4.5c4.1-1.3,8.1-2.8,12-4.4c3.6-1.4,7.1-3,10.7-4.4
		c3.3-1.3,6.7-2.3,10.1-3.4C50,293.9,50.8,293.8,51.3,292.5z M68.3,308.7c-2.9-0.2-5.6,1.4-6.4,3.6
		C64.2,313.5,66.8,312.1,68.3,308.7z"/>
	<path class="st0" d="M95.2,271.6c-1.8-1.9-3.6-3.7-5.4-5.6c0.1-0.1,0.1-0.3,0.2-0.4c0.5,0.1,1,0.2,1.4,0.4c0.9,0.4,1.6,1,2.5,1.4
		C96.1,268.6,96.3,269.1,95.2,271.6z"/>
	<path class="st0" d="M143.8,179.6c-4-2.8-7.4-6.1-9.9-10.2c-0.2-0.3-0.4-0.7-0.5-1.1c-0.4-0.9-0.7-1.7,0.3-2.4
		c0.9-0.6,1.9-1,2.9-0.2c0.6,0.5,1.3,1,1.8,1.6C141.1,171,142.3,175.4,143.8,179.6z"/>
	<path class="st0" d="M105.1,176.4c-2.4,3.4-4.8,6.8-7.3,10.5c-0.5-3.2-0.5-3.2,1.2-5.5c0.9-1.2,1.7-2.4,2.8-3.4
		c0.8-0.8,1.8-1.5,2.8-2.2C104.7,176,104.9,176.2,105.1,176.4z"/>
	<path class="st0" d="M133,172.2c1.7,2.2,3.2,4,4.6,5.8c-1.8,1.7-2.3,1.9-3.3,1c-0.9-0.9-1.7-1.9-2.3-3
		C131.1,174.5,133.1,173.9,133,172.2z"/>
	<path class="st0" d="M136.9,205.8c1.9-3.1,2.3-7.1,5.4-9.7C142.6,199.6,140,204.2,136.9,205.8z"/>
	<path class="st0" d="M100.1,200.2c1.8-3.3,5.5-8.2,7.5-9.5C105.7,194.6,103.3,197.5,100.1,200.2z"/>
	<path class="st0" d="M102.5,203.7c2.7-3.5,5.4-7,8.4-10.9C110.4,195.2,105.8,201.3,102.5,203.7z"/>
	<path class="st0" d="M132.6,209.6c-1.3,0.7-2.4,1.2-3.7,1.9c0.1-1.8,0.2-3.2,0.3-4.8C130.4,207.7,131.3,208.5,132.6,209.6z"/>
	<path class="st0" d="M128.2,200c-0.5,0.7-1,1.4-1.7,2.3C126.8,200.8,126.7,200.8,128.2,200z"/>
	<path class="st0" d="M131,169.2c0.3,0.5,0.6,0.9,1,1.4c-0.4,0.2-0.6,0.4-0.7,0.3C130.4,170.5,130.5,170.4,131,169.2z"/>
	<path class="st0" d="M108.3,171.6c-0.4,0.5-0.7,1-1.2,1.6c-0.6-1.3,0.3-1.5,0.8-1.9C108,171.4,108.2,171.5,108.3,171.6z"/>
	<path class="st0" d="M97.9,191.7c0.4-0.6,0.9-1.2,1.3-1.7c0.1,0.1,0.3,0.2,0.4,0.3c-0.4,0.6-0.8,1.2-1.2,1.8
		C98.3,191.9,98.1,191.8,97.9,191.7z"/>
	<path class="st0" d="M131.3,195.6c-0.4,0.5-0.7,1-1.1,1.5c-0.1-0.2-0.3-0.3-0.3-0.3c0.3-0.5,0.7-1,1-1.5
		C131,195.4,131.1,195.5,131.3,195.6z"/>
	<path class="st0" d="M109.7,187.7c-0.1,0.2-0.2,0.4-0.3,0.6c-0.1,0.1-0.2,0.2-0.7,0.4c0.4-0.6,0.5-0.9,0.7-1.2
		C109.5,187.6,109.6,187.7,109.7,187.7z"/>
	<path class="st0" d="M238.1,48.5c-2.9-1-5.5-2.2-7.9-3.6c-1.5-0.9-2.8-2.2-4.2-3.3c-1.6-1.2-3.4-2.2-5.2-3.4
		c0.5-0.2,0.9-0.5,1.2-0.6c4-0.2,7.9-0.5,11.9-0.5s8.1,0.1,12.1,0.3c1.1,0,2.1,0.5,3.2,0.7c-0.1,1.6-1.2,2.1-2,2.5
		c-2.1,1.1-4.2,2.1-6.3,3.1C238,45,238,45,238.1,48.5z"/>
	<path class="st0" d="M219.5,26.5c-1.1,0.5-2.1,1.1-3.2,1.6c-2.7,1.3-5.5,2.5-8.2,3.8c-1.2,0.6-2.4,1.1-3.3,2s-1.8,1-2.8,0.8
		c-3.6-0.5-7.2-1.1-10.8-1.6c-0.3,0-0.6-0.2-1.3-0.6c1.2-0.6,2.1-1.3,3-1.5c5.3-1.4,10.6-2.9,16-4.1c3-0.7,6.1-0.8,9.1-1.2
		c0.4-0.1,0.9,0.1,1.3,0.2C219.4,26.1,219.4,26.3,219.5,26.5z"/>
	<path class="st0" d="M183.4,33.4c-3.5,0.4-6.9,0.8-10.4,1.3c2.6-2,5.6-2.4,8.6-2.8c0.6-0.1,1.3,0.4,1.9,0.7
		C183.5,32.8,183.4,33.1,183.4,33.4z"/>
	<path class="st0" d="M55.1,368c-1.3-5-0.5-5,1.3-6C57.6,365,57.3,366.6,55.1,368z"/>
	<path class="st0" d="M51.3,292.5c-0.5,1.3-1.3,1.4-2,1.6c-3.4,1.1-6.8,2.2-10.1,3.4c-3.6,1.4-7.1,3-10.7,4.4c-4,1.5-8,3.1-12,4.4
		c-5.2,1.7-10.3,3.3-15.6,4.5c-7.8,1.8-15.7,3.3-23.5,5c-6.5,1.4-12.9,2.9-19.4,4.4c-8.6,1.9-17.2,4-25.8,5.8
		c-5.1,1-10.4,1.7-15.6,2.4c-0.9,0.1-1.8,0.2-2.7,0.1c-0.8-0.1-1.6-0.5-2.3-0.8c0-0.2,0-0.4,0-0.6c0.9-0.3,1.7-0.7,2.6-0.9
		c5-0.9,10.1-1.5,15-2.6c5.5-1.1,11-2.6,16.5-3.9c10.4-2.4,20.9-4.9,31.4-7.2c8.8-2,17.7-3.7,26.5-5.9c6-1.5,11.8-3.4,17.7-5.2
		c8.9-2.8,17.7-5.6,26.6-8.4C48.8,292.8,50,292.7,51.3,292.5z"/>
	<path class="st0" d="M68.3,308.7c-1.5,3.5-4.1,4.9-6.4,3.6C62.7,310,65.4,308.5,68.3,308.7z"/>
</g>
</svg>
