<?xml version="1.0" encoding="utf-8"?>
<!-- Generator: Adobe Illustrator 19.1.0, SVG Export Plug-In . SVG Version: 6.00 Build 0)  -->
<svg version="1.1" id="Layer_1" xmlns="http://www.w3.org/2000/svg" xmlns:xlink="http://www.w3.org/1999/xlink" x="0px" y="0px"
	 viewBox="54 -102.7 950 800" style="enable-background:new 54 -102.7 950 800;" xml:space="preserve">
<style type="text/css">
	.st0{fill:#FFFFFF;}
</style>
<g>
	<path class="st0" d="M344.6,462c-2.8,2.1-3.8,6.9-7.4,7.3c-1.1,0.1-2.2-0.2-3.2-0.5c-12.8-4-25.5-8.1-38.3-12.1
		c-2.5-0.8-5.7-3.4-3.9-5.4c10.2,2.1,20.5,4.3,30.7,6.4c2.5,0.5,5,1,7.5,0.8c5-0.5,9.3-3.9,14-5.7s11.4-1.2,13.1,3.6
		C355.4,460.8,348.4,459.1,344.6,462z"/>
	<path class="st0" d="M317.9,411.4c15.7,5.4,34.1,1.9,46.8-8.7c12.7-10.7,19.3-28.2,16.7-44.6c-3.7-23.8,17.4-43.7,37.7-56.7
		c20.3-13,43.8-26.6,49.4-50c4-16.5,25.4-26,40.3-17.9c6.4-15.5,5.4-33,7.1-49.7c1.6-16.7,7.1-34.9,21.6-43.5
		c28.9,13,55.5,31.2,78.1,53.4c15.4,15,35.6,24.9,56.9,27.8c-12.2,27.3-49.1,31-73.2,48.6c11.1,12.7,12.4,32.9,3,46.9
		c10.1,17.8,23.9,37.9,44.4,37.9c13.4,0,26.7,0.9,40,2.7c3.4,0.5,8,3.7,5.6,6.3c-4.5,4.7-5,12.7-1.1,17.9c7.1-6.8,17.8-7.2,27.6-8.3
		c9.7-1.1,20.8-4.4,24.5-13.5c1.1-2.8,4.9-3.2,7.9-3.1c18.7,0.5,37.4,1,56.1,1.5c2.4,0.1,5,0.2,6.9,1.6c5.4,3.8,1.7,12.1-1.2,18
		c-3.9,8.1-5.4,17.4-4.2,26.3c0.4,3.1,1.1,6.4-0.4,9.1c-1,1.8-2.9,3-4.7,4.1c-15.4,9.5-30.9,19-46.3,28.5c-6.4,4-13.3,8-20.8,8.2
		c-30.8,0.5-61.7-1.6-92.2-6.2c1.2-5.1,2.3-10.2,3.5-15.3c-6.1,0.8-7.5-8.3-6.5-14.4c0.9-6.1-2.3-15.3-7.9-12.8
		c3.5,16.1,6.9,33.5,0.2,48.5c-7.4,16.3-24.8,25.4-41.6,31.6c-66.8,24.8-148.2,21.5-202.4-24.7c-12.9-3.8-28.1,5.9-30.1,19.2
		c-0.9,5.9-9.4,6-15.1,4.3c-18.9-5.3-37.6-11.4-56-18.1c-3.2-1.2-6.6-2.5-8.6-5.3c-2.2-3-2.2-7.1-1.8-10.8
		c1-10.7,4.1-21.6,11.2-29.6C296,412.4,307.7,407.9,317.9,411.4 M628.3,224.6c-8.1-0.9-16.8-1.6-23.8,2.4
		c-10.8,6.2-15.3,22.2-27.6,24.2c-2.4-3.6,1.1-8.2,4.2-11.1c7.9-7.3,15.8-14.6,23.6-21.9c-11.6-0.4-21.5-12-20.1-23.5
		c1.1-9.2-10-14.1-18.2-18.2c-11.1-5.4-20.5-14.4-26.6-25.2c-11.7,12.4-17.9,29.8-16.7,46.8c1,15.2-1.6,30.6-7.6,44.6
		c3.2-1.6,6.6-3.3,10.2-3.1c3.6,0.2,7.3,3,7.2,6.5c-12.3,4.1-22.5,13.9-27,26c-1,2.8-1.8,5.7-3.7,8c-1.9,2.3-5.4,3.5-7.9,1.9
		s-1.8-6.5,1.2-6.5c-8.6-1.8-17.2-3.7-25.8-5.5c-11.7,13.6-25.1,25.6-39.8,35.8c-8.8,6.1-18.2,11.6-26,18.8s-14.3,16.8-15.2,27.5
		c-0.5,5.7,0.6,11.5,0.6,17.2c0.1,15.2-7.1,29.6-7.4,44.8c-0.4,19.1,10.5,37.2,25.4,49.2c14.9,11.9,33.5,18.4,52.2,22.4
		c37.7,8.2,77.4,7.3,114.7-2.6c15.7-4.1,31.6-10.2,43-21.9c11.3-11.7,16.9-30.2,9.5-44.8c-8.5,10.1-20.1,17.7-32.8,21.4
		c3.2-10,14.4-14.5,22.5-21.2c10.2-8.4,16.1-21.8,15.4-35c-0.6-13.2-7.8-25.9-18.7-33.4c-1.3-0.9-3.7-1.2-3.8,0.4
		c-0.4,10.8-6.2,21.2-15.2,27.2c-1.6,1.1-3.5,2-5.4,1.6c-2.2-0.5-3.5-2.7-4.6-4.6c-6.1-11.1-12.3-22.2-18.4-33.3
		c-8.5,9-13.6,21-14.4,33.3c-0.1,2.2-3.5,2.9-5.2,1.5c-1.7-1.5-2-3.9-2-6.2c0-18.8,14-34.4,27.2-47.8c-0.3-4.3-5.3-7-9.6-6.4
		c-4.3,0.7-7.8,3.6-11,6.5c-13.5,11.9-27.2,26.4-28,44.4c2.9-3.8,8.5-5.2,12.9-3.3c1.2,6.9-11.2,11.3-8.8,17.9
		c1.1,2.9,4.8,4,7.7,3.3c3-0.8,5.4-2.9,7.6-4.9c3.9,3.1,2.3,10.1-2.2,12.4s-10,0.9-14.1-1.8c-8.2-5.5-12.3-15.8-12-25.7
		s4.5-19.3,10.2-27.4c6.4-9.1,14.6-16.9,24.1-22.7c2.9-1.8,5.9-3.4,8-6.1c2-2.7,2.7-6.8,0.6-9.3c-1.3-1.5-3.3-2.2-5.2-2.9
		c-8.2-2.7-16.3-5.5-24.5-8.2c-3.2-0.8-2.9,5.5-5.8,7.2c-3.3,2-5.9-3.6-5.5-7.5c1.5-12.7,8.4-24.7,18.6-32.4
		c4.3-3.3,11.7-5.1,14-0.2c7.2,15.1,29.4,20.4,42.6,10.2c19.9-15.3,48.9-17,65.4-35.9C646.9,226.6,637.6,225.6,628.3,224.6
		 M339.7,443.2c-0.9-3.2-4.8-4.5-8.2-4.6s-6.9,0.6-9.9-0.9c-4.5-2.1-5.7-9.1-2.1-12.7c1.5-1.5,3.8-3.5,2.5-5.1
		c-5.9-0.4-11.8-0.8-17.6-1.2c-2-0.1-4-0.3-5.9,0.4c-2.8,1-4.6,3.6-6.1,6.2c-4.5,7.9-7.3,16.9-8.1,26c-0.2,2.2-0.2,4.7,1.3,6.5
		c1.1,1.3,2.9,1.9,4.6,2.4c20.9,6,41.8,12,62.7,18c1.5-5.4,3-10.9,6.1-15.6s8-8.5,13.6-8.7c2.4-0.1,4.8,0.4,7-0.3s4.1-3.6,2.7-5.5
		c-8.3-11.3-12.2-25.9-10.5-39.9c-6.3,3.8-12.7,7.6-19,11.4c4.8,3.3,9.6,6.6,14.5,9.8c1.1,0.8,2.3,1.6,2.8,2.8
		c0.5,1.3,0.1,3-1.2,3.4c-6.5-3.1-13.1-5.9-19.8-8.4c-2.1,5,0.7,11.4,5.7,13.4c-3.6,1.2-7.1,2.3-10.7,3.5
		C342.5,444.7,340.1,444.9,339.7,443.2 M739.6,448.8c1.9-1.1,1.9-3.8,2-6c0.1-5.3,1.8-10.6,4.8-15c-1.7-1.8-4.7-0.3-6.9,0.9
		c-5.9,3.4-13,4.6-19.6,3.4c-1.9-0.3-4.2-2.2-3-3.6c7.5,0.2,15-0.6,22.2-2.5c-2.6-6.2-8.5-10.6-14.9-12.8s-13.2-2.6-19.9-2.7
		c-18.1-0.4-36.5,0.5-54.1-3.9c-1.3-0.3-2.8-0.6-3.7,0.4c-0.2,0.3-0.4,0.6-0.5,0.9c-1.7,4.4,1.3,9.5,5.3,11.9s9,2.7,13.7,3
		c10,0.6,19.9,1.2,29.9,1.8c-8,5.1-17.4,8.1-26.9,8.5c-3.7,0.2-7.6-0.1-11,1.4s-6.1,5.4-4.8,8.9c1.5,3.9,6.6,4.6,10.8,4.6
		c24.5,0.4,48.9,0.9,73.4,1.3C737.6,449.3,738.7,449.3,739.6,448.8 M763.9,397.7c5.4,8.8,8.1,19.4,7.5,29.7c-0.1,1.9,2.8,2,4.6,1.4
		c4.5-1.6,9.8-4.8,8.9-9.4c-2.1-10.6-3.2-21.4-3.3-32.3c0-2.8-3.6-3.9-6.3-4.2c-10.7-1.2-21.5-2.4-32.2-3.6
		c-6.4-0.7-13.1-1.4-18.9,1.5c-1.6,0.8-2.8,3.5-1,3.8c8.8,1.4,17.7,2.9,26.5,4.3c2.9,0.5,5.9,1,8.5,2.5
		C760.6,392.9,762.4,395.3,763.9,397.7 M621.8,212.7c0.4,2.9,3.2,5,6.2,5.5c2.9,0.5,5.9-0.3,8.7-1.1c1.1-1.4-1-3.2-2.6-3.9
		c-8.5-3.7-16.4-9.1-22.8-15.8c-2.7-2.8-5.2-5.9-7.9-8.8c-13.6-15-31.3-26.2-50.7-32c5.1,11.2,18.6,15.1,29.2,21.4
		c5.1,3,10.1,7.6,10.3,13.5c0.1,2.2-0.5,4.3-0.5,6.5c-0.1,7.9,8.1,14.7,15.8,13.1c2.7-0.6,5.2-1.9,7.9-2.2
		C618.2,208.6,621.5,210,621.8,212.7 M666.8,399.3c-1.3,0.6-2.9,2.1-1.9,3.1c0.4,0.4,1.1,0.5,1.7,0.5c13.6,0.6,27.3,1.2,40.9,1.7
		c10.6,0.4,21.9,0.7,30.8-5.1c1.4-0.9,2.9-2.8,1.8-4.1c-0.5-0.6-1.3-0.7-2.1-0.8c-13.4-1.9-26.9-3.2-40.5-3.9
		c-1.8-0.1-3.6,0.2-5.4,0.6C683.3,393.1,674.9,395.8,666.8,399.3 M580.9,322c-3,1.1-4.2,4.6-4.6,7.7c-2,13.4,3.3,27.6,13.6,36.4
		c0.5,0.4,1,0.8,1.6,1c1.4,0.3,2.7-1,3.6-2.1c2.6-3.2,5.2-6.4,6.5-10.3s1.3-8.5-1.2-11.7c-1.6-2-4-3.3-5.7-5.2
		c-2.5-2.9-3.2-6.9-4.8-10.4C588.2,323.9,584.5,320.7,580.9,322 M507.9,242c-3-1.3-6.1-2.6-9.1-3.9c-1.3-0.5-2.6-1.1-4-1.1
		c-1.5,0-3,0.7-4.3,1.5c-4.8,2.8-9,6.9-11.8,11.7c-1.9,3.2-3.3,7.1-2.1,10.6c1.1,3.1,4.2,5.2,7.5,6.1c3.2,0.8,6.6,0.6,10,0.4
		c1.2-0.1,2.6-0.3,3.1-1.4c3.3-6.8,8.2-12.8,14.3-17.3c1.2-0.9,1.1-2.9,0.2-4.1C510.8,243.3,509.3,242.6,507.9,242 M644.6,378.2
		c2.5,1.2,5.4,1.2,8.2,0.9c9.9-1.3,18.2-7.7,26.1-13.8c1.7-1.3,3.3-4.1,1.4-5.1c-10,1.6-20.3,1.7-30.3,0.1c-4.8-0.7-10.4-1.6-14,1.7
		C637,368.2,638.8,375.5,644.6,378.2 M533.2,280.8c6,2,12.1,4.1,18.1,6.1c6.6,2.2,12.8-3.9,17.1-9.4c-9.8-5.1-19.7-10-29.7-14.8
		c-3.9,2.8-7.1,6.5-9.5,10.6c-0.6,1-1.1,2.1-1,3.3C528.5,278.9,531,280.1,533.2,280.8 M801,368.4c-5-1.3-10.1-2.2-15.2-2.7
		c-3.1-0.3-6.3-0.5-9.4-0.8c-6.8-0.4-13.5-0.9-20.3-1.3c-2.6-0.2-5.3-0.3-7.7,0.7s-4.4,3.5-3.9,6.1c7.3,2.4,14.8,4,22.4,4.7
		c6.1,0.5,13,0.9,16.8,5.6C790,377.5,795.9,373.4,801,368.4 M803.1,386.8c1.9-1.5,4-2.9,5.1-5s0.7-5.3-1.4-6.3
		c-1.9-0.8-4,0.2-5.8,1.2c-5.2,3-10.5,5.9-15.7,8.9c1.6,8.5,2.4,17.1,2.4,25.7c0,1.9,1.8,3.5,3.8,3.7c1.9,0.2,3.8-0.5,5.5-1.5
		c2.8-1.6,5.4-4,6.6-7.1c1.2-3.1,0.7-6.9-1.6-9.2c-2.6-0.2-5.1-0.4-7.7-0.7C796.6,392.9,799.6,389.6,803.1,386.8 M583.1,309.7
		c2.2-4.6,4.1-9.6,3.2-14.6c-0.8-5-5.2-9.7-10.2-9.2c-4.5,0.4-7.8,4.6-9.4,8.8c-1.1,2.9-1.7,6.2-0.7,9.2c1.4,4.1,5.5,6.6,9.3,8.7
		c1.2,0.7,2.5,1.4,3.9,1.1C581.1,313.4,582.2,311.5,583.1,309.7 M757.7,416c3-1.3,4.1-5.2,3.3-8.4c-0.8-3.2-3.1-5.8-5.2-8.2
		c-0.8-0.9-2.2-1.9-3.1-1c-5.2,4.9-11.2,9-17.8,11.9c0.5,2.9,1.1,5.9,2.9,8.2s5,3.9,7.7,2.7C749.5,419.5,753.6,417.8,757.7,416
		 M682.2,371.9c-0.6,0.1-1.2,0.4-1.7,0.8c-4.6,2.9-9.1,5.9-13.7,8.8c-1.5,1-3.2,2.1-4,3.7s-0.4,4,1.3,4.8c1.1,0.4,2.3,0.1,3.4-0.2
		c6.9-2.1,13.6-4.4,20.3-7.1c-2-1-2.1-3.8-2.1-6S684.4,371.5,682.2,371.9 M644.2,384.5c-1-0.6-2.3,0.4-2.9,1.5
		c-2.1,3.6-2,8.4,0.2,11.9c3.1-1.9,7.1-1.5,10.7-2.6c3.5-1.1,6.8-5.3,4.5-8.2C654,383.6,647.9,386.9,644.2,384.5 M585.2,279.3
		c-1.1,3.1,2.8,5.5,5.9,6.5c3,1,6.5-1.5,6.8-4.6s-2.3-6.2-5.4-6.6C589.4,274.2,586.3,276.3,585.2,279.3 M600.9,294.3
		c-1.4-1.9-4.7-1.3-6.2,0.5s-1.8,4.4-2,6.7c-0.3,3.1-0.5,6.2-0.8,9.3c4.5-1.4,6.8-6.3,8.6-10.8C601.4,298.2,602.1,295.9,600.9,294.3
		 M764.7,422.7c-0.9-2.6-4.9-1.4-7.1,0.3c-2.8,2.2-5.7,4.3-8.5,6.5c-0.2,2,2.9,2,4.7,1.2c2.4-1.1,4.8-2.2,7.2-3.3
		C763.1,426.5,765.5,424.8,764.7,422.7 M593.8,326.2c2,2.9,4.1,5.8,6.1,8.6c1.1,1.5,3.5,3,4.4,1.4c-1.9-3.7-3.8-7.4-5.7-11.2
		c-0.6-1.1-1.2-2.3-2.3-3s-2.8-0.6-3.4,0.6C592.2,323.7,593,325.1,593.8,326.2 M652.5,429.9c3.1,0.4,6.3,0.3,9.4-0.1
		c0.5-0.7,0.6-1.6,0.4-2.4c-4.8-2.1-10.2-3.1-15.4-2.9C645.7,427.4,649.5,429.6,652.5,429.9 M746.9,444.9c3-0.1,5-3,6.4-5.6
		c-3.5-1.7-8.3,1.9-7.5,5.8 M327,425.8c2.3,1.5,5.9-0.1,6.2-2.9c-1.8-1.3-4.2-1.8-6.3-1.1c-0.9,0.9-0.6,2.7,0.5,3.3L327,425.8z"/>
	<path class="st0" d="M434.1,401.5c-3.4-1.4-7-3-9.2-5.9c-4.2-5.5-2.1-13.4,0.2-19.9c1.7-4.8,3.6-9.7,7.3-13.2
		c3.7-3.5,9.9-4.8,13.9-1.7c5.4,4.3,13-2.6,14.6-9.4c1.6-6.7,1.3-14.7,6.5-19.2c6-5.2,16.3-1.6,19.9,5.4c3.6,7.1,1.6,15.8-2.6,22.6
		c-2.1,3.4,0.9,7.8,4.4,9.9c3.5,2,7.7,3.3,9.9,6.6c3.3,4.9-0.1,12.2-5.5,14.6s-11.8,0.9-17-1.9c-2.2,3.9-4.5,8-4.8,12.4
		c-0.3,4.5,2,9.4,6.2,10.8c9.6,3,16.7,12.7,16.5,22.8c-0.2,10-7.7,19.5-17.4,22.1c-4.6,1.2-9.6,1-14,2.9s-7.9,7.3-5.4,11.4
		c1.1,1.9-0.4,4.5-2.5,5.3s-4.4,0.3-6.6-0.1c-4.5-1-9.2-2.1-12.9-4.9c-3.7-2.8-6.1-7.9-4.3-12.2c1.2-3-0.6-6.6-3.2-8.6
		s-5.9-2.7-9.1-3.7c-8.6-2.7-17.9-10.9-14.5-19.2c2-4.7,7.6-7.2,12.7-6.6c5.1,0.5,9.6,3.5,13.4,7c2.4,2.2,6.5-1.1,6-4.3
		s-3.6-5.3-6.6-6.5s-6.3-2-8.5-4.4s-2.6-6.8,0.2-8.3c14,5.6,28.1,11.1,42.1,16.7c3.3,1.3,7,2.9,8.5,6.2c2.2,4.7-1.6,10.4-6.4,12.2
		s-10.2,0.9-15.3,0c-12.5-2.3-25.1-4.7-37.6-7c0.4,3.2,4.1,4.7,7.2,5.6c8.9,2.5,17.8,5,26.7,7.4c9.6,2.7,20.3,5.2,28.9,0.3
		c4.9-2.8,8.4-7.9,8.7-13.5c0.3-5.6-2.9-11.4-8.1-13.5C462.5,413.6,448.3,407.6,434.1,401.5 M431.7,386.1c0,1.8,0.3,3.7,1.3,5.2
		c1.9,3.3,5.9,4.5,9.6,5.4c1.6,0.4,3.4,0.8,5,0.1c3.5-1.7,2.3-7,4-10.6c-0.9-1.1-2.7-0.9-4-0.1s-2.3,1.9-3.7,2.3
		c-3.2,0.9-6.3-3.1-5.5-6.3c0.8-3.3,4-5.4,7.3-6.3s6.7-0.9,10-1.8c-3.4-5-10.9-6.1-16.1-3.1C434.4,373.9,431.6,380.1,431.7,386.1
		 M474.1,342.3c-1.6,5.9-3.2,11.8-4.8,17.8c-0.4,1.3-0.7,2.8,0,4c1.1,1.9,4,1.6,5.6,0.1c1.5-1.5,1.9-3.8,2.3-5.9
		c0.6-3.6,1.2-7.1,1.8-10.7c0.3-1.8,0.6-3.9-0.5-5.4S474.6,340.5,474.1,342.3 M485.9,377.1c-4-1-8.1-2-12.1-3
		c-2.7-0.7-6.2-1-7.6,1.4c7.2,3.5,15,5.8,22.9,6.8c1.2-0.6,1.2-2.4,0.3-3.5S487.2,377.4,485.9,377.1 M442.6,470
		c1.7,1.1,4.1,0.2,5.4-1.4c1.3-1.6,1.7-3.7,2-5.7c0.2-1.2,0.4-2.5,0-3.6c-1.1-2.8-5.6-2.6-7.5-0.2c-1.9,2.4-1.8,5.7-1.3,8.7
		C441.3,468.7,441.8,469.5,442.6,470 M459.3,399.9c-0.1,0.7-0.2,1.5,0.3,2.1c1.2,1.5,3.4-0.5,4.1-2.3c1.8-4.6,2.7-9.5,2.8-14.5
		c-1-1.3-3.2-0.9-4.3,0.3c-1.1,1.2-1.3,2.9-1.6,4.6C460.2,393.4,459.8,396.6,459.3,399.9 M459.3,428.3c-1.6-2.5-6.1-1.9-7.1,0.9
		c1.7,2.3,5.9,1.7,6.9-1 M460.1,374.2c0-0.7-1.3-0.7-1.3,0C458.7,374.9,460.1,374.9,460.1,374.2z"/>
</g>
</svg>
