<?xml version="1.0" encoding="utf-8"?>
<!-- Generator: Adobe Illustrator 19.1.0, SVG Export Plug-In . SVG Version: 6.00 Build 0)  -->
<svg version="1.1" id="Layer_1" xmlns="http://www.w3.org/2000/svg" xmlns:xlink="http://www.w3.org/1999/xlink" x="0px" y="0px"
	 viewBox="54 -102.7 950 800" style="enable-background:new 54 -102.7 950 800;" xml:space="preserve">
<style type="text/css">
	.st0{fill:#FFFFFF;}
</style>
<g>
	<path class="st0" d="M439.8,535.5c88.4-22.3,185.1-9,264.3,36c8.5,4.9,20.3,2.2,25.9-5.8c4.9-7.1,6.1-16.1,7.1-24.7
		c5.8-52.5,5.9-110-25-152.9c-26.7-37-72.6-57.4-96.4-96.3c33.1,29,66.2,58,99.3,87c11.4-15.7,4.1-37.8-5.2-54.8
		c-20-36.5-51.6-71.5-85-96.3c13.8,7.2,30.6,18.5,43,27.8c3.2,2.4,6.3,7.7,2.8,9.6c14.8,13.4,26,30.3,37,46.9
		c11.7,17.6,16.1,39,12.4,59.9c-1.9,10.8,3.8,22.4,8.5,32.8c19.1,42.8,21.4,91.7,13.1,137.8c-1.7,9.5-4,19.4-10.2,26.8
		c-6.7,8.2-20,10.6-29.3,5.4c-74.5-41.3-163.9-55.1-247.3-38c-9.5,1.9-20.7,6.2-22.1,15.7c-14.9-35-32.4-68.8-52.2-101.2
		c-5-8.1-11.7-17.1-21.2-17.2c-16-37.8-1.9-84.3-21.8-120.3c25.7-18.3,53.9-33.2,83.5-44.1c-24.7-2.9-50.2,2-72,14
		c-10.7-33.1-28.4-64-51.4-90c-15.3-17.3-34.1-33.1-56.8-37.9c23.1-36.8,26.1-85.5,7.6-124.9c51.2-0.9,102.5,5.7,151.8,19.7
		c-0.7-4.3-2.7-8.4-5.7-11.6c12.2,4.3,24.4,8.6,36.6,12.8C444.7,56.5,459,61.8,468,73c27.9,35.2,56.5,69.7,86,103.6
		c18.1-16.4,33.6-35.7,45.7-56.9c4,20.5,4.5,41.6,1.5,62.3c18.1,3,37.2-0.3,53.3-9.1c-6.3,18.1-14.9,35.4-25.5,51.3
		c-7.5,11.3-19.1,23.2-32.4,20.5c25-10.7,43.6-35.2,47-62.2c-11.6,7.8-26.9,4.8-40.9,5.4s-30.8,9.6-28.7,23.4
		c-2.8-9-9.6-16.6-18.2-20.4c-5.7,4.5-11.5,9-17.2,13.5c-3,2.4-6.3,4.9-10.1,5.3c-3.8,0.4-8.3-2.2-8.3-6.1
		c-3.7,2.1-8.8,7.6-10.6,10.2c-2.7-3.8,7.6-14.8,12.4-11.3c6.8,5.1,15.9-1.9,21.4-8.4c1-1.2,2.2-2.7,2-4.3c-0.1-1.1-0.8-1.9-1.5-2.8
		c-28-34.3-57.1-67.6-87.1-100.1c-5.4-5.8-11.2-11.8-18.9-13.7s-17.4,2.4-18.2,10.2c-3.4-5.9,2.4-13.8,9.2-14.8
		c6.8-1,13.3,2.7,18.9,6.6c41.2,28.7,64.4,77.2,103,109.4c-27.7-34.8-55.4-69.6-83.1-104.5c-14-17.6-37.2-24.4-58.9-30.2
		c-1.1,1.7-2.3,3.4-3.4,5.1c-23.3-6.2-47-10.5-71-12.9c24.1,7.6,48.1,15.3,72.2,22.9c-37.2,12.5-75.1,25.4-106.6,48.7
		c35.7-16.5,72.8-29.9,110.7-40.2c-4,21.1-8.1,42.2-12.1,63.3c7.2-14.5,15.4-39.9,21.2-55c-16.3,62.4-39.7,133.9-66.2,192.6
		c43.5-10.7,89.4-11.8,133.3-3.1c-7.6-10.6-17.2-19.9-28.1-27.1c19.4,4.2,37.4,14.5,50.7,29.1c3.6-19.1,4.6-42.7-0.6-61.5
		c6.3,10.2,13.7,22.1,24.7,26.9c-3.6,0.6-7.4-0.2-10.4-2.3c-0.2,1.8,0.1,3.6,0.9,5.2c0.5,1-0.8,2.8-1.5,1.9
		c-7.7-11.8-8.8-8.4-9.4-2.4c0.6,8.7,1.3,17.4,1.9,26.1c0.2,2.6,0.4,5.4,2.1,7.5c1.3,1.7,3.4,2.7,5.4,3.6
		c22.2,10.2,45,19.1,68.3,26.6c-0.8-3.8-1.5-7.6-2.3-11.4c27,35.4,75.5,50.1,100,87.2c0,4.6-7.1,3.9-11,1.6
		c-51.6-30-103.5-60.3-155.3-90.6c46.1,17.7,87.8,45.1,128.2,73.5c10,7,21.1,14.5,33.3,13.4c-50.4-53.1-121.2-80.8-189.6-106.8
		c0.1,3.5-4.6,6-7.5,4c-16.6,22.3-51.1,27.1-64.5,51.4c21.7-18.7,46.7-33.6,73.6-43.7c-1.1,16.9-3.6,33.8-7.4,50.3
		c7-14.2,14.1-28.4,21.1-42.6C481.7,371.2,458.5,452.9,439.8,535.5 M368.4,433.9c31.9,22.4,39.2,66.1,61.5,98.1
		c18.8-79.3,40.4-157.9,64.7-235.6c0.7-2.2-1.4-4.5-3.7-4.8s-4.6,0.6-6.6,1.6c-51.6,24.5-93.9,68-116.9,120.3
		C364.4,420.3,362.4,429.6,368.4,433.9 M249.3,154c24.6,10.2,46,27.4,62.3,48.4c11.8,15.2,21,32.2,30.1,49.2
		c3.2,5.9,6.3,11.8,9.5,17.7c23.7-62.4,42.6-126.6,56.6-191.8c-52.3,18-105.3,36.4-150.7,67.9C253.8,147.6,250.4,150.2,249.3,154
		 M476.3,280.3c-22.2-7.1-46.6-5.5-68.9,1.4s-42.7,18.9-61.6,32.4c8.4,33,12.4,67.1,12,101.2c3.3,1.8,6.4-2.7,7.6-6.3
		C383.4,353.7,424.3,306.3,476.3,280.3 M260.1,132.1c23.2-17.6,48.4-32.5,75-44.4c19.4-8.7,39.5-15.7,59.5-22.8
		c-6.8-2.5-13.8-4.5-20.7-6.4c-10.8-3-21.7-5.9-32.5-8.9c-28-7.6-56.6-15.3-85.5-13C270.4,65.7,265.4,100.2,260.1,132.1
		 M572.9,189.1c-1.2,2.3-3.1,4.5-2.9,7s4.6,4,5.2,1.5c1.7-7.5,8.5-13.5,16.2-14.3c3.6-0.4,6.2-3.9,7-7.5c0.7-3.6,0.1-7.3-0.2-10.9
		c-0.5-5.4-0.1-10.8,1.1-16.1c1.4-6.3,3.7-13.8-0.7-18.6c-4.9,10.9-11.9,20.8-20.5,29.1c-6.4,6.2-14.1,12.1-16.3,20.8
		c-0.5,2.1-0.7,4.5,0.2,6.5s3,3.6,5.2,3.2c3.9-0.6,4.8-5.9,4.6-9.8c-0.1-3.7-0.3-7.3-0.4-11c2.3-0.2,3.3,2.8,3.4,5.2
		C575,179.3,575.2,184.6,572.9,189.1 M467.9,411c1.2-2,2-5.1,0-6c-3.1,3.2-4.5,7.9-3.7,12.3C465.4,415.1,466.7,413.1,467.9,411
		 M311.9,38.7c2.7,2.1,6.3,2.9,9.7,2.3c0.7-0.1,1.5-0.4,2-1C320,38.1,315.8,37.7,311.9,38.7z"/>
	<path class="st0" d="M565.5,258.3c-2,1.7-5.6,1.1-6.9-1.3c1.2-2.5,5.8-1.9,6.2,0.9L565.5,258.3z"/>
	<path class="st0" d="M524.6,216.5c-1.9,2.6-6.3,2.8-8.5,0.5c2.6-1.8,5.6-3.1,8.7-3.7c1.2,0.7,1.2,2.8-0.1,3.4L524.6,216.5z"/>
	<path class="st0" d="M584.2,249.4c1.1,0.1,2.3,0.5,2.9,1.4c0.6,0.9,0.2,2.5-0.9,2.7c-1.5,0.2-3,0.4-4.6,0.6
		c-5.5,0.7-11.2,1.4-16.3-0.8c0.4-1.9,3.1-2.2,4.9-1.6s4.1,1.3,5.6,0.1C578.2,250,581.2,249.1,584.2,249.4z"/>
	<path class="st0" d="M588.9,233c1.7-1.9,3.4-3.9,4-6.3s-0.2-5.4-2.4-6.6c-3.6-1.9-5.9-6-5.7-10.1s2.9-7.9,6.7-9.5
		c2-0.8,5.3,0.2,4.6,2.2c-2.6,1.3-5.4,2.7-6.9,5.2s-0.9,6.4,1.8,7.5c3.6,1.4,5.7,5.6,5.4,9.4c-0.3,3.9-2.5,7.4-5.1,10.2
		C590.4,234.3,589.7,233.7,588.9,233z"/>
	<path class="st0" d="M557.5,232.2c-4.6,0.5-8.9-4.7-7.4-9.1s8-6,11.4-2.8c1.1,1,1.8,2.7,1.1,4c-0.7,1.2-2.5,2.2-1.7,3.4
		C562.1,229.5,559.7,231.9,557.5,232.2z"/>
</g>
</svg>
