<?xml version="1.0" encoding="utf-8"?>
<!-- Generator: Adobe Illustrator 18.1.1, SVG Export Plug-In . SVG Version: 6.00 Build 0)  -->
<svg version="1.1" id="Layer_1" xmlns="http://www.w3.org/2000/svg" xmlns:xlink="http://www.w3.org/1999/xlink" x="0px" y="0px"
	 viewBox="0 0 595.3 841.9" enable-background="new 0 0 595.3 841.9" xml:space="preserve">
<g>
	<g>
		<path fill="#FFFFFF" d="M394.1-65.1c66.5,0,133.1,0,199.6,0c0,262.5,0,524.9,0,787.4c-196.9,0-393.7,0-590.7,0
			c0-262.5,0-524.9,0-787.4c122.4,0,244.9,0,367.4,0c1.4,1.2,2.9,0.9,4.3,0c0.8,0,1.6,0,2.4,0c0.7,0.3,1.4,0.8,2.2,0.8
			c2,0.1,4.1,0.1,6.1-0.1c1.3-0.1,2.5-0.1,3.7,0.2C390.9-63.8,392.7-63.6,394.1-65.1z M487.3,282c-1.4-0.1-2.7-1.4-4.2-0.6
			c-1.2,0.6-2.4,1.3-3.8,2.1c-0.2,0.9-0.4,2.2-0.6,3.4c0.1,0.1,0.3,0.2,0.4,0.3c1.2-0.8,2.4-1.6,3.6-2.3c0.4,1.7,0.9,3.1,1.1,4.6
			c0.1,0.5-0.3,1.7-0.6,1.7c-1.5,0.1-1.9,1.4-2.8,2.4c-0.5-0.5-0.9-0.8-1.3-1.2c-0.6,1.8-0.5,2.2,0.8,2.4c3.1,0.4,6.2,1.1,9.2,0.9
			c2.2-0.1,3.2,1,4.4,2.2c0.6,0.7,0.5,2.3-0.3,2.8c-1.6,1-3.4,1.8-5.4,1.6c-1.5-0.2-3-0.6-4.5-0.7c-3.5-0.3-7-1-10.4-1.9
			c-0.7-0.2-1.3-0.5-2-0.7c0.1-0.4,0.1-0.7,0.2-0.9c0.9-1.6,2-2.8,3.5-3.9c0.4-0.3,0.9-1.1,0.8-1.6c-0.1-0.4-0.9-0.7-1.4-1
			c-0.8,1-1.4,1.8-1.8,2.3c-5.8-0.6-11.2,0.1-16.6,0c0.6-0.6,1.3-0.9,2-1.1c0.4-0.2,1.1-0.1,1.3-0.4c0.7-1.2,1.9-1,2.9-1.2
			c2.5-0.4,5.1-0.6,7.5-1.4c2.7-0.9,5.3-2.4,7.9-3.6c-0.3-1-0.5-1.8-0.8-2.7c0.7,0.1,1,0.1,1.4,0.2c0.7-2,0.7-2,2.6-2.9
			c0.6-0.3,1.2-0.5,1.7-0.8c2.2-1.2,2.3-1.8,2-4.3c-0.2-1.6-0.2-3.3-0.3-5.3c-0.1-0.2-0.5-0.8-0.9-1.3c-0.5-0.5-1-1-1.5-1.4
			c-1.6-0.9-3.2-1.7-4.9-2.6c-1.3-0.7-2.6-1.3-4.1-0.7c-3.1,1.1-6.2,2.2-9.2,3.4c-2.5,1-5.1,1.8-7.3,3.5c-1.9,1.5-4,2.9-6,4.4
			c-2.3,1.8-4.9,3.2-7.2,5.1c-3,2.5-6.4,4.4-10,6.1c-6.2,2.9-12.7,5.1-18.7,8.5c-1.7,1-3.9,1.2-5.6,2.5c-0.2,0.2-0.6,0.2-0.9,0.2
			c-1.7,0-3.3,0.5-4.7,1.5c-0.6,0.4-1.5,0.7-2.2,1c-2.7,1-5.5,1.7-7.9,3.5c-0.5,0.4-1.2,0.5-1.8,0.5c-1.5-0.1-2.8,0.2-4,1.2
			c-0.3,0.3-0.9,0.5-1.3,0.5c-0.9-0.1-1.5,0.4-2,1.1c-1.3,1.4-2.9,2.2-4.7,2.6c-3.6,0.8-7.2,1.6-10.8,2.4c-0.9,0.2-1.8,0.3-2.6,0.7
			c-3.2,1.6-6.8,0.9-10.2,1.4c-1.7,0.3-2.5-1-2.2-2.6c0.1-0.8,4-5.6,4.8-5.8c2.6-0.7,5.3-1.4,7.9-2.1c1.9-0.5,3.7-1.1,4.7-3
			c0.5-1,1.4-1.7,2.1-2.6c2.1-2.5,4.4-3.1,7.5-2.1c1,0.3,2.2,0.5,3.3,0.4c2.5-0.2,4.9-0.7,7.4-0.8c3.6-0.1,6.8-1.1,9.7-3.2
			c1.9-1.4,4-2.9,3.6-5.8c-0.3-2.2,0.4-3.6,2.2-4.9c1.2-0.8,2.3-2.1,2.8-3.5c0.6-1.5,0.7-3.3,0.6-5c-0.1-1.6-0.1-3.3-1.2-4.8
			c-1.7-2.3-3.3-4.7-5-7c-0.7-1-1.4-2.3-2.3-3c-2.7-2-4.5-5-7.4-6.8c-3.2-2.1-6.4-3.5-10.4-2.5c-1.7,0.4-2.3,0.1-2.9-1.6
			c-0.6-1.8-1-3.7-1.2-5.6c-0.6-4.8-2.1-9.2-4.7-13.3c-0.7-1.2-1.3-2.6-1.8-3.9c-1.1-2.9-2.3-5.7-4.7-7.8c-1.1-1-2.6-2.1-3.9-2.1
			c-3.3,0-6.5,0.8-8.8,3.7c-2.2,2.7-4.7,5.2-7.1,7.8c-0.8,0.9-1.7,1.8-2.2,2.8c-2.1,4.3-4.5,8.3-5.8,12.9c-0.2,0.6-0.6,1.2-1,2.1
			c-1.6-1.9-3.4-1.7-5.2-1.1c-3.9,1.4-7.8,2.9-11.2,5.3c-2.1,1.5-4.6,2.4-6.5,4c-5.9,4.7-11.6,9.6-17.4,14.6c-0.9,0.8-1.6,1.9-2,2.9
			c-0.5,1.3-0.7,2.8,0.7,3.7c1.4,0.9,2,2.2,2.8,3.6c0.6,1,1.1,1.9,1.8,2.8c1.4,1.7,3,3.3,4.4,5.1c1.5,2,2.5,4.5,4.6,6.1
			c0.4,0.3,0.6,0.8,0.8,1.2c0.5,1.1,0.5,2-0.5,3c-0.9,0.8-1.6,1.9-2,2.9c-0.3,0.7-0.3,1.9,0.1,2.5c1.6,2,3.5,3.8,6.4,3.5
			c1.8-0.2,3.7-0.3,5.5-0.2c5.1,0.2,9.9-0.6,14-4.1c0.4-0.4,1.3-0.7,1.7-0.5c1.8,0.7,3.8,0.9,5,2.6c0.4,0.6,1,1.5,0.9,2.1
			c-0.2,1.6-0.4,3.3-1.3,4.5c-1.8,2.6-3.9,4.9-6,7.2c-1.3,1.3-2.5,2.7-3.1,4.5c-0.8,2.6-2.7,4.3-4.6,6c-2.2,2-4.5,3.8-6.7,5.8
			c-1,0.9-2.2,1.7-2.9,2.8c-2.4,3.3-5.6,5.7-8.6,8.4c-2.5,2.3-5.2,4.2-7.8,6.3c-0.2,0.1-0.4,0.3-0.5,0.5c-1.2,2.2-3.5,3.2-5.4,4.5
			c-1,0.7-1.8,1.5-2.8,2.2c-0.7,0.5-1.5,1-2.3,1.1c-1,0.1-1.6,0.3-2.2,1.1c-0.4,0.5-1.2,0.8-1.8,1.1c-0.9,0.5-1.9,0.8-2.8,1.4
			c-3.5,2.3-6.9,4.8-10.5,7.1c-2.3,1.4-4.3,3.3-7.1,3.8c-0.8-1.2-0.3-2.1,0.5-2.9c1.9-1.7,3.2-3.7,3.9-6.2c0.4-1.3,1.4-2.3,2.1-3.5
			c0.5-0.8,1.2-0.9,2.1-0.9c1.4,0.1,3,0.4,4.3,0c2.6-0.8,5.1-1.9,7.5-3.1c1.1-0.5,2-1.3,2.9-2.1c1.8-1.8,1.5-3.7-0.5-5.3
			c-0.8-0.6-1.7-1.2-2.4-1.9c-1.8-1.7-1.9-2.2-0.8-4.4c0.3-0.5,0.7-1,1.2-1.5c1.8-1.7,3.1-3.6,3.6-6c0.9-3.7-0.5-7.6-3.6-9.4
			c-2.5-1.5-4.9-3-6.6-5.5c-0.3-0.4-0.9-0.6-1.4-0.9c-0.7-0.4-1.4-0.7-2.1-1.1c-1.7-0.9-3.4-1.9-5.2-2.6c-0.9-0.4-1.5-0.7-1.9-1.6
			c-0.4-1-1.2-1.2-2.1-1c-1.2,0.2-2.4,0.4-3.5,0.6c-2.5,0.5-3.4,0-4.2-2.3c-0.2-0.7-0.4-1.4-0.6-2.1c-0.7-4-2.8-7.1-6-9.5
			c-2.3-1.7-4.7-3-7-4.7c-2-1.5-4.1-2-6.5-1.7c-3.4,0.5-6.2,2.9-7.1,6.3c-0.2,0.8-0.6,1.5-0.8,2.2c-0.8,2.4-1.9,4.8-2.2,7.3
			c-0.5,4.4-1,8.9-0.3,13.4c0.3,2-0.1,2.3-2,3c-1,0.3-2,0.6-2.8,1.2c-1.5,1-3,2.2-4.4,3.3c-0.6,0.4-1.2,0.9-1.7,1.4
			c-1.9,2.1-3.7,4.2-5.6,6.2c-0.8,0.8-1.6,1.5-2.4,2.3c-0.5,0.5-1.1,1-1.3,1.7c-1.4,3.2-3.3,6.2-4.2,9.7c-0.7,2.5-1.2,5-0.5,7.6
			c0.5,1.8,0.9,3.8,1.6,5.5c0.4,1.2,1.2,2.3,2,3.2c2,2.3,4.7,3.2,7.6,3.8c1.9,0.4,3.7,0.9,5.1,2.6c-0.3,0.4-0.5,0.9-0.9,1.1
			c-1.7,1.2-3.1,2.7-4.2,4.5c-1.3,2-1.3,2.9,0.8,3.9c0.9,0.5,2,0.8,3,0.9c3.7,0.3,7.4,0.6,11-0.2c3.6-0.8,7.1-1.9,10.3-3.5
			c1,0.7,1.4,1.5,1.2,2.6c-0.4,2.7-0.7,5.4-1.4,8.1c-0.9,3.6-2.1,7.1-3.1,10.6c-1.4,4.8-2.7,9.6-4.1,14.3c-0.7,2.5-0.9,2.5-3.5,2.7
			c-1.2,0.1-2.5,0.3-3.4,1c-1.4,1.2-2.7,2.7-3.7,4.4c-0.9,1.5-1.4,3.4-2,5.1c-0.4,1.2-0.8,2.4-0.9,3.7c-0.2,1.6-0.1,3.2,0,4.8
			c0.1,2.2-0.5,4.3-1.5,6.2c-1.6,3.4-4.1,6.1-6.5,8.9c-0.7,0.8-1.5,1.5-2.2,2.2c-1.2,1.2-2.4,2.4-3.5,3.6c-2.4,2.5-4.6,5.2-7,7.6
			c-2.3,2.3-4.9,4.4-7.5,6.4c-3.9,3-6.8,7-11,9.6c-0.5,0.3-0.8,0.8-1.1,1.3c-1.5,2.1-3,4.3-4.5,6.4c-1.5,2-2.7,2.1-4.5,0.3
			c-1.9-1.9-2.7-4.5-4.1-6.8c-0.1-0.2-0.1-0.6-0.1-0.9c0.4-3.7,0.8-7.3,2.5-10.7c0.5-0.9,0.9-1.9,1-3c0.2-1.7,0.9-3,1.9-4.3
			c0.7-0.9,1.4-1.8,1.9-2.7c2.5-5,1.4-4,6.3-4c0.2,0,0.5,0,0.7,0.1c1.7,0.3,3.3-0.2,4.9-0.9c4.7-2.4,8.1-5.9,10.3-10.6
			c0.7-1.5,0.8-2.9-0.1-4.3c-0.9-1.3-1.6-2.6-2.4-3.9c-0.5-0.9-0.8-1.7-0.3-2.7c1.2-2.5,2.2-5.1,2.7-7.9c0.7-4.1,2-8.1,3.2-12.1
			c0.5-1.6,0.5-2.9-0.1-4.4c-0.3-0.8-0.5-1.7-0.8-2.5c-1.2-3-2.4-6-4.9-8.2c-2.1-1.9-4.1-3.8-6.2-5.6c-1.4-1.3-2.9-2.5-4.5-3.6
			c-4-3-8.3-2.2-12.7-1.2c-0.4,0.1-0.7,0.4-1,0.6c-1.5,0.9-2.1,2.4-2.6,4c-2.9-1.8-5.6-3.5-8.4-5.1c-1.6-1-3.3-1.7-4.7-2.9
			c-7.3-6.1-15.8-8.3-25.1-7.3c-1,0.1-1.8,0.4-2.4,1.3c-1.2,1.6-2.5,3.1-3.8,4.6c-1.4,1.7-2.7,3.4-3,5.7c-0.4,3.1-1,6.2-1.5,9.3
			c-0.1,0.7-0.5,1.4-0.8,2.2c-0.8-0.3-1.4-0.4-1.9-0.7c-2.6-1.3-5.1-1.2-7.5,0.5c-0.3,0.2-0.7,0.5-1.1,0.5c-2.4,0.2-4.1,1.8-6,2.9
			c-0.5,0.3-0.9,0.6-1.4,0.9c-2.2,1.2-4.4,2.2-6.5,3.5c-2.1,1.4-4.1,3.1-5.9,4.9c-2.4,2.6-5.5,4.4-7.3,7.8c-1.6,3.1-3.5,5.9-4.6,9.4
			c-1.9,5.9,2,11.5,6.5,14.5c1.5,1,2.9,2,4.4,2.9c1.1,0.7,2.2,1.4,3.4,1.7c1.8,0.5,3.6,0.6,5.4,0.9c2.5,0.4,5,0.8,7.6,1.1
			c1.6,0.2,2.5,1.5,1.7,2.9c-0.7,1.2-1.5,2.2-2.5,3.2c-1.3,1.4-2.9,2.6-4.2,3.9c-1.5,1.5-2,3.6-1.9,5.6c0.1,2.2,1.6,3.6,3.5,4.5
			c2.8,1.3,5.6,1.1,8.2-0.7c0.5-0.4,1.2-0.6,1.8-0.7c2.3-0.1,4.4-1.1,6.3-2.3c2.2-1.4,4.4-2.5,6.9-3.2c1.3-0.3,2.3-0.4,3.4,0.4
			c1.8,1.4,3.7,2.9,5.4,4.4c2.2,1.9,4.6,3.5,7.5,4.2c2.1,0.5,4.3,0.8,6.4,1.2c2.2,0.4,4.4,0.7,6.6,1.2c1.7,0.4,2.3,1,2.4,2.3
			c0.1,3.4,0,6.7-0.7,10c-0.5,2.5-1,5-0.3,7.6c0.8,3.3,1.6,6.7,2.3,10.1c0.2,1.2,0.3,2.6,0,3.8c-0.7,2.9-1.6,5.7-2.4,8.6
			c-0.2,0.8-0.3,1.6-0.4,2.4c-0.1,0.8-0.2,1.6-0.4,2.4c-0.9,3.1-1.2,6.3-2.7,9.2c-0.2,0.4-0.2,0.9-0.3,1.4c-0.5,2.8-0.9,5.5-1.5,8.3
			c-0.2,1.3-0.5,2.7-0.9,4c-1.6,6.2-3.3,12.4-4.9,18.6c-0.3,1.2-0.6,2.5-1.1,3.7c-1.2,3.2-2.6,6.4-3.7,9.6
			c-1.6,5.4-3.1,10.8-5.4,15.9c-0.3,0.7-0.7,1.5-0.8,2.3c-0.5,4.6-2.6,8.8-4,13.1c-2.1,6.4-4.9,12.6-7.3,18.8
			c-1.4,3.6-2.8,7.2-4,10.8c-1,3-1.8,6.2-2.7,9.2c-0.8,2.4-1.7,4.8-2.5,7.3c-0.1,0.3,0,0.6,0,1.2c2.6,0.3,5.1,0.2,7.7,0.1
			c0.9,0,1.2-0.7,1.4-1.4c0.2-1.2,0.3-2.4,0.7-3.5c1.8-4.5,2.6-9.2,3.8-13.9c0.3-1.2,0.9-2.2,1.3-3.4c1-2.8,2-5.6,3-8.4
			c0.6-2,1-4,1.7-6c1.3-3.8,2.8-7.5,4.1-11.2c1-2.7,1.7-5.5,2.6-8.2c1.3-3.7,2.6-7.4,4.1-11.1c0.7-1.8,1.5-3.8,2.7-5.3
			c1.4-1.9,1.4-4.5,3.5-5.9c0.2-0.2,0.1-0.8,0.3-1.1c0.6-2,1.2-4,2-5.9c0.7-1.6,2.1-3,1.2-5.1c-0.1-0.2,0-0.5,0.1-0.7
			c0.5-1.9,1-3.7,1.5-5.6c0.6-2.1,1.2-4.1,1.8-6.2c0.2-0.7,0.3-1.4,0.6-2.1c2-5.1,2.4-10.4,3.4-15.7c0.7-3.9,0.6-7.8,2.3-11.5
			c0.4-0.8,0.1-1.9,0.1-2.8c0-0.4-0.2-0.8-0.1-1.2c0.6-2.5,1.3-4.9,2-7.4c0.9-3.3,1.8-6.6-0.1-10c-1.1-1.9-1.9-4.2-1.9-6.4
			c0-2.6-0.1-5.1-0.6-7.6c-0.2-0.9-0.3-1.9,0.9-2.7c0.3,0.8,0.6,1.4,0.6,2.1c0.2,2.2,0.9,4.3,2.2,6c2.4,3.2,5,6.2,7.8,9.5
			c0.7-0.7,1.3-1.2,1.7-1.8c1-1.5,1.9-3.2,2.8-4.8c2.1-3.7,4.8-7,7.9-9.8c2.9-2.6,5.5-5.4,7.9-8.4c1.4-1.7,3-3.1,5.2-3.7
			c0.9-0.2,1.8-0.8,2.4-1.5c2.3-2.2,4.5-4.6,6.7-6.9c1.1-1.2,2.5-2.1,4.4-2.9c-0.5,1-0.7,1.5-1,1.9c-1.6,2.4-3.3,4.8-4.9,7.1
			c-1.9,2.6-1.9,3.4-0.1,6c0.2,0.3,0.5,0.6,0.7,1c1,1.6,0.8,2.3-1.1,2.6c-1.6,0.3-3,0.9-4.4,1.8c-0.5,0.4-1.4,0.3-2,0.3
			c-0.5,0.5-1,1.1-1.5,1.6c-0.7,0.7-1.5,1.2-2.1,2c-2.3,3.4-4.5,6.8-6.7,10.2c-1.7,2.5-2.8,5.2-4.1,7.8c-2.2,4.7-4.7,9.3-7.1,13.9
			c-2,4-4.1,8-6.1,12c-2.4,4.8-5.2,9.4-5.4,15c0,0.4-0.1,0.9-0.3,1.1c-2.1,2.1-2.5,4.7-3.2,7.4c-0.8,2.8-2.1,5.5-2.9,8.3
			c-1.6,5.7-3,11.5-4.1,17.3c-0.2,0.8-0.2,1.6-0.1,2.4c0.2,1.8,1,2.4,2.8,2.8c0.8,0.2,1.7,0.4,2.4,0.9c1.6,1.2,3,1,4.7,0.3
			c1.6-0.7,3.4-1.1,5.5-1.8c-0.7,2.1-2,2.6-3.3,3.2c-1.1,0.5-2.1,1-3.2,1.6c-1.8,0.9-3.6,1.7-5.7,1.5c-1-0.1-2,0.3-3,0.5
			c-0.8,0.2-1.5,0.6-2.3,0.7c-1.3,0.2-1.9,0.9-2.5,2c-0.7,1.4-1.4,2.7-2.4,3.8c-1.7,1.9-2.5,4.3-3.3,6.6c-1,2.8-1.9,5.6-3,8.3
			c-1.2,3-2.8,5.9-4,9c-1.3,3.4-2.2,6.9-3.5,10.2c-1.1,2.7-2.1,5.4-2.6,8.2c-0.7,3.5-1.4,7.1-2.2,10.6c-0.3,1.4-0.9,2.7-1.4,4
			c4,0.6,11.3,0.4,13-0.2c0.1-0.9,0.1-1.8,0.3-2.6c0.4-1.4,1.1-2.8,1.5-4.3c0.6-2.6,0.9-5.2,1.4-7.8c0.3-2,0.3-4.1,1-5.9
			c1.6-4.3,3.3-8.7,5.5-12.7c0.2-0.3,0.3-0.7,0.4-1.1c1.1-3.6,1.7-7.2,3.2-10.7c1.4-3.2,3.3-6,4.9-9.1c0.8-1.6,2.2-2.4,4.1-2.5
			c0.9-0.1,1.9-0.3,2.8-0.7c1.9-0.8,3.7-1.8,5.6-2.7c2-1,2.3-0.9,3.3,1c1.1,2.1,2.4,4,3.2,6.2c2,4.9,5.2,9,8.8,12.8
			c1.1,1.1,2.2,2.3,3.9,2.5c2.5,0.4,4.6,0.3,6.3-1.8c0.2-0.2,0.5-0.4,0.8-0.6c2.4-1.7,4.7-3.6,7.2-5.2c1.5-1,1.8-2.6,2.4-4
			c0.1-0.2,0-0.8-0.2-0.9c-1.7-0.8-2.5-2.9-4.8-2.9c-2.2,0-3.7-1.4-4.7-3.3c-0.7-1.3-1.3-2.5-2-3.8c-0.3-0.6-0.7-1.3,0-2
			c1.3,0.8,2.5,1.5,3.7,2.3c0.6,0.4,1.1,1,1.6,1.4c1.6,1.3,3.1,2.8,4.9,3.9c4.7,2.8,4.7,2.6,9.9,0.7c3.9-1.4,6.7-4,9-7.2
			c0.9-1.2,2-2,3.6-2.1c4.5-0.4,8.9-1.2,13.2-2.6c3.2-1.1,5.8-3.2,8.1-5.4c1.4-1.4,0.7-3.6-1.1-4.7c-1.6-1-3-2.1-4.6-3
			c-2.5-1.5-3.4-3.9-3.9-6.6c-0.4-2.4-0.7-4.8-1.2-7.1c-0.9-5.2-2.3-10.2-4.8-14.8c-1.5-2.7-3-5.5-5.5-7.5c-2.4-1.9-4.8-3.8-7.2-5.7
			c-0.5-0.4-1.1-0.9-1.2-1.4c-0.1-1.6-0.5-3.3,0.8-4.8c1-1.2,1.1-3.5,0.2-4.7c-1-1.4-2.3-1.2-3.7-0.8c-1.7,0.5-3.5,0.7-5.2,0
			c-1.2-0.5-2.1-0.1-3.1,0.6c-1.3,0.9-2.7,1.8-4.1,2.4c-2.3,0.9-4.7,1.6-6.5,3.4c-0.3,0.3-0.8,0.6-1.2,0.8c-1.3,0.6-2.2,0.2-2.6-1.2
			c-0.7-2.6-1.5-5.3-1.7-8c-0.2-2.5-0.7-4.9-1.3-7.3c-0.5-1.8-1-3.6-0.5-5.7c0.7-2.8,2.9-4.2,4.7-5.9c1.2-1.1,2.9-0.2,3.2,1.5
			c0.1,0.4,0,0.8,0.1,1.2c0.8,2.3,1.8,4.3,4.6,4.5c3.3,0.3,6.2,1.6,8.6,4c0.8,0.9,1.8,1.3,3,1.3c3.7,0,7.5,1.3,11.1-0.8
			c0.1-0.1,0.3,0,0.5-0.1c1.3-0.5,2.7-1,4-1.5c0.6-0.2,1.3-0.5,1.8-0.4c2.5,0.4,5,0.9,7.5,1.5c1.2,0.3,1.5,1,0.9,2.2
			c-0.4,0.8-0.8,1.6-1.2,2.4c-0.8,1.5-1.6,2.9-2.5,4.3c-0.7,1.1-1.6,2-2.4,3c-0.7,0.8-0.9,1.6-0.3,2.6c0.4,0.6,0.5,1.3,0.6,2
			c0.2,1.8,1,3.1,2.8,2.9c3-0.3,5.9-1.1,8.8-2c1.6-0.6,2.7-2.2,3.7-3.7c1.1-1.8,2.3-3.7,3.8-5.3c3-3.1,4.4-7.1,5.6-11
			c0.7-2.4,0.9-4.9,2.4-7c0.3-0.4,0.3-0.9,0.4-1.4c0.5-2.2,1-4.4,1.5-6.6c0.5-2,0.9-4.1,1.8-6c1.9-4.2,3.6-8.4,4.1-13
			c0.3-2.9,1.1-5.8-0.2-8.7c-0.2-0.4-0.2-0.8-0.3-1.2c-0.4-2.3-1.1-4.6-1-6.9c0.1-1.7,0.2-3.6,1.5-5.1c1.3-1.5,2.3-3.3,3.1-5
			c1.3-2.8,2.3-5.8,3.7-8.6c0.6-1.3,0.8-2.2-0.2-3.2c-0.6-0.6-0.7-1.3-0.4-2.2c1.4-5.2,2.8-10.4,4.2-15.6c1-3.7,1-7.4-0.4-11.1
			c-0.4-1.1-0.5-2.4-0.7-3.5c-0.3-1.9-0.4-3.8-0.7-5.7c-0.2-1-0.4-2.1-0.7-3.1c-0.4-1.2,0.1-1.8,1.1-2.3c1.8-0.8,3.5-1.9,5.4-2.7
			c1.5-0.6,3.2-1,4.7-1.6c0.6-0.2,1.1-0.5,1.6-0.9c2-1.4,3.9-2.8,5.9-4.1c1.1-0.7,2.3-1.1,3.7-0.8c2.3,0.5,4.5,1,6.8,1.4
			c2.7,0.5,5.4,0.9,7.9-0.6c1.3-0.8,2.7-1.3,4.1-1.9c4-1.9,8.2-3.4,11.5-6.4c0.2-0.2,0.6-0.3,0.8-0.5c3.4-1.8,6.8-3.6,10.1-5.5
			c1.8-1,3.7-1.9,5.4-3.1c2.3-1.8,5.1-2.4,7.7-2.3c3.3,0.1,6.4-0.3,9.5-0.7c1.3-0.2,2.7-0.6,3.8-1.3c1.9-1.2,3.5-2.7,5.3-4
			c1.6-1.2,2.8-2.8,3.9-4.4c1.2-1.6,2.3-3.3,3.5-4.8c1-1.2,1-2.6,0.4-3.8c-0.7-1.5-1.1-3.6-3.1-4c-2.1-0.5-3.8-1.6-5.7-2.4
			c-1.2-0.5-2.6-0.8-3.9-0.9c-1.5-0.2-3.1,0.1-4.6-0.2c-2.5-0.5-4.8,0-6.9,1.4c-1.7,1.2-3.2,2.7-4.8,3.9c-3.3,2.4-5.4,5.6-6.5,9.5
			c-1.2,4-3.6,6.5-7.9,7.1c-2.5,0.4-4.7,1.2-6.8,2.8c-2.8,2.1-5.8,3.7-9.3,4.3c-2.6,0.4-5.3,0.5-7.9,0.7c-2.3,0.1-3-0.6-2.6-2.9
			c0.5-2.7,1.4-5.3,3.4-7.3c1-0.9,2-1.9,2.7-3.1c2.5-3.8,5.1-7.5,8.7-10.3c0.4-0.3,0.7-0.6,1-1c2-2.4,4.4-4.3,7.4-5.4
			c0.4-0.1,0.6-0.6,0.9-1c0.3-0.4,0.5-0.9,0.8-1.1c1.5-0.8,2.3-2.2,3-3.7c1.5-2.9,3.9-4.7,7.1-5.1c3.4-0.4,6.5-1.6,9.6-3
			c1.2-0.6,2.4-1.4,3.6-1.8c2.9-1.1,5.9-2.1,8.8-3.2c2.6-0.9,3.3-0.5,3.4,2.3c0,0.6,0.1,1.1,0.2,1.7c0.8,3.3,2.8,4.6,6.2,4
			c1.9-0.3,3.8-0.8,5.7-0.9c4.1-0.4,7.9-1.4,11.4-3.6c0.5-0.3,1.4-0.5,2-0.4c2.8,0.4,5.6,0.4,8.4,0c0.9-0.1,1.8-0.1,2.6,0.1
			c3.6,1.1,7.4,1.8,10.6,4.1c2.4,1.7,5.4,2.3,8.3,2c3.1-0.4,6.2-0.5,9.3-1c4.7-0.8,7.5-3.6,9.8-7.4c0.3-0.6,0.3-1.6,0-2.2
			c-0.7-1.9-1.6-3.7-2.5-5.4c-0.3-0.6-1.1-1.1-1.7-1.5c-1-0.5-2.1-0.8-3.1-1.2c-1.1-0.4-2.1-0.9-3.2-1.1c-1.1-0.3-2.2-0.5-3.3-0.4
			c-2.6,0.3-5.2,0.9-7.8,1.1c-1.4,0.1-2.3,0.6-2.7,1.9c-0.1,0.2-0.2,0.4-0.3,0.7c-0.4-0.4-0.7-0.6-1-1c-1.5,1.1-2.9,2.3-4.5,3.3
			c-1,0.7-1.1,1.5-0.8,2.5c0.2,0.6,0.5,1.3,0.8,2.2c-3.5-0.6-6.6-1-9.9-1.6c0-0.7,0.1-1.4,0.1-2.1c1.3,0.2,2.6,0.9,3.3-0.4
			c-1.7-0.6-3.5-1.1-5.2-1.8c-0.5-0.2-1.2-1-1.1-1.3c0.2-0.6,0.8-1.2,1.3-1.5c1.2-0.5,2.5-0.8,3.7-1.2c3.9-1.3,7.7-2.7,11.6-3.8
			c2.7-0.8,5.5-1.1,8.2-1.6c1.5-0.3,3-0.6,4.4-1c1.5-0.4,3.1-0.9,4.6-1.2c2.7-0.6,5.3-1,8-1.6c1.9-0.4,3.7-1.1,5.6-0.5
			c0.5,0.1,1.1-0.1,1.6-0.2c0.5-0.1,1.1-0.4,1.6-0.4c3.6,0.2,7.2-0.1,10.6,1.7c0.5,0.3,1.1,0.3,1.6,0.5c2.5,0.8,5,1.8,7.5,2.5
			c3,0.7,5.9,2.2,9.1,1.8c2.1-0.2,4.3-0.3,6.5-0.2c5.7,0.2,10.2-1.9,13.4-6.6c1-1.4,1.7-3,0.9-4.7c-0.8-1.7-2.1-3-4-3.6
			c-1.5-0.5-2.7-1.3-4.3-2.7c3.8-0.8,7.1-1.6,10.5-2.2c2.4-0.4,4.9-0.4,6.7-2.6c0.6-0.7,1.6-1.3,2.5-1.3c3.6-0.2,5.9-2.8,8.4-4.7
			c1.7-1.3,1.5-3.3,1.4-5.1c-0.2-1.7-1.8-1.6-2.9-2c-0.5-0.2-0.9-0.4-1.3-0.6c-1.8-0.6-3.5-1.6-5.3-1.6c-4.9,0-9.5,1.5-14,3.4
			c-0.4,0.2-0.9,0.3-1.3,0.3c-2.7,0.3-5.3,1.1-7.5,2.8c-0.9,0.7-1.8,1.3-2.7,1.8C487.3,279.8,486.9,280.4,487.3,282L487.3,282z"/>
		<path d="M394.1-65.1c-1.4,1.6-3.2,1.3-4.8,0.9c-1.3-0.3-2.4-0.3-3.7-0.2c-2,0.2-4.1,0.2-6.1,0.1c-0.7,0-1.5-0.5-2.2-0.8
			C382.8-65.1,388.5-65.1,394.1-65.1z"/>
		<path d="M374.8-65.1c-1.4,0.9-2.9,1.2-4.3,0C371.9-65.1,373.4-65.1,374.8-65.1z"/>
		<path d="M487.2,282.1c-0.3-1.7,0-2.3,1.4-3.1c0.9-0.6,1.9-1.2,2.7-1.8c2.2-1.7,4.7-2.5,7.5-2.8c0.4,0,0.9-0.2,1.3-0.3
			c4.5-1.9,9.1-3.4,14-3.4c1.8,0,3.5,1,5.3,1.6c0.5,0.1,0.9,0.4,1.3,0.6c1.2,0.4,2.7,0.3,2.9,2c0.2,1.8,0.4,3.8-1.4,5.1
			c-2.6,1.9-4.8,4.5-8.4,4.7c-0.9,0-2,0.6-2.5,1.3c-1.8,2.2-4.3,2.1-6.7,2.6c-3.3,0.6-6.7,1.4-10.5,2.2c1.6,1.4,2.9,2.2,4.3,2.7
			c1.9,0.6,3.1,1.9,4,3.6c0.9,1.7,0.1,3.3-0.9,4.7c-3.2,4.7-7.7,6.8-13.4,6.6c-2.2-0.1-4.3,0-6.5,0.2c-3.3,0.4-6.1-1.1-9.1-1.8
			c-2.6-0.6-5-1.6-7.5-2.5c-0.5-0.2-1.1-0.2-1.6-0.5c-3.3-1.8-7-1.5-10.6-1.7c-0.5,0-1.1,0.3-1.6,0.4c-0.5,0.1-1.2,0.4-1.6,0.2
			c-2-0.6-3.8,0.1-5.6,0.5c-2.7,0.5-5.4,1-8,1.6c-1.6,0.3-3.1,0.9-4.6,1.2c-1.5,0.4-3,0.7-4.4,1c-2.7,0.5-5.6,0.8-8.2,1.6
			c-3.9,1.1-7.7,2.5-11.6,3.8c-1.2,0.4-2.5,0.6-3.7,1.2c-0.6,0.3-1.2,0.9-1.3,1.5c-0.1,0.3,0.6,1.1,1.1,1.3c1.7,0.7,3.5,1.2,5.2,1.8
			c-0.8,1.3-2,0.5-3.3,0.4c-0.1,0.8-0.1,1.5-0.1,2.1c3.3,0.5,6.4,1,9.9,1.6c-0.4-1-0.6-1.6-0.8-2.2c-0.3-1-0.2-1.8,0.8-2.5
			c1.6-1,3-2.2,4.5-3.3c0.4,0.3,0.6,0.6,1,1c0.1-0.2,0.3-0.4,0.3-0.7c0.4-1.4,1.3-1.8,2.7-1.9c2.6-0.3,5.2-0.9,7.8-1.1
			c1.1-0.1,2.2,0.1,3.3,0.4c1.1,0.3,2.1,0.7,3.2,1.1c1,0.4,2.1,0.7,3.1,1.2c0.7,0.3,1.4,0.9,1.7,1.5c1,1.7,1.8,3.6,2.5,5.4
			c0.3,0.7,0.3,1.7,0,2.2c-2.2,3.7-5.1,6.5-9.8,7.4c-3.1,0.5-6.2,0.6-9.3,1c-2.9,0.4-5.8-0.3-8.3-2c-3.3-2.2-7-3-10.6-4.1
			c-0.8-0.2-1.8-0.2-2.6-0.1c-2.8,0.4-5.6,0.4-8.4,0c-0.7-0.1-1.5,0-2,0.4c-3.5,2.2-7.3,3.3-11.4,3.6c-1.9,0.2-3.8,0.6-5.7,0.9
			c-3.4,0.5-5.4-0.7-6.2-4c-0.1-0.5-0.2-1.1-0.2-1.7c-0.1-2.8-0.8-3.3-3.4-2.3c-2.9,1.1-5.9,2-8.8,3.2c-1.3,0.5-2.4,1.3-3.6,1.8
			c-3.1,1.4-6.2,2.6-9.6,3c-3.3,0.4-5.6,2.2-7.1,5.1c-0.7,1.4-1.5,2.8-3,3.7c-0.4,0.2-0.5,0.8-0.8,1.1c-0.3,0.3-0.5,0.8-0.9,1
			c-3,1.2-5.4,3-7.4,5.4c-0.3,0.4-0.7,0.7-1,1c-3.7,2.8-6.3,6.5-8.7,10.3c-0.7,1.1-1.7,2.1-2.7,3.1c-2.1,2-2.9,4.6-3.4,7.3
			c-0.4,2.2,0.3,3,2.6,2.9c2.6-0.1,5.3-0.2,7.9-0.7c3.5-0.6,6.5-2.2,9.3-4.3c2.1-1.5,4.3-2.4,6.8-2.8c4.2-0.6,6.7-3.1,7.9-7.1
			c1.2-3.8,3.2-7.1,6.5-9.5c1.7-1.2,3.2-2.7,4.8-3.9c2-1.5,4.3-1.9,6.9-1.4c1.5,0.3,3,0,4.6,0.2c1.3,0.2,2.7,0.4,3.9,0.9
			c1.9,0.8,3.6,1.9,5.7,2.4c1.9,0.4,2.3,2.5,3.1,4c0.6,1.3,0.5,2.6-0.4,3.8c-1.2,1.6-2.3,3.2-3.5,4.8c-1.2,1.6-2.3,3.2-3.9,4.4
			c-1.8,1.3-3.4,2.8-5.3,4c-1.1,0.7-2.5,1.1-3.8,1.3c-3.2,0.4-6.3,0.8-9.5,0.7c-2.6-0.1-5.4,0.5-7.7,2.3c-1.6,1.2-3.6,2.1-5.4,3.1
			c-3.4,1.8-6.8,3.6-10.1,5.5c-0.3,0.2-0.6,0.2-0.8,0.5c-3.3,3-7.6,4.5-11.5,6.4c-1.4,0.7-2.8,1.2-4.1,1.9c-2.6,1.5-5.2,1.1-7.9,0.6
			c-2.3-0.4-4.6-0.9-6.8-1.4c-1.4-0.3-2.6,0.1-3.7,0.8c-2,1.3-3.9,2.7-5.9,4.1c-0.5,0.3-1.1,0.7-1.6,0.9c-1.6,0.5-3.2,0.9-4.7,1.6
			c-1.8,0.8-3.6,1.8-5.4,2.7c-1.1,0.5-1.5,1.1-1.1,2.3c0.3,1,0.6,2,0.7,3.1c0.3,1.9,0.4,3.8,0.7,5.7c0.2,1.2,0.2,2.4,0.7,3.5
			c1.5,3.7,1.4,7.4,0.4,11.1c-1.4,5.2-2.8,10.4-4.2,15.6c-0.2,0.9-0.2,1.6,0.4,2.2c1,1,0.8,2,0.2,3.2c-1.4,2.8-2.3,5.8-3.7,8.6
			c-0.8,1.8-1.9,3.6-3.1,5c-1.3,1.6-1.5,3.5-1.5,5.1c-0.1,2.3,0.6,4.6,1,6.9c0.1,0.4,0.1,0.8,0.3,1.2c1.2,2.9,0.5,5.8,0.2,8.7
			c-0.5,4.6-2.2,8.8-4.1,13c-0.8,1.9-1.3,4-1.8,6c-0.6,2.2-1,4.4-1.5,6.6c-0.1,0.5-0.1,1-0.4,1.4c-1.5,2.1-1.7,4.6-2.4,7
			c-1.2,4-2.6,7.9-5.6,11c-1.5,1.5-2.6,3.4-3.8,5.3c-1,1.5-2,3.1-3.7,3.7c-2.8,1-5.8,1.7-8.8,2c-1.8,0.2-2.6-1.1-2.8-2.9
			c-0.1-0.7-0.3-1.4-0.6-2c-0.6-1-0.5-1.8,0.3-2.6c0.8-1,1.7-1.9,2.4-3c0.9-1.4,1.7-2.9,2.5-4.3c0.4-0.8,0.8-1.6,1.2-2.4
			c0.6-1.2,0.3-1.9-0.9-2.2c-2.5-0.6-5-1.1-7.5-1.5c-0.6-0.1-1.2,0.2-1.8,0.4c-1.4,0.5-2.7,1-4,1.5c-0.1,0.1-0.3,0-0.5,0.1
			c-3.5,2.2-7.4,0.8-11.1,0.8c-1.2,0-2.2-0.4-3-1.3c-2.4-2.4-5.3-3.7-8.6-4c-2.8-0.3-3.8-2.3-4.6-4.5c-0.1-0.4,0-0.8-0.1-1.2
			c-0.4-1.7-2-2.6-3.2-1.5c-1.8,1.7-4,3.1-4.7,5.9c-0.5,2,0,3.8,0.5,5.7c0.6,2.4,1.1,4.8,1.3,7.3c0.2,2.7,1.1,5.3,1.7,8
			c0.4,1.4,1.2,1.8,2.6,1.2c0.4-0.2,0.9-0.5,1.2-0.8c1.8-1.8,4.2-2.5,6.5-3.4c1.5-0.6,2.8-1.5,4.1-2.4c1-0.7,1.9-1,3.1-0.6
			c1.7,0.7,3.5,0.5,5.2,0c1.4-0.4,2.7-0.6,3.7,0.8c0.9,1.3,0.9,3.5-0.2,4.7c-1.3,1.5-0.9,3.2-0.8,4.8c0,0.5,0.7,1,1.2,1.4
			c2.4,1.9,4.8,3.8,7.2,5.7c2.5,2,4,4.8,5.5,7.5c2.5,4.6,3.9,9.6,4.8,14.8c0.4,2.4,0.8,4.8,1.2,7.1c0.5,2.7,1.3,5.1,3.9,6.6
			c1.6,1,3.1,2.1,4.6,3c1.8,1.1,2.5,3.4,1.1,4.7c-2.3,2.3-4.9,4.4-8.1,5.4c-4.3,1.4-8.7,2.2-13.2,2.6c-1.6,0.1-2.7,0.9-3.6,2.1
			c-2.4,3.2-5.1,5.8-9,7.2c-5.2,1.9-5.2,2.1-9.9-0.7c-1.8-1-3.3-2.5-4.9-3.9c-0.6-0.5-1-1-1.6-1.4c-1.2-0.8-2.4-1.5-3.7-2.3
			c-0.7,0.8-0.3,1.4,0,2c0.6,1.3,1.3,2.6,2,3.8c1,1.9,2.5,3.3,4.7,3.3c2.2,0,3.1,2.1,4.8,2.9c0.2,0.1,0.3,0.6,0.2,0.9
			c-0.6,1.5-0.9,3-2.4,4c-2.5,1.6-4.8,3.5-7.2,5.2c-0.3,0.2-0.6,0.3-0.8,0.6c-1.7,2.1-3.8,2.2-6.3,1.8c-1.8-0.3-2.9-1.4-3.9-2.5
			c-3.6-3.8-6.8-7.8-8.8-12.8c-0.9-2.1-2.1-4.1-3.2-6.2c-1-1.9-1.4-2-3.3-1c-1.8,0.9-3.7,1.9-5.6,2.7c-0.9,0.4-1.8,0.6-2.8,0.7
			c-1.9,0.1-3.3,1-4.1,2.5c-1.6,3-3.5,5.9-4.9,9.1c-1.6,3.5-2.1,7.2-3.2,10.7c-0.1,0.4-0.2,0.8-0.4,1.1c-2.3,4.1-4,8.4-5.5,12.7
			c-0.7,1.8-0.6,3.9-1,5.9c-0.4,2.6-0.8,5.2-1.4,7.8c-0.3,1.5-1.1,2.8-1.5,4.3c-0.2,0.8-0.2,1.7-0.3,2.6c-1.7,0.7-9,0.8-13,0.2
			c0.5-1.4,1.1-2.6,1.4-4c0.8-3.5,1.5-7,2.2-10.6c0.5-2.9,1.5-5.5,2.6-8.2c1.3-3.3,2.2-6.9,3.5-10.2c1.2-3.1,2.7-6,4-9
			c1.1-2.7,2-5.6,3-8.3c0.8-2.3,1.6-4.7,3.3-6.6c1-1.1,1.8-2.5,2.4-3.8c0.5-1.1,1.2-1.8,2.5-2c0.8-0.1,1.5-0.5,2.3-0.7
			c1-0.2,2-0.6,3-0.5c2.1,0.2,3.9-0.6,5.7-1.5c1.1-0.5,2.1-1.1,3.2-1.6c1.3-0.6,2.6-1.1,3.3-3.2c-2.1,0.7-3.8,1.1-5.5,1.8
			c-1.7,0.7-3.2,0.9-4.7-0.3c-0.6-0.5-1.6-0.8-2.4-0.9c-1.8-0.3-2.6-1-2.8-2.8c-0.1-0.8,0-1.6,0.1-2.4c1.1-5.8,2.4-11.6,4.1-17.3
			c0.8-2.9,2.1-5.5,2.9-8.3c0.7-2.7,1.1-5.4,3.2-7.4c0.2-0.2,0.3-0.7,0.3-1.1c0.2-5.6,3-10.2,5.4-15c2-4,4.1-8,6.1-12
			c2.4-4.6,4.9-9.2,7.1-13.9c1.3-2.7,2.4-5.4,4.1-7.8c2.3-3.4,4.5-6.8,6.7-10.2c0.5-0.8,1.4-1.3,2.1-2c0.5-0.5,1-1,1.5-1.6
			c0.6-0.1,1.5,0,2-0.3c1.4-0.9,2.8-1.5,4.4-1.8c1.9-0.4,2.1-1,1.1-2.6c-0.2-0.3-0.5-0.7-0.7-1c-1.9-2.5-1.8-3.4,0.1-6
			c1.7-2.3,3.3-4.7,4.9-7.1c0.3-0.4,0.5-1,1-1.9c-2,0.9-3.3,1.7-4.4,2.9c-2.2,2.3-4.4,4.7-6.7,6.9c-0.7,0.6-1.5,1.2-2.4,1.5
			c-2.2,0.6-3.8,2-5.2,3.7c-2.4,3-5,5.8-7.9,8.4c-3.1,2.8-5.8,6.1-7.9,9.8c-0.9,1.6-1.8,3.2-2.8,4.8c-0.4,0.6-1,1.1-1.7,1.8
			c-2.7-3.3-5.3-6.4-7.8-9.5c-1.3-1.7-2-3.8-2.2-6c-0.1-0.7-0.4-1.3-0.6-2.1c-1.3,0.8-1.1,1.9-0.9,2.7c0.5,2.5,0.6,5,0.6,7.6
			c0,2.1,0.8,4.5,1.9,6.4c1.9,3.4,1,6.7,0.1,10c-0.7,2.5-1.4,4.9-2,7.4c-0.1,0.4,0.1,0.8,0.1,1.2c0,0.9,0.3,2-0.1,2.8
			c-1.7,3.7-1.6,7.7-2.3,11.5c-0.9,5.3-1.4,10.7-3.4,15.7c-0.3,0.7-0.4,1.4-0.6,2.1c-0.6,2.1-1.2,4.1-1.8,6.2
			c-0.5,1.8-1,3.7-1.5,5.6c-0.1,0.2-0.2,0.5-0.1,0.7c1,2-0.4,3.4-1.2,5.1c-0.8,1.9-1.3,3.9-2,5.9c-0.1,0.4,0,1-0.3,1.1
			c-2,1.5-2.1,4.1-3.5,5.9c-1.2,1.6-1.9,3.5-2.7,5.3c-1.4,3.7-2.8,7.3-4.1,11.1c-0.9,2.7-1.7,5.5-2.6,8.2c-1.3,3.8-2.8,7.5-4.1,11.2
			c-0.7,2-1.1,4-1.7,6c-0.9,2.8-2,5.6-3,8.4c-0.4,1.1-1,2.2-1.3,3.4c-1.1,4.7-1.9,9.4-3.8,13.9c-0.4,1.1-0.5,2.3-0.7,3.5
			c-0.2,0.8-0.5,1.4-1.4,1.4c-2.5,0.1-5.1,0.2-7.7-0.1c0-0.6-0.1-0.9,0-1.2c0.8-2.4,1.7-4.8,2.5-7.3c1-3.1,1.7-6.2,2.7-9.2
			c1.2-3.6,2.6-7.2,4-10.8c2.4-6.3,5.3-12.4,7.3-18.8c1.4-4.3,3.5-8.5,4-13.1c0.1-0.8,0.4-1.5,0.8-2.3c2.3-5.1,3.8-10.5,5.4-15.9
			c1-3.3,2.5-6.4,3.7-9.6c0.4-1.2,0.8-2.4,1.1-3.7c1.7-6.2,3.3-12.4,4.9-18.6c0.3-1.3,0.6-2.7,0.9-4c0.5-2.7,1-5.5,1.5-8.3
			c0.1-0.5,0.1-1,0.3-1.4c1.5-2.9,1.8-6.1,2.7-9.2c0.2-0.8,0.3-1.6,0.4-2.4c0.1-0.8,0.2-1.6,0.4-2.4c0.8-2.9,1.7-5.7,2.4-8.6
			c0.3-1.2,0.2-2.6,0-3.8c-0.7-3.4-1.5-6.7-2.3-10.1c-0.7-2.6-0.2-5.1,0.3-7.6c0.7-3.3,0.9-6.7,0.7-10c-0.1-1.3-0.6-1.9-2.4-2.3
			c-2.2-0.5-4.4-0.8-6.6-1.2c-2.1-0.4-4.3-0.7-6.4-1.2c-2.9-0.7-5.2-2.3-7.5-4.2c-1.8-1.5-3.6-2.9-5.4-4.4c-1-0.8-2.1-0.8-3.4-0.4
			c-2.5,0.7-4.7,1.8-6.9,3.2c-1.9,1.2-3.9,2.2-6.3,2.3c-0.6,0-1.3,0.3-1.8,0.7c-2.6,1.8-5.4,2-8.2,0.7c-1.9-0.9-3.4-2.3-3.5-4.5
			c-0.1-2,0.3-4,1.9-5.6c1.4-1.4,2.9-2.6,4.2-3.9c0.9-1,1.8-2,2.5-3.2c0.8-1.4-0.1-2.7-1.7-2.9c-2.5-0.3-5.1-0.7-7.6-1.1
			c-1.8-0.3-3.7-0.4-5.4-0.9c-1.2-0.3-2.3-1.1-3.4-1.7c-1.5-0.9-2.9-2-4.4-2.9c-4.5-3-8.4-8.5-6.5-14.5c1.1-3.5,2.9-6.3,4.6-9.4
			c1.8-3.4,4.8-5.2,7.3-7.8c1.8-1.8,3.8-3.5,5.9-4.9c2-1.4,4.3-2.4,6.5-3.5c0.5-0.3,1-0.6,1.4-0.9c1.9-1.1,3.6-2.7,6-2.9
			c0.4,0,0.8-0.3,1.1-0.5c2.4-1.7,4.9-1.8,7.5-0.5c0.5,0.2,1,0.4,1.9,0.7c0.3-0.8,0.6-1.5,0.8-2.2c0.5-3.1,1.1-6.2,1.5-9.3
			c0.3-2.3,1.6-4,3-5.7c1.3-1.5,2.6-3,3.8-4.6c0.7-0.9,1.4-1.2,2.4-1.3c9.4-1,17.8,1.1,25.1,7.3c1.4,1.2,3.1,1.9,4.7,2.9
			c2.7,1.7,5.5,3.3,8.4,5.1c0.5-1.6,1.1-3.1,2.6-4c0.3-0.2,0.6-0.5,1-0.6c4.4-1.1,8.7-1.9,12.7,1.2c1.5,1.2,3,2.4,4.5,3.6
			c2.1,1.8,4.2,3.8,6.2,5.6c2.5,2.2,3.7,5.2,4.9,8.2c0.3,0.8,0.5,1.7,0.8,2.5c0.6,1.5,0.6,2.9,0.1,4.4c-1.2,4-2.4,8-3.2,12.1
			c-0.5,2.8-1.5,5.4-2.7,7.9c-0.5,1-0.2,1.9,0.3,2.7c0.8,1.3,1.6,2.6,2.4,3.9c1,1.4,0.8,2.8,0.1,4.3c-2.2,4.8-5.7,8.3-10.3,10.6
			c-1.6,0.8-3.1,1.2-4.9,0.9c-0.2,0-0.5,0-0.7-0.1c-4.9-0.1-3.8-1-6.3,4c-0.5,1-1.2,1.9-1.9,2.7c-1.1,1.3-1.8,2.6-1.9,4.3
			c-0.1,1-0.5,2-1,3c-1.7,3.4-2,7.1-2.5,10.7c0,0.3,0,0.7,0.1,0.9c1.3,2.3,2.2,4.8,4.1,6.8c1.8,1.8,3,1.8,4.5-0.3
			c1.6-2.1,3-4.3,4.5-6.4c0.3-0.5,0.7-1,1.1-1.3c4.2-2.7,7.1-6.7,11-9.6c2.6-2,5.1-4.1,7.5-6.4c2.5-2.4,4.7-5,7-7.6
			c1.1-1.2,2.4-2.4,3.5-3.6c0.7-0.7,1.6-1.4,2.2-2.2c2.3-2.8,4.9-5.6,6.5-8.9c0.9-2,1.6-4,1.5-6.2c-0.1-1.6-0.1-3.2,0-4.8
			c0.1-1.2,0.5-2.5,0.9-3.7c0.6-1.7,1.1-3.5,2-5.1c1-1.6,2.3-3.1,3.7-4.4c0.8-0.7,2.2-0.9,3.4-1c2.6-0.2,2.8-0.2,3.5-2.7
			c1.4-4.8,2.7-9.6,4.1-14.3c1-3.5,2.2-7,3.1-10.6c0.7-2.6,1-5.4,1.4-8.1c0.2-1-0.2-1.9-1.2-2.6c-3.2,1.7-6.7,2.7-10.3,3.5
			c-3.7,0.8-7.3,0.6-11,0.2c-1-0.1-2.1-0.5-3-0.9c-2.1-1-2.1-2-0.8-3.9c1.2-1.8,2.5-3.3,4.2-4.5c0.4-0.3,0.6-0.7,0.9-1.1
			c-1.4-1.6-3.2-2.2-5.1-2.6c-2.9-0.6-5.6-1.5-7.6-3.8c-0.8-1-1.6-2.1-2-3.2c-0.7-1.8-1.1-3.7-1.6-5.5c-0.7-2.6-0.2-5,0.5-7.6
			c0.9-3.5,2.9-6.4,4.2-9.7c0.3-0.6,0.8-1.2,1.3-1.7c0.8-0.8,1.7-1.5,2.4-2.3c1.9-2.1,3.7-4.2,5.6-6.2c0.5-0.5,1.1-0.9,1.7-1.4
			c1.5-1.1,2.9-2.3,4.4-3.3c0.8-0.6,1.9-0.8,2.8-1.2c1.9-0.6,2.2-1,2-3c-0.6-4.5-0.2-9,0.3-13.4c0.3-2.5,1.4-4.9,2.2-7.3
			c0.2-0.8,0.6-1.5,0.8-2.2c0.9-3.4,3.7-5.8,7.1-6.3c2.5-0.3,4.5,0.2,6.5,1.7c2.3,1.7,4.7,3,7,4.7c3.2,2.4,5.3,5.5,6,9.5
			c0.1,0.7,0.3,1.4,0.6,2.1c0.8,2.4,1.7,2.9,4.2,2.3c1.2-0.2,2.4-0.4,3.5-0.6c1-0.2,1.8,0,2.1,1c0.3,0.9,1,1.3,1.9,1.6
			c1.8,0.7,3.4,1.7,5.2,2.6c0.7,0.4,1.4,0.7,2.1,1.1c0.5,0.3,1.1,0.5,1.4,0.9c1.7,2.4,4.1,4,6.6,5.5c3.1,1.9,4.5,5.7,3.6,9.4
			c-0.6,2.5-1.8,4.4-3.6,6c-0.5,0.4-0.9,0.9-1.2,1.5c-1.1,2.2-1,2.7,0.8,4.4c0.7,0.7,1.6,1.3,2.4,1.9c2,1.5,2.3,3.5,0.5,5.3
			c-0.8,0.8-1.8,1.6-2.9,2.1c-2.5,1.1-5,2.3-7.5,3.1c-1.3,0.4-2.9,0.2-4.3,0c-0.9-0.1-1.6,0.1-2.1,0.9c-0.7,1.2-1.7,2.2-2.1,3.5
			c-0.7,2.5-2,4.5-3.9,6.2c-0.8,0.7-1.3,1.6-0.5,2.9c2.8-0.5,4.9-2.4,7.1-3.8c3.6-2.2,7-4.7,10.5-7.1c0.9-0.6,1.9-0.9,2.8-1.4
			c0.6-0.3,1.4-0.6,1.8-1.1c0.6-0.8,1.2-1,2.2-1.1c0.8,0,1.6-0.6,2.3-1.1c1-0.7,1.8-1.5,2.8-2.2c2-1.3,4.2-2.3,5.4-4.5
			c0.1-0.2,0.3-0.4,0.5-0.5c2.6-2.1,5.4-4,7.8-6.3c2.9-2.7,6.2-5,8.6-8.4c0.8-1.1,1.9-1.9,2.9-2.8c2.2-1.9,4.6-3.8,6.7-5.8
			c1.9-1.7,3.8-3.4,4.6-6c0.6-1.8,1.8-3.1,3.1-4.5c2.2-2.2,4.3-4.6,6-7.2c0.9-1.2,1.1-3,1.3-4.5c0.1-0.7-0.5-1.5-0.9-2.1
			c-1.2-1.7-3.3-1.9-5-2.6c-0.4-0.2-1.3,0.2-1.7,0.5c-4,3.5-8.9,4.3-14,4.1c-1.8-0.1-3.7,0-5.5,0.2c-3,0.3-4.8-1.5-6.4-3.5
			c-0.4-0.5-0.4-1.7-0.1-2.5c0.4-1.1,1.2-2.1,2-2.9c1-1,1-1.9,0.5-3c-0.2-0.4-0.4-0.9-0.8-1.2c-2.1-1.7-3.1-4.1-4.6-6.1
			c-1.3-1.8-3-3.4-4.4-5.1c-0.7-0.9-1.3-1.8-1.8-2.8c-0.8-1.3-1.4-2.7-2.8-3.6c-1.4-0.9-1.3-2.4-0.7-3.7c0.5-1.1,1.2-2.2,2-2.9
			c5.7-4.9,11.5-9.8,17.4-14.6c2-1.6,4.5-2.5,6.5-4c3.4-2.5,7.3-4,11.2-5.3c1.8-0.6,3.6-0.9,5.2,1.1c0.4-0.8,0.8-1.4,1-2.1
			c1.3-4.6,3.8-8.7,5.8-12.9c0.5-1.1,1.4-1.9,2.2-2.8c2.4-2.6,4.9-5.1,7.1-7.8c2.3-2.9,5.5-3.7,8.8-3.7c1.3,0,2.8,1.2,3.9,2.1
			c2.4,2.1,3.6,4.9,4.7,7.8c0.5,1.3,1,2.7,1.8,3.9c2.5,4.1,4.1,8.5,4.7,13.3c0.2,1.9,0.7,3.8,1.2,5.6c0.5,1.8,1.2,2.1,2.9,1.6
			c3.9-1,7.1,0.4,10.4,2.5c2.9,1.8,4.6,4.8,7.4,6.8c1,0.7,1.6,2,2.3,3c1.7,2.3,3.3,4.7,5,7c1.1,1.5,1.1,3.2,1.2,4.8
			c0.1,1.7,0,3.5-0.6,5c-0.5,1.3-1.6,2.6-2.8,3.5c-1.8,1.3-2.5,2.7-2.2,4.9c0.4,2.9-1.7,4.4-3.6,5.8c-2.9,2-6.1,3.1-9.7,3.2
			c-2.5,0.1-4.9,0.6-7.4,0.8c-1.1,0.1-2.2-0.1-3.3-0.4c-3.1-1-5.4-0.4-7.5,2.1c-0.7,0.9-1.6,1.6-2.1,2.6c-1.1,1.9-2.8,2.5-4.7,3
			c-2.6,0.7-5.3,1.3-7.9,2.1c-0.8,0.2-4.6,5-4.8,5.8c-0.3,1.6,0.6,2.8,2.2,2.6c3.4-0.6,6.9,0.2,10.2-1.4c0.8-0.4,1.7-0.5,2.6-0.7
			c3.6-0.8,7.2-1.6,10.8-2.4c1.8-0.4,3.5-1.2,4.7-2.6c0.5-0.6,1.1-1.1,2-1.1c0.4,0,1-0.2,1.3-0.5c1.2-1,2.5-1.3,4-1.2
			c0.6,0.1,1.3-0.1,1.8-0.5c2.4-1.8,5.2-2.5,7.9-3.5c0.7-0.3,1.6-0.5,2.2-1c1.4-1,3-1.4,4.7-1.5c0.3,0,0.7,0,0.9-0.2
			c1.7-1.2,3.9-1.5,5.6-2.5c6-3.4,12.5-5.6,18.7-8.5c3.6-1.7,7-3.5,10-6.1c2.3-1.9,4.8-3.3,7.2-5.1c2-1.5,4.1-2.8,6-4.4
			c2.2-1.8,4.8-2.5,7.3-3.5c3-1.2,6.2-2.3,9.2-3.4c1.5-0.5,2.8,0.1,4.1,0.7c1.6,0.9,3.3,1.7,4.9,2.6c0.6,0.3,1.1,0.9,1.5,1.4
			c0.5,0.5,0.8,1.2,0.9,1.3c0.1,2,0.1,3.7,0.3,5.3c0.4,2.5,0.2,3.1-2,4.3c-0.6,0.3-1.2,0.5-1.7,0.8c-1.8,0.9-1.8,0.9-2.6,2.9
			c-0.4,0-0.7-0.1-1.4-0.2c0.3,0.9,0.5,1.7,0.8,2.7c-2.6,1.2-5.2,2.7-7.9,3.6c-2.4,0.8-5,1-7.5,1.4c-1.1,0.2-2.2-0.1-2.9,1.2
			c-0.2,0.3-0.9,0.2-1.3,0.4c-0.7,0.3-1.4,0.6-2,1.1c5.4,0.2,10.8-0.6,16.6,0c0.4-0.5,1-1.3,1.8-2.3c0.5,0.3,1.3,0.6,1.4,1
			c0.1,0.5-0.4,1.2-0.8,1.6c-1.5,1-2.6,2.3-3.5,3.9c-0.1,0.2-0.1,0.4-0.2,0.9c0.7,0.3,1.3,0.6,2,0.7c3.4,1,6.8,1.6,10.4,1.9
			c1.5,0.1,3,0.5,4.5,0.7c2,0.2,3.8-0.6,5.4-1.6c0.8-0.5,0.9-2.1,0.3-2.8c-1.2-1.3-2.2-2.4-4.4-2.2c-3,0.2-6.2-0.5-9.2-0.9
			c-1.3-0.2-1.4-0.6-0.8-2.4c0.4,0.4,0.8,0.8,1.3,1.2c0.8-0.9,1.2-2.3,2.8-2.4c0.2,0,0.7-1.1,0.6-1.7c-0.2-1.4-0.7-2.9-1.1-4.6
			c-1.2,0.8-2.4,1.5-3.6,2.3c-0.1-0.1-0.3-0.2-0.4-0.3c0.2-1.2,0.4-2.4,0.6-3.4c1.4-0.8,2.6-1.5,3.8-2.1
			C484.6,280.7,485.9,282,487.2,282.1c-0.8,0.5-2,0.6-2,2.1c2.1,1.9,4.7,1.3,7.1,1.1c2.7-0.3,5.3-1.2,7.9-1.8
			c1.6-0.4,3.3-0.8,4.9-1.3c1.2-0.3,2.3-0.7,3.5-0.8c2.4-0.2,4.4-1.3,6.3-2.7c0.5-0.3,1.1-1.2,0.9-1.5c-0.3-0.5-1-1.2-1.6-1.2
			c-1.7,0-3.3,0.2-5,0.4c-1.1,0.1-2.4,0.8-3.2,0.5c-1.3-0.5-2.1-0.2-3.1,0.4c-0.7,0.4-1.5,0.6-2.3,0.8c-1.1,0.3-2.2,0.5-3.3,0.8
			c-2.4,0.7-4.7,1.4-7,2.1C489.3,281.4,488.3,281.7,487.2,282.1z M395.4,288.7c-0.6-0.9-1.3-1.2-2.4-0.9c-2.2,0.6-4.4,1.4-6.8,0.5
			c-0.4-0.2-1.1,0.3-1.6,0.5c-0.6,0.2-1.1,0.6-1.5,0.8c-1.9-2-3.7-4-5.6-5.8c-0.3-0.3-1-0.5-1.5-0.5c-0.8,0-1.6,0.1-2.4,0.4
			c-1.8,0.7-3.5,1.6-3.9,3.7c3.3,2.9,7.4,3.1,11.5,3.4c0.4,2.5,2.2,2.6,4.2,2.4c1.8-0.2,3.5-0.2,5.3-0.5c1.7-0.3,3.3-1,5-1.6
			C395.6,290.1,395.5,289.4,395.4,288.7c0.8,0.1,1.6,0.2,2.7,0.4C397,287.7,396.2,288,395.4,288.7z M136.2,438.3
			c1.7,0.4,2.2,0.8,2.9,2.4c0.5,1.2,0.9,2.4,1.5,3.5c1.1,2,4,3,6.1,2.2c1.7-0.6,2-2,0.7-3.2c-0.8-0.7-1.7-1.3-2.3-2.1
			c-1-1.2-0.7-2.4,0.6-3.3c0.4-0.2,0.9-0.4,1.3-0.5c0.9-0.2,1.3-0.6,1.4-1.6c0.1-1.7,0.2-3.3-0.4-5c-0.7-1.8,0.4-3.6,2.3-4
			c1.3-0.3,2.7-0.8,4-0.7c2.7,0.4,4.5-1.2,6.5-2.4c1.3-0.8,2.6-1.6,4-2.2c2.5-1.1,3.7-0.9,5.6,1.1c1.4,1.5,2.7,3.2,4,4.8
			c2.4,2.9,5.2,4.9,9.2,5c0.6,0,1.2,0.3,1.8,0.5c0.7,0.2,1.4,0.5,2,0.8c1.2,0.4,2.1,0.1,2.6-1c0.7-1.4,1.5-2.9,2-4.4
			c1.2-3.6,2.3-7.2,3.3-10.8c0.4-1.5,0.6-3.2,0.3-4.7c-0.7-4.7-2.5-9-6.4-12c-0.4-0.3-0.6-0.7-1-1c-2.6-2.2-5.2-4.5-8-6.6
			c-1.6-1.2-3.4-1.7-5.5-1.3c-2.1,0.4-2.6,1-2.5,3.1c0.2,4.6,0,9.1-1.8,13.4c-0.4,1-0.8,2-2,2.1c-1.4,0.2-2.3,1.1-2.6,2.2
			c-1.1,3.4-4,5.4-6,8c-0.4,0.5-1,0.7-1.6,1c-0.9,0.4-1.8,0.1-2.4-0.7c-0.6-0.7-0.1-1.3,0.4-1.9c2.2-3.1,4.4-6.2,6.7-9.3
			c1.4-1.9,2.5-4,1.1-6.2c-1.3-2.2-3-4.2-4.6-6.1c-1.2-1.4-2.6-2.6-3.9-3.9c-2.2-2-4.2-4.2-6.5-6c-3-2.4-6.4-3.9-10.1-4.8
			c-5.5-1.4-8.8-1.1-11,5.8c-0.4,1.1-0.2,2.4-0.5,3.6c-1.5,5.9-0.6,11.6,0.8,17.3c0.4,1.7,1.1,3.3,1.6,4.9c-0.1,0.1-0.2,0.1-0.3,0.2
			c-0.9-0.6-1.9-1.2-3.2-2.1c0.2,1.1,0.2,1.7,0.4,2.3c0.9,2,1.8,3.9,2.8,5.9c0.3,0.5,0.8,1,1.3,1.4c2.8,2.2,6,3.7,9.5,4.5
			c1.8,0.4,2.6,1.3,2.8,3.3c-1,0.7-2.1,0.6-3.2,0.2c-3.3-1.1-6.7-2.1-10-3.4c-3-1.2-5.8-2.9-6.9-6.3c-0.5-1.4-1.1-2.7-1.6-4
			c-1.6-4.3-4.2-7.9-8.3-10.2c-1.4-0.8-2.8-1-4.3-0.1c-3.3,1.9-6.7,3.7-10,5.7c-3.6,2.2-8.1,3.4-9.9,7.9c-0.1,0.2-0.4,0.3-0.5,0.5
			c-3.2,3-5.5,6.6-7.1,10.7c-1.2,3.1-1.6,6.3,0.5,9.2c2.1,3,5,5.3,8.6,6.2c3.7,0.8,7.2,2,11.1,2.3c4.3,0.3,8.2-1.5,10.3-5.2
			c1-1.7,2-3.5,3.1-5.2c0.8-1.2,2-2.3,2.3-3.6c0.6-2.3,2-3.3,4.1-3.8c0.5-0.1,0.9-0.4,1.3-0.5c1.1-0.2,2.1-0.5,3.2-0.5
			c2.7,0,5,1.6,7.5,2.4c1.3,0.4,2.3,1.3,2.8,3.1c-1,0.4-1.9,0.7-2.7,1c-0.3,1.7-0.6,3.2-0.8,4.8c-0.1,1,0.3,1.7,1.7,1.8
			C134.8,441.1,135.5,439.7,136.2,438.3z M361,278.4c0.4,0.2,0.5,0.2,0.5,0.3c0.1,0.2,0.3,0.4,0.4,0.6c0.9,1.7,1.8,2,3.5,1.3
			c0.5-0.2,1-0.5,1.5-0.8c3.1-2,6.5-2.8,10.1-2.8c2.2,0,4.3,0.7,5.9,2.3c2.4,2.4,5.2,3.4,8.5,2.5c0.4-0.1,0.8-0.2,1.2-0.2
			c3.1-0.1,5.7-1.8,8.2-3.2c1.5-0.9,2.9-2.5,3.6-4.1c1.1-2.3,1-4.5-1-6.4c-0.7-0.7-1.4-1.3-2-2.1c-0.8-0.9-1.3-2.4-2.2-2.8
			c-1.7-0.7-2.6-2-3.9-3c-1.4-1.1-3.1-2-4-3.4c-1.2-1.8-2.9-2.2-4.8-2.9c-1.2-0.4-2.1-0.2-2.9,0.5c-0.8,0.7-1.5,1.6-2,2.6
			c-0.6,1.2-2.3,0.7-2.6,2.2c-0.3,1.4-1.6,1.9-2.8,2.4c-0.5,0.2-1.1,0.3-1.5,0.5c-1.2,0.6-2.3,1.6-3.5,2c-1.5,0.5-3.1,0.6-4.7,0.7
			c-0.5,0-1.3-0.4-1.3-0.7c-0.1-0.5,0.2-1.3,0.6-1.7c0.4-0.4,1.1-0.6,1.7-0.9c1.3-0.8,3-1.6,3.1-3.2c0.1-1.7,1-2.6,1.9-3.7
			c0.5-0.6,1.1-1.5,1.1-2.3c0.1-4.7,0-9.3-1.3-13.8c-1.2-3.7-2.6-7.4-4-11c-0.2-0.4-0.7-0.9-1.2-1c-1.1-0.3-1.5-1.1-1.9-2
			c-0.3-0.6-0.6-1.2-1-1.7c-0.6-0.8-1.3-0.8-2.1-0.2c-1.1,0.8-2.2,1.6-3.2,2.5c-2.5,2.1-4.8,4.6-6,7.6c-1.3,3.3-2.1,6.7-2.7,10.2
			c-0.6,3.2-0.5,6.6-1.3,9.8c-0.8,3.3,0.3,5.8,2.6,8c0.6,0.6,1.3,1.2,1.7,2c0.6,1,0,1.9-1.2,2.1c-0.5,0.1-1,0.1-1.4-0.1
			c-2.2-1.2-4.8-2-6.3-3.8c-1.7-2-3.7-4.2-4.2-7.1c-0.3-1.5-1-2.9-1.8-4.2c-0.7-1.2-1.9-1.6-2.8-1c-1.9,1.3-4,2.3-6.2,3
			c-2.2,0.7-3.8,2.3-5.6,3.6c-3.8,2.9-8,5.3-11.6,8.5c-3,2.6-5.7,5-6.3,9.2c-0.2,1.3-0.1,2.4,0.6,3.4c0.9,1.3,2,2.5,3.1,3.6
			c0.6,0.6,1.5,1,2.3,1.4c0.1,0.6,0,1.4,0.3,1.9c0.9,1.6,2.1,3,3.1,4.5c2.6,3.8,6.5,3.4,10.2,2.8c2.3-0.4,4.7-1.3,5-4.3
			c0-0.2,0.2-0.4,0.4-0.6c1.3-2.2,2.6-4.4,4.1-6.5c0.5-0.8,1.3-1.6,2.1-1.8c2.1-0.6,4.3-0.9,6.5-1.1c1.4-0.1,2.1-0.6,2.6-2
			c0.5-1.5,1.3-2.9,2-4.4c0.7-1.3,1.6-2.4,3.4-2.6c0.7,2.4,1.1,4.6,0.2,7c-1,2.5-0.6,5.5,0.9,7.1c0.1-0.9,0.2-1.7,0.2-2.6
			c0.6,0.2,1,0.3,1.5,0.5c0.5-1.6-1.1-3,0.1-4.5c0.9-1.1,1.1-2.9,2.9-3.3c1.5,1.9,2.5,3.6,1.3,6.1c-0.7,1.5-0.8,3.3-1,4.9
			c-0.1,0.9,0.2,1.8,0.4,3C360.2,283.4,360.1,280.7,361,278.4z M241.3,300.4c-1.9-1.1-2.3-1-2.4,0.9c-0.1,1.4-0.1,2.7-1.2,3.8
			c-0.3,0.3-0.3,0.9-0.3,1.4c-0.2,4.8-0.8,9.5,0.3,14.3c0.5,2.2,1.3,4,2.9,5.4c1.5,1.4,2.4,3,3.1,4.7c0.4,0.9,1,2,1.8,2.4
			c2.2,1,2.5,2.8,2.4,4.8c-0.1,1.7-1.3,2.2-2.7,1.1c-0.8-0.6-1.5-1.5-2.2-2.3c-1.3-1.5-2.5-3.2-3.8-4.6c-0.5-0.5-1.3-1-2-1
			c-3.2-0.2-6.3,0.5-9.1,2c-2.8,1.4-5.3,3.3-7.9,5c-1.9,1.2-3,2.8-3.7,4.9c-0.8,2.1-1.7,4.2-2.5,6.2c-0.3,0.7-0.7,1.5-0.6,2.3
			c0,2.2,0.2,4.3,0.3,6.5c0,0.5,0.4,1.1,0.7,1.5c1.4,1.8,2.9,3.6,4.4,5.4c1,1.2,2.2,1.5,3.7,1.3c1.9-0.3,3.8-0.6,5.7-0.7
			c2.2-0.2,4.5-0.2,6.7-0.2c1.3,0,2.2-0.5,2.8-1.5c2.1-3.5,5.1-6.4,6.6-10.3c0.2-0.4,0.5-0.8,0.9-1c1.9-1.1,2.8-2.8,2.6-5
			c-0.1-0.8-0.1-1.6,0-2.4c0.2-0.8,0.8-1,1.5-0.5c0.3,0.2,0.4,0.5,0.6,0.7c1.8,1.9,4.1,1.7,6.5,1.8c-0.1-0.8,0-1.3-0.1-1.7
			c-0.6-1.6-0.4-2.9,0.6-4.3c0.4-0.5,0.5-1.4,0.4-2c-0.2-1.5,0.5-2.1,1.7-2.3c1.4,1.4,1.6,1.5,1.8,3.3c0.4,2.5,1.7,4.3,3.5,5.9
			c0.4,0.4,0.8,0.7,1.3,1.1c2.1,2,4,2.2,6.1,0.4c3.4-2.9,6.6-5.9,9.8-8.9c0.8-0.8,1.4-1.7,2.1-2.7c0.7-0.9,0.9-2,0.7-3.2
			c-0.4-2.7-1.8-4.9-3.2-7.2c-0.1-0.1-0.3-0.1-0.5-0.2c-0.3,0.4-0.6,0.9-1,1.6c-1.3-1.1-2.6-1.7-3.2-2.7c-1.1-1.8-3.2-2-4.6-3.3
			c-0.1-0.1-0.5-0.1-0.7-0.1c-2.5,0.5-5.2,0.6-7.4,2.4c0,0.7,0,1.4,0,2.4c-1-0.3-1.8-0.5-2.9-0.8c-1.4,2.9-1.5,6.5-4.3,8.6
			c-1.6-1.2-1.7-1.3-1.5-2.9c0.1-0.7,0.3-1.4,0.6-2.1c0.7-2.1,1.3-4.3,2-6.4c1-3.1,0.5-6.2-0.5-9.2c-0.5-1.5-0.9-3.1-1.4-4.6
			c-1-3.6-4-5.8-6.4-8.3c-0.1-0.1-0.3-0.1-0.4-0.2c-1.1-0.6-2.2-1.3-3.3-1.9c-0.5-0.3-0.9-0.5-1.5-0.8
			C243.1,298.3,242.2,299.3,241.3,300.4z M238.9,424.3c0.6-0.8,1.1-1.2,1.3-1.8c1.4-2.8,2.6-5.7,4-8.5c0.6-1.3,1.2-2.8,2.3-3.7
			c2.5-2.2,3.9-5.1,5.8-7.6c3.4-4.5,7.3-8.5,12.3-11.2c1.3-0.7,2.5-0.9,3.9-0.4c1.7,0.7,3.4,0.5,5.1-0.4c2.8-1.5,5.6-3.1,8.4-4.6
			c4.6-2.3,9.2-4.6,13.8-6.8c1.7-0.8,3.7-0.5,4.9,0.8c1.8,2,3.9,2.3,6.1,2.1c4.2-0.4,8.2-1.3,11.9-3.4c1.4-0.8,2.9-1.5,4.4-1.9
			c3.2-0.9,5.9-2.8,8.9-4.1c2.3-1,4.4-2.2,6.6-3.5c2.1-1.2,4.2-2.6,6.3-3.9c1.6-1,3.3-2,4.9-3c0.6-0.4,1.5-0.5,1.9-1.1
			c1.3-1.8,3.1-1.6,4.8-1.2c1.5,0.4,2.8,0,4.2-0.6c0.5-0.2,1-0.6,1.5-0.6c4.1-0.6,7.3-3,10.4-5.6c0.9-0.8,1-1.8,0.7-2.8
			c-0.4-1.2-1-2.3-2.4-2.3c-2,0-4,0-5.9,0.4c-2.2,0.4-2.5,0.4-4-1.5c-0.4-0.6-1.3-1.2-1.9-1.1c-3.4,0.3-6.6,3.8-7,7.3
			c-0.2,1.9-1.1,3.6-2.6,4.7c-3.3,2.5-6.6,5.1-10.1,7.3c-3.1,2-6.3,3.9-9.7,5.3c-3.4,1.5-7.1,2.3-10.6,3.5c-2,0.7-4,1.1-6.1,1
			c-1.3-0.1-2.7-0.5-3.8-0.1c-1.6,0.6-2.4,0.1-3.2-1.1c-0.4-0.6-0.9-1.2-1.4-1.7c-2.8-2.7-3.5-5.8-1.6-9.3c0.4-0.6,0.8-1.5,0-1.9
			c-0.5-0.3-1.3-0.2-2-0.1c-0.3,0-0.6,0.2-0.9,0.4c-3.1,2.4-6.2,4.8-9.4,7.1c-2.3,1.7-4.4,3.6-7.3,4.4c-2,0.5-3.8,1.6-5.7,2.6
			c-2.8,1.5-5.5,3-8.2,4.5c-2.2,1.2-4.4,2.3-6.4,3.8c-1.8,1.4-3.9,2.2-6,2.7c-1.3,0.3-2.5,0.7-3.7,1.5c-1,0.7-2.4,0.9-3.6,1.2
			c-0.3,0.1-0.8-0.2-1-0.4c-1.3-1.3-1.5-3.6-0.5-5.3c1.2-2,1.2-4.2,1.2-6.4c-1.5-0.4-2.4,0-2.5,1.3c-0.3,2.7-0.4,5.4-0.6,8.1
			c0,0.3,0,0.7,0.1,0.9c0.5,1.4,0.1,2.7-0.2,4c-0.4,1.9-0.8,3.9-0.9,5.9c-0.2,2.8-0.5,5.6-1.9,8.1c-0.4,0.7-0.6,1.5-0.9,2.2
			c-0.3,0.7-0.6,1.4-0.9,2.1c-0.8,1.4-1.8,2.7-2.5,4.1c-0.7,1.4-1.2,2.8-1.7,4.2c-0.2,0.8-0.3,1.8-0.1,2.5
			C237.5,421.8,238.2,422.8,238.9,424.3z M252.8,422.5c0.7-0.1,1.2-0.3,1.8-0.4c1.7-0.3,2.7,0.6,2.3,2.3c-0.3,1.5-0.6,3.1-1.5,4.3
			c-2.1,3.1-2.7,6.6-3.1,10.2c-0.4,3.4-1.4,6.3-4.9,7.7c-0.5,0.2-0.9,0.7-1.1,1.2c-0.3,1.1,1.5,3.8,2.7,4.1c2.3,0.6,4.5,1,6.1,3.1
			c0.7,1,1.6,0.7,2.5-0.1c3.2-2.8,4.7-6.8,7-10.3c1.4-2.1,2.1-4.8,2.8-7.4c0.8-2.8,1.2-5.8,2.1-8.6c0.9-2.9,1.2-5.8,1.4-8.8
			c0.1-1.8,0.1-3.7,0.5-5.5c0.7-3.3,0.6-6.6-0.3-9.7c-0.7-2.4-1.8-4.6-2.8-6.9c-0.4-0.8-1.1-1.7-2.1-1c-1.6,1.1-3.4,2.3-4.6,3.8
			c-1.9,2.3-3.3,4.9-4.9,7.4c-1.8,2.8-3.2,5.7-4,9C252.2,418.7,251.9,420.5,252.8,422.5z M207.1,568.2c0.1,0.2,0.1,0.5,0.2,0.7
			c0.7,0.3,1.3,0.5,2,0.8c1,0.3,2,0.6,3,1c1.7,0.7,1.9,2.5,0.4,3.6c-1.1,0.8-2.2,1.1-3.6,0.4c-2.1-1-4.6-1.2-6.7-0.7
			c0.7,0.6,1.2,1.2,1.8,1.7c2.1,2,4.2,3.9,6.4,5.9c1,0.9,1.9,2,3,2.7c3.4,2.3,7.5,3.1,11.4,4.4c0.6,0.2,1.3,0.1,1.9,0.1
			c0.6,0,1.3,0,1.9,0.2c4.3,1.4,8.1-0.3,11.8-1.9c1.9-0.8,2-2,0.4-3.2c-4.4-3.4-8.9-6.8-13.4-10.1c-1.3-0.9-2.6-2-4.1-2.5
			c-3.8-1.3-7.6-2.5-11.5-3.6c-1.1-0.3-2.2-0.3-3.3-0.3C208,567.4,207.6,567.9,207.1,568.2z M136.2,454.4c-2.5,1.6-3.5,4-4.6,6.3
			c-2,4.3-2,3.9,2,6.5c2.8,1.8,5.7,2.2,9,1.8c4.6-0.5,9.1-1.7,13.6-2.8c1.2-0.3,2.1-0.9,2.7-2.1c0.5-1,1.3-1.9,2.1-2.5
			c1.5-1.1,3.1-2,4.7-2.9c0.4-0.3,0.9-0.5,1.2-0.8c1.4-1.3,1.2-2.6-0.5-3.4c-1.3-0.7-2.7-1.4-4.1-2c-0.7-0.3-1.6-0.4-2.2-0.2
			c-2,0.8-3.8,2.1-5.8,2.8c-2.6,0.9-5.4,2-8.1,1.9C142.8,456.8,139.2,456.6,136.2,454.4z M180.5,453.9c1.2-0.3,2.6-0.6,3.9-1.1
			c3.8-1.5,6.6-4.1,8.5-7.7c1-1.8,0.3-2.9-1.7-3.3c-0.9-0.1-1.7-0.2-2.6-0.3c-3.7-0.6-7.3-0.5-10.9,0.3c-2.2,0.5-3.3,0.3-4.2-1.6
			c-1.2-2.5-3.6-3.3-5.6-4.7c-1.3-0.9-2.9-0.1-3.3,1.5c-0.6,2.8-1.3,5.6-1.9,8.4c-0.7,3.1-0.1,4.2,3,5.2c0.8,0.3,1.6,0.4,2.3,0.6
			c2.2,0.5,4.4,1.1,6.5,1.6C176.5,453.2,178.4,453.5,180.5,453.9z M204.8,499.5c0.1,1.3-0.1,2.7,0.4,3.6c1.3,2.3,3.2,4.3,6,4.7
			c4.7,0.8,9.1-1,13.7-1.7c0.6-0.1,1.2-0.6,1.7-0.9c1.8-1.3,3.5-2.8,5.4-4c1.7-1.1,2.5-2.6,2.4-4.4c-0.1-2.8-0.3-5.6-0.6-8.4
			c-0.1-0.9-0.5-1.9-0.9-2.7c-0.6-1.3-1.3-1.6-2.5-1c-2.1,1.2-4.4,2.3-5.7,4.5c-1.5,2.5-3.1,4.8-4.7,7.2c-0.5,0.8-1,1.6-1.5,2.4
			c-0.7,1.2-2.8,2.3-4.1,2c-1.6-0.3-3.2-0.6-4.7-1.1C208,499.1,206.5,499.2,204.8,499.5z M233.4,571.9c-0.3-2.4-0.4-4.2-0.8-6
			c-1-3.8-2.1-7.6-3.2-11.3c-0.7-2.3-1.9-4.2-3.7-5.8c-0.7-0.6-1.3-1.2-1.8-2c-1.7-2.7-4.4-3.9-7.2-4.9c-1.2-0.4-2.4-0.2-3.1,0.8
			c-1.3,1.6-2.3,3.3-3.6,5.2c0.5,0.2,0.9,0.4,1.2,0.5c2.4,0.7,2.9,2.1,1.5,4.1c-0.8,1.1-2,2.1-3,3c-0.4,0.4-1,0.6-1.3,1
			c-0.2,0.3-0.2,0.9-0.2,1.3c0.4,0.1,1,0.3,1.3,0.1c3.3-1.7,6.9-2,10.5-2c0.8,0,1.7,0.3,2.5,0.6c0.7,0.4,1.2,1.1,0.9,2
			c-0.2,0.9-0.6,1.6-1.7,1.8c-1.5,0.4-2.9,0.8-4.3,1.4c-0.5,0.2-0.9,0.8-1.3,1.2c0.4,0.4,0.8,1,1.3,1.2c2.2,0.9,4.4,1.8,6.7,2.6
			c2.6,1,5,2.4,7.3,4.1C232,571.1,232.5,571.3,233.4,571.9z M392.1,309.3c1.3,0,2.1,0.2,2.9,0c1.3-0.3,2.6-0.7,3.9-1
			c2.5-0.6,5-1.2,7.4-1.9c1.8-0.5,3.6-1.3,5.5-1.7c2.2-0.6,4.6-0.8,6.8-1.5c3.9-1.4,7.7-3.1,11.9-3.4c0.2,0,0.5-0.1,0.7-0.2
			c3.6-1,7.2-2.3,11-2.5c0.4,0,0.8-0.2,1.1-0.4c1.7-0.9,3.5-0.9,5.4-1.1c1.7-0.1,3.3-0.6,4.9-1.1c0.4-0.1,0.8-0.6,0.8-0.9
			c0-0.3-0.5-0.7-0.9-0.9c-0.5-0.3-1.2-0.5-1.8-0.7c-0.5,0.6-0.9,1.1-1.2,1.4c-1.3,0.1-2.4,0.3-3.5,0.4c-1,0.1-2.1,0.7-2.9-0.4
			c-0.7-1-2.3,0.8-2.7-1.1c1-0.5,2.1-1,3.3-1.5c-0.2-0.8-0.3-1.7-0.5-2.5c-0.9,0.1-2.1-0.1-2.3,0.2c-1,2.1-2.3,1.3-3.7,0.4
			c-0.2,0.8-0.3,1.6-0.4,2.1c-1.4,0.2-2.6,0.1-3.6,0.6c-2.7,1.2-5.3,2.6-7.9,3.9c-1.4,0.7-3,1.2-4.3,2.1c-1.9,1.4-3.9,2-6.2,2.4
			c-6.5,1.1-12.7,3-18.7,5.7c-0.7,0.3-1.6,0.2-2.5,0.3C393.9,306.9,393.2,307.8,392.1,309.3z M237.6,461.8c0.6-0.5,0.9-0.6,1-0.8
			c1.6-2.3,3.3-4.5,4.7-6.9c1.2-2,0.9-2.5-1-4c-1.7-1.4-3-3.1-3.7-5.2c-0.4-1.3-1.3-2.4-1.8-3.6c-0.5-1.1-1-2.3-1.3-3.6
			c-0.8-3.3-1.4-6.7-2.2-10c-0.2-0.9-0.8-1.8-1.3-2.6c-0.3-0.4-0.8-0.7-1.5-1.3c-0.7,2.1-1.4,3.8-1.8,5.7c-0.3,1.7-0.4,3.5-0.2,5.2
			c0.1,1.9,0.7,3.8,1,5.7c0.3,2.7,1.2,5.1,2.1,7.6c1.3,3.3,2.4,6.6,3.8,9.8C235.9,459.2,236.8,460.4,237.6,461.8z M219.9,592.8
			c-8.4-4.1-16.4-7.9-23.5-13.4c0,1.1,0,2.1,0.3,3c0.5,1.6,1.3,3.1,1.6,4.8c0.7,3.5,2.7,6.1,5.2,8.5c2.1,2,4.3,4,6.7,4.9
			C214.5,599,217,596,219.9,592.8z M336.9,322.8c-1.9,2.4-3.7,4.5-5.5,6.7c-1.3,1.5-2.6,3-3.8,4.7c-0.3,0.4,0.1,1.1,0.1,1.7
			c0.5-0.1,1.1-0.1,1.5-0.3c3.1-2.2,6-4.7,9.9-5.7c0.3-0.1,0.6-0.3,0.8-0.5c2.2-1.3,4-3.3,6.8-3.4c0.2,0,0.4-0.5,0.7-0.6
			c3.2-1.9,6.4-3.8,10.3-4.2c1.6-0.2,3.2-0.8,4.2-2.6c-1.7-1.2-3.4-0.7-4.7-0.1c-3.3,1.6-6.9,2-10.3,2.8c-0.2,0.1-0.5,0-0.7,0
			c-0.8,0-1.3-0.4-1.2-1.1c0.2-1.9,0.1-3.9,0.8-5.7c0.7-2,2-3.8,3.1-5.7c0.2-0.4,0.4-0.8,0.6-1.3c-1.6-0.4-2.3,0.5-2.8,1.5
			c-1,1.7-1.3,3.8-3.1,5c-0.3,0.2-0.3,0.7-0.5,1.1c-0.2,0.5-0.4,1-0.8,1.5c-1.5,2.2-3,4.3-4.7,6.6
			C337.4,323,337.1,322.9,336.9,322.8z M451.2,286.5c0.1-0.7,0.2-1.2,0.3-1.6c0.4-1.5,0.9-2.1,2.2-2c4,0.4,7.1-1.5,10.1-3.7
			c1.5-1.1,2.8-2.5,5.1-2c1,0.3,2.3,0.3,3.3,0c2-0.7,4-0.9,6.1-0.6c0.5,0.1,1.2-0.1,1.6-0.3c0.4-0.2,0.8-0.7,1-1.2
			c0.2-0.6-2-4.6-2.6-4.7c-2-0.3-3.8-1.2-5.9-0.6c-2.1,0.6-4.2,1.2-6.2,1.7c-1.2,0.3-2.2,0.8-3,1.8c-0.6,0.8-1.4,1.5-2.2,2.1
			c-1.8,1.5-3.7,3-5.6,4.5c-0.7,0.5-1.4,1.3-2.1,1.4c-1,0.1-1.6,0.5-2.3,1.1c-0.9,0.7-1.8,1.5-2.8,1.9c-1.3,0.5-1.6,1.4-1.3,2.6
			c0.2,0.9,0.4,1.8,0.6,3c1-1.6,0.3-3.6,1.8-4.7C449.9,285.6,450.4,286,451.2,286.5z M129,444.8c-0.5,1-1,1.8-1.3,2.7
			c-0.6,1.5-1.4,2.6-3.1,3.1c-0.6,0.2-1.1,0.9-1.6,1.4c-0.6,0.6-1.2,1.3-1.8,1.9c-1.2,1.2-2.5,2.5-3.7,3.7c-0.6,0.6-1.2,1.3-2,1.7
			c-3.2,1.7-5.5,4.8-9.3,5.8c-0.4,0.1-0.8,1.1-0.7,1.5c0.1,0.4,1,1,1.3,0.9c2-0.5,4.1-0.9,5.8-2c2.1-1.3,4-2.8,6.4-3.7
			c2.3-0.9,4.5-2.2,6.2-4.1c2.6-3,5.9-5.4,7-9.5c1.8,0.5,3.4,1,5.1,1.5c-1.5-3.2-3.4-5.7-4.8-6.5C131.1,445,131.1,445,129,444.8z
			 M187.1,519.7c-0.3,0-0.5,0-0.8,0c-0.3,0.7-0.6,1.4-0.9,2.1c-1.5,3.4-1.2,7.2-2.8,10.6c-0.3,0.5-0.2,1.3-0.1,1.9
			c0.3,1.7,0.7,3.5,1.2,5.1c1,3.2,2.2,6.4,3.3,9.5c0.3,0.9,0.8,1.8,1.4,2.5c0.3,0.5,1.2,1,1.5,0.9c0.5-0.3,1.1-1,1.1-1.6
			c0.1-2.4,0.1-4.8-0.2-7.2c-0.9-7.1-2-14.1-3-21.2C187.7,521.4,187.3,520.5,187.1,519.7z M355.8,302.2c0,0.1,0,0.2,0,0.3
			c2.1-0.4,4.2-1,6.3-1.3c2.7-0.4,4.5-2,6.1-3.9c0.8-0.9,0.5-1.4-0.2-2.2c-1.6-1.9-3.9-1.9-5.9-2.8c-0.4-0.2-0.9,0.2-1.4,0.2
			c-1.2,0.1-2.3,0.2-3.5,0.3c-1,0.1-2.1,0-3,0.4c-1.9,0.9-3.7,2-5.4,3.2c-0.6,0.4-1.1,1.2-1.2,1.9c-0.4,2.2,1.2,3.8,3.8,3.9
			C353,302.3,354.4,302.2,355.8,302.2z M199.6,551.3c0.3-0.2,0.7-0.3,0.9-0.5c1.6-2.1,3.4-4.1,4.6-6.4c1.4-2.8,3.8-4.9,5.4-7.6
			c1.3-2.1,2.9-4,4.2-6.1c0.8-1.2,0.3-2-1.1-2.1c-0.3,0-0.6,0-1,0.1c-1.9,0.5-3.9,0.9-5.8,1.6c-2.5,0.9-4.2,2.9-5,5.4
			c-0.7,2.2-1.3,4.5-1.9,6.7c-0.9,2.9-0.2,5.8-0.6,8.7C199.3,551.1,199.4,551.1,199.6,551.3z M245,369.8c-1.8,0.8-3.7,1.6-5.5,2.4
			c-1.2,0.6-2.4,0.5-3.8,0.2c-1.6-0.3-3.3-0.5-5-0.7c-1.4-0.2-2.5,0.3-3.5,1.3c-1.3,1.3-2.6,2.6-4,3.8c-0.8,0.7-1.1,1.6-0.7,2.6
			c0.4,1,1.4,1.1,2.3,0.9c1.6-0.4,3.2-0.9,4.8-1.5c1.4-0.6,2.7-0.9,4.2-0.5c2.1,0.6,4,0.2,5.7-1.1c1.2-0.9,2.4-1.9,3.4-3
			c1.9-1.9,3.9-3.9,5.6-6c1.4-1.7,1.1-2.3-1.2-3.4C246.1,366.2,245,367.6,245,369.8z M347.2,287.6c-2.6-1.5-5-1.6-7.1-0.1
			c-2,1.4-3.9,3-5.7,4.7c-1,1-1.7,2.3-2.6,3.4c-0.4,0.4-1.2,0.8-1.6,0.7c-2-0.8-3.9,0-5.8,0.3c-0.8,0.2-1.8,0.2-2.5-0.1
			c-1.7-0.9-3.2-0.3-4.7,0.5c-0.9,0.6-1.6,1.5-1.3,2.6c0.3,1.1,1.4,1.1,2.4,1.2c0.4,0.1,0.8,0,1.2,0c1.5-0.2,3.1-0.3,4.5-0.6
			c4-0.9,8-1.5,11.6-3.7c2.2-1.3,4.3-2.7,6.2-4.4c0.5-0.5,1.2-0.7,1.8-1.2C344.7,289.9,345.9,288.9,347.2,287.6z M422,315.7
			c-0.8,1.4-2.3,2.2-2.8,3.9c-0.5,1.8-0.4,2.7,1.4,3.2c4.3,1.2,8.6,1.7,13.1,1.2c0.9-0.1,1.5-0.4,1.7-1.3c0.3-1.2,0.7-2.5,1-3.7
			c0.4-1.7-0.1-2.4-1.8-2.8c-0.9-0.2-1.9,0.1-2.8-0.1c-2.6-0.6-5.3-0.8-7.9-0.2C423.3,315.9,422.8,315.8,422,315.7z M386.1,313.1
			c-0.2,1.4-0.3,2.4-0.5,3.4c0,0.2-0.3,0.3-0.4,0.5c-0.3-0.7-0.5-1.3-0.7-1.7c-1.6,0.4-3,0.8-4.4,1.1c-0.8,0.2-1.3,0.6-1.5,1.3
			c-0.1,0.7-0.2,1.4-0.3,2.1c-0.2,1.8,0.2,2.3,1.8,2.8c0.7,0.2,1.5,0.6,2.2,0.8c0.5,0.1,1.2,0.3,1.6,0.1c1.6-0.8,3.2-0.5,4.8,0.1
			c0.8-1.5,1.8-2.4,3.3-3.1c1.2-0.5,2.3-1.5,3.1-2.5c0.4-0.5-0.3-1.8-0.4-2.7c-0.1-0.5-0.2-1.1-0.3-1.7c-1,0-1.8,0-2.7,0
			C390.2,316.5,388.9,316,386.1,313.1z M166.2,580.6c4.7-2,5.6-3.1,5.1-7.3c-0.4-3.7,0.6-6.6,3.5-8.9c3.4-2.8,4.5-6.5,4.1-10.7
			c-0.2-2-0.7-3.9-1.1-5.9c0-0.2-0.3-0.2-0.7-0.5c-0.6,1.7-1.3,3.3-1.7,4.9c-0.6,2.1-0.8,4.2-1.5,6.3c-0.5,1.4-1.5,2.7-2,4.1
			c-1.1,3.1-2.1,6.2-3.1,9.3c-0.1,0.4-0.4,0.9-0.6,1.3c-0.7,1.5-1.6,2.9-2.1,4.5C165.8,578.4,166.2,579.4,166.2,580.6z M245,471.6
			c-0.2,0-0.3,0-0.5,0c-1.5,4.5-1.9,9.2-1.7,14c0.1,1.9,0.3,3.9,0.1,5.8c-0.2,1.7,0,3.2,0.8,4.7c0.4,0.8,0.5,1.5,0.3,2.5
			c-0.3,1.8,0.4,3.5,1.6,4.8c0.7,0.8,1.7,0.6,1.8-0.4c0.2-1.6,0.8-3.3,0.3-5c-0.4-1.2-0.5-2.5-0.6-3.8c-0.3-2.6-0.1-5.4-0.8-7.9
			c-0.8-2.8-0.5-5.7-0.7-8.5C245.3,475.7,245.2,473.6,245,471.6z M252.3,506.5c-0.3,0.5-0.9,1-1.1,1.6c-0.6,2.9-1.9,5.6-3.1,8.2
			c-1.9,3.9-3.6,7.8-7.1,10.7c-0.3,0.3-0.3,1-0.5,1.4c1.1,0.7,1.7,0.2,2.3-0.4c3.1-3.2,6.3-6.2,8.2-10.4c1.4-3,1.8-6.1,2.5-9.2
			C253.7,507.7,253.6,506.8,252.3,506.5z M221.7,481.5c-0.3-0.1-0.5-0.2-0.6-0.2c-2.8,1.2-5.6,2.4-8.3,3.6c-1.6,0.7-1.9,1.6-1.4,3.3
			c0.2,0.6,0.3,1.2,0.5,1.9c0.4,1.5,1.2,2.3,2.7,2.5C217.7,489.3,219.9,485.5,221.7,481.5z M261.2,483.5c1.3-6.5,2.3-12.5,0.4-18.9
			C257.7,469,257.4,479.7,261.2,483.5z M184.4,606.4c-0.1-2,0.3-4-1-5.8c-0.2-0.3-0.2-0.7-0.2-1.1c0-3.7,0.1-7.5,0-11.2
			c0-0.9-0.5-1.7-0.7-2.6c-1.6,0.5-1.9,1.5-2.2,2.6c-1.1,4.8,0.2,9.4,1.4,13.9C182.3,603.8,182.9,605.4,184.4,606.4z M258.1,370.3
			c2.6,0.1,6.7-3.5,6.9-6.1c0-0.7-0.4-1.6-0.9-2.1c-0.9-0.8-4.6-0.3-5.2,0.9c-0.9,1.7-1.7,3.4-2.4,5.2
			C256.1,369.3,256.8,370.2,258.1,370.3z M282.4,348.8c-2.1-0.4-3.4,1-4.7,2c-1.4,1.1-1.5,1.7-0.8,3.1c0.6,1.3,1.4,1.6,3,1.3
			c2-0.3,3.2-1.7,4.6-2.9c1.1-0.9,1.2-1.9,0.1-2.7C284,349.1,283.1,349,282.4,348.8z M235.4,507.6c2,1.3,3.8,1.2,6.2,0
			c-0.7-1-1.3-2-2.2-3.3C237.9,505.4,236.8,506.4,235.4,507.6z M216.3,469.3c-0.5,0-0.8,0-1.2,0c-0.7,0.1-1.3,0.4-1.2,1.2
			c0,0.8,0.6,1.1,1.3,1.1c0.7,0,1.5-0.1,2.1-0.3c0.3-0.1,0.7-0.6,0.7-0.8c-0.1-0.4-0.4-0.9-0.7-1.1
			C217,469.2,216.5,469.3,216.3,469.3z M372,316.5c-4.6-0.5-5.1-0.4-5.8,1.7C368.1,317.2,370.4,318.1,372,316.5z M228.6,469.7
			c-1-2.7-2.1-3.2-4.8-2.8C224.6,469,226.6,468.9,228.6,469.7z M104.5,469c0-0.2,0-0.4,0.1-0.6c-0.5-0.3-1.1-0.9-1.5-0.7
			c-0.6,0.2-1.6,0.9-1.6,1.4c0,0.9,0.9,0.9,1.7,0.7C103.5,469.5,104,469.2,104.5,469z M233.3,466.1c-0.8,1.8-0.5,2.3,1.3,2.6
			C235,467.5,234.4,466.7,233.3,466.1z M400.6,320.7c0.6-0.3,1.1-0.5,1.6-0.7c-0.4-0.4-0.7-1.2-1.1-1.2
			C400.3,318.8,400.3,319.6,400.6,320.7z M325.5,337.3c-1.1,0.4-1.8,1-2,2.4C324.7,339.1,325.9,339,325.5,337.3z M234.6,473
			c-0.2,0.6-0.3,0.8-0.3,1.1c0,0.2,0.3,0.3,0.5,0.5c0.2-0.2,0.5-0.4,0.5-0.6C235.2,473.7,234.9,473.5,234.6,473z M470.6,285.7
			c-0.2,0.2-0.3,0.3-0.5,0.5c0.4,0.3,0.7,0.6,1.1,0.9c0.1-0.1,0.2-0.3,0.4-0.4C471.3,286.4,471,286,470.6,285.7z M263.8,373.5
			c-0.2-0.1-0.4-0.2-0.5-0.2c0,0.1-0.2,0.3-0.1,0.4c0.1,0.1,0.3,0.2,0.5,0.3C263.7,373.8,263.8,373.7,263.8,373.5z M487.2,290.7
			c-0.1-0.1-0.2-0.2-0.3-0.2c-0.1,0-0.2,0.1-0.3,0.2c0.1,0.1,0.3,0.2,0.4,0.4C487,290.9,487.1,290.8,487.2,290.7z"/>
		<path fill="#FFFFFF" d="M136.2,438.3c-0.7,1.4-1.3,2.8-2,4.2c-1.4-0.1-1.9-0.8-1.7-1.8c0.2-1.6,0.5-3.1,0.8-4.8
			c0.8-0.3,1.7-0.6,2.7-1c-0.5-1.7-1.6-2.7-2.8-3.1c-2.5-0.8-4.8-2.4-7.5-2.4c-1.1,0-2.2,0.3-3.2,0.5c-0.5,0.1-0.9,0.4-1.3,0.5
			c-2.1,0.5-3.5,1.5-4.1,3.8c-0.4,1.3-1.6,2.4-2.3,3.6c-1.1,1.7-2.1,3.4-3.1,5.2c-2.1,3.7-6.1,5.6-10.3,5.2
			c-3.8-0.3-7.4-1.4-11.1-2.3c-3.7-0.8-6.5-3.1-8.6-6.2c-2-2.9-1.7-6.1-0.5-9.2c1.6-4.1,3.9-7.7,7.1-10.7c0.2-0.2,0.5-0.3,0.5-0.5
			c1.8-4.5,6.3-5.7,9.9-7.9c3.3-2,6.7-3.7,10-5.7c1.5-0.9,2.9-0.7,4.3,0.1c4.1,2.3,6.7,5.9,8.3,10.2c0.5,1.3,1.1,2.7,1.6,4
			c1.1,3.4,3.9,5.1,6.9,6.3c3.3,1.3,6.6,2.3,10,3.4c1.1,0.3,2.2,0.5,3.2-0.2c-0.2-2-1-2.9-2.8-3.3c-3.5-0.8-6.6-2.3-9.5-4.5
			c-0.5-0.4-1-0.9-1.3-1.4c-1-1.9-1.9-3.9-2.8-5.9c-0.2-0.5-0.2-1.2-0.4-2.3c1.3,0.9,2.3,1.5,3.2,2.1c0.1-0.1,0.2-0.1,0.3-0.2
			c-0.6-1.6-1.2-3.2-1.6-4.9c-1.4-5.7-2.3-11.5-0.8-17.3c0.3-1.2,0.1-2.4,0.5-3.6c2.2-6.9,5.5-7.2,11-5.8c3.7,1,7.2,2.5,10.1,4.8
			c2.3,1.8,4.4,4,6.5,6c1.3,1.3,2.7,2.5,3.9,3.9c1.7,1.9,3.3,3.9,4.6,6.1c1.4,2.2,0.4,4.3-1.1,6.2c-2.3,3.1-4.5,6.2-6.7,9.3
			c-0.4,0.6-0.9,1.2-0.4,1.9c0.6,0.8,1.4,1.1,2.4,0.7c0.6-0.2,1.3-0.5,1.6-1c2-2.6,4.9-4.7,6-8c0.4-1.1,1.2-2,2.6-2.2
			c1.2-0.2,1.6-1.1,2-2.1c1.8-4.3,2.1-8.8,1.8-13.4c-0.1-2.1,0.4-2.7,2.5-3.1c2-0.4,3.9,0.1,5.5,1.3c2.7,2.1,5.3,4.4,8,6.6
			c0.4,0.3,0.6,0.7,1,1c3.9,3.1,5.6,7.3,6.4,12c0.2,1.5,0.1,3.2-0.3,4.7c-0.9,3.6-2.1,7.2-3.3,10.8c-0.5,1.5-1.3,2.9-2,4.4
			c-0.6,1.1-1.5,1.4-2.6,1c-0.7-0.2-1.3-0.5-2-0.8c-0.6-0.2-1.2-0.5-1.8-0.5c-3.9,0-6.8-2.1-9.2-5c-1.3-1.6-2.6-3.3-4-4.8
			c-1.9-2-3-2.2-5.6-1.1c-1.4,0.6-2.7,1.4-4,2.2c-2,1.2-3.8,2.8-6.5,2.4c-1.3-0.2-2.7,0.4-4,0.7c-1.9,0.4-3,2.2-2.3,4
			c0.6,1.7,0.5,3.3,0.4,5c0,1-0.4,1.5-1.4,1.6c-0.5,0.1-1,0.2-1.3,0.5c-1.3,0.8-1.6,2.1-0.6,3.3c0.6,0.8,1.5,1.4,2.3,2.1
			c1.4,1.2,1,2.6-0.7,3.2c-2.1,0.7-5-0.3-6.1-2.2c-0.6-1.1-1.1-2.3-1.5-3.5C138.4,439,137.9,438.6,136.2,438.3z"/>
		<path fill="#FFFFFF" d="M361,278.4c-0.9,2.3-0.8,5-3.4,6.8c-0.2-1.2-0.5-2.1-0.4-3c0.2-1.7,0.3-3.5,1-4.9c1.2-2.5,0.2-4.3-1.3-6.1
			c-1.8,0.4-2,2.2-2.9,3.3c-1.2,1.5,0.4,2.9-0.1,4.5c-0.5-0.1-0.9-0.3-1.5-0.5c-0.1,0.9-0.2,1.7-0.2,2.6c-1.5-1.6-1.9-4.6-0.9-7.1
			c0.9-2.4,0.5-4.7-0.2-7c-1.9,0.2-2.8,1.2-3.4,2.6c-0.7,1.4-1.5,2.9-2,4.4c-0.4,1.4-1.2,1.9-2.6,2c-2.2,0.2-4.4,0.6-6.5,1.1
			c-0.8,0.2-1.6,1.1-2.1,1.8c-1.4,2.1-2.7,4.3-4.1,6.5c-0.1,0.2-0.3,0.4-0.4,0.6c-0.3,3.1-2.8,3.9-5,4.3c-3.7,0.7-7.6,1.1-10.2-2.8
			c-1-1.5-2.2-2.9-3.1-4.5c-0.3-0.6-0.2-1.4-0.3-1.9c-0.8-0.5-1.7-0.8-2.3-1.4c-1.1-1.1-2.2-2.3-3.1-3.6c-0.7-1-0.8-2.1-0.6-3.4
			c0.6-4.1,3.3-6.6,6.3-9.2c3.6-3.2,7.8-5.6,11.6-8.5c1.8-1.3,3.4-2.9,5.6-3.6c2.2-0.7,4.3-1.7,6.2-3c0.9-0.6,2.1-0.2,2.8,1
			c0.8,1.3,1.5,2.7,1.8,4.2c0.5,2.9,2.5,5.1,4.2,7.1c1.5,1.8,4.1,2.6,6.3,3.8c0.4,0.2,1,0.1,1.4,0.1c1.2-0.2,1.7-1,1.2-2.1
			c-0.4-0.8-1.1-1.4-1.7-2c-2.3-2.2-3.4-4.6-2.6-8c0.7-3.2,0.6-6.5,1.3-9.8c0.7-3.4,1.5-6.9,2.7-10.2c1.2-3.1,3.5-5.5,6-7.6
			c1-0.9,2.2-1.6,3.2-2.5c0.8-0.6,1.5-0.6,2.1,0.2c0.4,0.5,0.7,1.1,1,1.7c0.4,0.9,0.9,1.7,1.9,2c0.5,0.1,1,0.6,1.2,1
			c1.4,3.7,2.9,7.3,4,11c1.4,4.5,1.5,9.2,1.3,13.8c0,0.8-0.6,1.6-1.1,2.3c-0.9,1.1-1.8,2-1.9,3.7c-0.1,1.6-1.8,2.3-3.1,3.2
			c-0.5,0.3-1.3,0.5-1.7,0.9c-0.4,0.4-0.6,1.1-0.6,1.7c0,0.3,0.9,0.7,1.3,0.7c1.6-0.1,3.2-0.2,4.7-0.7c1.3-0.4,2.3-1.3,3.5-2
			c0.5-0.3,1-0.3,1.5-0.5c1.2-0.5,2.5-1,2.8-2.4c0.3-1.5,2.1-1,2.6-2.2c0.5-1,1.2-1.9,2-2.6c0.8-0.7,1.7-0.9,2.9-0.5
			c1.8,0.6,3.5,1,4.8,2.9c0.9,1.4,2.6,2.3,4,3.4c1.3,1,2.2,2.4,3.9,3c0.9,0.4,1.4,1.9,2.2,2.8c0.6,0.7,1.3,1.4,2,2.1
			c2,1.9,2.1,4.1,1,6.4c-0.7,1.6-2.1,3.2-3.6,4.1c-2.5,1.5-5.1,3.1-8.2,3.2c-0.4,0-0.8,0.1-1.2,0.2c-3.3,0.8-6.1-0.2-8.5-2.5
			c-1.6-1.6-3.7-2.3-5.9-2.3c-3.6,0-7,0.8-10.1,2.8c-0.5,0.3-1,0.6-1.5,0.8c-1.7,0.7-2.5,0.4-3.5-1.3c-0.1-0.2-0.2-0.4-0.4-0.6
			C361.5,278.7,361.4,278.6,361,278.4z M355.1,263.5c0.2-0.1,0.3-0.2,0.5-0.2c-0.1-0.2-0.2-0.4-0.3-0.5c0,0-0.4,0.1-0.4,0.2
			C354.9,263.2,355,263.3,355.1,263.5z"/>
		<path fill="#FFFFFF" d="M241.3,300.4c1-1.1,1.8-2.1,2.7-3.1c0.6,0.3,1.1,0.6,1.5,0.8c1.1,0.6,2.2,1.3,3.3,1.9
			c0.1,0.1,0.3,0.1,0.4,0.2c2.4,2.6,5.4,4.7,6.4,8.3c0.4,1.5,0.9,3.1,1.4,4.6c1.1,3,1.5,6.1,0.5,9.2c-0.7,2.1-1.4,4.3-2,6.4
			c-0.2,0.7-0.4,1.4-0.6,2.1c-0.3,1.5-0.2,1.7,1.5,2.9c2.8-2.1,2.9-5.7,4.3-8.6c1,0.3,1.8,0.5,2.9,0.8c0-0.9,0-1.7,0-2.4
			c2.2-1.8,4.8-1.9,7.4-2.4c0.2,0,0.5,0,0.7,0.1c1.4,1.3,3.5,1.4,4.6,3.3c0.6,1,1.9,1.6,3.2,2.7c0.5-0.7,0.8-1.2,1-1.6
			c0.2,0.1,0.4,0.1,0.5,0.2c1.4,2.2,2.9,4.4,3.2,7.2c0.2,1.2,0,2.2-0.7,3.2c-0.7,0.9-1.3,1.9-2.1,2.7c-3.2,3-6.4,6-9.8,8.9
			c-2.1,1.8-4.1,1.6-6.1-0.4c-0.4-0.4-0.8-0.8-1.3-1.1c-1.8-1.6-3.1-3.4-3.5-5.9c-0.3-1.8-0.4-1.9-1.8-3.3c-1.2,0.3-1.9,0.9-1.7,2.3
			c0.1,0.7,0,1.5-0.4,2c-1,1.4-1.2,2.7-0.6,4.3c0.2,0.4,0.1,0.9,0.1,1.7c-2.4-0.1-4.7,0-6.5-1.8c-0.2-0.2-0.4-0.5-0.6-0.7
			c-0.7-0.5-1.3-0.3-1.5,0.5c-0.2,0.8-0.1,1.6,0,2.4c0.1,2.2-0.7,3.9-2.6,5c-0.4,0.2-0.8,0.6-0.9,1c-1.5,3.9-4.5,6.8-6.6,10.3
			c-0.6,1-1.5,1.5-2.8,1.5c-2.2,0-4.5,0.1-6.7,0.2c-1.9,0.1-3.8,0.4-5.7,0.7c-1.5,0.2-2.7-0.1-3.7-1.3c-1.5-1.8-3-3.6-4.4-5.4
			c-0.3-0.4-0.7-1-0.7-1.5c-0.2-2.2-0.3-4.3-0.3-6.5c0-0.8,0.4-1.5,0.6-2.3c0.8-2.1,1.8-4.1,2.5-6.2c0.7-2,1.8-3.7,3.7-4.9
			c2.6-1.7,5.2-3.5,7.9-5c2.8-1.5,5.9-2.2,9.1-2c0.7,0,1.5,0.5,2,1c1.4,1.5,2.5,3.1,3.8,4.6c0.7,0.8,1.3,1.6,2.2,2.3
			c1.3,1.1,2.6,0.5,2.7-1.1c0.1-2-0.3-3.8-2.4-4.8c-0.8-0.4-1.4-1.5-1.8-2.4c-0.8-1.8-1.6-3.4-3.1-4.7c-1.5-1.3-2.4-3.2-2.9-5.4
			c-1.1-4.8-0.4-9.6-0.3-14.3c0-0.5,0-1.1,0.3-1.4c1-1.1,1-2.5,1.2-3.8C239,299.4,239.4,299.3,241.3,300.4z"/>
		<path fill="#FFFFFF" d="M238.9,424.3c-0.7-1.5-1.4-2.4-1.7-3.5c-0.2-0.8-0.2-1.7,0.1-2.5c0.4-1.5,1-2.9,1.7-4.2
			c0.7-1.4,1.7-2.7,2.5-4.1c0.4-0.7,0.7-1.4,0.9-2.1c0.3-0.7,0.5-1.5,0.9-2.2c1.4-2.5,1.7-5.3,1.9-8.1c0.1-2,0.5-4,0.9-5.9
			c0.3-1.3,0.7-2.6,0.2-4c-0.1-0.3-0.2-0.6-0.1-0.9c0.2-2.7,0.3-5.4,0.6-8.1c0.1-1.3,1-1.7,2.5-1.3c0.1,2.2,0,4.4-1.2,6.4
			c-1,1.7-0.8,4,0.5,5.3c0.2,0.2,0.7,0.5,1,0.4c1.2-0.3,2.6-0.5,3.6-1.2c1.2-0.8,2.4-1.2,3.7-1.5c2.2-0.5,4.2-1.2,6-2.7
			c1.9-1.5,4.2-2.6,6.4-3.8c2.7-1.5,5.4-3.1,8.2-4.5c1.8-1,3.7-2,5.7-2.6c2.9-0.8,5-2.7,7.3-4.4c3.2-2.3,6.3-4.7,9.4-7.1
			c0.3-0.2,0.6-0.4,0.9-0.4c0.7,0,1.5-0.2,2,0.1c0.8,0.5,0.4,1.3,0,1.9c-2,3.5-1.2,6.6,1.6,9.3c0.5,0.5,1,1.1,1.4,1.7
			c0.8,1.2,1.6,1.7,3.2,1.1c1.1-0.4,2.5,0,3.8,0.1c2.1,0.1,4.1-0.3,6.1-1c3.5-1.2,7.2-2.1,10.6-3.5c3.4-1.5,6.6-3.3,9.7-5.3
			c3.5-2.2,6.8-4.8,10.1-7.3c1.5-1.1,2.4-2.8,2.6-4.7c0.4-3.5,3.6-7,7-7.3c0.6-0.1,1.5,0.5,1.9,1.1c1.4,1.9,1.8,1.9,4,1.5
			c1.9-0.4,4-0.4,5.9-0.4c1.4,0,2,1.1,2.4,2.3c0.4,1.1,0.3,2-0.7,2.8c-3.1,2.6-6.3,5-10.4,5.6c-0.5,0.1-1,0.4-1.5,0.6
			c-1.3,0.6-2.6,1-4.2,0.6c-1.7-0.4-3.5-0.6-4.8,1.2c-0.4,0.5-1.3,0.7-1.9,1.1c-1.6,1-3.3,2-4.9,3c-2.1,1.3-4.2,2.7-6.3,3.9
			c-2.2,1.2-4.3,2.5-6.6,3.5c-3,1.3-5.7,3.2-8.9,4.1c-1.5,0.4-3,1.1-4.4,1.9c-3.7,2.1-7.7,3.1-11.9,3.4c-2.2,0.2-4.3-0.2-6.1-2.1
			c-1.2-1.3-3.2-1.6-4.9-0.8c-4.6,2.2-9.2,4.5-13.8,6.8c-2.8,1.4-5.6,3-8.4,4.6c-1.6,0.9-3.4,1.1-5.1,0.4c-1.4-0.6-2.6-0.3-3.9,0.4
			c-5.1,2.7-8.9,6.7-12.3,11.2c-1.9,2.5-3.3,5.5-5.8,7.6c-1,0.9-1.6,2.4-2.3,3.7c-1.4,2.8-2.7,5.7-4,8.5
			C240,423,239.5,423.5,238.9,424.3z"/>
		<path fill="#FFFFFF" d="M252.8,422.5c-0.9-2.1-0.6-3.9-0.2-5.7c0.8-3.2,2.2-6.2,4-9c1.6-2.5,3.1-5.1,4.9-7.4
			c1.2-1.5,3-2.7,4.6-3.8c1-0.7,1.7,0.3,2.1,1c1,2.3,2.2,4.5,2.8,6.9c0.9,3.2,1.1,6.4,0.3,9.7c-0.4,1.8-0.4,3.7-0.5,5.5
			c-0.1,3-0.4,5.9-1.4,8.8c-0.9,2.8-1.2,5.8-2.1,8.6c-0.7,2.5-1.4,5.2-2.8,7.4c-2.3,3.5-3.8,7.5-7,10.3c-0.9,0.8-1.7,1.1-2.5,0.1
			c-1.6-2-3.8-2.5-6.1-3.1c-1.2-0.3-3-3-2.7-4.1c0.1-0.5,0.6-1,1.1-1.2c3.5-1.4,4.5-4.3,4.9-7.7c0.4-3.6,1-7.1,3.1-10.2
			c0.8-1.2,1.1-2.8,1.5-4.3c0.4-1.7-0.6-2.6-2.3-2.3C254,422.3,253.5,422.4,252.8,422.5z"/>
		<path fill="#FFFFFF" d="M207.1,568.2c0.5-0.3,0.9-0.8,1.4-0.8c1.1,0,2.3,0,3.3,0.3c3.8,1.1,7.7,2.2,11.5,3.6
			c1.5,0.5,2.8,1.6,4.1,2.5c4.5,3.3,9,6.7,13.4,10.1c1.6,1.3,1.5,2.4-0.4,3.2c-3.8,1.6-7.6,3.3-11.8,1.9c-0.6-0.2-1.3-0.1-1.9-0.2
			c-0.6,0-1.3,0.1-1.9-0.1c-3.9-1.3-7.9-2.1-11.4-4.4c-1.1-0.7-2-1.8-3-2.7c-2.1-2-4.2-3.9-6.4-5.9c-0.6-0.5-1.1-1-1.8-1.7
			c2.1-0.5,4.6-0.3,6.7,0.7c1.4,0.6,2.5,0.4,3.6-0.4c1.5-1.1,1.3-2.9-0.4-3.6c-1-0.4-2-0.7-3-1c-0.7-0.2-1.3-0.5-2-0.8
			C207.2,568.7,207.1,568.4,207.1,568.2z"/>
		<path fill="#FFFFFF" d="M136.2,454.4c3,2.2,6.6,2.4,9.9,2.5c2.7,0.1,5.4-1,8.1-1.9c2-0.7,3.8-1.9,5.8-2.8c0.6-0.3,1.6-0.1,2.2,0.2
			c1.4,0.5,2.8,1.3,4.1,2c1.7,0.9,1.8,2.1,0.5,3.4c-0.3,0.3-0.8,0.5-1.2,0.8c-1.6,1-3.2,1.8-4.7,2.9c-0.9,0.7-1.7,1.6-2.1,2.5
			c-0.6,1.2-1.5,1.8-2.7,2.1c-4.5,1.2-9,2.3-13.6,2.8c-3.2,0.4-6.1,0-9-1.8c-4.1-2.6-4-2.2-2-6.5C132.7,458.4,133.7,456,136.2,454.4
			z"/>
		<path fill="#FFFFFF" d="M180.5,453.9c-2.1-0.4-4-0.7-5.9-1.1c-2.2-0.5-4.4-1-6.5-1.6c-0.8-0.2-1.6-0.3-2.3-0.6c-3-1-3.6-2.1-3-5.2
			c0.6-2.8,1.2-5.6,1.9-8.4c0.4-1.6,2-2.5,3.3-1.5c2,1.4,4.4,2.2,5.6,4.7c1,2,2,2.1,4.2,1.6c3.6-0.8,7.3-0.9,10.9-0.3
			c0.9,0.1,1.8,0.2,2.6,0.3c2,0.3,2.6,1.4,1.7,3.3c-1.9,3.6-4.8,6.2-8.5,7.7C183.1,453.3,181.7,453.6,180.5,453.9z"/>
		<path fill="#FFFFFF" d="M204.8,499.5c1.7-0.2,3.2-0.4,4.8,0.1c1.5,0.5,3.1,0.8,4.7,1.1c1.3,0.3,3.4-0.8,4.1-2
			c0.5-0.8,1-1.6,1.5-2.4c1.6-2.4,3.2-4.8,4.7-7.2c1.4-2.3,3.6-3.3,5.7-4.5c1.2-0.7,1.9-0.3,2.5,1c0.4,0.9,0.8,1.8,0.9,2.7
			c0.3,2.8,0.6,5.6,0.6,8.4c0.1,1.8-0.7,3.3-2.4,4.4c-1.9,1.2-3.6,2.7-5.4,4c-0.5,0.4-1.1,0.8-1.7,0.9c-4.5,0.7-9,2.5-13.7,1.7
			c-2.8-0.5-4.7-2.4-6-4.7C204.7,502.1,205,500.7,204.8,499.5z"/>
		<path fill="#FFFFFF" d="M233.4,571.9c-1-0.5-1.5-0.7-1.9-1c-2.2-1.7-4.6-3.1-7.3-4.1c-2.2-0.9-4.5-1.7-6.7-2.6
			c-0.5-0.2-0.9-0.8-1.3-1.2c0.4-0.4,0.8-1,1.3-1.2c1.4-0.6,2.9-1,4.3-1.4c1-0.3,1.4-0.9,1.7-1.8c0.2-0.9-0.2-1.6-0.9-2
			c-0.8-0.4-1.7-0.7-2.5-0.6c-3.6,0.1-7.2,0.4-10.5,2c-0.3,0.2-0.8-0.1-1.3-0.1c0.1-0.4,0-1,0.2-1.3c0.3-0.4,0.9-0.6,1.3-1
			c1-1,2.2-1.9,3-3c1.4-2,0.9-3.3-1.5-4.1c-0.4-0.1-0.7-0.3-1.2-0.5c1.2-1.8,2.3-3.6,3.6-5.2c0.7-0.9,1.9-1.2,3.1-0.8
			c2.8,1,5.5,2.2,7.2,4.9c0.5,0.7,1.1,1.4,1.8,2c1.8,1.6,3,3.5,3.7,5.8c1.1,3.8,2.2,7.5,3.2,11.3
			C233.1,567.6,233.1,569.5,233.4,571.9z"/>
		<path fill="#FFFFFF" d="M392.1,309.3c1.1-1.5,1.8-2.4,2.5-3.3c0.8-0.1,1.8,0.1,2.5-0.3c6-2.7,12.2-4.6,18.7-5.7
			c2.2-0.4,4.3-1.1,6.2-2.4c1.3-0.9,2.9-1.4,4.3-2.1c2.6-1.3,5.2-2.7,7.9-3.9c1-0.4,2.2-0.4,3.6-0.6c0.1-0.5,0.3-1.3,0.4-2.1
			c1.4,0.8,2.7,1.6,3.7-0.4c0.2-0.3,1.3-0.2,2.3-0.2c0.2,0.9,0.3,1.7,0.5,2.5c-1.2,0.6-2.2,1-3.3,1.5c0.4,1.9,2,0.1,2.7,1.1
			c0.8,1.1,1.9,0.5,2.9,0.4c1.1-0.1,2.2-0.2,3.5-0.4c0.3-0.3,0.7-0.8,1.2-1.4c0.7,0.3,1.3,0.4,1.8,0.7c0.4,0.2,0.9,0.6,0.9,0.9
			c0,0.3-0.5,0.9-0.8,0.9c-1.6,0.4-3.2,1-4.9,1.1c-1.9,0.1-3.7,0.2-5.4,1.1c-0.3,0.2-0.8,0.3-1.1,0.4c-3.8,0.2-7.4,1.5-11,2.5
			c-0.2,0.1-0.5,0.2-0.7,0.2c-4.2,0.3-8,2-11.9,3.4c-2.2,0.8-4.5,1-6.8,1.5c-1.9,0.5-3.6,1.2-5.5,1.7c-2.5,0.7-4.9,1.3-7.4,1.9
			c-1.3,0.3-2.6,0.8-3.9,1C394.2,309.5,393.4,309.3,392.1,309.3z"/>
		<path fill="#FFFFFF" d="M237.6,461.8c-0.8-1.4-1.7-2.6-2.2-3.9c-1.3-3.2-2.5-6.6-3.8-9.8c-1-2.5-1.8-4.9-2.1-7.6
			c-0.2-1.9-0.8-3.8-1-5.7c-0.1-1.7-0.1-3.5,0.2-5.2c0.3-1.8,1.1-3.6,1.8-5.7c0.7,0.6,1.2,0.9,1.5,1.3c0.5,0.8,1.1,1.7,1.3,2.6
			c0.8,3.3,1.4,6.7,2.2,10c0.3,1.2,0.8,2.4,1.3,3.6c0.5,1.2,1.4,2.4,1.8,3.6c0.7,2.2,1.9,3.8,3.7,5.2c1.9,1.5,2.2,2,1,4
			c-1.4,2.4-3.1,4.6-4.7,6.9C238.5,461.2,238.2,461.3,237.6,461.8z"/>
		<path fill="#FFFFFF" d="M219.9,592.8c-2.9,3.2-5.4,6.2-9.7,7.7c-2.4-0.9-4.6-2.9-6.7-4.9c-2.5-2.3-4.5-4.9-5.2-8.5
			c-0.3-1.6-1.1-3.2-1.6-4.8c-0.3-0.9-0.3-1.9-0.3-3C203.5,585,211.5,588.7,219.9,592.8z"/>
		<path fill="#FFFFFF" d="M336.9,322.8c0.2,0.1,0.6,0.2,0.7,0.3c1.6-2.3,3.2-4.4,4.7-6.6c0.3-0.5,0.5-1,0.8-1.5
			c0.2-0.4,0.2-0.9,0.5-1.1c1.8-1.2,2.2-3.3,3.1-5c0.6-1,1.2-1.9,2.8-1.5c-0.2,0.5-0.4,0.9-0.6,1.3c-1,1.9-2.4,3.7-3.1,5.7
			c-0.6,1.8-0.6,3.8-0.8,5.7c-0.1,0.7,0.5,1.2,1.2,1.1c0.2,0,0.5,0,0.7,0c3.5-0.8,7-1.2,10.3-2.8c1.4-0.7,3.1-1.1,4.7,0.1
			c-0.9,1.8-2.5,2.5-4.2,2.6c-3.9,0.4-7.1,2.3-10.3,4.2c-0.3,0.2-0.5,0.6-0.7,0.6c-2.8,0.1-4.6,2.1-6.8,3.4
			c-0.3,0.2-0.5,0.4-0.8,0.5c-3.9,0.9-6.8,3.5-9.9,5.7c-0.4,0.3-1,0.2-1.5,0.3c-0.1-0.6-0.4-1.4-0.1-1.7c1.2-1.6,2.5-3.1,3.8-4.7
			C333.2,327.3,335,325.1,336.9,322.8z"/>
		<path fill="#FFFFFF" d="M451.2,286.5c-0.8-0.6-1.3-0.9-1.8-1.3c-1.6,1.1-0.8,3.1-1.8,4.7c-0.3-1.2-0.4-2.1-0.6-3
			c-0.3-1.3,0-2.1,1.3-2.6c1-0.4,1.9-1.2,2.8-1.9c0.7-0.6,1.3-1,2.3-1.1c0.7-0.1,1.5-0.8,2.1-1.4c1.9-1.5,3.8-3,5.6-4.5
			c0.8-0.7,1.6-1.3,2.2-2.1c0.8-1,1.8-1.6,3-1.8c2.1-0.5,4.2-1.1,6.2-1.7c2.1-0.6,4,0.3,5.9,0.6c0.6,0.1,2.8,4.1,2.6,4.7
			c-0.2,0.5-0.6,1-1,1.2c-0.5,0.3-1.1,0.4-1.6,0.3c-2.1-0.3-4.1-0.2-6.1,0.6c-1,0.3-2.2,0.3-3.3,0c-2.2-0.6-3.6,0.9-5.1,2
			c-3,2.2-6.1,4.1-10.1,3.7c-1.3-0.1-1.9,0.5-2.2,2C451.4,285.3,451.3,285.8,451.2,286.5z"/>
		<path fill="#FFFFFF" d="M129,444.8c2.1,0.1,2.1,0.1,3.5-1.5c1.4,0.8,3.3,3.4,4.8,6.5c-1.7-0.5-3.3-0.9-5.1-1.5
			c-1.1,4-4.4,6.5-7,9.5c-1.7,1.9-3.9,3.2-6.2,4.1c-2.4,0.9-4.3,2.4-6.4,3.7c-1.7,1-3.8,1.4-5.8,2c-0.4,0.1-1.3-0.5-1.3-0.9
			c-0.1-0.5,0.4-1.4,0.7-1.5c3.7-0.9,6-4.1,9.3-5.8c0.8-0.4,1.4-1.1,2-1.7c1.3-1.2,2.5-2.5,3.7-3.7c0.6-0.6,1.2-1.3,1.8-1.9
			c0.5-0.5,1-1.2,1.6-1.4c1.7-0.5,2.5-1.6,3.1-3.1C128.1,446.6,128.6,445.8,129,444.8z"/>
		<path fill="#FFFFFF" d="M187.1,519.7c0.2,0.9,0.6,1.8,0.7,2.6c1,7.1,2.1,14.1,3,21.2c0.3,2.4,0.2,4.8,0.2,7.2
			c0,0.6-0.6,1.3-1.1,1.6c-0.3,0.1-1.1-0.4-1.5-0.9c-0.6-0.7-1.1-1.6-1.4-2.5c-1.2-3.2-2.3-6.3-3.3-9.5c-0.5-1.7-0.9-3.4-1.2-5.1
			c-0.1-0.6-0.2-1.4,0.1-1.9c1.6-3.4,1.3-7.2,2.8-10.6c0.3-0.7,0.6-1.4,0.9-2.1C186.6,519.6,186.8,519.7,187.1,519.7z"/>
		<path fill="#FFFFFF" d="M355.8,302.2c-1.4,0-2.9,0-4.3,0c-2.6-0.1-4.2-1.7-3.8-3.9c0.1-0.7,0.6-1.5,1.2-1.9
			c1.7-1.2,3.5-2.3,5.4-3.2c0.9-0.4,2-0.3,3-0.4c1.2-0.1,2.3-0.2,3.5-0.3c0.5,0,1-0.4,1.4-0.2c2,0.9,4.4,0.9,5.9,2.8
			c0.7,0.8,1,1.4,0.2,2.2c-1.7,1.9-3.5,3.5-6.1,3.9c-2.1,0.3-4.2,0.8-6.3,1.3C355.8,302.4,355.8,302.3,355.8,302.2z"/>
		<path fill="#FFFFFF" d="M199.6,551.3c-0.2-0.2-0.3-0.2-0.3-0.2c0.4-2.9-0.3-5.8,0.6-8.7c0.7-2.2,1.2-4.5,1.9-6.7
			c0.8-2.6,2.5-4.5,5-5.4c1.9-0.7,3.8-1.1,5.8-1.6c0.3-0.1,0.6-0.1,1-0.1c1.4,0.1,1.9,0.9,1.1,2.1c-1.3,2.1-2.9,4-4.2,6.1
			c-1.6,2.6-4,4.7-5.4,7.6c-1.2,2.3-3,4.3-4.6,6.4C200.3,551,199.9,551.1,199.6,551.3z"/>
		<path fill="#FFFFFF" d="M245,369.8c0-2.2,1.1-3.6,2.3-5c2.3,1.1,2.6,1.7,1.2,3.4c-1.7,2.1-3.7,4-5.6,6c-1.1,1.1-2.2,2.1-3.4,3
			c-1.7,1.3-3.6,1.7-5.7,1.1c-1.5-0.4-2.8,0-4.2,0.5c-1.5,0.6-3.2,1.1-4.8,1.5c-0.9,0.2-1.8,0.1-2.3-0.9c-0.4-1-0.1-1.8,0.7-2.6
			c1.4-1.2,2.7-2.5,4-3.8c1-1,2.1-1.5,3.5-1.3c1.7,0.2,3.3,0.4,5,0.7c1.3,0.3,2.5,0.3,3.8-0.2C241.3,371.4,243.1,370.6,245,369.8z"
			/>
		<path fill="#FFFFFF" d="M487.2,282.1c1-0.4,2.1-0.7,3.1-1.1c2.3-0.7,4.7-1.4,7-2.1c1.1-0.3,2.2-0.5,3.3-0.8
			c0.8-0.2,1.6-0.4,2.3-0.8c1-0.6,1.8-0.9,3.1-0.4c0.9,0.3,2.1-0.3,3.2-0.5c1.6-0.2,3.3-0.4,5-0.4c0.6,0,1.3,0.7,1.6,1.2
			c0.1,0.3-0.5,1.1-0.9,1.5c-1.9,1.3-3.9,2.4-6.3,2.7c-1.2,0.1-2.3,0.5-3.5,0.8c-1.6,0.4-3.2,0.9-4.9,1.3c-2.6,0.6-5.2,1.5-7.9,1.8
			c-2.4,0.3-5,0.8-7.1-1.1C485.3,282.7,486.5,282.6,487.2,282.1C487.3,282,487.2,282.1,487.2,282.1z"/>
		<path fill="#FFFFFF" d="M347.2,287.6c-1.3,1.2-2.5,2.3-3.7,3.3c-0.5,0.5-1.3,0.7-1.8,1.2c-1.9,1.7-4,3.1-6.2,4.4
			c-3.7,2.2-7.7,2.8-11.6,3.7c-1.5,0.3-3,0.4-4.5,0.6c-0.4,0-0.8,0.1-1.2,0c-0.9-0.1-2.1-0.1-2.4-1.2c-0.3-1.1,0.3-2.1,1.3-2.6
			c1.4-0.9,2.9-1.4,4.7-0.5c0.7,0.4,1.7,0.3,2.5,0.1c1.9-0.4,3.8-1.1,5.8-0.3c0.4,0.2,1.3-0.3,1.6-0.7c0.9-1.1,1.6-2.4,2.6-3.4
			c1.8-1.7,3.7-3.3,5.7-4.7C342.2,286,344.6,286.2,347.2,287.6z"/>
		<path fill="#FFFFFF" d="M422,315.7c0.8,0.1,1.3,0.3,1.9,0.2c2.7-0.6,5.3-0.4,7.9,0.2c0.9,0.2,1.9-0.1,2.8,0.1
			c1.7,0.4,2.2,1.1,1.8,2.8c-0.3,1.3-0.7,2.5-1,3.7c-0.2,0.9-0.8,1.2-1.7,1.3c-4.4,0.6-8.8,0-13.1-1.2c-1.8-0.5-1.9-1.4-1.4-3.2
			C419.7,317.9,421.2,317.1,422,315.7z"/>
		<path fill="#FFFFFF" d="M395.3,288.7c0.1,0.7,0.3,1.4,0.4,2.4c-1.7,0.6-3.3,1.2-5,1.6c-1.7,0.3-3.5,0.4-5.3,0.5
			c-2,0.2-3.8,0.1-4.2-2.4c-4.2-0.3-8.2-0.5-11.5-3.4c0.4-2.1,2.1-3.1,3.9-3.7c0.7-0.3,1.6-0.4,2.4-0.4c0.5,0,1.1,0.2,1.5,0.5
			c1.8,1.8,3.6,3.8,5.6,5.8c0.4-0.2,1-0.5,1.5-0.8c0.5-0.2,1.2-0.6,1.6-0.5c2.4,0.9,4.6,0.1,6.8-0.5
			C394.1,287.5,394.8,287.8,395.3,288.7L395.3,288.7z"/>
		<path fill="#FFFFFF" d="M386.1,313.1c2.8,2.8,4.1,3.3,5.8,0.5c0.8,0,1.7,0,2.7,0c0.1,0.6,0.2,1.1,0.3,1.7c0.2,0.9,0.8,2.1,0.4,2.7
			c-0.7,1.1-1.9,2-3.1,2.5c-1.5,0.7-2.5,1.6-3.3,3.1c-1.6-0.6-3.2-0.8-4.8-0.1c-0.4,0.2-1.1,0.1-1.6-0.1c-0.8-0.2-1.5-0.6-2.2-0.8
			c-1.6-0.5-2-1-1.8-2.8c0.1-0.7,0.1-1.4,0.3-2.1c0.2-0.8,0.6-1.2,1.5-1.3c1.4-0.3,2.7-0.7,4.4-1.1c0.1,0.4,0.4,1,0.7,1.7
			c0.1-0.2,0.4-0.3,0.4-0.5C385.8,315.5,385.9,314.5,386.1,313.1z"/>
		<path fill="#FFFFFF" d="M166.2,580.6c-0.1-1.2-0.4-2.2-0.1-3c0.5-1.6,1.4-3,2.1-4.5c0.2-0.4,0.5-0.8,0.6-1.3c1-3.1,2-6.3,3.1-9.3
			c0.5-1.4,1.5-2.6,2-4.1c0.7-2,0.9-4.2,1.5-6.3c0.5-1.6,1.1-3.2,1.7-4.9c0.3,0.2,0.7,0.3,0.7,0.5c0.4,2,0.9,3.9,1.1,5.9
			c0.4,4.2-0.7,8-4.1,10.7c-2.9,2.3-3.9,5.2-3.5,8.9C171.9,577.4,171,578.5,166.2,580.6z"/>
		<path fill="#FFFFFF" d="M245,471.6c0.2,2.1,0.3,4.1,0.5,6.2c0.3,2.8-0.1,5.6,0.7,8.5c0.7,2.5,0.5,5.2,0.8,7.9
			c0.1,1.3,0.3,2.6,0.6,3.8c0.5,1.7,0,3.3-0.3,5c-0.1,1-1.1,1.2-1.8,0.4c-1.2-1.4-2-3-1.6-4.8c0.2-0.9,0.2-1.7-0.3-2.5
			c-0.8-1.4-0.9-3-0.8-4.7c0.2-1.9,0-3.8-0.1-5.8c-0.2-4.8,0.2-9.4,1.7-14C244.7,471.6,244.8,471.6,245,471.6z"/>
		<path fill="#FFFFFF" d="M252.3,506.5c1.3,0.3,1.4,1.2,1.2,2c-0.7,3.1-1.2,6.2-2.5,9.2c-1.9,4.2-5.1,7.3-8.2,10.4
			c-0.6,0.6-1.2,1.1-2.3,0.4c0.2-0.5,0.2-1.1,0.5-1.4c3.4-2.9,5.2-6.8,7.1-10.7c1.3-2.7,2.6-5.3,3.1-8.2
			C251.3,507.5,252,507,252.3,506.5z"/>
		<path fill="#FFFFFF" d="M221.7,481.5c-1.8,4.1-3.9,7.9-7.2,11.1c-1.5-0.2-2.3-1.1-2.7-2.5c-0.2-0.6-0.3-1.2-0.5-1.9
			c-0.5-1.7-0.1-2.6,1.4-3.3c2.8-1.3,5.6-2.4,8.3-3.6C221.2,481.2,221.3,481.4,221.7,481.5z"/>
		<path fill="#FFFFFF" d="M261.2,483.5c-3.8-3.8-3.5-14.6,0.4-18.9C263.4,471,262.5,477,261.2,483.5z"/>
		<path fill="#FFFFFF" d="M184.4,606.4c-1.5-1-2.2-2.6-2.6-4.2c-1.3-4.5-2.6-9.1-1.4-13.9c0.3-1.1,0.5-2.2,2.2-2.6
			c0.3,0.9,0.7,1.7,0.7,2.6c0.1,3.7,0,7.5,0,11.2c0,0.4,0,0.8,0.2,1.1C184.7,602.4,184.3,604.4,184.4,606.4z"/>
		<path fill="#FFFFFF" d="M258.1,370.3c-1.2,0-2-0.9-1.6-2.1c0.7-1.8,1.5-3.6,2.4-5.2c0.6-1.1,4.3-1.7,5.2-0.9
			c0.5,0.5,0.9,1.4,0.9,2.1C264.8,366.8,260.7,370.3,258.1,370.3z"/>
		<path fill="#FFFFFF" d="M282.4,348.8c0.7,0.2,1.5,0.3,2.1,0.7c1.1,0.8,1,1.8-0.1,2.7c-1.4,1.2-2.6,2.6-4.6,2.9
			c-1.6,0.3-2.3,0-3-1.3c-0.7-1.4-0.6-2,0.8-3.1C279,349.7,280.3,348.4,282.4,348.8z"/>
		<path fill="#FFFFFF" d="M235.4,507.6c1.4-1.2,2.6-2.2,4-3.4c0.8,1.3,1.5,2.3,2.2,3.3C239.2,508.7,237.3,508.8,235.4,507.6z"/>
		<path fill="#FFFFFF" d="M216.3,469.3c0.2,0,0.7-0.1,1,0.1c0.3,0.2,0.7,0.7,0.7,1.1c0,0.2-0.4,0.7-0.7,0.8
			c-0.7,0.2-1.4,0.2-2.1,0.3c-0.7,0-1.3-0.3-1.3-1.1c0-0.8,0.5-1.1,1.2-1.2C215.4,469.3,215.7,469.3,216.3,469.3z"/>
		<path fill="#FFFFFF" d="M372,316.5c-1.6,1.7-3.8,0.7-5.8,1.7C366.8,316.1,367.4,316,372,316.5z"/>
		<path fill="#FFFFFF" d="M228.6,469.7c-2-0.9-3.9-0.7-4.8-2.8C226.5,466.5,227.6,467,228.6,469.7z"/>
		<path fill="#FFFFFF" d="M104.5,469c-0.5,0.2-0.9,0.5-1.4,0.7c-0.7,0.2-1.7,0.3-1.7-0.7c0-0.5,0.9-1.2,1.6-1.4
			c0.4-0.1,1,0.5,1.5,0.7C104.5,468.6,104.5,468.8,104.5,469z"/>
		<path fill="#FFFFFF" d="M233.3,466.1c1,0.6,1.7,1.3,1.3,2.6C232.8,468.4,232.5,467.9,233.3,466.1z"/>
		<path fill="#FFFFFF" d="M400.6,320.7c-0.3-1.1-0.3-1.8,0.6-1.9c0.3,0,0.7,0.8,1.1,1.2C401.8,320.2,401.2,320.4,400.6,320.7z"/>
		<path fill="#FFFFFF" d="M325.5,337.3c0.3,1.7-0.8,1.8-2,2.4C323.8,338.3,324.4,337.7,325.5,337.3z"/>
		<path fill="#FFFFFF" d="M234.6,473c0.4,0.5,0.7,0.7,0.7,0.9c0,0.2-0.3,0.4-0.5,0.6c-0.2-0.2-0.4-0.3-0.5-0.5
			C234.2,473.8,234.4,473.5,234.6,473z"/>
		<path fill="#FFFFFF" d="M470.6,285.7c0.3,0.3,0.6,0.7,0.9,1c-0.1,0.1-0.2,0.3-0.4,0.4c-0.4-0.3-0.7-0.6-1.1-0.9
			C470.3,286,470.5,285.8,470.6,285.7z"/>
		<path fill="#FFFFFF" d="M395.4,288.7c0.8-0.7,1.6-1,2.7,0.4C397,288.9,396.2,288.8,395.4,288.7
			C395.3,288.7,395.4,288.7,395.4,288.7z"/>
		<path fill="#FFFFFF" d="M263.8,373.5c-0.1,0.2-0.1,0.3-0.2,0.4c-0.2-0.1-0.4-0.2-0.5-0.3c0,0,0.1-0.2,0.1-0.4
			C263.5,373.4,263.7,373.5,263.8,373.5z"/>
		<path fill="#FFFFFF" d="M487.2,290.7c-0.1,0.1-0.2,0.2-0.2,0.3c-0.1-0.1-0.3-0.2-0.4-0.4c0.1-0.1,0.2-0.2,0.3-0.2
			C487,290.5,487.1,290.7,487.2,290.7z"/>
		<path d="M355.1,263.5c-0.1-0.2-0.2-0.4-0.2-0.6c0,0,0.3-0.2,0.4-0.2c0.1,0.1,0.2,0.3,0.3,0.5C355.5,263.4,355.3,263.4,355.1,263.5
			z"/>
	</g>
</g>
</svg>
