<?xml version="1.0" encoding="utf-8"?>
<!-- Generator: Adobe Illustrator 19.1.0, SVG Export Plug-In . SVG Version: 6.00 Build 0)  -->
<svg version="1.1" id="Layer_1" xmlns="http://www.w3.org/2000/svg" xmlns:xlink="http://www.w3.org/1999/xlink" x="0px" y="0px"
	 viewBox="-122 -123.6 595.3 841.9" style="enable-background:new -122 -123.6 595.3 841.9;" xml:space="preserve">
<style type="text/css">
	.st0{fill:#FFFFFF;}
</style>
<g>
	<g>
		<path d="M272.1-188.7c-1.4,1.6-3.2,1.3-4.8,0.9c-1.3-0.3-2.4-0.3-3.7-0.2c-2,0.2-4.1,0.2-6.1,0.1c-0.7,0-1.5-0.5-2.2-0.8
			C260.8-188.7,266.5-188.7,272.1-188.7z"/>
		<path d="M252.8-188.7c-1.4,0.9-2.9,1.2-4.3,0C249.9-188.7,251.4-188.7,252.8-188.7z"/>
		<path class="st0" d="M365.2,158.5c-0.3-1.7,0-2.3,1.4-3.1c0.9-0.6,1.9-1.2,2.7-1.8c2.2-1.7,4.7-2.5,7.5-2.8c0.4,0,0.9-0.2,1.3-0.3
			c4.5-1.9,9.1-3.4,14-3.4c1.8,0,3.5,1,5.3,1.6c0.5,0.1,0.9,0.4,1.3,0.6c1.2,0.4,2.7,0.3,2.9,2c0.2,1.8,0.4,3.8-1.4,5.1
			c-2.6,1.9-4.8,4.5-8.4,4.7c-0.9,0-2,0.6-2.5,1.3c-1.8,2.2-4.3,2.1-6.7,2.6c-3.3,0.6-6.7,1.4-10.5,2.2c1.6,1.4,2.9,2.2,4.3,2.7
			c1.9,0.6,3.1,1.9,4,3.6s0.1,3.3-0.9,4.7c-3.2,4.7-7.7,6.8-13.4,6.6c-2.2-0.1-4.3,0-6.5,0.2c-3.3,0.4-6.1-1.1-9.1-1.8
			c-2.6-0.6-5-1.6-7.5-2.5c-0.5-0.2-1.1-0.2-1.6-0.5c-3.3-1.8-7-1.5-10.6-1.7c-0.5,0-1.1,0.3-1.6,0.4s-1.2,0.4-1.6,0.2
			c-2-0.6-3.8,0.1-5.6,0.5c-2.7,0.5-5.4,1-8,1.6c-1.6,0.3-3.1,0.9-4.6,1.2c-1.5,0.4-3,0.7-4.4,1c-2.7,0.5-5.6,0.8-8.2,1.6
			c-3.9,1.1-7.7,2.5-11.6,3.8c-1.2,0.4-2.5,0.6-3.7,1.2c-0.6,0.3-1.2,0.9-1.3,1.5c-0.1,0.3,0.6,1.1,1.1,1.3c1.7,0.7,3.5,1.2,5.2,1.8
			c-0.8,1.3-2,0.5-3.3,0.4c-0.1,0.8-0.1,1.5-0.1,2.1c3.3,0.5,6.4,1,9.9,1.6c-0.4-1-0.6-1.6-0.8-2.2c-0.3-1-0.2-1.8,0.8-2.5
			c1.6-1,3-2.2,4.5-3.3c0.4,0.3,0.6,0.6,1,1c0.1-0.2,0.3-0.4,0.3-0.7c0.4-1.4,1.3-1.8,2.7-1.9c2.6-0.3,5.2-0.9,7.8-1.1
			c1.1-0.1,2.2,0.1,3.3,0.4c1.1,0.3,2.1,0.7,3.2,1.1c1,0.4,2.1,0.7,3.1,1.2c0.7,0.3,1.4,0.9,1.7,1.5c1,1.7,1.8,3.6,2.5,5.4
			c0.3,0.7,0.3,1.7,0,2.2c-2.2,3.7-5.1,6.5-9.8,7.4c-3.1,0.5-6.2,0.6-9.3,1c-2.9,0.4-5.8-0.3-8.3-2c-3.3-2.2-7-3-10.6-4.1
			c-0.8-0.2-1.8-0.2-2.6-0.1c-2.8,0.4-5.6,0.4-8.4,0c-0.7-0.1-1.5,0-2,0.4c-3.5,2.2-7.3,3.3-11.4,3.6c-1.9,0.2-3.8,0.6-5.7,0.9
			c-3.4,0.5-5.4-0.7-6.2-4c-0.1-0.5-0.2-1.1-0.2-1.7c-0.1-2.8-0.8-3.3-3.4-2.3c-2.9,1.1-5.9,2-8.8,3.2c-1.3,0.5-2.4,1.3-3.6,1.8
			c-3.1,1.4-6.2,2.6-9.6,3c-3.3,0.4-5.6,2.2-7.1,5.1c-0.7,1.4-1.5,2.8-3,3.7c-0.4,0.2-0.5,0.8-0.8,1.1c-0.3,0.3-0.5,0.8-0.9,1
			c-3,1.2-5.4,3-7.4,5.4c-0.3,0.4-0.7,0.7-1,1c-3.7,2.8-6.3,6.5-8.7,10.3c-0.7,1.1-1.7,2.1-2.7,3.1c-2.1,2-2.9,4.6-3.4,7.3
			c-0.4,2.2,0.3,3,2.6,2.9c2.6-0.1,5.3-0.2,7.9-0.7c3.5-0.6,6.5-2.2,9.3-4.3c2.1-1.5,4.3-2.4,6.8-2.8c4.2-0.6,6.7-3.1,7.9-7.1
			c1.2-3.8,3.2-7.1,6.5-9.5c1.7-1.2,3.2-2.7,4.8-3.9c2-1.5,4.3-1.9,6.9-1.4c1.5,0.3,3,0,4.6,0.2c1.3,0.2,2.7,0.4,3.9,0.9
			c1.9,0.8,3.6,1.9,5.7,2.4c1.9,0.4,2.3,2.5,3.1,4c0.6,1.3,0.5,2.6-0.4,3.8c-1.2,1.6-2.3,3.2-3.5,4.8c-1.2,1.6-2.3,3.2-3.9,4.4
			c-1.8,1.3-3.4,2.8-5.3,4c-1.1,0.7-2.5,1.1-3.8,1.3c-3.2,0.4-6.3,0.8-9.5,0.7c-2.6-0.1-5.4,0.5-7.7,2.3c-1.6,1.2-3.6,2.1-5.4,3.1
			c-3.4,1.8-6.8,3.6-10.1,5.5c-0.3,0.2-0.6,0.2-0.8,0.5c-3.3,3-7.6,4.5-11.5,6.4c-1.4,0.7-2.8,1.2-4.1,1.9c-2.6,1.5-5.2,1.1-7.9,0.6
			c-2.3-0.4-4.6-0.9-6.8-1.4c-1.4-0.3-2.6,0.1-3.7,0.8c-2,1.3-3.9,2.7-5.9,4.1c-0.5,0.3-1.1,0.7-1.6,0.9c-1.6,0.5-3.2,0.9-4.7,1.6
			c-1.8,0.8-3.6,1.8-5.4,2.7c-1.1,0.5-1.5,1.1-1.1,2.3c0.3,1,0.6,2,0.7,3.1c0.3,1.9,0.4,3.8,0.7,5.7c0.2,1.2,0.2,2.4,0.7,3.5
			c1.5,3.7,1.4,7.4,0.4,11.1c-1.4,5.2-2.8,10.4-4.2,15.6c-0.2,0.9-0.2,1.6,0.4,2.2c1,1,0.8,2,0.2,3.2c-1.4,2.8-2.3,5.8-3.7,8.6
			c-0.8,1.8-1.9,3.6-3.1,5c-1.3,1.6-1.5,3.5-1.5,5.1c-0.1,2.3,0.6,4.6,1,6.9c0.1,0.4,0.1,0.8,0.3,1.2c1.2,2.9,0.5,5.8,0.2,8.7
			c-0.5,4.6-2.2,8.8-4.1,13c-0.8,1.9-1.3,4-1.8,6c-0.6,2.2-1,4.4-1.5,6.6c-0.1,0.5-0.1,1-0.4,1.4c-1.5,2.1-1.7,4.6-2.4,7
			c-1.2,4-2.6,7.9-5.6,11c-1.5,1.5-2.6,3.4-3.8,5.3c-1,1.5-2,3.1-3.7,3.7c-2.8,1-5.8,1.7-8.8,2c-1.8,0.2-2.6-1.1-2.8-2.9
			c-0.1-0.7-0.3-1.4-0.6-2c-0.6-1-0.5-1.8,0.3-2.6c0.8-1,1.7-1.9,2.4-3c0.9-1.4,1.7-2.9,2.5-4.3c0.4-0.8,0.8-1.6,1.2-2.4
			c0.6-1.2,0.3-1.9-0.9-2.2c-2.5-0.6-5-1.1-7.5-1.5c-0.6-0.1-1.2,0.2-1.8,0.4c-1.4,0.5-2.7,1-4,1.5c-0.1,0.1-0.3,0-0.5,0.1
			c-3.5,2.2-7.4,0.8-11.1,0.8c-1.2,0-2.2-0.4-3-1.3c-2.4-2.4-5.3-3.7-8.6-4c-2.8-0.3-3.8-2.3-4.6-4.5c-0.1-0.4,0-0.8-0.1-1.2
			c-0.4-1.7-2-2.6-3.2-1.5c-1.8,1.7-4,3.1-4.7,5.9c-0.5,2,0,3.8,0.5,5.7c0.6,2.4,1.1,4.8,1.3,7.3c0.2,2.7,1.1,5.3,1.7,8
			c0.4,1.4,1.2,1.8,2.6,1.2c0.4-0.2,0.9-0.5,1.2-0.8c1.8-1.8,4.2-2.5,6.5-3.4c1.5-0.6,2.8-1.5,4.1-2.4c1-0.7,1.9-1,3.1-0.6
			c1.7,0.7,3.5,0.5,5.2,0c1.4-0.4,2.7-0.6,3.7,0.8c0.9,1.3,0.9,3.5-0.2,4.7c-1.3,1.5-0.9,3.2-0.8,4.8c0,0.5,0.7,1,1.2,1.4
			c2.4,1.9,4.8,3.8,7.2,5.7c2.5,2,4,4.8,5.5,7.5c2.5,4.6,3.9,9.6,4.8,14.8c0.4,2.4,0.8,4.8,1.2,7.1c0.5,2.7,1.3,5.1,3.9,6.6
			c1.6,1,3.1,2.1,4.6,3c1.8,1.1,2.5,3.4,1.1,4.7c-2.3,2.3-4.9,4.4-8.1,5.4c-4.3,1.4-8.7,2.2-13.2,2.6c-1.6,0.1-2.7,0.9-3.6,2.1
			c-2.4,3.2-5.1,5.8-9,7.2c-5.2,1.9-5.2,2.1-9.9-0.7c-1.8-1-3.3-2.5-4.9-3.9c-0.6-0.5-1-1-1.6-1.4c-1.2-0.8-2.4-1.5-3.7-2.3
			c-0.7,0.8-0.3,1.4,0,2c0.6,1.3,1.3,2.6,2,3.8c1,1.9,2.5,3.3,4.7,3.3s3.1,2.1,4.8,2.9c0.2,0.1,0.3,0.6,0.2,0.9
			c-0.6,1.5-0.9,3-2.4,4c-2.5,1.6-4.8,3.5-7.2,5.2c-0.3,0.2-0.6,0.3-0.8,0.6c-1.7,2.1-3.8,2.2-6.3,1.8c-1.8-0.3-2.9-1.4-3.9-2.5
			c-3.6-3.8-6.8-7.8-8.8-12.8c-0.9-2.1-2.1-4.1-3.2-6.2c-1-1.9-1.4-2-3.3-1c-1.8,0.9-3.7,1.9-5.6,2.7c-0.9,0.4-1.8,0.6-2.8,0.7
			c-1.9,0.1-3.3,1-4.1,2.5c-1.6,3-3.5,5.9-4.9,9.1c-1.6,3.5-2.1,7.2-3.2,10.7c-0.1,0.4-0.2,0.8-0.4,1.1c-2.3,4.1-4,8.4-5.5,12.7
			c-0.7,1.8-0.6,3.9-1,5.9c-0.4,2.6-0.8,5.2-1.4,7.8c-0.3,1.5-1.1,2.8-1.5,4.3c-0.2,0.8-0.2,1.7-0.3,2.6c-1.7,0.7-9,0.8-13,0.2
			c0.5-1.4,1.1-2.6,1.4-4c0.8-3.5,1.5-7,2.2-10.6c0.5-2.9,1.5-5.5,2.6-8.2c1.3-3.3,2.2-6.9,3.5-10.2c1.2-3.1,2.7-6,4-9
			c1.1-2.7,2-5.6,3-8.3c0.8-2.3,1.6-4.7,3.3-6.6c1-1.1,1.8-2.5,2.4-3.8c0.5-1.1,1.2-1.8,2.5-2c0.8-0.1,1.5-0.5,2.3-0.7
			c1-0.2,2-0.6,3-0.5c2.1,0.2,3.9-0.6,5.7-1.5c1.1-0.5,2.1-1.1,3.2-1.6c1.3-0.6,2.6-1.1,3.3-3.2c-2.1,0.7-3.8,1.1-5.5,1.8
			s-3.2,0.9-4.7-0.3c-0.6-0.5-1.6-0.8-2.4-0.9c-1.8-0.3-2.6-1-2.8-2.8c-0.1-0.8,0-1.6,0.1-2.4c1.1-5.8,2.4-11.6,4.1-17.3
			c0.8-2.9,2.1-5.5,2.9-8.3c0.7-2.7,1.1-5.4,3.2-7.4c0.2-0.2,0.3-0.7,0.3-1.1c0.2-5.6,3-10.2,5.4-15c2-4,4.1-8,6.1-12
			c2.4-4.6,4.9-9.2,7.1-13.9c1.3-2.7,2.4-5.4,4.1-7.8c2.3-3.4,4.5-6.8,6.7-10.2c0.5-0.8,1.4-1.3,2.1-2c0.5-0.5,1-1,1.5-1.6
			c0.6-0.1,1.5,0,2-0.3c1.4-0.9,2.8-1.5,4.4-1.8c1.9-0.4,2.1-1,1.1-2.6c-0.2-0.3-0.5-0.7-0.7-1c-1.9-2.5-1.8-3.4,0.1-6
			c1.7-2.3,3.3-4.7,4.9-7.1c0.3-0.4,0.5-1,1-1.9c-2,0.9-3.3,1.7-4.4,2.9c-2.2,2.3-4.4,4.7-6.7,6.9c-0.7,0.6-1.5,1.2-2.4,1.5
			c-2.2,0.6-3.8,2-5.2,3.7c-2.4,3-5,5.8-7.9,8.4c-3.1,2.8-5.8,6.1-7.9,9.8c-0.9,1.6-1.8,3.2-2.8,4.8c-0.4,0.6-1,1.1-1.7,1.8
			c-2.7-3.3-5.3-6.4-7.8-9.5c-1.3-1.7-2-3.8-2.2-6c-0.1-0.7-0.4-1.3-0.6-2.1c-1.3,0.8-1.1,1.9-0.9,2.7c0.5,2.5,0.6,5,0.6,7.6
			c0,2.1,0.8,4.5,1.9,6.4c1.9,3.4,1,6.7,0.1,10c-0.7,2.5-1.4,4.9-2,7.4c-0.1,0.4,0.1,0.8,0.1,1.2c0,0.9,0.3,2-0.1,2.8
			c-1.7,3.7-1.6,7.7-2.3,11.5c-0.9,5.3-1.4,10.7-3.4,15.7c-0.3,0.7-0.4,1.4-0.6,2.1c-0.6,2.1-1.2,4.1-1.8,6.2
			c-0.5,1.8-1,3.7-1.5,5.6c-0.1,0.2-0.2,0.5-0.1,0.7c1,2-0.4,3.4-1.2,5.1c-0.8,1.9-1.3,3.9-2,5.9c-0.1,0.4,0,1-0.3,1.1
			c-2,1.5-2.1,4.1-3.5,5.9c-1.2,1.6-1.9,3.5-2.7,5.3c-1.4,3.7-2.8,7.3-4.1,11.1c-0.9,2.7-1.7,5.5-2.6,8.2c-1.3,3.8-2.8,7.5-4.1,11.2
			c-0.7,2-1.1,4-1.7,6c-0.9,2.8-2,5.6-3,8.4c-0.4,1.1-1,2.2-1.3,3.4c-1.1,4.7-1.9,9.4-3.8,13.9c-0.4,1.1-0.5,2.3-0.7,3.5
			c-0.2,0.8-0.5,1.4-1.4,1.4c-2.5,0.1-5.1,0.2-7.7-0.1c0-0.6-0.1-0.9,0-1.2c0.8-2.4,1.7-4.8,2.5-7.3c1-3.1,1.7-6.2,2.7-9.2
			c1.2-3.6,2.6-7.2,4-10.8c2.4-6.3,5.3-12.4,7.3-18.8c1.4-4.3,3.5-8.5,4-13.1c0.1-0.8,0.4-1.5,0.8-2.3c2.3-5.1,3.8-10.5,5.4-15.9
			c1-3.3,2.5-6.4,3.7-9.6c0.4-1.2,0.8-2.4,1.1-3.7c1.7-6.2,3.3-12.4,4.9-18.6c0.3-1.3,0.6-2.7,0.9-4c0.5-2.7,1-5.5,1.5-8.3
			c0.1-0.5,0.1-1,0.3-1.4c1.5-2.9,1.8-6.1,2.7-9.2c0.2-0.8,0.3-1.6,0.4-2.4c0.1-0.8,0.2-1.6,0.4-2.4c0.8-2.9,1.7-5.7,2.4-8.6
			c0.3-1.2,0.2-2.6,0-3.8c-0.7-3.4-1.5-6.7-2.3-10.1c-0.7-2.6-0.2-5.1,0.3-7.6c0.7-3.3,0.9-6.7,0.7-10c-0.1-1.3-0.6-1.9-2.4-2.3
			c-2.2-0.5-4.4-0.8-6.6-1.2c-2.1-0.4-4.3-0.7-6.4-1.2c-2.9-0.7-5.2-2.3-7.5-4.2c-1.8-1.5-3.6-2.9-5.4-4.4c-1-0.8-2.1-0.8-3.4-0.4
			c-2.5,0.7-4.7,1.8-6.9,3.2c-1.9,1.2-3.9,2.2-6.3,2.3c-0.6,0-1.3,0.3-1.8,0.7c-2.6,1.8-5.4,2-8.2,0.7c-1.9-0.9-3.4-2.3-3.5-4.5
			c-0.1-2,0.3-4,1.9-5.6c1.4-1.4,2.9-2.6,4.2-3.9c0.9-1,1.8-2,2.5-3.2c0.8-1.4-0.1-2.7-1.7-2.9c-2.5-0.3-5.1-0.7-7.6-1.1
			c-1.8-0.3-3.7-0.4-5.4-0.9c-1.2-0.3-2.3-1.1-3.4-1.7c-1.5-0.9-2.9-2-4.4-2.9c-4.5-3-8.4-8.5-6.5-14.5c1.1-3.5,2.9-6.3,4.6-9.4
			c1.8-3.4,4.8-5.2,7.3-7.8c1.8-1.8,3.8-3.5,5.9-4.9c2-1.4,4.3-2.4,6.5-3.5c0.5-0.3,1-0.6,1.4-0.9c1.9-1.1,3.6-2.7,6-2.9
			c0.4,0,0.8-0.3,1.1-0.5c2.4-1.7,4.9-1.8,7.5-0.5c0.5,0.2,1,0.4,1.9,0.7c0.3-0.8,0.6-1.5,0.8-2.2c0.5-3.1,1.1-6.2,1.5-9.3
			c0.3-2.3,1.6-4,3-5.7c1.3-1.5,2.6-3,3.8-4.6c0.7-0.9,1.4-1.2,2.4-1.3c9.4-1,17.8,1.1,25.1,7.3c1.4,1.2,3.1,1.9,4.7,2.9
			c2.7,1.7,5.5,3.3,8.4,5.1c0.5-1.6,1.1-3.1,2.6-4c0.3-0.2,0.6-0.5,1-0.6c4.4-1.1,8.7-1.9,12.7,1.2c1.5,1.2,3,2.4,4.5,3.6
			c2.1,1.8,4.2,3.8,6.2,5.6c2.5,2.2,3.7,5.2,4.9,8.2c0.3,0.8,0.5,1.7,0.8,2.5c0.6,1.5,0.6,2.9,0.1,4.4c-1.2,4-2.4,8-3.2,12.1
			c-0.5,2.8-1.5,5.4-2.7,7.9c-0.5,1-0.2,1.9,0.3,2.7c0.8,1.3,1.6,2.6,2.4,3.9c1,1.4,0.8,2.8,0.1,4.3c-2.2,4.8-5.7,8.3-10.3,10.6
			c-1.6,0.8-3.1,1.2-4.9,0.9c-0.2,0-0.5,0-0.7-0.1c-4.9-0.1-3.8-1-6.3,4c-0.5,1-1.2,1.9-1.9,2.7c-1.1,1.3-1.8,2.6-1.9,4.3
			c-0.1,1-0.5,2-1,3c-1.7,3.4-2,7.1-2.5,10.7c0,0.3,0,0.7,0.1,0.9c1.3,2.3,2.2,4.8,4.1,6.8c1.8,1.8,3,1.8,4.5-0.3
			c1.6-2.1,3-4.3,4.5-6.4c0.3-0.5,0.7-1,1.1-1.3c4.2-2.7,7.1-6.7,11-9.6c2.6-2,5.1-4.1,7.5-6.4c2.5-2.4,4.7-5,7-7.6
			c1.1-1.2,2.4-2.4,3.5-3.6c0.7-0.7,1.6-1.4,2.2-2.2c2.3-2.8,4.9-5.6,6.5-8.9c0.9-2,1.6-4,1.5-6.2c-0.1-1.6-0.1-3.2,0-4.8
			c0.1-1.2,0.5-2.5,0.9-3.7c0.6-1.7,1.1-3.5,2-5.1c1-1.6,2.3-3.1,3.7-4.4c0.8-0.7,2.2-0.9,3.4-1c2.6-0.2,2.8-0.2,3.5-2.7
			c1.4-4.8,2.7-9.6,4.1-14.3c1-3.5,2.2-7,3.1-10.6c0.7-2.6,1-5.4,1.4-8.1c0.2-1-0.2-1.9-1.2-2.6c-3.2,1.7-6.7,2.7-10.3,3.5
			c-3.7,0.8-7.3,0.6-11,0.2c-1-0.1-2.1-0.5-3-0.9c-2.1-1-2.1-2-0.8-3.9c1.2-1.8,2.5-3.3,4.2-4.5c0.4-0.3,0.6-0.7,0.9-1.1
			c-1.4-1.6-3.2-2.2-5.1-2.6c-2.9-0.6-5.6-1.5-7.6-3.8c-0.8-1-1.6-2.1-2-3.2c-0.7-1.8-1.1-3.7-1.6-5.5c-0.7-2.6-0.2-5,0.5-7.6
			c0.9-3.5,2.9-6.4,4.2-9.7c0.3-0.6,0.8-1.2,1.3-1.7c0.8-0.8,1.7-1.5,2.4-2.3c1.9-2.1,3.7-4.2,5.6-6.2c0.5-0.5,1.1-0.9,1.7-1.4
			c1.5-1.1,2.9-2.3,4.4-3.3c0.8-0.6,1.9-0.8,2.8-1.2c1.9-0.6,2.2-1,2-3c-0.6-4.5-0.2-9,0.3-13.4c0.3-2.5,1.4-4.9,2.2-7.3
			c0.2-0.8,0.6-1.5,0.8-2.2c0.9-3.4,3.7-5.8,7.1-6.3c2.5-0.3,4.5,0.2,6.5,1.7c2.3,1.7,4.7,3,7,4.7c3.2,2.4,5.3,5.5,6,9.5
			c0.1,0.7,0.3,1.4,0.6,2.1c0.8,2.4,1.7,2.9,4.2,2.3c1.2-0.2,2.4-0.4,3.5-0.6c1-0.2,1.8,0,2.1,1c0.3,0.9,1,1.3,1.9,1.6
			c1.8,0.7,3.4,1.7,5.2,2.6c0.7,0.4,1.4,0.7,2.1,1.1c0.5,0.3,1.1,0.5,1.4,0.9c1.7,2.4,4.1,4,6.6,5.5c3.1,1.9,4.5,5.7,3.6,9.4
			c-0.6,2.5-1.8,4.4-3.6,6c-0.5,0.4-0.9,0.9-1.2,1.5c-1.1,2.2-1,2.7,0.8,4.4c0.7,0.7,1.6,1.3,2.4,1.9c2,1.5,2.3,3.5,0.5,5.3
			c-0.8,0.8-1.8,1.6-2.9,2.1c-2.5,1.1-5,2.3-7.5,3.1c-1.3,0.4-2.9,0.2-4.3,0c-0.9-0.1-1.6,0.1-2.1,0.9c-0.7,1.2-1.7,2.2-2.1,3.5
			c-0.7,2.5-2,4.5-3.9,6.2c-0.8,0.7-1.3,1.6-0.5,2.9c2.8-0.5,4.9-2.4,7.1-3.8c3.6-2.2,7-4.7,10.5-7.1c0.9-0.6,1.9-0.9,2.8-1.4
			c0.6-0.3,1.4-0.6,1.8-1.1c0.6-0.8,1.2-1,2.2-1.1c0.8,0,1.6-0.6,2.3-1.1c1-0.7,1.8-1.5,2.8-2.2c2-1.3,4.2-2.3,5.4-4.5
			c0.1-0.2,0.3-0.4,0.5-0.5c2.6-2.1,5.4-4,7.8-6.3c2.9-2.7,6.2-5,8.6-8.4c0.8-1.1,1.9-1.9,2.9-2.8c2.2-1.9,4.6-3.8,6.7-5.8
			c1.9-1.7,3.8-3.4,4.6-6c0.6-1.8,1.8-3.1,3.1-4.5c2.2-2.2,4.3-4.6,6-7.2c0.9-1.2,1.1-3,1.3-4.5c0.1-0.7-0.5-1.5-0.9-2.1
			c-1.2-1.7-3.3-1.9-5-2.6c-0.4-0.2-1.3,0.2-1.7,0.5c-4,3.5-8.9,4.3-14,4.1c-1.8-0.1-3.7,0-5.5,0.2c-3,0.3-4.8-1.5-6.4-3.5
			c-0.4-0.5-0.4-1.7-0.1-2.5c0.4-1.1,1.2-2.1,2-2.9c1-1,1-1.9,0.5-3c-0.2-0.4-0.4-0.9-0.8-1.2c-2.1-1.7-3.1-4.1-4.6-6.1
			c-1.3-1.8-3-3.4-4.4-5.1c-0.7-0.9-1.3-1.8-1.8-2.8c-0.8-1.3-1.4-2.7-2.8-3.6s-1.3-2.4-0.7-3.7c0.5-1.1,1.2-2.2,2-2.9
			c5.7-4.9,11.5-9.8,17.4-14.6c2-1.6,4.5-2.5,6.5-4c3.4-2.5,7.3-4,11.2-5.3c1.8-0.6,3.6-0.9,5.2,1.1c0.4-0.8,0.8-1.4,1-2.1
			c1.3-4.6,3.8-8.7,5.8-12.9c0.5-1.1,1.4-1.9,2.2-2.8c2.4-2.6,4.9-5.1,7.1-7.8c2.3-2.9,5.5-3.7,8.8-3.7c1.3,0,2.8,1.2,3.9,2.1
			c2.4,2.1,3.6,4.9,4.7,7.8c0.5,1.3,1,2.7,1.8,3.9c2.5,4.1,4.1,8.5,4.7,13.3c0.2,1.9,0.7,3.8,1.2,5.6s1.2,2.1,2.9,1.6
			c3.9-1,7.1,0.4,10.4,2.5c2.9,1.8,4.6,4.8,7.4,6.8c1,0.7,1.6,2,2.3,3c1.7,2.3,3.3,4.7,5,7c1.1,1.5,1.1,3.2,1.2,4.8
			c0.1,1.7,0,3.5-0.6,5c-0.5,1.3-1.6,2.6-2.8,3.5c-1.8,1.3-2.5,2.7-2.2,4.9c0.4,2.9-1.7,4.4-3.6,5.8c-2.9,2-6.1,3.1-9.7,3.2
			c-2.5,0.1-4.9,0.6-7.4,0.8c-1.1,0.1-2.2-0.1-3.3-0.4c-3.1-1-5.4-0.4-7.5,2.1c-0.7,0.9-1.6,1.6-2.1,2.6c-1.1,1.9-2.8,2.5-4.7,3
			c-2.6,0.7-5.3,1.3-7.9,2.1c-0.8,0.2-4.6,5-4.8,5.8c-0.3,1.6,0.6,2.8,2.2,2.6c3.4-0.6,6.9,0.2,10.2-1.4c0.8-0.4,1.7-0.5,2.6-0.7
			c3.6-0.8,7.2-1.6,10.8-2.4c1.8-0.4,3.5-1.2,4.7-2.6c0.5-0.6,1.1-1.1,2-1.1c0.4,0,1-0.2,1.3-0.5c1.2-1,2.5-1.3,4-1.2
			c0.6,0.1,1.3-0.1,1.8-0.5c2.4-1.8,5.2-2.5,7.9-3.5c0.7-0.3,1.6-0.5,2.2-1c1.4-1,3-1.4,4.7-1.5c0.3,0,0.7,0,0.9-0.2
			c1.7-1.2,3.9-1.5,5.6-2.5c6-3.4,12.5-5.6,18.7-8.5c3.6-1.7,7-3.5,10-6.1c2.3-1.9,4.8-3.3,7.2-5.1c2-1.5,4.1-2.8,6-4.4
			c2.2-1.8,4.8-2.5,7.3-3.5c3-1.2,6.2-2.3,9.2-3.4c1.5-0.5,2.8,0.1,4.1,0.7c1.6,0.9,3.3,1.7,4.9,2.6c0.6,0.3,1.1,0.9,1.5,1.4
			c0.5,0.5,0.8,1.2,0.9,1.3c0.1,2,0.1,3.7,0.3,5.3c0.4,2.5,0.2,3.1-2,4.3c-0.6,0.3-1.2,0.5-1.7,0.8c-1.8,0.9-1.8,0.9-2.6,2.9
			c-0.4,0-0.7-0.1-1.4-0.2c0.3,0.9,0.5,1.7,0.8,2.7c-2.6,1.2-5.2,2.7-7.9,3.6c-2.4,0.8-5,1-7.5,1.4c-1.1,0.2-2.2-0.1-2.9,1.2
			c-0.2,0.3-0.9,0.2-1.3,0.4c-0.7,0.3-1.4,0.6-2,1.1c5.4,0.2,10.8-0.6,16.6,0c0.4-0.5,1-1.3,1.8-2.3c0.5,0.3,1.3,0.6,1.4,1
			c0.1,0.5-0.4,1.2-0.8,1.6c-1.5,1-2.6,2.3-3.5,3.9c-0.1,0.2-0.1,0.4-0.2,0.9c0.7,0.3,1.3,0.6,2,0.7c3.4,1,6.8,1.6,10.4,1.9
			c1.5,0.1,3,0.5,4.5,0.7c2,0.2,3.8-0.6,5.4-1.6c0.8-0.5,0.9-2.1,0.3-2.8c-1.2-1.3-2.2-2.4-4.4-2.2c-3,0.2-6.2-0.5-9.2-0.9
			c-1.3-0.2-1.4-0.6-0.8-2.4c0.4,0.4,0.8,0.8,1.3,1.2c0.8-0.9,1.2-2.3,2.8-2.4c0.2,0,0.7-1.1,0.6-1.7c-0.2-1.4-0.7-2.9-1.1-4.6
			c-1.2,0.8-2.4,1.5-3.6,2.3c-0.1-0.1-0.3-0.2-0.4-0.3c0.2-1.2,0.4-2.4,0.6-3.4c1.4-0.8,2.6-1.5,3.8-2.1
			C362.6,157.1,363.9,158.4,365.2,158.5c-0.8,0.5-2,0.6-2,2.1c2.1,1.9,4.7,1.3,7.1,1.1c2.7-0.3,5.3-1.2,7.9-1.8
			c1.6-0.4,3.3-0.8,4.9-1.3c1.2-0.3,2.3-0.7,3.5-0.8c2.4-0.2,4.4-1.3,6.3-2.7c0.5-0.3,1.1-1.2,0.9-1.5c-0.3-0.5-1-1.2-1.6-1.2
			c-1.7,0-3.3,0.2-5,0.4c-1.1,0.1-2.4,0.8-3.2,0.5c-1.3-0.5-2.1-0.2-3.1,0.4c-0.7,0.4-1.5,0.6-2.3,0.8c-1.1,0.3-2.2,0.5-3.3,0.8
			c-2.4,0.7-4.7,1.4-7,2.1C367.3,157.8,366.3,158.1,365.2,158.5z M273.4,165.1c-0.6-0.9-1.3-1.2-2.4-0.9c-2.2,0.6-4.4,1.4-6.8,0.5
			c-0.4-0.2-1.1,0.3-1.6,0.5c-0.6,0.2-1.1,0.6-1.5,0.8c-1.9-2-3.7-4-5.6-5.8c-0.3-0.3-1-0.5-1.5-0.5c-0.8,0-1.6,0.1-2.4,0.4
			c-1.8,0.7-3.5,1.6-3.9,3.7c3.3,2.9,7.4,3.1,11.5,3.4c0.4,2.5,2.2,2.6,4.2,2.4c1.8-0.2,3.5-0.2,5.3-0.5c1.7-0.3,3.3-1,5-1.6
			C273.6,166.5,273.5,165.8,273.4,165.1c0.8,0.1,1.6,0.2,2.7,0.4C275,164.1,274.2,164.4,273.4,165.1z M14.2,314.7
			c1.7,0.4,2.2,0.8,2.9,2.4c0.5,1.2,0.9,2.4,1.5,3.5c1.1,2,4,3,6.1,2.2c1.7-0.6,2-2,0.7-3.2c-0.8-0.7-1.7-1.3-2.3-2.1
			c-1-1.2-0.7-2.4,0.6-3.3c0.4-0.2,0.9-0.4,1.3-0.5c0.9-0.2,1.3-0.6,1.4-1.6c0.1-1.7,0.2-3.3-0.4-5c-0.7-1.8,0.4-3.6,2.3-4
			c1.3-0.3,2.7-0.8,4-0.7c2.7,0.4,4.5-1.2,6.5-2.4c1.3-0.8,2.6-1.6,4-2.2c2.5-1.1,3.7-0.9,5.6,1.1c1.4,1.5,2.7,3.2,4,4.8
			c2.4,2.9,5.2,4.9,9.2,5c0.6,0,1.2,0.3,1.8,0.5c0.7,0.2,1.4,0.5,2,0.8c1.2,0.4,2.1,0.1,2.6-1c0.7-1.4,1.5-2.9,2-4.4
			c1.2-3.6,2.3-7.2,3.3-10.8c0.4-1.5,0.6-3.2,0.3-4.7c-0.7-4.7-2.5-9-6.4-12c-0.4-0.3-0.6-0.7-1-1c-2.6-2.2-5.2-4.5-8-6.6
			c-1.6-1.2-3.4-1.7-5.5-1.3c-2.1,0.4-2.6,1-2.5,3.1c0.2,4.6,0,9.1-1.8,13.4c-0.4,1-0.8,2-2,2.1c-1.4,0.2-2.3,1.1-2.6,2.2
			c-1.1,3.4-4,5.4-6,8c-0.4,0.5-1,0.7-1.6,1c-0.9,0.4-1.8,0.1-2.4-0.7c-0.6-0.7-0.1-1.3,0.4-1.9c2.2-3.1,4.4-6.2,6.7-9.3
			c1.4-1.9,2.5-4,1.1-6.2c-1.3-2.2-3-4.2-4.6-6.1c-1.2-1.4-2.6-2.6-3.9-3.9c-2.2-2-4.2-4.2-6.5-6c-3-2.4-6.4-3.9-10.1-4.8
			c-5.5-1.4-8.8-1.1-11,5.8c-0.4,1.1-0.2,2.4-0.5,3.6c-1.5,5.9-0.6,11.6,0.8,17.3c0.4,1.7,1.1,3.3,1.6,4.9c-0.1,0.1-0.2,0.1-0.3,0.2
			c-0.9-0.6-1.9-1.2-3.2-2.1c0.2,1.1,0.2,1.7,0.4,2.3c0.9,2,1.8,3.9,2.8,5.9c0.3,0.5,0.8,1,1.3,1.4c2.8,2.2,6,3.7,9.5,4.5
			c1.8,0.4,2.6,1.3,2.8,3.3c-1,0.7-2.1,0.6-3.2,0.2c-3.3-1.1-6.7-2.1-10-3.4c-3-1.2-5.8-2.9-6.9-6.3c-0.5-1.4-1.1-2.7-1.6-4
			c-1.6-4.3-4.2-7.9-8.3-10.2c-1.4-0.8-2.8-1-4.3-0.1c-3.3,1.9-6.7,3.7-10,5.7c-3.6,2.2-8.1,3.4-9.9,7.9c-0.1,0.2-0.4,0.3-0.5,0.5
			c-3.2,3-5.5,6.6-7.1,10.7c-1.2,3.1-1.6,6.3,0.5,9.2c2.1,3,5,5.3,8.6,6.2c3.7,0.8,7.2,2,11.1,2.3c4.3,0.3,8.2-1.5,10.3-5.2
			c1-1.7,2-3.5,3.1-5.2c0.8-1.2,2-2.3,2.3-3.6c0.6-2.3,2-3.3,4.1-3.8c0.5-0.1,0.9-0.4,1.3-0.5c1.1-0.2,2.1-0.5,3.2-0.5
			c2.7,0,5,1.6,7.5,2.4c1.3,0.4,2.3,1.3,2.8,3.1c-1,0.4-1.9,0.7-2.7,1c-0.3,1.7-0.6,3.2-0.8,4.8c-0.1,1,0.3,1.7,1.7,1.8
			C12.8,317.5,13.5,316.1,14.2,314.7z M239,154.8c0.4,0.2,0.5,0.2,0.5,0.3c0.1,0.2,0.3,0.4,0.4,0.6c0.9,1.7,1.8,2,3.5,1.3
			c0.5-0.2,1-0.5,1.5-0.8c3.1-2,6.5-2.8,10.1-2.8c2.2,0,4.3,0.7,5.9,2.3c2.4,2.4,5.2,3.4,8.5,2.5c0.4-0.1,0.8-0.2,1.2-0.2
			c3.1-0.1,5.7-1.8,8.2-3.2c1.5-0.9,2.9-2.5,3.6-4.1c1.1-2.3,1-4.5-1-6.4c-0.7-0.7-1.4-1.3-2-2.1c-0.8-0.9-1.3-2.4-2.2-2.8
			c-1.7-0.7-2.6-2-3.9-3c-1.4-1.1-3.1-2-4-3.4c-1.2-1.8-2.9-2.2-4.8-2.9c-1.2-0.4-2.1-0.2-2.9,0.5s-1.5,1.6-2,2.6
			c-0.6,1.2-2.3,0.7-2.6,2.2c-0.3,1.4-1.6,1.9-2.8,2.4c-0.5,0.2-1.1,0.3-1.5,0.5c-1.2,0.6-2.3,1.6-3.5,2c-1.5,0.5-3.1,0.6-4.7,0.7
			c-0.5,0-1.3-0.4-1.3-0.7c-0.1-0.5,0.2-1.3,0.6-1.7c0.4-0.4,1.1-0.6,1.7-0.9c1.3-0.8,3-1.6,3.1-3.2c0.1-1.7,1-2.6,1.9-3.7
			c0.5-0.6,1.1-1.5,1.1-2.3c0.1-4.7,0-9.3-1.3-13.8c-1.2-3.7-2.6-7.4-4-11c-0.2-0.4-0.7-0.9-1.2-1c-1.1-0.3-1.5-1.1-1.9-2
			c-0.3-0.6-0.6-1.2-1-1.7c-0.6-0.8-1.3-0.8-2.1-0.2c-1.1,0.8-2.2,1.6-3.2,2.5c-2.5,2.1-4.8,4.6-6,7.6c-1.3,3.3-2.1,6.7-2.7,10.2
			c-0.6,3.2-0.5,6.6-1.3,9.8c-0.8,3.3,0.3,5.8,2.6,8c0.6,0.6,1.3,1.2,1.7,2c0.6,1,0,1.9-1.2,2.1c-0.5,0.1-1,0.1-1.4-0.1
			c-2.2-1.2-4.8-2-6.3-3.8c-1.7-2-3.7-4.2-4.2-7.1c-0.3-1.5-1-2.9-1.8-4.2c-0.7-1.2-1.9-1.6-2.8-1c-1.9,1.3-4,2.3-6.2,3
			s-3.8,2.3-5.6,3.6c-3.8,2.9-8,5.3-11.6,8.5c-3,2.6-5.7,5-6.3,9.2c-0.2,1.3-0.1,2.4,0.6,3.4c0.9,1.3,2,2.5,3.1,3.6
			c0.6,0.6,1.5,1,2.3,1.4c0.1,0.6,0,1.4,0.3,1.9c0.9,1.6,2.1,3,3.1,4.5c2.6,3.8,6.5,3.4,10.2,2.8c2.3-0.4,4.7-1.3,5-4.3
			c0-0.2,0.2-0.4,0.4-0.6c1.3-2.2,2.6-4.4,4.1-6.5c0.5-0.8,1.3-1.6,2.1-1.8c2.1-0.6,4.3-0.9,6.5-1.1c1.4-0.1,2.1-0.6,2.6-2
			c0.5-1.5,1.3-2.9,2-4.4c0.7-1.3,1.6-2.4,3.4-2.6c0.7,2.4,1.1,4.6,0.2,7c-1,2.5-0.6,5.5,0.9,7.1c0.1-0.9,0.2-1.7,0.2-2.6
			c0.6,0.2,1,0.3,1.5,0.5c0.5-1.6-1.1-3,0.1-4.5c0.9-1.1,1.1-2.9,2.9-3.3c1.5,1.9,2.5,3.6,1.3,6.1c-0.7,1.5-0.8,3.3-1,4.9
			c-0.1,0.9,0.2,1.8,0.4,3C238.2,159.8,238.1,157.1,239,154.8z M119.3,176.8c-1.9-1.1-2.3-1-2.4,0.9c-0.1,1.4-0.1,2.7-1.2,3.8
			c-0.3,0.3-0.3,0.9-0.3,1.4c-0.2,4.8-0.8,9.5,0.3,14.3c0.5,2.2,1.3,4,2.9,5.4c1.5,1.4,2.4,3,3.1,4.7c0.4,0.9,1,2,1.8,2.4
			c2.2,1,2.5,2.8,2.4,4.8c-0.1,1.7-1.3,2.2-2.7,1.1c-0.8-0.6-1.5-1.5-2.2-2.3c-1.3-1.5-2.5-3.2-3.8-4.6c-0.5-0.5-1.3-1-2-1
			c-3.2-0.2-6.3,0.5-9.1,2c-2.8,1.4-5.3,3.3-7.9,5c-1.9,1.2-3,2.8-3.7,4.9c-0.8,2.1-1.7,4.2-2.5,6.2c-0.3,0.7-0.7,1.5-0.6,2.3
			c0,2.2,0.2,4.3,0.3,6.5c0,0.5,0.4,1.1,0.7,1.5c1.4,1.8,2.9,3.6,4.4,5.4c1,1.2,2.2,1.5,3.7,1.3c1.9-0.3,3.8-0.6,5.7-0.7
			c2.2-0.2,4.5-0.2,6.7-0.2c1.3,0,2.2-0.5,2.8-1.5c2.1-3.5,5.1-6.4,6.6-10.3c0.2-0.4,0.5-0.8,0.9-1c1.9-1.1,2.8-2.8,2.6-5
			c-0.1-0.8-0.1-1.6,0-2.4c0.2-0.8,0.8-1,1.5-0.5c0.3,0.2,0.4,0.5,0.6,0.7c1.8,1.9,4.1,1.7,6.5,1.8c-0.1-0.8,0-1.3-0.1-1.7
			c-0.6-1.6-0.4-2.9,0.6-4.3c0.4-0.5,0.5-1.4,0.4-2c-0.2-1.5,0.5-2.1,1.7-2.3c1.4,1.4,1.6,1.5,1.8,3.3c0.4,2.5,1.7,4.3,3.5,5.9
			c0.4,0.4,0.8,0.7,1.3,1.1c2.1,2,4,2.2,6.1,0.4c3.4-2.9,6.6-5.9,9.8-8.9c0.8-0.8,1.4-1.7,2.1-2.7c0.7-0.9,0.9-2,0.7-3.2
			c-0.4-2.7-1.8-4.9-3.2-7.2c-0.1-0.1-0.3-0.1-0.5-0.2c-0.3,0.4-0.6,0.9-1,1.6c-1.3-1.1-2.6-1.7-3.2-2.7c-1.1-1.8-3.2-2-4.6-3.3
			c-0.1-0.1-0.5-0.1-0.7-0.1c-2.5,0.5-5.2,0.6-7.4,2.4c0,0.7,0,1.4,0,2.4c-1-0.3-1.8-0.5-2.9-0.8c-1.4,2.9-1.5,6.5-4.3,8.6
			c-1.6-1.2-1.7-1.3-1.5-2.9c0.1-0.7,0.3-1.4,0.6-2.1c0.7-2.1,1.3-4.3,2-6.4c1-3.1,0.5-6.2-0.5-9.2c-0.5-1.5-0.9-3.1-1.4-4.6
			c-1-3.6-4-5.8-6.4-8.3c-0.1-0.1-0.3-0.1-0.4-0.2c-1.1-0.6-2.2-1.3-3.3-1.9c-0.5-0.3-0.9-0.5-1.5-0.8
			C121.1,174.7,120.2,175.7,119.3,176.8z M116.9,300.7c0.6-0.8,1.1-1.2,1.3-1.8c1.4-2.8,2.6-5.7,4-8.5c0.6-1.3,1.2-2.8,2.3-3.7
			c2.5-2.2,3.9-5.1,5.8-7.6c3.4-4.5,7.3-8.5,12.3-11.2c1.3-0.7,2.5-0.9,3.9-0.4c1.7,0.7,3.4,0.5,5.1-0.4c2.8-1.5,5.6-3.1,8.4-4.6
			c4.6-2.3,9.2-4.6,13.8-6.8c1.7-0.8,3.7-0.5,4.9,0.8c1.8,2,3.9,2.3,6.1,2.1c4.2-0.4,8.2-1.3,11.9-3.4c1.4-0.8,2.9-1.5,4.4-1.9
			c3.2-0.9,5.9-2.8,8.9-4.1c2.3-1,4.4-2.2,6.6-3.5c2.1-1.2,4.2-2.6,6.3-3.9c1.6-1,3.3-2,4.9-3c0.6-0.4,1.5-0.5,1.9-1.1
			c1.3-1.8,3.1-1.6,4.8-1.2c1.5,0.4,2.8,0,4.2-0.6c0.5-0.2,1-0.6,1.5-0.6c4.1-0.6,7.3-3,10.4-5.6c0.9-0.8,1-1.8,0.7-2.8
			c-0.4-1.2-1-2.3-2.4-2.3c-2,0-4,0-5.9,0.4c-2.2,0.4-2.5,0.4-4-1.5c-0.4-0.6-1.3-1.2-1.9-1.1c-3.4,0.3-6.6,3.8-7,7.3
			c-0.2,1.9-1.1,3.6-2.6,4.7c-3.3,2.5-6.6,5.1-10.1,7.3c-3.1,2-6.3,3.9-9.7,5.3c-3.4,1.5-7.1,2.3-10.6,3.5c-2,0.7-4,1.1-6.1,1
			c-1.3-0.1-2.7-0.5-3.8-0.1c-1.6,0.6-2.4,0.1-3.2-1.1c-0.4-0.6-0.9-1.2-1.4-1.7c-2.8-2.7-3.5-5.8-1.6-9.3c0.4-0.6,0.8-1.5,0-1.9
			c-0.5-0.3-1.3-0.2-2-0.1c-0.3,0-0.6,0.2-0.9,0.4c-3.1,2.4-6.2,4.8-9.4,7.1c-2.3,1.7-4.4,3.6-7.3,4.4c-2,0.5-3.8,1.6-5.7,2.6
			c-2.8,1.5-5.5,3-8.2,4.5c-2.2,1.2-4.4,2.3-6.4,3.8c-1.8,1.4-3.9,2.2-6,2.7c-1.3,0.3-2.5,0.7-3.7,1.5c-1,0.7-2.4,0.9-3.6,1.2
			c-0.3,0.1-0.8-0.2-1-0.4c-1.3-1.3-1.5-3.6-0.5-5.3c1.2-2,1.2-4.2,1.2-6.4c-1.5-0.4-2.4,0-2.5,1.3c-0.3,2.7-0.4,5.4-0.6,8.1
			c0,0.3,0,0.7,0.1,0.9c0.5,1.4,0.1,2.7-0.2,4c-0.4,1.9-0.8,3.9-0.9,5.9c-0.2,2.8-0.5,5.6-1.9,8.1c-0.4,0.7-0.6,1.5-0.9,2.2
			c-0.3,0.7-0.6,1.4-0.9,2.1c-0.8,1.4-1.8,2.7-2.5,4.1s-1.2,2.8-1.7,4.2c-0.2,0.8-0.3,1.8-0.1,2.5
			C115.5,298.2,116.2,299.2,116.9,300.7z M130.8,298.9c0.7-0.1,1.2-0.3,1.8-0.4c1.7-0.3,2.7,0.6,2.3,2.3c-0.3,1.5-0.6,3.1-1.5,4.3
			c-2.1,3.1-2.7,6.6-3.1,10.2c-0.4,3.4-1.4,6.3-4.9,7.7c-0.5,0.2-0.9,0.7-1.1,1.2c-0.3,1.1,1.5,3.8,2.7,4.1c2.3,0.6,4.5,1,6.1,3.1
			c0.7,1,1.6,0.7,2.5-0.1c3.2-2.8,4.7-6.8,7-10.3c1.4-2.1,2.1-4.8,2.8-7.4c0.8-2.8,1.2-5.8,2.1-8.6c0.9-2.9,1.2-5.8,1.4-8.8
			c0.1-1.8,0.1-3.7,0.5-5.5c0.7-3.3,0.6-6.6-0.3-9.7c-0.7-2.4-1.8-4.6-2.8-6.9c-0.4-0.8-1.1-1.7-2.1-1c-1.6,1.1-3.4,2.3-4.6,3.8
			c-1.9,2.3-3.3,4.9-4.9,7.4c-1.8,2.8-3.2,5.7-4,9C130.2,295.1,129.9,296.9,130.8,298.9z M85.1,444.6c0.1,0.2,0.1,0.5,0.2,0.7
			c0.7,0.3,1.3,0.5,2,0.8c1,0.3,2,0.6,3,1c1.7,0.7,1.9,2.5,0.4,3.6c-1.1,0.8-2.2,1.1-3.6,0.4c-2.1-1-4.6-1.2-6.7-0.7
			c0.7,0.6,1.2,1.2,1.8,1.7c2.1,2,4.2,3.9,6.4,5.9c1,0.9,1.9,2,3,2.7c3.4,2.3,7.5,3.1,11.4,4.4c0.6,0.2,1.3,0.1,1.9,0.1
			c0.6,0,1.3,0,1.9,0.2c4.3,1.4,8.1-0.3,11.8-1.9c1.9-0.8,2-2,0.4-3.2c-4.4-3.4-8.9-6.8-13.4-10.1c-1.3-0.9-2.6-2-4.1-2.5
			c-3.8-1.3-7.6-2.5-11.5-3.6c-1.1-0.3-2.2-0.3-3.3-0.3C86,443.8,85.6,444.3,85.1,444.6z M14.2,330.8c-2.5,1.6-3.5,4-4.6,6.3
			c-2,4.3-2,3.9,2,6.5c2.8,1.8,5.7,2.2,9,1.8c4.6-0.5,9.1-1.7,13.6-2.8c1.2-0.3,2.1-0.9,2.7-2.1c0.5-1,1.3-1.9,2.1-2.5
			c1.5-1.1,3.1-2,4.7-2.9c0.4-0.3,0.9-0.5,1.2-0.8c1.4-1.3,1.2-2.6-0.5-3.4c-1.3-0.7-2.7-1.4-4.1-2c-0.7-0.3-1.6-0.4-2.2-0.2
			c-2,0.8-3.8,2.1-5.8,2.8c-2.6,0.9-5.4,2-8.1,1.9C20.8,333.2,17.2,333,14.2,330.8z M58.5,330.3c1.2-0.3,2.6-0.6,3.9-1.1
			c3.8-1.5,6.6-4.1,8.5-7.7c1-1.8,0.3-2.9-1.7-3.3c-0.9-0.1-1.7-0.2-2.6-0.3c-3.7-0.6-7.3-0.5-10.9,0.3c-2.2,0.5-3.3,0.3-4.2-1.6
			c-1.2-2.5-3.6-3.3-5.6-4.7c-1.3-0.9-2.9-0.1-3.3,1.5c-0.6,2.8-1.3,5.6-1.9,8.4c-0.7,3.1-0.1,4.2,3,5.2c0.8,0.3,1.6,0.4,2.3,0.6
			c2.2,0.5,4.4,1.1,6.5,1.6C54.5,329.6,56.4,329.9,58.5,330.3z M82.8,375.9c0.1,1.3-0.1,2.7,0.4,3.6c1.3,2.3,3.2,4.3,6,4.7
			c4.7,0.8,9.1-1,13.7-1.7c0.6-0.1,1.2-0.6,1.7-0.9c1.8-1.3,3.5-2.8,5.4-4c1.7-1.1,2.5-2.6,2.4-4.4c-0.1-2.8-0.3-5.6-0.6-8.4
			c-0.1-0.9-0.5-1.9-0.9-2.7c-0.6-1.3-1.3-1.6-2.5-1c-2.1,1.2-4.4,2.3-5.7,4.5c-1.5,2.5-3.1,4.8-4.7,7.2c-0.5,0.8-1,1.6-1.5,2.4
			c-0.7,1.2-2.8,2.3-4.1,2c-1.6-0.3-3.2-0.6-4.7-1.1C86,375.5,84.5,375.6,82.8,375.9z M111.4,448.3c-0.3-2.4-0.4-4.2-0.8-6
			c-1-3.8-2.1-7.6-3.2-11.3c-0.7-2.3-1.9-4.2-3.7-5.8c-0.7-0.6-1.3-1.2-1.8-2c-1.7-2.7-4.4-3.9-7.2-4.9c-1.2-0.4-2.4-0.2-3.1,0.8
			c-1.3,1.6-2.3,3.3-3.6,5.2c0.5,0.2,0.9,0.4,1.2,0.5c2.4,0.7,2.9,2.1,1.5,4.1c-0.8,1.1-2,2.1-3,3c-0.4,0.4-1,0.6-1.3,1
			c-0.2,0.3-0.2,0.9-0.2,1.3c0.4,0.1,1,0.3,1.3,0.1c3.3-1.7,6.9-2,10.5-2c0.8,0,1.7,0.3,2.5,0.6c0.7,0.4,1.2,1.1,0.9,2
			c-0.2,0.9-0.6,1.6-1.7,1.8c-1.5,0.4-2.9,0.8-4.3,1.4c-0.5,0.2-0.9,0.8-1.3,1.2c0.4,0.4,0.8,1,1.3,1.2c2.2,0.9,4.4,1.8,6.7,2.6
			c2.6,1,5,2.4,7.3,4.1C110,447.5,110.5,447.7,111.4,448.3z M270.1,185.7c1.3,0,2.1,0.2,2.9,0c1.3-0.3,2.6-0.7,3.9-1
			c2.5-0.6,5-1.2,7.4-1.9c1.8-0.5,3.6-1.3,5.5-1.7c2.2-0.6,4.6-0.8,6.8-1.5c3.9-1.4,7.7-3.1,11.9-3.4c0.2,0,0.5-0.1,0.7-0.2
			c3.6-1,7.2-2.3,11-2.5c0.4,0,0.8-0.2,1.1-0.4c1.7-0.9,3.5-0.9,5.4-1.1c1.7-0.1,3.3-0.6,4.9-1.1c0.4-0.1,0.8-0.6,0.8-0.9
			s-0.5-0.7-0.9-0.9c-0.5-0.3-1.2-0.5-1.8-0.7c-0.5,0.6-0.9,1.1-1.2,1.4c-1.3,0.1-2.4,0.3-3.5,0.4c-1,0.1-2.1,0.7-2.9-0.4
			c-0.7-1-2.3,0.8-2.7-1.1c1-0.5,2.1-1,3.3-1.5c-0.2-0.8-0.3-1.7-0.5-2.5c-0.9,0.1-2.1-0.1-2.3,0.2c-1,2.1-2.3,1.3-3.7,0.4
			c-0.2,0.8-0.3,1.6-0.4,2.1c-1.4,0.2-2.6,0.1-3.6,0.6c-2.7,1.2-5.3,2.6-7.9,3.9c-1.4,0.7-3,1.2-4.3,2.1c-1.9,1.4-3.9,2-6.2,2.4
			c-6.5,1.1-12.7,3-18.7,5.7c-0.7,0.3-1.6,0.2-2.5,0.3C271.9,183.3,271.2,184.2,270.1,185.7z M115.6,338.2c0.6-0.5,0.9-0.6,1-0.8
			c1.6-2.3,3.3-4.5,4.7-6.9c1.2-2,0.9-2.5-1-4c-1.7-1.4-3-3.1-3.7-5.2c-0.4-1.3-1.3-2.4-1.8-3.6c-0.5-1.1-1-2.3-1.3-3.6
			c-0.8-3.3-1.4-6.7-2.2-10c-0.2-0.9-0.8-1.8-1.3-2.6c-0.3-0.4-0.8-0.7-1.5-1.3c-0.7,2.1-1.4,3.8-1.8,5.7c-0.3,1.7-0.4,3.5-0.2,5.2
			c0.1,1.9,0.7,3.8,1,5.7c0.3,2.7,1.2,5.1,2.1,7.6c1.3,3.3,2.4,6.6,3.8,9.8C113.9,335.6,114.8,336.8,115.6,338.2z M97.9,469.2
			c-8.4-4.1-16.4-7.9-23.5-13.4c0,1.1,0,2.1,0.3,3c0.5,1.6,1.3,3.1,1.6,4.8c0.7,3.5,2.7,6.1,5.2,8.5c2.1,2,4.3,4,6.7,4.9
			C92.5,475.4,95,472.4,97.9,469.2z M214.9,199.2c-1.9,2.4-3.7,4.5-5.5,6.7c-1.3,1.5-2.6,3-3.8,4.7c-0.3,0.4,0.1,1.1,0.1,1.7
			c0.5-0.1,1.1-0.1,1.5-0.3c3.1-2.2,6-4.7,9.9-5.7c0.3-0.1,0.6-0.3,0.8-0.5c2.2-1.3,4-3.3,6.8-3.4c0.2,0,0.4-0.5,0.7-0.6
			c3.2-1.9,6.4-3.8,10.3-4.2c1.6-0.2,3.2-0.8,4.2-2.6c-1.7-1.2-3.4-0.7-4.7-0.1c-3.3,1.6-6.9,2-10.3,2.8c-0.2,0.1-0.5,0-0.7,0
			c-0.8,0-1.3-0.4-1.2-1.1c0.2-1.9,0.1-3.9,0.8-5.7c0.7-2,2-3.8,3.1-5.7c0.2-0.4,0.4-0.8,0.6-1.3c-1.6-0.4-2.3,0.5-2.8,1.5
			c-1,1.7-1.3,3.8-3.1,5c-0.3,0.2-0.3,0.7-0.5,1.1c-0.2,0.5-0.4,1-0.8,1.5c-1.5,2.2-3,4.3-4.7,6.6
			C215.4,199.4,215.1,199.3,214.9,199.2z M329.2,162.9c0.1-0.7,0.2-1.2,0.3-1.6c0.4-1.5,0.9-2.1,2.2-2c4,0.4,7.1-1.5,10.1-3.7
			c1.5-1.1,2.8-2.5,5.1-2c1,0.3,2.3,0.3,3.3,0c2-0.7,4-0.9,6.1-0.6c0.5,0.1,1.2-0.1,1.6-0.3c0.4-0.2,0.8-0.7,1-1.2
			c0.2-0.6-2-4.6-2.6-4.7c-2-0.3-3.8-1.2-5.9-0.6s-4.2,1.2-6.2,1.7c-1.2,0.3-2.2,0.8-3,1.8c-0.6,0.8-1.4,1.5-2.2,2.1
			c-1.8,1.5-3.7,3-5.6,4.5c-0.7,0.5-1.4,1.3-2.1,1.4c-1,0.1-1.6,0.5-2.3,1.1c-0.9,0.7-1.8,1.5-2.8,1.9c-1.3,0.5-1.6,1.4-1.3,2.6
			c0.2,0.9,0.4,1.8,0.6,3c1-1.6,0.3-3.6,1.8-4.7C327.9,162,328.4,162.4,329.2,162.9z M7,321.2c-0.5,1-1,1.8-1.3,2.7
			c-0.6,1.5-1.4,2.6-3.1,3.1c-0.6,0.2-1.1,0.9-1.6,1.4c-0.6,0.6-1.2,1.3-1.8,1.9c-1.2,1.2-2.5,2.5-3.7,3.7c-0.6,0.6-1.2,1.3-2,1.7
			c-3.2,1.7-5.5,4.8-9.3,5.8c-0.4,0.1-0.8,1.1-0.7,1.5c0.1,0.4,1,1,1.3,0.9c2-0.5,4.1-0.9,5.8-2c2.1-1.3,4-2.8,6.4-3.7
			c2.3-0.9,4.5-2.2,6.2-4.1c2.6-3,5.9-5.4,7-9.5c1.8,0.5,3.4,1,5.1,1.5c-1.5-3.2-3.4-5.7-4.8-6.5C9.1,321.4,9.1,321.4,7,321.2z
			 M65.1,396.1c-0.3,0-0.5,0-0.8,0c-0.3,0.7-0.6,1.4-0.9,2.1c-1.5,3.4-1.2,7.2-2.8,10.6c-0.3,0.5-0.2,1.3-0.1,1.9
			c0.3,1.7,0.7,3.5,1.2,5.1c1,3.2,2.2,6.4,3.3,9.5c0.3,0.9,0.8,1.8,1.4,2.5c0.3,0.5,1.2,1,1.5,0.9c0.5-0.3,1.1-1,1.1-1.6
			c0.1-2.4,0.1-4.8-0.2-7.2c-0.9-7.1-2-14.1-3-21.2C65.7,397.8,65.3,396.9,65.1,396.1z M233.8,178.6c0,0.1,0,0.2,0,0.3
			c2.1-0.4,4.2-1,6.3-1.3c2.7-0.4,4.5-2,6.1-3.9c0.8-0.9,0.5-1.4-0.2-2.2c-1.6-1.9-3.9-1.9-5.9-2.8c-0.4-0.2-0.9,0.2-1.4,0.2
			c-1.2,0.1-2.3,0.2-3.5,0.3c-1,0.1-2.1,0-3,0.4c-1.9,0.9-3.7,2-5.4,3.2c-0.6,0.4-1.1,1.2-1.2,1.9c-0.4,2.2,1.2,3.8,3.8,3.9
			C231,178.7,232.4,178.6,233.8,178.6z M77.6,427.7c0.3-0.2,0.7-0.3,0.9-0.5c1.6-2.1,3.4-4.1,4.6-6.4c1.4-2.8,3.8-4.9,5.4-7.6
			c1.3-2.1,2.9-4,4.2-6.1c0.8-1.2,0.3-2-1.1-2.1c-0.3,0-0.6,0-1,0.1c-1.9,0.5-3.9,0.9-5.8,1.6c-2.5,0.9-4.2,2.9-5,5.4
			c-0.7,2.2-1.3,4.5-1.9,6.7c-0.9,2.9-0.2,5.8-0.6,8.7C77.3,427.5,77.4,427.5,77.6,427.7z M123,246.2c-1.8,0.8-3.7,1.6-5.5,2.4
			c-1.2,0.6-2.4,0.5-3.8,0.2c-1.6-0.3-3.3-0.5-5-0.7c-1.4-0.2-2.5,0.3-3.5,1.3c-1.3,1.3-2.6,2.6-4,3.8c-0.8,0.7-1.1,1.6-0.7,2.6
			c0.4,1,1.4,1.1,2.3,0.9c1.6-0.4,3.2-0.9,4.8-1.5c1.4-0.6,2.7-0.9,4.2-0.5c2.1,0.6,4,0.2,5.7-1.1c1.2-0.9,2.4-1.9,3.4-3
			c1.9-1.9,3.9-3.9,5.6-6c1.4-1.7,1.1-2.3-1.2-3.4C124.1,242.6,123,244,123,246.2z M225.2,164c-2.6-1.5-5-1.6-7.1-0.1
			c-2,1.4-3.9,3-5.7,4.7c-1,1-1.7,2.3-2.6,3.4c-0.4,0.4-1.2,0.8-1.6,0.7c-2-0.8-3.9,0-5.8,0.3c-0.8,0.2-1.8,0.2-2.5-0.1
			c-1.7-0.9-3.2-0.3-4.7,0.5c-0.9,0.6-1.6,1.5-1.3,2.6c0.3,1.1,1.4,1.1,2.4,1.2c0.4,0.1,0.8,0,1.2,0c1.5-0.2,3.1-0.3,4.5-0.6
			c4-0.9,8-1.5,11.6-3.7c2.2-1.3,4.3-2.7,6.2-4.4c0.5-0.5,1.2-0.7,1.8-1.2C222.7,166.3,223.9,165.3,225.2,164z M300,192.1
			c-0.8,1.4-2.3,2.2-2.8,3.9c-0.5,1.8-0.4,2.7,1.4,3.2c4.3,1.2,8.6,1.7,13.1,1.2c0.9-0.1,1.5-0.4,1.7-1.3c0.3-1.2,0.7-2.5,1-3.7
			c0.4-1.7-0.1-2.4-1.8-2.8c-0.9-0.2-1.9,0.1-2.8-0.1c-2.6-0.6-5.3-0.8-7.9-0.2C301.3,192.3,300.8,192.2,300,192.1z M264.1,189.5
			c-0.2,1.4-0.3,2.4-0.5,3.4c0,0.2-0.3,0.3-0.4,0.5c-0.3-0.7-0.5-1.3-0.7-1.7c-1.6,0.4-3,0.8-4.4,1.1c-0.8,0.2-1.3,0.6-1.5,1.3
			c-0.1,0.7-0.2,1.4-0.3,2.1c-0.2,1.8,0.2,2.3,1.8,2.8c0.7,0.2,1.5,0.6,2.2,0.8c0.5,0.1,1.2,0.3,1.6,0.1c1.6-0.8,3.2-0.5,4.8,0.1
			c0.8-1.5,1.8-2.4,3.3-3.1c1.2-0.5,2.3-1.5,3.1-2.5c0.4-0.5-0.3-1.8-0.4-2.7c-0.1-0.5-0.2-1.1-0.3-1.7c-1,0-1.8,0-2.7,0
			C268.2,192.9,266.9,192.4,264.1,189.5z M44.2,457c4.7-2,5.6-3.1,5.1-7.3c-0.4-3.7,0.6-6.6,3.5-8.9c3.4-2.8,4.5-6.5,4.1-10.7
			c-0.2-2-0.7-3.9-1.1-5.9c0-0.2-0.3-0.2-0.7-0.5c-0.6,1.7-1.3,3.3-1.7,4.9c-0.6,2.1-0.8,4.2-1.5,6.3c-0.5,1.4-1.5,2.7-2,4.1
			c-1.1,3.1-2.1,6.2-3.1,9.3c-0.1,0.4-0.4,0.9-0.6,1.3c-0.7,1.5-1.6,2.9-2.1,4.5C43.8,454.8,44.2,455.8,44.2,457z M123,348
			c-0.2,0-0.3,0-0.5,0c-1.5,4.5-1.9,9.2-1.7,14c0.1,1.9,0.3,3.9,0.1,5.8c-0.2,1.7,0,3.2,0.8,4.7c0.4,0.8,0.5,1.5,0.3,2.5
			c-0.3,1.8,0.4,3.5,1.6,4.8c0.7,0.8,1.7,0.6,1.8-0.4c0.2-1.6,0.8-3.3,0.3-5c-0.4-1.2-0.5-2.5-0.6-3.8c-0.3-2.6-0.1-5.4-0.8-7.9
			c-0.8-2.8-0.5-5.7-0.7-8.5C123.3,352.1,123.2,350,123,348z M130.3,382.9c-0.3,0.5-0.9,1-1.1,1.6c-0.6,2.9-1.9,5.6-3.1,8.2
			c-1.9,3.9-3.6,7.8-7.1,10.7c-0.3,0.3-0.3,1-0.5,1.4c1.1,0.7,1.7,0.2,2.3-0.4c3.1-3.2,6.3-6.2,8.2-10.4c1.4-3,1.8-6.1,2.5-9.2
			C131.7,384.1,131.6,383.2,130.3,382.9z M99.7,357.9c-0.3-0.1-0.5-0.2-0.6-0.2c-2.8,1.2-5.6,2.4-8.3,3.6c-1.6,0.7-1.9,1.6-1.4,3.3
			c0.2,0.6,0.3,1.2,0.5,1.9c0.4,1.5,1.2,2.3,2.7,2.5C95.7,365.7,97.9,361.9,99.7,357.9z M139.2,359.9c1.3-6.5,2.3-12.5,0.4-18.9
			C135.7,345.4,135.4,356.1,139.2,359.9z M62.4,482.8c-0.1-2,0.3-4-1-5.8c-0.2-0.3-0.2-0.7-0.2-1.1c0-3.7,0.1-7.5,0-11.2
			c0-0.9-0.5-1.7-0.7-2.6c-1.6,0.5-1.9,1.5-2.2,2.6c-1.1,4.8,0.2,9.4,1.4,13.9C60.3,480.2,60.9,481.8,62.4,482.8z M136.1,246.7
			c2.6,0.1,6.7-3.5,6.9-6.1c0-0.7-0.4-1.6-0.9-2.1c-0.9-0.8-4.6-0.3-5.2,0.9c-0.9,1.7-1.7,3.4-2.4,5.2
			C134.1,245.7,134.8,246.6,136.1,246.7z M160.4,225.2c-2.1-0.4-3.4,1-4.7,2c-1.4,1.1-1.5,1.7-0.8,3.1c0.6,1.3,1.4,1.6,3,1.3
			c2-0.3,3.2-1.7,4.6-2.9c1.1-0.9,1.2-1.9,0.1-2.7C162,225.5,161.1,225.4,160.4,225.2z M113.4,384c2,1.3,3.8,1.2,6.2,0
			c-0.7-1-1.3-2-2.2-3.3C115.9,381.8,114.8,382.8,113.4,384z M94.3,345.7c-0.5,0-0.8,0-1.2,0c-0.7,0.1-1.3,0.4-1.2,1.2
			c0,0.8,0.6,1.1,1.3,1.1s1.5-0.1,2.1-0.3c0.3-0.1,0.7-0.6,0.7-0.8c-0.1-0.4-0.4-0.9-0.7-1.1C95,345.6,94.5,345.7,94.3,345.7z
			 M250,192.9c-4.6-0.5-5.1-0.4-5.8,1.7C246.1,193.6,248.4,194.5,250,192.9z M106.6,346.1c-1-2.7-2.1-3.2-4.8-2.8
			C102.6,345.4,104.6,345.3,106.6,346.1z M-17.5,345.4c0-0.2,0-0.4,0.1-0.6c-0.5-0.3-1.1-0.9-1.5-0.7c-0.6,0.2-1.6,0.9-1.6,1.4
			c0,0.9,0.9,0.9,1.7,0.7C-18.5,345.9-18,345.6-17.5,345.4z M111.3,342.5c-0.8,1.8-0.5,2.3,1.3,2.6
			C113,343.9,112.4,343.1,111.3,342.5z M278.6,197.1c0.6-0.3,1.1-0.5,1.6-0.7c-0.4-0.4-0.7-1.2-1.1-1.2
			C278.3,195.2,278.3,196,278.6,197.1z M203.5,213.7c-1.1,0.4-1.8,1-2,2.4C202.7,215.5,203.9,215.4,203.5,213.7z M112.6,349.4
			c-0.2,0.6-0.3,0.8-0.3,1.1c0,0.2,0.3,0.3,0.5,0.5c0.2-0.2,0.5-0.4,0.5-0.6C113.2,350.1,112.9,349.9,112.6,349.4z M348.6,162.1
			c-0.2,0.2-0.3,0.3-0.5,0.5c0.4,0.3,0.7,0.6,1.1,0.9c0.1-0.1,0.2-0.3,0.4-0.4C349.3,162.8,349,162.4,348.6,162.1z M141.8,249.9
			c-0.2-0.1-0.4-0.2-0.5-0.2c0,0.1-0.2,0.3-0.1,0.4s0.3,0.2,0.5,0.3C141.7,250.2,141.8,250.1,141.8,249.9z M365.2,167.1
			c-0.1-0.1-0.2-0.2-0.3-0.2c-0.1,0-0.2,0.1-0.3,0.2c0.1,0.1,0.3,0.2,0.4,0.4C365,167.3,365.1,167.2,365.2,167.1z"/>
		<path class="st0" d="M-17.5,345.4c-0.5,0.2-0.9,0.5-1.4,0.7c-0.7,0.2-1.7,0.3-1.7-0.7c0-0.5,0.9-1.2,1.6-1.4
			c0.4-0.1,1,0.5,1.5,0.7C-17.5,345-17.5,345.2-17.5,345.4z"/>
		<path class="st0" d="M112.6,349.4c0.4,0.5,0.7,0.7,0.7,0.9c0,0.2-0.3,0.4-0.5,0.6c-0.2-0.2-0.4-0.3-0.5-0.5
			S112.4,349.9,112.6,349.4z"/>
		<path class="st0" d="M348.6,162.1c0.3,0.3,0.6,0.7,0.9,1c-0.1,0.1-0.2,0.3-0.4,0.4c-0.4-0.3-0.7-0.6-1.1-0.9
			C348.3,162.4,348.5,162.2,348.6,162.1z"/>
		<path class="st0" d="M141.8,249.9c-0.1,0.2-0.1,0.3-0.2,0.4c-0.2-0.1-0.4-0.2-0.5-0.3c0,0,0.1-0.2,0.1-0.4
			C141.5,249.8,141.7,249.9,141.8,249.9z"/>
		<path class="st0" d="M365.2,167.1c-0.1,0.1-0.2,0.2-0.2,0.3c-0.1-0.1-0.3-0.2-0.4-0.4c0.1-0.1,0.2-0.2,0.3-0.2
			C365,166.9,365.1,167.1,365.2,167.1z"/>
		<path class="st0" d="M233.1,139.9c-0.1-0.2-0.2-0.4-0.2-0.6c0,0,0.3-0.2,0.4-0.2c0.1,0.1,0.2,0.3,0.3,0.5
			C233.5,139.8,233.3,139.8,233.1,139.9z"/>
	</g>
</g>
</svg>
