<?xml version="1.0" encoding="utf-8"?>
<!-- Generator: Adobe Illustrator 19.1.0, SVG Export Plug-In . SVG Version: 6.00 Build 0)  -->
<svg version="1.1" id="Layer_1" xmlns="http://www.w3.org/2000/svg" xmlns:xlink="http://www.w3.org/1999/xlink" x="0px" y="0px"
	 viewBox="-122 -123.6 595.3 841.9" style="enable-background:new -122 -123.6 595.3 841.9;" xml:space="preserve">
<style type="text/css">
	.st0{fill:#FFFFFF;}
</style>
<g>
	<path class="st0" d="M-45.6,100c0.1-0.1,0.1-0.1,0.2-0.2c0.3,0.3,0.6,0.5,1,0.8c2.1,1.8,4.2,3.6,6.3,5.4
		c13.8,11.9,28.2,23,44.2,31.8c2.2,1.2,4.2,2.7,6.2,4.3c3.6,2.9,5.7,6.7,6.4,11.2c0.4,2.7,0.6,5.4,0.7,8c0.1,11.4-0.1,22.8,0,34.2
		c0.1,8.4,0.2,16.8,0.6,25.2c0.6,12.4,1.3,24.7,2.1,37c1.1,17.4,2.9,34.8,5,52.1c3.4,27.8,7.9,55.4,13.4,82.8c0.1,0.5,0.2,1,0.2,1.5
		c-0.5-0.6-0.8-1.3-1-2c-2.8-7.3-5.1-14.8-7-22.4c-4.9-19.4-7.3-39.1-8.9-59c-0.9-11.1-1.6-22.2-2.4-33.3
		c-0.9-13.1-1.8-26.1-2.6-39.2c-0.8-11.5-1.5-23.1-2.3-34.6c-0.8-12.5-1.6-24.9-2.5-37.4c-0.3-4.3-0.7-8.7-2.1-12.8
		c-1.4-4.3-4-7.5-8.2-9.6c-19.8-9.9-35.9-24.1-48.4-42.4C-45,101-45.3,100.5-45.6,100z M113.7,143.7c0.6-0.7,0.9-1.2,1.3-1.6
		c4.8-5.5,9.6-11,14.3-16.5c2.8-3.3,2.4-5.4-0.9-8c-3.6-2.8-7.7-4.7-12.1-5.9c-1-0.3-1.9-0.7-2.8-1.2c-0.8-0.5-1.2-1.3-1.1-2.3
		c0.2-2-1.1-3.1-3.1-2.7c-0.6,0.1-1.2,0.4-1.7,0.7c-3.7,2.5-7.2,5.1-10,8.6c-2.4,2.9-3.7,6.3-3.7,10.1c-0.2,10.3,0.5,20.4,2.2,30.6
		c0.1,0.4,0.1,0.9,0.1,1.5c-1.1-0.6-2-1.1-3-1.6c-0.7,1-1.4,1.8-2.8,1.7c-0.1-12.6-1.1-25.1-3.4-37.5c-0.5,0.2-0.8,0.3-1,0.4
		c-9.2,4.6-18.4,9.2-27.6,13.7c-0.7,0.3-1.3,0.7-1.9,1.1c-2.4,1.8-2.5,4.1-0.1,5.9c1.1,0.8,2.3,1.4,3.5,1.9
		c8.8,3.9,17.3,8.4,25.2,13.9c0.6,0.4,1.2,0.8,1.7,1.3c0.5,0.5,0.9,1.1,0.6,2.1c-0.6-0.3-1.2-0.5-1.7-0.8
		c-8.2-4.4-16.4-8.7-24.6-13.1c-1.3-0.7-2.6-1.4-3.8-2.3c-2.8-1.9-5.2-4.2-5.9-8c-1.2,1.2-2.3,2.3-4.3,1.7c0.4-0.5,0.7-1,1.1-1.4
		c1.7-1.6,3.3-3.3,5.1-4.8c4.2-3.5,9-6.2,14-8.3c5.6-2.4,11.2-4.6,16.8-6.9c7.6-3.1,15.1-6.5,21.5-11.7c1.2-1,2.5-1.2,4-0.8
		c8.7,2.3,16.9,5.9,24.2,11.2c1.2,0.9,2.4,2,3.3,3.2c2,2.8,1.7,5.7-0.9,8c-5.6,5.1-11.1,10.2-16.7,15.2c-0.8,0.7-1.6,1.3-2.5,1.9
		C116,143.6,115.1,143.9,113.7,143.7z M29.9,151.5c0.1,0.3,0.2,0.4,0.2,0.6c-0.1,3.1,0.9,5.9,1.6,8.8c0.9,3.4,1.8,6.8,2.2,10.2
		c1.1,9.1,1.9,18.1,2.8,27.2c1.8,18,3.5,36,5.2,53.9c1.7,17.3,3.3,34.6,5,51.9c1.6,16.8,3.3,33.5,4.8,50.3c0.8,9,2,17.9,2.1,26.9
		c0.1,5.9-0.5,11.8-2.3,17.4c-0.4,1.3-0.9,2.5-1.4,3.7c-0.4-1.9-1.4-3.1-2.9-4.1c0-0.2,0.1-0.4,0.1-0.6c2.8-7.6,3.5-15.5,3-23.5
		c-0.4-7.5-1.1-15-1.8-22.5c-1.7-17.9-3.4-35.8-5.2-53.8c-1.7-17.9-3.5-35.8-5.2-53.8c-1.7-17.9-3.4-35.8-5.2-53.8
		c-1-10.4-1.5-20.9-4.6-31c-0.5-1.5-0.4-3.3-0.3-4.9C28.2,153.4,28.8,152.3,29.9,151.5z M-40.4,96.9c0-0.1,0-0.2,0-0.3
		c0.5,0,1-0.1,1.6-0.1c2.9,0.1,5.7,0.5,8.5,1.4c6.1,1.8,11.5,4.8,16.6,8.5c4,2.8,7.8,5.9,11.8,8.8c2.4,1.7,4.9,3.3,7.4,4.7
		c2.7,1.5,5.6,2.2,8.7,1.8c1.8-0.2,3.6-0.7,5.4-1.2c5.9-1.8,11.7-3.7,17.5-5.6c14.9-4.8,29.9-9.6,44.8-14.4c0.6-0.2,1.1-0.6,2-0.2
		c-0.8,0.6-1.5,1-2.1,1.4c-3.5,2.1-7.2,3.6-11.1,4.9c-14.5,4.6-29,9.2-43.5,13.6c-6.6,2-13.4,3.5-20.3,3.9c-0.6,0-1.3,0.1-2,0.1
		c0.5,1.8,1.6,3,3,3.8c2.2,1.3,4.7,1.6,7.1,0.9c2-0.6,4.1-1.4,5.9-2.5c8.7-5.1,17.9-8.8,27.5-11.7c8.8-2.7,17.6-5.2,26.4-7.9
		c8.9-2.8,17.5-6.2,25.5-11.2c0.2-0.2,0.5-0.2,0.9-0.4c0,2-0.9,3.4-2.4,4.2c-1.9,1.1-3.8,2.2-5.9,2.9c-24.7,8.8-49.4,17.5-74.2,26.2
		c-1.4,0.5-2.9,1-4.4,1.4c-3.4,0.9-6.6,0.3-9.4-1.9c-1.6-1.3-3.1-2.7-4.6-4.2c-4-4.1-8.4-7.7-13-11c-7.6-5.3-15.8-9.7-24-13.8
		C-37.8,98.3-39.1,97.6-40.4,96.9z M44.7,140.3c0.7,0.4,1.4,0.7,2,1.1c11.3,6.5,22.6,13.1,33.8,19.6c1.4,0.8,2.9,1.7,4.4,2.3
		c1.7,0.6,3.5,1.2,5.3,1.3c3.7,0.3,6.8-1.5,7.9-4.7c0.9-2.7,2.5-4.9,4.7-6.7c2.1-1.8,3.3-4.1,3.5-6.9c0.1-1.8,0.2-3.7,0-5.5
		c-1-6.7-2.1-13.3-3.1-19.9c-0.2-1.3-0.4-2.5-0.4-3.8c0-0.9,0.1-1.9,1-2.6c0.8,2.9,1.5,5.6,2.3,8.3c0.2,0.6,0.3,1.2,0.6,1.7
		c0.3,0.6,0.8,1.1,1.6,0.8c0.8-0.3,0.5-0.9,0.4-1.6c-0.4-2-0.9-3.9-1.1-5.9c-0.2-1.9-0.3-3.8,0.2-5.9c1.3,0.4,1.8,1.3,2.1,2.3
		c0.3,1.2,0.4,2.4,0.4,3.6c0.3,5.8,0.5,11.6,0.8,17.4c0.1,2.1,0.4,4.2,0.6,6.4c-1,0.2-1.8,0.4-2.7,0.6c-0.6,3.1-0.5,6.1-0.1,9.2
		c0.2,1.3-0.2,2.2-0.9,3.2c-3.7,4.7-8.4,8.2-13.3,11.5c-1.7,1.1-3.7,1.4-5.8,1.1c-2.7-0.4-5.1-1.5-7.5-2.9
		c-11.6-6.8-23.1-13.5-34.7-20.3c-0.7-0.4-1.3-0.9-1.8-1.5C44.2,141.9,43.9,141.2,44.7,140.3z M45.5,400.1c1.2,1.2,1.2,1.2,0.2,2.3
		C44.7,401.4,44.7,401.4,45.5,400.1z"/>
	<path class="st0" d="M276,506.9c0.6-0.1,1.2-0.4,1.8-0.4c2.2,0,3.3-1.4,4.1-3.2c0.8-1.9,0.9-4,0.4-6c-0.3-1.4-0.8-2.8-1.4-4.2
		c-0.6-1.7-1.4-3.3-2-4.9c-0.7-1.7-1-3.5-0.8-5.4c0.7-10.8,0.3-21.7-0.7-32.5c-1.3-15-3.7-29.8-5.9-44.6
		c-2.2-15.2-3.7-30.5-4.2-45.9c-0.4-11.4-0.8-22.9-1.3-34.3c-0.7-16.1-2-32.1-5.2-48c-0.4-1.9-0.8-3.8-1.2-5.7
		c5.1,0,14.5,6.7,17.1,11.9c-1.1-0.7-2.2-1.5-3.3-2.2c-1.3-0.8-2.5-1.5-3.9-2.1c-1.2-0.6-2.6-1.1-3.8-1.6c-0.1,0.1-0.2,0.2-0.2,0.3
		c0.4,0.5,0.9,0.9,1.3,1.4c9.2,8.8,19.5,16.1,31,21.5c4.7,2.2,7.5,5.8,8.8,10.6c1,3.7,1.4,7.5,1.5,11.3c0.3,9.3,0.6,18.6,0.8,27.9
		c0.3,10.1,0.6,20.2,0.8,30.3c0.3,10.1,0.6,20.2,0.9,30.3c0.1,4.1,0.4,8.2,0.7,12.3c0.3,3,1.2,5.9,2.8,8.5c1.8,2.9,4.3,4.9,7.6,5.8
		c6,1.7,10.8-1.2,11.8-7.4c0.4-2.7,0.5-5.5,0.4-8.2c-0.4-11.6-0.8-23.3-1.3-34.9c-0.5-12.1-0.9-24.2-1.4-36.4
		c-0.4-10.6-0.8-21.2-1.1-31.8c0-0.3,0-0.6,0-1.1c0.7,0.4,1.3,0.8,1.8,1.1c6.4,4.3,12.9,8.5,19.3,12.8c1.2,0.8,2.5,1.5,3.9,2.1
		c0.7,0.3,1.5,0.4,2.3,0.5c1.8,0.1,3-0.8,3.7-2.5c0.6-1.4,0.4-2.9,0.2-4.4c-0.5-2.9-1.8-5.3-3.6-7.6c-2-2.5-4.3-4.5-6.9-6.3
		c-1.9-1.3-3.9-2.5-5.9-3.7c-1-0.6-2-1.2-3-1.8c-9.3-5.3-14.3-13.4-16.1-23.8c-0.8-4.9-1.2-9.9-1.1-14.8c0.1-12,0.4-24,0.5-36
		c0-1.9-0.1-3.7-1-5.4c-0.4-0.8-1-1.6-1.7-2.1c-1.3-1-2.3-0.6-2.5,1.1c-0.5,4.8-1.2,9.6-1.4,14.5c-0.4,7.6-0.5,15.2-0.6,22.8
		c-0.1,7.6,0.5,15.2,1.3,22.7c0,0.4,0,0.7,0.1,1.1c-1.6,0.5-3.1,0.2-4.5-0.4c-2.5-1.2-4.1-3.2-5.1-5.7c-0.9-2.3-1.1-4.6-1.2-7
		c-0.1-5.9-0.1-11.8-0.2-17.6c0-5.3-0.1-10.7-0.1-16c0-2.5,0.1-5,0.9-7.5c0.6-1.8,1.6-3.3,3.1-4.5c0.9-0.7,1.8-1.5,2.6-2.3
		c0.7-0.7,1.2-1.7,0.8-2.7c-0.7-1.7-0.4-3.2,0.8-4.6c1.3-1.5,3-2.3,5-2.2c1.6,0.1,3.1,0.6,4.5,1.4c1.3,0.7,2.5,1.5,3.7,2.3
		c20.7,13.9,42.8,25.1,66.2,33.5c0.7,0.2,1.4,0.5,2.1,0.7c0,0,0.1,0,0.4-0.1c-0.6-0.4-1.1-0.7-1.6-0.9c-21.8-11.5-43.6-23-65.3-34.5
		c-2.4-1.3-4.8-2.4-7.5-3c-3.2-0.7-6.1-0.2-8.7,1.8c-0.9,0.7-1.9,1.4-2.7,2.2c-12.1,10.2-24.2,20.3-36.3,30.5c-1,0.9-2,1.8-2.9,2.8
		c-1.8,2.2-2,4.6-0.3,6.9c0.8,1.2,1.8,2.3,2.9,3.3c10.8,10.4,22.7,19.5,35.1,27.9c11.6,7.9,23.6,15.2,35.6,22.4
		c2.7,1.6,5.5,3.3,7.6,5.7c1.2,1.4,2.4,3,3.2,4.6c1,1.9,1.1,4-0.2,6.2c-0.8-0.2-1.7-0.3-2.5-0.5c-2.3-0.7-4.2-2-6-3.6
		c-1.9-1.7-3.8-3.5-5.7-5.2c-2.1-1.9-4.4-3.5-7.2-4.4c-3.3-1.1-6.5-1.3-9.4,1.1c-0.1,0.1-0.2,0-0.3,0c-0.9-2.8-1.8-5.6-2.7-8.5
		c2,0.1,4,0.1,6,0.2c0-0.1,0.1-0.2,0.1-0.3c-0.4-0.2-0.9-0.5-1.3-0.7c-23.4-10.3-44.8-23.9-64.2-40.7c-3-2.6-6.5-1.4-7.1,2.6
		c-0.3,1.6-0.1,3.3,0.1,4.9c1,8,2.2,16,3.2,24c1.3,11.6,2.1,23.2,2.3,34.8c0.2,9.9,0.2,19.7,0.4,29.6c0.2,10.6,1.4,21.1,3.3,31.6
		c2.3,13.4,4.3,26.8,5.2,40.4c0.6,9.2,1.1,18.5,1.5,27.7c0.5,9.1,0.8,18.2,1.2,27.4c0.1,2.4,0.2,4.8,0.2,7.2c0,2.8-1.7,3.8-4.3,2.6
		c-1.5-0.7-2.6-2-3.6-3.3c-1.5-2.1-2.5-4.5-2.9-7.1c-0.6-4.3-1.2-8.6-1.6-12.9c-1.5-16.2-2.9-32.3-4.3-48.5
		c-1-12.3-1.9-24.5-2.8-36.8c-0.8-11.5-1.6-23.1-2.3-34.6c-0.7-10.7-1.2-21.4-1.8-32.1c-0.6-11.3-1.1-22.6-1.6-34
		c-0.4-8.4-0.7-16.9-1-25.3c0-1.1-0.1-2.2-0.2-3.3c-0.2-3.1-1.7-5.2-4.5-6.6c-4.7-2.4-9.3-4.9-14-7.3c-18-9.4-35.9-18.8-54.2-27.5
		c-14.9-7-30-13.6-45.6-19c-0.3-0.1-0.7-0.2-1.1,0c0.7,0.3,1.3,0.7,2,1c34.1,16.2,67,34.4,98.8,54.7c2.4,1.5,4.8,3.2,7.3,4.7
		c4.8,2.9,7.1,7.2,7.5,12.8c0.5,8.9,1.2,17.8,1.8,26.8c0.7,10.8,1.4,21.6,2.1,32.5c0.7,10.1,1.3,20.2,2,30.3
		c0.8,11.6,1.5,23.2,2.3,34.8c0.7,10.9,1.4,21.8,2.1,32.6c0.8,11.7,1.5,23.5,2.3,35.2c0.4,6,0.8,12.1,1.3,18.1
		c0.5,6.2,1.7,12.3,4.7,17.8c0.1,0.2,0.1,0.6,0.1,0.9c0.1,0,0.2,0,0.4,0c1-1.3,2.7-1.5,3.7-2.1c2.4,1,4.6,1.8,6.7,2.7
		c0.4,0.2,0.9,0.4,1.3,0.6C275.2,506.9,275.6,506.9,276,506.9z M315.2,307.4c-0.6,1-0.3,1.6,0.3,2.1c0.6,0.6,1.3,1.2,2,1.5
		c3.3,1.5,5.1,4.2,5.9,7.5c0.6,2.6,1,5.3,1.1,8c0.5,13.2,0.9,26.3,1.3,39.5c0.4,14.3,0.9,28.6,1.2,43c0.1,5-0.3,10-1.4,15
		c-0.2,0.8-0.4,1.6-0.7,2.3c-1,2.1-2.8,2.7-4.9,1.7c-1.3-0.6-2.2-1.6-2.5-3c-0.4-1.3-0.6-2.6-0.7-4c-0.2-3.9-0.3-7.7-0.4-11.6
		c-0.6-15.4-1.1-30.7-1.7-46.1c-0.6-16.1-1.2-32.2-1.8-48.3c0-0.8-0.2-1.7-0.6-2.5c-0.6-1.4-1.5-2.5-3.3-2.1c-0.6-3.5-2-6.5-3.9-9.4
		c5.2,1.5,10,3.8,14,7.4C317.8,308.2,316.5,307.8,315.2,307.4z M306.4,232c0.7,3,0.2,5.8-1.7,8.1c-1.7,2.1-2.2,4.3-2.1,6.8
		c0.1,6.2,0.3,12.5,0.5,18.7c0.1,3.4,0.2,6.9,0.2,10.3c0,1.5-0.6,2.1-2,1.7c-1-0.3-1.9-0.8-2.7-1.4c-6-4.9-11.6-10.3-16.8-16.1
		c-0.2-0.3-0.5-0.5-0.7-0.8c-0.8-1.2-0.8-1.8,0.2-2.9c0.4-0.4,0.8-0.8,1.2-1.1c4.9-4.5,9.8-8.9,14.7-13.4c1.3-1.2,2.7-2.3,2.6-4.3
		c0-0.1,0.1-0.2,0.1-0.4C300.7,234.2,303.5,232,306.4,232z M244.7,266.7c-3.7-3.3-7.7-6.2-11.9-8.7c-4.3-2.5-8.7-4.8-13-7.2
		c-3.5-2-7.1-3.9-10.6-5.9c-4.7-2.8-9.1-5.9-13.1-9.8c-0.3-0.3-0.6-0.6-0.9-0.9c0.1-0.1,0.2-0.2,0.3-0.3c0.5,0.3,1,0.6,1.5,0.9
		c3.5,2.2,7,4.3,10.4,6.5c8.1,5,16.3,10,25,13.9c3,1.3,6,2.4,9,3.7c1.3,0.6,2.7,1.3,3.7,2.3C246.9,262.8,246.7,265.1,244.7,266.7z
		 M330.1,420c0.2,0.3,0.4,0.5,0.5,0.8c2.7,5.5-1,13.1-7,14.4c-1,0.2-2.2,0.2-3.3,0c-1.9-0.4-2.6-2-1.9-3.8c0.3,0,0.6,0.1,0.9,0.1
		c4.5,0.9,8.4-1.9,9-6.4c0.1-0.8,0.1-1.6,0.3-2.4C329,421.8,329.1,420.8,330.1,420z M324.8,298.7c-2.9-1.9-5.5-3.6-8.1-5.3
		c0.2-1.5,1.3-2.2,2.3-2.9c1.8-1.3,2.9-3,3.2-5.1c0-0.3,0.1-0.5,0.3-1.1C324.7,288.9,325.5,293.5,324.8,298.7z M281.7,252.2
		c-3.7,3.7-4.1,6.3-1.7,11.5c-3-0.3-5.5-3.4-5.1-6.4C275.3,254.1,278.4,251.7,281.7,252.2z M307.1,277.9c0.2,2.4,0.4,4.8,0.5,7.1
		c0,0.9-0.7,1.3-1.5,0.9c-2.4-1.1-4.3-2.9-5.6-5.3C302.6,279.1,304.7,278.3,307.1,277.9z M320.9,255.7c3,3.5,3.3,10,0.6,13.4
		C319.4,264.7,319,260.4,320.9,255.7z"/>
	<path class="st0" d="M43.6,55.1c-0.7,0.2-1.4,0.4-2.1,0.7c-2,1-2.9,3.2-2.5,5.8c0.4,2.1,1.3,4,2.5,5.7c0.7,0.9,1.4,1.9,2.2,2.7
		c11.1,11,24.1,18.8,38.9,23.5c0.2,0.1,0.3,0.1,0.6,0c-8.7-4.9-17.4-10-25.5-15.8c7.9,4.1,15.9,8,24.4,10.8c0.1-0.1,0.1-0.2,0.2-0.3
		c-0.5-0.3-1.1-0.7-1.6-1C69.6,80.6,58.4,74,47.3,67.3c-1.2-0.7-2.4-1.4-3.5-2.4c-0.8-0.7-1.5-1.6-2-2.6C41,60.8,41.6,59,43,58
		c0.8-0.6,1.7-0.7,2.6-0.2c0.4,0.3,0.8,0.5,1.3,0.8c12.3,7.5,24.7,15.1,37,22.6c0.6,0.3,1.1,0.7,1.8,1c0.5-0.8,1-1.6,1.5-2.4
		c0.3,0.2,0.6,0.4,0.8,0.6c10.3,8.6,21.6,15.8,33.4,21.9c16.4,8.5,32.9,16.7,49.4,24.9c36.6,18.2,73.2,36.2,109.7,54.5
		c35.8,18,71.1,36.9,105.7,57.1c3.1,1.8,6.1,3.8,9.1,5.9c2.6,1.9,4.8,4.1,6.6,6.9c1.1,1.7,1.9,3.6,2.3,5.6c0.2,1-0.1,1.8-1,2.1
		c-0.9,0.3-1.9,0.5-2.8,0.5c-2.1,0-3.9-0.9-5.7-1.8c-16.8-8.3-33.6-16.7-50.3-25c-4.8-2.4-9.7-4.8-14.5-7.2
		c-0.3-0.2-0.7-0.3-1.2-0.2c0.4,0.4,0.9,0.8,1.3,1.2c5.7,4.7,11.8,8.5,18.2,12c9.2,5,18.7,9.1,28.2,13.4c6.5,3,13.1,5.9,19.6,8.8
		c1.5,0.7,3.1,1.2,4.7,1.4c2.3,0.4,4.2-0.5,5.7-2.3c2.2-2.6,2.7-5.7,1.9-9c-0.5-2.1-1.5-3.9-2.9-5.5c-1.9-2-3.9-4-6-5.7
		c-8.1-6.6-17-12-26.2-16.9c-18.1-9.5-36.3-18.9-54.5-28.3c-69-35.5-138.5-70-208.3-103.8c-6.9-3.3-13.4-7.5-19.7-11.8
		c-6-4.2-12.1-8.4-18.2-12.5c-6.5-4.3-13.3-7.8-20.7-10.2c-0.9-0.3-1.8-0.6-2.7-0.9C47.3,55.5,45.5,55.3,43.6,55.1z M401.2,246.2
		c-10.9-8.3-22.5-15.6-34.1-22.8c3.1,1.2,6.1,2.6,9,4.1c8.4,4.3,16.2,9.6,23.3,15.8C400.3,244,401.2,244.8,401.2,246.2z M71.3,69.3
		c4.1,0.6,10.7,5.5,11.9,8.6C79.2,75,75.3,72.1,71.3,69.3z M143,109.3c-0.1,0.1-0.1,0.2-0.2,0.3c-5.3-2.7-10.6-5.5-15.9-8.2
		C132.8,103,138.1,105.7,143,109.3z M65.8,66.4c-3.1,0-5.3-1.6-7.3-3.8C61.2,63.4,63.7,64.6,65.8,66.4z M52.5,58.7
		c1.6,0.4,2.6,1,3.5,2.2C53.9,61.1,53.4,60.7,52.5,58.7z M152.3,114.7c0.8,0.5,1.6,0.9,2.3,1.4C153.4,116.3,153,115.3,152.3,114.7z"
		/>
	<path class="st0" d="M274.9,506.8c-0.4-0.2-0.9-0.4-1.3-0.6c-2.1-0.9-4.3-1.7-6.7-2.7c-1,0.6-2.7,0.7-3.7,2.1
		C267.1,506.1,271,506.4,274.9,506.8z"/>
	<path class="st0" d="M118.1,355.3c-0.9-1.9-1.7-3.5-2.6-5.4c0.6,0.2,0.9,0.4,1.2,0.5c3,1.5,6.4,1,8.8-1.3c2-1.9,3-4.3,3.5-7
		c0.3-1.5,0.4-3,0.6-4.6c0.2-2.6,0.4-5.3,0.7-7.9c0.1-0.6,0.2-1.3,0.4-2c0.3,0.2,0.5,0.2,0.5,0.3c2,4.5,3.6,9.1,3.6,14.1
		c0,4.2-1.6,7.8-4.7,10.6c-2.3,2-5,3.1-8.5,2.6c1.5,1.2,2.9,1.4,4.4,1.3c4.9-0.5,8.9-4.3,10-9.4c0.6-3.3,0.5-6.6,0-9.9
		c-1.4-8.8-2.9-17.5-4.3-26.3c-2.8-18.1-4.8-36.3-6-54.6c-0.7-11.4-1.2-22.9-1.7-34.3c-0.2-4.5-0.6-9-1.8-13.5
		c-1.5-5.7-4.3-10.7-8.9-14.5c-0.1-0.1-0.3-0.2-0.3-0.5c14.2,5.7,28.1,11.8,42.3,17.6c-40.2-20.1-80.4-39.9-120.8-59.7
		c2.1,2.3,4.6,4.3,7.2,6c2.7,1.7,5.5,3.2,8.2,5c-3.5-1-7-2-10.5-2.9c0,0.1-0.1,0.1-0.1,0.2c0.2,0.2,0.4,0.4,0.7,0.6
		c0.3,0.2,0.7,0.3,1,0.5c14.2,7.1,28.5,14.2,42.7,21.3c2.3,1.2,4.6,2.5,6.8,4c3.2,2.2,4.9,5.2,5.3,9.2c1.8,17.9,3.7,35.7,5.6,53.5
		c2,19,4,38,6,57c1.3,12.4,2.6,24.7,3.9,37.1c0.3,2.8,0.8,5.5,2,8C114.1,352.9,115.5,354.5,118.1,355.3z M95.2,184.1
		c0.6,0.3,1.2,0.6,1.7,1c5.3,3.1,10.2,6.8,14.6,11.1c1,1,2,2,2.9,3.1c1.2,1.4,1.9,3.1,2.1,5c1,11.2,2,22.3,3.1,33.5
		c1.4,15.8,2.9,31.6,4.3,47.4c1.5,16.4,3,32.8,4.5,49.2c0.2,2.6,0.3,5.1-0.2,7.7c-0.3,1.6-0.9,3.1-1.9,4.3c-1.6,2-4.6,2.8-7.2,2
		c-2.5-0.8-3-2.7-3.3-5c-2.2-20-4.5-40-6.7-60c-1.6-14.2-3.2-28.3-4.8-42.5c-1.2-10.8-1.5-21.7-2-32.6
		C101.9,199.6,100.5,191.3,95.2,184.1z M87.7,181.8c-2.3-0.7-3-1.1-3.8-2.5C85.4,179.8,86.6,180.4,87.7,181.8z"/>
	<path class="st0" d="M267.4,183.4c-3.8-0.4-6.9,0.5-9.6,2.4c-1.8,1.3-3.6,2.8-5.2,4.4c-12.1,12.1-23,25.1-32.9,39
		c-0.1,0.2-0.3,0.4-0.4,0.6c-1.6,2.5-1.5,4.3,0.7,6.4c4.1,3.8,8.8,6.7,14,8.5c2.4,0.8,4.8,1.4,7.3,1.9c2.5,0.5,4.8,1.3,6.9,2.8
		c1.5,1.1,3,2.3,4.6,3.3c4.3,2.8,7.7,2.7,11.9-0.3c1.1-0.8,2.1-1.7,3.2-2.5c11.9-10.3,23.8-20.6,35.8-30.9c1-0.9,2-1.8,2.9-2.8
		c2-2.2,2.5-4.7,1.7-7.5c-0.7-2.2-1.9-4.1-3.7-5.6c-1.6-1.3-3.3-2.5-5.1-3.5c-7.1-4.1-14.2-8.1-21.4-12.2c-2.7-1.5-5.5-2.9-8.6-3.7
		C268.6,183.6,267.8,183.5,267.4,183.4z M261.1,245c-2.4-0.2-4.5-1-6.5-2.1c-1.9-1.1-3.7-2.2-5.5-3.3c-2.3-1.4-4.8-2.4-7.6-2.7
		c-1.8-0.2-3.6-0.5-5.5-0.8c-2.8-0.5-5.3-1.6-7-4c-1.7-2.5-1.7-4.7,0-7.1c6.9-9.5,14.3-18.5,22.3-27.1c1.5-1.6,3.1-3,4.7-4.3
		c2-1.6,4.4-2.6,7.1-2.7c2-0.1,3.9,0.4,5.8,1.1c9.1,3.3,17.6,7.7,25.6,13.1c1.2,0.8,2.3,1.8,3.2,3c2,2.6,1.8,5.4-0.7,7.7
		c-9.6,9-19.3,17.9-28.9,26.9C266.1,244.6,263.8,245.3,261.1,245z M265,248c-0.7,2.2-2.1,3-3.9,3.4c-2.6,0.6-5.1,0.2-7.4-1.2
		c-1.9-1.2-3.6-2.5-5.4-3.8c-2-1.5-4.1-2.6-6.6-3c-1-0.1-2.1-0.2-3.1-0.3c-6.5-0.7-11.6-4.4-16.4-8.4c-0.6-0.5-1-1.4-1.2-2.2
		c-0.4-1.2,0-2.3,0.9-3.2c0.7-0.7,1.5-1,2.5-0.6c0.6,4.1,3.2,6.6,6.8,8.1c1.7,0.7,3.6,1.3,5.4,1.6c5.1,0.9,10,2.4,14.4,5.1
		c0.6,0.4,1.3,0.7,1.9,1C256.6,246.5,260.4,248.2,265,248z M293.9,200.4c3.8,0.8,7,2.7,9.6,5.5c3.1,3.4,3.1,7.1,0.2,10.6
		c-1.5,1.9-3.5,3.3-5.5,4.5c-0.3,0.2-0.7,0.3-1.2,0.5c0-1.3,0.6-2.1,1.2-3c0.6-0.8,1.2-1.5,1.9-2.3c2-2.3,2.4-4.8,1.2-7.5
		c-0.7-1.5-1.7-2.9-2.7-4.1c-1-1.2-2.2-2.1-3.4-3.1C294.8,201.1,294.3,200.8,293.9,200.4z M262.3,187.7c-0.1-0.2-0.1-0.3-0.2-0.5
		c0.5-0.4,1-0.8,1.6-1c1.5-0.6,3.1-0.6,4.7-0.2c3.6,1,6,3.7,9,5.6c-0.1,0.1-0.1,0.2-0.2,0.4C272.3,190.5,267.3,189.1,262.3,187.7z
		 M285.9,195c2,0.1,2.6,0.6,3,2.2C286.9,197.3,286.5,197,285.9,195z"/>
	<path class="st0" d="M-45.6,100c0.3,0.5,0.6,1,0.9,1.5c12.5,18.3,28.6,32.5,48.4,42.4c4.2,2.1,6.8,5.3,8.2,9.6
		c1.4,4.2,1.8,8.5,2.1,12.8c0.8,12.5,1.6,24.9,2.5,37.4c0.8,11.5,1.5,23.1,2.3,34.6c0.9,13.1,1.7,26.1,2.6,39.2
		c0.8,11.1,1.5,22.2,2.4,33.3c1.6,19.9,4,39.6,8.9,59c1.9,7.6,4.2,15.1,7,22.4c0.3,0.7,0.5,1.3,1,2c-0.1-0.5-0.1-1-0.2-1.5
		c-5.5-27.4-10.1-55-13.4-82.8c-2.1-17.3-3.9-34.7-5-52.1c-0.8-12.3-1.5-24.7-2.1-37c-0.4-8.4-0.5-16.8-0.6-25.2
		c-0.1-11.4,0-22.8,0-34.2c0-2.7-0.2-5.4-0.7-8c-0.7-4.5-2.9-8.3-6.4-11.2c-1.9-1.6-4-3.1-6.2-4.3C-10,129-24.3,117.9-38.2,106
		c-2.1-1.8-4.2-3.6-6.3-5.4c-0.3-0.3-0.6-0.5-1-0.8C-45.5,99.9-45.5,100-45.6,100z M-23,122.5c0.1-0.1,0.2-0.2,0.3-0.3
		c3,2,6.1,3.9,9.1,5.9c8,5.2,16.1,10.4,24.1,15.5c3.1,2,4.9,4.8,5.3,8.4c0.1,0.9,0,1.8-0.1,2.6c-1-1.1-1.7-2.4-2.5-3.5
		c-3-4.5-7.1-8-11.5-10.9c-3.7-2.5-7.6-4.7-11.4-7.1c-3.7-2.3-7.2-4.6-10.4-7.6C-21.1,124.5-22,123.5-23,122.5z"/>
	<path class="st0" d="M107.4,168.7c-0.4,4,1.1,7.1,4.7,9.1c10.8,5.8,21.5,11.7,32.3,17.5c1.3,0.7,2.7,1.2,4.1,1.6
		c2.3,0.7,4.5,0.3,6.4-1.2c1-0.8,2-1.6,2.9-2.5c11.6-11.5,23.2-22.9,34.7-34.4c0.8-0.8,1.5-1.6,2.3-2.4c1.5-1.8,1.7-3.7,0.7-5.8
		c-1.1-2.3-2.6-4.3-4.5-6c-3.5-3.3-7.7-5.4-12.3-6.8c-4-1.2-8.2-2.2-12.3-3.1c-5.4-1.2-10.9-2.5-16-4.9c-1.2-0.5-2.4-0.9-3.6-1.3
		c-2.8-0.8-5.4-0.3-7.7,1.4c-1.3,1-2.6,2.1-3.7,3.3c-6.4,6.6-12.8,13.2-19.1,19.9c-2.3,2.4-4.3,5.1-6.3,7.9
		C108.6,163.2,107.6,165.8,107.4,168.7z M143.2,134.3c1.1,0.2,1.7,0.3,2.4,0.5c9.9,2.5,19.8,5.1,29.7,7.7c2.8,0.7,5.6,1.4,8.1,2.9
		c2.4,1.4,4.1,3.2,4.9,5.9c0.7,2.6,0.3,4.8-1.6,6.8c-8.1,8.6-16.1,17.3-24.2,25.9c-1.1,1.2-2.3,2.2-3.6,3.2
		c-2.2,1.6-4.6,2.2-7.3,1.4c-1.2-0.4-2.3-0.8-3.4-1.2c-10.5-4.6-20.3-10.3-29.5-17c-0.5-0.4-1.1-0.8-1.6-1.3
		c-1.7-1.5-2.2-3.3-1.6-5.5c0.3-1.1,0.7-2.1,1.2-3.1c1.8-3.8,4.2-7.2,6.9-10.3c4.2-4.8,8.9-9.1,13.8-13.2c0.9-0.8,2-1.5,3.1-1.9
		C141.4,134.6,142.5,134.5,143.2,134.3z M113.9,160.5c-0.1,0.3-0.3,0.7-0.4,1c-1.3,3.7-0.7,7,2.2,9.8c0.9,0.9,2,1.7,3,2.4
		c3.9,2.5,7.8,5.1,11.8,7.5c5.9,3.6,12.1,6.7,18.7,8.8c2.5,0.8,5.1,1.5,8.1,2.4c-0.8,0.5-1.4,0.8-1.9,1.1c-2.5,1-5.1,1.1-7.7,0.5
		c-3.1-0.7-6-2.2-8.7-3.8c-7.7-4.3-15.3-8.7-23-13c-0.6-0.4-1.3-0.7-1.9-1.1C108.3,171.9,108.6,164.1,113.9,160.5z M192,154.9
		c-0.2-1.5-0.4-3-0.6-4.4c1.5-0.5,2.1-0.2,2.5,1C194.5,152.9,193.8,154.3,192,154.9z"/>
	<path class="st0" d="M163.7,209.2c-3.7-3.8-3.6-8.4,0.1-10.5c0.2,0.7,0.4,1.4,0.6,2.1c0.6,2,1.8,3.6,3.3,5c2.1,2,4.5,3.6,7.1,4.9
		c6.8,3.3,13.6,6.5,20.4,9.7c2.7,1.2,5.5,2.1,8.5,1.9c2.6-0.2,4.9-0.9,6.8-2.7c0.2-0.1,0.4-0.2,0.7-0.4c0.4,1.3,0,2.4-0.6,3.4
		c-1.4,2.2-3.5,3.4-6.1,3.4c-2.2,0-4.3-0.4-6.3-1.2c-5.9-2.4-11.8-4.8-17.7-7.2c-0.6-0.2-1.1-0.4-1.8-0.4c0.4,0.3,0.8,0.7,1.3,1
		c6.6,4.6,13.9,7.7,21.6,9.8c3.6,0.9,6.4,0.1,8.9-2.8c12.5-14.3,25.1-28.5,37.6-42.8c0.6-0.7,1.2-1.5,1.7-2.4
		c1.4-2.3,1.2-4.6-0.4-6.7c-0.8-1-1.8-2-2.9-2.7c-1.4-1-2.9-1.8-4.5-2.4c-7.5-3.1-15.1-6.2-22.6-9.1c-2.5-1-5.1-1.6-7.8-2.1
		c-3.6-0.6-7.1,0.2-10.3,2c-2.9,1.6-5.5,3.7-7.8,6.1c-5.8,6.1-11.6,12.2-17.3,18.3c-4.8,5-9.5,10.1-14.2,15.1
		c-0.7,0.8-1.4,1.5-2.1,2.3C157.1,204.1,159,208.6,163.7,209.2z M209.8,164.3c1.2,0.3,2.4,0.6,3.5,1c7.7,2.9,15.3,5.8,23,8.7
		c0.9,0.3,1.7,0.7,2.5,1.2c2.7,1.6,3.6,4,2.2,6.9c-0.7,1.5-1.6,2.9-2.7,4.2c-5.8,7.3-12,14.3-18.7,20.7c-4.3,4.1-8.7,8.1-13.1,12.1
		c-1.7,1.5-3.5,1.8-5.6,0.9c-9.3-4.3-18.6-8.4-27.9-12.7c-1.4-0.7-2.8-1.6-3.9-2.6c-2.7-2.5-2.8-5.7-0.4-8.5
		c7.9-9.2,16.7-17.4,26.5-24.5c2.7-2,5.5-3.8,8.4-5.7C205.5,164.7,207.5,164,209.8,164.3z M187.3,174.1c-0.1-1.7,0.9-2.4,1.8-3.1
		c3.9-3,7.9-6,11.9-9c0.8-0.6,1.7-1.2,2.6-1.7c2.3-1.3,4.7-1.7,7.3-1.2c1.1,0.2,2.2,0.4,3.2,0.8c6.5,2.4,12.9,4.9,19.4,7.4
		c3.1,1.2,6.3,2.4,9.4,3.7c1.5,0.6,2.9,1.5,4,2.9c1.3,1.6,1.4,3.9,0.4,5.5c-0.5,0.9-1.2,1.5-2.4,1.5c-0.6-4.7-3.8-7.1-7.6-9.1
		c-1.1-0.6-2.3-1.2-3.5-1.6c-7.1-2.5-14.2-5.1-21.3-7.5c-3.9-1.4-7.6-0.8-11,1.6c-1.4,1-2.8,2.2-4.2,3.3c-1.7,1.4-3.3,2.8-5,4.1
		C190.8,172.6,189.3,173.5,187.3,174.1z"/>
	<path class="st0" d="M113.7,143.7c1.4,0.3,2.4-0.1,3.3-0.7c0.9-0.6,1.7-1.2,2.5-1.9c5.6-5.1,11.2-10.1,16.7-15.2
		c2.5-2.3,2.9-5.2,0.9-8c-0.9-1.2-2-2.3-3.3-3.2c-7.4-5.3-15.5-8.9-24.2-11.2c-1.5-0.4-2.8-0.1-4,0.8c-6.5,5.2-13.9,8.6-21.5,11.7
		c-5.6,2.3-11.3,4.5-16.8,6.9c-5,2.2-9.8,4.8-14,8.3c-1.8,1.5-3.4,3.2-5.1,4.8c-0.4,0.4-0.7,0.8-1.1,1.4c1.9,0.5,3-0.5,4.3-1.7
		c0.7,3.8,3.1,6,5.9,8c1.2,0.8,2.5,1.6,3.8,2.3c8.2,4.4,16.4,8.7,24.6,13.1c0.5,0.3,1.1,0.5,1.7,0.8c0.3-1-0.1-1.6-0.6-2.1
		c-0.5-0.5-1.1-0.9-1.7-1.3c-8-5.4-16.4-10-25.2-13.9c-1.2-0.5-2.5-1.1-3.5-1.9c-2.4-1.8-2.3-4.1,0.1-5.9c0.6-0.4,1.2-0.8,1.9-1.1
		c9.2-4.6,18.4-9.2,27.6-13.7c0.3-0.1,0.6-0.2,1-0.4c2.2,12.4,3.3,24.9,3.4,37.5c1.4,0.1,2.1-0.7,2.8-1.7c1,0.5,1.9,1,3,1.6
		c-0.1-0.6-0.1-1.1-0.1-1.5c-1.7-10.1-2.3-20.3-2.2-30.6c0.1-3.9,1.3-7.2,3.7-10.1c2.9-3.4,6.4-6.1,10-8.6c0.5-0.3,1.1-0.6,1.7-0.7
		c1.9-0.4,3.2,0.7,3.1,2.7c-0.1,1.1,0.3,1.8,1.1,2.3c0.9,0.5,1.8,1,2.8,1.2c4.4,1.2,8.5,3.1,12.1,5.9c3.4,2.6,3.7,4.7,0.9,8
		c-4.7,5.6-9.5,11-14.3,16.5C114.6,142.5,114.2,143,113.7,143.7z M90.2,123.4c-0.6-2.4-2-4.3-4-5.8c1.8-2,3.8-3.1,6.4-3
		c0,0.3,0.1,0.5,0.1,0.7c-0.5,2-1,4-1,6.1C91.7,122.2,91.3,123,90.2,123.4z M132.3,117.3c2.2,0.7,3.6,2.4,3.8,4.6
		c0,0.5,0.1,1.1-0.1,1.4c-0.4,0.5-1,1-1.5,1c-0.7,0.1-0.7-0.6-0.8-1.2C133.2,121.2,132.7,119.2,132.3,117.3z"/>
	<path class="st0" d="M29.9,151.5c-1.1,0.8-1.7,1.9-1.7,3.1c0,1.6-0.1,3.4,0.3,4.9c3,10.1,3.5,20.6,4.6,31
		c1.8,17.9,3.5,35.8,5.2,53.8c1.7,17.9,3.5,35.8,5.2,53.8c1.7,17.9,3.5,35.8,5.2,53.8c0.7,7.5,1.4,15,1.8,22.5
		c0.5,8-0.2,15.9-3,23.5c-0.1,0.2-0.1,0.3-0.1,0.6c1.5,0.9,2.5,2.2,2.9,4.1c0.5-1.2,1-2.5,1.4-3.7c1.8-5.7,2.4-11.5,2.3-17.4
		c-0.1-9-1.3-18-2.1-26.9c-1.6-16.8-3.2-33.5-4.8-50.3c-1.7-17.3-3.3-34.6-5-51.9c-1.7-18-3.4-36-5.2-53.9
		c-0.9-9.1-1.7-18.2-2.8-27.2c-0.4-3.4-1.4-6.8-2.2-10.2c-0.7-2.9-1.7-5.8-1.6-8.8C30.1,151.9,30,151.7,29.9,151.5z"/>
	<path class="st0" d="M-40.4,96.9c1.3,0.7,2.6,1.3,3.9,2c8.3,4.2,16.4,8.5,24,13.8c4.7,3.3,9,6.9,13,11c1.5,1.5,3,2.9,4.6,4.2
		c2.8,2.2,5.9,2.8,9.4,1.9c1.5-0.4,2.9-0.8,4.4-1.4c24.7-8.7,49.5-17.4,74.2-26.2c2.1-0.7,4-1.8,5.9-2.9c1.4-0.9,2.4-2.2,2.4-4.2
		c-0.4,0.2-0.7,0.3-0.9,0.4c-8,4.9-16.6,8.4-25.5,11.2c-8.8,2.7-17.6,5.2-26.4,7.9c-9.6,2.9-18.8,6.6-27.5,11.7
		c-1.8,1.1-3.9,1.8-5.9,2.5c-2.4,0.8-4.9,0.4-7.1-0.9c-1.4-0.8-2.5-1.9-3-3.8c0.7-0.1,1.4-0.1,2-0.1c7-0.4,13.7-1.9,20.3-3.9
		c14.5-4.5,29-9.1,43.5-13.6c3.9-1.2,7.6-2.7,11.1-4.9c0.7-0.4,1.3-0.9,2.1-1.4c-0.9-0.4-1.5,0-2,0.2c-14.9,4.8-29.9,9.6-44.8,14.4
		c-5.8,1.9-11.7,3.8-17.5,5.6c-1.7,0.5-3.6,0.9-5.4,1.2c-3.1,0.4-6-0.4-8.7-1.8c-2.6-1.4-5-3-7.4-4.7c-4-2.8-7.8-5.9-11.8-8.8
		c-5.1-3.6-10.5-6.7-16.6-8.5c-2.8-0.8-5.6-1.3-8.5-1.4c-0.5,0-1,0.1-1.6,0.1C-40.3,96.8-40.4,96.8-40.4,96.9z"/>
	<path class="st0" d="M44.7,140.3c-0.7,0.9-0.4,1.6,0,2.2c0.5,0.6,1.1,1.1,1.8,1.5c11.6,6.8,23.1,13.6,34.7,20.3
		c2.3,1.4,4.7,2.5,7.5,2.9c2.1,0.3,4.1,0,5.8-1.1c4.9-3.2,9.6-6.8,13.3-11.5c0.7-0.9,1.1-1.9,0.9-3.2c-0.4-3-0.5-6.1,0.1-9.2
		c0.9-0.2,1.7-0.4,2.7-0.6c-0.2-2.2-0.5-4.3-0.6-6.4c-0.3-5.8-0.5-11.6-0.8-17.4c-0.1-1.2-0.2-2.4-0.4-3.6c-0.2-1-0.8-1.9-2.1-2.3
		c-0.5,2-0.4,4-0.2,5.9c0.2,2,0.7,4,1.1,5.9c0.1,0.6,0.4,1.2-0.4,1.6c-0.8,0.4-1.3-0.1-1.6-0.8c-0.3-0.5-0.4-1.1-0.6-1.7
		c-0.7-2.7-1.5-5.4-2.3-8.3c-1,0.8-1.1,1.7-1,2.6c0,1.3,0.2,2.6,0.4,3.8c1,6.6,2.2,13.3,3.1,19.9c0.3,1.8,0.2,3.7,0,5.5
		c-0.2,2.7-1.3,5.1-3.5,6.9c-2.2,1.8-3.7,3.9-4.7,6.7c-1.1,3.2-4.2,5-7.9,4.7c-1.8-0.1-3.6-0.7-5.3-1.3c-1.5-0.6-3-1.5-4.4-2.3
		c-11.3-6.5-22.6-13.1-33.8-19.6C46,141,45.4,140.7,44.7,140.3z"/>
	<path class="st0" d="M45.5,400.1c-0.7,1.3-0.7,1.3,0.2,2.3C46.7,401.3,46.7,401.3,45.5,400.1z"/>
	<path class="st0" d="M330.1,420c-1,0.8-1.1,1.8-1.4,2.8c-0.2,0.8-0.2,1.6-0.3,2.4c-0.6,4.5-4.6,7.2-9,6.4c-0.3-0.1-0.6-0.1-0.9-0.1
		c-0.7,1.8,0,3.4,1.9,3.8c1,0.2,2.2,0.3,3.3,0c6-1.2,9.7-8.9,7-14.4C330.5,420.6,330.3,420.4,330.1,420z"/>
	<path class="st0" d="M324.8,298.7c0.7-5.2-0.1-9.7-2.3-14.5c-0.2,0.6-0.3,0.9-0.3,1.1c-0.3,2.2-1.4,3.9-3.2,5.1
		c-1,0.7-2,1.4-2.3,2.9C319.3,295.1,321.9,296.8,324.8,298.7z"/>
	<path class="st0" d="M281.7,252.2c-3.3-0.5-6.4,1.9-6.8,5c-0.4,3.1,2.1,6.2,5.1,6.4C277.7,258.5,278,255.9,281.7,252.2z"/>
	<path class="st0" d="M320.9,255.7c-1.8,4.6-1.4,9,0.6,13.4C324.2,265.7,323.9,259.3,320.9,255.7z"/>
	<path class="st0" d="M401.2,246.2c0-1.5-0.9-2.2-1.8-2.9c-7.1-6.2-14.9-11.5-23.3-15.8c-2.9-1.5-5.9-2.8-9-4.1
		C378.7,230.6,390.3,237.9,401.2,246.2z"/>
	<path class="st0" d="M71.3,69.3c3.9,2.8,7.8,5.7,11.9,8.6C82,74.8,75.4,69.9,71.3,69.3z"/>
	<path class="st0" d="M143,109.3c-4.9-3.6-10.2-6.4-16.1-7.9c5.3,2.7,10.6,5.5,15.9,8.2C142.8,109.5,142.9,109.4,143,109.3z"/>
	<path class="st0" d="M65.8,66.4c-2.2-1.8-4.6-3-7.3-3.8C60.5,64.8,62.8,66.4,65.8,66.4z"/>
	<path class="st0" d="M52.5,58.7c0.9,2,1.5,2.4,3.5,2.2C55.1,59.7,54.1,59.1,52.5,58.7z"/>
	<path class="st0" d="M152.3,114.7c0.7,0.6,1.1,1.7,2.3,1.4C153.9,115.6,153.1,115.1,152.3,114.7z"/>
	<path class="st0" d="M87.7,181.8c-1.1-1.4-2.3-2-3.8-2.5C84.8,180.7,85.4,181.1,87.7,181.8z"/>
	<path class="st0" d="M293.9,200.4c0.4,0.4,0.9,0.8,1.3,1.2c1.1,1,2.4,1.9,3.4,3.1c1.1,1.2,2,2.6,2.7,4.1c1.2,2.7,0.8,5.3-1.2,7.5
		c-0.6,0.7-1.3,1.5-1.9,2.3c-0.6,0.8-1.2,1.7-1.2,3c0.5-0.2,0.9-0.3,1.2-0.5c2-1.3,4-2.7,5.5-4.5c2.9-3.5,2.9-7.2-0.2-10.6
		C300.9,203,297.7,201.2,293.9,200.4z"/>
	<path class="st0" d="M262.3,187.7c5,1.4,10,2.8,14.9,4.2c0.1-0.1,0.1-0.2,0.2-0.4c-3-1.8-5.4-4.6-9-5.6c-1.6-0.4-3.1-0.5-4.7,0.2
		c-0.6,0.2-1.1,0.7-1.6,1C262.2,187.3,262.3,187.5,262.3,187.7z"/>
	<path class="st0" d="M285.9,195c0.6,2,1.1,2.3,3,2.2C288.5,195.6,287.9,195.1,285.9,195z"/>
	<path class="st0" d="M192,154.9c1.7-0.6,2.5-2,1.9-3.4c-0.4-1.2-1-1.4-2.5-1C191.6,151.9,191.8,153.4,192,154.9z"/>
	<path class="st0" d="M132.3,117.3c0.5,2,0.9,3.9,1.4,5.9c0.1,0.5,0,1.3,0.8,1.2c0.6-0.1,1.2-0.6,1.5-1c0.2-0.3,0.2-0.9,0.1-1.4
		C135.9,119.7,134.4,117.9,132.3,117.3z"/>
</g>
</svg>
