<?xml version="1.0" encoding="utf-8"?>
<!-- Generator: Adobe Illustrator 19.1.0, SVG Export Plug-In . SVG Version: 6.00 Build 0)  -->
<svg version="1.1" id="Layer_1" xmlns="http://www.w3.org/2000/svg" xmlns:xlink="http://www.w3.org/1999/xlink" x="0px" y="0px"
	 viewBox="-114 -98.7 612 792" style="enable-background:new -114 -98.7 612 792;" xml:space="preserve">
<style type="text/css">
	.st0{fill:none;}
	.st1{fill:none;stroke:#010101;stroke-width:2;stroke-miterlimit:10;}
	.st2{fill:#FFFFFF;}
</style>
<path class="st0" d="M308.5,70.7c4.6-1.4,9.6-1.4,14.3-0.2"/>
<path class="st1" d="M355.3,71.3"/>
<path class="st1" d="M330,71.3"/>
<g>
	<path class="st2" d="M152.4,596.3L152.4,596.3"/>
	<path class="st2" d="M191.8,598.7c-0.4,0.6-1.5-0.4-0.9-0.9c0.5-0.5,1.5,0.4,1.1,1L191.8,598.7z"/>
	<path class="st2" d="M343.4,296.1c5.1,3.4,10.2,7.1,13.8,12.2c4.2,5.9,6.1,13,7.7,20c16.1,70.5,14.4,145-4.9,214.8
		c-0.7,2.7-3.3,6-5.5,4.3c20.8-69.9,23.3-145.2,7-216.3c-2.8-12.3-7.3-25.9-18.6-31.5c-21.2-10.4-42.4-20.9-63.6-31.3
		C302,273.7,323.9,283.1,343.4,296.1z"/>
	<path class="st2" d="M84.5,598.3c-0.3,0.8,1.3,1.4,1.6,0.6C86.4,598.1,84.8,597.5,84.5,598.3z"/>
	<path class="st2" d="M32.9,532c-14-37.6-20.2-78.2-18.1-118.3c1.1-20.2,4.2-40.4,4-60.7c-0.2-14.5-1.6-30.4,7.1-41.9
		c4.7-6.2,11.7-10.1,18.4-13.8c11.9-6.6,23.9-13.2,35.8-19.8c6.7-3.7,13.7-7.5,21.3-8.2c-18.6,10.7-37.2,21.3-55.8,32
		c-5.7,3.3-11.6,6.7-15.6,12c-5.6,7.5-6.5,17.4-7.1,26.7c-1,15.1-2.1,30.2-3.1,45.3c-1,14.9-2,29.8-1.9,44.8
		c0.4,40.1,9.5,80.1,26.3,116.4C38.3,544.7,35.1,538,32.9,532z"/>
	<path class="st2" d="M104.5,381.7"/>
	<path class="st2" d="M106.9,383.8"/>
	<path class="st2" d="M268.5,101.2c-51.6,0.3-103.3,0.5-154.8,4.6c-12.5,1-25.3,2.2-37.5-0.8c-12.2-2.9-24-10.9-27.9-22.8
		c-4-11.9,2.8-27.3,15.2-29.5c5.4-1,10.8,0.5,16.1,2c12.5,3.5,25,6.9,37.5,10.4c-14,2.1-28.7-0.6-41-7.6
		c-10.4-5.9-24.5,5.1-24.3,17.1s10.5,21.9,21.9,25.6c11.4,3.7,23.7,2.6,35.7,1.6c32.5-2.6,65.1-3.9,97.7-3.8
		c24.8,0.1,50,0.9,73.8-5.9c23.8-6.8,46.5-22.8,54.3-46.3c2,0.1,2.3,3,1.8,5c-3.7,13.9-14.4,25.1-26.7,32.7
		c-12.3,7.5-26.2,11.8-40,16c1,9.2,0.9,18.5-0.4,27.6C266.7,118.8,266.3,109.7,268.5,101.2z"/>
	<path class="st2" d="M115.8,167.1c0.8,1.6-1.4,3.5-2.9,2.6c-0.6-1-0.8-2.2-0.5-3.4c0.8-1.1,3-0.4,3,1L115.8,167.1z"/>
	<path class="st2" d="M176.1,322.8c-5-3.9-12.8-2.9-17.6,1.3s-7.1,10.7-7.7,17c-11.5-7.1-23.2-14.3-32.3-24.3S103,293.5,104.4,280
		c1.9-18.7,20.4-34,39.1-32.5c-7.2,3.8-14.4,7.5-21.5,11.3c-3.8,2-7.6,4-10.2,7.4c-4.6,5.8-4.3,14.1-2.6,21.3
		c4.8,20.6,19.9,38.4,39.4,46.6c0.9-12.1,15.2-21.1,26.5-16.7c0.4-11.1-9-19.9-18.4-25.9s-20.1-11.4-24.8-21.5
		c-2.5-5.2-2.6-12.5,2.2-15.8c-2.8,12.1,7.6,23.2,18,30.1s22.6,13.2,26.8,25c5.6,16,11.2,31.9,16.9,47.9c2.7-12.6,8.2-24.7,16-34.9
		c4.6-6.1-2-17.6,4.6-21.4c14.7-8.5,29.3-17.1,43.9-25.7c1.7-1,3.4-2,4.3-3.7c2.8-5-3.1-10.3-8.2-13s-11.1-7.8-8.5-12.9
		c3.9,3.1,7.8,6.2,11.7,9.3c3.9,3.1,7.9,6.3,11.1,10.1c9,10.8,11.1,27,5.1,39.8c1.9-0.6,4.1,0.2,5.2,1.9
		c-14.8,6.3-27,18.3-33.6,32.9c-1.9,4.3-8.6,3.9-12.1,0.7s-4.8-8-6.9-12.2s-6-8.3-10.7-7.9c-9.8,14-17.2,29.7-21.7,46.1
		c-4.3-11.1-8.7-22.3-13-33.4C180.9,329.3,179.3,325.3,176.1,322.8 M232.8,326.8c1.4,2.9,1.4,6.3,3,9.1c1.6,2.8,6.3,4,7.7,1.2
		c5.5-11.3,13.8-21.1,23.9-28.6c5.1-3.7,6.9-10.5,7-16.8c0.2-8-1.9-16.1-5.8-23.2c0.4,4-2.2,7.8-5.5,10.1s-7.2,3.5-10.9,5.1
		c-4.5,1.9-8.7,4.5-12.5,7.7c-5.5,4.6-11.1,10.8-18.3,10.4c-3.9-0.2-6.4,4.9-5.2,8.6s4.6,6.3,7.9,8.5S231.1,323.2,232.8,326.8z"/>
	<path class="st2" d="M248.7,197c-2.2-1.6-3-4.8-1.8-7.3c1.5-0.6,3,0.9,3.2,2.5s-0.6,3-1.4,4.4L248.7,197z"/>
	<path class="st2" d="M261.3,44.1c0,6.2,8.7,8.8,14.3,6.1c5.6-2.7,9.2-8.2,14-12.2c12.7-10.5,34.5-6.7,42.9,7.5
		c-8.5-1.5-15.1-9.3-23.7-10c-17.2-1.5-29,24.7-45.6,20c0.9,4.5,1.9,9.2,0.9,13.7c-0.9,4.5-4.3,8.9-8.9,9.5
		c-38.7,5.1-77.6,10.3-116.6,8.6c-6.1-0.3-12.8-1.1-16.7-5.8c-3.5-4.3-3.3-10.5-2.8-16.1c0.5-6.8,1-13.5,1.5-20.3
		c0.7-9.4,1.9-19.7,8.8-26.1c7.9-7.3,20.3-6.5,30.7-3.5s20.7,7.6,31.4,6.6c18.3-1.8,34.9-20.1,52.2-13.8
		C257,13.3,261.4,30,261.3,44.1 M128.8,62.9c26.5,9.1,55.2-3.2,83.2-3.3c12.7,0,25.8,2.5,38-1c2.4-0.7,6.5,0.3,5.2,2.5
		c-12.4,6.2-27.1,2.6-40.9,2.5c-15.3-0.1-30.3,4.1-45.4,5.8c-14.6,1.7-29.4,1-43.7-2c-3.5,3.3-1.9,9.6,1.9,12.6
		c3.8,2.9,8.9,3.4,13.7,3.7c37.5,2,74.9-3.5,112-8.9c2.4-0.3,5-0.8,6.3-2.8c1.2-1.7,1-3.9,0.8-5.9c-0.6-6.7-1.2-13.5-1.8-20.2
		c-0.6-7.1-1.3-14.4-4.2-20.9c-2.9-6.5-8.5-12.3-15.6-13.4c-10-1.6-18.8,6.1-28,10.3c-18.8,8.5-40.5,2.3-60.2-3.9
		c-8.8-2.8-18.4,3.8-22.3,12.2c-3.9,8.4-3.5,18.1-3.1,27.3c0.1,1.4,0.2,2.8,1,3.9C126.6,62.1,127.7,62.5,128.8,62.9z"/>
	<path class="st2" d="M106.6,395.8c1.7,1.7,4.1,4.7,1.9,6c-3.9,2.3-4.3,7.7-4,12.2c1.7,34,10.2,67.7,25.1,98.4
		c1.2,2.4,1.8,6.2-0.7,6.9c-20.6-38.6-30.3-83-27.6-126.7c0.1-2.1,0.4-4.5,2.2-5.7C103.2,390.3,104.4,393.6,106.6,395.8z"/>
	<path class="st2" d="M123.4,116.3c-0.2-3.1,0.6-7,3.6-7.6c0.8,3.2,0.5,6.6-0.8,9.6c-1.2,0.5-2.6-0.8-2.4-2H123.4z"/>
	<path class="st2" d="M305.4,400.6c-0.2-3.8-0.4-8.6,3-10.4c4.3,19.9-3.3,40.2-8.5,60c-7.8,29.9-10.1,61.3-6.6,92.1
		c-3.8-0.2-5.1-5-5.3-8.8c-1.7-30.5,1.6-61.3,9.7-90.8C301.4,428.8,306.3,414.9,305.4,400.6z"/>
	<path class="st2" d="M245.3,202.3c0.3,1.3-0.3,2.8-1.5,3.5c-3.3-2.6-3.7-8.1-0.9-11.3c1.3,2.3,2,5.1,1.7,7.7L245.3,202.3z"/>
	<path class="st2" d="M249.7,109.6c1.2,0.1,2.5,0.3,3.5,0.9c1.8,1,2.7,3.1,3.2,5.1c2.5,9.4-1.6,20.3-9.8,25.6
		c-8.2,5.3-19.8,4.7-27.4-1.4c-3.3-2.6-6-6.7-5.1-10.9c0.6-2.9-1.1-6-3.8-7.1c-2.7-1.1-6.1,0-7.7,2.4c1.2,2.4,0.9,5.5-0.8,7.5
		c-1.7,0.3-2-2.2-2.2-3.9c-0.4-4-4.6-7-8.5-6.5s-7.1,4.4-7.1,8.3c0.1,12.1-9.9,23.5-21.9,25.1c-2.9,0.4-6,0.2-8.7-1
		s-4.9-3.4-6.9-5.6c-5.2-5.4-10.8-12.1-9.2-19.4c1.7-7.8,10.5-11.5,18.1-13.9c4.6-1.5,9.6-2.9,14.2-1.5c3.3,1,6.1,3.4,9.5,4.2
		c5.7,1.4,11.4-2.1,17.2-2.9c8.2-1.2,17.1,2.9,24.7-0.6C229.9,110.1,239.9,108.5,249.7,109.6 M160.8,119.6c1.1-0.3,1.7-1.8,1.1-2.8
		c-1.7-0.3-3.8,0.9-3.6,2.6c0.8,0.2,1.7,0.4,2.5,0.5V119.6z"/>
	<path class="st2" d="M144.4,214.8c-0.3-3-0.2-6.1,0.3-9.1c0.2-1,0.4-2,1.2-2.7s2.2-0.6,2.5,0.3c-0.2,4.2-0.4,8.4-0.6,12.6
		c0,0.5-0.1,1.1-0.4,1.5C146.3,218.7,144.6,216.5,144.4,214.8z"/>
	<path class="st2" d="M272.5,382.1c-0.8,3.1-1.9,6.2-3.6,8.9c-3.1,4.8-8.1,7.9-12.5,11.5s-8.4,8.5-8.4,14.2
		c-15.8-11.7-23.6-33.1-19.2-52.2c0.2-1,0.5-2,1.4-2.5c1.9-1.1,3.8,1.3,5.7,2.3c3.2,1.7,6.9-0.6,10-2.4s7.8-2.8,9.7,0.3
		c3.1,5,10.4,6.8,15.5,3.8c2-1.2,3.6,2.2,3.4,4.6C274.2,374.5,273.5,378.4,272.5,382.1 M247.6,366.1c-4.6,3-10.7,3.5-15.7,1.3
		c-2.3,14.2,2.2,29.3,11.8,39.9c1,1.1,3.1,1.8,3.5,0.4c1.8-7.2,10.5-10,15.5-15.5c3.3-3.7,4.9-8.6,6.4-13.3c0.5-1.7,1.1-3.5,0.6-5.2
		s-2.5-3.1-4.1-2.3C259.7,374.6,253.2,362.4,247.6,366.1z"/>
	<path class="st2" d="M191.7,191.1c-1.7,1.6-3.9-1.7-3.6-4c0.3-3.2,1.7-6.3,3.9-8.6c2.3,3,1.5,7.2,0.6,10.9
		C192.3,190,192.2,190.6,191.7,191.1z"/>
	<path class="st2" d="M212.1,178.7c-1.9,0.1-3.8,0.2-5.7,0.2c1,2.9,2,5.9,3,8.8c0.3,1,0.6,2,0.3,2.9s-1.5,1.7-2.3,1.1
		c-2-6.6-6.7-12.3-12.7-15.5c-2.6-1.4-5.6-2.3-8.5-1.9c-7.4,1.2-10.5,10-12.1,17.3c-0.3,1.5-3,0.9-3.3-0.6s0.6-3,1.2-4.4
		s0.8-3.4-0.5-4.2c-1.7,3.2-3.3,6.3-5,9.5c-1.8-0.5-1.6-3.1-1-4.8c1.4-4.1,3.4-8.7,7.5-10c1.2-0.3,2.4-0.4,3.4-1.1s1.3-2.5,0.2-3
		c-2.4-1.1-3.5-4.2-2.5-6.6s4.1-3.7,6.5-2.8c-1.7,1.9-2.5,4.6-2.1,7.2c5.6-0.9,11.4-0.2,16.7,1.9c2.7,1.1,5.3,2.5,8.1,2.9
		c2.9,0.4,6.2-0.7,7.4-3.3c1.4-3.2-0.8-6.6-2-9.9s-0.2-8.3,3.2-8.1c0.9,5,1.7,9.9,2.6,14.9c0.5,2.6,0.7,5.8-1.4,7.5
		c4.8,2.6,8,7.9,8,13.4C216.8,187.6,213.5,183.5,212.1,178.7z"/>
	<path class="st2" d="M128,151.5c1-1.4,3.1,0.2,3.8,1.8c1.2,2.7,1.6,5.7,1.4,8.6c-3.2-1.8-5.3-5.3-5.5-8.9
		C127.7,152.4,127.7,151.9,128,151.5z"/>
	<path class="st2" d="M229.3,220.2c1.2,1.7,1.6,3.7,1.8,5.8c2.4,17.7-1.8,36.3-11.8,51.2c-2,3-4.8,6.1-8.4,5.6
		c1.3-2,2.6-4.1,3.9-6.1c7.7-12.5,14.4-26.6,13-41.1C227.3,230.3,225.9,224.3,229.3,220.2z"/>
	<path class="st2" d="M193.7,217.8c-3.2,1.3-2.1,6.6-4.7,8.8c-3.6-0.2-1.1-8.1-4.7-8.7c-5.5-0.9-10.9-2.9-15.7-5.7
		c-3.2-1.9-6.5-5.5-4.8-8.7c10.5,9.2,25.6,12.9,39.2,9.6c9.1-2.2,17.5-7.4,23.6-14.4c1-1.2,3.2,0.3,3.1,1.9s-1.4,2.8-2.7,3.8
		c-6.9,5.6-14.2,11.3-23,13.2c-1.9,0.4-1.8,3-1.7,4.9c0.1,1.9-1.7,4.4-3.1,3.2c0-1.9,0-3.8-0.9-5.5
		C197.4,218.3,195.4,217.1,193.7,217.8L193.7,217.8z"/>
	<path class="st2" d="M227.8,177.7c1.7,3.6,2.3,7.6,1.7,11.5c-3.5-3.3-5.4-8.1-5.1-12.9C225.1,174.9,227.2,176.2,227.8,177.7z"/>
	<path class="st2" d="M264.4,112.8c-0.7,2.6,0.2,5.3,0.6,7.9c0.4,2.6,0.1,5.8-2.1,7.2c-1.8-7.1-1.8-14.6-0.1-21.7
		c1.3-0.6,2.8,0.9,2.7,2.4C265.5,110.1,264.7,111.4,264.4,112.8z"/>
	<path class="st2" d="M213.3,261.5c-1.8,3.3-4.3,6.1-7.3,8.4c-0.8-0.7-1.5-1.7-1.7-2.8c8.5-8.8,13.9-20.5,15.3-32.7
		c0.2-2,0.3-4.1-0.2-6.1c-0.6-2-1.9-3.7-2.6-5.7s-0.6-4.5,1-5.8c3.8,3.7,5.5,9.2,5.7,14.5c0.1,5.3-1.1,10.6-2.3,15.7
		c-1.7,7-3.3,13.9-5,20.9c-0.5,2-2.3,4.6-4,3.5C213.5,268.3,213.9,264.8,213.3,261.5z"/>
	<path class="st2" d="M171.7,217.6c-1.2,5.1-2.2,10.4-2.8,15.6c-2.7-1.9-4.2-5.4-3.6-8.7C165.9,221.3,168.5,218.4,171.7,217.6z"/>
	<path class="st2" d="M167,262c6,3.9,10.9,9.4,14.1,15.8c-2,1.2-4.7,0.1-6.2-1.7c-1.6-1.7-2.4-3.9-3.8-5.8c-5-7-15.8-8.2-20.3-15.5
		c-1.6-2.6-1.3-7,1.6-7.4C153.2,254.6,161,258.1,167,262z"/>
	<path class="st2" d="M233.8,189.6c-0.7-3.8-1.1-7.5-1.3-11.4c4.2,3.7,6.4,9.6,5.7,15.2C236.3,194.8,234.3,191.8,233.8,189.6z"/>
	<path class="st2" d="M143,224.7c4.9,4.3,8.5,10,10.3,16.2c-6.6,2-13.4-3.5-16.7-9.6s-4.7-13.2-8.8-18.8c1.3-1.8,4.2-0.2,5.5,1.7
		c4.7,7.2,4.6,18.3,12.5,21.7C148.3,232.6,140,227.8,143,224.7z"/>
	<path class="st2" d="M157.7,230.5c-2.1-5.8-7-11.4-5-17.2c0.8-2.4,4.3-4.3,5.8-2.3c-3.5,4.6-0.5,11.1,1.9,16.4
		c2.9,6.6,4.8,13.6,5.5,20.7C159.7,245.4,160,236.8,157.7,230.5z"/>
	<path class="st2" d="M214.3,228.3c0.7,1.3,1.4,2.7,2.1,4c-0.8,2-4.1,0.8-4.9-1.2c-0.9-2-0.9-4.5-2.6-5.8c-1.6-1.3,1.2-3.8,2.9-2.7
		c1.7,1.1,1.9,3.5,1.9,5.5L214.3,228.3z"/>
	<path class="st2" d="M97.4,108.9c-0.5,9.9,2.2,19.9,7.6,28.1c1.8,2.8,3.8,7.1,1,9c-5.2-8.4-9.3-17.5-12-27.1c-0.6-2-1.1-4-0.7-6
		C93.8,110.9,95.4,109,97.4,108.9z"/>
	<path class="st2" d="M176.5,226.2c-0.1-1.4-0.2-3,0.5-4.2s2.8-1.6,3.6-0.4c0.3,0.4,0.3,0.9,0.4,1.4c0.3,5-2.2,10.1-6.4,12.8
		c0.4-3.2,0.8-6.4,1.2-9.6L176.5,226.2z"/>
	<path class="st2" d="M180.5,187.2c-0.6-3.2,1.6-6.8,4.8-7.5c-0.7,5.8-1.7,11.6-3,17.3c-3.2-2-4.2-6.7-2.1-9.8H180.5z"/>
	<path class="st2" d="M195.3,229.7c2.5,0.4,3.1,3.7,3.1,6.3c0,6.1,0,12.2-0.1,18.3c0.9,1.4,2.7-0.8,2.8-2.5c0.6-8.3,1.2-16.7,1.8-25
		c2.4,0,3.3,3.1,3.4,5.5c0.5,10.7-1.5,21.5-5.9,31.3c-1.2-2.9-2.5-5.7-3.7-8.6C193.3,247,192.8,237.9,195.3,229.7z"/>
	<path class="st2" d="M269.3,151.6c-2.1-1.8-3.9-4-5.2-6.4c-0.1,4.2-0.1,8.4-0.2,12.7c0,1.5-0.1,3-0.8,4.3c-0.7,1.3-2.4,2.2-3.8,1.5
		c2-3.6,1.1-8,0.8-12.1c-0.3-4.1,0.5-9,4.2-10.8c2.2-1.1,2.1-4.1,2.7-6.5s4.1-4.5,5.1-2.2C269.6,138.2,268.6,145,269.3,151.6z"/>
	<path class="st2" d="M236.4,224.6c0.7-4.8,1.4-9.5,2.1-14.3c0.3-2,1.5-4.5,3.4-3.9c1.6,6.4,0.6,13.4-2.6,19.1
		c-0.5,0.9-1.4,1.9-2.3,1.4C236.3,226.7,236.3,225.5,236.4,224.6z"/>
	<path class="st2" d="M263.3,180.3c1.9-6.7,3.8-13.5,5.7-20.2c0.4-1.4,1.8-3.2,2.9-2.3c-0.5,12.1-4,24-10,34.4
		C261.1,188.3,262.2,184.2,263.3,180.3z"/>
	<path class="st2" d="M179.1,266.5c-2.2-7.6-4.2-15.2-6.1-22.9c-0.2-0.8-0.4-1.6-0.2-2.4c0.1-0.6,0.5-1.2,1-1.3
		c3.8,2.4,7.6,5.1,9.6,9.1C186.3,254.9,184.4,262.7,179.1,266.5 M180.6,252.3c0.6-0.5-0.6-1.4-1.2-0.9s-0.4,1.4-0.2,2.1
		c0.3,0.7,0.7,1.5,0.5,2.2c0.7-1,0.9-2.3,0.5-3.5L180.6,252.3z"/>
	<path class="st2" d="M277.9,136.2c-0.6-10-0.3-20.1,0.9-30c0.9-0.2,1.9-0.4,2.8-0.6C282.8,115.9,281.5,126.5,277.9,136.2z"/>
	<path class="st2" d="M135.2,171c0.4,0.3,0.6,0.7,0.7,1.1c2.4,6.2,3.6,12.9,3.5,19.6c-1.4,0.8-2.6-1.2-3-2.7
		c-1.2-4.7-2.3-9.4-3.5-14.1c-0.2-1-0.5-2-0.1-2.9S134.3,170.4,135.2,171z"/>
	<path class="st2" d="M114.5,151.3c0-1.7,0.8-3.8,2.4-3.7c2.3,5.9,4.6,11.8,6.8,17.6C118.4,162.9,114.7,157.2,114.5,151.3z"/>
	<path class="st2" d="M233.9,257.7c-1.2-4.3,2.3-8.4,4.4-12.3c2.7-5,3.2-10.9,3.7-16.5c1.7-1.1,3.3,1.6,3.3,3.7
		C245.5,242,241.2,251.6,233.9,257.7z"/>
	<path class="st2" d="M136.2,205.6c2.2,1.8,3.4,4.9,2.9,7.7c-3.6-2.5-6.4-5.9-8.3-9.8c-1.1-2.4-1.2-6.1,1.3-6.7
		c1.4,2.9,2.7,5.7,4.1,8.6V205.6z"/>
	<path class="st2" d="M102.4,122.3c-0.8-1.7-1.5-3.9-0.2-5.2c5.3,6,8.9,13.6,10.2,21.5c-1.2,0.9-2.7-0.7-3.4-2.1
		C106.9,131.8,104.6,127.1,102.4,122.3z"/>
	<path class="st2" d="M118.2,111.5c0.8-0.2,1.5,0.7,1.8,1.5c3.5,7.6,7,15.8,5.9,24.1c-4.8-6.9-7.8-15-8.6-23.4
		C117.2,112.9,117.4,111.7,118.2,111.5z"/>
	<path class="st2" d="M163.5,180.7c-1.9,5.5-3.8,11.1-5.8,16.6c-0.4,1-1.5,1.8-2.6,1.7C153.4,191.9,157.1,183.9,163.5,180.7z"/>
	<path class="st2" d="M257.8,184.6c-0.5,7.6-2.7,15-6.3,21.7c-0.6,1.1-2.3,2-2.6,0.9c1.1-6.5,3.3-12.7,5.5-18.9
		C255,186.6,256,184.5,257.8,184.6z"/>
	<path class="st2" d="M118.8,175.4c-0.1-0.8-0.1-1.6,0.2-2.3c0.4-0.9,1.3-1.4,2.2-1.4c2.8,7,5.7,14.5,4.5,22
		C121.9,188.2,119.5,181.9,118.8,175.4z"/>
	<path class="st2" d="M249.3,226.5c1.6-5.4,3.1-10.9,4.7-16.3c0.7-2.5,1.5-5.1,3.5-6.7c1.5,7.1,0.1,14.8-3.8,21
		C252.7,226,250.7,227.6,249.3,226.5z"/>
	<path class="st2" d="M194.4,280c-2.4,1.9-6.6,2.6-7.8-0.2c-0.3-0.7-0.3-1.5,0-2.2c2.6,1.3,5.7-1,7.4-3.4c1.7-2.4,3.4-5.4,6.3-5.9
		C200.1,272.8,197.9,277.2,194.4,280z"/>
	<path class="st2" d="M249.1,183.4c2.1-5.6,4.2-11.3,6.2-16.9c0.3-0.8,0.6-1.7,1.3-2.2c0.8-0.7,1.9-0.8,2.8-0.4
		c-0.8,5.9-2.6,11.7-5.4,16.9C253,182.7,250.7,184.8,249.1,183.4z"/>
</g>
<g>
	<g>
		<path class="st2" d="M164,116.8c-1.7,0-3.3,0-5,0c-3.2,0-3.2,5,0,5c1.7,0,3.3,0,5,0C167.2,121.8,167.2,116.8,164,116.8L164,116.8z
			"/>
	</g>
</g>
</svg>
