<?xml version="1.0" encoding="utf-8"?>
<!-- Generator: Adobe Illustrator 19.1.0, SVG Export Plug-In . SVG Version: 6.00 Build 0)  -->
<svg version="1.1" id="Layer_1" xmlns="http://www.w3.org/2000/svg" xmlns:xlink="http://www.w3.org/1999/xlink" x="0px" y="0px"
	 viewBox="-114 -98.7 612 792" style="enable-background:new -114 -98.7 612 792;" xml:space="preserve">
<style type="text/css">
	.st0{fill:none;}
	.st1{fill:none;stroke:#010101;stroke-width:2;stroke-miterlimit:10;}
	.st2{fill:#010101;}
	.st3{fill:#FFFFFF;stroke:#FFFFFF;stroke-width:2;stroke-miterlimit:10;}
	.st4{fill:#FFFFFF;}
</style>
<path class="st0" d="M308.5,70.7c4.6-1.4,9.6-1.4,14.3-0.2"/>
<path class="st1" d="M355.3,71.3"/>
<path class="st1" d="M330,71.3"/>
<g>
	<path class="st2" d="M253.5,302.1L253.5,302.1"/>
	<path class="st3" d="M-30.2,60.9c-8.5,4.6-10.6,16-9.5,25.5c-4.8-6.7-4.9-16.4-0.3-23.1c4.7-6.8,13.7-10.2,21.7-8.1
		c38.7,10.1,79.5,4.5,119.3,1.4c48.6-3.8,97.4-3.8,146.2-2.6c3,0.1,6.1,0.2,8.9,1.4c7.2,3.1,9.6,12.4,7.9,20s-6.5,14-10.4,20.8
		s-6.9,14.7-4.7,22.2c-7.9-6.5-2.9-19.3,3.1-27.6s12.5-19.7,6.4-27.8c-4.3-5.7-12.5-6.2-19.6-6.2C163.3,56.9,87.7,60,12.4,66.1
		C-2.2,67.2-17.4,53.9-30.2,60.9z"/>
	<path class="st3" d="M25.6,383.7c16.3,23,46.5,31.1,74.5,34.7c14.5,1.9,29.2,3,43.8,3.3c6.2,0.1,11,5.6,13.6,11.2
		c2.6,5.6,3.8,11.9,7.2,17.1c5.2,7.9,14.7,12,24.1,13.8s19,1.5,28.3,3.1c22.4,3.8,42.7,18.3,53.5,38.2c2.6,4.8,8.9,5.7,14.3,6
		c17.4,1.2,34.8,2.3,52.1,3.5c2.7,0.2,5.5,0.3,8-0.7c3.7-1.5,5.8-5.3,7.7-8.8c7.5-13.8,15.2-28.1,16.2-43.8
		c1.1-15.7-6.3-33.1-21-38.5c-7.5-2.8-15.8-2.2-23.7-3.8c-7.8-1.6-16.1-6.8-16.8-14.8c-1.7-20-1.5-40.1,0.7-60.1
		c1.3-11.9-12.3-19.5-23.9-22.4s-25.6-5.9-29.9-17.1c8.1,5.8,17.1,10.3,26.7,13c10.4,3,22.8,5.1,27.6,14.8c2.3,4.6,2.2,9.9,2.1,15
		c-0.4,17.5-0.7,34.9-1.1,52.4c-0.2,7.4,7.2,13,14.5,14.7s14.9,1,22.1,3c17.7,4.8,27.7,24.9,26.9,43.2c-0.8,18.3-9.8,35.1-18.9,51
		c-1.4,2.5-3,5.1-5.6,6.5s-5.7,1.2-8.6,1c-19.3-1.3-38.6-2.7-57.9-4c-4.3-0.3-9.2-1-11.4-4.7c-13.1-22.6-37.4-38.4-63.3-41.2
		c-15.3-1.7-33.4-0.3-43-12.3c-4.2-5.3-5.7-12.1-8.4-18.3s-7.7-12.3-14.4-12.7c-9.7-0.6-19.3-1.3-29-2.1c-31.1-2.6-65.3-8-85.6-31.8
		c-14.9-17.5-19.1-41.4-21.8-64.2c-0.7-6.4-1.4-13,0.8-19.1c2.2-6,8.1-11.2,14.5-10.4c-6.6,2-11,8.7-12.3,15.5s-0.2,13.8,1,20.7
		C12.4,351.7,15.6,369.5,25.6,383.7z"/>
	<path class="st4" d="M247.6,128.6c1.7,5.7,1.3,12-1.1,17.4C244.3,140.4,244.7,133.8,247.6,128.6z"/>
	<path class="st3" d="M-39.1,87.9c3.9,1.9,5,6.7,5.7,10.9c4.6,27.2,9.2,54.5,13.8,81.7c1.8,10.4,6.7,23.5,17.2,23.1
		C10.9,203,23,212.5,29.5,224c6.5,11.6,8.6,25,10.5,38.2c0.9,6.1,1.8,12.4,0.1,18.3s-6.8,11.3-12.9,11.4c2.6-3.3,6.9-5.4,8.6-9.2
		c1.2-2.7,1.1-5.7,0.9-8.7c-0.9-14.3-1.9-28.9-7.8-42c-5.9-13-17.7-24.4-32-25.4c-4.2-0.3-8.8,0.2-12.2-2.3
		c-3.4-2.4-4.4-6.9-5.2-10.9C-27.2,158.4-33.5,123.2-39.1,87.9z"/>
	<path class="st4" d="M251.3,297.3c-7.2-1.2-13.9-4.5-19.8-8.8c-3.7-2.7-7.4-7.7-4.8-11.5C232.9,285.8,241.5,292.9,251.3,297.3z"/>
	<path class="st4" d="M221.6,370.2c10,10.9,20,21.9,30.1,32.8c5.7,6.2,14.5,12.9,21.6,8.5c3.1-1.9,4.7-5.5,7.6-7.7s8.4-1.5,8.6,2.1
		c1.6,33,13,65.4,32.3,92.2c-2.2,2.2-5.9,1-8.7-0.3c-28.6-13.5-57.1-27-85.7-40.5c-2.2-1-4.7-2.3-5.4-4.7c-0.9-3.1,1.7-6.1,4.4-7.7
		c2.8-1.6,6-2.6,8.1-5.1c2.8-3.4,2.3-8.6,0-12.4c-2.3-3.8-6-6.4-9.7-8.9c-9-6.2-18-12.5-27-18.7c-3.4-2.3-7.1-5.2-7.3-9.3
		c-0.2-3.8,2.8-7,5.6-9.7c3.8-3.6,7.6-7.2,11.4-10.9c2.1-2,4.6-4.2,7.5-4C217.8,366.1,219.8,368.2,221.6,370.2z"/>
	<path class="st3" d="M234.3,185.7c-8.8,8-10,72.5-6.4,83.9c-0.7,1.2-4.8-51.8-4.9-53.2c-0.6-5.3-1.3-10.6-1.9-15.9
		c-0.2-1.8-0.4-3.8,0.9-5.1c11.3-12,23.4-25.9,22.8-42.4c-0.1-2.1,0.3-4.9,2.3-5C249.6,161.7,244.6,176.4,234.3,185.7z"/>
	<path class="st4" d="M106.8,163c0.4,2.5-1.3,4.8-2.9,6.8c-6.5,8-13,16-19.5,24c-1.5,1.8-3.2,3.8-5.5,4.4c-3.5,0.9-6.9-1.6-9.6-4
		c-9.3-8.1-18.3-16.6-26.9-25.4c-5-5.2-11.9-10.9-18.6-8.2c-4.7,2-6.8,7.3-10.3,10.9s-11.4,4.1-12.2-0.9
		c-3.9-25.4-12.8-50.1-26.1-72.1c-1.7-2.9,0.7-6.8,3.9-7.8c3.2-1,6.6-0.1,9.9,0.7c26.6,7.1,54.1,10.7,81.6,10.8c4,0,5,6,2.6,9.2
		s-6.4,4.6-9.4,7.2c-3,2.6-4.6,7.9-1.3,10.2c13.3,9.6,26.6,19.1,39.9,28.7C104.3,159,106.4,160.6,106.8,163z"/>
</g>
</svg>
