<?xml version="1.0" encoding="utf-8"?>
<!-- Generator: Adobe Illustrator 19.1.0, SVG Export Plug-In . SVG Version: 6.00 Build 0)  -->
<svg version="1.1" id="Layer_1" xmlns="http://www.w3.org/2000/svg" xmlns:xlink="http://www.w3.org/1999/xlink" x="0px" y="0px"
	 viewBox="-122 -123.6 595.3 841.9" style="enable-background:new -122 -123.6 595.3 841.9;" xml:space="preserve">
<style type="text/css">
	.st0{fill:#FFFFFF;}
</style>
<g>
	<path class="st0" d="M5.9,416.5c-0.9,0.7-2,0.7-3.1,0.8c-2.5,0.3-4.9,0.3-7.4-0.4c-4.5-1.2-7.7-3.9-9.1-8.4c-0.5-1.5-0.7-3-0.8-4.5
		c-0.2-3.5,0.2-6.9,0.6-10.4c0.4-3.9,0.9-7.8,1.3-11.7c0.6-5.1,1.2-10.3,1.8-15.4c0.5-4.7,1-9.4,1.5-14c0.7-5.9,1.4-11.8,2-17.7
		c0.8-6.8,1.5-13.7,2.2-20.5c0.7-5.9,1.4-11.8,2.1-17.7c0.6-5.8,1.3-11.5,1.8-17.3c0.4-3.6,0.3-7.2-0.3-10.8
		c-0.7-4.1-2.4-7.8-5.4-10.8c-2.8-2.7-6.1-4.4-10.2-4.2c-1,0-2,0.3-2.9,0.6c-2.7,0.8-4.4,0.1-5.9-2.3c-1.7-2.7-2.3-5.7-2.2-8.9
		c0.2-4.7,0.8-9.4,2.4-13.9c1.2-3.4,3.2-6.1,6.1-8.2s6.2-2.9,9.7-1.9c5.8,1.7,11,0.3,15.7-3.1c4.8-3.4,7.7-8.2,9.4-13.7
		c1-3.1,1.6-6.3,1.8-9.5c0.2-2.9,0.4-5.9,0.5-8.8c0.2-15.6,0.3-31.2,0.4-46.8c0-0.7,0.1-1.4,0.1-2.3c0.9,0.8,0.9,1.8,1.3,2.6
		c0.4,0.9,0.6,1.7,0.9,2.6c0.3,0.9,0.6,1.8,0.9,2.6c0.3,0.9,0.6,1.7,1,2.7c0.8-0.4,0.7-1.1,1-1.6c0.2-0.5,0.4-1,0.5-1.5
		c0.2-0.6,0.4-1.2,0.6-1.8c0.2-0.5,0.3-1,0.5-1.6s0.4-1.1,0.7-2.1c0.3,1.2,0.2,2,0.1,2.8c-0.5,5.2-1,10.5-1.4,15.7
		c-0.4,4.6-0.7,9.2-0.9,13.9c-0.6,10.9-0.8,21.9-0.7,32.9c0,2.9,0.1,5.9,0.2,8.8c0,0.3,0.1,0.7,0.1,1c0.2,0,0.3,0,0.3,0
		c0.2-0.5,0.4-1,0.6-1.5c1.8-6.2,3.2-12.4,4.2-18.7c0.8-5.3,1.3-10.7,1.7-16.1c0.2-3.2,0.4-6.5,0.4-9.7c0.1-8.8,0.2-17.6-0.2-26.4
		c-0.1-1.5,0-3.1,0-4.6c3.5,0.8,6.2-0.9,7.1-4.4c0.1-0.4,0.2-0.9,0.3-1.4c0.3-1,0.5-2.1,0.9-3.1c0.4-0.9,1-1.7,1.6-2.8
		c-0.4,0-0.7,0-0.9,0c-6.2,1-12.3,2.1-18.5,3.1c-2.4,0.4-4.7,0.8-7.1,1.2c-1.2,0.2-2.5,0.3-3.7,0.3c-3,0-5.1-1.5-6.6-4
		c-0.9-1.5-1.2-3.2-1.5-4.8c-0.1-0.4-0.1-0.7-0.3-1.1c-1.3,4.5-2.1,9.1-4.5,13.2c-0.2-0.1-0.3-0.1-0.3-0.1c0-0.1-0.1-0.1-0.1-0.2
		c0-0.4,0-0.8,0.1-1.2c0.6-5.4,1.3-10.9,1.7-16.3c0.5-7.9,0.7-15.9,1.1-23.8c0-0.1,0.1-0.1,0.2-0.3c2.4-0.8,4.5-2.2,5.7-4.6
		c1.2-2.3,1.6-4.8,0.9-7.5c0.6-0.2,1.1-0.5,1.6-0.6c7.3-1.6,14.6-3.2,21.9-4.7c11.3-2.2,22.7-4.4,34.1-6.4
		c7.3-1.3,14.6-2.3,21.9-3.4c6.2-0.9,12.4-1.8,18.6-2.6c7.2-0.9,14.4-1.7,21.6-2.5c7.4-0.8,14.7-1.5,22.1-2.1
		c5.1-0.5,10.3-0.8,15.5-1.1c9.2-0.6,18.3-1.2,27.5-1.6c9.7-0.4,19.4-0.6,29.2-0.9c4.2-0.1,8.5-0.1,12.7-0.3
		c7.5-0.3,14.9-0.8,22.3-2.2c5.2-1,10.2-2.4,15.1-4.3c0.2-0.1,0.4-0.3,0.5-0.4c0.6,0,1.2,0,1.9,0c0.8,0.5,1.8,0.9,2.3,1.8h0.1
		c-0.2,0-0.5,0-0.7-0.1c-2.1-0.8-3.9,0.1-5.6,1.3c-0.8,0.6-0.9,1.4-0.3,2.2c0.3,0.4,0.7,0.8,1.1,1.2c1.7,1.5,2.9,3.4,3.7,5.5
		c0.2,0.5,0.4,1,0.6,1.6c0.7-1.7,1.5-7.3,1.7-10.7l-0.1,0.1c0.3,0.3,0.7,0.6,0.9,1c0.9,2.1,1.5,4.2,1.5,6.5c0.1,9,0.2,18.1,0.3,27.1
		c0.1,6.9,0.1,13.7,0.2,20.6c0,1.5,0,2.9-0.1,4.4c-0.1,1-0.3,2-0.5,2.9c-0.8,2.7-2.8,4.4-5.5,5.1c-1.7,0.4-3.5,0.5-5.3,0.4
		c-4.8-0.5-9.5-1.1-14.3-1.6c-2.1-0.2-4.1-0.4-6.2-0.6c-1.1-0.1-2.3-0.1-3.6-0.6c1.3-1,2.7-1.2,4-1.3c2.5-0.3,5.1-0.1,7.6,0.3
		c1.8,0.3,3.6,0.6,5.5,0.9c2.4,0.4,4.8,0.5,7.2,0.4c1.9-0.2,3.8-0.6,5.5-1.6c3.1-1.8,5-5.7,4.3-9.3c-0.2-1.3-0.8-2.3-1.8-3.2
		c-0.2-0.2-0.5-0.3-0.9-0.5c-0.6,3.5-2.3,6.1-5.3,7.9c-2.4,1.5-4.6,1.8-7.8,1.3c0-0.4,0.3-0.5,0.6-0.6c5-0.8,7.8-4,9.5-8.5
		c0.8-2.2,1.1-4.5,1.2-6.8c0.1-1.4,0.1-2.8,0-4.2c-0.2-5.9-0.4-11.9-0.7-17.8c-0.1-3.4-0.3-6.8-0.4-10.2c0-0.5-0.1-1.1-0.2-1.6
		c-0.3-1.7-1.4-2.7-3.1-3c-0.6-0.1-1.2-0.1-1.8-0.1c-8.7,0.1-17.4,0.2-26.2,0.4c-7.6,0.2-15.1,0.4-22.7,0.7
		c-7.2,0.3-14.5,0.7-21.7,1.1c-6.5,0.4-12.9,0.7-19.4,1.2c-4.6,0.3-9.2,0.7-13.8,1.1c-5.9,0.5-11.8,1-17.8,1.6
		c-3.5,0.3-7.1,0.7-10.6,1.1c-4.7,0.5-9.4,1-14,1.6c-4.4,0.5-8.9,1.1-13.3,1.7c-7.3,1-14.7,2-22,3.1c-8.3,1.2-16.6,2.6-24.9,4
		c-7.4,1.2-14.8,2.5-22.1,3.9c-7,1.3-13.9,2.7-20.9,4.1c-1.8,0.4-3.6,1-5.2,1.8c-2.2,1.1-3.8,2.8-4.7,5.2c-0.4,1.2-0.8,2.5-1,3.8
		c-1.2,8.2-1.6,16.4-0.8,24.7c0.3,3,0.7,6,1.1,9c0.1,0.4,0.2,0.9,0.4,1.4c0.7,0,1.4,0.1,2.1,0c4.5-0.6,9-1.3,13.5-1.9
		c5.1-0.7,10.2-1.5,15.4-2.2c4.6-0.6,9.2-1.2,13.8-1.8c4.3-0.5,8.6-1,12.9-1.5c5.4-0.6,10.7-1.2,16.1-1.8c3.5-0.4,7.1-0.7,10.6-1
		c6.1-0.6,12.3-1.2,18.4-1.7c4.5-0.4,8.9-0.7,13.4-1c3.8-0.3,7.7-0.6,11.5-0.9c5-0.3,10-0.7,15-0.9c9-0.5,18-0.9,27.1-1.4
		c4.3-0.2,8.6-0.4,13-0.5c0.7,0,1.5,0,2.2,0c0.1,0.8-0.4,0.9-0.8,1.1c-0.4,0.3-0.9,0.6-1.4,0.9c-0.4,0.3-0.7,0.5-1.1,0.9
		c3.1,0.8,3.4,1.1,4.1,3c-1.3,0.3-2.6,0.4-3.8,0.5c-9.1,0.6-18.2,1.3-27.3,1.9c-7.9,0.5-15.9,1-23.8,1.6c-7.5,0.5-14.9,1.1-22.4,1.6
		c-7.7,0.5-15.4,1-23.1,1.6c-5.1,0.4-10.2,0.7-15.2,1.1c-2.5,0.2-4.9,0.4-7.4,0.6c-0.2,0-0.5,0-0.7,0.1c-2.6,0.6-4.7,1.5-5.2,5.1
		c-0.1,0.7-0.3,1.4-0.3,2.1c-0.4,6.7-0.7,13.4-1.1,20.1c-0.2,4.6-0.5,9.2-0.8,13.9c-0.4,7-0.7,14-1.1,21c-0.3,6.1-0.7,12.2-1,18.3
		c0,0.1,0,0.2,0,0.2c0,0.7-0.1,1.5-0.9,1.7c-0.8,0.3-1.7,0.2-2.4-0.4c-1.4-1.2-2.1-2.8-2.5-4.6c-0.2-1-0.3-2-0.2-3
		c0.3-6.8,0.6-13.6,0.9-20.4c0.2-5.6,0.4-11.1,0.7-16.7c0.2-4.8,0.5-9.6,0.7-14.3c0.1-1.5,0.1-2.9,0.1-4.4c0.2-3.9,0.3-7.7,0.5-11.6
		c0-0.3,0.1-0.5,0.2-1.2c1,3.5,1.1,6.7,2.9,9.8c-0.6-8.2,2.2-14.3,8.9-18.5c-0.1-0.6-0.6-0.5-0.9-0.5c-4.3-0.4-8.5,0.1-12.6,1.3
		c-1.6,0.4-2.8,1.3-3.3,2.9c-0.1,0.3-0.2,0.6-0.4,0.9c-0.5,0-1.1,0-1.6,0c-2.4-0.1-4.5,0.6-6.5,2c-3.1,2.2-4.8,5.2-5.6,8.8
		c-0.7,2.7-0.9,5.5-1,8.3c-0.4,10.5-0.8,21-1.2,31.5c-0.2,5.9-0.4,11.9-0.6,17.8c-0.2,4.3-0.4,8.6-0.5,13c0,0.8,0,1.5,0,2.4
		c0.5,0,0.9,0,1.3,0c4.2-0.4,8.4-0.9,12.7-1.3c2.1-0.2,4.1-0.4,6.2-0.6c7-0.7,13.9-1.5,20.9-2.2c4.9-0.5,9.8-1,14.7-1.5
		c3.6-0.4,7.2-0.8,10.8-1.2c3.5-0.4,7.1-0.7,10.6-1.1c6.7-0.7,13.5-1.5,20.2-2.2c4.9-0.5,9.8-1,14.7-1.5c3.6-0.4,7.2-0.8,10.8-1.2
		c3.5-0.4,7.1-0.7,10.6-1.1c4.7-0.5,9.4-1,14-1.4c0.8-0.1,1.7-0.2,2.5-0.4c2-0.3,3.2-1.5,3.7-3.4c0.2-0.9,0.4-1.8,0.5-2.7
		c0.7-6.4,1.3-12.7,2-19.1s1.4-12.7,2.1-19.1c0.4-3.9,0.7-7.8,1.1-11.8c0.5-5.3,1.1-10.6,1.7-15.9c0.1-0.8,0.2-1.5,0.3-2.8
		c0.2,0.9,0.4,1.2,0.4,1.6c0.1,0.6,0.1,1.2,0.2,1.8c0.8,12.5,1.2,25,0.9,37.5c-0.2,8.1-0.5,16.2-1.1,24.3c-0.2,2.5-0.4,4.9-0.6,7.6
		c-0.7-0.7-0.6-1.4-0.7-2c-0.5-3.7-1-7.3-1.5-11c-0.1-0.4-0.1-0.7-0.3-1.6c-0.8,2.7-0.5,5-0.9,7.3c-0.4,2.2-0.7,4.4-1.2,6.6
		c-0.5,2.3-1.1,4.5-1.7,6.8c0.3,0.1,0.6,0.2,0.9,0.2c8.2-1.1,16.4-2.2,24.5-3.3c0.6-0.1,1.2,0,1.8,0c-0.1,0.2-0.1,0.3-0.2,0.4
		c-0.7,1.3-0.4,1.9,0.9,2.1c0.4,0.1,0.8,0.1,1.1,0c2.3-0.4,4.7-0.9,7.3-1.4c-2.5-1.5-5-1.1-7.8-1.4c3.4-0.4,6.3-0.8,9.2-1.2
		c0.8-0.1,1.5-0.2,2.3-0.4c1.9-0.5,3.1-1.6,3.4-3.6c0.2-1.3,0.3-2.6,0.3-3.9c0.4-13.7,0.7-27.5,1.1-41.2c0.2-8.4,0.5-16.8,0.8-25.2
		c0-0.5,0-1.1,0-1.6c0.7-0.1,0.7,0.3,0.8,0.6c0.4,1.3,0.8,2.7,1.1,4c0.1,0.3,0.2,0.5,0.5,1c0.8-1.2,1-2.4,1.4-3.5
		c0.5-1.1,0.7-2.3,1.3-3.3c0.2,0.1,0.3,0.1,0.3,0.1c0,0.1,0.1,0.1,0.1,0.2c-0.2,25.4-0.5,50.8-0.7,76.2c0,0.2-0.1,0.4-0.1,0.7
		c0,0.1-0.1,0.1-0.2,0.3c-2.2-0.8-2.7-2.7-3.2-4.7c-0.9,1.1-2.6,5.4-3,7.5c1,0.1,2-0.2,2.9-0.3c11.1-1.9,22.2-3.9,33.3-5.8
		c4.4-0.8,8.8-1.5,13.2-2.2c1.4-0.2,2.8-0.2,4.2-0.2c2,0,4,0.5,5.8,1.4c7,3.5,13.9,7,20.9,10.5c4.7,2.3,9.4,4.7,14.1,7
		c1.5,0.7,2.8,1.6,3.8,2.9c0.9,1.3,1.2,2.6,0.6,4.1c-0.4,1.1-1.2,1.8-2.4,2c-0.9,0.1-1.8,0.2-2.8,0.2c-5.2,0.3-10.5,0.6-15.7,0.9
		c-3.5,0.2-6.9,0.4-10.4,0.6s-7.1,0.5-10.6,0.7c-5.5,0.4-10.9,0.7-16.4,1.1c-3,0.2-6,0.5-9,0.7c-6.8,0.6-13.5,1.1-20.3,1.7
		c-4.2,0.4-8.3,0.8-12.4,1.1c-5.8,0.5-11.7,1.1-17.5,1.6c-5.5,0.5-10.9,1.1-16.4,1.6c-5.3,0.5-10.6,1.1-15.9,1.6
		c-4.9,0.5-9.8,1.1-14.7,1.7c-3.2,0.4-6.4,0.7-9.7,1.1c-3.5,0.4-7.1,0.8-10.6,1.2c-6.4,0.7-12.7,1.4-19.1,2.1
		c-4.4,0.5-8.9,1.1-13.3,1.6c-3,0.4-6,0.7-9,1.1c-3.2,0.4-6.4,0.8-9.7,1.1c-6.1,0.7-12.1,1.4-18.2,2.2c-4.3,0.5-8.6,1.1-12.9,1.7
		c-4.2,0.5-8.4,1-12.6,1.5c-3.1,0.4-6.3,0.8-9.4,1.2c-2.9,0.4-5.8,0.7-8.7,1c-2.9,0.4-5.5,1.3-8.1,2.7c-1.4,0.8-2.6,1.7-3.6,2.9
		c-1.5,1.8-2.2,3.7-0.9,6c0.5-0.1,0.9,0,1.3-0.2c8.3-2.8,16.9-4.4,25.5-5.7c3.9-0.6,7.8-1,11.7-1.5c5.5-0.7,11-1.4,16.5-2.2
		c5.2-0.7,10.4-1.3,15.6-2c7.2-0.9,14.4-1.8,21.6-2.7c5.6-0.7,11.2-1.3,16.8-2c5.7-0.7,11.5-1.4,17.2-2.1c4.7-0.6,9.4-1,14-1.6
		c4.6-0.5,9.2-1.1,13.8-1.6c3.4-0.4,6.7-0.7,10.1-1.1c3.6-0.4,7.2-0.8,10.8-1.2c3.6-0.4,7.2-0.7,10.8-1.1c4-0.4,8-0.8,12-1.2
		c2-0.2,4-0.4,6-0.6c6.5-0.6,12.9-1.3,19.4-1.9c4.6-0.4,9.2-0.8,13.8-1.1c6.9-0.6,13.8-1.1,20.8-1.6c7.9-0.6,15.7-1.1,23.6-1.6
		c8.2-0.5,16.5-1,24.7-1.4c4.8-0.3,9.6-0.5,14.3-0.7c0.8,0,1.5,0,2.2,0c3.8,4.5,7.1,5.9,11.7,4.8c-0.5-1-1.5-1.3-2.2-2
		c-0.7-0.6-1.5-1.1-2.2-1.6c-0.8-0.6-1.6-1.2-2.4-1.8c0.6-0.5,1,0,1.3,0.1c5.6,2.9,11.3,5.7,16.8,8.8c7.2,4,14.3,8.3,21.4,12.4
		c2,1.2,3.9,2.5,5.3,4.4c0.7,0.9,1.3,1.9,1.7,3c0.6,1.3,0.6,2.8-0.2,4c-1.6,2.8-1.9,5.8-2.1,8.9c-0.1,1.9-0.2,3.9-0.5,5.8
		c-0.6,3.6-4.2,6.4-7.8,6.4c-1.5,0-2.7-0.5-3.3-2.3c1.8,0.3,3.6,0.8,5.2-0.2c0.9-0.5,1.8-1.1,2.6-1.9c0.6-0.6,1.1-1.5,1.5-2.3
		c0.3-0.6,0.3-1.3,0.3-2c0-0.5-0.3-1-0.4-1.5c-1.1,0.1-1.8,0.7-2.6,1.1c-7.9,3.9-16.1,7-24.7,9.2c-7.4,1.9-14.9,3.3-22.6,3.7
		c-1.8,0.1-3.5,0.3-5.3,0.3c-0.7,0-1.5-0.1-2.2-0.4c-1.5-0.5-3-1.1-4.6-1.7c-0.1,0-0.2-0.2-0.3-0.3c0-0.1-0.1-0.2,0-0.2
		c0-0.1,0.1-0.1,0.2-0.1c0.9-0.2,1.8-0.3,2.7-0.5c7.8-1,15.6-2.3,23.3-3.8c8-1.5,16-3.2,23.9-5.5c2.6-0.8,5.1-1.7,7.4-3.2
		c2.6-1.6,4.5-3.7,5.4-6.7c1.4-4.5-0.1-7.3-2.7-9.3c-1.1-0.9-2.2-1.7-3.4-2.4c-8.1-5.3-16.8-9.5-26-12.4c-6.7-2.1-13.6-3.6-20.6-4.4
		c-6.8-0.7-13.7-0.8-20.6-0.2c-5.3,0.5-10.6,0.7-15.9,1.1c-4.7,0.3-9.4,0.7-14.1,1.1c-6.9,0.6-13.8,1.1-20.8,1.7
		c-5.8,0.5-11.7,1-17.5,1.6c-5.8,0.5-11.7,1.1-17.5,1.6c-3.7,0.4-7.4,0.8-11.1,1.1c-5.6,0.6-11.2,1.1-16.8,1.7
		c-4.8,0.5-9.5,1-14.3,1.5c-4.9,0.5-9.8,1.1-14.7,1.6c-4.5,0.5-9,1.1-13.6,1.7c-3,0.4-6,0.7-9,1.1c-5.9,0.7-11.8,1.4-17.7,2.2
		c-6.5,0.8-13,1.6-19.5,2.5c-3.9,0.5-7.8,1.1-11.7,1.6c-3.8,0.5-7.6,1-11.5,1.5c-6,0.8-11.9,1.7-17.9,2.6
		c-5.8,0.8-11.6,1.7-17.4,2.5c-4.3,0.6-8.5,1.3-12.8,2c-0.3,0-0.6,0.2-0.9,0.3c-0.1,0.7,0.4,1.2,0.7,1.6c3.9,5.4,8.5,10.2,13.9,14.2
		c7,5.2,14.7,9,23.2,11.2c4.9,1.3,9.8,2,14.8,2.2s9.9-0.4,14.7-1.1c7.1-1.1,14.2-2.1,21.3-3.1c4.7-0.7,9.3-1.4,14-2.1
		c5.8-0.8,11.6-1.6,17.4-2.5c6.9-1,13.9-2.1,20.8-3.1c4.7-0.7,9.3-1.3,14-2c5.6-0.8,11.3-1.6,16.9-2.5c6.9-1,13.7-2,20.6-3
		c7.2-1.1,14.5-2.2,21.7-3.2c6.6-1,13.3-1.9,19.9-2.9c7.1-1,14.2-2.1,21.3-3.2c5.6-0.8,11.1-1.6,16.7-2.4c8.2-1.2,16.3-2.4,24.5-3.6
		c5.5-0.8,11-1.6,16.5-2.4c6.1-0.9,12.2-1.8,18.3-2.7c0.8-0.1,1.5-0.1,2.3-0.1c0.9,0,1.7,0.2,2.3,0.9c0.6,0.7,0.1,1.5-0.1,2.2
		c1.4,0.9,3.1,0.5,4.7,1.3c-7.3,1.3-14.4,2.2-21.4,3.3c-7,1.1-14.1,2-21.1,3c-7.1,1-14.2,2.1-21.3,3.2c-7.1,1.1-14.2,2.1-21.3,3.2
		c-7.1,1.1-14.2,2.1-21.3,3.2c-7,1-14.1,2-21.1,3c-7.1,1-14.2,2.1-21.3,3.2c-7.1,1.1-14.2,2.1-21.3,3.1c-7,1-14,2.1-21.1,3.1
		s-14.2,2.1-21.3,3.1c-7.1,1-14.2,2.1-21.3,3.2c-7.1,1-14.2,2.1-21.3,3.1c-7,1-14,2-21.1,3.1c-7.1,1-14.2,2.1-21.3,3.1
		c-0.4,1.6-0.1,3-0.1,4.5s0.1,2.9,0.1,4.4s0.1,2.9,0.1,4.6c3.4-0.8,6.6-1.8,9.8-2.6c3.1-0.8,6.3-1.6,9.4-2.4
		c3.2-0.8,6.4-1.6,9.7-2.4c3.2-0.8,6.5-1.5,9.7-2.2s6.5-1.4,9.7-2.1c3.2-0.7,6.3-1.3,9.5-1.9c3.3-0.6,6.5-1.2,9.8-1.8
		c3.3-0.6,6.5-1.1,9.8-1.6c3.2-0.5,6.4-1,9.6-1.5c3.3-0.5,6.6-1,9.9-1.4s6.6-0.8,9.9-1.2c3.2-0.4,6.4-0.8,9.7-1.1
		c3.3-0.3,6.6-0.6,9.9-0.9s6.6-0.5,9.9-0.8c3.3-0.2,6.6-0.5,9.9-0.7c3.2-0.2,6.5-0.4,9.7-0.5c3.3-0.2,6.6-0.3,9.9-0.4
		s6.6-0.2,10-0.2c3.2-0.1,6.5-0.1,9.7-0.1c3.3,0,6.5,0.1,9.8-0.5c-1.2-0.3-2.5-0.6-3.7-0.8c0-0.6,0.4-0.7,0.8-0.8
		c5.3-1.9,10.8-3.3,16.3-4.1c5.4-0.8,10.9-1,16.4-0.8c4.1,0.1,8.1,0.7,12.2,1.5c0.5,0.1,1,0.3,2,0.6c-3,0.6-5.6,1.1-8.2,1.5
		c-8.6,1.6-17.1,3.1-25.7,4.7c-2.4,0.4-4.6,1.1-6.7,2.3c-2.3,1.3-3.7,3.2-3.8,5.9c-0.2,3.7-0.5,7.4-0.8,11.1
		c-0.4,5.2-0.7,10.5-1.1,15.7c-0.6,8-1.1,16-1.7,24c-0.1,1.8-0.4,3.5-0.9,5.2c-0.9,3.4-3.2,5.3-6.8,5.7c-9.3,1.1-18.1-0.6-26.6-4.3
		c-4-1.7-7.6-4.1-11-6.8c-0.5-0.4-1-0.8-1.4-1.2c-1.7-1.7-2.6-3.8-2.5-6.3c0.1-1.5,0.3-3.1,0.6-4.6c1.5-8,3.1-16.1,4.6-24.1
		c0.9-4.9,1.9-9.9,2.8-14.8c0.1-0.4,0.2-0.7,0.2-1.2c1.9-0.8,3.9-1.4,6.1-1.9c0,0.5,0.1,1,0,1.4c-1.6,7.8-3.2,15.6-4.7,23.4
		c-0.6,3.2-1.3,6.4-1.8,9.5c-0.4,2.4-0.4,4.8-0.2,7.2c0.4,4.5,2.5,8,6.4,10.5c1.9,1.2,3.4,1.4,5.9,1c0.8-3.3,1.3-6.7,2-10.1
		c0.7-3.5,1.3-7,2-10.5c0.7-3.4,1.3-6.8,2-10.2c0.7-3.5,1.3-7,2-10.5c0.6-3.4,1.2-6.8,2.1-10.5c1,2.2,1.2,4.2,1.9,6.1
		c0.5,0.1,0.7-0.3,0.9-0.6c1.1-1.9,2.1-3.7,3.2-5.7c0.4,1.1,0.4,1.1,0.2,1.6c-1,4.1-1.9,8.3-2.9,12.4c-2,8.8-4,17.6-6,26.4
		c-0.7,2.9-1,5.9-0.3,8.9c0.7,3.2,2.5,5.6,5.4,7.1c2.8,1.4,5.7,0.9,7.8-1.3c1-1,1.6-2.2,2.2-3.5c0.7-1.8,1.1-3.7,1.3-5.6
		c0.5-5.5,1-10.9,1.5-16.4c0.4-4.1,0.8-8.3,1.1-12.4c0.2-1.7,0.3-3.4,0.4-5.1c0.4-4.4,0.8-8.8,1.2-13.1c0-0.5,0-1.1,0-1.7
		c-0.5-0.2-1-0.5-1.6-0.8c-8.9-3.5-17.6-3.1-26.2,1.2c-1.3,0.7-2.6,0.9-4,0.4c-0.6-0.2-1.2-0.3-1.8-0.6c-2.9-1.2-5.9-1.2-8.8-0.4
		c-2.5,0.7-5,1.5-7.6,2.2c-6.1,1.7-12.3,2.9-18.6,3.6c-6,0.7-11.9,1.5-17.9,2.2c-4.8,0.6-9.5,1-14.3,1.6c-4.7,0.5-9.3,1.1-14,1.7
		c-4.7,0.5-9.4,1-14,1.5c-3.5,0.4-6.9,0.8-10.4,1.1c-2.1,0.2-4.3,0.5-6.4,0.7c-0.7,0.1-1.4,0.1-2.1,0.7c0,0.5,0,1.1,0,1.7
		c0.2,13.2,0.4,26.4,0.6,39.6c0.3,19.3,0.5,38.6,0.8,57.9c0.1,5.3,0.2,10.7,0.3,16c0,1.6-0.2,3.2-0.3,4.8c-0.3,3.1-1.8,5.6-4,7.6
		c-1.5,1.4-3.1,2.6-4.9,3.5c-7.1,3.7-14.4,6.7-22.3,8.2c-2.2,0.4-4.4,0.8-6.6,0.8c-6.2,0-11.7-1.7-15.9-6.6c-2-2.4-3.1-5.1-3.8-8.1
		c-0.4-1.7-0.5-3.5-0.6-5.3c-0.2-4.2,0.2-8.3,0.7-12.5c0.6-4.7,1.2-9.5,1.7-14.2c0.5-4.4,1.1-8.9,1.7-13.3c0.5-4.1,1-8.1,1.5-12.2
		c0.7-5.7,1.4-11.3,2.1-17c0.7-6.2,1.5-12.4,2.2-18.6c0.5-4.3,1.1-8.6,1.6-12.9c0.1-0.8,0.1-1.5,0.2-2.4c-6.6-3.8-12.9-8-18.9-12.6
		s-11.6-9.6-16.8-15.1c1.6,0.6,2.8,1.7,4.2,2.6c1.4,1,2.8,2,4.1,3c1.4,1,2.8,1.9,4.2,2.9s2.8,2,4.1,3c1.4,1,2.8,2,4.2,2.9
		c1.4,1,2.8,2,4.2,2.9c1.4,1,2.8,2,4.2,2.9c1.4,1,2.7,2,4.1,3c1.4,1,2.7,2.1,4.3,2.9c1.4-1.3,2.5-2.7,3.7-4.4
		C66.4,302.1,45,288.7,24.4,274c0.9-3.5,3-5.8,5.8-7.7c2.8-1.9,5.9-2.5,9.4-2.2c-0.4-1.9-0.4-3.6,0.2-5.2c0.6-1.6,1.6-2.9,3.1-4
		c-1.1-1.2-2.3-1.4-3.5-1.4c-1.3,0-2.5,0.3-3.6,0.9c-1.9,1-3.8,2-5.8,2.9c-1.4,0.7-2.7,1.5-4.1,2.1c-1,0.4-2.1,0.7-3.1,0.8
		c-3.1,0.4-5.6-1.5-6.2-4.6c-0.6-2.8,0.2-5.4,2-7.6c1.4-1.8,3.3-3,5.2-4.2c0.6-0.4,1.3-0.8,2.2-1.3c-0.9-0.4-1.6-0.5-2.4-0.7
		c-10.3-1.8-19.9-5.5-28.8-11c-0.4-0.2-0.7-0.5-0.9-1.1c0.4,0.1,0.8,0.2,1.3,0.4c6.6,2.1,13.2,3.7,20,4.6c4.2,0.6,8.4,0.9,12.7,1.1
		c3.9,0.2,7.9,0.4,11.8,0.3c6.5-0.2,13-0.5,19.4-1.2c7.8-0.8,15.6-1.7,23.4-2.8c7.6-1,15.1-2,22.7-3c7.7-1,15.4-2.1,23.2-3.1
		c4.4-0.6,8.7-1,13.1-1.5c4.5-0.5,9-1.1,13.6-1.7c4.6-0.5,9.2-1,13.8-1.5c3.5-0.4,7-0.8,10.6-1.2c3.4-0.4,6.8-0.7,10.1-1.1
		c7.1-0.7,14.1-1.5,21.2-2.2c5.4-0.5,10.8-1,16.1-1.5c4.1-0.4,8.3-0.9,12.4-1.2c3.8-0.4,7.5-0.7,11.3-1c6.6-0.6,13.2-1.1,19.8-1.7
		c6.1-0.5,12.2-1,18.2-1.5c0.8-0.1,1.5-0.1,2.8-0.1c-2,0.9-3.6,0.9-5.2,1.3c-1.7,0.4-3.5,0.6-5.2,0.9s-3.4,0.5-5,0.8
		s-3.3,0.6-4.9,1.1c19.6,1.2,39.2,0.3,58.6-1.7c0.2-0.8-0.4-0.8-0.7-1c-2.8-1.5-5.6-3-8.3-4.5c-7.6-4-15.1-8.1-22.7-12.1
		c-2.9-1.5-5.7-3.1-8.6-4.6c-1.9-1-4-1.7-6.2-1.5c-1.1,0.1-2.1,0.5-2.7,1.8c2.7,1.2,5.4,1.9,8,3s5.3,2.1,7.9,3.3
		c2.6,1.2,5.2,2.4,7.7,3.7c2.5,1.3,5.1,2.6,7.7,4.4c-1.4,0-2.3-0.3-3.2-0.6c-2.7-0.9-5.4-1.9-8-2.9s-5.2-2-7.8-3
		c-4.7-1.8-9.5-2.7-14.5-2.6c-5.1,0.1-10.2,0.4-15.3,0.6c-4.5,0.2-8.9,0.5-13.4,0.7c-7.6,0.4-15.3,0.8-22.9,1.2
		c-4.4,0.2-8.8,0.4-13.2,0.7c-4.5,0.2-8.9,0.5-13.4,0.7c-4.6,0.2-9.3,0.4-13.9,0.7c-6.9,0.4-13.7,0.8-20.6,1.2
		c-3.7,0.2-7.4,0.4-11.1,0.7c-3.4,0.2-6.8,0.5-10.2,0.7c-6.5,0.5-13.1,1-19.6,1.6c-3.6,0.3-7.2,0.7-10.8,1.1
		c-6.1,0.7-12.1,1.4-18.2,2.1c-4.1,0.5-8.1,1.1-12.1,1.7c-5.7,0.8-11.5,1.6-17.2,2.5c-6.6,1-13.1,2-19.7,3
		c-7.7,1.2-15.4,2.5-23.1,3.8c-10.5,1.7-21,3.4-31.5,5.2c-3.8,0.6-7.6,1.2-11.4,1.8c-0.8,0.1-1.5,0.3-2.2,0.6
		c-0.5,0.2-0.9,0.6-1.3,0.9c-0.5,0.5-0.5,1.3-0.2,1.7c0.3,0.5,1.2,0.9,1.6,0.5c1.2-1,2.3-0.4,3.5,0c8.8,2.3,17.2,5.8,25.2,10.2
		c2,1.1,3.9,2.3,5.4,3.9c0.7,0.8,1.4,1.7,1.9,2.6c1.5,3.1,0.8,6.1-1.8,8.4c-1.7,1.5-3.7,2.2-5.8,2.7c-2.4,0.5-4.7,0.7-7.1,0.1
		c-0.4-0.1-0.9-0.1-1.6-0.2c0.7,1.3,1.4,2.3,1.9,3.5s0.8,2.5,1.2,3.7c0.4,0.3,0.6-0.1,0.8-0.2c3-2.5,6.4-2.8,10-1.5
		c1.4,0.5,2.5,1.5,3.4,2.7c1.7,2.4,2.5,5.1,2.6,8c0.1,2.4-0.1,4.8-0.2,7.2c0,0.8-0.2,1.5-0.3,2.4c0.3,0,0.6,0,0.7-0.1
		c3.8-2.7,8-2.7,12.2-1.1c4.8,1.8,8.3,5,10.3,9.7c1.5,3.3,2,6.8,2.2,10.4s-0.1,7.1-0.6,10.6c-0.5,4.3-1.1,8.6-1.6,12.9
		c-0.6,5-1.1,10-1.7,14.9c-0.3,2.4-0.5,4.8-0.6,7.2c-0.4,5.3-0.8,10.6-1.1,15.9c-0.3,5.8-0.5,11.6-0.8,17.4
		c-0.1,2.1-0.2,4.2-0.3,6.2c-0.2,5-2,9.3-4.9,13.3c-2.3,3.2-5,5.9-8.1,8.2c-4.8,3.7-10.1,6.6-15.9,8.3
		C7.5,416.4,6.7,416.5,5.9,416.5c1.2-1,2.3-2.3,3.3-3.7c3.3-4.2,7.5-6.8,12.9-7.4c2-0.2,3.7-1.1,5.2-2.3c2.2-1.8,3.7-4.1,4.6-6.8
		c0.7-2,1.2-4.2,1.4-6.3c0.4-4.8,0.9-9.5,1.3-14.3c0.6-7.5,1.2-14.9,1.8-22.4c0.1-0.8,0-1.5-0.1-2.3c0-0.3-0.4-0.5-0.7-0.8
		c-0.8,0.8-1.1,1.7-1.3,2.6c-0.4,1.8-0.8,3.6-0.9,5.5c-0.5,7.6-1,15.2-1.5,22.9c-0.1,1.2-0.2,2.3-0.4,3.4c-0.6,3.3-2.3,5.9-5.6,7.1
		c-3.1,1.2-6.2,2.4-9.3,3.4c-3.5,1.1-7.1,1.3-10.7,0.3c-0.1,0-0.3,0.1-0.5,0.2c-0.1,0.6-0.2,1.3-0.3,2c-0.3,1.8-0.6,3.7-1.3,5.4
		c-0.5,1.2-1.1,2.2-2,3.1c-1.9,1.8-4.1,2.4-6.6,1.9c-1.8-0.4-3-1.5-3.4-3.4c-0.2-0.7-0.3-1.4-0.6-2c-0.1-0.3-0.4-0.5-0.8-0.9
		c-0.5,2-0.9,3.7-1.4,5.4c-0.1,0.3-0.1,0.6-0.1,0.9c0,2,0.9,3.4,2.8,4c1,0.3,2.1,0.4,3.2,0.5c1.4,0.2,2.8,0.2,4.1,0.4
		c1.7,0.2,3.1,0.8,3.9,2.5c0.4,0.8,1.2,1.2,2.1,1.2C5.3,416.5,5.6,416.5,5.9,416.5z M127.5,299.9c-0.8-0.3-1.4,0.3-1.9,0.6
		c-4.1,2.2-8.1,4.4-12.2,6.7c-1.1,0.6-2.3,1.3-3.4,1.9c-1.6,0.9-2.5,2.3-2.7,4.1c-0.1,1.2-0.2,2.5-0.3,3.7
		c-0.4,7.6-0.7,15.1-1.1,22.7c-0.4,8.6-0.8,17.1-1.2,25.7c-0.2,5.1-0.4,10.2-0.7,15.3c-0.4,8.5-0.8,17-1.2,25.4
		c-0.3,5.6-0.6,11.1-0.8,16.7c-0.1,1.5-0.1,3.1-0.1,4.6c-0.1,1.4,0.7,2.3,1.9,2.9c0.4,0.2,0.9,0.3,1.3,0.4c2,0.2,4,0.2,5.9-0.5
		c2.7-0.9,5.4-1.8,8.1-2.8c0.9-0.3,1.7-0.7,2.5-1.1c2-1.1,3.1-2.6,2.9-5c-0.2-4.2-0.3-8.3-0.4-12.5c-0.3-14-0.6-28.1-0.9-42.1
		c-0.2-10.3-0.5-20.7-0.7-31c-0.2-7.6-0.4-15.1-0.6-22.7c0-1.5,0.2-3.1,0.3-4.6c0-0.2,0.1-0.5,0.2-0.7c0.1-0.2,0.1-0.6,0.7-0.5
		c0.5,4.6,0.8,9.3,1.3,13.9c0.5,4.7,0.8,9.4,1.6,14c0.5-11.5,1-23,1.4-34.5C127.7,300.3,127.6,300.1,127.5,299.9z M9.7,393.7
		c0.3,0,0.6,0.1,0.8,0.1c3.6-0.8,7.2-1.7,10.5-3.4c2.1-1.1,3.9-2.5,5.5-4.2c2.2-2.5,3.5-5.4,3.3-8.9c-0.4-6.5,0.2-13,1-19.4
		c0.9-7.3,2.2-14.5,3.2-21.7c0.8-5.6,1.5-11.2,2-16.8c0.9-8.5,1.1-17.1,1.4-25.7c0-1.1,0.1-2.2,0-3.2c0-1.5-0.5-2.7-1.7-3.6
		c-2.1-1.6-4.4-2.9-7-3.5c-3.8-0.8-5.8,0.5-6.4,4.3c-0.7,3.8-1.3,7.6-1.9,11.4c-0.9,5.6-1.7,11.3-2.5,16.9c-1,7.3-2.1,14.7-3,22
		c-0.8,6.1-1.5,12.3-2.1,18.4c-0.6,5.7-1.1,11.4-1.6,17c-0.3,3.1-0.6,6.1-0.8,9.2c-0.3,3.3-0.5,6.6-0.7,9.9
		C9.5,393,9.6,393.3,9.7,393.7z M103.8,308.1c-2.6,0.9-4.8,2.2-6.9,3.6c-3.5,2.4-5.7,5.6-6.6,9.7c-0.4,1.7-0.6,3.5-0.9,5.2
		c-0.6,5.1-1.2,10.3-1.8,15.4c-0.3,2.8-0.7,5.7-1,8.5c-0.4,3.7-0.8,7.4-1.2,11c-0.7,5.7-1.4,11.3-2,17c-0.6,4.9-1.2,9.8-1.7,14.7
		c-0.6,5.7-1.2,11.3-1.8,17c-0.4,3.6-0.2,7.2,0.3,10.9c0.4,2.9,1.3,5.7,2.8,8.3c1,1.7,2.3,3.1,4.2,3.9c3.1,1.3,6.3-0.5,6.7-3.8
		c0.1-0.8,0.1-1.5,0.2-2.3c0.4-5.8,0.8-11.7,1.3-17.5c0.3-4.2,0.6-8.5,1-12.7c0.6-8.1,1.1-16.2,1.7-24.2c0.3-4.6,0.7-9.2,1-13.8
		c0.3-4.8,0.6-9.7,1-14.5c0.4-5.2,0.7-10.3,0.6-15.5c-0.1-3.6-0.5-7.1-1.3-10.5c-0.2-0.8-0.3-1.6-0.6-2.8c0.6,0.6,0.9,0.9,1.2,1.3
		c1.3,1.7,2.5,3.3,3.8,5c0.2,0.2,0.3,0.5,0.7,0.3C104.5,318.5,104.2,310.1,103.8,308.1z M-3.1,405.7c1.6-0.9,1.8-1.1,2.6-2.1
		c1.2-1.6,2-3.5,2.3-5.5c0.5-2.7,0.9-5.5,1.2-8.2c1-8.3,1.9-16.5,2.9-24.8c0.7-6.3,1.5-12.6,2.2-18.8c0.8-6.7,1.6-13.3,2.4-20
		c0.7-6.1,1.4-12.3,2.1-18.4c1-8.6,2-17.2,3.1-25.7c0.3-2.9,0.7-5.8,0.5-8.8c-0.2-3.4-1.3-6.3-3.9-8.6c-1.4-1.2-3.1-2-5.2-1.8
		c-0.1,0.8-0.3,1.5-0.4,2.3c-0.4,4.2-0.9,8.4-1.3,12.7c-0.5,5.1-1.1,10.1-1.7,15.2c-0.4,3.5-0.7,6.9-1.1,10.4
		C2,308.7,1.5,313.9,0.9,319c-0.4,3.4-0.7,6.8-1.1,10.1c-0.6,5.3-1.2,10.6-1.7,15.9c-0.5,4.8-1,9.7-1.5,14.5
		c-0.6,5.2-1.1,10.4-1.7,15.6c-0.4,3.7-0.8,7.4-1.2,11c-0.4,3.6-0.8,7.2-0.6,10.9c0.1,2.2,0.5,4.3,1.6,6.2
		C-4.8,404-4.3,405.1-3.1,405.7z M32.2,272.5c0.1,2,1,3.6,2.3,5c1.4,1.5,3.1,2.6,4.9,3.4c4.9,2.4,9.8,5,14.4,7.9
		c4.8,3.1,9.5,6.3,14,9.8c2.6,2,5.3,4,7.9,6c0.7,0.5,1.4,1,2.2,1.1c2.1,0.3,4.2-0.9,4.9-3c0.6-1.8,0.4-3.5-0.4-5.2
		c-0.9-1.9-2.2-3.3-3.9-4.5c-2.3-1.6-4.7-3.2-7.1-4.8c-5.8-3.9-11.5-7.7-17.3-11.6c-3.9-2.6-7.9-5.2-11.8-7.7
		c-1.2-0.7-2.4-1.4-3.7-1.9c-2.6-1-4.8,0.1-5.8,2.6C32.5,270.6,32.4,271.6,32.2,272.5z M6,254.3c1.9-0.1,3.7-0.6,5.2-2
		c2.1-1.9,2.4-4.4,0.8-6.7c-0.6-0.9-1.4-1.6-2.3-2.2c-1.1-0.7-2.3-1.3-3.4-1.9c-6.7-3.2-13.4-6.3-20.1-9.5c-0.3-0.2-0.7-0.3-1.1-0.4
		c-1.6-0.6-2.4-0.4-3.3,1.1c-1,1.7-1.9,3.5-2.7,5.3c-0.5,1.1-0.6,2.2-0.5,3.4c0.2,2.5,1.3,4.4,3.8,5.3c6.1,2.2,12.2,4.4,18.3,6.5
		C2.4,253.8,4.1,254.3,6,254.3z M75.8,421.2c-1.1,2.3-1.6,4.4-1.6,6.7c0,2,0.7,3.6,2.2,4.9c0.9,0.8,1.8,1.5,2.8,2.1
		c3.5,2.1,7,4.2,10.5,6.3c0.4,0.2,0.8,0.4,1.2,0.7c2.1,1.1,4,1.1,6-0.4c5.3-4,11.4-6.4,17.8-8c1.6-0.4,3.2-0.6,4.7-1.1
		c1.6-0.5,3.2-1,4.7-1.8c2.7-1.4,4.2-3.6,4.3-6.7c0.1-1.5,0-2.9-0.1-4.4c-0.2-2.1-0.5-4.3-0.8-6.4c-0.1-0.8-0.2-1.6-0.4-2.8
		c-0.5,1.1-0.5,1.9-0.5,2.7c-0.2,3.6-0.4,7.2-0.6,10.9c-0.1,2.2-1.1,3.8-3.2,4.7c-0.6,0.2-1.1,0.5-1.7,0.7
		c-3.6,1.2-7.1,2.5-10.7,3.7c-0.8,0.3-1.6,0.6-2.4,0.7c-1.2,0.2-2.4,0.3-3.7,0.3c-1.4,0-2.5-0.7-3.3-1.9c-0.5-0.8-0.9-1.7-1-2.5
		c-0.3-1.4-0.4-2.9-0.4-4.4c-0.3-6,0.2-12,0.6-18c0.3-4.8,0.8-9.5,1.1-14.3c0.2-3.9,0.2-7.9-0.3-11.8c-0.1-0.5-0.1-1-0.2-1.4
		c-0.4,0.6-0.6,1.2-0.6,1.8c-0.4,3.9-0.7,7.8-1,11.8c-0.4,4.7-0.8,9.4-1.2,14.1c-0.4,4.5-0.8,8.9-1.2,13.4c-0.3,3.6-0.6,7.2-1,10.8
		c-0.1,0.8-0.2,1.7-0.5,2.5c-0.5,1.6-1.6,2.6-3.2,3c-1.9,0.5-3.7,0.2-5.3-0.8c-1.5-0.9-2.6-2.1-3.7-3.4c-2.5-3-4.5-6.3-6.3-9.7
		C76.5,422.2,76.2,421.8,75.8,421.2z M275.4,344.2c-0.3,0.1-0.4,0-0.5,0.1c-0.4,0.3-0.7,0.6-1.1,0.9c-3.7,2.9-7.9,4.1-12.6,3.7
		c-1.6-0.2-3-0.6-4.4-1.3c-1.8-1-3-2.4-3.2-4.5c-0.1-1.1-0.1-2.3,0-3.4c0.1-1.6,0.3-3.2-0.5-4.9c-0.3,0.3-0.5,0.5-0.6,0.8
		c-0.2,0.7-0.4,1.5-0.5,2.2c-0.2,1.1-0.3,2.3-0.5,3.4c-0.6,2.4-2.3,3.7-4.7,3.7c-1.3,0-2.6-0.3-3.8-0.9c-1.9-0.9-3.5-2.2-4.9-3.8
		c-2.4-2.7-4-5.9-4.6-9.4c-0.1-0.6,0-1.3-0.7-2c-1.2,2-2,4-2.1,6.2c-0.2,2.7,0.7,4.8,3.1,6.3c3.9,2.6,7.8,5.2,11.8,7.8
		c1.7,1.1,3.4,2.2,5.3,2.8c1.6,0.6,3.3,0.8,5,0.3c2.5-0.8,5-0.6,7.6-0.2c1.4,0.2,2.7,0.4,4.1,0.6c1.6,0.2,3.1,0.1,4.6-0.3
		c1.6-0.5,2.9-1.4,3.7-2.9C276.5,347.5,276.8,345.8,275.4,344.2z M17.6,207.2c-1,3.3-2.1,6.6-3.1,9.9c0,0.1,0,0.2,0,0.2
		c0,0.1,0.1,0.1,0.2,0.2c0.2,0,0.4,0,0.6,0c6.5-1,12.8-2.7,19-4.9c0.3-0.1,0.5-0.3,0.8-0.6c-2-1.6-3.9-3.2-6-4.7
		c-0.2,0.5-0.4,0.8-0.5,1.1c-0.5,1-1,2.1-1.7,3c-0.8,1.2-1.7,2.4-3.1,2.9C20.5,213.1,18.8,210.5,17.6,207.2z M127.4,115.9
		c5.2,0.6,36.6-1.7,40.4-3.3c-1.1-0.2-1.9-0.4-2.7-0.4c-2.8,0-5.6,0-8.3,0.2c-4,0.3-8,0.7-12,1.1c-4.8,0.4-9.7,0.9-14.5,1.3
		C129.3,115,128.4,115,127.4,115.9z M127.2,393.8c0.1,0,0.3-0.1,0.4-0.1c0-0.4,0.1-0.7,0.1-1.1c0.4-10.9,0.3-21.7-0.4-32.6
		c-0.1-0.8-0.3-1.7-0.5-2.5c-0.1-0.3-0.4-0.7-1-0.4c0,0.5-0.1,1.1-0.1,1.7c0.1,2.6,0.2,5.2,0.2,7.9c0.2,7.6,0.3,15.1,0.5,22.7
		c0,1.2,0.3,2.4,0.5,3.7C126.9,393.3,127.1,393.6,127.2,393.8z M79.6,386.9c-2.6,4.4-4.3,19.3-2.7,24.9
		C77.8,403.3,78.6,395.3,79.6,386.9z M81,290.1c0.1,1.5,0.8,2.5,1.9,3.1c1.3,0.7,2.7,0.8,4,0.4c1.6-0.5,3.2-1.1,4.7-1.7
		c0.3-0.1,0.5-0.4,1.1-0.8C88.7,290.7,84.9,290.4,81,290.1z M235,178.8c0.3,0,0.5,0.1,0.7,0c0.3-0.1,0.5-0.3,0.7-0.6
		c0.7-1,0.8-2.1,0.7-3.3c-0.2-3.8-0.3-7.5-0.5-11.3c0-0.1-0.2-0.2-0.4-0.4c-0.2,0.5-0.4,0.9-0.4,1.3c-0.7,3.6-1.1,7.1-1.1,10.8
		C234.8,176.5,234.6,177.6,235,178.8z M86.5,326c-2.3,3.8-3,11.5-1.4,15.6c0.3-1.6,0.6-3.1,0.8-4.5c0.5-2.7,0.9-5.4,1.3-8.2
		C87.3,327.9,87.3,327,86.5,326z M-25,243.4c-1,0.3-1.3,1.1-1.4,1.9c-0.3,2.1,0.9,3.9,2.9,4.3c1.1,0.2,2.3,0.2,3.4,0.2
		c0.3,0,0.8,0,1-0.5c-0.2-0.2-0.5-0.5-0.7-0.8c-1-0.8-2-1.4-2.9-2.3C-23.6,245.4-24.3,244.4-25,243.4z M102.5,117.9
		c-0.6-0.2-0.9-0.3-1.3-0.4c-3.5-0.8-7-0.9-10.5-0.6c-0.7,0-1.4,0.2-2,0.5c-0.3,0.1-0.5,0.4-0.9,0.7C91,119,98.5,118.9,102.5,117.9z
		 M57.1,201.2c0.9-3.1,0.8-5.9-0.2-8.7c-0.1-0.2-0.3-0.4-0.7-0.9c-0.4,1-0.7,1.8-0.9,2.6c-0.4,1.6-0.6,3.2-0.3,4.8
		C55.2,200,55.6,200.9,57.1,201.2z M41,304.6c0.9-1,1.1-1.8,0.9-2.9c-0.5-2.3-0.8-4.7-1.2-7c0-0.3,0.1-0.6-0.4-0.7
		C38.7,296.8,38.9,301.3,41,304.6z M185.6,112c-1.6-0.9-2.9-0.8-4.2-0.9c-1.3,0-2.6-0.1-3.9,0c-1.2,0-2.5,0-3.6,0.6
		c-0.2,0.1-0.4,0.3-0.8,0.7C177.4,113.5,181.3,113,185.6,112z M101.2,371.4c1.5-2.2,1.6-6,0.5-10.5c-0.9,0.7-0.9,1.8-1,2.7
		C100.3,366.1,100.2,368.7,101.2,371.4z M235.2,218.3c-1-0.7-1.9-0.5-2.7-0.6c-2.5-0.2-4.9,0-7.3,0.7c-0.4,0.1-0.7,0.3-1.2,0.6
		C226.4,220,231.5,219.7,235.2,218.3z M238,217.6c3.4,0.8,6.6,0.4,9.8-0.5c0.2,0,0.3-0.3,0.4-0.5C244.1,216,240.1,216.4,238,217.6z
		 M302,279.5c-2.7-0.2-4.8,0.4-7,1.5c0.8,1.3,1.9,1.6,3.1,1.1C299.4,281.5,300.7,280.9,302,279.5z M275.3,323.7
		c-1.3,1.6-1.3,3.2-1.2,4.8c0.1,1.1,0.2,2.3,1.3,3.1C276.2,327.8,276.2,325.8,275.3,323.7z M192.5,291.2c1.1,1.2,2.6,2,3.8,1.9
		c0.7,0,1.3-0.4,1.5-1.3C196.2,290.6,194.5,290.2,192.5,291.2z M57.2,179.8c-1,0.5-1.2,1.2-1.2,1.9c-0.1,1.3,0.1,2.6,0.6,3.8
		c0.2,0.6,0.4,1.1,0,1.7c-0.2,0.4,0.2,0.7,0.7,0.4C57.8,185.2,57.8,182.6,57.2,179.8z M106.9,117.5c2.1,0.5,3.7,0.5,5.3,0.2
		c0.5-0.1,1.1,0,1.3-0.7C111.2,115.6,109.4,115.6,106.9,117.5z M19,196.7c-1,0.6-1,1.3-1.1,2c-0.1,1.6,0.1,3.3,0.6,4.5
		C19.8,201.1,19.9,199,19,196.7z M0.3,300.3c1-1.2,1.1-1.2,1.1-2.2c0-1.1,0.2-2.3-0.8-3.3c-0.7,0.7-1,1.6-1,2.5
		C-0.5,298.3-0.5,299.4,0.3,300.3z M125.2,345.6c-0.6,1.6-0.7,3.2-0.8,4.8c0,0.1,0.3,0.3,0.4,0.5c0.1,0.1,0.3,0,0.4-0.1
		c0.7-0.6,1.1-1.5,1.1-2.4C126.4,347.3,126.2,346.4,125.2,345.6z M-10.1,391.6c-0.2,1.1-0.4,2.3,0.1,3.4c0.2,0.4,0.5,0.6,0.9,1.1
		c0.3-0.9,0.5-1.5,0.7-2.2c0-0.1,0.1-0.3,0.1-0.4C-8.2,392.3-8.7,391.8-10.1,391.6z M122.6,116.6c-1.2-1.5-2.6-1.5-4.3,0
		C119.8,117.2,121.2,117.1,122.6,116.6z M84.5,118.9c-0.4-0.8-1.1-1-1.7-1.2c-0.7-0.2-1.2,0.1-1.6,0.6c-0.3,0.4-0.2,1,0.3,1.1
		C82.5,119.5,83.5,119.6,84.5,118.9z M43.1,123.2c1,0.7,1.9,0.5,2.8,0.4c0.1,0,0.3-0.1,0.4-0.2c0.3-0.3,0.5-0.7,0.2-1
		c-0.1-0.2-0.5-0.4-0.8-0.3C44.8,122.2,43.9,122.3,43.1,123.2z M275.5,73.4c0.6-1.1,0.7-2.1-0.1-3.2c-0.2-0.3-0.9-0.3-0.9,0.1
		c-0.1,0.6-0.2,1.2-0.1,1.8C274.4,72.7,274.7,73.3,275.5,73.4z M0.6,288.5c1-0.1,1.3-0.8,1.5-1.5s0.2-1.4-0.6-1.8
		C0.6,286.1,0.1,287.1,0.6,288.5z M72,119.7c0.4,0.5,0.9,0.7,1.4,0.5c0.4-0.1,0.8-0.4,1.2-0.6c0.1-0.1,0.2-0.3,0.1-0.4
		c-0.1-0.2-0.3-0.4-0.4-0.5C73.3,118.5,72.5,118.7,72,119.7z M81.7,373.2c0.7-0.6,0.9-1.2,0.7-1.9c-0.1-0.2-0.4-0.5-0.6-0.6
		c-0.2,0-0.6,0.1-0.8,0.3C80.5,371.8,80.6,372.2,81.7,373.2z M212,220.9c0.6-0.1,0.9-0.7,0.8-1.4c-0.1-0.5-0.5-0.9-0.9-0.8
		c-0.6,0.1-0.9,0.7-0.8,1.4C211.1,220.6,211.6,221,212,220.9z M-4.7,338.2c1-0.7,1.2-1.4,0.9-2.3c0-0.2-0.3-0.4-0.5-0.4
		s-0.5,0.1-0.6,0.2C-5.4,336.5-5.4,337.3-4.7,338.2z M266,214.3c-1.3-0.9-2-0.9-3.3,0C263.8,214.7,264.8,214.7,266,214.3z
		 M82.2,364.3c0.9-0.5,1.2-1.1,0.9-2c-0.1-0.2-0.3-0.4-0.5-0.4s-0.5,0.1-0.6,0.3C81.6,362.8,81.5,363.5,82.2,364.3z M201.7,222.4
		c-2.2-0.6-2.5-0.6-3.5,0.2C199.3,223,200.3,223,201.7,222.4z M81.7,376.1c-0.3-0.3-0.4-0.6-0.7-0.8c-0.1-0.1-0.5,0.2-0.7,0.4
		c-0.2,0.2-0.2,0.6-0.2,0.9c0,0.2,0.2,0.5,0.3,0.6c0.2,0.1,0.5,0,0.6-0.1C81.2,376.9,81.4,376.6,81.7,376.1z M-7.3,363.2
		c0.5-0.7,0.3-1.3-0.2-1.8c-0.1-0.1-0.4-0.2-0.6-0.1s-0.4,0.3-0.4,0.5c0,0.3,0.1,0.6,0.3,0.8C-7.9,362.9-7.6,363-7.3,363.2z
		 M159.4,225.6c-0.7-0.4-1.4-0.6-2.3,0.2C158.1,226.2,158.7,226.2,159.4,225.6z M257,214.6c1.7,1,1.8,1,2.5,0
		C258.9,214.6,258.2,214.6,257,214.6z M192.1,223.1c-1-0.4-1.7-0.4-2.6,0.1C190.4,223.9,191.1,223.9,192.1,223.1z M239.1,295.2
		c0.9-0.2,1-0.8,0.9-1.6c0-0.1-0.2-0.3-0.3-0.3c-0.2,0-0.5,0-0.6,0.1C238.8,294,238.7,294.6,239.1,295.2z M102.6,231.5
		c-1.1,0.3-1.6,0.5-2.3,0.7c0.5,0.6,1,1,1.7,0.6C102.2,232.8,102.2,232.3,102.6,231.5z M237.5,306.1c0.1-0.3,0.2-0.6,0.2-0.8
		c0-0.5-0.1-0.9-0.7-1.1c-0.2,0-0.5,0.1-0.6,0.2c-0.4,0.5-0.2,1,0.3,1.4C236.9,305.9,237.2,305.9,237.5,306.1z M83.6,351.4
		c-0.7,0.2-0.8,0.8-1.1,1.3c0,0.1,0.1,0.3,0.1,0.4c0.1,0.1,0.3,0.1,0.4,0.1C83.8,352.8,83.9,352.5,83.6,351.4z M216.2,219.8
		c0.8,0.4,1.1,0.6,1.5,0.7c0.7,0.2,0.9-0.1,0.8-1.1C217.9,219.5,217.3,219.6,216.2,219.8z M-9,382.1c-0.5,1.1-0.7,1.9,0,2.8
		C-8.9,384.1-8.4,383.3-9,382.1z M96,233.3c-0.3-0.7-0.8-0.6-1.3-0.4c-0.1,0-0.2,0.3-0.2,0.4c0.3,0.5,0.7,0.4,1.2,0.3
		C95.7,233.5,95.8,233.3,96,233.3z M254.1,215.7c-1-0.2-1-0.2-1.7,0.1C252.9,216.3,253.4,216.4,254.1,215.7z M74.5,235.7
		c0.5,0.4,0.9,0.6,1.4,0.2c0.1-0.1,0.1-0.2,0.2-0.4l-0.1-0.1C75.4,235.2,74.9,235.1,74.5,235.7z M105.9,231.4c1,0.6,1,0.6,1.6,0
		C107,231,106.5,231,105.9,231.4z M121.6,230c-0.3-0.7-0.8-0.7-1.3-0.4c-0.1,0-0.2,0.3-0.2,0.4c0.3,0.5,0.7,0.3,1.2,0.3
		C121.4,230.2,121.5,230.1,121.6,230z M82.5,235.2c0.1,0,0.3,0,0.4-0.1c0.2-0.1,0.3-0.3,0.5-0.4c-0.2-0.1-0.4-0.2-0.6-0.2
		c-0.1,0-0.3,0-0.4,0.1c-0.1,0.1-0.2,0.3-0.3,0.5C82.3,235.1,82.4,235.2,82.5,235.2z M205.3,221.9c0.4,0,0.8,0,1.1,0
		c0.1,0,0.2-0.2,0.2-0.3c0-0.1-0.1-0.3-0.2-0.3C205.9,221.1,205.5,221.2,205.3,221.9z M30.3,241.6c0-0.1,0-0.2,0-0.2
		c-0.2-0.1-0.5-0.3-0.7-0.4c-0.1,0-0.2,0.1-0.3,0.2c0.2,0.2,0.4,0.3,0.6,0.5C30,241.8,30.1,241.7,30.3,241.6z M210.9,290.3
		c0.6,0.4,1.1,0.4,1.8,0C212,289.8,211.6,289.7,210.9,290.3z M89.3,234.1c-0.1-0.1-0.1-0.3-0.2-0.4c-0.1-0.1-0.3,0.1-0.4,0.1
		c0.1,0.2,0.1,0.3,0.2,0.5C89,234.3,89.2,234.2,89.3,234.1z M253.8,332.2c-0.1-0.1-0.3-0.2-0.4-0.1c-0.1,0-0.2,0.2-0.3,0.3
		c0.2,0.1,0.3,0.1,0.5,0.2C253.7,332.5,253.8,332.4,253.8,332.2z M-6.6,356.5c0-0.1-0.1-0.3-0.1-0.4c-0.1,0.1-0.3,0.1-0.3,0.2
		c0,0.2,0.1,0.3,0.1,0.5C-6.8,356.6-6.7,356.5-6.6,356.5z"/>
	<path class="st0" d="M327.7,385c-2.5-1.1-5.4-3.9-7.5-7.1c-1.9-2.9-3-6-3.9-9.4c-1,0.4-1.4,1.1-1.8,1.8c-0.6,1.3-0.7,2.7-0.3,4.1
		c0.4,1.2,1,2.3,1.6,3.3s1.4,1.9,2.2,2.7c4.6,5,9.2,10,13.8,15c0.5,0.6,1,1.1,1.6,1.6c1.8,1.5,3.6,1.5,5.5,0.3
		c1.2-0.8,2.2-1.9,3-3.2c0.6-0.9,1.2-1.8,1.4-3c-0.4-0.1-0.6-0.1-0.9-0.1c-2.3-0.1-3.8-1.4-4.9-3.4c-0.7-1.3-0.9-2.8-0.9-4.3
		c0-1.9,0.1-3.7,0.2-5.6c0.3-6.2,0.5-12.3,0.8-18.5c0.1-1.8,0.2-3.5,0.1-5.3c-0.2,0.7-0.4,1.3-0.6,2c-1.1,6.2-2,12.5-2.5,18.8
		c-0.2,1.9-0.3,3.8-0.4,5.8c-0.1,0.8,0,1.7-0.6,2.8c-0.3-1.4-0.5-2.4-0.6-3.4c-0.4-4.2-0.4-8.5,0.1-12.7c0.9-6.9,1.9-13.7,2.9-20.6
		c0.4-3.3,0.7-6.6,1-9.9c0.4-4.4,0.7-8.8,1-13.2c0.7-11.1,0.7-22.2,0.3-33.3c-0.1-2,0-4,0.2-6c0.2-1.8,0.7-3.5,2.1-4.8
		c1.8,0.2,2.9,1.4,3.7,2.8c1.1,1.8,1.5,3.7,1.6,5.7c0.1,2.1,0.1,4.2-0.1,6.2c-0.6,7.5-1.3,15.1-1.9,22.6c-0.6,7.3-1.2,14.6-1.9,21.9
		c-0.5,6.1-1.1,12.1-1.6,18.2c-0.4,4.5-0.7,9.1-1.1,13.6c-0.3,3.7-0.6,7.4-1,11.1c-0.2,2.1-0.2,4,1.5,5.5c1.8,1.6,4,2.3,6.4,2
		c1.1-0.2,2.1-0.5,3.2-0.7c0.6-0.1,1.2-0.3,2.3-0.6c-1.4,1.3-2.4,2.2-3.3,3.1c0.1,0.6,0.5,0.6,0.9,0.7c0.7,0.2,1.3,0.4,2.3,0.7
		c-1.2,0.2-2,0.4-2.8,0.6c-3.4,0.7-6.1,2.6-8.2,5.3c-0.1,0.1-0.2,0.2-0.3,0.4c-1.1,2.1-3.2,2.5-5.6,1.5c-1.8-0.8-3.4-1.9-4.7-3.3
		c-5.1-5.6-10.2-11.2-15.2-16.8c-0.7-0.8-1.4-1.7-1.9-2.6c-0.9-1.5-1.2-3.1-0.9-4.9c1-6,2.1-12,3.1-18c0.8-4.8,1.6-9.6,2.5-14.4
		c1.3-7.7,2.7-15.3,4-23c1.3-7.8,2.7-15.5,4-23.3c0.6-3.6,1.2-7.1,1.9-10.7c0.1-0.4,0.2-0.7,0.3-1.1c1.4-0.2,2.6-0.3,4,0
		c0.3,1.4,0.2,2.8,0.1,4.2c-0.6,11.1-2.6,22-5,32.9c-2.1,9.2-4.1,18.4-6.1,27.6c-1.3,6.1-2.1,12.2-1.6,18.4
		c0.5,7.3,2.8,13.9,7.8,19.3C327.2,384.3,327.3,384.5,327.7,385z M341.6,284c-0.2,0.2-0.3,0.2-0.3,0.3c-1.4,4.1-1.3,8.3-0.2,12.5
		c0.1,0.6,0.6,1.1,0.9,1.6c0.3,0.4,0.7,0.6,1.2,0.3c0.1-0.1,0.2-0.3,0.2-0.4c0.3-3.1,0.7-6.3,0.9-9.4c0.1-1.1-0.1-2.2-0.6-3.1
		S342.7,284.1,341.6,284z M340,339.5c-1.1,0.2-1.2,0.9-1.2,1.5c0,1-0.3,2-0.6,2.9c-0.2,0.8-0.3,1.7-0.4,2.5c-0.1,1,0.1,1.9,0.7,3.2
		c1-1.6,1.3-3.2,1.6-4.8C340.5,343.1,340.6,341.4,340,339.5z M340.8,329.6c-1,0.3-1.2,1.1-1.2,1.8c0,0.9,0,1.8,0.1,2.8
		c0.1,0.7,0.3,0.7,1.4,0.6C341.5,333,341.4,331.3,340.8,329.6z M339.8,325.2c1.4-0.2,1.8-0.6,1.7-1.6c-0.1-1-0.5-1.9-0.8-3.1
		c-0.4,0.5-0.8,0.7-0.9,1C339.2,322.7,339.6,324,339.8,325.2z M329.1,286.1c-1,0.6-1.2,1.3-1,2.2c0,0.2,0.2,0.4,0.4,0.5
		c0.2,0.1,0.5,0,0.6-0.2C329.8,287.8,329.8,287.5,329.1,286.1z"/>
	<path class="st0" d="M373.5,276.7c0.7,4.1,1.4,7.8,2.1,11.4c0,0.1,0.2,0.2,0.3,0.4c0.9-3,1.1-6,1.9-9c0.7,0.2,0.5,0.6,0.5,0.9
		c0.9,8,0.8,16,0.3,24c-0.5,8.5-1.7,16.9-2.8,25.3c-0.9,6.6-1.7,13.3-2.6,20c-1.2,9.3-1.9,18.7-1.7,28.2c0.1,2.8,0.2,5.5,0.4,8.3
		c0.1,1.2-0.1,2.3-0.5,3.4c-0.4,1-0.9,1.9-2.2,2.5c0-1.1,0.7-1.8,0.7-2.7c0.1-0.9,0.1-1.9,0-2.8s-0.4-1.8-1-2.5
		c-2.6,2.7-3,2.9-5.5,2.6c0-0.1-0.1-0.4,0-0.4c1.7-1.7,2.3-3.8,2.5-6.1c0.5-5.2,1-10.4,1.5-15.7c0.5-5.1,1.1-10.3,1.6-15.4
		c0.4-3.5,0.7-7.1,1.1-10.6c0.6-5.4,1.2-10.9,1.7-16.3c0.4-4.7,0.8-9.4,1.1-14.1c0.2-2.4,0.3-4.8,0.3-7.2c0.1-4.4-0.3-8.8-0.8-13.2
		c-0.3-2.5-0.5-5.1-0.2-7.6C372.5,279.2,372.7,278.1,373.5,276.7z M376.4,300.7c1-0.8,1.4-1.9,1.3-3.1c-0.1-0.7-0.4-1.2-1.2-1.5
		C375.7,298.2,375.7,298.9,376.4,300.7z"/>
	<path class="st0" d="M2.4,75.8c-0.3,0.5-0.4,0.9-0.7,1.3c-2.3,3-5.4,4.7-9.1,5.4c-0.4,0.1-0.8,0.1-1.1,0.1
		c-2.6,0.5-4.3,2.5-4.3,5.2c0,1.8,0.6,3.5,1.9,5c1.1-2.6,2.4-4.9,5.2-6.3c-0.1,0.5,0,0.8-0.1,1.1c-1.7,4.8-2.3,9.8-2.4,14.8
		c0,4.5,0.3,8.9,0.5,13.4c0.1,4.2,0.1,8.3,0.1,12.5c0,1-0.2,2-0.4,2.9c-0.9,0.4-1.7,0.6-2.5,1c-1.3,0.7-2.2,1.7-2.3,3.2
		c-0.1,1.3,0.6,2.3,1.9,2.6c0.5,0.1,1.1,0.2,1.6,0.2c2.9-0.1,5.8-0.5,8.7-1.4c2.4-0.7,4.4-2.1,6-4.1c2.6-3.2,7.1-4.2,10.9-2.7
		c0.2,0.1,0.4,0.3,0.6,0.4c-0.5,1-1.4,1.2-2.3,1.5c-0.8,0.3-1.7,0.4-2.5,0.6c-0.7,0.1-1.4,0.3-2,0.4c-1.2,0.3-2.1,0.9-2.8,1.9
		c-1.7,2.5-4.1,3.9-6.8,4.9c-2.3,0.8-4.6,1.2-7,1.5c-1,0.1-2,0.2-3,0.3c-3.1,0.3-4.9-1.1-5.3-4.2c-0.2-1.5-0.2-3.1,0.1-4.6
		c1.4-7,1.4-14.1,1.1-21.2c-0.2-4.7-0.7-9.4-1-14.1c-0.2-3.9-0.3-7.9-0.4-11.8c-0.1-3.9,1.7-5,4.8-5.5c0.9-0.1,1.8-0.3,2.7-0.4
		c1.9-0.2,3.5-1,4.9-2.4c0.5-0.5,1.1-1,1.8-1.5C0.2,75.4,1.2,75.3,2.4,75.8z"/>
	<path class="st0" d="M200,193.2c-0.1-2.5-0.2-4.9-0.3-7.2c-0.1-7.6,0.1-15.3,0.6-22.9c0.4-6.5,1-12.9,1.7-19.4
		c0.4-4.1,1.1-8.3,1.6-12.4c0.5-4.5,0.9-9.1,0.8-13.6c0-0.7,0-1.4,0-2.2c0.7-0.1,1.3-0.2,1.8-0.2c0.2,0.2,0.3,0.4,0.3,0.5
		c0.1,0.4,0.1,0.8,0.1,1.2c0.5,15,0.7,30.1,0.2,45.1c-0.2,4.9-0.3,9.9-0.5,14.8c-0.1,3.7,0,7.4,0.8,11.1c0.3,1.4,0.8,2.8,1.2,4.2
		c0.1,0.4,0.3,0.8,0.4,1.3c-1.8,0.2-2.7-0.1-3.3-1.5c-0.3-0.8-0.6-1.6-0.7-2.4c-0.3-2.7-0.6-5.4-0.8-8.1c-0.2-1.8-0.4-3.7-0.8-5.5
		c-0.1,0.3-0.2,0.6-0.2,0.9c-0.2,3.3-0.3,6.6-0.5,9.9c-0.1,1.4-0.2,2.8-0.4,4.1C201.8,191.9,201.4,192.7,200,193.2z M203.5,164.6
		c-1.5,1.4-1.7,2.8-0.7,4.9c0.8-0.5,0.9-1.3,1.1-2.1C204.2,166.4,204,165.5,203.5,164.6z"/>
	<path class="st0" d="M200.7,108.3c5.9-1.1,11.5-1.9,17.1-2.2c5.5-0.3,10.9-0.5,16.4-0.1c0.2,0,0.4,0.2,0.8,0.5
		c-6.8,1.1-13.3,2.1-19.8,3.1c0,0.1,0,0.1,0,0.2c0.4,0.1,0.9,0.2,1.3,0.3c0.5,0.1,1.1,0.1,1.6,0.1c3.2,0.1,6.5,0.2,9.7,0.3
		c0.8,0,1.6,0.1,2.3,0.2c0.6,0.1,1.1,0.5,1.6,0.8c0.2,0.1,0.2,0.5,0.3,0.9c-0.8,0.1-1.3,0.1-1.9,0.2c-6.2,0.2-12.5,0.4-18.7,0.6
		c-0.8,0-1.7,0.2-2.5-0.5c0.1-0.3,0.1-0.6,0.2-1c0.1-1.4-0.5-2.3-1.9-2.4c-1,0-2,0.1-3,0.3s-1.8,0.1-2.7-0.4
		C201.2,109.1,201.1,108.8,200.7,108.3z"/>
	<path class="st0" d="M26.9,263.8c-3.9,2.3-5.5,5.5-4.3,9.9c-0.6,0.1-1.1,0.3-1.6,0.4c-1.1-1-1.2-2.3-1.5-3.6
		c-0.3-1.4-0.1-2.7,0.4-4.1c0.7-1.9,3-3.7,5.5-3.3C25.9,263.3,26.2,263.5,26.9,263.8z"/>
	<path class="st0" d="M311.7,210.6c-2.3,0.9-9,0.9-12.2,0.1c0.3-0.3,0.5-0.6,0.8-0.8c1.6-1,3.3-1.5,5.3-1.2c0.9,0.1,1.8,0.1,2.8,0.2
		C309.6,209.2,310.8,209.5,311.7,210.6z"/>
	<path class="st0" d="M249.2,106.8c-1.9,1.2-3.8,1.4-5.7,1.1c-1.7-0.3-2.6-0.8-3.5-1.8C242.9,104.8,246.3,105,249.2,106.8z"/>
	<path d="M366.5,391.7c-2.5,0.6-4.8,1-7.3,1.2c-0.4,0-0.9-0.1-1.3-0.1c-0.1-0.9,0.5-1.2,1-1.1c1.1,0,2.1-0.3,3.1-0.7
		c1.4-0.5,2.7-0.3,4,0.2C366.2,391.2,366.3,391.5,366.5,391.7z"/>
	<path d="M361.8,386.8c-1.7,0.7-3.3,1-4.8,1.3c-0.2,0-0.5-0.2-0.5-0.3c0-0.3,0-0.7,0.1-0.8c0.8-0.5,1.6-0.9,2.4-1.2
		C360,385.4,360.9,385.8,361.8,386.8z"/>
	<path class="st0" d="M253.8,108.3c-0.2-0.2-0.5-0.5-0.7-0.9c-0.2-0.6,0.3-1.3,0.9-1.3c0.4,0,0.7,0.4,0.8,1
		C254.8,107.8,254.5,108.3,253.8,108.3z"/>
	<path d="M328.2,385.7c0,0,0-0.1,0.1-0.1c0,0.1,0.1,0.1,0.1,0.2C328.3,385.7,328.3,385.7,328.2,385.7z"/>
	<path class="st0" d="M274.6,45.4c0.2,0.3,0.3,0.7,0.5,1l0.1-0.1C275,46,274.9,45.7,274.6,45.4C274.7,45.4,274.6,45.4,274.6,45.4z"
		/>
	<path class="st0" d="M17.6,207.2c1.2,3.3,2.9,5.9,6.3,7.2c1.4-0.6,2.3-1.8,3.1-2.9c0.7-0.9,1.1-2,1.7-3c0.2-0.3,0.3-0.7,0.5-1.1
		c2.1,1.5,3.9,3.1,6,4.7c-0.4,0.3-0.6,0.5-0.8,0.6c-6.2,2.2-12.5,3.9-19,4.9c-0.2,0-0.4,0-0.6,0c-0.1-0.1-0.2-0.1-0.2-0.2
		s-0.1-0.2,0-0.2C15.5,213.8,16.6,210.5,17.6,207.2z"/>
	<path class="st0" d="M127.4,115.9c1-0.9,1.9-0.9,2.8-1c4.8-0.5,9.7-0.9,14.5-1.3c4-0.4,8-0.8,12-1.1c2.8-0.2,5.5-0.2,8.3-0.2
		c0.8,0,1.7,0.2,2.7,0.4C163.9,114.2,132.6,116.5,127.4,115.9z"/>
	<path class="st0" d="M274.7,45.4c0.2,0.3,0.3,0.6,0.5,0.9c-0.2,3.4-1,9-1.7,10.7c-0.2-0.6-0.4-1.1-0.6-1.6c-0.8-2.1-2-4-3.7-5.5
		c-0.4-0.4-0.8-0.7-1.1-1.2c-0.6-0.8-0.5-1.7,0.3-2.2c1.7-1.1,3.5-2,5.6-1.3C274.2,45.4,274.5,45.4,274.7,45.4z"/>
	<path class="st0" d="M79.6,386.9c-0.9,8.4-1.8,16.5-2.7,24.9C75.3,406.2,77,391.3,79.6,386.9z"/>
	<path class="st0" d="M102.5,117.9c-4,1-11.5,1.1-14.7,0.1c0.4-0.3,0.6-0.6,0.9-0.7c0.7-0.2,1.3-0.4,2-0.5c3.5-0.2,7.1-0.2,10.5,0.6
		C101.6,117.6,101.9,117.7,102.5,117.9z"/>
	<path class="st0" d="M57.1,201.2c-1.5-0.3-1.9-1.2-2.1-2.2c-0.3-1.6-0.1-3.2,0.3-4.8c0.2-0.8,0.5-1.6,0.9-2.6
		c0.4,0.4,0.6,0.6,0.7,0.9C57.9,195.3,58,198.1,57.1,201.2z"/>
	<path class="st0" d="M185.6,112c-4.3,1-8.2,1.5-12.4,0.3c0.4-0.3,0.5-0.5,0.8-0.7c1.1-0.6,2.4-0.6,3.6-0.6c1.3,0,2.6,0,3.9,0
		C182.7,111.2,184,111.1,185.6,112z"/>
	<path class="st0" d="M275.3,323.7c0.9,2,0.9,4.1,0.1,7.8c-1.1-0.8-1.2-1.9-1.3-3.1C274,326.9,274,325.3,275.3,323.7z"/>
	<path class="st0" d="M192.5,291.2c2-1,3.7-0.5,5.3,0.6c-0.2,0.9-0.8,1.2-1.5,1.3C195.1,293.2,193.6,292.4,192.5,291.2z"/>
	<path class="st0" d="M57.2,179.8c0.6,2.8,0.6,5.3,0.1,7.9c-0.5,0.2-0.9,0-0.7-0.4c0.3-0.6,0.2-1.2,0-1.7c-0.5-1.2-0.7-2.5-0.6-3.8
		C56,181,56.1,180.4,57.2,179.8z"/>
	<path class="st0" d="M106.9,117.5c2.5-1.9,4.3-1.9,6.6-0.5c-0.2,0.7-0.8,0.6-1.3,0.7C110.6,118,108.9,118,106.9,117.5z"/>
	<path class="st0" d="M19,196.7c0.9,2.3,0.8,4.4-0.4,6.5c-0.6-1.2-0.8-2.9-0.6-4.5C18,198,18,197.3,19,196.7z"/>
	<path class="st0" d="M122.6,116.6c-1.4,0.5-2.8,0.6-4.3,0C120,115.1,121.4,115.1,122.6,116.6z"/>
	<path class="st0" d="M84.5,118.9c-1,0.7-2,0.6-3,0.5c-0.5-0.1-0.6-0.7-0.3-1.1c0.4-0.5,1-0.8,1.6-0.6
		C83.4,117.9,84.1,118.1,84.5,118.9z"/>
	<path class="st0" d="M43.1,123.2c0.9-0.8,1.8-1,2.7-1.2c0.2,0,0.6,0.1,0.8,0.3c0.2,0.3,0.1,0.7-0.2,1c-0.1,0.1-0.2,0.2-0.4,0.2
		C45,123.7,44.1,123.9,43.1,123.2z"/>
	<path class="st0" d="M72,119.7c0.5-1,1.3-1.2,2.3-1c0.2,0,0.3,0.3,0.4,0.5c0,0.1,0,0.3-0.1,0.4c-0.4,0.2-0.8,0.5-1.2,0.6
		C72.9,120.4,72.3,120.2,72,119.7z"/>
	<path class="st0" d="M212,220.9c-0.4,0.1-0.9-0.3-0.9-0.8c-0.1-0.7,0.2-1.3,0.8-1.4c0.4-0.1,0.9,0.2,0.9,0.8
		C212.8,220.3,212.5,220.8,212,220.9z"/>
	<path class="st0" d="M201.7,222.4c-1.5,0.5-2.4,0.6-3.5,0.2C199.2,221.8,199.5,221.8,201.7,222.4z"/>
	<path class="st0" d="M159.4,225.6c-0.7,0.6-1.4,0.6-2.3,0.2C158.1,225,158.7,225.2,159.4,225.6z"/>
	<path class="st0" d="M192.1,223.1c-1,0.7-1.7,0.8-2.6,0.1C190.4,222.7,191.1,222.8,192.1,223.1z"/>
	<path class="st0" d="M239.1,295.2c-0.4-0.6-0.4-1.2,0-1.8c0.1-0.1,0.4-0.1,0.6-0.1c0.1,0,0.3,0.2,0.3,0.3
		C240.1,294.4,240,295,239.1,295.2z"/>
	<path class="st0" d="M102.6,231.5c-0.4,0.8-0.4,1.2-0.6,1.4c-0.6,0.3-1.1,0-1.7-0.6C101,232,101.5,231.9,102.6,231.5z"/>
	<path class="st0" d="M237.5,306.1c-0.3-0.1-0.6-0.2-0.7-0.3c-0.4-0.4-0.6-0.8-0.3-1.4c0.1-0.1,0.4-0.3,0.6-0.2
		c0.5,0.1,0.6,0.6,0.7,1.1C237.7,305.5,237.6,305.7,237.5,306.1z"/>
	<path class="st0" d="M216.2,219.8c1.1-0.2,1.7-0.3,2.3-0.4c0.1,1-0.1,1.3-0.8,1.1C217.3,220.4,217,220.2,216.2,219.8z"/>
	<path class="st0" d="M96,233.3c-0.1,0.1-0.2,0.2-0.3,0.2c-0.4,0.1-0.9,0.2-1.2-0.3c0-0.1,0.1-0.3,0.2-0.4
		C95.2,232.6,95.7,232.5,96,233.3z"/>
	<path class="st0" d="M254.1,215.7c-0.7,0.7-1.2,0.7-1.7,0.1C253.1,215.5,253.1,215.5,254.1,215.7z"/>
	<path class="st0" d="M74.5,235.7c0.5-0.6,1-0.4,1.5-0.3c0.1,0,0.2,0.1,0.1,0.1c0,0.1-0.1,0.3-0.2,0.4
		C75.4,236.3,74.9,236.1,74.5,235.7z"/>
	<path class="st0" d="M105.9,231.4c0.6-0.4,1.1-0.4,1.6,0C106.8,232,106.8,232,105.9,231.4z"/>
	<path class="st0" d="M121.6,230c-0.1,0.1-0.2,0.2-0.3,0.2c-0.4,0.1-0.9,0.2-1.2-0.3c0-0.1,0.1-0.3,0.2-0.4
		C120.8,229.3,121.3,229.3,121.6,230z"/>
	<path class="st0" d="M82.5,235.2c-0.1-0.1-0.3-0.1-0.4-0.2c0.1-0.2,0.2-0.4,0.3-0.5s0.3-0.1,0.4-0.1c0.2,0,0.4,0.2,0.6,0.2
		c-0.2,0.1-0.3,0.3-0.5,0.4C82.9,235.2,82.7,235.2,82.5,235.2z"/>
	<path class="st0" d="M205.3,221.9c0.2-0.7,0.6-0.8,1.1-0.6c0.1,0,0.2,0.2,0.2,0.3c0,0.1-0.1,0.3-0.2,0.3
		C206,221.9,205.7,221.9,205.3,221.9z"/>
	<path class="st0" d="M30.3,241.6c-0.1,0-0.3,0.2-0.4,0.1c-0.2-0.1-0.4-0.3-0.6-0.5c0.1-0.1,0.2-0.2,0.3-0.2
		c0.2,0.1,0.5,0.2,0.7,0.4V241.6z"/>
	<path class="st0" d="M210.9,290.3c0.6-0.6,1.1-0.5,1.8,0C212,290.7,211.6,290.7,210.9,290.3z"/>
	<path class="st0" d="M89.3,234.1c-0.1,0.1-0.2,0.1-0.4,0.2c-0.1-0.2-0.1-0.3-0.2-0.5c0.1,0,0.3-0.1,0.4-0.1
		C89.2,233.8,89.2,234,89.3,234.1z"/>
	<path class="st0" d="M253.8,332.2c0,0.1-0.1,0.3-0.1,0.4c-0.2-0.1-0.3-0.1-0.5-0.2c0.1-0.1,0.2-0.3,0.3-0.3
		C253.6,332.1,253.7,332.2,253.8,332.2z"/>
</g>
</svg>
