<?xml version="1.0" encoding="utf-8"?>
<!-- Generator: Adobe Illustrator 19.1.0, SVG Export Plug-In . SVG Version: 6.00 Build 0)  -->
<svg version="1.1" id="Layer_1" xmlns="http://www.w3.org/2000/svg" xmlns:xlink="http://www.w3.org/1999/xlink" x="0px" y="0px"
	 viewBox="174 -123.6 1190.6 841.9" style="enable-background:new 174 -123.6 1190.6 841.9;" xml:space="preserve">
<style type="text/css">
	.st0{fill:#FFFFFF;}
	.st1{fill:#FFFDFD;}
</style>
<g>
	<path class="st0" d="M965.3,311.6c14.6,20.8,29.2,41.5,43.8,62.3c5.9-4.5,1.1-15.4,6.3-20.7c4.8-4.8,13.8,0.1,15.3,6.7
		s-1.5,13.3-4.1,19.6s-4.6,13.7-1.3,19.6c3.2,5.6,10.5,8.4,12.1,14.6c2,7.6-9.1,14.5-15,9.3c-0.3,9.4-0.6,18.7-0.9,28.1
		c-0.1,2.2-0.2,4.7-1.7,6.3c-3.2,3.6-9,0.9-13.1-1.6c-17.1-10.4-37.9-14.4-57.7-11.2c2.1,13.7,0.3,29.2-9.8,38.6
		c-10.1,9.4-29.9,8-34.8-5c-2.9-7.8,0.3-16.4,1.3-24.7s-2.1-18.9-10.4-20.1c-4.8-0.7-7.1-6.1-8.5-10.7c-6-19.6-12.1-39.2-18.1-58.9
		c-0.7-2.4-3.8-3.1-6.3-3.4c-9.3-1.1-18.9-2.1-27.9,0.7c-8.9,2.8-17,10.6-17,20c-0.2,44.4-0.4,88.8-0.6,133.2c-4.1,1.7-8.9,1.7-13,0
		c6.4-1.3,7.9-9.7,8-16.3c0.9-89,1.7-178.1,2.6-267.1c0.4-36.2,0.7-72.8-6-108.4c-5.1,129.2-7.4,258.6-6.7,387.9
		c-14.6-124.9,0.5-251.4-4.1-377.1c-0.1-4-1.8-9.5-5.9-9c-3.7,123.4-7.3,246.9-11,370.3c-0.1,4.9-0.2,10,2.2,14.3
		c2.4,4.2,8.3,6.9,12.3,4.2c-2.7,5.1-10.9,4-14.5-0.5c-3.6-4.5-3.7-10.7-3.6-16.5c0.1-40.2,0.2-80.4,0.3-120.6c0-3.3-4-4.9-7.3-5.5
		c-19.3-3.5-39.2-3.3-58.4,0.4c-4,0.8-8.2,1.9-11,4.8c-3.6,3.9-3.7,9.9-3.5,15.3c1.1,31.5,2.2,63,3.3,94.5c0.2,7.1-6.1,13-12.9,14.7
		c-6.8,1.8-14.1,0.3-21-1.1c-7.5-1.5-9.2-11.4-8.4-19c0.8-7.6,1.9-16.8-4.2-21.4c-17.8,59-64.4,108.6-122.3,130
		c-20.7,7.7-47.6,10.3-61.7-6.7c-3.7-4.5-7.3-10.7-13.1-10.4c-10.5,0.4-18.4-11.6-16.6-22s10.5-18.3,20.1-22.8
		c9.5-4.5,20.1-6.2,30.2-9.2c35-10.6,63.5-37.3,82.7-68.4s30.2-66.5,39.3-102c5.6-21.6,11.4-44.8,28.3-59.2
		c3.9-3.4,8.8-6.9,8.9-12.1c0.6-55.7,1.1-111.5,1.7-167.2c0.1-5.1,0.1-10.3,2.4-14.8c2.4-4.8,7-8.1,11.3-11.2
		C716,46,766.8,9.8,817.5-26.4c2.2-1.6,4.6-3.2,7.4-3.4c3.4-0.2,6.5,1.9,9.2,4c52.8,39.4,101.1,84.6,143.8,134.7
		c-8.7-4.6-19.9,1.7-24.2,10.5s-3.7,19.1-3.1,28.9c2.5,41.9,2.2,83.9-0.7,125.8C949.2,288,957.4,300.4,965.3,311.6 M674.4,327.8
		c4.2-6.1,3.2-14.7,7.5-20.7c4-5.7,12.6-10.5,9.8-16.9c-1.9-4.4-7.8-4.8-12.5-4.6c-10,0.5-20.2,1-29.5,4.7s-17.7,11.3-19.6,21.1
		c-8.2,41.5-21.5,81.9-39.5,120.1c-7,14.9-14.8,29.6-24.8,42.7c-20.7,27-50.7,46.7-83.8,54.9c-8.8,2.2-18.1,3.7-25.5,8.9
		s-12.1,15.7-7.6,23.5c2.8-8.4,9-15.5,17-19.3c-0.3,5.4-7.7,8.2-8,13.6c-0.2,2.9,1.8,5.3,3.7,7.5c3,3.5,6.2,7.2,10.4,9.1
		c4.2,1.9,9.9,1.6,12.8-2c14.2-17.5,40.8-16.3,61.6-24.9c21.6-8.9,36.9-28.4,49.9-47.9c30.2-45.1,54.2-94.3,71.3-145.8
		c1.2-3.6,1.7-8.8-1.9-10.1c-14.4,3.7-25.3,15.8-31.9,29.1s-9.8,28-14.5,42.1c-20.3,60.2-71.8,108.9-133.1,125.8
		c-4.3,1.2-9,2.2-13,0.3c34.5-13.2,70.1-27.6,94.8-55c32.2-35.7,40.1-87.1,65.9-127.7c3.9-6.1,8.3-12.1,14.6-15.6
		C657.1,335.9,668.8,335.8,674.4,327.8 M781.4,121.9c-30.9-5.6-61.8-11.2-92.6-16.8c-3.1-0.6-7-0.9-8.9,1.7c-1,1.3-1.1,3-1.2,4.6
		c-2.6,36.1-2.7,72.3-0.1,108.4c0.1,1.5,0.3,3.2,1.2,4.4c1.6,1.9,4.5,1.9,7,1.7c27.7-2.4,55.3-5.9,82.7-10.4
		c4.8-0.8,10.1-1.9,12.7-6c1.9-2.9,1.8-6.7,1.7-10.2C783,173.6,782.2,147.8,781.4,121.9 M828.1-16.7C820,24.8,815.4,67,814.5,109.2
		c34.2-1,68.3-1.9,102.5-2.9c14.6-0.4,29.5-0.8,43.5-4.9c-25.8-21.5-51.8-43.2-74.9-67.6C868,15.2,851.3-5.7,828.1-16.7
		 M628.3,458.7c-18.2,36.1-39.2,74.8-76.2,91c-21.3,9.3-46.8,10.6-63.9,26.4c-2.9,2.7-5.6,7.3-3.1,10.3c1.7,2.1,5,2.1,7.7,1.8
		c54.3-5.4,105.2-38.6,131.9-86.3c6.1-10.9,11-22.5,16-34c12.3-28.3,25.4-56.2,39.3-83.8c8.8-17.4,31.2-21.7,50.5-24
		c5.7-0.7,7.2-8.2,7.2-13.9c0-14.2,0-28.4,0-42.5c0-1.6-0.1-3.6-1.5-4.5c-0.9-0.6-2-0.7-3.1-0.7c-10.3-0.1-20.9-0.1-30.6,3.3
		c-9.7,3.4-18.6,11.1-20.6,21.2C672.5,370.9,650.3,415.1,628.3,458.7 M835.7,125.9c-0.6,35.1,0.2,70.3,2.6,105.3
		c23.4-0.6,46.8-2.7,70-6.2c3.2-0.5,4-4.8,4-8c-0.3-33-0.5-66-0.8-99c-8.6-1.3-17.3-1.5-26-0.6c-9.2,0.9-18.4,3.1-27.5,1.8
		c-4.4-0.6-8.8-2-13.2-1.5C840.4,118.3,835.8,121.5,835.7,125.9 M780.7,107.3c8.8-35.2,17.5-70.4,26.3-105.6
		c-45,31.9-91.1,62.1-138.2,90.7c35.3,6.2,70.7,12.4,106,18.5c1.5,0.3,3.1,0.5,4.3-0.4C780,109.8,780.4,108.5,780.7,107.3
		 M943.8,148.1c-0.5-11.3-1.6-22.6-3.4-33.8c-1.3,120.6-5,241.1-11.2,361.5c-0.2,4.8,7.3,6.4,10.7,3s3.6-8.7,3.6-13.5
		c-0.1-13.4-0.2-26.8-0.3-40.3c-0.6-79.6-1.2-159.1,0.5-238.7C943.9,173.7,944.3,160.9,943.8,148.1 M820.6,319.9
		c0,2.3,0.2,5.2,2.3,6.1c1,0.4,2.1,0.3,3.2,0.2c30.9-3.5,61.8-6.9,92.7-10.4c3.1-0.3,6.6-0.9,8.4-3.4c1.2-1.7,1.4-3.8,1.6-5.8
		c1.6-19.8,2.2-39.8,1.8-59.7c-0.1-3.2-1.4-7.6-4.6-7c-33.1,5.6-66.6,8.8-100.2,9.6c-3.2,0.1-4.2,4.3-4.2,7.5
		C821.3,278,821,298.9,820.6,319.9 M661.3,229.6c2.5,2.3,6.9,0.7,8.6-2.3c1.7-3,1.5-6.6,1.3-9.9c-2.1-33.4-1.8-66.9,0.9-100.3
		c0.3-4,0.6-8.3-1.4-11.8s-7.3-5.3-10.1-2.4c-1.8,1.8-1.9,4.6-1.8,7.2c0.2,37.7,0.5,75.3,0.7,113C659.5,225.4,659.6,228,661.3,229.6
		 M682.9,490.4c0.9,0.6,2,0.8,3.1,0.9c4.2,0.3,8.8-2.7,8.7-6.9c-0.7-32.1-1.5-64.2-2.2-96.3c0-0.6-0.1-1.2-0.5-1.7
		c-0.8-0.8-2.2,0-3,0.9c-6.8,7.3-10.6,17.3-10.4,27.3c0.4,22.4,0.8,44.8,1.2,67.2C679.8,485,680.1,488.8,682.9,490.4 M1007.3,420.4
		c3.1-4.9,3.2-11.2,1.6-16.7c-1.6-5.5-4.8-10.4-8-15.2c-13.9-20.9-28.5-41.1-43.9-60.7c-1-1.3-2.3-2.7-3.9-2.7
		c-3,6.2-2.3,13.7,0.2,20.1s6.7,12,10.8,17.5C978.5,382,992.9,401.2,1007.3,420.4 M926.6,355.8c0.1-2.1,0-4.6-1.6-5.9
		c-2-1.7-5.4-0.5-6.9,1.7s-1.6,5-1.7,7.7c-1.1,37.3-2.2,74.7-3.3,112c-0.1,3.4-0.1,7.3,2.3,9.8c2.4,2.5,7.8,1.7,7.9-1.8
		C924.4,438.1,925.5,396.9,926.6,355.8 M928.9,228.8c1.8-1.5,2-4.1,2-6.4c1.1-32.8,1.1-65.6,0-98.5c-0.1-3-0.5-6.4-3.1-7.9
		c-2.6-1.4-6,0.3-7.5,2.8c-1.5,2.6-1.5,5.7-1.5,8.6c0.2,29.6,3.4,59.2,0.7,88.7c-0.3,3.4-0.6,7,0.9,10
		C922,229.2,926.3,231,928.9,228.8 M820.7,358.3c1.5,1.4,3.9,1.2,6,0.9c28.8-4.6,57.5-9.3,86.3-13.9c3.7-0.6,7.7-1.4,10-4.4
		s0.7-8.6-3-8.4c-32.6,1.8-64.1,15.6-96.7,14.5c-2.2-0.1-3.3,2.7-3.6,4.9C819.3,354.2,819.1,356.8,820.7,358.3 M783,255.9
		c-10.1-4.7-21.4-6.6-32.4-5.4c-1.5,0.2-3.2,0.5-4,1.8c-0.5,0.8-0.6,1.9-0.6,2.9c-0.4,32.5-0.7,65-1.1,97.5c0,3.8,4.8,5.5,8.6,6
		c7.3,1,14.6,2,21.9,3c3.7-2.1,1.6-8.3-2.3-10s-8.4-0.7-12.6-0.9c-4.2-0.2-9.2-2.7-9.2-6.9c-0.3-25.1-0.6-50.2-0.9-75.3
		c0-2.6,0-5.4,1.4-7.5c1.8-2.8,5.5-3.8,8.9-3.7s6.6,1.1,10,1.4C774.8,259.1,779.2,258.1,783,255.9 M774.9,338.1c3.2-1,4-5.2,4.1-8.5
		c0.8-19.6,1.7-39.2,2.5-58.8c0.1-2.8-2.4-5.1-5-5.8c-2.7-0.7-5.5-0.1-8.2,0.4c-0.8,0.2-1.7,0.4-2.3,1c-1,0.9-1,2.4-0.9,3.7
		c0.8,19.2,1.6,38.4,2.3,57.6c0.1,2.5,0.2,5.1,1.4,7.3S772.5,338.8,774.9,338.1 M699.8,265.7c0.1,2.5,0.6,5.6,3,6.4
		c1,0.3,2.1,0.2,3.2,0c8-1.4,16-2.9,24-4.3c2.3-0.4,4.8-1,6-2.9c1-1.6,0.9-3.6,0.8-5.4c-0.2-2.6-0.3-5.2-0.5-7.8
		c-0.1-2-0.4-4.3-1.9-5.7c-1.8-1.7-4.7-1.4-7.1-0.9c-5.5,1-11.1,2-16.6,3c-2,0.4-4.1,0.7-5.9,1.8
		C699.9,252.9,699.6,259.8,699.8,265.7 M697.2,233.5c2.8,2.4,4.2,6.3,3.6,9.9c17.5-3.3,34.9-6.6,52.4-9.8c3-0.6,6-1.1,9.1-1.1
		c4.1,0.1,8.4,1.3,12.3-0.1c3.9-1.4,6.3-7.2,2.9-9.6c-1.6-1.1-3.7-0.9-5.6-0.6c-22.3,2.9-44.5,5.8-66.8,8.7
		C702.3,231.2,699.3,231.6,697.2,233.5 M675.4,490.8c0.3-1.1,0.3-2.2,0.2-3.3c-0.8-19.8-1.6-39.6-2.4-59.4c-0.1-1.6-0.7-3.7-2.2-3.6
		c-8.1,6.8-8.3,18.9-7.9,29.4c0.4,10.4,0.8,20.8,1.2,31.2c0.1,3.1,0.5,6.7,2.9,8.5C669.9,495.5,674.4,494,675.4,490.8 M823.7,120.9
		c-0.6,0.9-1.6,1.5-2.7,1.7c0.3,34.5,0.5,69,0.8,103.5c0,2.4,0.1,5,1.7,6.8c1.6,1.8,5.2,1.7,5.8-0.6c-1.2-36.7-2.4-73.3-3.6-110
		C824.9,121.8,824.3,121.3,823.7,120.9 M900.4,327.3c-2-2.4-5.8-2.1-8.9-1.7c-13,1.8-26,3.2-39,4.6c-2.1,0.2-4.2,0.5-6.4,0.7
		c-6.8,0.7-13.7,1.5-20.4,2.8c-2.4,0.5-5.3,1.6-5.5,4c-0.2,3.3,4.4,4.1,7.7,3.7C852.4,338.6,876.6,333.8,900.4,327.3 M990.3,430.6
		c0.5-5.8-4.2-11.5-10-12.1c-8.5-0.8-17.2-1-25.7-0.7c-0.9,0-1.8,0.1-2.4,0.6c-1.3,1-1,3.2,0.2,4.3s2.9,1.5,4.5,1.8
		C968,426.6,979.1,428.6,990.3,430.6 M761.6,332.4c-0.5-13.8-1-27.7-1.4-41.5c-0.2-5.4-0.4-10.9-0.6-16.3c-0.1-2.6-0.2-5.2-0.3-7.8
		c0-0.5,0-1-0.4-1.4c-0.6-0.8-1.9-0.4-2.5,0.4c-0.5,0.8-0.6,1.8-0.5,2.8c0.4,22.1,0.7,44.2,1.1,66.3c0,2.3,0.8,5.3,3,5.3
		C761.7,338,761.7,335,761.6,332.4 M693.1,273.3c0.3-8.8,0.5-17.5,0.8-26.3c0-1.1,0.1-2.1-0.3-3.1c-0.6-1.5-2.4-2.5-4-2.2
		c-3.4,0.6-4.2,5.1-4.2,8.5c0,6.9,0,13.7,0.1,20.6c0,1.9,0,4,1,5.6c1,1.7,3.3,2.7,4.9,1.7C692.8,277.2,693,275.1,693.1,273.3
		 M804.3,62.2c-4,14.4-8,28.7-12,43.1c-1,3.4-1.1,8.3,2.3,9.2c1.9,0.5,3.8-0.7,4.8-2.3s1.3-3.6,1.5-5.5
		C802.6,91.9,804.3,77,804.3,62.2 M700.3,294.1c11.1-1.8,22.2-3.8,33.2-6.2c2.3-0.5,5.1-2.7,3.6-4.4c-7.4-3.3-15.8,0.8-23.9,1.2
		c-3.4,0.2-7.1-0.3-10.2,1.1C699.8,287.2,697.8,291.7,700.3,294.1 M676.7,246.2c-1.8-1.8-4.9-1.1-7.4-1.6c-1.8-0.3-3.4-1.2-5.2-1.7
		c-1.7-0.5-3.8-0.5-5.2,0.6c-1.4,1.2-1.3,3.9,0.4,4.5c1.5,0.5,3-0.8,4.5-1.4c2.8-1.1,6,0.5,7.7,3c1.7,2.4,2.1,5.5,2.3,8.5
		c0.3,4.3,0.2,8.7-0.2,13c-0.2,1.5-0.4,3.1,0.2,4.5s2.3,2.5,3.6,1.8c0.7-8.7,0.9-17.5,0.7-26.3C678.1,249.4,678,247.4,676.7,246.2
		 M958.2,400.6c3,0.4,6.1,0.6,9.1,0.6c0.9,0,1.9,0,2.7-0.6c2.2-1.5,0.4-5-1.5-6.8c-3.1-2.8-7-5.4-11.1-4.8c-4.1,0.6-7.4,6-4.7,9.1
		C954,399.9,956.2,400.3,958.2,400.6 M884.5,362.9c5.3,3.4,11.9,4.8,18.2,3.6c2.4-0.5,5.4-2.5,4.3-4.7c-0.5-0.9-1.5-1.3-2.4-1.7
		c-5.8-2.1-12.4-2.1-18.3,0C885.7,361,885.1,361.9,884.5,362.9 M953.8,434.9c9.4,2.8,19.3,4.3,29.1,4.3c0.9,0,1.8-0.5,2.2-1.4
		c-9.9-3.7-20.4-5.6-31-5.8C954.1,433,954,433.9,953.8,434.9 M900.1,383.6c-1.2,0-2.3,0.1-3.5,0.1c-1.5,0-3.2,0.2-4,1.4
		c0.7,2.8,2.1,5.5,4.5,7c2.4,1.6,5.8,1.7,8-0.2s2.3-5.8-0.1-7.4C903.6,383.6,901.8,383.6,900.1,383.6 M903.4,373
		c-3.6-0.1-7.3-0.2-10.9-0.4c-0.9,0-2,0-2.6,0.7c-1.3,1.7,1.6,3.4,3.7,3.6c2.6,0.2,5.2,0.4,7.7,0.7c1.3,0.1,2.7,0.2,3.8-0.4
		s1.9-2.2,1.1-3.2C905.7,373.1,904.5,373,903.4,373 M950.9,307.7c1.5,3.8,4.1,7.1,7.5,9.3C959.6,312.6,955.6,307.6,950.9,307.7
		 M678.4,238.9c0.8,1.8,3.7-0.5,2.9-2.3c-1.9-1.7-5.2-1.5-6.9,0.4c0.1,1.6,2.1,2.7,3.6,2.1 M899.8,401.9c1.7,1.5,4.9,0.5,5.3-1.7
		c-1.9-1.3-4.5-1.6-6.7-0.9c-0.6,1,0.1,2.5,1.2,2.7 M904.6,411c-1.2,0-2.4-0.1-3.5-0.1c-0.4,0.8-0.5,1.7-0.3,2.6
		c0.9,0.4,1.7,0.9,2.6,1.3c1.1-0.7,1.6-2.2,1.2-3.5 M958.1,381.3c0-1.7-2.6-1.6-4.1-1c0.6,0.9,1.1,1.8,1.7,2.7
		C956.5,382.4,957.3,381.9,958.1,381.3 M896.5,236.1c0.1-1.1-1.3-1.8-2.3-1.4c-1,0.3-1.7,1.3-2.3,2.1c1.4,0.8,3.3,0.5,4.4-0.7
		 M994,418.3c0.1,1,0.8,2,1.8,2.3c0.3-1.1,0.5-2.6-0.4-3.3s-2.6,1-1.5,1.4 M902.3,423.4c-0.3,1,1.4,1.7,1.9,0.8
		C904.8,423.4,903,422.7,902.3,423.4L902.3,423.4z"/>
	<path class="st1" d="M832.1,258.6c1.1-1.1,2.7-1.5,4.2-1.9c14.6-3.7,29.7-4.2,44.8-4.7c12.3-0.4,24.7-0.9,37-1.3
		c4.5-0.2,5.9,6.1,5.8,10.6c-0.5,13.5-0.9,26.9-1.4,40.4c-0.1,2.8-0.3,5.9-2,8.1c-2.3,2.8-6.3,3.3-9.8,3.5
		c-23.6,1.7-47.1,3.4-70.7,5.1c-2.4,0.2-5.2,0.2-7-1.5c-1.6-1.5-1.7-4-1.7-6.2c-0.3-14.9-0.6-29.9-1-44.8
		C830.1,263.3,830.2,260.4,832.1,258.6 M842,274c-0.1,4.7-0.3,9.5,1,14s4.4,8.8,8.8,10.3c2.7,0.9,5.7,0.8,8.5,0.7
		c12-0.6,24.1-1.2,36.1-1.9c2.1-0.1,4.4-0.3,5.8-1.9c1.3-1.5,1.4-3.7,1.3-5.7c-0.2-7.9-0.4-15.7-0.6-23.6c0-1.2-0.1-2.4-0.7-3.5
		c-1.3-2.2-4.2-2.4-6.7-2.4c-15.7,0-31.4,0.7-47,2.1C843.6,262.6,842.1,269,842,274 M910.5,295.1c0,1.1,0.1,2.4,1.1,3
		c1.9,1.2,3.6-1.8,3.8-4.1c0.9-9.1,1.3-18.2,1.1-27.3c0-1.7-0.1-3.4-1-4.8s-3-2.2-4.3-1.2c-1.1,0.9-1.2,2.5-1.2,3.9
		C910.2,274.8,910.4,284.9,910.5,295.1 M880.5,304c-1,0-2.2,0-3,0.6c-0.6,0.5-0.9,1.3-0.8,2.1c5.6,2.5,12.6,1.6,17.3-2.4
		C889.6,304.2,885,304.1,880.5,304 M865.1,305c-1.5,0.8-3.1,1.6-4.6,2.5c3,2.5,8.1,2,10.5-1.1c-1.6-1.3-3.8-1.9-5.8-1.5L865.1,305z"
		/>
</g>
</svg>
