<?xml version="1.0" encoding="utf-8"?>
<!-- Generator: Adobe Illustrator 18.1.1, SVG Export Plug-In . SVG Version: 6.00 Build 0)  -->
<svg version="1.1" id="Layer_1" xmlns="http://www.w3.org/2000/svg" xmlns:xlink="http://www.w3.org/1999/xlink" x="0px" y="0px"
	 viewBox="0 0 595.3 841.9" enable-background="new 0 0 595.3 841.9" xml:space="preserve">
<g>
	<g>
		<path fill="#FFFFFF" d="M579.8,32.9c5.4,0,10.8,0,16.4,0c0,6.4,0,12.8,0,19.2c-1-0.1-1.8,0-2.4,1c-0.3,0.5-0.8,1.1-1.3,1.4
			c-2.5,1.4-5,3-7.6,4.2c-3.1,1.4-5.7,3.2-7.3,6.3c-1.3,2.4-2.8,4.7-3.6,7.3c-0.7,2.4-1.7,4.5-3,6.6c-0.9,1.3-1.7,2.7-2.2,4.2
			c-0.5,1.8-1.5,3.2-2.7,4.5c-1.7,1.8-3.6,3.4-4.8,5.5c-4.1,6.9-10.6,10.4-17.9,12.8c-5.3,1.7-10.8,3.1-16,5.2
			c-5.3,2.2-10.5,4.7-15.2,7.8c-6,4-11,9.1-14,15.8c-0.7,1.6-2.1,2.8-3.3,4.1c-1.5,1.6-3.1,3-4.6,4.5c-1.4,1.5-2.7,3.1-4.2,4.6
			c-2,1.9-3.1,1.8-5-0.1c-1.7-1.7-3.3-3.3-5.1-4.9c-2.4-2.1-6-1.9-8,0.5c-0.8,0.9-1.5,2.1-0.8,3.4c1.8,3.1,2.7,6.8,5.5,9.4
			c0.8,0.8,1.4,2.4,1.3,3.6c-0.4,3.3-0.1,6.6,0.2,9.8c0.2,3,0.3,6,0.4,9c0,0.4-0.1,0.7-0.1,1.1c-0.1,3.9-1.3,7.8-0.6,11.8
			c0.1,0.5-0.2,1.1-0.4,1.6c-1.5,3.7-2.6,7.4-3.1,11.4c-0.1,1.1-0.3,2.3-0.7,3.3c-2.5,5.8-3.8,12.1-7.5,17.5
			c-2.4,3.6-3.9,7.9-6.8,11.2c-1.5,1.8-2.8,3.8-4.3,5.5c-3.1,3.4-6.3,6.6-10.2,9.2c-5,3.3-9.5,7.3-15.4,9.2
			c-1.6,0.5-2.7,1.7-3.4,3.5c-0.9,2.6-3.1,4.4-5.7,5.3c-2.1,0.7-2.3,0.6-3.3-1.6c-0.8-1.7-1.5-2.1-3.3-1.7c-1.4,0.4-2.9,0.9-4.2,1.6
			c-1.9,1-3.6,2.4-5.5,3.4c-2.1,1.1-4.1,1.9-5.2,4.3c-0.6,1.3-2.1,2.1-3.2,3.1c-0.6,0.6-1.5,0.9-2,1.6c-2.7,3.4-5.4,6.7-7.8,10.3
			c-0.8,1.2-1.3,2.8-1.3,4.2c-0.1,2.3,0.3,4.6,0.4,7c0,1.5-0.1,3-0.3,4.5c-0.2,1.8-1.2,2.8-3.1,3.1c-2.4,0.4-2.4,0.4-2.5,2.8
			c-0.1,3,0,6-0.1,9c-0.1,2-0.5,4-0.8,6.4c0.5,1,1.5,2.3,2,3.8c1.1,3.6,2,7.2,3,10.9c0.2,0.6,0.2,1.3,0.2,2
			c0.2,3.9,0.4,7.9,0.7,11.8c0.3,3.7-0.2,7.3-1,10.8c-0.5,2.3-1.1,4.6-1.6,6.9c-1.5,8-3.2,15.8-7,23.1c-0.5,1-0.9,2.1-1.4,3
			c-1.1,1.9-2.2,3.7-3.4,5.5c-2.1,3.2-3.8,6.8-6.3,9.6c-3.2,3.6-7,6.9-10.7,9.9c-2.4,1.9-5.4,3.1-7.9,4.9c-5.1,3.7-10.9,5.7-16.6,8
			c-2.2,0.9-4.5,1.9-6.8,2.6c-3.4,1-6.9,1.7-10,3.5c-0.4,0.2-0.9,0.3-1.4,0.4c-5.8,1.4-11.6,1.6-17.5,1.1c-2.2-0.2-3.3-1.4-4.1-3.3
			c-0.6-1.4-1.1-2.8-1.7-4.1c-1.6-3.3-7.1-4.4-9.9-1.9c-0.8,0.7-1.5,1.3-2.4,2c0.1,1,0.5,2.2,0.2,3.2c-0.5,1.8,0.1,3.3,0.7,4.9
			c0.5,1.3,1.2,2.6,1.2,4c0.2,8.3,0.3,16.5-3.2,24.3c-1.5,3.3-2.6,6.8-4.2,10.1c-2.8,5.8-7,10.4-11.6,14.7c-1.3,1.2-2.8,2.2-4.4,3
			c-2.5,1.3-5.3,2.1-7.6,3.5c-3.9,2.5-8.6,2.7-12.6,4.7c-0.6,0.3-1.3,0.2-1.9,0.2c-3.7,0.1-7.4-0.2-11,0.2c-6.9,0.8-13.7,2.5-20.2,5
			c-2.4,0.9-5,1.9-7,3.5c-3.1,2.4-5.8,5.3-8.5,8.2c-1.4,1.5-2.2,3.5-3.5,5.1c-2.5,2.9-3.7,6.2-4.7,9.8c-0.3,1.2-0.9,2.4-1.3,3.6
			c-0.2,0.4-0.3,0.9-0.4,1.3c-0.9,4.7-1.5,9.5-2.7,14.1c-0.6,2.4-0.3,4.6,0.1,6.8c0.6,2.7,3.4,4.3,5.1,2.7c1.7-1.5,3.4-3.3,4.4-5.4
			c1.3-2.6,2.1-5.4,2.9-8.2c1.2-4.3,2.5-8.6,4.6-12.5c1.2-2.2,1.9-4.7,3.1-6.9c3.2-6.2,7.8-11,14.7-13.1c1.7-0.5,3.5-0.7,5.2-1.2
			c4.8-1.4,9.7-1.9,14.7-2c3,0,6-0.2,9-0.7c4.8-0.8,9.7-1.2,13.9-4.1c0.2-0.2,0.5-0.2,0.8-0.3c4.1-1.3,8.2-2.8,11.7-5.2
			c3.9-2.7,7.6-5.8,11.2-9c3.4-3,5.8-6.9,8.1-10.7c0.8-1.3,1.8-2.6,2.4-4.1c1.4-3.3,2.7-6.6,4-9.9c0.5-1.2,0.9-2.5,1.1-3.7
			c0.4-2.1,0.4-4.3,0.9-6.4c0.8-3.1,1.9-6.1,1.8-9.3c0-0.8,0.3-1.6,0.5-2.7c2.6,0.4,5,0.8,7.3,1.2c1,0.2,2,0.5,3,0.5
			c8.4,0,16.6-1.3,24.4-4.8c0.8-0.3,1.6-0.5,2.4-0.7c5-1.7,10-3.2,14.8-5.2c4.2-1.8,8.2-4.1,12.3-6.2c1.2-0.7,2.1-2.1,3.4-2.4
			c2.4-0.5,3.9-2.1,5.6-3.6c3.1-2.8,6.2-5.5,9.2-8.3c1.6-1.5,3.1-3.3,4.4-5.1c1.8-2.5,3.4-5.1,5.1-7.7c1.5-2.5,3.3-4.9,4.4-7.5
			c1.6-3.6,2.6-7.4,4.9-10.7c0.3-0.4,0.6-0.8,0.6-1.3c0-2.5,0.7-4.8,1.2-7.1c1.1-4.7,2.1-9.5,3.2-14.2c0.4-1.7,1.1-3.4,1.3-5.2
			c0.4-6.1,0.4-12.1-0.3-18.2c-0.7-5.2-2.6-10.2-1.4-15.6c0-0.1,0-0.2,0-0.3c-1.5-2.7-0.5-5.7-1.4-8.5c-0.3-1-0.3-2.1-0.2-3.1
			c0.3-3.8,0.6-7.7,1.2-11.5c1.3-7.8,4.4-14.8,10-20.6c3.7-3.8,7.9-7,12.3-9.8c1.8-1.1,3.8-1.9,5.6-3.2c2.5-1.7,5.2-2.8,8-3.9
			c3.5-1.4,7-2.8,9.6-5.7c3.6-4.1,7.9-7.4,12.5-10.4c2.2-1.4,4.2-3.1,6.2-4.9c6.5-6.1,11.6-13.3,16.2-20.8c1.1-1.8,2-3.6,2.8-5.5
			c1.2-2.8,2.3-5.7,3.4-8.6c1.1-2.9,2.5-5.7,3.3-8.7c1.3-4.6,2.7-9.2,3.3-13.9c0.7-5.2,0.8-10.5,1-15.7c0.1-5.3,0-10.7-0.1-16
			c0-1.3,0.6-2.1,1.6-2.8c2.3-1.6,4.8-3.1,6.7-5.1c3.5-3.4,6.7-7.1,10-10.7c1.8-2,3.7-4.1,5.1-6.3c3.1-4.7,6.7-8.7,11.4-11.8
			c1.4-0.9,2.9-1.7,4.3-2.6c3.4-2.1,6.9-3.8,10.8-4.6c1.1-0.2,2.2-0.6,3.2-1c4.7-1.6,9.4-3.1,14.1-4.9c3.1-1.2,6.2-2.3,8.9-4.1
			c3.1-2.1,5.8-4.7,8.6-7.3c1.3-1.2,2.2-2.8,3.1-4.3c1.7-2.6,3.4-5.1,5-7.8c1.5-2.6,3.2-5.1,4.1-7.9c0.8-2.3,1.5-4.6,2.3-6.9
			c1.6-4.9,4.7-8.2,9.3-10.3c0,259.5,0,519,0,778.5c-140,0-280,0-420,0c-0.4-3.4-0.8-6.9-1.2-10.3c-0.1-0.6,0.1-1.3,0.1-2
			c0.1-1.1,0.3-2.2,0.3-3.3c-0.1-2.9-0.4-5.8-0.4-8.7c0-2.2,0.5-4.5,0.5-6.7c0-10.9-0.1-21.8,0.1-32.7c0.1-4.4-0.7-8.8,0.7-13.2
			c0.1-0.3,0.1-0.7,0-1.1c-0.2-2.7-0.5-5.4-0.7-8.1c-0.1-0.6,0-1.3,0.1-2c0.1-1.4,0.4-2.8,0.4-4.2c0-3.6,0-7.1,0-10.7
			c0-19.6,0-39.1,0-58.7c0-0.7,0.1-1.6-0.2-2.2c-1.7-3.4-1.2-7.1-1.5-10.7c-0.3-3.1-0.4-6.2-0.5-9.3c0-0.8,0-1.7,0-2.5
			c0.1-2.4,0.4-4.9,0.5-7.3c0.1-2.1-0.2-4.2,0.1-6.2c0.8-6.7,0.7-13.3,0-19.9c-0.1-1.1-0.3-2.2-0.3-3.4c0.1-8.5,0.1-16.9,0.3-25.4
			c0-1.6-0.7-2.6-1.7-3.7c-1.2-1.3-2.9-1.7-4.5-2.2c-3.2-1.2-6.3-2.3-9.5-3.3c-0.4-0.1-0.9,0-1.3,0.2c-2.6,1-5.2,0.3-7.7-0.5
			c-1.4-0.5-2.5-0.7-3.8-0.2c-1,0.4-1.9,0.5-3,0.4c-1.5-0.1-3,0.2-4,1.5c-1.6,2.1-3.1,4.2-4.8,6.4c0.2,0.8,1.9,1.5,0.9,2.7
			c-1.5,1.8-1.4,4-2.2,6c-1.1,2.7-2.3,5.4-3,8.2c-1.5,5.9-2.7,11.9-4.1,17.8c-1.8,7.2-3.7,14.3-5.5,21.5c-1.4,5.7-2.6,11.3-3.8,17
			c-0.9,4-1.4,8.1-2.4,12.1c-2.2,9-4.7,17.9-7,26.9c-0.6,2.2-0.7,4.4-1.2,6.6c-1.1,5-2.3,10-3.4,15c-0.8,3.4-1.4,6.8-2.2,10.2
			c-1.2,5.1-2.5,10.1-3.8,15.2c-1.3,5.3-2.5,10.5-3.8,15.8c-1.5,6-3.2,11.9-4.8,17.9c-0.1,0.2-0.4,0.3-0.7,0.6
			c-0.4-4.9-0.8-9.7-1.2-14.4c-0.4-6.1-0.7-12.1-1-18.2c-0.1-2-0.3-4.1-0.5-6.1c-0.2-2.3-0.1-4.7-0.6-6.9c-0.5-2.6-0.9-5.1-0.6-7.8
			c0.3-2.1,0.1-4.3,0.1-6.5c0.1-3.2,0.2-6.3,0.2-9.5c0-2-0.2-4.1-0.3-6.1c-0.2-2.4-0.6-4.9-0.4-7.3c0.2-3.2,0.1-6.3,0.1-9.5
			c-0.2-7.2,0.4-14.4-0.2-21.6c-0.2-3-0.4-6-0.4-9c0-4.9,0.3-9.7,0.4-14.6c0-1.8,0-3.6,0-5.3c-0.1-2.8-0.3-5.5-0.3-8.3
			c0.1-5.6,0.4-11.2,0.6-16.8c0.1-2.2-0.1-4.5-0.1-6.8c0-10.3,0-20.7,0-31c0-6.8,0.1-13.7,0.2-20.5c0-4.5,0-9,0-13.5
			c0-2.3-0.3-4.7-0.3-7c0-3.8,0.3-7.5,0.1-11.3c-0.2-5.5-0.6-11-0.9-16.6c-0.2-3.3-0.8-6.5-0.8-9.8c0.2-5.4-0.2-10.9,1.2-16.3
			c0.3-1.1-0.5-2.5-1-3.7c-1.4-2.9-3-5.7-4.5-8.4c-0.8,0.2-1.6,0.5-2.4,0.5c-2.2-0.1-4.4-0.4-6.7-0.5c-0.7,0-1.5,0.3-2.2,0.4
			c-1,0.2-2,0.5-3,0.6c-1.7,0.2-3.4,0.4-5,0.5c-1.3,0.1-2.6,0.2-3.9,0.1c-2.1-0.2-4.1-0.6-6.1-0.8c-2.5-0.2-5.1-0.3-7.6-0.1
			c-3.2,0.2-4.4,1.5-5,4.6c-0.1,0.4-0.1,0.9-0.3,1c-1.7,1.2-1.4,2.6-0.7,4.2c0.3,0.6,0.1,1.5-0.1,2.2c-0.7,3.8-1.6,7.5-2.2,11.3
			c-0.9,5.6-1.5,11.3-2.3,17c-0.9,6-2.1,12-3.1,18c-1,6-1.8,12-2.9,18c-1.2,6.4-2.8,12.8-3.2,19.4c-0.3,5-1.8,10-2.3,15
			c-0.7,6.8-1.8,13.5-3.5,20.2c-0.6,2.3-0.8,4.8-1,7.2c-0.4,4.1-1.2,8.1-1.2,12.3c0,3.5-0.9,7-1.4,10.5c-0.8,5.8-1.6,11.5-2.3,17.3
			c-0.8,6.3-1.7,12.7-1.9,19c-0.1,4.5,0,8.9-1.2,13.3c-1.2,4.3-1.4,8.9-2,13.4c-0.6,4.5-1.2,8.9-1.8,13.4c-0.1,0.8,0.1,1.8-1.1,2
			c0-226.7,0-453.5,0-680.2c189.9,0,379.7,0,569.6,0c-0.5,0.5-0.9,1.2-1.6,1.5c-3.2,1.3-6.5,2.4-9.6,3.9c-3.9,1.8-7.5,4.3-10.8,7
			c-3.7,3.1-6.3,6.9-8.9,10.8c-6.4,9.4-15.1,15.8-25.9,19.4c-5.2,1.7-10.7,2.6-16.1,1.6c-4-0.7-7.9-2.1-11.9-3.2
			c-8.5-2.3-17-4.8-25.8-5.8c-8.2-0.9-16.5-1.4-24.7-1.2c-3.7,0-7.3,0.4-11,0.6c-4.7,0.3-9.3,1.2-13.8,2.7c-5.9,1.9-11.6,4.3-17.1,7
			c-4.8,2.3-9.6,4.8-13.7,8.4c-1.5,1.3-2.9,2.7-4.5,3.8c-3.3,2.3-6.4,4.9-8.9,8.2c-1.8,2.3-3.6,4.5-5.4,6.9c-1.5,2-3.2,4-4.3,6.2
			c-1.4,2.7-3.1,5.1-5,7.4c-0.7,0.8-1.5,1.5-2.1,2.3c-4.8,6.9-10.7,12.8-16.3,18.9c-3.7,4-7.7,7.6-12.2,10.8
			c-2.2,1.6-4.3,3.4-6.6,4.7c-3.5,2-7.2,3.6-10.7,5.6c-4,2.2-8.2,3.1-12.7,3.4c-4,0.2-7.7-1.3-11.6-2.1c-3.3-0.7-6.5-2-10-1.4
			c-1.6,0.3-2.9,0.1-4.3-0.7c-4.9-2.9-10.2-4.8-15.6-6.4c-2.9-0.9-5.9-1.3-8.8-1.9c-6.1-1.2-12.1-1.3-18.2,0.1
			c-0.5,0.1-0.9,0.2-1.4,0.2c-4.7,0.4-9.4,0.5-13.5,3.2c-0.5,0.3-1,0.5-1.6,0.6c-3.1,0.6-6.1,1.2-8.2,3.7c-0.1,0.1-0.2,0.1-0.2,0.1
			c-2.3,1.1-4.6,2.1-6.8,3.4c-1.9,1.1-3.8,2.4-5.4,4c-4.7,4.8-9.4,9.7-13.7,14.9c-3.3,3.9-6.1,8.1-9,12.2c-1.2,1.8-2,3.8-2.9,5.8
			c-1.6,3.4-3.3,6.8-4.5,10.3c-1.6,4.6-2.5,9.4-4.1,14c-1.4,3.9-2.1,8-2.8,12.1c-0.1,0.7-0.3,1.5-0.6,2.2c-1.1,2.4-2.1,4.8-3.3,7.1
			c-0.7,1.4-1.6,2.7-2.2,3.7c-1.9-0.2-3.4-0.3-4.8-0.4c-5.3-0.4-10.7-0.9-16-0.2c-3.9,0.5-8,0.6-11.7,1.8c-6,2-12,4.5-17.7,7.1
			c-7.6,3.5-14.7,8.1-20.6,14.1c-8,8.1-15.6,16.6-20.8,26.9c-0.9,1.8-1.9,3.6-2.8,5.5c-0.9,2-1.6,4-2.4,6c-0.7,1.9-2,4.1-1.7,5.9
			c0.4,2.4-1.1,4-1.4,6c0,0.1,0,0.2,0,0.3c0,2.5-0.2,5.1,0,7.6c0.4,6.3,2.7,12.1,4.9,17.9c1.4,3.6,1.8,7.2,1.9,11
			c0,0.9,0,1.9,0.3,2.8c1.3,4.2,0.2,7.6-3,10.7c-4.4,4.1-8.6,8.4-12.8,12.7c-1.2,1.3-2.4,2.7-3.1,4.3c-2,4.5-3.8,9-5.5,13.6
			c-2.7,7.4-2.7,15-0.1,22.4c2.9,8.3,6.9,16.2,10.9,24.1c0.9,1.8,1.9,3.7,3,5.4c2.6,3.8,3.7,8,3.2,12.5c-0.2,1.6,0.3,2.9,1.5,3.7
			c1.3,1,2.7,2.5,4.4,1.9c1.7-0.6,3.4-1.5,4.6-3.1c1.7-2.2,2.4-4.7,2.4-7.4c0-2.3-0.2-4.7-0.6-7c-0.4-2.4-0.6-4.9-1.7-7.1
			c-2.4-4.9-4.9-9.7-7.9-14.2c-3.8-5.7-7.1-11.5-8.1-18.3c-0.5-3.3-0.3-6.8,0-10.1c0.5-4,2.5-7.6,4.2-11.3c0.6-1.4,1.7-2.7,2.8-3.8
			c5.2-5.4,10.5-10.8,15.9-16c3-2.9,4.3-6.5,5.9-10.1c0.4-0.8,0-2-0.1-3c-0.2-1.3-0.5-2.5-0.8-3.8c-0.4-2.2-0.7-4.4-1-6.6
			c-0.2-1.1-0.4-2.2-0.6-3.3c-0.3-1.7-0.5-3.5-1.1-5.2c-0.9-2.9-2-5.7-3-8.5c-1.4-3.8-2.2-7.7-2.2-11.8c0-3.1,0.4-6.1,1-9.2
			c0.7-3.6,2.1-6.9,3.7-10c2.1-4.1,4.4-8.3,7.5-11.8c1.2-1.3,1.9-3,3.9-3.5c0.5-0.1,1-0.8,1.4-1.3c1.5-2.1,3-4.2,4.5-6.4
			c0.2-0.3,0.5-0.6,0.8-0.7c1-0.3,1.4-1.1,1.9-1.9c0.5-0.8,1.1-1.6,1.9-2c3-1.9,5.4-4.7,8.9-5.8c1.2-0.4,2.2-1.4,3.4-1.9
			c2-1,4.1-1.9,6.1-2.7c1.7-0.7,3.6-1,5.3-1.7c3.4-1.5,6.8-2.6,10.6-2.3c1.8,0.1,3.5-0.2,5.3-0.4c5.1-0.3,10.1,0,15,1.3
			c3,0.8,5.8,2.1,8.7,3.2c3.1,1.2,6.2,2,9.6,2.1c1.5,0,3-0.3,3.6-1.6c0.8-1.8,1.7-3.9,0.4-5.9c-1.2-1.9-2.5-3.7-3.9-5.5
			c-0.9-1.1-1.6-2.4-0.7-3.6c1.4-1.9,1.8-4,2.3-6.3c0.3-1.3,1.1-2.4,1.6-3.6c0.5-1.1,1.2-2.1,1.5-3.3c0.9-3.2,1.5-6.4,2.3-9.6
			c0.8-3.2,1.5-6.4,2.6-9.5c1.1-3.1,2.7-6,3.9-9c1.9-5,4.7-9.3,7.9-13.5c4.2-5.5,9-10.3,14-15.1c1.6-1.6,3.4-3,5.2-4.2
			c3.4-2.3,7.2-4.1,10.4-6.7c2.7-2.2,5.9-3.2,9-4.3c2.6-0.9,5.4-1.6,8.1-2.2c4.5-0.9,9.1-2.6,13.8-0.6c0.2,0.1,0.4,0,0.6,0.1
			c3.5,0,6.7,1.2,10.1,2.4c3.4,1.2,5.7,3.2,7.3,6.5c1.6,3.1,4.1,5.4,7.8,6c2.8,0.4,5.6,0.6,8.4,0.9c0.4,0,0.7-0.2,1.1-0.3
			c1.4-0.2,2.7-0.4,4.1-0.7c3-0.5,6.1-0.8,9.1-1.6c1.6-0.4,3-0.8,4.7-0.5c0.9,0.2,1.9,0.4,2.8,0.3c3.6-0.3,7.3-0.8,10.9-1.1
			c2.7-0.3,5-1.4,7.4-2.6c2.7-1.4,5.1-3.4,8.1-4.4c4.4-1.4,8.2-4.1,11.7-7.1c1.9-1.6,3.8-3.1,5.6-4.7c3-2.6,6.1-5,8.8-7.8
			c4.1-4.3,7.8-8.9,11.9-13.2c2.1-2.3,4.3-4.4,5.5-7.4c0.4-0.9,1.3-1.6,2-2.4c2-2.5,4.4-4.8,5.7-8c0.9-2,2.4-3.8,3.9-5.5
			c2.7-3.2,5.5-6.4,8.4-9.5c1.6-1.7,3.4-3.4,5.4-4.4c1.8-1,3.2-2.2,4.7-3.5c1.5-1.3,3.1-2.5,4.8-3.4c1.9-1,3.9-1.7,5.9-2.5
			c3.1-1.3,6.2-2.7,9.4-3.7c3.7-1.2,7.2-3.4,11.3-3.2c0.3,0,0.5-0.2,0.8-0.2c2.8-0.4,5.5-1.1,8.3-1.3c3.7-0.2,7.3-0.3,11-0.2
			c5.1,0.2,10.1,0.4,15.2,0.9c3.9,0.3,7.8,0.9,11.7,1.6c2,0.3,4,0.9,6,1.4c1.5,0.4,3.1,0.9,4.6,1.3c4,1.1,8.3,1.5,11.9,3.9
			c0.5,0.3,1.2,0.5,1.8,0.6c1.6,0.4,3.1,0.7,4.7,1c1.4,0.2,2.8,0.2,4.2,0.3c0.8,0.1,1.7,0.1,2.5,0.2c1.4,0.1,2.8,0.3,4.2,0.2
			c3.5-0.4,7.2-0.6,10.6-1.5c4.7-1.2,9.4-2.9,12.8-6.7c0.7-0.8,1.6-1.3,2.4-1.9c2.4-1.7,4.9-3.4,7.3-5.2c0.8-0.6,1.2-1.6,1.8-2.4
			c0.6-0.9,1-2.1,1.8-2.9c2.6-2.7,4.4-6.1,6.6-9c2.3-3.1,4.9-6,7.9-8.3c3.3-2.6,7.2-4.4,10.8-6.5c3-1.7,3.9-1.5,6.6,0.5
			c2.3,1.8,4.9,2.9,7.8,1.9c1.2-0.4,2.2-0.3,3.1,0.6c0.8,0.7,1.6,0.8,2.7-0.1c-0.4-0.6-0.9-1.2-1.1-1.9c-0.3-0.7-0.8-1.7-0.5-2.3
			c0.9-2.5-0.4-4.1-2.1-5.3c-2.1-1.5-4.5-2.7-6.8-4C582.4,34.4,581.1,33.7,579.8,32.9z M156.3,446.8c0.5,1.7,0.9,2.9,1.3,4.1
			c1.5,5,1.1,10,1,15.1c0,2.2-0.5,4.3-1.7,6.2c-0.9,1.4-1.5,3-2.4,4.4c-0.7,1.2-1.5,2.4-2.5,3.3c-4.3,3.6-8.8,7-13.1,10.6
			c-2.6,2.2-5.3,4.3-7.4,6.9c-3.5,4.5-6.7,9.3-9.8,14.1c-3.2,4.9-4.4,10.3-3.4,16.2c1,5.4,2.9,10.5,5.8,15.2
			c4.1,6.6,8.4,13.1,12.4,19.8c1.3,2.2,2.1,4.8,3,7.2c0.6,1.7,0.7,3.5,1.2,5.2c0.4,1.5,1,1.8,2.5,1.2c0.8-0.3,1.3-0.5,2,0.1
			c0.2,0.2,0.7,0.2,1,0c1.4-0.6,3.1-0.8,4-2.4c0.9-1.5,1.7-3.1,2.7-4.6c1.6-2.4,1.3-4.8,0-7.2c-1.3-2.3-2.7-4.5-4.2-6.7
			c-2.5-3.7-5.3-7.3-7.7-11.1c-2.6-4.1-5-8.3-6.9-12.8c-1.5-3.8-1.4-7.5-0.5-11.3c1.3-5.6,5.2-9.8,8.7-13.9
			c3.2-3.7,7.1-6.7,10.9-9.7c3.5-2.7,6.9-5.5,10.3-8.3c4.3-3.6,6.4-8.6,8.7-13.3c2.2-4.4,1.7-9.6,1.7-14.4c0-2.8-1.1-5.7-1.7-8.5
			c-0.9-4.5-2.7-8.8-2.1-13.6c0.1-0.8,0.3-1.7,0.2-2.5c-0.2-1.4-0.2-2.9-0.9-4c-1.2-2-1.3-3.9-0.6-5.9c0.5-1.6,1.4-3.1,2-4.7
			c1.2-3.3,2.2-6.7,3.3-10.1c0.2-0.6,0.4-1.3,0.5-1.9c0.5-2.5,0.7-5,1.4-7.4c0.7-2.6,0-4.6-1.4-6.6c-1.9-2.7-5-3.3-7.6-1.4
			c-1.2,0.9-2.4,1.9-3.1,3.2c-1.3,2.4-2.3,4.9-3.1,7.5c-1.3,3.9-2.1,8-3.5,11.9c-1.4,3.9-3.2,7.6-5,11.3c-1.5,3.1-3.3,6-4.9,9.1
			c-1.5,2.8-3.9,4.8-6,7c-5.5,5.7-12,9.6-19.9,10.8c-3.7,0.5-7.3,0.6-10.6-1.5c-0.9-0.6-2-1-3.1-1.3c-2.8-0.7-5.7-1.2-8.5-2
			c-2.1-0.6-4-0.7-6.1-0.1c-0.9,0.3-1.8,0.4-2.8,0.5c-4.1,0.6-7.9,3.9-8.5,7.9c-0.5,2.8-1.5,5-4.3,5.9c-0.2,2.2-0.4,4.3-0.6,6.4
			c0.2,0.1,0.4,0.1,0.6,0.2c0.6-0.9,1.3-1.9,1.9-2.8c4.1,1.3,4.7,1.3,8.2-1.6c1-0.8,1.8-1.9,2.6-2.9c0.8-0.9,1.5-1.9,2.4-2.8
			c1.1-1,2.2-1.4,3.8-0.9c3.3,0.9,6.5,1.9,9.4,3.7c0.9,0.5,1.9,1,2.8,1.2c5.7,1.5,11.4,1.3,17-0.3c2.4-0.7,4.8-1.6,7.2-2.3
			c1.3-0.4,2.6-0.6,3.8-1.1c6.2-2.7,11.9-6.1,16.4-11.2C154,448.9,155,448.1,156.3,446.8z"/>
		<path d="M0.6,713.2c1.2-0.2,1-1.2,1.1-2c0.6-4.5,1.2-8.9,1.8-13.4c0.6-4.5,0.8-9,2-13.4c1.2-4.5,1.1-8.8,1.2-13.3
			c0.2-6.4,1.2-12.7,1.9-19c0.7-5.8,1.5-11.5,2.3-17.3c0.5-3.5,1.4-7,1.4-10.5c-0.1-4.2,0.8-8.2,1.2-12.3c0.2-2.4,0.4-4.9,1-7.2
			c1.7-6.6,2.8-13.4,3.5-20.2c0.5-5,2-10,2.3-15c0.4-6.6,2-12.9,3.2-19.4c1.1-6,1.9-12,2.9-18c1-6,2.2-12,3.1-18
			c0.9-5.6,1.5-11.3,2.3-17c0.6-3.8,1.5-7.5,2.2-11.3c0.1-0.7,0.3-1.6,0.1-2.2c-0.6-1.6-1-3,0.7-4.2c0.2-0.2,0.3-0.7,0.3-1
			c0.6-3.1,1.8-4.4,5-4.6c2.5-0.2,5.1-0.1,7.6,0.1c2.1,0.1,4.1,0.6,6.1,0.8c1.3,0.1,2.6,0,3.9-0.1c1.7-0.1,3.4-0.3,5-0.5
			c1-0.1,2-0.4,3-0.6c0.7-0.1,1.5-0.5,2.2-0.4c2.2,0.1,4.4,0.4,6.7,0.5c0.8,0,1.6-0.3,2.4-0.5c1.5,2.7,3.1,5.5,4.5,8.4
			c0.6,1.1,1.3,2.6,1,3.7c-1.4,5.4-1,10.8-1.2,16.3c-0.1,3.3,0.5,6.5,0.8,9.8c0.4,5.5,0.8,11,0.9,16.6c0.1,3.7-0.1,7.5-0.1,11.3
			c0,2.3,0.2,4.7,0.3,7c0.1,4.5,0.1,9,0,13.5c0,6.8-0.1,13.7-0.2,20.5c0,10.3,0,20.7,0,31c0,2.3,0.2,4.5,0.1,6.8
			c-0.2,5.6-0.5,11.2-0.6,16.8c-0.1,2.8,0.2,5.5,0.3,8.3c0.1,1.8,0.1,3.6,0,5.3c-0.1,4.9-0.4,9.7-0.4,14.6c0,3,0.2,6,0.4,9
			c0.5,7.2,0,14.4,0.2,21.6c0.1,3.2,0.2,6.3-0.1,9.5c-0.2,2.4,0.3,4.9,0.4,7.3c0.1,2,0.3,4.1,0.3,6.1c0,3.2-0.2,6.3-0.2,9.5
			c0,2.2,0.1,4.3-0.1,6.5c-0.3,2.7,0.1,5.2,0.6,7.8c0.4,2.3,0.4,4.6,0.6,6.9c0.2,2,0.3,4.1,0.5,6.1c0.4,6.1,0.6,12.1,1,18.2
			c0.3,4.8,0.8,9.5,1.2,14.4c0.3-0.3,0.6-0.4,0.7-0.6c1.6-6,3.3-11.9,4.8-17.9c1.3-5.2,2.5-10.5,3.8-15.8c1.2-5.1,2.6-10.1,3.8-15.2
			c0.8-3.4,1.5-6.8,2.2-10.2c1.1-5,2.3-10,3.4-15c0.5-2.2,0.7-4.4,1.2-6.6c2.3-9,4.7-17.9,7-26.9c1-4,1.5-8.1,2.4-12.1
			c1.2-5.7,2.4-11.4,3.8-17c1.8-7.2,3.7-14.3,5.5-21.5c1.4-5.9,2.6-11.9,4.1-17.8c0.7-2.8,1.9-5.5,3-8.2c0.8-2,0.7-4.2,2.2-6
			c1-1.2-0.7-1.9-0.9-2.7c1.7-2.3,3.2-4.4,4.8-6.4c1-1.3,2.5-1.6,4-1.5c1.1,0.1,2,0,3-0.4c1.2-0.5,2.4-0.3,3.8,0.2
			c2.4,0.8,5,1.5,7.7,0.5c0.4-0.2,1-0.3,1.3-0.2c3.2,1.1,6.3,2.2,9.5,3.3c1.6,0.6,3.2,0.9,4.5,2.2c1,1.1,1.7,2.2,1.7,3.7
			c-0.1,8.5-0.2,16.9-0.3,25.4c0,1.1,0.2,2.2,0.3,3.4c0.7,6.6,0.8,13.3,0,19.9c-0.2,2,0,4.1-0.1,6.2c-0.1,2.4-0.3,4.9-0.5,7.3
			c-0.1,0.8-0.1,1.7,0,2.5c0.1,3.1,0.2,6.2,0.5,9.3c0.3,3.6-0.2,7.3,1.5,10.7c0.3,0.6,0.2,1.5,0.2,2.2c0,19.6,0,39.1,0,58.7
			c0,3.6,0.1,7.1,0,10.7c0,1.4-0.3,2.8-0.4,4.2c-0.1,0.7-0.2,1.3-0.1,2c0.2,2.7,0.5,5.4,0.7,8.1c0,0.4,0.1,0.8,0,1.1
			c-1.4,4.3-0.7,8.8-0.7,13.2c-0.2,10.9,0,21.8-0.1,32.7c0,2.2-0.5,4.5-0.5,6.7c0,2.9,0.3,5.8,0.4,8.7c0,1.1-0.2,2.2-0.3,3.3
			c-0.1,0.7-0.2,1.3-0.1,2c0.4,3.4,0.8,6.9,1.2,10.3c-56.5,0-112.9,0-169.4,0c-1.7-2.8-3.3-5.6-5-8.4c-0.2-0.3-0.8-0.5-1.2-0.7
			C0.6,793.3,0.6,753.3,0.6,713.2z M51.1,497.4c2.1-0.2,4.2-0.3,6.4-0.6c0.5-0.1,0.9-0.5,1.4-0.8c-0.1-0.3-0.1-0.6-0.2-1
			c-2.6,1.1-5.2-0.4-7.9,0.5C50.9,496.4,51,496.9,51.1,497.4c-1-0.9-2-1.9-2.9-2.8c-0.4,1.2-0.8,2.4-1.2,3.5
			C48.7,499.4,49.7,497.6,51.1,497.4z M145.8,611.6c0.2,1.7,1.1,1.9,2.2,2c1.6,0.2,3.3,0.4,4.9,0.7c1.1,0.2,2.2,0.4,3.3,0.5
			c0.5,0,1.1-0.5,1.6-0.7c-0.4-0.5-0.8-1.1-1.3-1.6c-0.2-0.2-0.5-0.2-0.8-0.2c-2.9-0.4-5.7-0.7-8.6-1
			C146.8,611.2,146.4,611.4,145.8,611.6z M54.6,520.8c-2.8-1.1-5.6-2.2-8.5-3.3c-0.4,1.1-0.8,2.2-1.3,3.8
			C48.2,521.3,51.3,522.6,54.6,520.8z"/>
		<path d="M579.8,32.9c1.3,0.7,2.6,1.5,3.9,2.2c2.3,1.3,4.7,2.5,6.8,4c1.7,1.2,3,2.8,2.1,5.3c-0.2,0.6,0.2,1.6,0.5,2.3
			c0.3,0.7,0.7,1.2,1.1,1.9c-1,0.9-1.9,0.8-2.7,0.1c-0.9-0.9-1.9-1-3.1-0.6c-3,1-5.5-0.1-7.8-1.9c-2.7-2-3.6-2.2-6.6-0.5
			c-3.7,2.1-7.5,4-10.8,6.5c-3,2.3-5.7,5.3-7.9,8.3c-2.2,3-4,6.3-6.6,9c-0.8,0.8-1.1,1.9-1.8,2.9c-0.5,0.8-1,1.9-1.8,2.4
			c-2.4,1.8-4.9,3.4-7.3,5.2c-0.8,0.6-1.7,1.2-2.4,1.9c-3.5,3.8-8.1,5.5-12.8,6.7c-3.4,0.9-7,1.1-10.6,1.5c-1.4,0.1-2.8-0.1-4.2-0.2
			c-0.8,0-1.7-0.1-2.5-0.2c-1.4-0.1-2.8-0.1-4.2-0.3c-1.6-0.2-3.1-0.6-4.7-1c-0.6-0.1-1.3-0.3-1.8-0.6c-3.6-2.4-7.9-2.8-11.9-3.9
			c-1.5-0.4-3.1-0.9-4.6-1.3c-2-0.5-4-1.1-6-1.4c-3.9-0.6-7.8-1.2-11.7-1.6c-5-0.4-10.1-0.7-15.2-0.9c-3.7-0.1-7.3-0.1-11,0.2
			c-2.8,0.2-5.5,0.8-8.3,1.3c-0.3,0-0.5,0.2-0.8,0.2c-4.1-0.2-7.5,2-11.3,3.2c-3.2,1-6.3,2.4-9.4,3.7c-2,0.8-4,1.5-5.9,2.5
			c-1.7,0.9-3.3,2.1-4.8,3.4c-1.5,1.3-2.9,2.5-4.7,3.5c-2,1.1-3.8,2.8-5.4,4.4c-2.9,3-5.7,6.2-8.4,9.5c-1.4,1.7-3,3.5-3.9,5.5
			c-1.3,3.1-3.7,5.4-5.7,8c-0.6,0.8-1.6,1.5-2,2.4c-1.2,3-3.3,5.1-5.5,7.4c-4.1,4.3-7.8,8.9-11.9,13.2c-2.7,2.8-5.9,5.3-8.8,7.8
			c-1.8,1.6-3.7,3.1-5.6,4.7c-3.5,3-7.2,5.7-11.7,7.1c-3,0.9-5.4,3-8.1,4.4c-2.4,1.2-4.7,2.3-7.4,2.6c-3.6,0.3-7.3,0.8-10.9,1.1
			c-0.9,0.1-1.9-0.1-2.8-0.3c-1.6-0.3-3.1,0.1-4.7,0.5c-3,0.8-6,1.1-9.1,1.6c-1.4,0.2-2.8,0.4-4.1,0.7c-0.4,0.1-0.7,0.3-1.1,0.3
			c-2.8-0.3-5.6-0.4-8.4-0.9c-3.6-0.6-6.2-2.8-7.8-6c-1.6-3.2-3.9-5.2-7.3-6.5c-3.3-1.2-6.5-2.3-10.1-2.4c-0.2,0-0.4,0-0.6-0.1
			c-4.7-2-9.2-0.3-13.8,0.6c-2.7,0.5-5.5,1.2-8.1,2.2c-3.1,1.1-6.3,2.1-9,4.3c-3.2,2.5-6.9,4.4-10.4,6.7c-1.9,1.3-3.6,2.7-5.2,4.2
			c-4.9,4.8-9.8,9.6-14,15.1c-3.2,4.2-6,8.5-7.9,13.5c-1.2,3.1-2.8,5.9-3.9,9c-1.1,3.1-1.8,6.3-2.6,9.5c-0.8,3.2-1.5,6.4-2.3,9.6
			c-0.3,1.1-1,2.2-1.5,3.3c-0.6,1.2-1.4,2.3-1.6,3.6c-0.5,2.2-0.9,4.3-2.3,6.3c-0.9,1.2-0.2,2.4,0.7,3.6c1.4,1.7,2.7,3.6,3.9,5.5
			c1.3,2,0.4,4.1-0.4,5.9c-0.6,1.4-2.1,1.7-3.6,1.6c-3.3-0.1-6.5-0.9-9.6-2.1c-2.9-1.1-5.7-2.4-8.7-3.2c-4.9-1.3-10-1.6-15-1.3
			c-1.8,0.1-3.6,0.5-5.3,0.4c-3.8-0.2-7.2,0.9-10.6,2.3c-1.7,0.7-3.6,1-5.3,1.7c-2.1,0.8-4.1,1.8-6.1,2.7c-1.2,0.6-2.2,1.5-3.4,1.9
			c-3.5,1.2-5.9,3.9-8.9,5.8c-0.8,0.5-1.4,1.3-1.9,2c-0.5,0.8-0.9,1.6-1.9,1.9c-0.3,0.1-0.6,0.4-0.8,0.7c-1.5,2.1-3,4.3-4.5,6.4
			c-0.4,0.5-0.8,1.2-1.4,1.3c-2,0.5-2.7,2.2-3.9,3.5c-3.2,3.5-5.4,7.7-7.5,11.8c-1.6,3.1-2.9,6.4-3.7,10c-0.6,3.1-1,6.1-1,9.2
			c0,4.1,0.7,8,2.2,11.8c1.1,2.8,2.1,5.6,3,8.5c0.5,1.7,0.7,3.5,1.1,5.2c0.2,1.1,0.5,2.2,0.6,3.3c0.4,2.2,0.7,4.4,1,6.6
			c0.2,1.3,0.6,2.5,0.8,3.8c0.1,1,0.5,2.2,0.1,3c-1.6,3.6-2.9,7.2-5.9,10.1c-5.4,5.2-10.7,10.6-15.9,16c-1.1,1.1-2.1,2.4-2.8,3.8
			c-1.6,3.7-3.7,7.3-4.2,11.3c-0.4,3.3-0.5,6.8,0,10.1c1,6.8,4.3,12.6,8.1,18.3c3,4.5,5.6,9.4,7.9,14.2c1,2.1,1.3,4.7,1.7,7.1
			c0.4,2.3,0.6,4.7,0.6,7c0,2.7-0.7,5.1-2.4,7.4c-1.2,1.6-2.9,2.5-4.6,3.1c-1.8,0.6-3.1-0.9-4.4-1.9c-1.2-0.9-1.6-2.1-1.5-3.7
			c0.5-4.5-0.6-8.7-3.2-12.5c-1.2-1.7-2.1-3.5-3-5.4c-4-7.9-8-15.7-10.9-24.1c-2.6-7.4-2.6-15,0.1-22.4c1.6-4.6,3.5-9.1,5.5-13.6
			c0.7-1.6,1.8-3.1,3.1-4.3c4.2-4.3,8.4-8.6,12.8-12.7c3.3-3,4.3-6.4,3-10.7c-0.3-0.9-0.3-1.8-0.3-2.8c-0.1-3.8-0.5-7.4-1.9-11
			c-2.2-5.8-4.5-11.6-4.9-17.9c-0.1-2.5,0-5.1,0-7.6c0-0.1,0-0.2,0-0.3c0.3-2,1.8-3.6,1.4-6c-0.3-1.8,1-3.9,1.7-5.9
			c0.7-2,1.5-4.1,2.4-6c0.8-1.9,1.9-3.7,2.8-5.5c5.1-10.3,12.7-18.8,20.8-26.9c5.9-6,13-10.6,20.6-14.1c5.8-2.7,11.7-5.2,17.7-7.1
			c3.7-1.2,7.7-1.3,11.7-1.8c5.3-0.7,10.7-0.2,16,0.2c1.4,0.1,2.9,0.3,4.8,0.4c0.6-1,1.5-2.3,2.2-3.7c1.2-2.3,2.2-4.7,3.3-7.1
			c0.3-0.7,0.5-1.4,0.6-2.2c0.7-4.1,1.4-8.1,2.8-12.1c1.6-4.6,2.6-9.4,4.1-14c1.2-3.5,2.9-6.9,4.5-10.3c0.9-2,1.7-4,2.9-5.8
			c2.9-4.2,5.7-8.4,9-12.2c4.4-5.1,9-10,13.7-14.9c1.5-1.6,3.5-2.9,5.4-4c2.2-1.3,4.5-2.3,6.8-3.4c0.1,0,0.2-0.1,0.2-0.1
			c2.2-2.5,5.2-3.2,8.2-3.7c0.5-0.1,1.1-0.3,1.6-0.6c4.1-2.6,8.9-2.8,13.5-3.2c0.5,0,0.9-0.1,1.4-0.2c6-1.4,12.1-1.3,18.2-0.1
			c2.9,0.6,5.9,1,8.8,1.9c5.4,1.6,10.7,3.6,15.6,6.4c1.4,0.8,2.7,1,4.3,0.7c3.4-0.6,6.7,0.7,10,1.4c3.8,0.8,7.6,2.3,11.6,2.1
			c4.4-0.3,8.7-1.2,12.7-3.4c3.5-1.9,7.2-3.6,10.7-5.6c2.3-1.3,4.4-3.2,6.6-4.7c4.4-3.2,8.5-6.8,12.2-10.8
			c5.7-6.1,11.5-12.1,16.3-18.9c0.6-0.8,1.4-1.5,2.1-2.3c1.9-2.3,3.7-4.7,5-7.4c1.1-2.2,2.8-4.2,4.3-6.2c1.7-2.3,3.6-4.5,5.4-6.9
			c2.5-3.3,5.5-5.8,8.9-8.2c1.6-1.1,3-2.6,4.5-3.8c4.1-3.5,8.8-6,13.7-8.4c5.6-2.7,11.3-5.1,17.1-7c4.5-1.5,9.1-2.4,13.8-2.7
			c3.7-0.2,7.3-0.6,11-0.6c8.3-0.1,16.5,0.3,24.7,1.2c8.8,1,17.3,3.5,25.8,5.8c4,1.1,7.9,2.5,11.9,3.2c5.5,1,10.9,0.1,16.1-1.6
			c10.8-3.6,19.5-9.9,25.9-19.4c2.6-3.9,5.2-7.7,8.9-10.8c3.3-2.8,6.9-5.2,10.8-7c3.1-1.5,6.4-2.5,9.6-3.9c0.6-0.3,1-1,1.6-1.5
			C573.4,32.9,576.6,32.9,579.8,32.9z"/>
		<path d="M596.1,64c-4.6,2.1-7.7,5.3-9.3,10.3c-0.8,2.3-1.5,4.6-2.3,6.9c-1,2.8-2.6,5.3-4.1,7.9c-1.6,2.7-3.3,5.2-5,7.8
			c-1,1.5-1.9,3.1-3.1,4.3c-2.7,2.6-5.5,5.2-8.6,7.3c-2.7,1.8-5.8,3-8.9,4.1c-4.6,1.8-9.4,3.3-14.1,4.9c-1.1,0.4-2.1,0.7-3.2,1
			c-3.9,0.8-7.4,2.5-10.8,4.6c-1.4,0.9-2.9,1.7-4.3,2.6c-4.7,3.1-8.4,7.1-11.4,11.8c-1.5,2.3-3.3,4.3-5.1,6.3
			c-3.3,3.6-6.5,7.3-10,10.7c-2,2-4.4,3.5-6.7,5.1c-1,0.7-1.6,1.5-1.6,2.8c0.1,5.3,0.2,10.7,0.1,16c-0.1,5.3-0.2,10.5-1,15.7
			c-0.7,4.7-2,9.3-3.3,13.9c-0.9,3-2.2,5.8-3.3,8.7c-1.1,2.9-2.2,5.8-3.4,8.6c-0.8,1.9-1.8,3.7-2.8,5.5c-4.6,7.6-9.7,14.7-16.2,20.8
			c-1.9,1.8-4,3.5-6.2,4.9c-4.6,3-8.9,6.3-12.5,10.4c-2.6,2.9-6.1,4.3-9.6,5.7c-2.8,1.1-5.5,2.2-8,3.9c-1.7,1.2-3.8,2-5.6,3.2
			c-4.5,2.8-8.6,6-12.3,9.8c-5.7,5.8-8.7,12.8-10,20.6c-0.6,3.8-0.9,7.6-1.2,11.5c-0.1,1-0.1,2.1,0.2,3.1c0.8,2.8-0.1,5.8,1.4,8.5
			c0,0.1,0.1,0.2,0,0.3c-1.2,5.3,0.7,10.4,1.4,15.6c0.8,6.1,0.8,12.2,0.3,18.2c-0.1,1.7-0.9,3.4-1.3,5.2c-1.1,4.7-2.1,9.5-3.2,14.2
			c-0.6,2.4-1.2,4.7-1.2,7.1c0,0.4-0.3,0.9-0.6,1.3c-2.3,3.3-3.3,7.1-4.9,10.7c-1.2,2.6-2.9,5-4.4,7.5c-1.6,2.6-3.3,5.2-5.1,7.7
			c-1.3,1.8-2.8,3.6-4.4,5.1c-3,2.9-6.1,5.6-9.2,8.3c-1.7,1.5-3.2,3.1-5.6,3.6c-1.2,0.3-2.2,1.8-3.4,2.4c-4,2.2-8,4.5-12.3,6.2
			c-4.8,2-9.9,3.5-14.8,5.2c-0.8,0.3-1.7,0.4-2.4,0.7c-7.8,3.5-15.9,4.8-24.4,4.8c-1,0-2-0.3-3-0.5c-2.4-0.4-4.7-0.8-7.3-1.2
			c-0.2,1.1-0.5,1.9-0.5,2.7c0.1,3.3-1,6.3-1.8,9.3c-0.5,2.1-0.5,4.3-0.9,6.4c-0.2,1.3-0.6,2.5-1.1,3.7c-1.3,3.3-2.6,6.6-4,9.9
			c-0.6,1.4-1.6,2.7-2.4,4.1c-2.4,3.8-4.8,7.7-8.1,10.7c-3.6,3.2-7.2,6.3-11.2,9c-3.5,2.4-7.6,4-11.7,5.2c-0.3,0.1-0.6,0.1-0.8,0.3
			c-4.2,2.9-9.1,3.3-13.9,4.1c-2.9,0.5-6,0.6-9,0.7c-5,0.1-9.9,0.6-14.7,2c-1.7,0.5-3.5,0.7-5.2,1.2c-7,2-11.5,6.8-14.7,13.1
			c-1.2,2.2-1.9,4.7-3.1,6.9c-2.2,4-3.4,8.2-4.6,12.5c-0.8,2.8-1.6,5.6-2.9,8.2c-1,2-2.7,3.8-4.4,5.4c-1.7,1.5-4.6,0-5.1-2.7
			c-0.5-2.2-0.7-4.4-0.1-6.8c1.2-4.6,1.8-9.4,2.7-14.1c0.1-0.5,0.3-0.9,0.4-1.3c0.4-1.2,1-2.4,1.3-3.6c0.9-3.6,2.2-6.9,4.7-9.8
			c1.3-1.5,2.1-3.6,3.5-5.1c2.7-2.9,5.4-5.8,8.5-8.2c2-1.6,4.5-2.6,7-3.5c6.5-2.5,13.3-4.2,20.2-5c3.6-0.4,7.3-0.2,11-0.2
			c0.7,0,1.4,0.1,1.9-0.2c4.1-2,8.7-2.2,12.6-4.7c2.3-1.5,5.1-2.2,7.6-3.5c1.6-0.8,3.1-1.8,4.4-3c4.6-4.3,8.9-9,11.6-14.7
			c1.6-3.3,2.7-6.8,4.2-10.1c3.6-7.8,3.4-16,3.2-24.3c0-1.3-0.8-2.7-1.2-4c-0.6-1.6-1.2-3.1-0.7-4.9c0.3-1-0.1-2.2-0.2-3.2
			c0.9-0.7,1.6-1.4,2.4-2c2.8-2.4,8.3-1.4,9.9,1.9c0.7,1.3,1.1,2.8,1.7,4.1c0.8,1.9,1.9,3.1,4.1,3.3c5.9,0.5,11.7,0.4,17.5-1.1
			c0.5-0.1,1-0.2,1.4-0.4c3.1-1.8,6.6-2.5,10-3.5c2.3-0.7,4.6-1.7,6.8-2.6c5.7-2.3,11.6-4.3,16.6-8c2.5-1.8,5.5-3,7.9-4.9
			c3.8-3.1,7.5-6.3,10.7-9.9c2.5-2.8,4.2-6.4,6.3-9.6c1.2-1.8,2.3-3.7,3.4-5.5c0.6-1,0.9-2,1.4-3c3.8-7.2,5.5-15.1,7-23.1
			c0.4-2.3,1.1-4.6,1.6-6.9c0.8-3.6,1.3-7.1,1-10.8c-0.4-3.9-0.5-7.9-0.7-11.8c0-0.7-0.1-1.3-0.2-2c-1-3.6-1.9-7.3-3-10.9
			c-0.5-1.5-1.5-2.8-2-3.8c0.3-2.4,0.7-4.4,0.8-6.4c0.1-3,0.1-6,0.1-9c0.1-2.4,0.1-2.5,2.5-2.8c1.9-0.3,2.9-1.3,3.1-3.1
			c0.2-1.5,0.4-3,0.3-4.5c-0.1-2.3-0.5-4.7-0.4-7c0.1-1.4,0.5-3,1.3-4.2c2.5-3.5,5.2-6.9,7.8-10.3c0.5-0.6,1.3-1,2-1.6
			c1.1-1,2.6-1.8,3.2-3.1c1.1-2.4,3.1-3.2,5.2-4.3c1.9-1,3.6-2.4,5.5-3.4c1.3-0.7,2.7-1.2,4.2-1.6c1.8-0.5,2.5,0,3.3,1.7
			c1,2.2,1.2,2.3,3.3,1.6c2.7-0.9,4.8-2.7,5.7-5.3c0.6-1.8,1.7-3,3.4-3.5c5.9-1.9,10.4-5.9,15.4-9.2c3.9-2.6,7.1-5.8,10.2-9.2
			c1.6-1.7,2.8-3.7,4.3-5.5c2.9-3.4,4.4-7.6,6.8-11.2c3.6-5.4,5-11.7,7.5-17.5c0.4-1,0.6-2.2,0.7-3.3c0.5-3.9,1.6-7.7,3.1-11.4
			c0.2-0.5,0.5-1.1,0.4-1.6c-0.7-4,0.5-7.9,0.6-11.8c0-0.4,0.1-0.7,0.1-1.1c-0.1-3-0.2-6-0.4-9c-0.3-3.3-0.6-6.5-0.2-9.8
			c0.1-1.1-0.4-2.8-1.3-3.6c-2.7-2.7-3.6-6.3-5.5-9.4c-0.7-1.2-0.1-2.4,0.8-3.4c2.1-2.4,5.6-2.6,8-0.5c1.8,1.6,3.4,3.2,5.1,4.9
			c1.9,1.9,3,2,5,0.1c1.5-1.4,2.7-3.1,4.2-4.6c1.5-1.5,3.1-3,4.6-4.5c1.2-1.3,2.6-2.6,3.3-4.1c3-6.8,8-11.9,14-15.8
			c4.7-3.1,9.9-5.7,15.2-7.8c5.2-2.1,10.7-3.5,16-5.2c7.3-2.4,13.8-5.9,17.9-12.8c1.2-2.1,3.1-3.7,4.8-5.5c1.3-1.3,2.2-2.7,2.7-4.5
			c0.4-1.5,1.3-2.9,2.2-4.2c1.3-2.1,2.3-4.2,3-6.6c0.7-2.6,2.3-4.9,3.6-7.3c1.6-3,4.2-4.9,7.3-6.3c2.6-1.2,5.1-2.7,7.6-4.2
			c0.5-0.3,1-0.8,1.3-1.4c0.6-1,1.4-1.1,2.4-1C596.1,56.1,596.1,60,596.1,64z"/>
		<path fill="#FFFFFF" d="M0.6,833.4c0.4,0.2,1,0.3,1.2,0.7c1.7,2.8,3.4,5.6,5,8.4c-2.1,0-4.1,0-6.2,0
			C0.6,839.4,0.6,836.4,0.6,833.4z"/>
		<path d="M156.3,446.8c-1.3,1.2-2.3,2-3.2,3c-4.5,5.2-10.2,8.5-16.4,11.2c-1.2,0.5-2.5,0.7-3.8,1.1c-2.4,0.8-4.8,1.6-7.2,2.3
			c-5.6,1.7-11.3,1.8-17,0.3c-1-0.3-2-0.7-2.8-1.2c-2.9-1.7-6.1-2.7-9.4-3.7c-1.6-0.4-2.8-0.1-3.8,0.9c-0.9,0.8-1.6,1.9-2.4,2.8
			c-0.9,1-1.6,2.1-2.6,2.9c-3.5,2.9-4,3-8.2,1.6c-0.6,0.9-1.3,1.9-1.9,2.8c-0.2-0.1-0.4-0.1-0.6-0.2c0.2-2.1,0.4-4.1,0.6-6.4
			c2.8-0.9,3.8-3,4.3-5.9c0.7-4,4.5-7.3,8.5-7.9c0.9-0.1,1.9-0.2,2.8-0.5c2.1-0.6,4-0.5,6.1,0.1c2.8,0.8,5.7,1.3,8.5,2
			c1.1,0.3,2.2,0.7,3.1,1.3c3.3,2.1,6.9,2,10.6,1.5c8-1.2,14.5-5,19.9-10.8c2.1-2.2,4.5-4.3,6-7c1.6-3,3.4-6,4.9-9.1
			c1.8-3.7,3.6-7.4,5-11.3c1.4-3.9,2.2-7.9,3.5-11.9c0.8-2.6,1.9-5.1,3.1-7.5c0.7-1.3,1.9-2.3,3.1-3.2c2.6-1.9,5.7-1.3,7.6,1.4
			c1.4,2,2.1,4,1.4,6.6c-0.7,2.4-1,4.9-1.4,7.4c-0.1,0.6-0.3,1.3-0.5,1.9c-1.1,3.4-2.2,6.7-3.3,10.1c-0.6,1.6-1.4,3.1-2,4.7
			c-0.7,2-0.6,3.9,0.6,5.9c0.7,1.1,0.7,2.6,0.9,4c0.1,0.8-0.1,1.7-0.2,2.5c-0.6,4.7,1.1,9.1,2.1,13.6c0.6,2.9,1.7,5.7,1.7,8.5
			c0,4.9,0.5,10.1-1.7,14.4c-2.3,4.7-4.4,9.7-8.7,13.3c-3.4,2.8-6.7,5.7-10.3,8.3c-3.9,2.9-7.8,6-10.9,9.7
			c-3.6,4.1-7.4,8.3-8.7,13.9c-0.9,3.7-1.1,7.5,0.5,11.3c1.8,4.5,4.3,8.7,6.9,12.8c2.4,3.8,5.1,7.4,7.7,11.1
			c1.5,2.2,2.9,4.4,4.2,6.7c1.3,2.3,1.6,4.8,0,7.2c-1,1.5-1.8,3-2.7,4.6c-0.9,1.6-2.6,1.7-4,2.4c-0.3,0.1-0.8,0.2-1,0
			c-0.7-0.6-1.2-0.5-2-0.1c-1.5,0.6-2,0.4-2.5-1.2c-0.5-1.7-0.7-3.5-1.2-5.2c-0.8-2.5-1.6-5-3-7.2c-4-6.7-8.3-13.2-12.4-19.8
			c-2.9-4.7-4.8-9.7-5.8-15.2c-1-5.8,0.2-11.2,3.4-16.2c3.1-4.8,6.3-9.6,9.8-14.1c2.1-2.6,4.8-4.7,7.4-6.9c4.3-3.6,8.8-7,13.1-10.6
			c1-0.9,1.8-2.1,2.5-3.3c0.9-1.4,1.5-3,2.4-4.4c1.2-1.9,1.6-4,1.7-6.2c0.1-5.1,0.4-10.2-1-15.1
			C157.3,449.7,156.9,448.5,156.3,446.8z"/>
		<path fill="#FFFFFF" d="M145.8,611.6c0.6-0.2,1-0.4,1.4-0.4c2.9,0.3,5.7,0.7,8.6,1c0.3,0,0.6,0,0.8,0.2c0.5,0.5,0.9,1,1.3,1.6
			c-0.6,0.3-1.1,0.7-1.6,0.7c-1.1,0-2.2-0.3-3.3-0.5c-1.6-0.2-3.3-0.5-4.9-0.7C146.9,613.5,146,613.3,145.8,611.6z"/>
		<path fill="#FFFFFF" d="M54.6,520.8c-3.2,1.8-6.3,0.5-9.9,0.4c0.6-1.5,0.9-2.6,1.3-3.8C48.9,518.6,51.7,519.7,54.6,520.8z"/>
		<path fill="#FFFFFF" d="M51.1,497.5c-0.1-0.5-0.2-1.1-0.3-1.8c2.7-1,5.3,0.5,7.9-0.5c0.1,0.3,0.1,0.6,0.2,1
			c-0.5,0.3-0.9,0.7-1.4,0.8C55.3,497.1,53.2,497.2,51.1,497.5L51.1,497.5z"/>
		<path fill="#FFFFFF" d="M51.1,497.4c-1.3,0.1-2.4,2-4.1,0.7c0.4-1.2,0.7-2.3,1.2-3.5C49.1,495.5,50.1,496.5,51.1,497.4
			C51.1,497.5,51.1,497.4,51.1,497.4z"/>
	</g>
</g>
<line fill="none" stroke="#000000" stroke-width="6" stroke-miterlimit="10" x1="406.6" y1="271" x2="427.6" y2="262"/>
</svg>
