<?xml version="1.0" encoding="utf-8"?>
<!-- Generator: Adobe Illustrator 19.1.0, SVG Export Plug-In . SVG Version: 6.00 Build 0)  -->
<svg version="1.1" id="Layer_1" xmlns="http://www.w3.org/2000/svg" xmlns:xlink="http://www.w3.org/1999/xlink" x="0px" y="0px"
	 viewBox="174 -123.6 1190.6 841.9" style="enable-background:new 174 -123.6 1190.6 841.9;" xml:space="preserve">
<style type="text/css">
	.st0{fill:#FFFFFF;}
</style>
<g>
	<path class="st0" d="M609.2,188.5l0.3,0.2"/>
	<path class="st0" d="M793.6,111.9c-1.1,13.3-2.2,29.5,9,36.8c0.6-51.2,5.4-102.4,14.3-152.9c8.4,21.2-8.5,46.4,0.3,67.3
		c4.7,11.3,15.8,18.4,26.2,24.8c9,5.6,18.2,11.2,27.3,16.8c5.6,3.4,12.3,7,18.4,4.8c10.6-3.9,21.5,8.6,20.7,19.9
		s-8.8,20.7-16.4,29.2c-31.3,0.6-48.4-37.8-77.4-49.6c-12.3,24-8.2,55.3,9.6,75.5c18.6,20.8,33.8,44.7,44.9,70.2
		c2.1,4.7,7.2,7.1,11.8,9.4c27.3,13.9,47.4,40.9,52.8,70.9s-4,62.4-24.7,84.9c-4.1,4.5-9,10.3-6.4,15.8c8.4,17.4,9.7,37.4,8.5,56.7
		c-1.6,24.8-7.9,50.3-23.5,69.7c-15.6,19.5-41.8,31.7-66,25.5c-39.4-10.1-75.5-37.4-89.6-75.6c-14.1-38.1-2.2-86,31.7-108.3
		c6-3.9,5.6-12.6,4.6-19.7c-1.7-11.6-3.4-23-5.2-34.6c-1.5-9.8-6.5-22.6-16.4-21.2c-5.4,0.8-9,5.7-14.1,7.7c-5,1.9-12.7-3.3-9.2-7.4
		c10.6-12.1,19.2-26,25.4-40.9c2.4-5.8,1.4-15.8-4.9-14.5c-27.1,43.4-80,69.4-131,64.4c-15.5-1.5-31.3-6.1-42.4-16.8
		c-10.2-10-15.1-23.9-18.8-37.7c-2.7-10-5-20.2-4.6-30.3c0.9-19.9,12.5-38.2,27.4-51.6c14.9-13.4,33-22.4,51-31.3
		c-24.2-31.5-27-77.8-6.9-112c20-34.2,61.8-54.3,101.1-48.7c1-6.3,2.1-12.7,3-19c11.2,44.2,23.2,88.5,42.3,130
		c19,41.5,45.5,80.4,81.5,108.3c-12.1-17.3-24.4-34.7-36.5-52c-12.8-18.2-25.8-36.6-35.6-56.6C756.9,81,749.7,36.4,755.8-6.4
		c0.2-1.7,0.7-3.7,2.2-4.4c1.5-0.7,3.8,1.1,2.7,2.4c-1.1,6.8-2.3,13.6-0.7,20.3c1.6,6.6,6.5,12.9,13.3,13.7
		c0.6-17.6,5.5-35.2,14.3-50.5c3.7,11.1-1.3,22.9-2.6,34.5c-1.4,11.6,3.8,26.5,15.5,26.9c-1,5.4-8.5,8.4-12.9,5.2
		C793.4,64.6,795.5,88.4,793.6,111.9 M717.2,178.5c-31.9-22.3-79.9-17.4-106.6,10.9c1.9-3.1-4.4-4-7.4-2.2
		c-19.9,12.6-40.1,28.6-45.5,51.5c-4.8,20.5,3.3,41.6,11.3,61.2c1.9,4.9,4.2,10.1,8.5,13.1c3.5,2.5,8,3.2,12.3,3.9
		c13.1,1.9,26.1,4,39,6c8,1.3,16,2.4,24.2,2.4c35.6-0.3,66.8-25.8,85.9-55.8c4-6.4,6.6-16.8-0.3-19.8c-14.2-6.1-27.6-16.1-33.3-30.6
		C699.4,204.8,703.7,185.9,717.2,178.5 M849.6,533c-5.6,2.9-13.2-3.7-11.2-9.6c-3-1.6-6.1-3.1-9-4.7c-0.8-5.5,7.8-8.7,11.9-4.9
		c4.1,3.8,3.5,10.8,0.3,15.3c12.4-2.4,25.9,2.5,33.7,12.4c1.6,2.1,1.3,5.4-0.7,7.2c5.2,2.4,11.6,0.2,15.6-3.7
		c4-3.9,6.3-9.4,8.1-14.8c8.7-26.3,8.7-55.5-0.1-81.9c-2.6-7.8-8.4-16.7-16.5-15.2c-4,0.8-10,3.2-10.9-0.8c3.7,0.3,7.6,0.7,10.9-1
		c3.3-1.6,5.5-6.1,3.5-9.2c-10.6-16.8-29.2-28.5-49-31c-2.9-0.3-6.4-0.1-7.7,2.4c-10.9,23-41.1,34.7-64.7,24.7
		c-25.9,22.6-32.4,62.4-20,94.5c12.3,31.9,40.8,56,72.6,68.7c8.7,3.4,18,6.2,27.1,4.7s18.1-8.4,19.1-17.6c0.8-6.9-1.9-15.5,3.7-19.5
		c-2.6,3-7.6,2.6-10.8,0.3c-3.2-2.3-5.2-6-6.9-9.5C849.1,537.5,849.3,535.2,849.6,533 M652.9,64.1c-17.2,14.4-35.4,30.7-39,52.8
		c-2.9,17.2,4.8,35.7,18.9,45.9c2.4,1.7,5.7,3.3,8.2,1.7c24.3-15.1,58.7-11.2,79,8.9c4.4,4.4,11.5,4.9,17.2,2.7
		c5.7-2.2,10.3-6.5,14.3-11.2c8.8-10.3,15.6-24.5,10.8-37.3c-2.3-6.1-9.8-11.3-14.8-7.2c-13.2,10.9-27.8,19.9-43.5,26.8
		c-3.2-2.7-6.6-5.6-8.2-9.6c-1.6-4-0.7-9.3,3-11.3c14.7-7.9,28.7-16.9,42.3-26.8c3.3-2.4,6.6-7.6,3.3-10c-5.4-3.9-6-11.5-6.8-18
		c-0.8-6.5-3.7-14.3-10.2-15.5c-8.1-1.4-15.1-7.7-17.5-15.5s0.1-16.9,6.1-22.6c-11.9-8.4-28.4-5-41.5,1.1
		c-24.3,11.6-44.2,32.2-54.9,56.9c4.4,4.8,12.4,0.9,16.9-3.7C641,68,646.6,62.2,652.9,64.1 M782.9,308.6c-0.3,2.3,0.7,4.6,1.7,6.6
		c6.1,13.1,12.1,26.1,18.2,39.2c8.5,18.3,29,30.3,49.1,28.9c3.7-12.8,3.2-26.7-1.5-39.2c9.7,11.5,13.6,27.7,10.2,42.4
		c5.4-4.1,12.4-5.8,19-4.8c-5.8-1.1-10.5,6.1-9.4,11.9c1.1,5.8,5.8,10.3,10.3,14.3c4.5,4,8.8,7.9,13.3,11.9c1,0.9,2.3,1.9,3.7,2.1
		c1.3,0.1,2.5-0.5,3.7-1.1c10.3-5.8,17.1-16.6,20.6-27.8c3.5-11.2,4.2-23.2,4.9-35c0.5-9.3,1-18.6-0.2-27.8
		c-3.7-26.6-23.5-50.2-48.9-58.5c-2.7,4.9,1.4,11.1,6.1,14.2c4.8,3.1,10.6,4.9,14.1,9.4c5.8,7.7,1.5,19.7-6.8,24.6
		c-8.2,4.9-18.7,4.4-28.1,2.1c-11.2-2.7-23.5-9.7-24.6-21.3c-0.8-7.7,3.7-14.7,7.8-21.1c-5.4-1.5-10.1-5.2-12.7-10.1
		c-19.2,5.5-36.5,17.6-48.1,34C784.2,305.1,783.1,306.7,782.9,308.6 M774.3,300.6c-0.8-9.5,1.9-18.9,4.8-28.1
		c4.6-14.9,9.5-29.5,14.8-44.2c3.2-8.9,6.5-18,6.5-27.4c0-9.4-4.1-19.5-12.5-23.9c-3.4,11.8-6.4,23.7-8.8,35.7
		c-0.7,3.3-1.3,6.6-0.3,9.8c1,3.4,3.7,6.1,5,9.4s0.3,8.1-3.1,8.7c-0.1-3.3-4.7-4.8-7.7-3.2c-2.9,1.6-4.4,4.8-5.7,7.8
		c-3,6.9-5.8,13.6-8.8,20.5c-1.3,2.9,0.8,6.2,3,8.5c2.2,2.3,4.7,4.8,4.8,7.9c0,3.2-4.7,5.8-6.3,3.1c-5.2,1.6-7.9,7.4-7.7,12.8
		s2.7,10.3,5.3,15.1c11.7,22.1,23.6,44.2,35.7,66.1c-7.8-2.1-14.9-6.9-19.6-13.4c0.3,10.5,2.2,21.1,5.3,31.1c0.7,2.4,1.7,4.9,4,6
		c1.7,0.8,3.8,0.3,5.6-0.1c6.3-1.5,12.9-3.2,18-7.3c5-4.1,7.9-11.7,4.8-17.4c-8.7-16.1-17.4-32.4-26.1-48.6
		C780.3,320.6,775.1,311,774.3,300.6 M786.8,290.8c13.4-11.2,28.5-20.5,44.7-27.4c-0.8-20.3-7.2-40.3-18.3-57.4
		c-0.9-1.4-1.8-2.7-3.3-3.3c-1.5-0.6-3.5-0.1-4,1.4c-7.1,22.8-14.3,45.5-21.4,68.3c-2.2,6.9-4.4,13.7-4.5,20.8
		C782.2,294.2,784.7,292.4,786.8,290.8 M837.8,114.3c1.1-1.3,1.1-3.3,0.1-4.6c-1.7-1.9,1.4-5.3,3.8-4.5c2.4,0.8,3.7,3.7,3.8,6.3
		c0.1,2.6-0.3,5.3,0.2,7.9c0.9,4.4,4.7,7.3,8.4,9.8c2.2,1.6,6.5,2.2,6.5-0.6c0-3.7,1-7.7,4.2-9.4c3.2-1.7,8.1,1.8,6.3,4.9
		c-2.9,5-3.2,11.5-0.8,16.8c2.4,5.3,7.6,9.3,13.3,10.4c1.8,0.3,3.3-1.7,3.3-3.5s-0.8-3.7-0.9-5.5c-0.5-5.8,5.5-11.1,4.1-16.8
		c-0.8-3.4-4.1-5.7-7.1-7.6c-22.2-14.1-44.5-28.3-66.8-42.4c-0.5,7.7-0.9,15.5-1.4,23.1c0,0.9-0.1,1.9,0.3,2.7
		c0.5,0.9,1.5,1.5,2.4,1.9C824.3,107.2,831,110.7,837.8,114.3 M727.8,202.6c-1.5,3.9-2.4,8.1-1.5,12.1c0.8,4,3.8,7.8,7.8,8.7
		c5.3,1.1,10.2-2.5,14.3-6.1c3.7-3.1,7.3-6.2,10.9-9.4c9.5-8.1,19.7-17.5,20.5-30c0.1-1.6,0-3.2-0.9-4.5s-3.1-1.6-4-0.3
		c-9.5,12.5-26.7,15.5-42,18.9c-1.9,0.5-4.5,1.7-3.9,3.7C729.8,198,728.7,200.4,727.8,202.6 M762.9,33.4c-1.1,1-1,2.9-0.9,4.4
		c2.1,20.3,7.4,40.2,15.9,58.7c5.4-19.9,2.5-41.9-7.8-59.8C768.5,34.1,765,31.3,762.9,33.4 M753.3,260.6c4.5-7.2,8.5-14.8,12-22.6
		c1.7-3.8,3.1-8.6,0.2-11.5c-1.9-1.9-0.7-5.4,0.8-7.8c1.7-3,3.4-5.8,5.3-8.8c0.5-0.8,1-1.9,0.6-2.7c-0.8-1.5-3.1-0.6-4.4,0.5
		c-7,5.6-13.5,11.9-19.6,18.6c3.8,7.7,4.8,16.7,2.7,25.1C750,254.8,749.7,260,753.3,260.6 M724.9,227.9c-2.1-1.9-3.3-4.6-4.2-7.3
		c-3.4-9.2-4.9-20.4,1.1-28.1c1.8-2.3-0.8-6.2-3.8-6.2s-5.5,2.3-7.1,4.9c-6.2,10.2-2.2,23.9,5,33.4c5.6,7.4,12.9,13.4,21.3,17.4
		c3.5-2.4,5.2-7.3,3.7-11.3C735.4,231.3,729,231.7,724.9,227.9 M744.8,105c-2.6,0-4.9,1.4-7.1,2.9c-12.8,8.1-25.5,16.4-38.4,24.5
		c3.3,0.1,7.6,0.9,8.5,4.1c0.2,0.8,0.2,1.8,0.7,2.5c1.3,1.8,4.1,0.7,6-0.7C726.7,129.3,739.5,119.3,744.8,105 M847.3,297.7
		c-1.3-2.3-5.2-0.9-5.7,1.6c-0.5,2.5,1.3,4.9,3.1,6.8c9.4,8.8,23.5,9.7,36.3,10.2c3.1,0.1,6.3,0.1,8.7-1.7c2.2-1.7,3.1-4.5,3.5-7.2
		c0.6-3.1,0.8-6.6-1.3-9c-2.1-2.4-7.1-1.7-7.3,1.4c-0.3,6-6.4,10.4-12.5,10.8c-6,0.3-11.7-2.3-16.8-5.4
		C852.2,303.4,849,301.1,847.3,297.7 M795.6,416.6c1.8-0.1,3.7-0.7,5.3-1.4c9.5-4,17.4-11.6,21.6-21c1.4-3,2.4-6.4,1.7-9.6
		c-0.7-3.2-3.5-6.2-6.9-6.1c-1.8,1,0.7,3.5,1.5,5.5c0.9,1.9-0.3,4.2-1.6,6c-7.6,10.4-19.8,17.3-32.6,18.3
		C785.8,413.2,790.7,417,795.6,416.6 M856.5,251.5c1.4,8.6,6.1,16,9.6,23.9c3.5,7.9,5.8,17.2,2.2,25c-0.5,0.9-1,2.1-0.8,3.1
		c0.5,1.8,3.1,2.1,4.8,1.3c3.1-1.6,4.8-5.3,4.9-8.7c0.1-3.4-0.9-6.9-2.1-10.3c-3.3-10.3-6.8-20.6-10.1-30.9
		c-0.7-2.3-1.6-4.7-3.7-5.8C859.4,247.8,856.2,249.1,856.5,251.5 M718,28.2c-1.7,4.6-2.2,9.7-0.1,14.2c2.1,4.4,7.2,7.4,11.9,6.2
		c-0.5-8.4-2.2-16.7-5.3-24.5C722,22.3,719.1,25.4,718,28.2 M775.6,163.6c1.4-1.7,2.5-3.8,2.2-6c-0.3-2.2-3.1-3.8-4.8-2.4
		c-3.5,6.1-7.1,12.1-10.8,18.2C767.5,171.5,772.1,168.1,775.6,163.6 M901.3,120c-0.8-2.3-3.2-4.8-5.2-3.4c2.6,7.1,2.7,15,0.5,22.2
		c2.4,1.8,5.3-1.7,5.8-4.6C903.3,129.5,902.9,124.5,901.3,120 M859.5,292c-1.1,0.7-2.4,1.4-3.5,1.9c0.6,4.2,4.5,7.8,8.8,8
		c0.3-3.8-1.7-7.6-5-9.4 M621,85.9c-0.7-0.9-1.7-1.5-2.9-1.7c-2.9,1.9-3.9,6.3-2.2,9.3C618.9,92.3,621.1,89.1,621,85.9 M747.2,309.2
		c-0.7-0.9-2.3-0.2-2.9,0.7c-1.1,1.7-0.9,4.2,0.7,5.5c1.6,1.3,4.4,0.8,5.2-1c0.8-1.8-0.9-4.4-2.9-4 M782.6,45.9
		c-0.3-1.6-1.9-3.5-3.1-2.4c0.1,1,0.3,2.3,1.1,3c0.8,0.7,2.5,0.3,2.5-0.8L782.6,45.9z"/>
	<path class="st0" d="M667.1,207.7c4.1-8.2,13.3-13.6,22.6-13.3c1.9,0.1,3.9,0.5,5.4,1.7c1.5,1.3,2.1,3.5,0.9,5.2
		c-0.8,1-2.1,1.5-3.3,1.7C684.2,205.2,675.7,206.8,667.1,207.7z"/>
</g>
</svg>
