<?xml version="1.0" encoding="utf-8"?>
<!-- Generator: Adobe Illustrator 19.1.0, SVG Export Plug-In . SVG Version: 6.00 Build 0)  -->
<svg version="1.1" id="Layer_1" xmlns="http://www.w3.org/2000/svg" xmlns:xlink="http://www.w3.org/1999/xlink" x="0px" y="0px"
	 viewBox="174 -123.6 1190.6 841.9" style="enable-background:new 174 -123.6 1190.6 841.9;" xml:space="preserve">
<style type="text/css">
	.st0{fill:#FFFFFF;}
</style>
<g>
	<path class="st0" d="M814.1,342.9h0.4"/>
	<path class="st0" d="M870.7,380.6c-5.4,1.2-5.6,9.1-3.1,14.1c9.3,18.4,38.8,21.7,51.9,5.8c9.4,6.1,13.8,18.9,10.1,29.4
		c-3.5-5.9-10.2-9.7-17-9.8c2.1,10,2.7,20.3,1.9,30.5c-5.9-6.6-11.9-13.3-17.8-19.9c0.3,7.6,0.5,15.2,0.8,22.8
		c-9-5.2-15.2-14.9-16.1-25.3c-1.4-15.9-14.1-30.1-29.8-33.2c-33.6,32.9-52.8,77.3-78.6,116.4c-32.5,49.3-76.5,90.9-127.5,120.7
		c-14.7,8.6-30.8,16.4-47.8,15.2c19.4-75.5,50.1-148.2,90.7-214.8c9.1-14.9,13.8-32,18.9-48.8c22.7-75,56.4-150.8,118.8-198.3
		c20.7-15.8,45.7-29.9,54.1-54.6c6.1-17.9,2-37.4-2.3-55.8c-3.6-15.5-7.3-31.2-15.7-44.7S839.8,5.8,824,5.3
		c3.6-10.5,18.6-10.6,28.8-6.4c10.2,4.3,21,11,31.5,7.6c29.2-9.5,64.4,5.8,77.4,33.6c9.3,19.8,7.7,42.7,11,64.4
		c5.3,35.8,23.7,68.2,41.7,99.6c11,19.2-0.6,43.1-12.5,61.8C970,316.4,929.1,368,870.7,380.6 M837.4,210.8
		c-6.4,27.6-22.6,51.7-38.5,75.1c9.4-7.9,18.9-15.8,28.3-23.6c-2,9.8-9.7,17.2-16.8,24.1c-79.6,77.5-141.3,173.3-179,277.8
		c4.8-6.6,9.7-13.3,14.5-19.9c-11.9,31.5-22.6,63.4-32.2,95.7c37-9.3,63.3-42,81.3-75.6s30.8-70.5,54.8-100.1
		c-1.6-4.4,1.9-9.9,6.6-10.2c-14.6,43.2-35,84.5-60.7,122.2c19.4,2.5,28.3-26.5,47.1-31.8c34.8-47,63.9-98.2,86.5-152.2
		c-11.3-9.4-28.7-10.4-41-2.5c-4.9,10.8,2.1,22.8,7.2,33.4s7,26.2-3.3,31.9c-1.1-7.3-4-14.4-8.5-20.3c-2.2,8.2-6.1,16-11.3,22.7
		c-5.8-6-9.3-14.4-9.3-22.8c-3.3,4.2-6.7,8.4-10,12.6c-8.3-14.6,5.1-36,21.8-34.9c3.3-7.9,5.2-16.5,5.5-25.1
		c-10.2-3.3-19.6-9.1-27.2-16.7c9.7,0.5,19.1,4.5,26.2,11.2c3.4-8,12-13.5,20.7-13.3c-6.7,2-11.5,9-10.9,15.9
		c30.7-3.6,55.3-26.1,77.6-47.6c-14.6,18.2-32.5,33.6-52.6,45.3c13.7,5.3,29.1,4,43.4,0.6c59.9-14.4,106.2-62.7,138.9-115
		c8.3-13.3,16.1-27.5,17.5-43.1s-5.4-32.9-19.5-39.5c6.6-10.7-4.3-23.1-11.3-33.4c-11.5-16.8-13.7-38.1-15.5-58.4
		c-1.7-20.3-3.5-41.5-14.3-58.8s-33.7-28.9-52-20c3.6,3.7,7.2,7.4,10.9,11.1c-7.6,2.9-16.9,1.1-22.8-4.6c3.4,0.7,6.9,1.1,10.3,1.3
		c-4.4-2.8-8.9-5.5-13.3-8.3c-1.2,2.1-2.4,4.3-3.5,6.4c7.6,7.3,15.2,14.6,22.8,22c-5.5-2.9-11.5-4.8-17.6-5.5
		c9.2,4.1,15.7,13.4,16.5,23.4c3.9-2.2,4.4-8.5,0.9-11.3c6.6,4.5,11,12,11.7,20c0.5,6.2,9.4,8.4,14.6,5.1c5.2-3.3,7.5-9.7,9.4-15.6
		c-6.6,17.4-6.3,37.4,0.9,54.6c-2.4-1.6-4.7-3.2-7.1-4.8c-1.1,2.5-2.1,5.1-3.2,7.6c-3.9-1.9-3.7-7.6-2.1-11.6c1.7-4,4.3-8,3.5-12.3
		c-1.1-5.9-9.1-8.5-14.4-5.6s-7.7,9.3-7.6,15.3c-4.8-27.5-20.1-53-42.2-70.1c12.8,38.3,25.3,81.3,8,117.9
		c-2.5,5.2-4.7,13.1,0.6,15.5c-7.8,4-14.5,10.2-19.1,17.6c1.8-6.8,4.5-13.3,8.2-19.2c-40.1,19.3-72.2,52.6-96.1,90.1
		s-40.3,79.3-55.4,121.1c23.5-34.9,44.6-71.4,63.1-109.1c1.3,3,2.6,6.1,3.9,9.1C800.6,253.3,819,232.1,837.4,210.8 M768.7,444.2
		c0.1,1.1,0.3,2.3,0.9,3.2c0.4,0.6,1,1,1.7,1.1c5.1-9.1,6.9-20,5-30.2C770.7,425.6,767.9,435,768.7,444.2 M923.3,406.8
		c-2.5-2-6.2-1.8-9.1-0.4c-2.9,1.4-5.2,3.8-7.4,6.1c6.8-0.2,13.7,2.4,18.7,7.1c2.5-0.4,2.4-4,1.5-6.3
		C926.2,410.8,925.2,408.3,923.3,406.8 M896.6,426.7c3.7,3.1,6.9,6.6,9.7,10.6c0.5,0.7,1.6,1,2.4,0.6c0.1-2.5,0.1-4.9-0.1-7.4
		c-0.3-2.9-0.9-5.9-2.6-8.2c-1.8-2.3-5-3.7-7.7-2.6C895.5,420.7,894.3,424.8,896.6,426.7 M795.6,437.1c-0.2-4.2-0.7-8.6-2.9-12.1
		c-2.3-3.5-6.9-5.9-10.8-4.3c5.5,5.4,9.5,12.3,11.4,19.7C794.8,441.2,795.7,438.8,795.6,437.1 M892.1,433.8c-0.4-2.3-1-4.8-3-6
		c-1.8-1.1-4.3-0.6-5.5,1.1c1.2,6.3,5.1,12.1,10.5,15.7C893.4,441,892.8,437.4,892.1,433.8 M785.2,414.6c0.2-0.5,0.2-1.1,0.3-1.6
		c0.1-5-0.7-10.1-2.5-14.8c-1,2.8-2,5.5-3,8.3c-0.9,2.4-1.7,5.1-0.7,7.4S784.2,417,785.2,414.6 M845.8,386.7
		c4.6,4.1,10,7.3,15.9,9.3C859.3,389.8,852.4,385.7,845.8,386.7 M766,417.2c-3.4,1.4-7.4,4-6.8,7.6c4.2-0.2,8.3-2.7,10.5-6.3
		C770.4,416.9,767.6,416.5,766,417.2 M884.4,415.5c-0.3,1.5,1.3,3.1,2.8,2.8c0.7-1.5-1.1-3.4-2.6-2.8H884.4z"/>
	<path class="st0" d="M747.6,464.3h0.4"/>
	<path class="st0" d="M911.9,18.7l0.3,0.3"/>
	<path class="st0" d="M931.9,307.7c-2,0.8-4.3,1.6-6.4,1.1c-2.1-0.6-3.7-3.3-2.4-5.1c3.1-4.1,4.5-9.3,3.9-14.4
		c2.4-1.6,4.8-3.3,7.2-4.9c-2.4,5.7-4.8,11.3-7.2,17c-0.5,1.2-1,2.8-0.2,3.8c1.4,1.8,4.6-0.1,6.7,0.9c1.7,0.8,2,3.2,1.4,4.9
		c-0.6,1.8-1.7,3.4-2.1,5.2c-0.7,3.2,1.1,6.3,1.9,9.5c0.8,3.1,0,7.4-3.2,8.1c-2.7-1.2,1.7-7.4-1.3-7.8c-1.7-0.2-1.8-2.6-1.4-4.3
		C929.9,317.1,930.9,312.4,931.9,307.7z"/>
	<path class="st0" d="M805.2,326.8c0.5,0.5,1.6-0.5,1-1C805.7,325.2,804.6,326.2,805.2,326.8z"/>
	<path class="st0" d="M918.2,25.3c3.2,0.5,6.6,0.2,9.7-0.9c4.4-1.5,7.4,6,12.1,6c0.1,7-0.6,15.4-6.6,19c-5.6,3.3-13.4,0.1-16.4-5.6
		C913.9,38.1,915,30.8,918.2,25.3 M926.8,37.9c1.3,1.8,4.6,1.4,5.5-0.6s-1.1-4.7-3.3-4.4C926.8,33.1,925.5,36.1,926.8,37.9z"/>
	<path class="st0" d="M912.5,19.1c-0.5,0.5,0.5,1.6,1,1C914.1,19.6,913,18.6,912.5,19.1z"/>
	<path class="st0" d="M901.1,282.2c-0.3,1.9,2.2,3,4,2.5s3.3-1.8,5.1-2.2c2.5-0.6,5.3,0.8,6.3,3.1c1.3,2.7,5.4,3.5,7.6,1.4
		c0.5,2.1-2.3,3.8-4.4,3.2c-2.1-0.5-3.7-2.3-5.4-3.6c-1.7-1.4-4.2-2.4-6.1-1.2c-6.2,3.8-13.7,5.6-21,5.1
		C891.4,287,896.1,284.2,901.1,282.2z"/>
	<path class="st0" d="M902.9,279.2c0.4-0.8,1.7,0.1,1.5,0.9s-1.2,1.2-2.1,1.2C901.9,280.7,902.2,279.7,902.9,279.2L902.9,279.2z"/>
	<path class="st0" d="M868.8,291.6c0-5.2,4.2-10.1,9.3-10.9c-3.9,5.6-7.4,11.6-10.4,17.8c-1.4,0.1-1.7-2.1-1-3.3
		S868.8,293,868.8,291.6z"/>
	<path class="st0" d="M988.9,172.7c1.1-0.1,2.2,1,2.1,2.2C989.8,174.9,988.7,173.8,988.9,172.7L988.9,172.7z"/>
	<path class="st0" d="M816.6,330.4c1.2,1.3,1.3,3.2,1.1,4.9c-0.4,2.8-1.7,5.5-3.7,7.6c0.9-1.7,0-4-1.6-5.2s-3.6-1.6-5.5-2
		c0.7-2.1,1.8-4.2,3.6-5.5C812.4,329,815.1,328.8,816.6,330.4z"/>
	<path class="st0" d="M893.7,99.2c-1.3-0.8-1.6-2.9-0.5-4c1.5,0.7,1.9,3,0.6,4.1L893.7,99.2z"/>
	<path class="st0" d="M826.4,316.8c0.7,1.9-2.7,3-4,1.4s-0.9-3.8-0.4-5.8c0.8-3.3,3-7.4,6.3-6.5C825.8,308.9,825,313.2,826.4,316.8z
		"/>
	<path class="st0" d="M885.3,18.7c1.3-1.1,3.4,0.1,3.9,1.7C887.8,20.3,886.3,19.7,885.3,18.7L885.3,18.7z"/>
	<path class="st0" d="M991.4,218.5c-0.3-0.7-0.6-1.5-0.6-2.2c0.1-1.5,1.6-2.8,3.1-2.5c4.2,4.3,6.2,10.6,5.4,16.5
		C996,226.8,993.4,222.8,991.4,218.5L991.4,218.5z"/>
	<path class="st0" d="M804.9,327c-0.4,1.9-2.2,3.4-4.2,3.4c0.5-1.8,2.3-3.2,4.2-3.2V327z"/>
	<path class="st0" d="M944.3,198.3c-0.5-1.9-1.1-3.8-1.6-5.7c-0.2-0.8-0.2-2.1,0.6-2.2c3.2,5.2,6.1,10.6,8.8,16.1
		C948,207.3,945.4,202.3,944.3,198.3z"/>
	<path class="st0" d="M896.7,102.8c0.6,1,1,2.2,1,3.4c-2.4-0.4-3.7-3.6-2.3-5.6C896,101.1,896.5,101.9,896.7,102.8L896.7,102.8z"/>
	<path class="st0" d="M937.6,157.5c0.3,0.9,0.5,1.9-0.1,2.6c-1.3,1.8-3.8-0.6-4.6-2.7c-1.3-3.5-2.6-6.9-3.9-10.4
		c0.4-0.7,1.1-1.1,1.9-1.2C934,149.2,936.3,153.2,937.6,157.5z"/>
	<path class="st0" d="M783,344.1c-1-1.6,0.6-4,2.5-3.8c-0.2,1.7-1.2,3.2-2.7,4.1L783,344.1z"/>
	<path class="st0" d="M956.4,205.1c1.1,2.6,1,5.7-0.3,8.2c-1.7-4.6-2.2-9.7-1.2-14.6c0.7,2,1.5,4,2.2,6.1L956.4,205.1z"/>
	<path class="st0" d="M780.1,348.5c-0.2-1.8,0.9-3.6,2.5-4.3c0.2,1.8-0.9,3.6-2.5,4.4V348.5z"/>
	<path class="st0" d="M960.5,175.6c1,1.9,1.7,4,2,6.2c-2-1-4.4-1.4-6.7-1.2c-0.3-2-0.1-4.1,0.7-6
		C957.5,173.3,959.7,174.2,960.5,175.6L960.5,175.6z"/>
	<path class="st0" d="M947.1,35.7c-1.8-0.3-3.4-1.2-4.6-2.5c0.4-1.3,2.1-2.1,3.3-1.6c1.2,0.5,1.8,2.4,1,3.5L947.1,35.7z"/>
	<path class="st0" d="M789.7,332.4c-0.5-1.5,1.6-2.4,3.1-2.6c0.1,2.7,3.6,4.6,5.9,3.2c-2.2,2.7-7,2.3-8.7-0.7L789.7,332.4z"/>
	<path class="st0" d="M776.5,354.3c1.1,2.1-0.6,5-2.9,5.1c0.4-2.1,1.5-4.1,3.2-5.4L776.5,354.3z"/>
	<path class="st0" d="M949.4,167c-0.4-1.9-0.8-3.7-1.3-5.6c3.1,2.8,4.9,6.9,5.1,11.1c-2-1.2-3.3-3.3-3.5-5.6L949.4,167z"/>
	<path class="st0" d="M776.9,354.1c0-2.2,1.2-4.4,3-5.7C780.4,350.7,779,353.2,776.9,354.1L776.9,354.1z"/>
	<path class="st0" d="M979.1,158.5c0.5-0.5,1,0.8,0.4,1.1s-1.3-0.2-1.8-0.7c-1.3-1.3-2.2-3-2.8-4.7c1.8,0.5,3.3,2.1,3.6,4
		L979.1,158.5z"/>
	<path class="st0" d="M974.3,153c-2-1.1-3.5-3.1-4-5.4c2.5,0.5,4.5,2.8,4.6,5.4H974.3z"/>
</g>
</svg>
