<?xml version="1.0" encoding="utf-8"?>
<!-- Generator: Adobe Illustrator 19.1.0, SVG Export Plug-In . SVG Version: 6.00 Build 0)  -->
<svg version="1.1" id="Layer_1" xmlns="http://www.w3.org/2000/svg" xmlns:xlink="http://www.w3.org/1999/xlink" x="0px" y="0px"
	 viewBox="174 -123.6 1190.6 841.9" style="enable-background:new 174 -123.6 1190.6 841.9;" xml:space="preserve">
<style type="text/css">
	.st0{fill:#F9F7F7;}
</style>
<g>
	<path class="st0" d="M736.6,234.4c12.5,3.4,24.8-6.4,32.1-17.2c6.2-9.2,10.7-19.7,13-30.5c-11.1,4.5-22.7,9-34.7,8.7
		s-24.7-6.8-28.5-18.2c-1.9-5.8-2.2-13.3-7.9-15.6c-6.6-2.7-13.1,6.4-11,13.2c2.1,6.8,8.8,11,15,14.6c-10.3,2.9-21.6,2-31.3-2.3
		c0.7,11.8-2.3,23.7-8.4,33.8c-5.2-8.5-9.5-17.6-12.8-27c-5.9,6.7-10.9,14.3-14.7,22.5c-2.3-10.5-7.2-20.4-14-28.7
		c3.3-22.5,15.5-43.6,33.3-57.8c5.7-4.5,12.5-9.6,12.2-16.8c-0.4-8.9,7.4-15.6,13.1-22.5c12.4-15,15.8-36.9,8.5-55
		c1.4,6.2,7.1,11.1,13.4,11.7c-3.8-7.2-7.6-14.4-11.4-21.6c-1.7-3.2-4.6-7-8.1-6.1c-2.4,0.6-3.7,3.3-4.5,5.7
		c-4,12.6-2.4,26.9,4.4,38.3c-12-14.2-12.5-36.8-1.2-51.5c10.2,9.4,20.5,18.9,30.7,28.3c8.4,7.7,21.9,1.6,30.8-5.7
		c8.8-7.2,19.4-16,30.3-12.3c21.1,7.2,43.2,11.5,65.4,12.8c13.6,0.8,26.7,5.7,38.8,12.1c49.8,26.3,83.6,78.2,94.5,133.5
		s0.5,113.4-22.1,165c-4.6,10.5-9.8,21.3-9.2,32.8c0.3,5.6,2,10.9,3.2,16.4c4.4,18.8,3.9,38.5,1.5,57.6
		c-8.6,68.2-45.7,136.9-108.6,164.6c-18.6,8.2-39.5,12.6-59.5,8.9c-20-3.7-39-16.3-47.1-35s-3.3-43,13.3-54.9
		c13.4-9.6,33-9.4,46.2,0.4c13.2,9.8,19.1,28.5,13.9,44.1c-0.4,1.3-1,2.6-2,3.5c-2.9,2.5-7.5,0.3-10-2.6
		c-7.4-8.7-8.7-23.2-19.3-27.4c-8.6-3.3-18.8,3.7-20.8,12.7c-1.9,9,2.9,18.5,10.2,24.2c12.1,9.6,29.8,10,44.1,4.1
		s25.8-17.1,35.5-29.1c31.5-39,48.2-88.9,50.6-138.9c0.5-9.7,0.2-20.2-5.4-28.2s-18.4-11.5-25.2-4.5c-14.8,15.3-42.2,15.9-57.6,1.2
		c-14.9-14.1-33.2-24.5-52.9-30.1c5.4-5.3,12.9-8.4,20.5-8.5c-7.3-6.4-17.2-9.7-26.9-9.1c12.9-20,45.1-23.6,62.1-6.8
		c3.6-14.7,5.3-29.9,4.9-45c-0.2-8.3-6.1-19.7-13.4-15.7c-21.7,11.8-49.9-13.7-72.2-3c-5.1,2.5-9.2,6.6-14.1,9.5
		c-10.1,6.1-23.6,6.4-34,0.7c1.5-3.5,3-7,4.6-10.6c-4.3,1.7-9.7-0.8-11.3-5.1c5.8-13.5,14.6-25.7,25.7-35.4
		c-6.8-9-8.5-21.6-4.4-32.1C717,212.2,722.2,230.5,736.6,234.4 M832.8,271.7c-3.8,2.7-4.1,9-0.6,12.1c2.2-0.4,3.6-2.7,3.7-4.9
		c0.1-2.2-0.8-4.3-1.7-6.4c1.6,3,6.2,3.7,8.6,1.4c2.5-2.3,2.1-6.9-0.7-8.7C838.9,267.3,835.8,269.5,832.8,271.7 M778.6,535.3
		c-19.1,2.8-37.9,18.7-36.2,37.9c0.8,8.5,5.4,16.2,10.1,23.3c4.9,7.5,10.4,15,18.3,19.3c10.4,5.7,23.1,4.9,34.8,2.6
		c32.5-6.3,63.5-22.8,84.3-48.5c2-2.5,3.6-6.8,0.7-8.2c-2.2-1.1-4.6,1-6.5,2.7s-5.3,2.7-6.4,0.5c6.2-6.7,10.1-15.5,10.7-24.6
		c-11.5,10-21.5,21.7-32.3,32.5s-22.7,20.9-36.8,26.8s-30.7,7-44.4,0.3c-13.7-6.8-23.2-22.6-20.1-37.5s20.9-25.8,34.8-19.7
		c12.2,5.4,17.1,19.8,20.5,32.7c1.2,1,2.4-1.4,2.2-3c-1.3-13.4-4.1-29.2-16.3-35.1C790.8,534.6,784.5,534.5,778.6,535.3
		 M849.6,169.4c-15.1,12.1-35.2,15.3-54.3,18.1c-7.3,28.1-31.6,51-60.1,56.5c-6.5,1.3-11.4-5.6-14.1-11.7s-6.4-13.3-13-13.5
		c-0.7,6.2,2.1,12.7,7.1,16.5c3.9,2.9,2,9.4-1.7,12.5c-3.8,3-8.8,4.1-12.9,6.7c-4.1,2.7-7.1,8.4-4.2,12.3c6-3.9,12.7-6.9,19.6-8.7
		c-2.7,8.1-7.4,15.6-13.7,21.4c7.3,2.6,16.3-1.3,19.4-8.3c-1.9,4.5-3.9,9-5.8,13.5c6.9,0,10.5-8.1,16-12.3
		c9.5-7.4,23.1-2.3,34.8,0.6c27.6,6.8,58.5-1.5,78.9-21.2c9.7-9.4,17.1-21,27.2-29.9c3.7,2.7-0.9,8-4.1,11.3
		c-6.7,6.8-7.1,18.8-0.9,26c-16.8,13.8-30.2,32-36.4,52.8s-4.8,44.1,5.6,63.1c-11.7-6.3-15.2-21.4-24.9-30.5
		c-10.7-10-29-10.5-40.2-1c11.3,1.8,21.8,8,28.7,17.1c-8.8-1.8-18.3-0.3-26.2,4.1c15.1,2.2,27.1,13.2,39.5,22
		c12.5,8.8,28.9,15.7,42.5,8.8c0.4-5.7-1.3-11.6-4.7-16.2c8.1-4,17.7-2.5,26.7-2.2s19.4-1.5,24.1-9.2c2.5-4,2.8-9,4.2-13.5
		s4.4-9.2,9.1-9.8c4.7-0.6,9.1,6,5.5,9.1c-9.2,7.8-15.9,18.4-19.1,30.1c-0.5,1.7-0.8,3.8,0.5,5c10,9.5,11.2,24.9,10.5,38.6
		c-1.9,34.4-12.4,67.8-22.9,100.6c7.9-8.1,15.7-16.1,23.6-24.2c-3.5,11.1-7,22.2-10.5,33.3c4.2,5,12.7,4,17.6-0.2
		c5-4.2,7.4-10.7,9.6-16.8c14.2-39.7,28.6-83,15.7-123.2c-3.4-10.6-8.4-22.8-2.2-32c8.4-12.4,12.2-27.3,15.8-41.9
		c10.9-44.3,20.7-91.1,8-135c-3.3-11.4-8-22.3-12.7-33.2c-8-18.5-16.1-37-24.1-55.4c-1.9-4.3-3.7-8.6-6.4-12.5
		c-6-8.9-15.8-15-26.4-16.5c-4.2,15.7-13.1,30.2-25.4,40.9c6.8-12.5,13.5-25,20.3-37.4c-25.5,9.3-48.3,26-64.8,47.5
		c0.8,4.1,1.7,8.2,2.5,12.3c12.6-1.5,24.8-6.4,35-13.9c-18.9,12-37.8,24.1-56.7,36.1c9.7-7.1,15.6-19.1,15.4-31.2
		c-0.2-10.1-4.2-21.4,1.6-29.7c8.8-12.8,33-7.4,39.8-21.3c-9.3,0.8-18.6,2.4-27.6,4.8c2.8-3.8,7.3-6.2,12-6.3
		c-2.2-7.8-13.1-11.4-19.6-6.5c-3.1-7.8-11.9-12-20.3-12.9c-8.4-0.8-16.8,1-25.2,1.5c-11,0.7-22.4-0.7-32.6,3.3
		c-16.9,6.6-25.4,29.1-17.1,45.2c4.9-1.4,5.7-9.6,1.1-11.9c8.5-0.6,12.2,11.1,9.8,19.3c-2.3,8.2-7.7,16-6.2,24.4
		c2.3,12.4-0.1,25.6-6.7,36.4c-2,3.2-4.3,6.3-5.2,10s0.1,8.2,3.5,9.9c1.2-2.1,1.3-4.8,0.1-6.9c7.9,2.3,17.1-3.2,18.9-11.2
		c5.5-0.7,0.7,10.5,5,14c2.1,1.7,5.2,0.6,7.6-0.6c13-6.5,26-13,38.9-19.5c-4.5,3.8-9.1,7.5-13.6,11.3c15.9,1.9,32.4-1.2,46.6-8.6
		C840.3,167.1,847.1,164.9,849.6,169.4 M666.4,176.7c1.5,0,2.3,1.7,2.7,3.2c2,7.4,4,14.8,6.1,22.2c6-6.6,1.8-19.1,8.7-24.8
		c4.2,6.3,12.6,9.4,19.9,7.5c-10.3-9.8-21-19.2-31.9-28.3c8.9-0.2,15-9.1,17.6-17.6c3.4-10.8,3.7-22.5,0.8-33.5
		c-1.3-0.5-2.6,0.8-2.9,2.1c-0.3,1.3,0,2.7-0.1,4c-0.2,2.9-2.1,5.3-4,7.5c-13.2,15.9-25.8,32.3-38.3,48.7c-2.3,3-4.7,6.2-5.2,10
		c7.8-0.6,12.8-12.7,20.2-10.1c-6.7,8.5-10.7,19-11.4,29.8c-0.1,1.7,0.3,4,1.9,4.2c4.5-7.6,8.9-15.2,13.4-22.7
		C664.5,177.9,665.3,176.8,666.4,176.7 M887.4,64.7c-1.4-3.2-5.4-4.2-8.8-4.9c-15.4-2.9-30.8-5.9-46.2-8.8c0.2,2.8,2.8,4.8,5.1,6.5
		c5.5,3.8,11.1,7.6,17.4,9.5C865.5,70,876.8,67.5,887.4,64.7 M943,100c-1.3-2-3.8-4.3-5.8-2.8c7.8,17,15.5,33.9,23.3,50.9
		c0.6,1.3,1.6,2.9,3,2.7c1-1.7,0.5-3.9-0.1-5.8C958.9,129.1,952,113.9,943,100 M715.6,147.8c5,0.7,8.4-4.8,10.5-9.4
		c1-2.2-2.5-3.4-4.9-3.8c-4.1-0.7-7.8-3.3-9.9-6.8c-1.6,1.2-1.9,3.4-2.1,5.4c-0.2,2.9-0.5,6,0.4,8.8
		C710.5,144.7,712.7,147.4,715.6,147.8 M855.4,259.4c-0.3-1.5,0.4-3,0.4-4.6s-1.3-3.4-2.8-2.8c-0.4,0.2-0.7,0.5-1,0.8
		c-1.1,1.2-2.1,2.3-3.2,3.5c-1.4,1.5-2.8,3-3.4,4.9c-0.7,1.9-0.4,4.3,1.2,5.5c1.6,1.3,4.5,0.6,4.8-1.4c0.4-2.1-1.6-5.2,0.5-6
		C853,259.4,854.2,259.4,855.4,259.4 M860.4,257.8c2.4-4.3,2.2-9.9-0.4-14.1C856.2,247.3,856.4,254.3,860.4,257.8 M709.5,93.7
		c-3.3-0.5-6.7,2.4-6.6,5.8c2.9-0.7,5.4-2.7,6.8-5.3 M706.2,79.6c-2.1,0.5-2.9,3.6-1.3,5c1.3,0.3,2.8-0.6,3.1-1.9
		C708.3,81.4,707.4,79.9,706.2,79.6 M724.2,116.4c-1.3-0.9-2.7,0.8-3.3,2.2c0.6,1.1,1.5,1.9,2.6,2.4c1.1-0.6,1.9-1.5,2.4-2.6
		c-0.3-0.8-0.9-1.5-1.7-1.8 M707.8,113.6c1.8-0.5,2.2-3.4,0.6-4.4c-1,0-1.9,0.4-2.6,1.1C705.8,111.7,706.6,113.1,707.8,113.6
		 M720.9,45.2c-0.7,0.8-0.1,2.2,1,2.5c1,0.3,2.2-0.2,2.9-1c0-1-0.5-2-1.2-2.6C722.6,44.1,721.7,44.6,720.9,45.2 M977.9,253.5
		c-1.8,0-2.4,3-0.7,3.7c0.9,0.2,2-0.3,2.5-1.1C980,255,979.1,253.7,977.9,253.5 M643.3,188.8c0.6-1.5-1.6-3-3.1-2.2
		c0.2,1.2,0.4,2.3,0.6,3.5c1,0,2-0.5,2.6-1.2 M740.8,113.6c-0.3-0.7-1.5-0.5-1.8,0.2s-0.1,1.5,0.2,2.2c1-0.3,1.8-1.4,1.8-2.4
		 M802.1,278.5c0.7-0.1,0.4-1.5-0.3-1.3C801.1,277.4,801.4,278.7,802.1,278.5 M859,51.7c0.4-0.6-0.7-1.3-1.1-0.7
		C857.5,51.5,858.6,52.3,859,51.7z"/>
	<path class="st0" d="M781.9,100.8c1.4-1.8,3.1-3.7,5.3-4.1c3.2-0.6,6.1,2,8.3,4.5c4.4,5.2,8.1,11,10.9,17.2
		c2.1,4.6,3.8,9.8,2.7,14.8c-1.3,5.8-6.1,10.3-11.4,13.2c-4.1,2.2-8.8,3.7-13.4,3.3c-4.7-0.4-9.3-2.8-11.5-6.9
		c-2.4-4.5-1.6-10.1,0.7-14.6c2.4-4.5,6.1-8.1,9.8-11.5c-4,1-8,2-11.9,3.1C774,112.9,777.5,106.5,781.9,100.8 M785.2,133.1
		c0.4,1,0.9,1.9,1.3,2.9c1.2-0.6,2.4-1.2,3.6-1.8c1.3-1.4,0.5-4.1-1.3-4.6s-3.8,1.6-3.3,3.4L785.2,133.1z"/>
	<path class="st0" d="M780.2,153.5c-0.7,2.1-3.2,3.4-5.3,2.8c1.8,1.9-0.3,5.1-2.6,6.3c-2.3,1.3-5.3,2.3-5.9,4.9
		c-2.9-0.6-4.1-4.3-3.3-7.2c0.8-2.9,2.8-5.1,4.3-7.7s2.4-5.9,0.8-8.4C772.2,147.4,776.2,150.4,780.2,153.5z"/>
	<path class="st0" d="M883.9,228.1c0.3-1.5,0.6-3.1,1.6-4.3c0.9-1,2.3-1.5,3.6-1.2c0.3,7-0.5,14-2.2,20.8
		C882.5,240.1,882.9,233.5,883.9,228.1z"/>
	<path class="st0" d="M865.9,119.2c-0.4-0.7,0.9-1.5,1.3-0.8C867.7,119,866.4,119.9,865.9,119.2L865.9,119.2z"/>
	<path class="st0" d="M869,116.1c0.6-0.6,1.1-1.2,1.7-1.8c0.6,1-0.5,2.4-1.6,2.1L869,116.1z"/>
	<path class="st0" d="M699.2,67.7c-0.8-0.5,1-1.7,1-0.8c0.6,0.6-0.8,1.6-1.2,0.9L699.2,67.7z"/>
	<path class="st0" d="M872.9,243.1c1.6,1.7,2.3,4.3,1.7,6.6c-1.5-0.9-3.4-1.2-5.2-0.7c-0.9-1.4-1.2-3.2-0.8-4.9c1,0.3,2,0.6,3,0.9
		c0.5-0.7,1-1.4,1.4-2L872.9,243.1z"/>
	<path class="st0" d="M696.4,64c-0.2-0.8,1.5-0.4,1.3,0.4C697.8,65.3,696.2,64.8,696.4,64L696.4,64z"/>
	<path class="st0" d="M879.5,245c-2-0.5-2-3.4-1.5-5.4c2.2,0.7,3.2,3.9,1.7,5.7L879.5,245z"/>
	<path class="st0" d="M873.1,242.8c-1.3-1.2-1.3-3.5-0.1-4.7c0.8,1.5,0.8,3.4,0.1,4.9V242.8z"/>
	<path class="st0" d="M759.6,167.6c1-0.6,2.4,0.3,2.5,1.4c0,1.1-1.5,2-2.4,1.4c-0.5-0.8-0.4-1.9,0.1-2.6L759.6,167.6z"/>
	<path class="st0" d="M738.2,86.9c-0.8-0.4-1.6-0.8-2.4-1.2c0.4-0.8,0.7-1.6,1.1-2.4c1.5,0.1,2.4,2.3,1.4,3.4L738.2,86.9z"/>
	<path class="st0" d="M872.7,254.1c0.3,1.4-2,2.4-2.8,1.2c0.1-1,0.1-1.9,0.2-2.9C871.2,252.4,872.2,253.1,872.7,254.1L872.7,254.1z"
		/>
</g>
</svg>
