<?xml version="1.0" encoding="utf-8"?>
<!-- Generator: Adobe Illustrator 19.1.0, SVG Export Plug-In . SVG Version: 6.00 Build 0)  -->
<svg version="1.1" id="Layer_1" xmlns="http://www.w3.org/2000/svg" xmlns:xlink="http://www.w3.org/1999/xlink" x="0px" y="0px"
	 viewBox="-122 -123.6 595.3 841.9" style="enable-background:new -122 -123.6 595.3 841.9;" xml:space="preserve">
<style type="text/css">
	.st0{fill:#FFFDFD;}
	.st1{fill:#FFFFFF;}
</style>
<path class="st0" d="M-24.1,162.2c0.2,1.5,1.9,2.6,3.3,2.1c0.2-0.9,0-1.9-0.5-2.7C-22.3,161.5-23.3,161.7-24.1,162.2L-24.1,162.2z
	 M59.3,134.6c0.2-1.1-0.3-2.2-1.3-2.7c-0.8,0.1-1.6,0.6-2,1.2C55.9,134.7,58.2,135.8,59.3,134.6 M-0.4,172.4
	c1.1,0.4,2.4,0.8,3.4,0.2c1.2-0.7,1.3-2.6,0.5-3.8c-0.8-1.2-2.2-1.8-3.5-2.3c-4.3-1.5-8.9-1.9-13.4-1.2c-0.7,1.7,1.4,3.1,3.1,3.7
	C-7,170-3.7,171.2-0.4,172.4 M407.7,193.8c-0.2-1.2-1-2.2-1.7-3.1c-2.3-2.9-4.6-5.9-6.9-8.8c-1.1-1.4-3.4-2.8-4.4-1.3
	c1,10.1,3.4,20,6.9,29.5c1.7-4.1,3.4-8.2,5.1-12.2C407.4,196.5,407.9,195.2,407.7,193.8 M336.5,201.8c-1.1,1.8-2.2,3.7-3.3,5.5
	c-0.6,1-1.2,2.1-0.8,3.2c0.3,0.9,1.1,1.5,1.9,2c7.9,5.5,14,13.8,16.7,23c1.3,0.2,1.7-1.6,1.5-2.9c-1.4-11-4.8-21.7-10.2-31.4
	c-0.5-0.9-1-1.8-2-2.1C338.8,198.7,337.4,200.4,336.5,201.8 M408.6,235.8c4.2-7.7,1.9-18.4-5.3-23.6c-0.7,0.4-1.4,0.8-2.2,1.1
	c4,14.2,3.5,29.4,0.3,43.7c-3.2,14.4-9.1,28-15.8,41.1c10-4.6,13.4-16.9,15.6-27.7c1.4-6.9,11.8-10.6,10.3-17.5
	c-0.8-4-5.7-6.5-5.8-10.6C405.7,240,407.4,237.9,408.6,235.8 M346.5,125.7c-1-1.1-2.5-1.5-3.8-2c-14.7-4.7-29.8-9.4-45.1-8
	c34,7.4,65.2,27,86.6,54.4c1.4,1.7,3.8,3.6,5.4,2.2c2.2-3.4-1.5-7.5-4.9-9.6c-6.5-3.9-14.8-8.2-14.9-15.8c0-4.4-5-6.9-9.3-7.9
	s-9.3-2-11.3-5.9C348,130.6,348.3,127.6,346.5,125.7 M161.3,217.3c-11.5,4.6-23.8,7.3-36.2,7.9c-1,5-0.4,10.3,1.6,15.1
	c1.3,3.1,3.2,6.8,1.2,9.5c-5.8,7.7-9.4,17.1-10.2,26.7c-0.2,2-0.1,4.2,1.2,5.7s4.3,1.4,4.8-0.5c0.8-2.8,1.7-5.9,4.1-7.6
	c2.4-1.6,6.7-0.5,6.8,2.4c1.8-0.6,2.5-2.7,2.5-4.6s-0.6-3.7-0.3-5.5c0.9-5.7,9.1-8.1,9.8-13.8c1.3-9.8,5.6-19.2,12.2-26.5
	C161,223.6,163.6,219.7,161.3,217.3 M261.1,206.5c5.2,0.5,10.1,2.6,15.3,3.2c5.2,0.5,11.3-1.2,13.4-5.9c1.4-3.2,0.8-6.8,1.3-10.3
	c0.4-3.4,2.9-7.3,6.3-6.9c-2.2,17.2-2.9,37.9,11.1,48.1c4.1,3,9.2,4.7,12.3,8.7c3.2,3.9,2.7,11.4-2.3,12.4
	c5.7,0.8,11.1,3.6,15.2,7.7c6.9-9.3,11.6-21.4,8.3-32.5c-3.4-11.1-17.3-19-27.2-13c9.6-7.4,16.5-18.1,19.4-29.9
	c15,6.6,23.3,23.7,23.9,40.1c0.7,16.4-4.9,32.4-10.8,47.7c-14,36.2-30.8,72.5-32.4,111.3c-1.7,38.8,16.4,81.7,52.7,95.3
	c-17.1-13.1-27.6-34.3-27.8-55.8c-0.1-7.1-2.9-13.9-4.9-20.8c-5.3-18.7-3.8-39.2,4.3-56.8c3.5-7.7,8.3-16.2,4.9-23.9
	c4.8-4.5,9.6-9.1,14.5-13.6c-5.3-3.1-2.4-11.3,1.6-15.8c4.1-4.5,9.2-10.3,6.7-15.8c-5.3-11.8,4-27.5,16.9-28.5
	c-3,7.2-8.2,13.3-14.8,17.4c7.7,10,3.7,26.7-7.7,32.1c5.9,7.7,0.9,20.9-8.6,22.9c-0.5,10.1-4.7,19.5-8,29.1c-1.6,4.6-3,9.3-4.3,14
	c-3.6,13.7-5.4,29,1.1,41.6c0.6-26,6.1-52.1,18.1-75.2c5.5-10.5,12.2-20.3,18.1-30.6c18.3-31.9,28.1-71.2,15.5-105.8
	c-8.7-23.8-27.3-43.2-49.1-56.3c-21.7-13.1-46.5-20.3-71.4-25.1c-13.4-2.6-27.3-4.5-40.6-1.6c-10.7,2.4-21.4,4.7-32.1,7.1
	c-14.4,3.2-28.9,6.4-42.7,11.6c-13.6,5.2-26.5,12.3-40.8,14.8c-14.3,2.4-31-1.2-38.8-13.3c-4.3,1.7,0,8.1,4.2,10.1
	c-1.6,6.3-10,7.8-16.3,6.5s-12.8-4.3-19-2.6c-35.6,9.9-75.1,4.7-106.9-14c-0.7,11.1,13,16.7,24,18.9c29.9,6,59.9,12.1,89.8,18.1
	c4.1,0.8,9.2,2.6,9.7,6.8c0.3,2.1-0.8,4.1-1.9,6c-18.1,30.2-52.6,49.9-87.8,50.1c-4,0-8.9,0.4-10.5,4c17.7,4.8,36.6-1,53-9.3
	s31.5-19.2,48.7-25.6c-2.5,5.6-6.8,10.3-12.2,13.2c4.5,6.7,14.4,7.6,21.9,4.7s13.4-8.8,19.6-14c9.6-8,20.4-14.6,31.9-19.6
	c-9-9.8-18-19.6-27-29.4c8.3,2.8,16.9,5.8,23.1,12.1c6.1,6.3,8.8,16.8,3.6,23.9c-8,10.8-29.9,9.3-31,22.7
	c20.8,3.6,42.3,2.8,62.8-2.3c-0.3-4.6-0.5-9.2-0.8-13.8c4,8.3,9.8,15.7,16.9,21.7c-17.5,9.3-25.1,33.5-16,51.1
	c0.7-7.4,11.3-11.4,16.7-6.5c6.5-11.1,13-22.3,19.5-33.4c3.4-5.8,6.9-12.4,5.5-19c-2-8.9-12.6-16.9-8.2-24.9
	c6.2,14.9,22.8,24.6,38.8,22.9C239.8,211.3,250.2,205.4,261.1,206.5 M-28,224.2c1.7-6.9,11.3-10.3,17-6c0.5-4.2,3.3-8,7.1-9.8
	c12.4-5.6,23.4-14.5,31.5-25.5c-9.1,19.9-26.3,36-46.7,43.9c9.1,7.2,23-13.9,31.6-6.1c-0.8-5.3,3.9-10.8,9.2-10.8
	c2.4,0,5.8,0.4,6.4-2c1.1-4.6,5.4-7.6,9.6-9.4c4.3-1.9,9-3.1,12.6-6s5.9-8.4,3.4-12.3s-10.4-2.5-10,2.2c-2-2.8-4-5.7-6.1-8.5
	c-3.3,0.9-6.7,1.8-10,2.7c-3.5-6.8-14.3-8.2-19.4-2.4c5.9-0.4,11.8,1.1,16.8,4.2c-14.7,0.7-29.6-2-43.1-7.8
	c-8.2-3.5-17.8-8.1-25.3-3.3c-2.1-3.6-4.1-7.3-6.2-10.9c-2.3,0.2-4.5,0.3-6.8,0.5c-4.3-4.9-8.9-10.5-9-17.1s7.4-13.2,13-9.7
	c27.8,17.3,63.4,21.4,94.4,10.7c-2.7-7.4,3.8-15.5,11.3-17.7c7.6-2.2,15.6-0.1,23.2,1.9c4.9,1.3,10.6,3.5,11.8,8.4
	c2.1,8.7,14,9.9,22.7,8.2c35.2-6.8,66.1-28.9,101.3-35.4c16.3-3,33-2.5,49.5-1.9c37,1.4,77,4.7,104.8,29.2
	c9.5,8.4,16.9,18.7,24.3,29c6.6,9.2,13.1,18.4,19.7,27.5c2.4,3.4,4.6,8.6,1.3,11.1c-5.6,4.3,2.4,12.1,4.3,18.9
	c2.4,8.7-6.5,18.9-1.2,26.2c2.1,3,1.4,7,0.3,10.5c-8.5,28.5-30.5,50.6-45.4,76.3c-16.8,29.1-24.4,63.4-21.5,96.8
	c0.9,10.8,3,21.6,7.7,31.3c5.3,11,14,20.4,24.6,26.5c-9.4,6.7-22.5,0.8-31.4-6.5c-22-18-36.8-44.6-40.4-72.8
	c-6.7-51.7,22.3-100.3,37.1-150.2c-5.2,6.9-10.4,13.8-15.6,20.7c-4-5.2-6.1-11.8-6-18.4c-2.8,3.1-6.1,6.5-10.3,6.5
	c-4.2-0.1-7.5-6.3-3.9-8.5c5.4-3.3,4.6-11.7,0.7-16.7c-3.9-4.9-9.9-7.8-14.5-12s-8-11.4-4.7-16.7c-28.7,1.9-57.6,2.6-86.3,1.9
	c6,20.3-28.2,37.6-20.2,57.3c-6.2,1.6-13,1.1-19-1.3c3.7,5-4.1,11.7-9.9,9.7s-8.7-8.4-11-14.1c-3.7,4.3-4.2,11-1.2,15.8
	c-4.4,1.3-9.2,0.9-13.3-1.1c-3.4,2.7-1.6,8.1,0.5,11.9c-8.2,4-17.7-5-18.5-14.1s3.7-17.7,6.6-26.4c2.8-8.7,3.5-19.5-3.3-25.7
	c-16.7-12.1-41.5,5.6-60.4-2.7c-13.6-6-28.2,4.5-41.4,11.3c-9.9,5.2-20.9,8.4-32,9.6c-7.1,0.7-15,0.4-20.5-4.3
	c-5.5-4.6-6.4-14.8-0.1-18.3C-34.9,223.3-31.4,223.7-28,224.2"/>
<path class="st1" d="M376.9,230.8c-2.1-5.3-4.1-10.7-6.2-16c-2.7-7.1-5.5-14.3-5.9-21.9c-0.4-8.7-11.3-12.1-17.6-18.2
	c-6-5.7-8.6-14.9-16.2-18.3c-6.4-2.8-16-1.5-18.5-8.1c-1.5-4-7-4.5-11.2-3.8c-4.2,0.8-9,2.1-12.5-0.4c-14.5-10.6-34.5-3.9-52.4-1.6
	c-25.2,3.1-52.2-3.5-75.5,6.7c-3.6,1.6-7.7,3.5-11.3,1.9c-6.2-2.9-13.8-2.8-19.9,0.3c-1.8-5.3,5.2-9.7,10.8-9.4
	c5.6,0.3,11.3,2.8,16.7,1.1c15-4.7,30.8-7,46.6-6.7c12,0.2,24.2,1.8,36-0.2c5.5-0.9,10.9-2.7,16.5-3.3c20.8-2.3,42.4,11.1,62.1,3.8
	c-1.7,7.2,6.2,12.8,13.1,15.3c7,2.4,15.4,4.9,17.6,12c2,6.5,8.5,10.3,13.9,14.4s10.5,10.8,8.2,17.2c-1.3,3.5,1.1,7.2,3,10.5
	c5.2,8.7,7.5,19.1,6.7,29.2c-0.4,4.2,0.3,8.5,1.8,12.5C375.6,246.6,371.9,236.2,376.9,230.8"/>
</svg>
