<?xml version="1.0" encoding="utf-8"?>
<!-- Generator: Adobe Illustrator 19.1.0, SVG Export Plug-In . SVG Version: 6.00 Build 0)  -->
<svg version="1.1" id="Layer_1" xmlns="http://www.w3.org/2000/svg" xmlns:xlink="http://www.w3.org/1999/xlink" x="0px" y="0px"
	 viewBox="-114 -98.7 612 792" style="enable-background:new -114 -98.7 612 792;" xml:space="preserve">
<style type="text/css">
	.st0{fill:#FFFFFF;}
	.st1{fill:#FCFCFC;}
</style>
<g>
	<path class="st0" d="M204.1,146.1L204.1,146.1"/>
	<path class="st0" d="M210.8,146.6c-0.4,0.4,0.4,1.1,0.8,0.7C211.9,146.8,211.1,146.2,210.8,146.6z"/>
	<path class="st0" d="M137.6,341c-7.4-0.4-14.8-0.9-22.1-1.3c10.7-1,21.5-1,32.2,0.1c-7.4-5.4-17.5-6.8-26.1-3.8
		c1.7-2.3,5.1-3.3,7.8-2.3c1.8-1.7-2-3.7-4.5-3.3c-27.2,4.1-54.8,8-82.3,6.2c-27.5-1.7-55.3-9.4-77.1-26.3
		c-8.4-6.5-16.2-15-18.3-25.4c-2.3-12,3.3-24.1,10.6-33.9c13.3-17.9,32.8-31.2,54.3-37c7.8-2.1,16.2-3.2,23.8-0.7
		c9.8,3.3,18.7,12.5,28.6,9.7c-4.1-3.8-6.7-9.1-7.2-14.7c4.1,8.5,11.4,15.4,20.1,19.2c7.3,3.2,16.4,4.8,20.2,11.8
		c-21.1-9.1-42.9-16.2-64.7-23.4c-6.7-2.2-13.9-1-20.7,0.9c-19.8,5.5-37.8,17.5-50.6,33.6c-7.8,9.9-13.9,22.5-11.2,34.9
		C-47,297-37,305.7-26.9,312.1c23.6,15,51.6,22.9,79.5,22.6c23.7-0.3,47.3-6.4,71-5.1s49.4,12.6,57.3,35c0.7,1.9,1.2,4,0.3,5.8
		c-0.9,1.8-3.7,2.6-4.9,1c-8.5-12.1-21.5-21.1-35.9-24.7c-22.9-5.8-46.8,1.7-70.1,5.3c-26.7,4.2-54.1,3.3-80.5-2.7
		c-8.2-1.8-16.4-4.2-23.8-8c-17.5-9-30-25.8-38-43.8c-4.3-9.5-7.5-19.7-7.4-30.1c0.1-11.1,3.8-21.8,8.3-32
		c10.4-23.8,26.4-47,50.4-56.9C-42.5,192.9-60,213.9-70.2,238c-3.4,8-6,16.4-6.3,25.1c-0.5,14.5,6,29.1,17,38.4
		c2.1-10.7-12.4-20.6-8.2-30.7c3.5,8,6.9,15.9,10.4,23.9c1.2,2.7,2.2,6.3,0.1,8.4c-2.8,2.6-7.3-0.4-9.1-3.8s-3.1-7.7-6.7-8.9
		c8.7,17.4,18.1,35.6,34.6,45.8c7.9,4.9,16.9,7.6,26,9.7c24.1,5.8,49.2,8.3,73.9,5.1c15.3-1.9,30.3-6,45.6-7.9s31.5-1.5,45.4,5.2
		c6.1,2.9,12.1,7,18.8,6.4c-3.7-2.5-7.3-5-11-7.5c1.4,0.3,2.3-1.8,1.4-3c-0.8-1.2-2.4-1.5-3.9-1.7C151,341.8,144.3,341.4,137.6,341
		 M170.9,357.3c-0.9-0.5-2,0.7-1.8,1.7c0.1,1,1,1.8,1.8,2.4c2.7,2.3,5.3,4.5,8,6.8C179.8,363.4,175.2,359.5,170.9,357.3z"/>
	<path class="st0" d="M289.5,339.2c-0.7,0.2-1.4,0.1-2-0.3c1.2-0.6,2.7-0.6,3.9,0C290.9,339.3,290.2,339.4,289.5,339.2L289.5,339.2z
		"/>
	<path class="st0" d="M126.9,232.7c51.4-10.1,103.4-17.1,155.6-21c-2.8-6.7-2.5-14.7,0.9-21.1c-3.3,16.6,8,32.4,18.9,45.3
		s23,27.7,21.4,44.6c0.5-5.4,0.9-10.9,1.4-16.3c3.3,1.6,6.1,4,8.3,7c-1.4-3.2-2.8-6.4-4.2-9.6c4.6-0.3,9.2-0.5,13.8-0.8
		c-9.2,0.6-17.7-5.7-22.4-13.5c-4.8-7.9-6.5-17.1-8.1-26.2c-2.4-13.2-4.8-26.5-7.2-39.7c2.5,3.5,4.5,7.4,5.9,11.6
		c9.1-7.6,18-15.4,27.4-22.6c14.1-10.9,29.2-20.4,44.2-29.9c10.2-6.5,20.5-13,31.9-17c14.9-5.3,32.1-6.6,43.8-17.3
		c-15.7-3.3-31.3-6.5-47-9.8c-6.6-1.4-13.4-2.8-20.1-2.2c-18.1,1.7-31.3,16.8-44.8,29c-12.9,11.6-27.5,21.1-43.3,28.3
		c-2.8,1.3-5.9,2.5-8.8,1.6s-4.9-4.8-2.9-7.1c-51.2,3.2-104-11.6-153.3,2.5c-13.3,3.8-26.1,9.7-39.8,11.3c-11,1.3-22.1-0.2-33.1-0.6
		c-26-0.9-52.2,4.5-75.7,15.6c17-12.4,38.7-16.1,59.7-17.2s42.2,0,62.8-4.1c13.5-2.7,26.5-7.6,40-10.5c40.9-8.8,83.2,1.7,125,1.3
		c12.7-0.1,25.7-1.4,37.1-6.8c24.2-11.6,38.5-40.7,64.7-46.3c11.1-2.4,22.7,0,33.8,2.4c10,2.1,20.1,4.3,30.1,6.4
		c5.5,1.2,11,2.4,15.9,4.9c6.8,3.5,15.2,3.4,21.9-0.3c-1.1,2.2-1.8,4.6-2.1,7c-24.7-0.4-48.6,8.2-70.8,18.9
		c-34,16.3-65.7,37.8-93,63.9c-1.9,1.8-1.9,4.8-1.8,7.5c0.7,13.6,1.5,27.8,8.3,39.6c6.4,11.1,18.1,19,30.8,20.9
		c-5.1,3.8-12.5,4.3-18.1,1.2c2.6,4.8,4.1,10.2,4.2,15.6c-4.7-2.5-8.6-6.3-11.1-11c1.8,6,1.4,12.6-1.1,18.3
		c-5.7-2.5-5.7-10.4-6.7-16.6c-3.4-22.4-28.1-35.4-35.9-56.6c-16.8,7.5-36.2,3.6-54.6,4.7c-25,1.6-48.7,12.8-73.7,13.7
		c-9.7,0.3-19.9-0.9-28.9,3c-8.9,3.9-15.4,15.6-9.7,23.5c5.5,7.6,17,6.1,26.1,3.8c-4.6,4.7-10.8,7.7-17.2,8.5
		c5.2,1.3,10.2,3.1,14.9,5.5c1.6,0.8,3.3,1.8,3.8,3.5c1.3,4.4-5.9,5.9-10,3.9s-9.4-5-12.6-1.7c6.9,4,14.3,8.7,16.5,16.3
		c-14.1-2.3-27.6-8.3-38.9-17.1c-1.7-1.3-3.4-2.9-4.1-4.9c-3.8-12.4-5.7-25.3-5.5-38.3c2.4,10.5,4.7,21,7.1,31.5
		c0.6,2.5,1.2,5.2,2.8,7.2c1,1.3,2.4,2.3,3.7,3.3c9.4,6.7,19.9,11.7,31,15c-7.5-3.1-13.5-9.8-15.7-17.6c7.9,1.3,15.9,2.6,23.8,3.9
		c-7.2-3.5-14.4-7-21.6-10.5c3.7-2.2,7.4-4.3,11.1-6.5c-6.2,4.9-16.9,1.8-19.5-5.7c-5.3-15,18.8-30.5,10.8-44.3
		c-2.4-4.2-7.1-6.3-11.2-8.9c-5.6-3.6-10.5-8.3-14.2-13.9c8,4.5,16.2,9.1,22.3,15.9C125.8,214.2,129.5,223.9,126.9,232.7
		 M303.3,149.2c18.2-7.3,33.2-20.5,48-33.4c7.1-6.3,14.3-12.5,21.4-18.8c-25.5,10.5-40,40.5-66.6,47.6c-4.5,1.2-9.4,1.8-13.2,4.4
		C295.5,151.5,299.9,150.5,303.3,149.2L303.3,149.2z"/>
	<path class="st0" d="M259.8,148.9c0.7,0.5-0.6,1.3-1.4,1.1c-1.7-0.2-3.4-0.5-5.1-0.7C255.1,147.8,257.9,147.6,259.8,148.9
		L259.8,148.9z"/>
	<path class="st0" d="M345.5,144.1c15.8-10.9,29.7-24.6,46.6-33.6c1.7-0.9,4.4-1.5,5.3,0.3c-11.9,7.2-23.1,15.8-33.2,25.4
		c-7.3,7-14.2,14.5-22.6,20.1c-7.6,5-16.3,8.2-24.9,11.3c-8.1,3-16.3,5.9-24.4,8.9c-0.9,0.3-1.9,0.7-2.8,0.5c-2.4-0.5-2.9-4-1.4-5.9
		s4-2.6,6.3-3.2C312.6,162.9,330,154.9,345.5,144.1 M346.2,146.4c-4.1,2.8-8.3,5.7-12.6,8.1c-12.4,7-26.3,10.6-39.4,16.1
		c-1.9,0.8-3.9,1.9-4.3,3.8c2,0.2,3.9-0.8,5.7-1.6c10.5-5,21.8-8,32.5-12.5s21.1-10.7,27.5-20.4
		C352.4,142.1,349.3,144.3,346.2,146.4z"/>
	<path class="st0" d="M107.4,337.8c-2-1.2-4.3-1.9-6.6-2.1c3.3-2.5,8.7-1.4,10.7,2.3c-2.6,2.9-6.7,3.6-10.6,4
		c-6,0.7-12.1,1.2-18.1,1.5C88.5,337,100.5,343,107.4,337.8z"/>
	<path class="st0" d="M302.6,162c-2.3,0.9-5,1.9-7.3,0.8s-2.8-5.1-0.4-5.8c15-4.1,29.2-11.3,41.4-21c9.2-7.4,17.3-16.1,27.1-22.7
		c10.8-7.3,23.2-11.7,35.9-14.9c1.9-0.5,4-0.9,5.6,0.2c1.6,1.1,1.3,4.3-0.6,4.3c-13.4,0.1-25.7,7.3-36.1,15.8
		c-10.3,8.5-19.4,18.6-30.4,26.2C326.9,152.4,314.7,157.2,302.6,162 M302.7,159.3c20.2-7,38.8-18.6,54-33.8
		c4.5-4.5,8.8-9.4,14.4-12.3c2.7-1.4,5.9-2.6,7.2-5.4c-11.2,2.7-19.4,11.9-27.9,19.6c-15.7,14.4-34.5,25.3-54.7,31.9
		C297.6,160.8,300.4,160.1,302.7,159.3z"/>
	<path class="st0" d="M-8.9,185.1c-12,6.2-19.1,19.2-30.4,26.7c-2.2,1.5-5.2,2.6-7.2,1c-2.6-2.2-0.5-6.4,1.7-9
		c8.9-10.2,19.4-18.9,31-25.9c1-0.6,3.1-0.4,2.6,0.7c-4,3-7.9,6-11.9,9.1c-7.8,6-15.9,12.1-21,20.5c-0.5,0.9-1,2.2-0.2,2.9
		c0.7,0.6,1.8,0.1,2.6-0.4c11.6-7.9,19-21.4,31.6-27.3C-9.7,183.8-9.3,184.5-8.9,185.1z"/>
	<path class="st0" d="M70.6,345.8c1.5-0.2,3.6-1,3.2-2.5c-4.8-0.5-9.5-1.1-14.3-1.6c0.3-2.3,3.5-2.6,5.8-2.2
		c3.6,0.6,7.3,1.1,10.9,1.7c0.8,0.1,1.7,0.3,2.1,1c0.8,1.3-0.7,2.7-2.1,3.4c-7.2,3.5-15.5,4.8-23.4,3.6c-0.7-0.1-1.6-1-1-1.4
		C58.1,347.1,64.3,346.4,70.6,345.8z"/>
	<path class="st0" d="M34,344.8c2,0,4.7-0.5,4.8-2.5c-8-1.5-16.1-2.9-24.1-4.4c6.9-1.7,14.2-0.3,21.1,1.2c2.9,0.6,6.6,2.2,6.1,5.1
		c-0.4,2.4-3.5,3.2-5.9,3.4c-4.8,0.4-9.6,0.5-14.4,0.3c-2-0.1-4.7-1.5-3.7-3.2C23.3,344.7,28.6,344.8,34,344.8z"/>
	<path class="st0" d="M30.4,180.6c-10.5,5.7-22.6,8.6-31.8,16.2c0.9,1.2,2.8,0.7,4.2,0.1c12.7-5.8,26-10.3,39.5-13.5
		c1.2-0.3,2.9-0.1,2.9,1.1c0,0.9-1.1,1.3-1.9,1.5c-15.1,3.7-29.9,8.6-44.2,14.8c-2.3,1-4.5-2.2-3.6-4.6c0.8-2.3,3.3-3.6,5.5-4.6
		c10.1-4.8,20.2-9.6,30.2-14.4c0.8,0.1,1.2,1.1,0.9,1.9C31.8,179.7,31.1,180.2,30.4,180.6z"/>
	<path class="st0" d="M136.5,155.9c-12,2.8-23.9,6-35.6,9.8c0.1,2.5,3.7,2.8,6.2,2.3c13.4-3.1,26.7-6.7,39.8-11
		c2.6-0.8,5.7-1.5,7.6,0.4c-15.1,5.2-30.4,9.9-46.1,13.3c-2.4,0.5-5,1-7.2,0.1c-2.3-0.9-4-3.7-2.8-5.9c0.8-1.5,2.6-2,4.2-2.5
		c14.2-4.1,28.3-8.1,42.5-12.2C144.2,153.7,140,155.1,136.5,155.9z"/>
	<path class="st0" d="M279.4,158c-3.2,1.7-7,1.9-10.6,2c-2.9,0.1-5.9,0.3-8.8,0.4c-0.5,0.9-0.6,2-0.3,3c8.6-0.9,17.2-1.8,25.8-2.6
		c1.4-0.1,3.6,0.9,2.7,2c-0.3,0.4-0.9,0.5-1.3,0.5c-7.4,0.8-14.8,1.7-22.3,2.5c-2.2,0.3-4.7,0.4-6.6-0.8c-1.8-1.3-2.1-4.7,0-5.5
		C264.8,156.9,272.3,156.4,279.4,158z"/>
	<path class="st0" d="M-29.1,333.1c-2.6,2.7-7.2,1.1-10.4-1c-7.1-4.8-13-11.5-16.9-19.2c2.9,0,4.8,2.9,6.4,5.3
		c3.6,5.3,8.5,9.8,14.2,13c0.6,0.3,1.3,0.7,2,0.7c2,0.1,3.2-2.5,2.6-4.5c-0.6-1.9-2.3-3.3-3.9-4.6c-7.8-6.6-13.9-15.2-17.5-24.7
		c2.1-0.8,3.6,1.9,4.4,3.9c3.2,7.8,9.8,13.7,15.8,19.7c1.5,1.6,3.1,3.2,3.9,5.2C-27.5,329-27.6,331.5-29.1,333.1z"/>
	<path class="st0" d="M271.5,171.3c0.8,0.4,0.7,1.6,0,2.1c-0.6,0.6-1.5,0.6-2.4,0.7c-8,0.5-16.1,0.9-24.1,1.4
		c-0.8,0.9-0.3,2.4,0.8,3s2.3,0.5,3.5,0.4c9.1-0.9,18.3-1.8,27.4-2.7c0.2,1.4-1.5,2.1-2.9,2.4c-7,1.5-14.1,2.6-21.2,3.3
		c-2.7,0.2-5.6,0.4-8-1c-2.4-1.3-3.8-4.7-2.1-6.9c1.3-1.7,3.7-1.9,5.8-2C256.1,171.9,263.8,171.6,271.5,171.3z"/>
	<path class="st0" d="M44.8,162.1c0.3,1.3-1.5,2-2.8,2.3c-14.3,2.2-28.3,7-40.9,14c1.6,2.7,5.6,1.8,8.5,0.5c5-2.2,9.9-4.4,14.9-6.6
		c4.5-2,9.2-4,14-3.5c-10.5,5.4-21.5,10-32.7,13.8c-1.9,0.7-4.2,1.2-5.9,0.1c-1.9-1.3-1.7-4.4-0.3-6.2c1.4-1.8,3.6-2.8,5.8-3.6
		C18,167.7,31.1,162.9,44.8,162.1z"/>
	<path class="st0" d="M224.9,159.1c-5,2-10.4,3.3-15.8,3.7c-0.9,1.1,1,2.4,2.4,2.5c5.8,0.6,11.5-1.2,17.2-2.2
		c6.3-1.1,12.8-1.2,19.2-0.2c0.5,1.7-2.2,2.3-4,2c-10.4-1.4-20.6,3.5-31.1,3.4c-1.8,0-3.6-0.2-5-1.2c-1.5-1-2.4-3-1.6-4.5
		c0.5-1.1,1.7-1.7,2.8-2.2C213.9,158.2,219.6,157.7,224.9,159.1z"/>
	<path class="st0" d="M-32.3,212.4c-4.1,3.6-7.7,7.8-10.7,12.4c-0.6,1-1,2.8,0.2,3c5.3-4.6,10.6-9.2,16-13.8
		c0.9-0.8,2.7-1.3,2.9-0.1c-5.6,6.3-11.9,11.8-18.9,16.5c-1.6,1-3.8-0.6-4-2.5s0.9-3.6,2-5.1c4.1-5.6,8.9-10.6,14.3-14.8
		C-29.4,209.4-30.9,211.3-32.3,212.4z"/>
	<path class="st0" d="M186.8,161.5c1.5-0.1,3.7,0.6,3.3,2.1c-10.1,1.3-20.2,2.7-30.3,4c-5.5,0.7-11.4,1.6-15.5,5.3
		c6,2,12.5,0.7,18.6-0.7c10.1-2.2,20.2-4.4,30.3-6.6c2.6-0.6,5.9-0.8,7.3,1.4c-13.5,2.8-27,5.7-40.5,8.5c-4.7,1-9.5,2-14.3,1.2
		c-1-0.2-2.1-0.4-2.9-1.2c-1.6-1.5-1.1-4.2,0.4-5.8c1.5-1.5,3.7-2.1,5.8-2.7C161.4,164.1,174.1,162.2,186.8,161.5z"/>
	<path class="st0" d="M221.5,155.3c-1.4-0.6-2.8-1.5-3.2-2.9c-0.7-2.8,3.1-4.4,6-4.7c8.9-0.9,17.9-0.5,26.6,1
		c-8.8,0.1-17.6,0.6-26.4,1.6c-1.6,0.2-3.8,1.1-3.4,2.7c7.8,1.6,15.9,1.9,23.7,0.6c8.1-1.2,16.4-1,24.4,0.8
		c-3.9,0.3-7.8,0.6-11.7,0.9c-4.4,0.3-8.9,0.7-13.2,1.8C236.9,159.1,228.7,158.4,221.5,155.3z"/>
	<path class="st0" d="M138.3,178c0.6,1.5-1.9,2.2-3.5,2.1c-12.8-1-24.8,6.1-37.6,7.9c-2.2,0.3-4.5,0.4-6.5-0.5s-3.5-3.1-3-5.2
		c0.3-1,0.9-1.9,1.7-2.6c3-2.8,7.3-3.8,11.4-4.6c9.9-1.8,19.9-2.9,29.9-3.3c0.3,1.6-1.8,2.6-3.5,2.8c-11.5,1.7-23.5,1.4-34.3,5.8
		c-0.8,0.3-1.6,0.7-1.9,1.5c-0.7,1.8,2,3,3.9,3c14.1,0,27.2-9.1,41.2-8.1C137,177,138,177.2,138.3,178z"/>
	<path class="st0" d="M-60.8,264.2c-0.2,1.3-0.4,2.6,0.1,3.8c0.5,1.2,1.8,2.2,3,1.8c1.7-10.2,5.5-20.1,11.1-28.9
		c1.4,1.7,0.3,4.2-0.8,6.1c-3.4,6.2-5.7,12.9-6.9,19.9c-0.4,2.4-1,5.2-3.3,6.2c-2.3,0.9-4.9-0.9-5.8-3.2c-0.8-2.3-0.4-4.9,0-7.3
		c0.5-2.9,1.1-5.8,1.6-8.7c0.3-1.5,1.5-3.5,2.8-2.7C-59.5,255.5-60.1,259.8-60.8,264.2z"/>
	<path class="st0" d="M49.6,178.6c-3.1-1.1-5.9-4.8-4.1-7.6c0.9-1.3,2.4-1.9,3.9-2.4c10.2-3.5,20.8-5.6,31.6-6.3
		c1.6-0.1,3.8,1,2.9,2.3c-10.7,1.5-21.4,3.4-31.9,6c-1.7,0.4-3.8,1.2-4,3c3.3,4,9.6,2.9,14.6,1.4c7.1-2.1,14.3-4.1,21.4-6.2
		c2.6-0.7,6-1.2,7.4,1.1c-9.7,2.6-19.4,5.3-29.1,7.9C58.1,178.9,53.6,180,49.6,178.6z"/>
	<path class="st0" d="M226,177c-13.1,1.7-26.3,3.5-39.4,5.2c-1,0.7-0.6,2.4,0.4,3s2.3,0.6,3.5,0.5c14.9-1.3,29.4-5,44.2-7.2
		c1.7-0.3,4.2,0.4,3.7,2.1c-14.4,2.7-28.7,5.3-43.1,8c-2.9,0.5-6,1-8.7-0.2s-4.4-5-2.5-7.2c1.1-1.3,2.8-1.6,4.4-1.9
		c12.2-2.2,24.6-3.7,37-4.6C225.9,175.3,226.1,176.2,226,177z"/>
	<path class="st0" d="M163.2,149c12.4-3.5,25.5-4.3,38.2-2.4c-9.3,1.1-18.6,2.2-27.9,3.3c-4.2,0.5-8.5,1-12.3,3
		c0.3,1.7,2.7,2,4.4,1.7c16-2.1,32.1-4.2,48.1-6.3c1,0.6,0.6,2.3-0.3,2.9s-2.2,0.7-3.4,0.7c-14.5,0-28.6,4.9-43.1,5.6
		c-2,0.1-4.1,0.1-5.8-0.8c-1.7-0.9-3-3.1-2.2-4.9C159.7,150.1,161.5,149.5,163.2,149z"/>
	<path class="st0" d="M-22.3,321.2c8.8,3.8,17.1,8.6,24.7,14.4c2.6,1.9,5.3,5.2,3.7,8c-1.4,2.4-4.9,2.3-7.6,1.6
		c-7.4-1.9-14.3-5.6-20-10.7c1.7-1,3.9,0,5.6,0.9c3.4,1.8,6.7,3.6,10.1,5.5c1.7,0.9,3.4,1.8,5.3,1.9s4-1,4.4-2.9
		c-7.6-4.9-15.2-9.8-22.8-14.8C-20.4,324.1-22,322.9-22.3,321.2z"/>
	<path class="st0" d="M145.3,197.6c-3.7,1-7.7,2-11.1,0.3c-1.2-0.6-2.4-1.6-2.7-3c-0.4-1.7,0.7-3.5,2.1-4.5c1.5-1,3.3-1.4,5-1.7
		c10-1.9,19.9-3.8,29.9-5.8c0.7-0.1,1.5-0.2,1.9,0.3c0.7,1-0.8,2-2,2.3c-11.1,2.3-22.3,4.6-33.4,6.9c-0.8,0.6-0.6,1.9,0.2,2.6
		c0.8,0.6,1.8,0.8,2.8,0.8c12.6,0.3,24.7-9.7,36.8-6.4C165,192.2,155.1,194.9,145.3,197.6z"/>
	<path class="st0" d="M-71.6,260.4c1.7,0.7,3.1-1.4,3.7-3.2c1.6-4.7,3.1-9.4,4.7-14.1c1.2-3.5,2.8-7.5,6.3-8.7
		c-3,8.1-6.1,16.3-9.1,24.4c-0.9,2.5-2.7,5.6-5.4,5.2c-1.7-0.2-2.9-1.9-3.2-3.7c-0.2-1.7,0.3-3.4,0.8-5.1c3-9.1,6.7-17.9,11-26.4
		c0.8-1.6,1.9-3.3,3.6-3.6c0.7,2-0.6,4.2-1.8,6C-66.8,239.9-70.5,250-71.6,260.4z"/>
</g>
<g>
	<g>
		<path class="st1" d="M397.5,104.9c0.8,1.7,3.1,2.6,4.9,2c2.1-0.7,3.1-2.8,2.7-4.9c-0.3-1.3-1.9-2.1-3.1-1.7
			c-1.4,0.4-2,1.7-1.7,3.1c0-0.1,0-0.2,0-0.4c0,0.2,0,0.2,0,0c0-0.1,0-0.2,0.1-0.3c0.1-0.2,0.1-0.2,0-0.1c-0.2,0.2,0.4-0.4,0.1-0.1
			c0.1-0.1,0.2-0.1,0.3-0.2c0.3-0.1,0.4-0.2,0.2-0.1c-0.2,0,0.4,0,0.5,0c0.2,0,0.2,0,0,0c0.1,0,0.2,0.1,0.3,0.1
			c-0.3-0.2,0,0,0.1,0.1c-0.4-0.3,0.2,0.4,0,0c-0.6-1.2-2.4-1.6-3.4-0.9C397.2,102.3,396.9,103.6,397.5,104.9L397.5,104.9z"/>
	</g>
</g>
<g>
	<g>
		<path class="st1" d="M402.7,105.1c3.2,0,3.2-5,0-5C399.4,100.1,399.4,105.1,402.7,105.1L402.7,105.1z"/>
	</g>
</g>
<g>
	<g>
		<path class="st1" d="M403.7,104.1c3.2,0,3.2-5,0-5C400.4,99.1,400.4,104.1,403.7,104.1L403.7,104.1z"/>
	</g>
</g>
</svg>
