<?xml version="1.0" encoding="utf-8"?>
<!-- Generator: Adobe Illustrator 19.1.0, SVG Export Plug-In . SVG Version: 6.00 Build 0)  -->
<svg version="1.1" id="Layer_1" xmlns="http://www.w3.org/2000/svg" xmlns:xlink="http://www.w3.org/1999/xlink" x="0px" y="0px"
	 viewBox="-114 -98.7 612 792" style="enable-background:new -114 -98.7 612 792;" xml:space="preserve">
<style type="text/css">
	.st0{fill:#FFFFFF;}
</style>
<g>
	<path class="st0" d="M347.8,201.7c-2.5-2.2-1.3-6.4,1.1-8.7c1.3-1.2,3.1-2.2,4.8-1.6c1.8,2.3,2.8,5.6,1.5,8.3
		C353.9,202.4,350,203.7,347.8,201.7 M349.7,198.1c0.5,0.7,1.3,1.2,2.2,1.3c0.7-0.5,1.2-1.3,1.3-2.2c-0.5-0.7-1.3-1.2-2.2-1.3
		C350.3,196.4,349.8,197.2,349.7,198.1L349.7,198.1z"/>
	<path class="st0" d="M361.4,158c-0.9,2.4-2.6,5.1-5.2,5.1c-1-2.4,0.5-5.1,1.6-7.5c1.9-4.2,2.3-9.1,1.1-13.5
		c-1.5-5.5-5.3-11.1-3.3-16.5c0.4-1.2-1.4-2.1-2.4-1.4c-1,0.7-1.3,2.1-1.5,3.3c-0.9,6.5-1.8,13.1-2.8,19.6c-0.5,3.5-1.9,8-5.5,8.1
		c1.6-8.9,3.1-17.8,4.7-26.7c0.5-2.6,1-5.4,2.8-7.3c1.8-2,5.3-2.5,7-0.5c10.5,13,14.6,31,10.9,47.3c-1.6,0-2.8-1.6-3.1-3.1
		c-0.3-1.5,0.1-3.1,0.3-4.7c2-11.3-0.9-23.4-7.8-32.6c-0.8,3.7,1.4,7.2,2.8,10.7C363.6,144.5,363.8,151.7,361.4,158z"/>
	<path class="st0" d="M311.8,116.5c-9.4,10.2-19.5,22.7-16.7,36.2c1.3,6.4,5.5,11.9,7.4,18.2c-8-12.4-25.2-13.5-39.6-16.8
		c-24.3-5.5-45.2-20.4-67.8-30.7c-46.1-21.1-98.7-23.1-149.4-20.1c-17.5,1-35.1,2.7-51.7,8.4c-30.3,10.5-55.2,34.9-67.7,64.5
		s-12.8,63.7-2.3,94.1c4.7,13.5,11.5,26.5,21.7,36.5c19.4,19,47.8,24.6,74.2,31.1s54.6,16.5,68.5,39.9c2.1,3.5,3.7,8.1,1.4,11.4
		c-4,5.7-13.9,0.9-19.5,5c7.8,1.8,16.4,3.5,23.6-0.1s10.9-14.6,4.7-19.7c-21.6-17.6-45.9-31.7-71.9-41.6c-28.8-11-62-18.6-79.2-44.1
		c-5.1-7.6-7-20.3,1.5-23.8c6.2-2.5,12.7,2.3,18,6.3c11.3,8.4,24.4,14.4,38.2,17.4c6.1,1.3,15.5-2,12.7-7.5
		c-1.4-2.8-4.7-7.3-1.5-7.3c7.3,4.1,6.2,17.1-1.7,19.9c-3.4,1.2-4.1,6.2-2.2,9.2c2,3,5.6,4.5,9.2,5.5c13.8,3.7,28.3,1.7,42.6,1.6
		c27.1-0.3,54.3,6.2,78.4,18.7c3.7-2.7,9.1-2.7,12.9-0.1c-4.1-2.6-7.4-6.4-9.5-10.8c2.9,1.6,7,0.9,9.2-1.6
		c-23.4-15.9-53.1-22.2-80.9-17.1c-5.6,1-10.2-5.5-9.5-11.1s5-10.1,9.2-13.8c4.2-3.7,8.9-7.4,11-12.7c3-7.3,0.2-16-4.9-22
		c-5.1-6-12.2-10-19.1-13.8c-7.3-4.1-14.7-8.1-22-12.2c14.5,3.9,29.7,8.1,40.4,18.7c10.7,10.6,14.5,29.6,4.1,40.4
		c-5.8,6-15.8,10.5-14.7,18.7c54.1-8.5,109-12.8,163.8-12.8c-9.9-6.9-18.5-15.8-25.1-25.9c14.6,9.3,27.4,21.3,37.8,35.2
		c12.2,16.5,33.9,22,53.9,26.5c-1.1-3.8,3.5-7.9,7.2-6.4c-2.3-2.5-4.7-5-7-7.5c2.2,1.4,5.5-0.1,6-2.7c-20-4.6-42.8-11.3-50.9-30.2
		c-2.7-6.2-3.3-13.2-5.8-19.5c-3.2-8.2-9.5-15.2-17.4-19.2c7.8-1.7,15.3,4.7,18.7,12c3.4,7.2,4.2,15.4,7.1,22.8
		c4.5,11.2,14.1,20.2,25.5,23.9c7.1,2.3,15.1,2.8,21.2,7.1c6.1,4.3,8.6,14.9,2.2,18.8c3.5-0.3,4.1,5.7,1.1,7.5s-6.8,0.6-10.1-0.7
		c-7.5-2.9-15-5.8-22.6-8.7c-12.9-5-27-11-33.2-23.4c-2.9-6-11.1-6.5-17.8-6.2c-20.7,0.9-41.5,1.9-62.2,2.8
		c-27.3,1.2-54.8,2.5-81,10.3c25.3-4.1,52.1,1.8,73.3,16.1c2.2,1.5,4.5,3.3,5.3,5.9s-1.2,6-3.9,5.6c1.9,2.2,3.8,4.4,5.6,6.6
		c-2.7,3.8-9.2,3.9-12,0.2c-0.3,2.4-0.6,4.7-0.9,7.1C119,319.7,85.1,311.8,51.9,314c-9.8,0.7-20,2.2-29.4-0.8S4.7,301,6.7,291.3
		c-18.1-2.6-35.4-10.3-49.6-22c-3-2.5-8.1-0.2-9.5,3.5s-0.2,7.8,1.6,11.4C-40,306-13.5,313.7,9.5,321.7c28.7,10,56,24,80.9,41.3
		c5.3,3.7,10.7,7.8,13.7,13.5c3,5.8,2.8,13.7-2.1,17.9c-2.8,2.4-6.7,3.3-10.4,3.8c-12.4,1.8-25.1,1.1-37.2-2.2
		c1.9-4.5,7.5-6,12.3-6.1c4.9,0,9.9,0.9,14.5-0.9c4.5-1.8,7.7-7.9,4.5-11.6C66,355.3,36.8,343.9,7.9,337.5
		c-16.4-3.6-33.4-6-47.9-14.5c-13.8-8.1-24.1-21.2-31.6-35.4c-17.2-32.4-20.8-72-8.4-106.5s41.2-63,76.2-73.9
		c14.1-4.4,29-6,43.7-7.1c53.2-4,108.4-1.8,157,20c30.4,13.6,59.3,35.1,92.6,34.8c2.7-17.6,11-34.3,23.4-47c6,14.4,12,28.7,18,43.1
		c1.3,3.1,2.7,6.4,5.4,8.5c4.2,3.4,10.1,3,15.4,4.1c16.4,3.4,25.4,20.4,34.9,34.3c17.2,25.1,42.8,44.4,71.7,54.1
		c5.4,1.8,11.5,3.6,14.5,8.5c3.1,4.8,0,13.3-5.7,12.4c-34.3-5.3-69.3-5.7-103.7-1.3c-10,1.3-20.6,3-30.1-0.6c-5.3-2-10-5.4-15.6-6.4
		c-5.1-0.9-10.3,0.4-15.3,1.8c-11.6,3.1-23.2,6.1-34.8,9.2c18.1-14.3,44-17.8,65.3-9c10.5,4.4,22.4,2.2,33.6,0.8
		c34.1-4.4,68.6-2,102.9,0.5c1.5-6.2-6.3-10.2-12.4-12.2c-30.1-9.7-56.8-29.9-74.4-56.2c-9.4-14.1-19.3-31.8-36.1-32.6
		c-8.8-0.4-16.4-7.1-20.5-14.9c-4.1-7.8-5.4-16.8-6.6-25.6c-9.3,9.8-12.3,25.2-7.3,37.8c-7.8-3.7-7.5-15-4.4-23
		C310.8,133.2,315.3,124.3,311.8,116.5z"/>
</g>
</svg>
