<?xml version="1.0" encoding="utf-8"?>
<!-- Generator: Adobe Illustrator 19.1.0, SVG Export Plug-In . SVG Version: 6.00 Build 0)  -->
<svg version="1.1" id="Layer_1" xmlns="http://www.w3.org/2000/svg" xmlns:xlink="http://www.w3.org/1999/xlink" x="0px" y="0px"
	 viewBox="54 -102.7 950 800" style="enable-background:new 54 -102.7 950 800;" xml:space="preserve">
<style type="text/css">
	.st0{fill:#FFFFFF;}
</style>
<g>
	<path class="st0" d="M537.6,28.4c6,3.7,6.5,12.1,6.4,19.1c-0.7,50.3-1.4,100.7-2.1,151c-0.1,5.7,0.1,12.1,4.3,16
		c5.1,4.8,13.8,3.3,19.5,7.3c6,4.2,6.8,12.7,6.9,20c2.3,105.8-1.3,211.8-10.9,317.3c-0.2,2.5-0.7,5.4-3,6.6
		c-25.2,13.1-55.6,15.9-82.8,7.7c-1.7-0.5-3.5-1.1-4.9-2.3c-3.5-2.9-3.5-8.2-3.2-12.8c5.8-88.8,8.1-177.8,6.9-266.8
		c-0.1-10.2-0.3-20.5,2.5-30.3s8.9-19.1,18.3-23.2c7.3-3.2,11.9-10.9,13.5-18.7c1.6-7.8,0.8-15.9,0.2-23.9
		c-3.5-47.1,0.6-94.3,4.7-141.3c0.6-7,1.3-14.4,5.3-20.2C523.3,28.1,531.7,24.6,537.6,28.4 M482.7,559.9
		c13.9-16.4,28.4-34,31.4-55.3c2.9-19.9,5-50.3,6.8-71.9c4-52.9,3.4-125.2-0.1-194.6c-0.2-1.8-2.4-2.5-4.3-2.6
		c-14.3-0.8-26.9,10.6-32.4,23.9c-5.4,13.2-5.2,28-5,42.3c1.3,86.3-0.4,172.7-5,258.9c-0.1,1.9,2.3,3.2,4.1,2.7
		C480.1,562.9,481.5,561.4,482.7,559.9 M533.4,353.7c-1.1,46.7-7.4,89.3-10.8,148.5c-0.1,2,1.8,14.8,3.4,15.9
		c14.7,10.7,20.2,17.6,30.3,32.7c10.9-101.7,14.4-204.2,10.3-306.3c-0.2-5.3-0.6-11-3.7-15.3c-7-9.5-23.5-5.2-29.6,4.9
		c-6.1,10.1-2.5,8.2-1.5,20 M515,226c7.5,6.9,22,0.5,22.1-9.7c0.3-53.1,0.5-106.3,0.8-159.4c0-4.2-0.3-9-3.8-11.3s-8.6-0.4-11.1,3
		s-3.1,7.8-3.6,12C513.2,115.5,511.7,170.9,515,226 M522,533c-1.3-1.8-2.9-3.9-5.1-3.7c-1.5,0.1-2.8,1.3-3.8,2.4
		c-10.4,10.7-20.3,21.8-29.8,33.2c-0.9,1,0.7,2.3,2,2.7c18.7,5.8,39.5,4.8,57.6-2.9c2.3-1,5-3.9,3-5.5
		C536.8,551.5,528.7,542.7,522,533 M531.4,39.9c1.3-1.7-0.7-4.3-2.8-4.2s-3.7,1.9-4.7,3.8c2.3,0.8,4.9,0.9,7.3,0.2L531.4,39.9z"/>
	<path class="st0" d="M640.7,460c-10.2,6.7-12.3,8-25.4,8.2c-13.1,0.2-30.6-10.1-35.2-22.1c-2.4-6.2-3.6-11.5-2.9-17.8
		c0.2-1.7,0.4-3.5,1.3-5c5.2-7.6,10.8-15.2,18.8-20.2s19.1-6.8,28.5-2.5c2.9,1.3,5.5,3.2,8.1,5.1c6.1,4.3,12.4,8.9,15.8,15.2
		c2.6,6.4,1.7,13.6,0.3,22.3c-1.7,2.8-2.5,6.1-4.1,10.2 M642.7,441.4c0.8-0.4,1.3-1.2,1.7-1.9c4.2-7.9,0.6-19.3-7.7-24.9
		c-3.3-2.2-7.3-3.7-9.9-6.7c-0.9-1-1.5-2.1-2.5-2.9c-1.9-1.6-4.6-1.9-7-1.9c-6.6,0-13,1.8-18.2,5.1c-0.8,0.5-1.6,1.1-1.6,2
		c0,0.9,0.6,1.7,1.3,2.4c11.2,12.1,23.8,24.5,39.8,28.9C639.9,441.8,641.5,442.1,642.7,441.4 M586.2,423.5
		c-1.6,6.4,4.4,13,10.4,17.3c9.3,6.8,19.9,11.8,30.9,14.7c2.1,0.5,4.8,0.8,5.7-0.9c-1-2.2-3.7-3.1-6.1-3.9
		c-15.2-5.2-28.9-15.3-38.1-28.1C588.1,423,587.1,423.3,586.2,423.5 M580.9,430.2c-1.1,5,3.6,18.2,7.3,22.3
		c6.6,7.3,19.8,11.5,29.5,11.2c1.6-0.1,9.1-1.6,9.8-2.9c-5.6-3-19.1-7.6-24.7-10.6c-6.7-3.6-10.1-7.8-13.3-10.7 M595.8,412.5
		c-2.3-0.5-4.2,1.7-4.1,3.9c0.1,2.2,1.6,4.2,3.1,6.1c10.7,12.9,26,22.7,42.5,27c1.8,0.5,3.2-1.6,2.5-3.3c-0.7-1.6-2.6-2.6-4.4-3
		c-1.8-0.4-3.6-0.2-5.5-0.5c-4.2-0.7-7.8-3.5-11.2-6.2c-3.9-3.1-7.8-6.2-11.6-9.2C601.9,423.2,596.5,418.4,595.8,412.5z"/>
</g>
</svg>
