<?xml version="1.0" encoding="utf-8"?>
<!-- Generator: Adobe Illustrator 19.1.0, SVG Export Plug-In . SVG Version: 6.00 Build 0)  -->
<svg version="1.1" id="Layer_1" xmlns="http://www.w3.org/2000/svg" xmlns:xlink="http://www.w3.org/1999/xlink" x="0px" y="0px"
	 viewBox="-122 -123.6 595.3 841.9" style="enable-background:new -122 -123.6 595.3 841.9;" xml:space="preserve">
<style type="text/css">
	.st0{fill:#FFFFFF;}
</style>
<path class="st0" d="M86.6,303.7c0.2-1.9,1.5-3.6,2.8-5.1c4.3-5.2,8.6-10.4,12.9-15.6c-5.8,0.3-11.6,0.6-17.3,0.9
	c-4,8.1-9.5,15.5-16.2,21.7c2.5,5.2,12.1,0.3,15.9,4.7c1.7,1.9,1.3,5-0.1,7.2c-1.4,2.1-3.7,3.5-5.9,4.9c-5.6,3.4-11.3,6.9-16.9,10.3
	c-1.3,0.8-2.8,1.8-3.1,3.3s1.4,3.3,2.7,2.5c3.1-2.1,7.4,1.6,7.3,5.3c-0.1,3.7-2.7,6.8-5.2,9.5c7-4.2,13.9-8.5,20.9-12.7
	c0.4-0.2,0.8-0.5,1-0.9c0.7-1.2-0.6-2.6-2-2.9s-2.8,0-4.1-0.4c-2.2-0.8-2.9-3.8-2.1-6c0.8-2.2,2.7-3.8,4.5-5.3
	c4.9-4.1,9.8-8.2,14.7-12.3C91.7,311.2,86,308.4,86.6,303.7 M358.5,138.1c3.9,6.3,12.5,7.1,19.7,8.4c20.2,3.7,38.6,16.7,48.7,34.5
	c6.3,11.1,23.6,10.8,31.5,20.8c8.7,11.1,0,28.5-12.9,34.1s-27.7,3.1-41.6,0.9c-5-0.8-11.8-0.5-13,4.4c-2,7.7-11.2,11.2-19.2,11.4
	c-8,0.2-16.2-1.7-24,0.5c-7.3,2.1-13.6,7.6-21.2,7.7c-3.4,0-6.8-1.1-10.3-1.1c-6.2,0.1-11.6,3.8-16.9,6.9
	c-28.3,16.1-66.4,13.3-92-6.8c-2.6-2-4.5-7.1-1.2-7.7c27.2,20.4,67.1,22.2,96,4.4c6-3.7,13.6-8.3,19.5-4.5
	c10.5,6.6,25.2-4.6,25.7-16.9c0.5-12.4-8.4-23.2-18.2-30.7c-7.3-5.6-15.5-10.1-24.1-13.4c-6.5-2.5-9-10-12.2-16.2
	c-8.8-16.9-29.2-27-48-23.9c-7.5-15.5-16.4-30.8-29.7-41.9c-13.3-11.1-31.5-17.4-48.2-12.8c-5,1.4-10.2,3.7-15.2,2.4
	c-12.4-3.2-25.9,2.6-35,11.7c-9.1,9.1-14.8,20.9-20.2,32.5c-2.5-4.1-1.6-9.9,1.9-13.2c-29.8-1-58.3,23.2-62.2,52.6
	c-0.5,4.1-5.8,5.1-9.9,5.7c-18,2.6-33.3,18-35.9,35.9c-1.5,10.7-15.5,15-19.7,25c-3.6,8.8,2.1,19.3,10.5,23.8s18.6,4.2,28,2.6
	c13-2.2,25.6-6.7,37.1-13.1c25.9,20.5,65.5,21.6,92.5,2.6c3.8-2.7,9-0.7,13.4,0.8c15.7,5.5,32.8,4.5,49.3,3.5
	c-11,3.8-22.5,5.8-34.1,5.8c-7.8,14.4-18.7,27-31.7,36.9c7.4,3.1,14.7,6.3,22.1,9.4c1.1,0.5,2.2,1,2.9,1.9c2,2.8-1.2,6.3-4.1,8.2
	c-10.6,6.9-21.1,13.8-31.7,20.8c6.7,1.2,12,7.6,11.8,14.4c4.7-3.5,9.5-7,14.2-10.5c-3.4,0-5.4-4.5-4.1-7.7c1.2-3.2,4.3-5.2,7.3-7
	c9.7-6,19.3-11.9,29-17.9c-6.2-3.5-12.4-7.1-18.6-10.6c-2-1.1-4.3-2.7-4.3-4.9c-0.1-1.6,0.9-3,1.9-4.2c8.8-11,19.4-20.6,31.4-28.1
	c2.8,6.1-3.8,12.2-9.5,15.9c-5.7,3.7-12.2,10-9.1,16c2.3,4.5,8.3,5,13,6.8s8.7,8.5,4.5,11.3c-9.3,6.3-18.6,12.6-28,19
	c3.4-0.7,6.1,3.7,5.1,7c-0.9,3.3-4,5.6-6.8,7.6c-16.8,11.9-33.5,23.8-50.3,35.7c-2.7,1.9-7.3,3.3-8.5,0.2c-0.6-1.8,0.7-3.6,1.9-5
	c7.2-8.3,14.3-16.6,21.5-24.9c1.2-6-11-3.1-14.6-8c-2.7-3.7,1.6-8.5,5.4-11.1c8.7-6,17.3-12,26-18c-1.7-4.1-7.2-4.6-11.6-5
	s-10-2.7-9.7-7.1c0.2-2.2,1.9-4,3.5-5.5c11.1-10.6,22.2-21.3,33.3-31.9c-3.9-8.6-16.5-8.3-25.1-4.4s-17.3,10-26.7,8.2
	c0,7.9-3.3,15.7-8.9,21.2c3.5-3.1,9.6,1.2,9.4,5.9c-0.1,4.7-4,8.4-7.9,11s-8.4,4.7-11,8.6c4.6,0.1,7,6.1,5.3,10.3
	c-1.7,4.2-5.8,6.9-9.7,9.3c-16.3,10-32.6,19.9-48.9,29.9c-2.7,0.1-4.5-3.2-3.9-5.9c0.6-2.7,2.8-4.6,4.8-6.5
	c6.8-6.1,13.6-12.2,20.4-18.3c-1.4-3.2-5.8-3.5-9.3-3.8s-7.9-2.7-6.9-6.1c0.4-1.5,1.8-2.5,3.1-3.3c9-6.2,18-12.3,27-18.5
	c-6.3,1.2-15.9-1-14.1-7.1c0.4-1.3,1.3-2.3,2.2-3.4c6.1-7.1,12.3-14.2,18.4-21.3c-10.6-8-25-10.6-37.8-6.8c-12.4,3.7-25,7.4-37.9,7
	s-26.3-5.6-33.4-16.4c-7-10.8-5.2-27.4,5.8-34c7.2-4.3,8.8-13.7,11.8-21.5c6.1-16.1,20.8-28.6,37.7-32c4.3-0.9,6-6,7.3-10.3
	c8.7-28.4,38.9-48.6,68.6-46c6.6-10.3,14.9-19.9,25.8-25.4c12.2-6.2,26.3-6.9,40-7.4c9.4-0.4,18.9-0.7,28,1.4
	c21.9,5.1,38.3,23.8,47.8,44.1c1.9,4,4.6,8.7,9,8.5c20.1-0.9,40.1,11.3,48.4,29.4c5.2,11.4,18.7,15.8,29.2,22.6
	c15,9.7,25.4,26.4,27.5,44.1c0.3,2.1,2.8,3.1,4.9,3.5c8.1,1.3,16.7-0.4,23.8-4.7c-5.4-0.6-5-9.7-0.2-12.2s10.6-0.7,15.9,0.6
	c10.6,2.7,21.6,3.6,32.5,2.5c6-0.6,12.2-1.8,17-5.4s7.9-10.1,5.9-15.7c-4.6-13.4-29-9.3-34.4-22.5c-9.8-23.7-37.6-38.5-62.8-33.4
	c0-16.5-18.1-28.8-34.6-27c-16.4,1.8-30,14.3-38,28.7c1-16.5,13.6-31.6,29.7-35.5C331.6,116.6,349.8,124,358.5,138.1"/>
<path class="st0" d="M276.2,238.1c-9.4-6.2-22.3-2.8-31.7,3.4c-1.4,0.9-2.9,2-4.6,2.1s-3.6-1-3.6-2.7c6.1-6.6,13.9-11.8,22.8-13.4
	c8.8-1.6,18.6,0.8,24.7,7.3c1,1.1,2,2.6,1.6,4c-0.5,1.8-2.8,2.5-4.5,2C279.1,240.4,277.7,239.1,276.2,238.1"/>
<path class="st0" d="M-53.2,184.6c-1.1,0.3-1.7,1.8-1.1,2.8c1.7,0.3,3.8-0.9,3.5-2.6c-0.8-0.2-1.7-0.4-2.5-0.5L-53.2,184.6z
	 M-66.3,183.3c4.6-4,9.3-7.9,13.9-11.9c2.9-2.5,6.1-5.3,6.8-9.1c-1.2-1.5-3.5-1.6-5.2-0.9s-3,2.2-4.3,3.6
	c-4.8,5.4-9.6,10.8-14.4,16.1C-68.4,181.9-67.3,182.6-66.3,183.3 M-78.4,121.8c5.7,0.5,11.3,2.7,15.7,6.3c-1.3,1.9-4.1,1.4-6.4,0.8
	c-13.2-3.1-27.9,1.6-36.7,11.8c-0.7,0.9-1.5,1.8-1.5,2.9c-0.1,2.3,2.6,3.7,4.9,4.3c10.3,2.8,21.2,3.2,31.6,1.1
	c2.1-0.4,4.6-0.8,6.1,0.7c4.7,4.8,11.8,6.6,18.5,6.1s13-3.1,19-6.2c7.5-3.9,15.5-8.6,23.7-6.9c4.2,0.9,7.5-4.4,6.4-8.5
	c-1-4.1-4.6-7-8.1-9.5c-7.5-5.5-16.8-11.2-25.7-8.2c-1.5,0.5-3,1.2-4.5,1.2c-1.6,0-3.3-1.1-3.3-2.7c0-3.6-2.8-6.8-6.1-8.1
	c-3.4-1.3-7.1-1-10.6-0.2C-64.5,108.8-72.8,114.3-78.4,121.8 M-109.7,150.1c-4.8-3.2-3.4-11,0.8-14.9c4.2-3.9,10.1-5.3,15.3-7.9
	c9.7-4.8,16.7-13.7,25.6-19.7c9-6,22.3-8.5,29.8-0.7c4.1,4.3,10.8,4.2,16.7,5.2C-9.7,114,1.1,121.5,7,131.8
	c2.1,3.6,3.4,8.7,0.5,11.7c-1.4,1.5-3.5,2-5.5,2.6c-13.6,3.7-26.8,8.6-39.4,14.8c-1,0.5-2.1,1.1-2.4,2.2c-1.9,5.9-6,11-11.4,14.1
	c0.2,3.1,4.9,2.8,7.9,1.7c2.9-1.1,7.9-0.5,7.2,2.5c-0.3,1.2-1.4,1.9-2.4,2.6c-14.7,9.1-29.5,18.2-44.2,27.2c-1.7,1-4.2,1.9-5.3,0.3
	s0.6-3.5,2-4.7c6.4-5.2,12.7-10.4,19.1-15.5c-1.9-2.9-6.3-2-9.8-2.1s-7.3-4.8-4.2-6.5c8.9-5,16.4-12.4,21.3-21.3
	C-72.7,149.5-95.2,159.7-109.7,150.1"/>
<path class="st0" d="M356,215.6c5.3-5.4,13.2-7.4,20.7-7c7.5,0.3,14.7,2.8,21.9,5.2c2.9,1,6.1,2.2,7.7,4.8c1.6,2.6,0.5,7-2.6,7.3
	c-6.9-4.6-14.4-8.6-22.7-9.7c-8.2-1.2-17.2,0.8-23.1,6.5c-1.4,1.3-3.9-0.1-4.2-2C353.5,218.7,354.7,217,356,215.6"/>
<path class="st0" d="M165.2,205.5c9.8-9.8,22.7-16.5,36.5-17.8c13.8-1.2,28.2,3.4,37.9,13.2c0.1,4.1-5,6.7-9.1,5.9
	c-4.1-0.8-7.4-3.6-11-5.7c-11-6.4-25.2-5.7-36.7-0.1c-11.4,5.6-20.3,15.4-26.9,26.3c-1.2,2-2.5,4.2-4.7,5.1
	c-2.1,0.9-4.5,0.3-6.8,0.2c-7.5-0.6-14.8,3.2-20.3,8.2c-5.6,5.1-9.7,11.4-14.3,17.3c-2.2,2.8-6.2,5.7-8.9,3.3
	c4.9-18.6,21.2-33.7,40.1-37.2C151.3,222.4,157.9,212.9,165.2,205.5"/>
</svg>
