<?xml version="1.0" encoding="utf-8"?>
<!-- Generator: Adobe Illustrator 19.1.0, SVG Export Plug-In . SVG Version: 6.00 Build 0)  -->
<svg version="1.1" id="Layer_1" xmlns="http://www.w3.org/2000/svg" xmlns:xlink="http://www.w3.org/1999/xlink" x="0px" y="0px"
	 viewBox="-114 -98.7 612 792" style="enable-background:new -114 -98.7 612 792;" xml:space="preserve">
<style type="text/css">
	.st0{fill:#FFFFFF;}
</style>
<g>
	<path class="st0" d="M238.6,107.2c0.5-0.5,1.4,0.5,0.9,1C238.9,108.7,238,107.7,238.6,107.2L238.6,107.2z"/>
	<path class="st0" d="M210.3,27c-2.2,1.3-5.2,1-7.2-0.7c2.4-1.2,5.3-1.2,7.8,0L210.3,27z"/>
	<path class="st0" d="M83.7,104.9c0.2,1.4-1.8,2.3-3,1.6s-1.8-2.1-2.3-3.4c-4.1-11.7-9.1-23-14.8-34c4.3,3.3,10.6,1.7,15.4-0.9
		c4.8-2.6,9.3-6.2,14.8-6.6c-4.9,7.1-13,11.9-21.6,13c2.6,2.9,6.9,4.2,10.7,3.3c15.1-3.6,31.1-7.8,41.4-19.4
		c1.1,7.3-4.5,13.8-9.7,19c-1.1,1.1-2.3,2.3-3.9,2.3c-1.5,0.1-3.1-1.8-2.2-3c2.5,0.2,5.1-1.7,5.7-4.1c-6.4,1.7-12.7,3.3-19.1,5
		c4.4,1.9,8.8,3.8,13.2,5.7c2,0.9,4,1.7,6.1,1.7c5.2-0.1,8.7-5.4,10.2-10.3c1.5-5,2.2-10.5,5.7-14.3c1.1,10.7,0.2,21.6-2.8,32
		c1.5-2.4,3.9-4.1,6.6-4.7c-0.8,3.9-2.7,7.5-5.5,10.4c1.5,2.6,3.1,5.1,4.6,7.7c-2.3-1.7-5.1-3.4-7.8-2.4s-2.4,6.2,0.4,5.7
		c5.2-0.8,9.3,5.2,8.6,10.4s-4.4,9.4-7.9,13.2c-3.8,4.1-7.7,8.3-11.5,12.4c-3.1,3.4-2.1,9.2,1.2,12.5c3.2,3.3,8,4.5,12.6,5
		c4.7,0.5,9.8,0.6,13.3,3.7s2.9,10.5-1.7,10.9c4.5-0.4,6.8,6.3,4.2,10s-7.7,4.7-12.2,4.6c-4.7,0-9.6-0.8-13.4-3.6
		c-3.8-2.8-6.2-7.8-4.7-12.3c1.6-4.7,1-10-1.7-14.2c-4-6.2-2.9-14.4-0.4-21.2c2.6-6.9,6.5-13.2,8.3-20.4c1.7-7.1,0.6-15.7-5.3-20.1
		c6.9-2.7,11.4-10.6,10.1-17.9c-1.1,5.1-7.3,7.6-12.5,6.9c-5.2-0.7-9.8-3.6-14.6-5.6s-10.7-3-15.1-0.1c3.6,1.2,7.2,2.4,10.8,3.5
		c3.7,1.2,7.5,2.5,10.4,5s4.7,6.8,3.2,10.4c-2.9,7.1-0.9,15.2,0.3,22.8s1.1,16.5-4.7,21.6c-1.2,1-2.7,1.9-4.2,1.5
		c-1.7-0.4-2.7-2.1-3.4-3.7c-6.3-14.2-5.3-31.3,2.5-44.7c1.7-2.9,2.5-8-0.8-8.1C89,91.5,81,87.6,75.9,81.3c-0.7,1.4-0.6,3.2-0.4,4.8
		c0.8,4.8,3.4,9.4,7.6,11.8c4.2,2.3,10.2,1.6,13-2.4C94.7,100.9,89.3,104.9,83.7,104.9 M103.2,137.8c-1.3,0.5-2.7-1.1-2.6-2.5
		c0-1.4,0.9-2.7,1.3-4.1c0.7-2.1,0.4-4.5,0.2-6.7c-0.8-9.1-0.3-18.2,1.4-27.2c-5.4,6-7.9,14.2-8.3,22.3c-0.4,8.1,1.3,16.1,3.3,23.9
		C101.5,143.6,103.9,140.5,103.2,137.8 M137,174.7c1.1-0.6,2.1-1.3,2.8-2.3c0.8-1.2,1-2.8,0.5-4.2c-7.8,0.7-15.8-0.7-22.9-4
		C118.4,172.8,129.2,178.6,137,174.7 M131.4,186.9c2.3-0.2,4.7-0.4,7-0.6c2.2-0.2,5.2-1.8,4-3.7c-8.3-0.4-16.6-1.6-24.7-3.5
		c-0.7,3,1.7,6.1,4.5,7.2S128.3,187.2,131.4,186.9 M121.4,131.4c3.5,0.4,6.1-3.1,7.4-6.4c1.3-3.4,1.9-7.1,1.8-10.8
		c-0.7-0.5-1.6-0.6-2.4-0.4C125.8,119.6,123.6,125.5,121.4,131.4z"/>
	<path class="st0" d="M78.9,189.9c-2.8,5.2-9.8,5.9-15.7,5.9c-3.8,0-7.7,0-11.2-1.6c-1.6-0.8-4-1.6-4.8,0c4.5,3.7,9.5,6.9,14.7,9.4
		c5.5,2.7,12.4,4.7,17.7,1.6c-3.4-2.7-7.9-4-12.2-3.6c-1.2,0.1-2.5,0.3-3.6-0.2s-1.8-2.1-0.9-2.9c5.6,1,11.6-0.1,16.4-3
		c4.1-2.5,10-1.5,13,2.3c1.2-1.1,0.5-3.3-0.8-4.3s-3-1.5-4.4-2.4c-6-4-3-14.5-8.3-19.4c-1.8-1.7-4.3-2.4-6.6-2.9
		c-5.4-1.1-10.9-1.5-16.3-1c6,4.8,13,8.4,20.4,10.3c1.3,0.4,1.1,2.6-0.1,3.2c-1.2,0.7-2.7,0.3-4-0.2c-10.7-3.8-20.3-10.9-27.1-20
		c1.5-1.3,3.9-0.5,5.7,0.3c6.4,2.7,13.5,3.6,20.4,2.5c-6.6-4.2-11.2-11.3-12.2-19c1.6-0.1,3.1,0.7,4.5,1.5
		c9.7,5.4,19.4,10.9,29.2,16.3c2.5,1.4,5.2,3,6.3,5.6c-11.5-5-22.8-10.5-33.8-16.5c2.7,6.5,10,9.8,16.7,12s14.1,4.4,18.3,10.1
		c-7-1.4-13.7-4-19.9-7.5c2,3.3,4.1,6.6,6.1,9.9c0.8,1.2,2,2.7,3.4,2.2c3.7-1.4,7.9-1.2,11.4,0.5c0.4,0.2,0.8,0.4,1,0.8
		c1.2,1.7-2.2,3-4.2,2.3s-5.2-1.1-5.3,1c7.9,4.7,14.7,11.4,19.5,19.3c-0.4,0.7-1.3,1.2-2.1,1.2c-3.6-2.4-6.5-5.9-8.1-10
		c-1.3,0.8-2.7,1.6-3.5,3s-0.6,3.4,0.8,4.1c6.4,3.4,12.2,7.6,17.4,12.6c-6.8,4.5-15.8,0.8-23.3-2.4c-4.9-2.1-10.9-4-15.5-1.2
		c-4,2.4-9.1,0.7-13.3-1.2c-4.8-2.2-9.6-4.6-14.2-7.3c-1.6-0.9-3.3-1.9-4.5-3.4c-4.1-5.1-1-12.5,2.3-18.2
		c6.9,0.7,9.8,10.3,16.6,11.9C69.4,192.6,74.2,189.5,78.9,189.9 M88.9,199.1c-1.3-0.6-2.7-1.2-4.2-1.3c-2.5-0.2-5,1.2-6.1,3.4
		c9.5,5,19.5,10.1,30.3,10.2C102.7,206.5,96,202.4,88.9,199.1 M56.1,191.7c0.4,1.1,2.2,1.1,2.7,0.1c-2.7-2.7-5.5-5.2-8.5-7.5
		c-1.8,1-1.5,3.8-0.1,5.3c1.5,1.4,3.6,1.8,5.6,2.1H56.1z"/>
	<path class="st0" d="M349.4,125.6c-0.3,1.2-0.7,2.6-1.8,3.3c-1,0.8-2.9,0.5-3.2-0.7c1.6-3.3,4.3-6,7.6-7.6c-0.1,1.9-0.9,3.7-2.3,5
		H349.4z"/>
	<path class="st0" d="M178.9,352.5c0.6,26.1,1.1,52.3-0.2,78.4c-0.7,13.2-1.9,26.4-2.6,39.6c-1.8,34.6,0.1,69.3,5.5,103.5
		c-3.9-2.1-5.2-6.9-6-11.3c-11.9-62.2,2-126.2-0.1-189.4c-1.2-36.2-7.5-73.2,1.6-108.2C177.7,294.2,178.3,323.4,178.9,352.5z"/>
	<path class="st0" d="M310.5,181.1c0.1-7.5,3.4-14.8,8.8-20C319.1,168.5,315.9,175.9,310.5,181.1z"/>
	<path class="st0" d="M100.2-4.5c0.1-3,0.5-6.3,2.8-8.2c17.5,13.3,27.3,36,24.9,57.8c-1.5,0-2.4,1.9-1.9,3.3s1.7,2.4,2.9,3.4
		c-10.5,4.3-23.4,0.9-33.1,6.9c-3,1.9-7.1,1-10-1.2c-2.8-2.2-4.6-5.4-6.3-8.5c-0.5-0.8-0.9-1.7-0.8-2.7c0.2-1.6,1.8-2.5,3.2-3.2
		c8.8-4.3,18.8-8.7,28.1-5.7c1.6,0.5,3,1.2,4.5,1.9C105,26.8,99.9,11.2,100.2-4.5 M125.1,43.7c0.7-17.6-6.3-35.5-18.7-48
		c-0.7-0.7-1.7-1.1-2.7-1.2c0.2,15.9,5.4,31.7,14.7,44.6C120.1,41.4,122.3,43.8,125.1,43.7 M123.5,51.6c-0.4-3.4-4.5-5.2-7.9-5.1
		c-3.5,0.1-6.8,1.5-10.2,1.5c-3.8-0.1-7.3-1.9-11-2.7c-3.7-0.9-8.2-0.5-10.3,2.6c-0.6,3.9,3.6,7,7.5,7.2c3.9,0.1,7.6-1.7,11.3-2.9
		C109.5,49.9,116.7,49.7,123.5,51.6 M98,41.9c-0.2,1,1.1,1.5,2.1,1.7c4.3,0.6,8.6,0.6,12.9,0.1c-3.8-2.8-8.8-3.9-13.4-3
		C99,40.8,98.1,41.2,98,41.9z"/>
	<path class="st0" d="M199.8,517.6c1.5-0.6,2.3,1.7,2.2,3.3c-0.6,7.9-1.3,15.9-1.9,23.8c-0.2,2.2-2,5.3-3.8,3.8
		c-0.2-9.8,0.6-19.5,2.5-29.1C198.9,518.7,199.1,517.9,199.8,517.6z"/>
	<path class="st0" d="M222.5,63.9c-4.2-13-6.3-27.4-1.3-40c1.6-4,3.9-7.8,7.2-10.7c1.1-1,2.6-1.9,4-1.4c1.1,0.4,1.7,1.4,2.2,2.5
		c8.9,17.2,8.6,38.9-0.8,55.8c-1.3,2.4-5,2.5-7.2,0.8C224.4,69.3,223.4,66.5,222.5,63.9 M231.9,19.9c0.3-1.3-1.6-2.4-2.8-1.8
		s-2,1.9-2.5,3.2c-5.6,13.3-5.7,28.7-0.4,42.1c2.1-0.2,2.5-3,2.4-5.2C228,45.3,229.1,32.4,231.9,19.9 M233.8,24.6
		c-0.6,10-1.1,20-1.7,30c-0.2,3.5-0.4,7,0.1,10.5c5.1-11.1,6.6-23.7,4.2-35.6C236.1,27.7,235.5,25.6,233.8,24.6z"/>
	<path class="st0" d="M133.3,205.1c3.2-0.6,6-3,7.1-6.1c-2.6-0.9-5.4,0.4-8.1,0.8c-2.7,0.4-6.3-1-6.1-3.7c3.6-0.4,7.2-0.9,10.8-1.3
		c1.3-0.2,2.7-0.3,3.9,0.1c3.3,1.1,4.2,5.9,2.2,8.8s-5.7,4-9.2,4.2C133.7,206.9,133.5,206,133.3,205.1z"/>
	<path class="st0" d="M210.3,87.5c-2.3-0.2-3.9-2.3-5.1-4.3c-8.4-14.2-9.4-32.5-2.6-47.6c1.3-2.9,3.6-6.2,6.8-5.9
		c2.6,0.2,4.4,2.8,4.9,5.3s0,5.2-0.1,7.8c-0.2,7.6,3.2,14.8,5,22.3s1.2,16.5-5,21C213,87,211.7,87.6,210.3,87.5 M209.7,72.8
		c-5.1-6.6-4.1-15.9-4.1-24.2c0-2-0.5-4.6-2.5-5c-0.8,7.1-1.6,14.3-0.7,21.4c0.9,7.1,3.8,14.2,9.2,18.8c2.2-0.6,2.8-3.5,2-5.6
		C212.8,76.1,211.1,74.5,209.7,72.8 M213.7,59.4c-2.3-6.9-3.3-14.2-2.7-21.5c0.2-2-0.9-4.4-2.9-4.3c-1.5,14.1,0.6,28.6,6.2,41.7
		C218,71.1,215.5,64.7,213.7,59.4z"/>
	<path class="st0" d="M116.9,29.7c-2.3-6.5-4.6-12.9-6.8-19.4c-0.5-1.4-0.5-3.6,1-3.7c5,7.8,8.3,16.6,9.6,25.8
		C119.2,33.5,117.5,31.4,116.9,29.7z"/>
	<path class="st0" d="M185.7,325.1c0.1-21.7-2.5-43.3-3.3-65c-0.1-3.8,0.3-8.4,3.8-9.9c5.5,53.3,5,107.1-1.2,160.3
		C180.7,382.3,185.6,353.6,185.7,325.1z"/>
	<path class="st0" d="M163.7,109.5c-1.6-6-3.9-11.7-7.1-17c7.5,3.8,12,12.6,10.8,20.9c-0.5,3.3-3.3,7.2-6.4,5.8
		c-1.6-0.7-2.2-2.6-2.8-4.2c-2.7-8.9-5.5-17.8-8.2-26.7c0.7-1.8,3.3,0.2,3.9,2.1c2.6,8.1,5.2,16.2,7.8,24.3
		C164,114.6,164.2,111.6,163.7,109.5z"/>
	<path class="st0" d="M250,31.3c-1.9,1.1-4.5,0.1-6-1.6c-1.5-1.7-2.1-3.9-2.6-6.1c-2.3-8.9-4.1-19.8,2.5-26.2
		c4.9-4.7,7.6-11.5,7.2-18.3c2.3,2.1,3.4,5.2,4.4,8.2c2.1,6.3,4.1,12.7,4.1,19.3C259.5,15.6,255.4,24.1,250,31.3 M252.4,0.6
		c0.4,8.7-1.6,17.5-5.7,25.1c0.7,0.8,2,1.1,3,0.7c6.2-9.6,7.9-22,4.4-32.9c-9.3,5.6-13.5,18.3-9.4,28.3c2.8-6.6,4.4-13.6,4.9-20.8
		C250.4,0.6,251.4,0.4,252.4,0.6z"/>
	<path class="st0" d="M87.5,213.2c3-2,6.8,0.7,10,2.4c5,2.7,11,2.9,16.6,4.2c5.6,1.4,11.4,4.8,12.5,10.4
		c-10.6-0.8-21.2-2.5-31.5-5.2c-2.9-0.8-6-1.7-7.9-3.9S84.9,214.8,87.5,213.2 M92.8,217.1c-0.8-0.3-1.6-0.5-2.4-0.4
		c-0.5,0.1-1,0.3-1.3,0.6c7.8,5.7,17.7,8.3,27.2,7.3C108.4,222.2,100.6,219.7,92.8,217.1z"/>
	<path class="st0" d="M187.5,29.8c-1.3-2.7-2.5-5.4-3.8-8c-2.8,2.2-4.2,6.2-3.2,9.6c0.9,3.5,4.1,6.2,7.7,6.6
		c3.2,0.4,7.8-0.1,8.4,3.1c-4.4,2.6-10.3,2.3-14.5-0.6c-4.2-2.9-6.4-8.4-5.5-13.4c0.7-3.7,2.9-7.1,2.8-10.9
		c-0.2-6.2-6.5-12.3-3.5-17.7c7.8,2.2,15,7.4,18.5,14.7c3.6,7.3,3,16.7-2.3,22.8c-2.4-1.9-1-5.7-0.2-8.7c2.1-7.5-1.5-16.3-8.4-20
		c0.1,5.3,1.5,10.6,4.2,15.3C189,24.9,190.3,29,187.5,29.8z"/>
	<path class="st0" d="M66.3,135.1c12.3,3.1,23.4,10.4,31.2,20.4c1.1,1.5,1.3,3.6,0.5,5.3c-3.4-4-8.5-6.6-13.8-6.9
		C74.7,153.1,66.4,144.5,66.3,135.1 M78.6,145.7c-0.9-2.8-4.2-4.7-7.1-4.1c2,2.7,4,5.5,6.8,7.3s6.7,2.5,9.5,0.7
		c-2.6-2-5.7-3.3-9-3.8L78.6,145.7z"/>
	<path class="st0" d="M208.3,21.8c-5.5-1.7-9.5-7-10.6-12.6c-1.1-5.7,0.5-11.6,3.6-16.5c1-1.7,2.3-3.4,2.1-5.4
		c-0.2-2.7-3.1-5-2.2-7.5c0.7-2,3.5-2.6,5.4-1.6c1.9,0.9,3.1,2.9,4.1,4.7c5.6,10.2,9.6,22,7.2,33.4c-0.3,1.6-0.8,3.3-2,4.4
		C214,22.6,210.9,22.6,208.3,21.8 M210,11.9c-2.4-3.3-3.6-7.4-3.2-11.5c0.2-1.9,0-4.7-1.9-4.7c-2.4,4.3-4,9.3-2.7,14
		s6.5,8.5,11.1,6.9c2.9-9.4,1.4-20.1-4-28.4C205.7-4.4,214.7,5.3,210,11.9z"/>
	<path class="st0" d="M209.1,278.3c7.9-6.5,17.6-10.6,27.1-14.5c1-0.4,2.1-0.8,3.1-0.4s1.3,2.2,0.2,2.5c-12.6,4-24.2,11.3-33.3,21
		C203.9,284.4,206.4,280.5,209.1,278.3z"/>
	<path class="st0" d="M212.7,141.8c-4.6,8.6-10.4,16.6-17.3,23.6c-2.5-5-3.7-10.7-3.2-16.3c-1.7,4-7.8-0.7-7.8-5.1
		c-0.1-4.4,0.6-10.3-3.6-11.6c-1.1,3.1-2.7,6.5-5.8,7.7c-3.1,1.2-7.4-1.9-6-4.8c4.6,2,10.2-4.1,7.9-8.5c-4,0.3-8,0.7-12,1
		c14.2-10.6,26.8-23.3,37.2-37.6c0.9,4.1,1.8,8.1,2.7,12.2c2.9-4,5.8-8,8.8-12.1c1.9,6-0.9,13.1-6.4,16.2c4.2,0,8.3-2.1,10.8-5.4
		c-0.7,6.3-7.2,11.5-13.5,10.6c-2.1,10.1-4.3,20.3-6.4,30.4c4.6-8.3,9.2-16.5,13.8-24.8c-3,13.8-8.4,27.2-15.8,39.3
		c20.7-15.5,17.1-47.9,31-69.6c3.6-5.6,8.3-10.4,11.2-16.4c2.8-5.8,3.6-12.2,5.2-18.4c4.2-16.3,14.1-31.1,27.6-41.3
		c-0.1,12-0.2,24.3-3.9,35.7c-3.6,11.5-11.4,22.2-22.6,26.6c-2.8,1.1-4,4.3-4.8,7.3c-5.7,20.4-8,41.7-6.8,62.8
		c4.2,0.5,8.5,1,12.7,1.5c-8.6-7.3-9.4-22-1.8-30.3c4.2,10.7,15.1,18.5,26.6,18.9c-3.2-7.6-13.3-8.9-19.9-13.9
		c-8.1-6.2-10-18.2-7-28.1s9.6-18,16.1-26c11.7-14.2,23.3-28.3,35-42.5c-8,7-16,14-24,21c7-11,14.9-21.4,23.4-31.3
		c8.6,18.9-4.5,44.1-24.8,48.1c6,1.6,12.7,0.5,18-2.8c-2.5,5-4.9,10-7.4,14.9c11.6-11.6,23.3-23.2,34.9-34.7
		c1.1,6.3,2.2,12.5,3.3,18.8c8-6.6,16-13.1,24-19.7c1.6,20-8.9,40.5-26,50.9c10-11.5,17.5-25.2,21.9-39.9c-11,0.9-20,11.9-18.9,22.9
		c3.2-7,8.5-12.9,15.1-16.8c-10.4,14.2-21.2,29.1-24,46.4c11.2-7.8,21.8-16.5,31.6-26c1.3,8.6,2.5,17.6,0.1,25.9
		c-2.4,8.4-9.6,16-18.3,16.1c14.3,3.3,30.1-1.8,39.8-12.8c3.5,13.1-1.3,28-11.7,36.6c3.1-8.3,6.1-16.7,9.2-25
		c-8-2.2-15.1,5.1-20.6,11.3s-14.2,12.4-21.3,8.1c8.7-0.2,16.8-6.7,18.9-15.2c-11.9,3.9-25.4,2.6-36.3-3.5c-2.2,4-1.1,9.6,2.5,12.4
		c3.6,2.9,9.3,2.7,12.7-0.4c3.4,10.2,6.8,20.4,10.2,30.5c4.7-9.2,9.4-18.5,14-27.7c9.8,5.3,10,21.8,0.4,27.3c4-5.7,4.7-13.7,1.7-20
		c-11,12.3-18.4,27.7-21.1,44c8.6-11,14.9-23.7,18.4-37.2c-0.4,6.6-2.1,13.2-5,19.2c5.5-3,11.6-4.7,17.8-4.9
		c-1.1,8.8-3.3,17.8-9.1,24.4c-5.8,6.6-16.1,10-23.8,5.6c10.6,0.7,21.2-5.9,25.3-15.7c-5.6,6.7-14.3,10.8-23,10.6
		c-4.3-0.1-7.6,3.9-9.8,7.6c-8.1,13.9-11.2,30.5-8.7,46.4c4.2-15.8,8.3-31.7,12.5-47.5c8.4,7.4,22.1,7.8,31,0.9
		c3.3,8.2-0.1,18.5-7.6,23.2s-18.2,3.2-24.1-3.3c-1.4,6.5-2.8,13-4.2,19.5c-1.2,5.5-5.6,12.6-10.5,9.7c-2.4-1.4-2.9-4.7-2.9-7.6
		c0.1-7.7,2-15.3,5.6-22.1c-18.7,24.4-41.3,45.8-66.6,63.3c-8.8,6.1-18.4,12.2-23.2,21.9c-4.2,8.5-4,18.5-3.7,28
		c1.5,54.1,1.2,108.3-0.9,162.4c-0.7,18.5-1.7,37-2.6,55.5c-0.7,14.5-1.9,30.1-10.9,41.5c-9.1,11.4-29.2,14.8-37.4,2.8
		c12.7,2.6,28.2,4.1,36.5-5.9c4.7-5.7,5.6-13.6,6.2-21c5.9-73,7.5-146.4,4.8-219.6c-0.7-18-1.2-37.5,9.2-52.3
		c5.1-7.2,12.3-12.5,19.5-17.6c27.4-19.4,57.8-39.7,68.3-71.6c-20.3,33.8-53.1,60.1-90.5,72.5c-3.1-15.5,4.3-31.4,14.2-43.6
		c10-12.3,22.5-22.3,32.4-34.7c14.8-18.6,23-41.5,30.8-63.9c-3.4,13.6-6.9,27.2-10.3,40.8c8.6-24.2,17.2-48.4,25.7-72.5
		c-17.5,22.8-27.3,50.5-41.3,75.7c-12,21.6-27.1,41.5-44.8,58.9c-8.8,8.6-18.9,18.1-19,30.4c-0.3,33.8-0.6,67.5-0.9,101.3
		c-0.6,67.5-1.2,135.2-11.4,201.9c-2.9-20.3-0.7-41,1.2-61.4c7.8-83.3,9.5-167.1,5.1-250.6c-0.5-8.7,5-16.5,9.6-23.9
		c18.5-29.5,27.1-65.2,24-99.9c-4.5,23.1-9.6,46-15.3,68.8c-3.2,12.6-7,25.9-16.8,34.4c15.9-40.5,26.3-83.1,30.9-126.3
		c0.8,2.7,1.7,5.4,2.5,8.1c1.8-11,3.5-22.1,5.3-33.1c-14.1,20.8-16.2,47.2-20.4,72.1c-4.4,25.9-11.6,51.3-21.5,75.6
		c-1.7,4.2-4.7,9.1-9.2,8.6c-15.2-59.8-30.4-119.5-45.6-179.3c-5.6,35.2,16,68.4,23.7,103.1c4.8,21.8,4.2,45,12.5,65.7
		c-4-0.7-6.1-4.9-7.4-8.8c-10.3-30.6-2.9-68.1-24-92.4c9.1,41,18.3,82,27.4,123c-3.2-0.6-6.4-1.2-9.6-1.8c3.3,3.1,4.6,8.2,3.1,12.4
		c-6.2-16.5-18.5-30.6-34-38.8c7.8,11.5,19,20.7,25.2,33.2c17.3,34.7-10.1,76.5-2.5,114.5c2.7-34,7.9-67.8,15.6-101
		c-0.6,68.3-1.2,136.7-1.8,205c-0.3,36.6-0.6,73.3-6.3,109.5c0.2-12.7,0.3-25.3,0.5-38c1-79.9,1.9-159.8,2.9-239.6
		c-8.6,52.7-8.8,106.3-9,159.7c-0.2,43.1-0.4,86.1-0.5,129.2c-9.2-11.4-7-27.9-5.2-42.5c9.5-78-8.4-157.7,3.8-235.3
		c2.8-17.7,7.1-36.1,1.5-53.2c-5-15.3-17.3-26.9-26.9-39.9c-14.2-19.3-22.8-42.6-24.4-66.5c10.8,35.3,34.3,66.6,65.2,86.9
		c-11.6-31.6-19.7-64.5-23.9-97.9c-4.2-1.1-8.5-2.3-12.7-3.4c1.7,4.1,6,7,10.4,7.2c-6.9,4.3-17.3-2.8-15.9-10.7
		c6-0.7,12.2,0,17.9,1.9c-7.7-30.2-9.8-61.9-6.3-92.9c1.6,1.9,3.1,3.8,4.7,5.7c11-15.1,15.2-34.9,11.2-53.2
		c-2,10.1-4.1,20.1-6.1,30.2c-0.9,4.7-2.2,9.8-6.1,12.5s-11,0.2-10.3-4.5c1.4-9.5-1.5-19.3-0.4-28.9s9.3-19.8,18.6-17.4
		c-3.2,6.2-4.6,13.2-4.1,20.2c1-7,5.4-13.5,11.6-17c-0.3,8.2,3.5,16.5,9.9,21.6c6.1,4.9,9.1,13.4,7.3,21c-1.8,7.6-8.3,13.9-16,15.4
		c3.1,7.8,7.8,14.9,13.7,20.9c-0.3-11.3,1.6-22.6,5.5-33.1c2.5,9.6,10.9,16.2,16.9,24c6,7.9,9,20.4,1.5,26.8
		c-4.6,3.9-12.3,3.4-16.4-1c-0.3,3.5-0.6,6.9-0.9,10.4c-15.1-4.1-24.9-18.4-33.3-31.6c14.1,54.5,28.3,108.9,42.4,163.4
		C198.8,203.5,207.6,172.9,212.7,141.8 M138.1,221.3c0.9,1.1,1.9,2.3,2.8,3.4c0-1.4-1.1-2.7-2.4-3.1 M118.8,202
		c0.5,4.8,3,9.4,6.8,12.3c2.3,1.8,5.1,3,8,3.2C128.6,212.4,123.7,207.2,118.8,202 M215.2,266.3c22.1-7.6,42.5-20.5,58.9-37.2
		c-2.8,3.1-8.5,1.2-10.3-2.5s-0.8-8.2,0.9-12c1.7-3.8,4.1-7.3,5-11.4c2.9,4.1,6.2,8.4,11,10s11.3-1.3,11.3-6.3c-0.8-2.3-4-3.3-6-2
		c-0.3,1.4,0.4,2.9,1.5,3.6c-4.8,0.2-9.5-3-11-7.6c-1.5-4.5,0.4-10,4.4-12.6c3.1-8,8.1-15.2,14.5-20.9c9.1-8,1.3-26.3,11.1-33.4
		c-2.2-1.6-4.5-3.3-6.7-4.9c-3.6,8.8-7.2,17.6-10.8,26.4c-3.6,8.7-7.2,17.4-11.6,25.7c-10.5,19.4-25.7,35.7-41,51.7
		C227.1,242.6,217.3,253.1,215.2,266.3 M231.3,152c-0.3,30.4-10,60.6-27.5,85.4c-2.9,4.2-6.2,8.5-6.6,13.6
		c24.9-26.3,50.1-53,67-84.9C252.2,164.8,240.5,159.8,231.3,152 M305.7,164.8c4.3-9.7,5.8-20.3,7.3-30.8
		c-6.6,3.4-10.3,11.6-8.5,18.7c2.6,10.3-11.4,18.8-9.9,29.3c0.7,5.3,6,9.6,11.4,9.2c-2.4,3-7.3,2.9-10.5,0.8s-5-5.8-6.5-9.4
		c-0.5-1.1-2.3-1-3-0.1c-0.8,1-0.7,2.3-0.5,3.5c1.7,8.5,12.8,13.5,20.4,9.3c5-2.8,7.7-8.3,10.1-13.5c0.5-1.1,1-2.2,1.5-3.3
		c2.1-4.4,4.1-9,4.9-13.8s0.1-10.1-2.8-14c-4.7,5.2-9.2,10.9-11.4,17.6c-2.2,6.7-1.6,14.7,2.9,20c-2.2,0.6-4.7-0.6-6.1-2.5
		s-1.8-4.3-2-6.6C302.8,174.3,303.7,169.3,305.7,164.8 M307.9,88.6c4.4-8.3,6.7-17.7,6.8-27.2c0-4.7-0.6-9.7-3.3-13.5
		c-1.6,11.5-3,23-4,34.5c-2.5,0.8-3.6-3-3.3-5.6c1.1-9.1,2.2-18.3,3.4-27.4c-10.1,8-13,23.7-6.4,34.8
		C302.5,86.8,305.1,89.3,307.9,88.6 M246,65.2c3.4-11.8,8.2-23.2,14.2-33.9c1.9-0.1,1.9,2.9,1.2,4.6c-4.1,9.6-8.1,19.3-12.2,28.9
		c1.4,2.1,4.7,0.1,6.1-2c7.4-10.8,11.1-24.1,10.4-37.1c-6.5,2.3-11.4,7.8-14.5,13.9s-4.7,12.9-6.2,19.6
		C244.5,61.3,244.3,63.9,246,65.2 M171.6,86.1c-0.9,1.2-2.9,1.2-4.2,0.3c-1.3-0.8-2.1-2.2-2.8-3.6c-3.1-5.8-6.3-11.6-9.4-17.5
		c-0.8-1.5-1.4-3.9,0.1-4.7c1.7-0.9,0.5-3.7-1.3-4.1c-1.8-0.4-3.6,0.7-5.4,1.4c-1.7,0.8-4,1.1-5.3-0.3c2.8,4.9,5.7,9.9,8.5,14.8
		c5.2,9,11.3,18.8,21.2,21.9c1.4-10.1-4-20.7-12.9-25.5C162.9,75.2,166.8,81.1,171.6,86.1 M135.3,41.1c9-7.4,10.9-22,4-31.5
		C136,5.1,145-0.5,143.1-5.6c-7.3,5.1-11.3,14.7-9.8,23.5c0.6-2.6,2.5-4.9,5-5.8C134.6,21.2,133.5,31.4,135.3,41.1 M281,119.1
		c-5.9-4.1-10.6-10.1-13.1-16.8c-2.4,1.3-3.9,4.3-3.4,7c1,0,2.1,0,3.1,0.1c3.5,4.8,7,9.7,10.4,14.5c1,1.4,2,2.9,1.7,4.6
		c-0.3,1.6-3,2.5-3.7,1c-2.9-6.3-7-12.1-12-17c-2.6,1.6-1.1,5.6,0.7,8.1c3.8,5.5,7.7,11,12.7,15.4c2.3-2.3,4.6-4.8,5.7-7.9
		C284.2,124.9,283.7,121,281,119.1 M267.2,189.5c-15.7,16-30.9,32.4-45.6,49.2c-1.9,2.1-3.5,6-0.9,7.2c14.7-16.8,29.3-33.5,44-50.3
		C266.2,193.9,267.8,191.7,267.2,189.5 M295,76.9c-0.5-3.6-1-7.1-1.5-10.7c-5.1,5.7-4.2,14.4-2.4,21.8c1.7,7.4,3.8,15.6,0.2,22.3
		c1.2,0.8,2.6-0.7,3.3-2c2.4-4.3,4.9-8.6,7.3-12.9c0.8-1.4,1.4-3.5,0-4.3C297,88.7,295.8,82.4,295,76.9 M176.3,60
		c-2.5,8.4-1.5,17.9,2.7,25.6c1.1,2,3.4,4.2,5.4,3.1c1.8-1,1.6-3.7,0.7-5.5s-2.1-3.8-1.5-5.8c4.2,0.5,5.6,5.7,6.3,9.9
		c0.3,1.7,2,3.8,3.1,2.5c2.1-2.9,1.1-7-1-9.9c-2.1-2.8-5.1-4.8-7.7-7.2C180.6,69.3,177.8,64.9,176.3,60 M195.2,108.3
		c-1.5,5.7-3.1,11.4-4.6,17.1c-1.7,6.4-2.2,13.1-1.6,19.7c0,1.1,1.8,0.2,2.2-0.9c4.8-13.9,8.3-28.1,10.7-42.6
		C198.5,100.6,196.2,104.9,195.2,108.3 M161.5,46.5c5.4-1.5,7-8.3,7.6-13.9c0.3-2.9,0.6-5.9-0.5-8.5c-1.1-2.7-4.2-4.8-6.9-3.8
		c-0.7,4.5,3.3,9.3,1.4,13.4c-0.7,1.6-2.2,2.8-3.5,3.9c-5.5,4.6-10.3,10.2-13.9,16.4c0.2,2,3.4,1,4.7-0.6c4.3-5,8.6-10,12.8-15
		C162.7,41.2,162.1,43.9,161.5,46.5 M241.6,129.7c1.1,6.1,4.8,12.1,10.6,14.3c5.8,2.3,13.5-0.4,15.3-6.3
		C258.9,135.1,250.3,132.4,241.6,129.7 M251.4,93.8c4.2,3.4,10.3,3.8,15.5,2.2s9.6-5.1,13.5-9c1.6-1.6,3.2-3.4,3.1-5.6
		C272.8,85.5,262.1,89.6,251.4,93.8 M338.5,97c-7.4,3.6-14.8,7.1-22.2,10.7c1.4,1.2,1.3,3.6-0.1,4.8c5,1.7,10.7,0.9,15.1-2.1
		C335.7,107.4,338.4,102.2,338.5,97 M246.3,91.2c12.2-4.4,24.3-8.8,36.5-13.2c2.1-0.8,4.8-2.7,3.7-4.7c-11,3.7-22,7.4-33,11.1
		C250.2,85.6,246.1,87.7,246.3,91.2 M285.7,109.8c-1.7-5.7-3.5-11.8-2.2-17.7c-0.8-1-2.5-0.8-3.3,0.1s-1.2,2.2-1.3,3.5
		c-0.8,6.2-0.1,12.7,2.1,18.5c0.8,2.1,2,4.3,4.1,5.1s5-1.1,4.3-3.3c-0.7-0.2-1.3-0.4-2-0.6C286.9,113.6,286.3,111.7,285.7,109.8
		 M265.7,163.8c2-3.4,3.1-7.3,3-11.2c-8.8,2.6-18.2,3.3-27.3,2c-0.5,2.4,2.9,3.5,5.4,3.7C253.4,158.8,259.9,160.7,265.7,163.8
		 M237.1,152.1c10.7-0.1,21.4-0.8,32-2.2c2-0.3,4.5-1.1,4.5-3.1c-2.4-1.7-5.6-0.8-8.4,0c-9.9,2.8-20.6,2.5-30.3-0.8
		C234.1,148.3,235.1,151,237.1,152.1 M341.1,206.7c-3.6,0-6.2,3.9-9.8,3.9c-4.3,0-6.3-5.1-9.4-8.1c-2.8,1.6-2.9,5.9-0.9,8.3
		c2,2.5,5.3,3.4,8.5,3.6C334.8,214.9,341.4,212,341.1,206.7 M339.4,86c-0.8-1.7-3.5-0.9-5,0.3c-5.9,4.4-11.2,9.6-15.8,15.3
		c7.9-1.5,15.2-6,20-12.4C339.2,88.3,339.9,87.1,339.4,86 M347.6,167.1c1.4-1.5,2.1-4.7,0.1-4.7c-7.2,5.3-13.9,11.3-19.9,17.9
		c0,1.2,1.9,1,3,0.4C336.8,176.9,342.5,172.3,347.6,167.1 M308.1,103c-1.5,1.7-3,3.4-3.5,5.6s0.5,4.9,2.7,5.4c2.5,0.6,5,1.3,7.5,1.9
		c1.6-1.1-2.1-3.7-1-5.3C316,107.2,312.1,101.9,308.1,103 M290.3,38.2c-5.7,4.3-11.4,8.7-16.9,13.3c-1.3,1-2.7,2.8-1.6,4.1
		c4.2-1.6,8.5-3.3,12.1-6C287.3,46.8,290.1,42.7,290.3,38.2 M193,75.7c0.9-4-0.8-8.2-3.5-11.2s-6.5-5-10.2-6.5
		C182.2,64.9,187,71.1,193,75.7 M325.6,202c0.9,2.8,4.1,4.2,7.1,4s5.6-1.7,8.1-3.1c1.8-1,3.9-2.6,3.3-4.6
		c-5.4,2.5-11.6,3.3-17.4,2.1C326,200.3,325.3,201.3,325.6,202 M272.7,65.7c-4.6-1.8-9.4,1.9-13,5.3c-2.4,2.3-5,5-5.4,8.3
		c1.2-0.1,2.3-0.9,3.2-1.7C262.6,73.7,267.6,69.7,272.7,65.7 M250,101.3c-0.4-1.6-1-3.5-2.7-3.8c-2.3,7.7,0.5,16.7,6.9,21.7
		C252.8,113.2,251.4,107.3,250,101.3 M278.5,64.8c-1.1-1.1-3-0.3-3.9,0.9s-1.3,2.8-2.3,4c-2.6,3.2-8.5,2.9-9.8,6.8
		C269.8,78.3,278,72.3,278.5,64.8 M283.1,218.7c-3.7,0.6-7.4,1.2-11.1,1.8c-2.8,0.4-6.6,2.3-5.5,5c4.9,0.1,9.8-0.7,14.4-2.6
		C282.6,222.1,284.6,219.9,283.1,218.7 M190.6,111.3c-5.5,3.3-8.8,9.8-8.2,16.2c0.1,1.3,0.6,2.9,1.9,3.3
		C186.8,124.4,188.9,117.9,190.6,111.3 M290.2,103.9c0-5.9-1.4-11.8-3.9-17.2c-1.1,7-0.5,14.3,1.8,21
		C289.7,107.6,290.2,105.5,290.2,103.9 M153.5,37.5c5.6-1.8,7.8-10.1,3.6-14.4C155.3,27.7,154.1,32.6,153.5,37.5 M259,115.7
		c2-4.4-0.2-10.1-4.5-12.1c0.2,3.9,1,7.8,2.3,11.5C257.5,115.3,258.3,115.5,259,115.7 M275.1,98c-1.5-0.9-3.6,0.7-3.8,2.5
		c-0.2,1.8,0.8,3.5,1.8,5c0.9,1.5,1.9,2.9,2.8,4.4C276.6,105.9,276.3,101.8,275.1,98 M297.9,201.9c-3.5-3-8-4.8-12.6-5.1
		C287.5,201.2,293.3,203.5,297.9,201.9 M268.7,139.7c1.5,3.5,7.8,2.9,8.6-0.8c-2.6-2-6.5-2-9.1,0 M318.9,144.6
		c0.6-2-2.9-3.1-4.3-1.5s-1.1,4-0.7,6.1c2.7,0.6,5.6-2.1,5.2-4.8 M269.7,212.2c-0.4,1.3-0.8,2.6-1.3,3.9c2.2,0.7,4.6,0.8,6.8,0.1
		c-0.4-1.5-0.8-3.2-1.9-4.3c-1.2-1.1-3.3-1.3-4.2,0 M316.4,202.1c-0.1,0.8,0.8,1.6,1.6,1.5c2.6-1.7,3.4-5.6,1.7-8.2
		c-2.1,1.5-3.3,4.1-3.2,6.7 M242.4,123.1c0.5,2.7,3.4,4.7,6.1,4.3c-0.6-2.9-3.2-5.2-6.1-5.5 M281.5,197.1c-0.1-0.9-0.3-1.8-0.4-2.7
		c-1.7-0.5-3.2,1.7-2.8,3.5s2,2.9,3.5,4c0.9-1.4,0.6-3.4-0.6-4.5 M259.9,103.6c0.6,0.9,1.9,1.3,3,0.9c0.5-0.8,1-1.7,1.6-2.5
		c-1.4-1.4-3.6-1.9-5.5-1.3c-0.7,0.9-0.1,2.5,1.1,2.7 M197.4,146.1c0.2-0.8,0.1-1.7-0.4-2.5c-0.7,0.5-1.5,1.1-1.5,2
		c0,0.8,1.5,1.3,1.6,0.4 M178.9,121.6L178.9,121.6z"/>
</g>
</svg>
