<?xml version="1.0" encoding="utf-8"?>
<!-- Generator: Adobe Illustrator 18.1.1, SVG Export Plug-In . SVG Version: 6.00 Build 0)  -->
<svg version="1.1" id="Layer_1" xmlns="http://www.w3.org/2000/svg" xmlns:xlink="http://www.w3.org/1999/xlink" x="0px" y="0px"
	 viewBox="0 0 1190.6 841.9" enable-background="new 0 0 1190.6 841.9" xml:space="preserve">
<g>
	<path fill="#010101" d="M815.5,482l0.2-0.3"/>
	<path fill="#010101" d="M548.8,409.9c-0.3-15.1-6.3-30-16.5-41.1c-11.8-12.8-28.7-20.5-38.6-34.8c-5.5-7.9-8-19.6-1.5-26.7
		c7.3-8,20.4-5,30.6-1.4c-11.3-20.5-16.2-44.5-13.8-67.8c0.3-2.7,0.7-5.5,2.2-7.7c2.8-4.1,8.2-5.1,13.1-5.8c8.9-1.2,18.3-2.4,26.7,1
		c5.2,2.1,9.5,5.7,13.7,9.3c7.5,6.4,15.1,12.8,22.6,19.1c20.7,17.5,42.9,37.7,45.8,64.6c0.8,7.2,0.1,14.6,1.2,21.8
		s4.4,14.6,10.8,18.1c11,5.9,22.1,11.7,33.1,17.6c5.4,2.9,11.7,9,8.1,14c-4,5.4-2.4,13.3,1.8,18.5c4.2,5.2,10.4,8.2,16.4,11.1
		c32.3,15.6,64.4,31.5,96.3,47.8c5.9,3,12.4,6.8,13.9,13.2c-40.2-32.2-95.5-41.2-134.6-74.7c-16.8-14.4-33.6-28.7-50.3-43.1
		c-1.7-1.5-3.6-3-5.9-3.4c-4.1-0.7-9.5,2.1-11.6-1.4c13.9-11.5,18.8-32.6,11.5-49.1c-4.4-9.9-12.3-17.6-20-25.1
		c-12.7-12.2-25.3-24.5-38-36.7c-6.3-6.1-12.7-12.3-20.5-16.3c-7.8-4-17.4-5.5-25.4-1.9c-2,0.9-4,2.2-5.2,4
		c-1.2,1.9-1.6,4.2-1.8,6.5c-2.7,26.8,5.3,54.7,22,75.9c8.8,11.3,3.2,30.5,14.2,39.6c-7.3-3.9-14.7-7.8-22-11.7
		c-12.9-6.9-26.8-14.7-32.5-28.2c-1.4,11.6,6.4,22.5,15.4,30c9,7.5,19.6,13.2,27.4,22C547.5,378.6,551.9,394.9,548.8,409.9
		 M521.1,311.1c-0.3,1.3-2.1,1.6-3.4,1.5c-3.2-0.2-6.4-0.3-9.6-0.5c-2-0.1-3.4,2.3-3.1,4.3c0.4,2,1.9,3.6,3.4,5
		c4,3.7,8.3,6.9,13,9.7c2.4-3.2,4.8-6.6,5.4-10.6C527.2,316.5,525,311.9,521.1,311.1 M680.4,386.3c-0.4-1.3-0.9-2.5-1.8-3.6
		c-1.4-1.7-3.5-2.6-5.5-3.3c-5.1-1.9-10.5-3-15.9-3.2c6.1,8.6,13.3,16.3,21.4,23C681,395.3,681.6,390.5,680.4,386.3 M536.5,341.5
		c1.4-6.7,0.8-13.8-1.8-20.2c-0.6-1.6-1.7-3.3-3.4-3.4c-1.7,4-3.3,7.9-5,11.9c-1.2,3-0.7,6.6,1.4,9
		C529.9,341.2,533.4,342.3,536.5,341.5 M632.4,351.9c0.2,1,1.7,1.3,2.4,0.6c0.3-1.7-0.8-3.7-2.5-3.5c-0.7,0.8-0.7,2.2-0.1,3.1
		 M641.7,366.4c-0.1,1.4,1.7,1.9,3.1,2c0.1-1-0.1-2.1-0.9-2.7c-0.8-0.6-2.3-0.1-2.3,0.9L641.7,366.4z"/>
	<path fill="#010101" d="M815.8,482.3l0.2-0.3"/>
	<path fill="#010101" d="M797,592.5c6.3,6.9,11.5,14.7,15.3,23.2c-1.9-1.4-3.8-2.7-5.7-4.1c-1.3,4.7,1.3,10.2,5.8,12.1
		c2.1-2.1,5.5-2.8,8.2-1.5c-2.5,0.8-4.4,3.2-4.6,5.8c4.2-0.6,8.1-3.1,10.6-6.6c-1.8-0.6-2.1-3.3-1-4.9s2.9-2.4,4.6-3.3
		c14-7.2,21-23.9,21.2-39.6c0.2-15.7-5.2-30.9-10.5-45.7c-5.3-14.7-10.6-29.4-15.8-44.1c5.2-0.2,7.2,6.6,9.6,11.3
		c6.3,12.4,25.2,16.2,28,29.8c-5.8-6.5-12.6-12.1-20-16.5c1,6.1,3.9,13.8,10,13.4c0.5,10.5,3.7,20.9,9.1,29.9
		c3.2,0.6,6.3,1.2,9.5,1.7c-1.1,3.3-2.3,6.6-3.4,9.8c-0.3-2.2-0.7-4.3-1-6.5c-3.3,0.7-5.7,4-5.5,7.3c1.2-0.1,2.5-0.2,3.7-0.3
		c5.5,4.8,14.9,3.9,19.4-1.9c-3.9-2.4-7.8-4.7-11.7-7.1c7.1-0.9,14.6,3,17.8,9.4c-8.6,4.1-18.4,5.8-27.9,4.8c-4-0.4-5.7,4.9-6.3,8.9
		c-3.1,20.4-15.1,39.3-32.3,50.7c-6.5,4.3-14.7,7.7-22.1,5c-22.7-16.8-36.1-45.4-34.7-73.6c0.2-3.8-4.7-5.8-8.6-5.4
		c-3.8,0.4-7.8,2.1-11.4,0.7c-6.5-2.4-14.3-0.7-19.2,4.3c-4.9,4.9-6.6,12.7-4.2,19.2c4.3,11.6-18.3,21.6-12.5,32.5
		c-3.2-3.4-6.6-6.9-11-8.4c-4.4-1.6-10.1-0.6-12.5,3.4c-0.4-4.6-0.9-9.3-1.3-13.9c-6,3.1-13.6,2.9-19.5-0.5
		c18.6-12.6,33.4-30.8,42-51.6c1.1-2.7,2.1-5.3,3.1-8c7.4-8.6,16.8-15.6,27.3-20.1c-20.1,16.1-35.5,38.1-43.7,62.5
		c6.7-11.2,19.4-17,31-23c11.6-6,23.8-14,27-26.7c4.9,3.6,2.5,11.6-2,15.6c-4.5,4-10.7,6.1-14.5,10.8c10.9,0.3,21.8,0.6,32.7,1
		c2-5.4,5.7-10.1,10.5-13.4c-2.8,6.8-5.6,13.6-8.4,20.3c5.7,0.1,10.6-5.9,9.5-11.5c1.7,0.1,3.4,0.2,5.2,0.3
		c-0.6,4.8-2.9,11-7.7,10.4c0.6,5.4,1.2,10.8,1.7,16.2c4.4-2.6,5.7-9.3,2.4-13.3c2,1.9,4.6,3.1,7.4,3.3c-4.4,5.6-1.3,15.3,5.5,17.4
		C795.3,585.6,795.5,589.4,797,592.5c-2.4-2.1-6.3,1.9-5.3,5c1,3.1,4.3,4.8,7.4,6.1C799,599.9,798.3,596.1,797,592.5 M705.9,574.9
		c-3.7,0.5-7.2,2.7-9.2,5.8C700.5,580.9,704.3,578.5,705.9,574.9 M700.3,592.6c-2.1,0.7-4.4,0.9-6.4,1.9c-2,1-3.7,3.1-3.2,5.2
		c1.3-0.2,2.7-0.3,4-0.6c7.2-1.4,13.6-6.4,16.7-13.1c1.5-3.2,2.9-7.4,6.4-8c-2-0.3-2.2-3.3-1.2-5.1c1-1.8,2.5-3.8,1.8-5.7
		c-3.5-0.1-6.9,2.7-7.3,6.2c-1.2,1.6-2.4,3.3-3.5,5c0.8,0.5,1.7,0.7,2.7,0.6C710.2,585,706,590.7,700.3,592.6 M719.5,565.9
		c3.2-2.3,5.4-5.9,6.1-9.8c-9.5,2.4-18.1,8.2-24,16c3.4,1.1,6.9-1.2,9.3-3.8c1.2-1.3,2.3-2.6,3.9-3.4
		C716.4,564.2,718.6,564.4,719.5,565.9 M778.9,587.7c0.5,0.4,1.1,0.7,1.7,0.7c1.4-0.2,1.5-2.2,1.2-3.6c-1.2-5.1-2.4-10.1-3.6-15.2
		c-0.7-0.8-2.2-0.5-2.8,0.4s-0.7,2-0.7,3.1C774.5,578.3,774.8,584.3,778.9,587.7 M785.7,576c-2.5,5.6-0.2,12.9,5.1,16.1
		C792.8,586.4,790.6,579.5,785.7,576 M690.7,581.4c-4.6,1.1-8.9,3.7-12,7.4c3.9-0.1,7.8,0.2,11.6,1C690.8,587,691,584.2,690.7,581.4
		 M805.3,608.5c0-2-2-3.8-4-3.6c-1.6,2.5,0,6.4,2.9,7.1c0.5-1.2,1-2.4,1.5-3.6 M785.8,604.8c1.9,0.1,1.9-3,0.5-4.2s-3.5-1.9-4.2-3.6
		c0,2.9,1.4,5.7,3.7,7.4 M806.3,627.8c2,0.8,4.3-2.1,3-3.9c-1.4-0.1-3-0.2-4,0.9C804.3,625.8,804.9,628.1,806.3,627.8 M796.4,615.8
		c-2.1-2.5-4.2-5.1-6.3-7.6c0.4,3.5,2.4,6.7,5.4,8.5 M862.5,557.1c0.7-1.4-0.8-3.2-2.3-2.9c-1.5,0.3-2,2.6-0.8,3.6
		c1,0.5,2.3,0.1,2.9-0.9 M772.8,565.5L772.8,565.5 M717.8,588.5L717.8,588.5z"/>
	<path fill="#010101" d="M820.7,621.9l0.6-0.7"/>
	<path fill="#010101" d="M528.2,501.2c16.7,2.4,33.9,2,50.5-1.2c1,0.3,1.6,1.6,1.1,2.5c-7.4,1.6-14.5,4.5-21,8.4
		c-5.8-6.9-16.6-5.4-25.5-3.5s-19.9,2.7-25-4.8c9.1-0.1,9.3-16.5,18.1-18.8c5-1.3,6-7.8,6-13c0.2-13.5,1.2-27.3,6.3-39.8
		c5.1-12.5,14.9-23.7,27.8-27.6c0.6,3.1-3,5.2-5.8,6.7c-7.7,4.1-13.8,11.2-16.6,19.4c-1.1,3.1-1.7,6.4-2.3,9.6
		c-1.2,6.4-2.3,12.7-3.5,19.1c-2,10.7-4,21.5-5,32.4c-2.1,0.6-4.4-1.9-3.7-4c-3.9-0.3-7.9,2.5-8.7,6.4s1.5,8.1,5.2,9.5
		c-0.7,0.9-0.4,2.5,0.7,3.1s2.6-0.1,2.9-1.3C528.5,503.9,527.7,502.4,528.2,501.2z"/>
	<path fill="#010101" d="M725.4,546.2l0.3-0.2"/>
	<path fill="#010101" d="M862.9,525.2l0.2-0.3"/>
	<path fill="#010101" d="M863.9,526.2l0.2-0.3"/>
	<path fill="#010101" d="M722.7,547.9l0.3-0.2"/>
	<path fill="#010101" d="M689.8,519.5L689.8,519.5"/>
	<path fill="#010101" d="M560.9,484.8c6.2,0.7,11.9,4.6,14.6,10.2c-4.6-2.1-9.2-4.2-13.8-6.3c-1.1-0.5-3-0.5-2.8,0.7
		c0.6,1.3,1.3,2.6,1.9,3.9c-1.6,1.2-4.1,0.2-5.2-1.5s-1.1-3.9-0.9-5.9c1.1-14.6,8.2-28.2,10.1-42.8c1.4-10.8,6.3-21,13.8-28.9
		c0.6-0.6,1.2,0.7,1,1.4c-1.3,6.8-3.4,13.4-6.1,19.8c-1.4,3.1,0.6,6.6,2.9,9.1c2.2,2.5,5,5.1,5.4,8.4c-3.4-1.9-6.3-4.8-8.3-8.2
		c-2.6,2.5-4,6.2-3.7,9.8c-3.8,0-5.6,4.5-6.5,8.1c-1.3,5.6-2.7,11.2-4,16.7C558.6,481.6,558.7,484.6,560.9,484.8z"/>
	<path fill="#010101" d="M683.8,516.5L683.8,516.5"/>
	<path fill="#010101" d="M681.8,515.5L681.8,515.5"/>
	<path fill="#010101" d="M678.3,514L678.3,514"/>
	<path fill="#010101" d="M675.8,512.5L675.8,512.5"/>
	<path fill="#010101" d="M593.8,467.1c-0.8-0.8-1.6-1.5-2.1-2.5c-1.1-2.1-0.5-4.7,0.1-7c8.3,9.5,16.6,19.1,25,28.6
		C608.4,480.9,601.1,474,593.8,467.1z"/>
	<path fill="#010101" d="M673.8,511.5L673.8,511.5"/>
	<path fill="#010101" d="M673.2,511c-11.8-3.8-23.7-7.6-35.5-11.4c-2.5-0.8-5.3-2-5.8-4.5C646.4,498.1,660.4,503.5,673.2,511z"/>
	<path fill="#010101" d="M586.9,459.2l0.2-0.3"/>
	<path fill="#010101" d="M552.8,299.5c-4.7,1.8-10.6-0.4-13-4.8c-2.4-4.4-1.1-10.5,2.9-13.6c1.3-1,2.8-1.7,3.6-3
		c2.5-4-3.1-10.1,0-13.6c3.2,7.1,5.9,14.5,8.1,22c0.5,1.6,0.9,3.4,0,4.8s-3.5,1.4-3.8-0.2c-1.8-0.3-1.7,2.8-0.3,4.1
		C551.6,296.4,553.6,297.9,552.8,299.5L552.8,299.5z"/>
	<path fill="#010101" d="M586.5,459.1l0.2-0.3"/>
	<path fill="#010101" d="M585.5,458.1l0.2-0.3"/>
	<path fill="#010101" d="M475.8,719.5L475.8,719.5"/>
	<path fill="#010101" d="M679.8,514.5L679.8,514.5"/>
	<path fill="#010101" d="M868.7,548.4c-0.1,0.8-1.3,1.2-1.9,0.6s-0.4-1.7,0.4-1.9c0.7-0.4,1.7,0.5,1.3,1.2L868.7,548.4z"/>
	<path fill="#010101" d="M566.7,465.5c0.2,0.8,0.1,1.8-0.4,2.5c-0.8-0.5-1.4-1.5-1.4-2.5c0-1.1,2-1.1,2.1,0L566.7,465.5z"/>
	<path fill="#010101" d="M584.8,456.9c-1.7-0.5-3-2.1-3.1-3.9c1.7,0.5,3.1,2.2,3.2,3.9L584.8,456.9z"/>
	<path fill="#010101" d="M626.3,494c-1.8-0.1-3.4-1.9-3.3-3.8c1.9,0.1,3.5,1.8,3.6,3.7L626.3,494z"/>
	<path fill="#010101" d="M868.5,537.5c0.5,2,0.7,4.8-1.3,5.6c-0.8-2.6-0.8-5.5,0-8.2c0.8,0.6,1.4,1.5,1.5,2.5L868.5,537.5z"/>
</g>
</svg>
