<?xml version="1.0" encoding="utf-8"?>
<!-- Generator: Adobe Illustrator 19.1.0, SVG Export Plug-In . SVG Version: 6.00 Build 0)  -->
<svg version="1.1" id="Layer_1" xmlns="http://www.w3.org/2000/svg" xmlns:xlink="http://www.w3.org/1999/xlink" x="0px" y="0px"
	 viewBox="-122 -123.6 595.3 841.9" style="enable-background:new -122 -123.6 595.3 841.9;" xml:space="preserve">
<style type="text/css">
	.st0{fill:#FFFFFF;}
</style>
<g>
	<g>
		<path class="st0" d="M-6.5,530c-0.3-1.6,0.3-2.8,1.3-4c1.4-1.8,2.6-3.8,4-5.7c1-1.3,2.1-2.5,2.5-4.1c0.2-0.5,0.5-1,0.9-1.4
			c1.6-2,3.1-4.2,4.5-6.4c0.4-0.6,0.9-1,1.3-1.6c0.4-0.5,0.8-0.9,1.1-1.4c0.1-0.2,0.2-0.5,0.4-0.6c2.3-1.4,3.1-4.1,4.8-6
			c0.4-0.4,0.6-1,0.9-1.4s0.6-0.9,1-1.3c1.3-1.1,2.6-2.2,3.8-3.3c0.1-0.1,0.3-0.1,0.3-0.3c0.4-2,2.3-2.6,3.5-3.8
			c0.4-0.4,0.9-0.9,1.3-1.4c1.1-1.8,2.3-3.5,4-4.8c0.2-0.1,0.4-0.4,0.4-0.6c0.2-1.7,1.4-2.6,2.6-3.6c3.2-2.8,5.7-6.2,8.4-9.4
			c0.2-0.3,0.4-0.5,0.6-0.8c2.2-2.4,4.4-4.8,6.7-7.1c2.2-2.2,4.6-4.3,6.8-6.5c1.4-1.4,2.7-3,4.1-4.5c0.6-0.6,1.3-1,1.9-1.6
			c0.4-0.4,0.8-0.8,1.2-1.2c1.8-2,3.3-4.2,6-5.3c1.7-0.7,3-2.5,4.3-3.8c0.9-0.9,1.6-2,2.6-2.7c1.1-0.8,2.4-1.4,3.7-1.9
			c1.8-0.6,3.1-1.7,3.9-3.5c0.2-0.4,0.4-0.8,0.8-1c2-1.1,3.3-2.9,4.6-4.7c1.8-2.5,4.1-4.5,6.4-6.5c1.3-1.1,2.4-2.3,3.6-3.4
			c0.3-0.2,0.5-0.4,0.8-0.6c1.5-0.5,2.5-1.7,3.6-2.7c1.6-1.4,3.2-3.1,5.1-4.2c1.8-0.9,3.2-2.1,4.8-3.3c1-0.8,2.1-1.1,3.4-0.8
			c1.6,0.3,3.1-0.4,4.2-1.8c0.3-0.4,0.8-0.7,1.3-0.9c0.4-0.2,0.9-0.1,1.3-0.4c2-1.5,4.3-2.5,6.1-4.3c1.1-1.1,2.1-2.3,3.7-2.9
			c0.4-0.1,0.8-0.6,1.2-0.9c1-0.7,2-1.4,3.2-1.9c1.5-0.6,3.1-1.4,4-3c0.2-0.4,0.5-0.8,0.9-0.9c1.4-0.9,2.9-1.8,4.4-2.5
			c1.4-0.7,2.5-1.7,3.1-3.1c0.2-0.4,0.4-0.9,0.8-1c1.7-0.9,2.6-2.5,3.8-3.8c0.4-0.5,0.6-1.3,0.8-2.1c0.3-1.5,0.9-2.5,2.6-2.7
			s3.4-0.4,5-0.9c1.3-0.3,2.5-0.9,3.6-1.6c1.3-0.8,2.5-1.3,3.9-0.6c1.2,0.6,2.1,0.2,2.8-0.8c1.2-1.8,3-2.6,4.9-3.4
			c1.9-0.8,3.7-1.8,5.5-2.8c0.9-0.5,1.8-0.8,2.9-0.8c1.4,0.1,2.6-0.3,3.7-1.1c1.7-1.1,3.7-2,5.4-3c1.3-0.8,3-1.1,4.5-1.2
			c2.3-0.2,4-1.3,5.4-2.8c1.9-2,4.2-2.9,6.7-3.5c1.6-0.4,3-1.2,4.5-2c1.6-0.8,3.4-1.3,4.8-2.6c0.3-0.3,0.7-0.3,1-0.4
			c2.4-0.8,4.9-1.4,7.2-2.3c2-0.7,3.9-1.4,5.8-2.4c2.6-1.3,5.3-2,8.1-2.6c1.7-0.4,3.5-0.5,5-1.6c0.3-0.2,0.7-0.3,1.1-0.3
			c2.1,0,4-0.9,6-1.5c2.1-0.6,4.2-1.1,6.4-1.6c2-0.6,4-1.3,6-1.8c1.3-0.3,2.6-0.4,3.9-0.7c2.3-0.4,4.5-0.9,6.9-1.3
			c1.8-0.3,3.6-0.4,5.4-0.7c1-0.1,2-0.1,3-0.5c1.4-0.6,2.8-0.8,4.3-0.6c1.8,0.1,3.7,0.2,5.5,0.3c0.1,0,0.3,0.1,0.4,0
			c2.6-0.3,5.1-0.5,7.7-0.9c2-0.3,3.8-0.6,5.7,0.2c1.4,0.6,3,0.4,4.6,0.1c3.5-0.8,7.1-2.1,10.8-1.1c0.2,0.1,0.4,0.1,0.6,0
			c3-0.4,6-0.9,9.1-1.3c0.1,0,0.1-0.2,0.3-0.4c-0.3-0.2-0.5-0.5-0.8-0.6c-2.4-0.5-4.5-1.5-6.6-2.6c-1.8-0.9-3.8-1.3-5.7-2
			c-3.3-1.2-6.6-2.2-10-3c-2.6-0.6-5-1.6-7.5-2.4c-1.8-0.6-3.8-1-5.6-1.6c-1.6-0.5-3.2-1.1-4.9-1.6c-0.6-0.2-1.3-0.4-2-0.6
			c-0.3-0.1-0.8,0-0.9-0.2c-1.8-1.8-4.5-1-6.5-2.2c-0.4-0.3-1.1-0.2-1.6-0.3c-0.4-0.1-0.9,0.1-1.3-0.1c-2.1-1.3-4.7-0.6-6.9-1.4
			c-0.9-0.3-1.9-0.6-2.9-0.8c-0.9-0.3-1.8-0.6-2.8-0.7c-2.8-0.3-5.6-0.8-8.3-1.8c-0.8-0.3-1.7-0.3-2.6-0.6c-1-0.3-2.1-0.5-3-1.1
			c-1.1-0.9-2.3-1.3-3.7-0.9c-1.6,0.3-3.1,0.1-4.7-0.3c-1.7-0.4-3.5-0.4-5.2-0.6c-2.1-0.3-4.3-0.4-6.2-1.3c-0.1-0.1-0.3-0.1-0.4-0.1
			c-2.6-0.3-5.2-0.6-7.9-0.9c-1.8-0.2-3.5-0.3-5.3-0.4c-1.1-0.1-2.3,0-3.3-0.1c-0.4,0-0.9,0.1-1.3-0.1c-2-0.8-4-0.5-6-0.4
			c-1.6,0.1-3.3-0.1-4.9-0.1c-0.6,0-1.3-0.1-1.9,0.1c-2.1,0.7-4.2,0.5-6.4,0.6c-2.8,0.1-5.7,0.4-8.5,0.6c-0.2,0-0.4,0.1-0.6,0.1
			c-2.1-0.5-4.1,0.3-6.1,0.7c-1,0.2-2.1,0.1-3.1,0.2c-1.4,0.1-2.9,0.3-4.3,0.4c-1.7,0.1-3.4,0.2-5.1,0.1c-0.8-0.1-1.4,0.1-2.1,0.6
			c-0.7,0.4-1.5,0.7-2.3,0.7c-2.5,0-4.9,0.3-7.3,0.8c-0.7,0.1-1.4,0-2.1,0.1c-0.8,0.1-1.7,0.4-2.5,0.7c-1,0.3-2,0.7-3.2,1.1
			c0.9,0.9,2.6-0.7,3.3,1.3c-1.4,0.4-2.8,0.9-4.3,1c-5.5,0.3-11,0.5-16.4,0.9c-2.6,0.2-5.3,0.4-7.9,0.8c-1.3,0.2-2.5,0.7-3.8,1.2
			c-1.1,0.4-2.1,0.6-3.3,0.6c-2.8,0.1-5.7,0.5-8.4,0.8c-0.8,0.1-1.5,0.3-2.3,0.2c-1.9-0.3-3.6,0.4-5.4,1c-0.9,0.3-1.8,0.4-2.8,0.5
			c-4.1,0.3-8.2,0.5-12.3,0.9c-1.2,0.1-2.3,0.5-3.5,0.8c-3.1,0.5-6.2,1-9.3,1.5c-0.3,0.1-0.6,0.2-0.9,0.1c-4.1-0.4-8,1.3-12.2,1.1
			c-3-0.1-6.1,0.8-9.1,1.3c-0.3,0.1-0.6,0.1-0.9,0.1c-2.7,0.3-5.4,0.4-8.1,0.9c-2.8,0.5-5.5,0.4-8.3,1.5c-1.8,0.7-4,0.6-5.9,1.1
			c-3.3,0.7-6.5,1.5-9.8,2.2c-0.8,0.2-1.6,0.4-2.4,0.4c-0.5,0-1.3-0.3-1.4-0.6c-0.1-0.5,0-1.3,0.4-1.6c0.6-0.6,1.4-1,2.3-1.3
			c1-0.4,2-0.7,3.1-0.8c2.9-0.4,5.7-1.3,8.3-2.5c0.4-0.2,0.9-0.1,1.3-0.3c0.8-0.2,1.6-0.4,2.3-0.9c1.1,0.2,2.1,0.4,3,0.6
			c0.6-0.4,1.3-0.9,1.8-1.3c1.5-1.1,3.1-1.1,4.9-1.1c1.6-0.1,3.2-0.5,4.9-0.8c0.3-0.1,0.7-0.2,0.9-0.1c1.6,0.8,3.1,0,4.7-0.3
			c0.6-0.1,1.3-0.1,1.9-0.1c1.7-0.1,3.3-0.1,5-0.3c0.1,0,0.3-0.1,0.3-0.1c0.8-1,1.8-0.8,2.8-0.4c0.3,0.1,0.5,0,0.9,0
			c0.3-1.4,1.3-1.6,2.5-1.4c0.5,0.1,1,0,1.5-0.1c2.4-0.6,4.9-0.8,7.3-0.6c0.5,0,1.1-0.3,1.6-0.4c1.3-0.5,2.5-0.7,3.8-0.3
			c2.4,0.6,4.9,0.6,7.1-0.8c0.9-0.6,1.8-0.8,2.9-0.6c2.3,0.3,4.5-0.6,6.6-1.4c0.6-0.3,1.3-0.4,2-0.4c2-0.1,4,0,6.2,0
			c0.1-1.4,1.5-1.1,2.5-1.6c0.4,0.5,0.7,0.9,1,1.3c2.8-0.7,5.5-1.3,8.1-2c0.3-0.1,0.6-0.2,0.9-0.2c2.6,0.1,4.9-1,7.4-1.3
			c0.5-0.1,1-0.3,1.5-0.3c2.1,0,4-0.4,6-1.4c1.7-0.9,3.7-1.1,5.6-1.6c0.3-0.1,0.6-0.1,0.9-0.1c2,0.3,3.9-0.1,5.7-0.8
			c0.2-0.1,0.4-0.3,0.5-0.2c1.3,0.8,2.3,0.1,3.3-0.4c0.6-0.3,1.4-0.1,2,0.2c1.3,0.8,2.4,0.4,3.3-0.4c1.8-1.6,3.9-1.6,6-1.6
			c1.3,0,2.6,0,3.9-0.4c1.6-0.5,3.2-0.6,4.9-0.9c2.9-0.4,5.7-0.8,8.6-1.1c0.4-0.1,0.9-0.4,1.7-0.8c-1.8-1-2.8-2.3-4.7-2.3
			c-2.1-0.1-4.1-1-5.5-2.5c-2.5-2.6-5.7-4.4-8.8-6.2c-2.7-1.6-5.4-3.3-8.1-4.9c-1.3-0.8-2.6-1.4-4-2c-1.3-0.4-2.2-1-2.8-2.3
			c-0.5-1.1-1.4-2-2.6-2.3c-2.3-0.7-4.3-2-6.1-3.6c-2-1.8-4.4-3.1-6.7-4.7c-0.9-0.6-1.8-1.4-2.7-2.1c-0.9-0.6-1.8-1.1-2.6-1.8
			c-0.8-0.6-1.5-1.1-2.2-1.7c-2.3-2-4.5-4.1-6.8-6c-2-1.7-4-3.2-6-4.9c-1.2-1.1-2.1-2.3-3.2-3.5c-2.6-3-5.5-5.5-7.5-8.9
			c-0.5-0.8-0.8-1.7-1.3-2.5c-0.4-0.7-0.8-1.4-1.4-2c-1.1-1.3-1.5-3-2-4.7c-0.3-1-0.2-2.1-0.5-3.1c-0.8-2.6-0.3-5.2,0.8-7.6
			c0.8-1.8,1.9-3.4,2.5-5.4c0.3-1.1,1.4-1.8,3.1-1.9c1.7-0.1,3.5-1.1,5-1.9c2.8-1.4,5.3-3.5,8.5-4c3.2-0.5,6.1-2,9.1-3
			c2.5-0.8,5-1.3,7.5-1.8c0.4-0.1,0.8-0.1,1.1-0.3c1.5-0.7,3-0.8,4.7-0.9c1.8-0.1,3.7-0.5,5.5-0.9c1.2-0.3,2.3-1.1,3.5-1.5
			c0.7-0.3,1.5-0.4,2.2-0.4c2,0.3,3.9,0.1,5.5-1.2c1.8-1.3,3.9-1.6,6-1.6c1.8,0,3.5-0.3,5.2-0.7c2-0.6,3.9-0.6,5.9-1
			c1.7-0.3,3.3-0.4,5-0.5c0.9-0.1,1.8-0.6,2.7-0.9c1.2-0.3,2.5-0.6,3.7-0.8c1.4-0.3,2.8-0.4,4.3-0.6c1.7-0.2,3.3-0.4,5-0.5
			c1.1-0.1,2-0.3,2.7-1.1c0.1-0.2,0.4-0.4,0.6-0.4c2.5-0.3,4.5-1.9,7-1.8c0.4,0,0.9-0.3,1.2-0.4c1.8-1.1,3.7-1.1,5.7-0.8
			c0.9,0.2,2-0.1,3-0.1c0.4-0.1,1-0.4,1.3-0.2c1.2,0.8,2.2,0.4,3.4,0c0.5-0.2,1.3-0.1,1.8,0c0.8,0.3,1.4,0.7,2.3,1.1
			c1.1-0.6,2.3-0.4,3.2,0.8c1.5-1,3-0.8,4.5-0.3c0.9,0.4,2.1,0.3,3.3,0.4c0.4-0.8,1-1,2-0.8c0.5,0.1,1.1,0,1.7-0.1
			c2.3-0.6,4.6-0.5,6.9-0.4c2,0.1,4-0.1,6-0.1c1.7,0,3.4,0,5.1-0.1c2.1-0.1,4.2-0.4,6.4-0.4c1.2,0,2.3,0.3,3.5,0.5
			c0.7,0.1,1.4,0.2,2.1,0.2c3.2-0.1,6.4-0.3,9.6-0.4c0.5,0,1,0.1,1.4,0.2c0.7,0.1,1.4,0.4,2.1,0.4c3.9,0.1,7.7,0.6,11.5,1.7
			c0.9,0.3,2,0,3,0.1c3.4,0.5,6.8,0.2,10.1,0.3c2,0.1,4,0.1,6,0.3c0.4,0,0.9,0.3,1.1,0.6c0.8,0.9,2,1.1,3.1,1.3
			c3.6,0.4,7.2,0.6,10.7,1.2c2.1,0.3,4.1,0.5,6.2,0.3c1.4-0.2,2.8-0.5,4.3-0.7c0.8-0.1,1.6-0.1,2.5-0.1c0.9,0,1.4-0.4,1.8-1.1
			c0.4-0.8,0.3-1.5-0.3-2.1c-0.3-0.4-0.8-0.7-1.1-1c-1-0.7-2-1.3-3-1.9c-0.4-0.3-0.9-0.3-1.4-0.4c-0.8-0.3-1.4-0.6-2.2-0.9
			c-1.7-0.6-3.4-1.3-5.1-1.8c-2-0.6-4-0.8-6-1.4c-1.9-0.5-3.7-1.2-5.5-1.8c-0.9-0.3-1.8-0.6-2.7-0.8c-1.1-0.3-2.3-0.4-3.5-0.6
			c-0.5-0.1-1-0.1-1.4-0.3c-0.9-0.4-1.8-0.4-2.8-0.2c-0.9,0.3-1.8,0.1-2.7-0.4c-1-0.6-2.1-1.2-3.4-0.7c-0.3,0.1-0.7,0-0.8-0.2
			c-1.1-1.3-2.6-1-4-0.9c-1.1,0.1-2.2-0.1-3.6-0.1c-1.6,1.3-3.6,1.4-5.6,0.2c-0.7-0.4-1.3-1-2.2-0.4c-0.3,0.2-0.8-0.1-1.3-0.2
			c-0.5-0.1-0.9-0.1-1.4-0.2c-0.3,0-0.6,0.1-0.7,0c-0.9-1.4-2.7-0.8-3.9-1.6c-0.8-0.5-1.7-0.5-2.5-0.1c-1.8,1-3.5,0.8-5.4,0.6
			c-3.5-0.4-6.9-1.2-10.5-0.9c-3.3,0.3-6.7-0.1-10-0.3c-0.5,0-0.9-0.3-1.4-0.4c-1.3-0.4-2.5-1-4-0.6c-0.7,0.2-1.6-0.4-2.4-0.4
			c-2,0.1-3.8-0.9-5.7-0.6c-0.6,0.1-1.2-0.4-1.8-0.6c-0.4-0.1-0.9-0.5-1.2-0.4c-0.9,0.3-1.7-0.1-2.3-0.8c-1.8,1.8-2.3,1.7-3.3-0.5
			c-0.3-0.6-0.7-1.2-1.1-1.7c-1.3-1.4-1.1-2.3,0.8-2.9c0.6-0.2,1.2-0.6,1.6-1c1.6-1.8,3.7-2.3,5.8-2.9c1.1-0.3,2.1-0.7,3.3-0.8
			c2.2-0.3,4.3-0.5,6.6-0.7c3.7-0.3,7.2,0.5,10.8,1c1.3,0.2,2.4,0.4,3.7,0c0.9-0.3,2.1,0,3.1,0.3c0.7,0.1,1.3,0.3,2,0
			c0.4-0.2,0.9-0.1,1.3-0.1c1.8,0,3.7,0.1,5.4,0c0.4,0,1-0.5,1.2-0.9c0.3-0.6-0.2-1.1-0.8-1.3c-0.7-0.3-1.4-0.4-2.2-0.6
			c-1.5-0.3-3-0.6-4.3-1.3c-0.6-0.3-1.3-0.3-2-0.4c-1.1-0.1-2.1-0.3-3.2-0.4c-0.7-0.1-1.4-0.3-2.1-0.2c-2.2,0.3-4.3,0.2-6.6-0.1
			c-0.9-0.1-1.9,0.1-2.8,0c-3.8-0.4-7.6-0.9-11.4-1.4c-1.7-0.3-3.4-0.9-5.1-1.4c-0.6-0.2-1.2-0.3-1.8-0.4c-1.4-0.3-2.9-0.6-4.3-0.8
			c-2.6-0.4-5.2-1.4-7.7-2.1c-0.6-0.1-1.3-0.1-1.9-0.1c-1.5,0-3,0.1-4.5-0.6c-0.1,0-0.1-0.1-0.2-0.1c-2.1,0.3-4,0.1-6-0.8
			c-1-0.4-2.2-0.4-3.3-0.6c-0.4-0.1-0.8-0.2-1.1-0.2c-2.4-0.2-4.8-0.4-7.1-0.6c-0.7-0.1-1.3-0.3-2-0.4c-2.6-0.4-5.2-0.8-7.7-1.4
			c-1.3-0.3-2.4-0.9-3.7-0.9c-0.6,0-1.1-0.5-1.6-0.9c-0.6-0.4-1.1-0.9-2-0.8c-0.4,0.1-1.1-0.3-1.4-0.7c-0.6-0.7-1.2-0.8-2-0.4
			c-1,0.4-1.8,0.2-2.5-0.6c-0.6-0.7-1.4-0.8-2.5-0.8c-1.5,0-3.1-0.1-4.5-1.3c-1.2-0.9-2.6-1.5-3.9-2.2c-0.7-0.4-1.3-0.1-2,0.3
			c-0.8,0.5-1.4,0.4-2.3-0.1c-1.3-0.8-2.5-1.6-3.9-2.3c-0.6-0.3-1.4-0.3-2.2-0.3c-1.3,0.2-2.5-0.1-3.7-0.6c-0.8-0.3-1.7-0.4-2.5-0.6
			c-0.6-0.1-1.3-0.1-1.9-0.3c-3.2-0.9-6.6-1.4-9.4-3.3c-0.4-0.3-0.8-0.3-1.3-0.4c-2-0.6-4-1.3-6-2c-1.6-0.6-3.2-1.1-4.8-1.8
			c-2-0.8-4-1.8-6-2.6c-0.8-0.3-1.6-0.8-2.3-0.7c-1.9,0.2-3.3-0.7-4.7-1.6c-2-1.3-4-2.6-6-3.9c-0.8-0.5-1.8-0.5-2.6-0.9
			c-2.3-1.1-4.5-2.5-7.1-3c-0.1,0-0.3-0.1-0.3-0.2c-1.6-2.1-4.2-1.9-6.4-2.8c-2.4-0.9-4.9-1.8-7.2-2.8c-1.4-0.6-2.8-1.4-4.2-2.1
			c-0.9-0.4-2-0.6-3.1-0.8c-2-0.4-3.7-1.2-5.5-2c-2.4-1.1-5-1.8-7.5-2.6c-0.6-0.3-1.3-0.5-1.9-0.9c-1.1-0.8-2.3-1.5-3.8-1.5
			c-0.4,0-0.8-0.3-1.3-0.4c-0.4-0.2-0.8-0.5-1.2-0.5c-3.5,0.2-6.1-2.5-9.4-3c-0.6-0.1-1.1-0.4-1.6-0.7c-3-2-6.4-2.7-9.6-3.8
			c-3.1-1.1-6.2-2.4-9.3-3.6c-0.8-0.3-1.6-0.7-2.5-0.9C6.4,69.2,2,67.9-2.3,66.7c-0.7-0.2-1.4-0.3-2.4-0.4c-0.1,0.6-0.1,1.1-0.1,1.6
			c-1.6,0.1-2.9-0.5-4.1-1.3c-1.4-1-3.1-1-4.7-1.1c-0.2,0-0.4,0.2-0.7,0.3c-0.1,1.3,1.3,2.3,0.4,3.7c-0.9-0.4-1.8-0.7-2.6-1
			c0-7.7,0-15.4,0-23.1c0.9,0.7,1.8,0.4,2.6-0.2c0.3,0.6,0.4,1.1,0.6,1.7c0.8-0.4,1.4-0.6,2.1-0.9c1.3,4,1.6,4.3,3.6,4
			c0.1-0.7,0.2-1.3,0.3-2.2c1,0.4,1.7,0.8,2.4,1.1C-5,49-5,49.2-5,49.5c-0.1,0.7-0.1,1.3,0.7,1.6c0.7,0.3,1-0.3,1.4-0.8
			c0.3-0.3,0.6-0.5,0.9-0.8c1.2,1.1,0.1,3.2,1.8,4c0.4-1,0.6-1.8,0-2.8c-0.2-0.3-0.1-0.8,0-1.3c0.3-1.9,0-2.6-1.7-3.4
			c-0.7-0.3-1.3-0.8-2-1.1c-0.5-0.3-0.9-0.5-1.6-0.8c-0.3,0.6-0.6,1.1-0.8,1.6c-0.4-0.3-0.8-0.8-1.2-0.7c-1.4,0.2-2.1-0.7-2.8-1.6
			c-0.4-0.6-0.9-1.3-1.4-2c-1.6,1.4-3.3,1.9-5,2.1c0-3.1,0-6.3,0-9.4c2,0.1,3.9,0.4,5.5,1.7c0.1,0.1,0.3,0.1,0.4,0.1
			c2.7,0.8,5.4,1.5,8.1,2.3c0.3,0.1,0.8,0.3,0.9,0.6c1.1,1.8,2.9,2.4,4.7,3c0.8,0.3,1.3,0.7,1.6,1.4c0.3,0.6,0.8,1.2,1.3,2.1
			c0.1-0.7,0.2-0.9,0.3-1.1c0.3-2.2,1.7-3,3.5-1.7c1.5,1,3.3,1.6,4.3,3.2c0.1,0.2,0.6,0.3,0.9,0.4c2.7,0.8,5.4,1.6,8.1,2.3
			c1.8,0.4,3.3,1.2,3.8,3.3c0.4-0.5,0.8-0.9,1.1-1.2c0.6,0.3,1.1,0.6,1.6,0.7c1.6,0.1,3,0.5,4.4,1.4c0.8,0.5,1.3,0.9,1.4,1.8
			s0.3,1.6,0.3,2.5c0,0.9,0.2,1.7,0.9,2.3c0.9-0.1,1.6-0.3,2.5-0.4c0-1.9-3-2.4-2.1-4.7c1.9,0.8,3.6,2,4.1,3.8
			c0.7,2.3,3.3,2.5,4.1,4.5c0,0.1,0.1,0.1,0.2,0.1c1.6-0.6,1.7,1.1,2.5,1.6c0.3,0.3,0.6,0.9,0.4,1.3c-0.3,0.8-0.3,1.4,0.4,2
			c0.6,0.5,0.9,1.1,1.4,1.7c1.3-0.6,1.2,0.9,2,1.1c1,0.3,2,0.5,3.1,0.8c-0.3,0.7-0.5,1.1-0.8,1.6c0.9,0.4,1.6,0.9,2.4,1.3
			c1.3,0.5,2.7,0.9,4,1.4c0.4,0.2,0.8,0.6,1.1,1c0.3,0.3,0.4,0.7,0.8,1.1c0.6-0.9,0.6-1.6-0.1-2.3c-0.9-0.9-1-2-0.6-3.3
			c0.2,0.3,0.4,0.5,0.6,0.8c1,2.1,2.8,3.7,4.5,5.2c0.6,0.5,1.8,0.1,2.7,0.2c0.1,0,0.1,0,0.2,0.1c1.3,0.8,2.6,1.5,4,2.3
			c0.1,0.1,0.3,0.1,0.5,0.1c0.3-0.5,0.4-1,0.6-1.4c1.4,0.1,1,1.3,1.3,2c0.9,0.1,1.3-0.2,1.1-1c-0.2-1.1-1.3-2.2-2.6-2.3
			c-1-0.1-1.8-0.4-2.5-1.2c0.3-0.8,0.8-1.3,1.5-0.9c1.1,0.7,2.4,0.9,3.5,1.7c1.4,0.9,3.2,1.4,4.9,1.7c0.8,0.1,1.4,0.2,2.1,0.6
			c1,0.5,2,1.1,3,1.4c1.2,0.4,1.4,0.4,1.4,2.3c-0.5-0.4-0.8-0.9-1.3-1.1c-0.3-0.1-0.9,0-1.1,0.3c-0.2,0.2-0.1,0.8,0.1,1.1
			c0.3,0.3,0.7,0.6,1.1,0.7c2.4,0.8,4.8,1.5,7.2,2.4c0.8,0.3,1.5,0.9,2.2,1.4c0.4,0.3,0.7,0.7,0.8,0.8c1.6-0.1,2.8-0.5,4-0.3
			c1.3,0.2,2.5,0.8,3.7,1.3c1.3,0.5,2.5,1.3,3.7,1.7c2,0.8,4.3,0.9,6.3,2c0.4,0.3,1.1,0.1,1.6,0.2c0.9,0.1,2.1,0.9,2.3,1.8
			c0.2,1.2,0.3,2.5,0.3,3.7c0,0.4-0.3,0.8-0.4,1.3c-0.3-0.1-0.6-0.2-0.8-0.4c-1.1-0.9-2.3-1.3-3.8-1.4c-0.9,0-1.7-0.6-2.6-0.9
			c-0.3-0.1-0.6-0.3-0.6-0.3c-0.9,0.8-1.3,0-1.9-0.4c-1.1-0.9-1.3-0.8-2.5,0.3c0.3,0.2,0.4,0.4,0.7,0.6c3.5,2,7.5,2.8,11.3,4
			c0.9,0.3,1.8,0.3,2.5-0.6c-0.2-1.3-0.4-2.6-0.6-4c0.5,0.1,0.9,0.3,1.2,0.2c2.8-0.5,3.1-0.3,3.3,2.4c0,0.4,0,0.8,0,1.3
			c-1,0.1-2,0.1-3.1,0.2c0.1,0.4,0.1,0.9,0.3,1.1c0.6,0.4,1.4,1.2,1.9,1.1c1.4-0.3,2.2,0.6,3.4,0.9c0.4-0.4,0.9-0.9,1.3-1.3
			c-0.1-0.9-0.8-0.8-1.3-0.9c-0.9-0.1-1.5-1-1.3-2c0.3-0.2,0.7-0.4,1.1-0.6c0-0.6,0-1.1,0-1.6c0.1-0.1,0.3-0.1,0.4-0.2
			c0.9,1.1,1.2,2.5,1.6,3.7c0.4,1.3,0.3,2.9,1.1,4.3c0.3-0.6,0.6-1.1,0.8-1.7c-1.8-1.4-0.9-3.7-1.4-5.6c0.5,0.3,0.9,0.5,1.4,0.7
			c0.4,0.2,0.9,0.3,1.8,0.6c-0.8-2-1.4-3.8-2.2-5.4c-1.4-2.6-3.8-4.6-4.7-7.5c-0.1-0.1-0.1-0.3-0.3-0.3c-1.4-1-1.8-2.6-2.5-4.2
			c-1.6-3.3-3.7-6.3-6.6-8.6c-0.6-0.5-1.4-0.8-2.2-1.3c0.9-1.6,0.3-2.8-0.9-3.7s-1.7-2-2.2-3.2c-0.4-0.9-0.8-1.7-1.3-2.5
			c-1.2-1.8-2.3-3.6-3-5.7c-0.3-1-0.9-2-2.3-1.6c-0.3,0.1-0.7-0.2-1-0.3c-1.2,1.6-2.6,1.8-4.2,0.3c-0.3-0.3-0.5-0.6-0.8-0.7
			c-1.5-0.7-1.7-1.3-0.8-3c0.6,0.4,1.1,0.7,1.6,1.1c1.4,1.4,1.6,1.4,3.7,0.5c-0.4-0.8-0.8-1.5-1.2-2.3c1.3-1.5,1.4-1.8,0.4-3.5
			c-0.3-0.4-0.4-0.8-0.7-1.1c-1-1.4-2.1-2.8-3.1-4.3c-1.7-2.5-3.3-5.1-5-7.6c-0.5-0.8-1.1-1.4-1.7-2c-0.8-0.9-1.6-1-2.7-0.6
			c-2.5,0.8-4.9,2.1-7.1,3.5c-1.9,1.3-3.8,2.6-6.2,2.5c-0.4,0-0.9,0.1-1.3,0.3c-1.4,0.6-2.8,1.1-4.1,1.7c-1.2-1.9-3.2-2.1-4.9-2.3
			c-1.6-0.1-2.5-0.6-3.2-1.8c-0.3-0.3-0.6-0.9-0.9-0.9c-1.3,0-1.5-1-1.8-1.8c-0.3-0.9-0.4-1.8-1.1-2.5c-0.3-0.3-0.2-1.1,0-1.4
			c0.5-0.7,0.2-1.3,0-2c-0.4-1.2-1.1-2.3-1.3-3.6c-0.4-2.5-0.9-4.9-1.6-7.2c-0.1-0.5-0.1-1-0.3-1.5c-0.6-3.1-1.1-6.2-1.6-9.3
			c-0.1-0.6-0.1-1.1-0.1-1.6c0-0.5,0.1-1,0.1-1.5c-0.1-1.2-0.2-2.4-0.3-3.6c1.4,0,2.8,0,4.2,0c0.1,1.4,0.3,2.8,0.3,4.2
			c0.1,3.1,0.3,6.3,1.1,9.4c0.4,1.6,0.8,3.2,1,4.8c0.4,3.3,1.3,6.4,3.1,9.2c0.9,1.4,1.9,2.8,3.7,3.7c1.6,0.7,3.1,1.7,4.2,3.1
			c0.8,1,1.6,1.1,2.8,0.8c0.9-0.3,2-0.4,3-0.6c0.6-0.1,1.3-0.2,1.8-0.4c1.5-0.7,3-1.6,4.5-2.3c1.4-0.7,3-1.4,4.5-2
			c1.5-0.5,3.1-0.8,4.6-1.1c0.4-0.1,1,0.1,1.4,0.2c0.5,0.1,0.9,0.5,1.4,0.6c1.8,0.2,2.6,1.1,3.1,2.8c0.6,1.8,1.5,3.6,3.4,4.6
			c1.3,0.8,1.4,2.1,0.9,3.8c0.2,0.3,0.4,0.6,0.7,0.8c2.4,2.1,3.9,4.7,5.3,7.5c1.3,2.5,2.6,5,4.3,7.2c4.8,6.4,8.9,13.3,12.6,20.4
			c1.3,2.5,2.6,4.7,4.9,6.4c0.7,0.6,1.3,1.4,1.8,2.2c1.4,2.3,2.8,4.8,4.3,7.1c1.8,2.8,3.8,5.5,5.5,8.3c2.7,4.5,5.2,9.1,7.7,13.7
			c1.1,2.1,2.6,3.6,4.9,4c0.9,0.2,1.8,0.4,2.8,0.4c1.8,0.1,3.7,0.3,5.3,1.1c0.6,0.3,1.3,0.4,2,0.6c2.1,0.6,4.3,1.1,6.5,1.7
			c1.1,0.3,2.3,1,3.5,0.9c2.6-0.3,4.8,1,7.2,1.2c1.6,0.1,3.1,0.7,4.6,1.1c1.1,0.3,2.3,0.6,3.5,0.9c0.9,0.2,1.8,0.4,2.8,0.6
			c1.8,0.4,3.3,1.7,5.4,1.3c0.6-0.1,1.4,0,2.1-0.3c0.8-0.2,1.6-0.2,2.4-0.1c2,0.4,3.8,1.3,5.9,1.3c0.8,0,1.8,0.3,2.5,0.8
			c1.3,0.9,2.5,0.6,3.7-0.1c0.5-0.3,1.3-0.6,1.8-0.4c2.1,0.4,3.8-0.3,5.5-1.3c2-1.2,3.8-1.8,6.1-1.2c0.9,0.3,1.5-0.1,2-0.9
			c0.8-1.2,1.9-2,3.3-2.3c0.5-0.1,0.9-0.4,1.4-0.6c2.1-0.8,4.3-1.6,6.5-2.5c1.1-0.4,2.1-0.9,3-1.5c2.1-1.3,4.1-2.7,6.1-4
			c0.3-0.2,0.7-0.3,1.1-0.4c1.5-0.7,3.2-1.1,4.2-2.8c0.1-0.3,0.6-0.6,0.9-0.6c2-0.5,2.7-2.1,3.3-3.8c0.8-2.3,1.8-4.5,3.1-6.7
			c0.4-0.7,0.8-1.4,1.1-2.2c1-2.2,2-4.5,3.1-6.7c0.4-0.8,1.2-1.5,1.5-2.4c1.2-2.8,1.7-5.9,3.3-8.6c0.1-0.2,0.2-0.5,0.2-0.7
			c0.3-1.4,0.4-2.8,0.8-4.2c0.3-1,0.1-1.8-0.8-2.3c1.3-0.8,1.3-2.1,1.2-3.1c-0.2-2.3,1.4-4.4,1-6.8c-0.1-0.3,0.3-0.6,0.4-0.9
			c0.7-1.8,2.1-3.5,2.1-5.6c0-1.6,0.8-2.6,1.9-3.5c1.9,0.2,3.8-0.6,5.5,0.3c0.2,0.1,0.4-0.1,0.7-0.2c0.3-0.1,0.6-0.3,0.9-0.2
			c2,0.6,3.9,0.7,5.9,0.1c0.2-0.1,0.4,0,0.6,0c2.9,0.1,5.7-0.3,8.3-1.6c0.3-0.2,0.7-0.4,1.1-0.4c1.3-0.1,2-0.6,2.3-2
			c0.4-1.6,1.2-1.8,2.8-1.5c1.8,0.3,3.6,0.3,5.4-0.1c1.9-0.4,3.7-1.3,5.7-0.9c0.6,0.1,1.3-0.3,2-0.4c1.4-0.4,3-1,4.4-1
			c2.2-0.1,3.9-0.8,5.2-2.5c0.4-0.4,1-0.8,1.5-1.1c0.4-0.2,0.9-0.3,1.2-0.5c1.1-1.1,2.3-1.8,3.7-2.5c1.4-0.6,2.6-2,3.9-3
			c2.1-1.6,4.1-3.3,6.2-4.9c0.8-0.6,1.2-1,0.9-2c-0.3-1.4,0-2,2-2.3c0.4-0.1,0.8,0,1.1,0.1c1.5,0.5,2.7,0.2,3.7-1.1
			c0.4-0.5,0.9-1,1.4-1.3c1.6-0.8,2.9-1.7,4.2-2.9c0.2-0.2,0.6-0.4,0.8-0.4c1.1,0.1,1.6-0.6,2.3-1.1c0.8-0.8,1.7-1.6,2.6-2.1
			c2.1-1,4.3-1.8,6.5-2.6c1.4-0.5,3-0.9,4.5-1.3c0,1.6,0,3.3,0,4.9c-1.6,0.9-3.1,2-4.7,2.6c-1.6,0.6-3.2,0.9-4.5,2.1
			c-0.4,0.4-1,0.7-1.6,1c-1,0.6-2,1-3,1.7c-0.7,0.5-1.4,1.1-1.4,2.1c0,0.2,0.1,0.3,0.3,0.6c0.4-0.3,0.9-0.4,1.3-0.6
			c0.1,0.1,0.2,0.1,0.3,0.3c-0.3,0.8-0.6,1.6-1.1,2.3c-0.2,0.3-0.9,0.6-1.1,0.5c-0.3-0.2-0.6-0.8-0.7-1.1c-0.1-0.5,0-1.1,0-1.9
			c-0.8,0.3-1.3,0.3-1.6,0.6c-2.3,1.6-4.7,3.1-6.9,4.9c-2.1,1.8-4.2,3.8-6.6,4.9c-2,0.9-2.8,2.6-4.2,3.8c-0.6,0.5-0.7,1.3-0.3,1.9
			c0.5,0.7,1.1,0.4,1.6,0.1c0.2-0.1,0.4-0.1,0.9-0.2c-0.2,1.1,0.2,2.3,1.2,1.9c1.3-0.6,1.8,0.5,2.7,0.6c0.3,0,0.6,0.6,0.6,0.9
			c0,0.3-0.3,0.7-0.6,0.8c-0.3,0.1-0.7-0.1-1-0.3c-0.4-0.3-0.8-0.8-1.2-0.8c-1.3,0-2.5,0.2-3.7,0.3c-0.9-1.4-1.8-2.6-2.7-4.2
			c-0.9,1.5,0.9,2.8-0.3,4.1c-0.4-0.3-0.9-0.6-1.4-0.7c-0.8-0.2-1.7-0.5-2.5,0.1c-0.8,0.5-1.6,0.9-2.5,1.3c-0.9,0.5-1.7,1-2.8,1.6
			c0.6,0.7,1.1,1.3,1.6,1.8c0.5,0.6,1.2,1.1,0.6,2c-1.1-0.1-0.8-1.8-2.1-1.3c-0.1,0.5-0.1,1-0.3,2c-0.6-0.9-1.1-1.5-1.4-2
			c-2.6,0.2-5.2-0.3-7.7,0.8c-0.5,0.3-1.1,0.1-1.7,0.1c-1.5,0.1-3,0-4.5,0.2c-1.5,0.2-2.8,1-4.3,1.2c-0.7,0.1-1.3,0.8-2.1,1.2
			c0.7,1.2,1.6,1.2,2.6,1.1c0.9-0.1,1.1,0.4,1.3,0.9c-0.6,0.5-1.1,0.9-1.6,1.3c-1.1-0.6-2.1-1.1-3.1-1.7c-0.1,0.6-0.1,1.1-0.2,1.8
			c-0.7-0.6-0.4-1.8-1.6-1.7c-0.3,0.4-0.6,0.9-0.8,1.4c-0.6,0.1-1.3,0.1-1.9,0.2c-0.1-0.6-0.1-1.2-0.3-1.8c-0.1,0-0.3-0.1-0.4-0.1
			c-0.3,0.6-0.5,1.3-0.8,2.1c-0.9-0.4-1.7-0.8-2.8-1.2c-0.2,1.3-0.4,2.3-0.5,3.1c-1.4,0.8-2.7,0.9-4,0.2c-0.2-0.1-0.6-0.1-0.8-0.1
			c-1.1,0.8-2.9,0.4-3.5,2c-2.4-0.4-4.6-0.8-6.8-1.1c-0.6-0.1-1.3,0.4-1.6,0.9c-0.2,0.3,0.3,1.1,0.6,1.6c0.3,0.3,0.8,0.4,1.1,0.6
			c1.3,0.6,1.6,1.4,1.3,3.2c-0.8-0.3-1.6-0.4-2.5-0.7c-0.7-0.2-1.3,0.1-1.3,0.7c0,1.5-0.4,3.1,0.9,4.5c0.7,0.7,1.1,1.8,1.6,2.6
			c-0.1,0.2-0.2,0.3-0.3,0.5c-1-1.1-2-0.9-3.1-0.6c-0.3,0.9-0.6,1.8-0.8,2.6c-0.7,2-1.5,4-2.2,6c-0.4,1.3-0.6,2.6-1.2,3.7
			c-0.7,1.1-1.3,2.3-2,3.5c-1.1,2-2.9,3.7-3.3,6c-0.1,0.5-0.6,0.9-0.9,1.4c-0.7,1.3-1.4,2.6-2.1,4c-0.1,0.3,0,0.9,0.3,1.1
			c0.3,0.2,0.8,0.1,1.2-0.1c1.5-0.8,3-1.6,4.4-2.5s2.8-1.6,4.3-2.4c0.9-0.4,1.4-1.1,1.3-2.1c0-0.1,0.1-0.2,0.3-0.3
			c0.4,0.3,0.9,0.6,1.3,0.9c0.4-0.3,0.8-0.8,1.1-0.8c0.8,0.2,1.3-0.1,1.8-0.7c0.3-0.3,0.8-0.5,1.1-0.6c2.1-0.6,4.2-1.2,6.4-1.7
			c0.7-0.2,1.7-0.1,2-0.9c0.4-1.4,1.8-1.6,2.6-2.4c1.1-1,2.3-1.3,3.8-1.4c0.4-0.1,0.9-0.3,1.1-0.6c0.6-0.9,1.4-1.1,2.4-1.3
			c1-0.2,1.9-0.6,2.5-1.6c0.3-0.4,0.8-0.8,1.3-0.9c1.4-0.5,2.8-0.9,4.2-1.5c1.4-0.6,2.6-1.4,4.3-0.7c0.3,0.1,0.8-0.1,1.2-0.3
			c0.6-0.3,1.3-0.6,1.9-0.8c1.1-0.5,2.3-0.8,3.2-1.6c0.7-0.6,1.4-1,2.3-1.1c1.9-0.1,3.5-1.2,5.4-1.6c1.1-0.3,2.2-0.6,3.1-1.1
			c0.8-0.5,1.5-0.7,2.5-0.4c1,0.4,1.8-0.1,2.4-1c0.2-0.3,0.3-0.7,0.4-1.1c0.9,0.1,1.8,0.1,2.7,0.3c0.4-0.5,0.6-1.2,1.1-1.3
			c0.4-0.1,1,0.4,1.6,0.8c0.3-1.2,1.1-1.7,2.3-1.6c0.9,0.1,1.9-0.1,2.8-0.3c0.8-0.1,1.4-0.4,1.3-1.5c-0.3,0.1-0.4,0.1-0.6,0.1
			c-0.7,0.2-1-0.3-0.9-0.8c0.1-0.3,0.6-0.6,0.9-0.6c0.4,0,0.9,0.2,1.2,0.4c0.7,0.5,1.3,0.6,2.1,0.4c1-0.1,2-0.1,2.9-0.7
			c0.4-0.3,1.1-0.3,1.6-0.1c1.9,0.3,3.8,0.1,5.6-0.4c2.2-0.6,4.5-1.2,6.7-1.8c0.8-0.2,1.3-0.7,1.3-1.5c-1.3-0.1-2.5-0.3-3.7-0.4
			c-0.4-0.1-0.8,0-1.1,0.1c-2.6,0.9-5.2,0.4-7.8,0.2c-0.7-0.1-1.5-0.3-1.5-1.4c0.9,0,1.7,0.2,2.5-0.1c1.6-0.5,3.2-1.1,5-0.1
			c0.4-0.9,0.6-1.7,0.9-2.5c1.1,0,2.1,0,3.1,0c0,0.3,0.1,0.4,0.1,0.5c0,0.5-0.3,1.2,0,1.5c0.5,0.6,1.1,0.1,1.7-0.1
			c0.6-0.3,1.1-0.8,1.6-0.8c2.1-0.3,4.2-0.5,6.3-0.8c0,3.3,0,6.6,0,9.8c-0.3,0.3-0.5,0.6-0.8,0.8c-0.3-0.3-0.5-0.6-0.9-0.9
			c-1.5,1.8-4,0.1-5.7,1.6c0.8,2.8-0.6,4.1-2.8,3.7c-0.3-0.1-0.6-0.1-0.9-0.1c-2-0.3-4.2,0.4-6.2-0.4c-0.2-0.1-0.5,0.1-0.8,0.1
			c-2.1,0.1-4.3,0.3-6.4,0.4c-1.1,0.1-2.3,0.3-3.3,0.6c-3.1,1.1-6.2,2.2-9.4,3.3c-0.6,0.3-1.3,0.6-1.6,1.2c-0.6,0.9-1.3,0.9-2.1,0.7
			c-0.6-0.1-1.2-0.4-1.4-0.4c-1.9,0.6-3.5,1.3-5.2,1.6c-0.9,0.1-1.6,0.3-2.4,0.9c-1,0.9-2.1,1.6-3.5,1.4c-0.6-0.1-1.4,0-1.8,0.4
			c-1.4,1.5-3.5,1.3-5.3,2c-1.8,0.8-3.8,1.1-5.8,1.8c-0.7,0.3-1.5,0.6-1.8,1.2c-1.3,2-4,1.6-5.5,3.3c0,0.1-0.1,0.1-0.2,0
			c-1.3-0.4-2,0.3-2.7,1.1c-0.3,0.3-0.8,0.4-1.2,0.5c-0.4,0.1-1,0.1-1.3,0.3c-1.3,1.4-3,2-4.9,2.5c-0.9,0.3-1.7,0.7-2.6,1.1
			c-0.3,0.1-0.8,0.1-1.1,0.3c-1.5,1.4-3.6,1.8-5.3,2.8c-0.7,0.4-1.6,0.4-2.3,0.8c-2.4,1.3-4.7,2.8-7.1,4c-3.4,1.6-6.3,4.2-9.8,5.6
			c-0.3,0.1-0.5,0.4-0.8,0.6c-2.6,2.1-5.4,4.3-8.1,6.6c-1.7-1.1-2.5-0.1-3.1,1.3c-1.3-0.3-2.3,0.3-3.2,0.9c-0.5,0.3-1,0.8-1.6,1
			c-1.7,0.9-3.5,1.8-5.2,2.7c-1.1,0.6-2,1.6-3.4,1c-0.2-0.1-0.6,0.1-0.9,0.3c-1.5,0.6-2.5,2.2-4.3,2.2c-0.1,0-0.1,0.1-0.1,0.1
			c-0.8,1.2-2.1,1.2-3.4,1.2c-0.4,0-0.8,0.1-1.3,0.1c0.3,0.3,0.3,0.6,0.4,0.6c2.4,0.4,4.5,2,7.1,1.3c0.3-0.1,0.7,0.1,1.1,0.2
			c0.9,0.2,1.7,0.4,2.6,0.6c2.2,0.3,4.5,0.8,6.7,0.4c1.5-0.3,3,0.4,4.4,0.7c2.6,0.5,5.2,0.8,7.9,1.1c4.5,0.5,9.2,0.1,13.6,1.9
			c0.2,0.1,0.4,0,0.6,0.1c2.4,0.4,4.7,0.7,7.1,0.3c0.4-0.1,0.8,0,1.1,0.1c2.8,0.5,5.7,0.2,8.4,1.2c0.8,0.3,1.8,0.1,2.6,0.1
			c2.1,0.1,4.2,0.1,6.2,0.2c3.4,0.2,6.8,0.4,10.2,0.6c0.6,0.1,1.2-0.1,1.7,0.1c3.2,0.9,6.6-0.5,9.7,0.8c0.1,0.1,0.3-0.1,0.4-0.1
			c0.9,0,1.9,0,2.8,0c0.9,0,1.9,0.1,2.8,0.1c2.6,0,5.2-0.1,7.7,0c1.2,0,2.4,0.2,3.6,0.3c2.1,0.1,4.2,0.3,6.2,0s4-0.5,6,0.3
			c0.4,0.2,1-0.2,1.5-0.1c1.3,0.1,2.6-0.1,3.7,0.4c1.8,0.8,3.5,0.6,5.2,0.1c1.7-0.6,3.4-0.5,5-0.3c1.6,0.3,3.3,0.3,4.9,0.1
			c0.8-0.1,1.3,0.1,1.9,0.5c1.2,0.7,2.5,1.4,4,0.7c0,1.9,0,3.8,0,5.7c-4.9-0.3-9.7-0.6-14.6-0.1c-0.5,0.1-1-0.1-1.5-0.1
			c-2.1-0.3-4.3-0.8-6.4-0.6c-2.3,0.3-4.3-1.1-6.5-0.6c-1.4-1.1-3.1-0.8-4.7-0.7c-0.9,0.1-1.7,0.3-2.6,0.3c-0.6,0.1-1.1,0.2-1.6,0.2
			c-1-0.1-2-0.3-3-0.3c-1.3,0-2.5,0.4-3.7,0.2c-3.1-0.4-6,0.4-9,0.6c-0.9,0.1-1.6,0-1.9-0.4c-1.4,0.1-2.6,0.2-3.8,0.2
			c-1.1,0-2.3-0.4-3.4-0.3c-1.9,0.2-3.7-0.1-5.4-0.9c-0.4-0.1-0.9-0.2-1.2,0c-1.1,0.6-2.1,0.6-3.3,0.5c-1.3-0.1-2.6-0.4-3.9-0.3
			c-3.3,0.3-6.5,0.2-9.6-0.8c-0.8-0.3-1.6-0.4-2.4-0.6c-0.4-0.1-0.8-0.2-1.1-0.1c-1,0.6-2.1,0.3-3.1,0.3c-2.8-0.1-5.7-0.2-8.5-0.2
			c-0.3,0-0.5,0.3-0.8,0.4c2,2,1.8,4.3,1.1,6.8c0.8,0.2,1.6,0.3,2.4,0.5c1.4,0.3,3,0.4,4.3,1.1c2.6,1.3,5.4,1,8.1,0.9
			c0.6,0,1.2,0.2,1.8,0.4c0.8,0.3,1.4,0.9,2.2,1c2.8,0.2,5.7,0.2,8.4,0.2c0.9,0,1.8-0.2,2.5,0.5c1.2,1.3,2.7,1.8,4.3,2
			c1.7,0.3,3.3,0.6,5,0.8c1.2,0.2,2.3,0.5,3.3,1.3c0.8,0.6,1.8,0.9,2.7,1.3c1.6,0.5,3.2,0.8,4.7,1.3c1.4,0.5,2.8,1.1,4,2
			c1.2,0.9,2.5,1.4,4,1.6c0.6,0.1,1.4,0.3,1.8,0.7c1.3,1.4,3,2.3,4.7,3c2.6,1.1,4.4,2.9,4.5,5.9c0.1,1.8,0.1,3.7,0.1,5.5
			c0.1,2.5-2.1,5.2-4.5,5.5c-2.3,0.3-4.7,0.4-6.8,1.4c-0.4,0.2-1,0.1-1.5,0.1c-2,0.1-3.9,0.1-5.9,0.1c-3.8,0-7.6,0.1-11.3,0
			c-2.7-0.1-5.4-0.5-8.1-0.8c-3.8-0.4-7.7-0.7-11.5-1c-0.4-0.1-0.8-0.1-1.1-0.3c-1.2-0.9-2.6-0.9-4-1c-1.1-0.1-2.3-0.3-3.3-0.4
			c-1-0.1-2.1-0.4-3-0.1c-2.2,0.7-4.4,0.1-6.6,0.3c-1.2,0.1-2.5-0.4-3.7-0.4c-1.3-0.1-2.6,0.1-3.9,0.2c-0.6,0-1.1,0-1.7,0.1
			c-2.2,0.6-4.5,0.6-6.7,0.3c-2.5-0.4-4.9-0.2-7.2,0.6c-0.1,0.1-0.3,0-0.4,0c-0.3-0.4-0.7-0.9-1-1.3c-0.8,0.3-1.6,0.6-2.4,0.8
			c-0.3,0.1-0.8,0.3-1,0.1c-0.8-0.6-1.5-0.3-2.3-0.3c-2.6-0.1-5.2,0.8-7.9,0.7c-3-0.1-6.1,0.6-9.2,0.7c-3.1,0.1-6.3-0.1-9.3,0.8
			c-0.3,0.1-0.8,0-1.1,0c-0.9,0.1-1.8,0.2-2.6,0.3c-2.6,0.1-5,1.1-7.6,1c-0.9-0.1-2,0.3-3,0.5c-0.6,0.1-1.1,0.3-1.7,0.2
			c-2.4-0.4-4.6,0.4-6.8,1.1c-2,0.6-3.9,1-5.9,1.4c-0.3,0.1-0.8,0-1.1-0.1c-1.7-0.7-3.4-0.3-4.7,0.5c-2.1,1.3-4.3,1.3-6.5,1.6
			c-1.4,0.2-2.7,0.3-4.1,0.9c-1.8,0.8-3.8,1.3-5.8,1.6c-3.7,0.6-6.8,3-10.7,2.7c-2.9,0.9-6,1.4-8.6,3.1c-0.6,0.4-1.3,0.4-2,0.6
			c-0.5,0.2-1.1,0.3-1.5,0.6c-1.1,0.8-2.2,1-3.5,1.3c-1.4,0.3-2.8,0.8-4.1,1.3c-1.1,0.5-2.1,1.3-3.1,2c-1.6,1-3.7,0.9-5.1,2.3
			c-1.2-0.1-1.8,0.7-2.6,1.4c-2,2-1.9,4.5-1,6.2c0.2,0.3,0.6,0.8,0.9,0.8c0.9-0.1,1.1,0.5,1.4,1c0.4,0.5,0.6,1.1,1.1,1.4
			c3.4,2.1,6.8,4.3,10.3,6.3c2,1.1,4,2.1,6,3c0.9,0.4,1.6,1,2.1,2.1c0.3,0.6,0.9,1.2,1.6,1.5c0.4,0.2,1-0.1,1.5-0.3
			c0.4-0.1,0.8-0.1,1.1-0.1c1.4-0.1,2.6,0.8,3.8,1.4c5.9,3.3,11.9,6.6,18,9.8c2.3,1.3,4.7,2.5,7.2,3.2c2,0.6,3.9,1.4,5.7,2.4
			c3.3,1.8,6.5,3.6,9.8,5.4c2,1.1,3.9,2.4,6,3.1c2.1,0.7,3.7,1.9,5.2,3.4c0.4,0.4,1.1,0.7,1.6,0.9c1.8,0.6,3.6,1,5.4,1.6
			c1,0.4,1.8,1.3,2.8,1.6c3.5,0.8,6,3.7,9.4,4.5c0.1,0,0.2,0.2,0.3,0.3c2.1,1.1,4.3,2.2,6.4,3.1c0.8,0.3,1.6,0.3,2.3,0.6
			c2.1,0.9,3.8,2.6,6.1,2.9c0.3,0.1,0.4,0.3,0.6,0.4c1.6,0.6,3.3,1.4,4.9,1.6c1.1,0.2,2.1,0.4,2.9,1.1c0.9,0.9,1.7,1.8,3.2,1.4
			c0.3-0.1,0.6,0.3,0.9,0.3c0.9,0.3,1.9,0.4,3.2,0.7c0.3,0.4,0.4,1.6,1.6,1.4c1.6-0.3,2.6,0.5,3.5,1.6c1.8-0.6,2.5-0.3,3.4,1.1
			c0.3,0.5,0.7,1.1,1.1,1.5c0.7,0.6,1.4,1.2,2.2,1.8c0.1,0.1,0.3,0.1,0.4,0.1c0.3-0.3,0.6-0.7,1-1.2c0.6,0.3,1.3,0.6,1.8,1
			c0.4,0.3,0.8,0.6,1.2,0.9c2.6,1.4,5.2,2.7,7.9,4c0.3,0.2,0.7,0.4,1.1,0.3c2.3-0.2,4.1,0.8,5.9,2c1.3,0.9,2.6,1.6,4.3,1.7
			c0.9,0,1.9,0.7,2.6,1.4c0.9,0.9,1.8,1.5,3,1.8c2.1,0.5,4.3,1.1,6.4,1.6c1.4,0.4,2.8,0.7,4.2,1.1c2.5,0.8,4.9,1.6,7.4,2.4
			c1.3,0.4,2.6,0.4,3.8,1c2.6,1.3,5.6,1.5,8.4,2.3c2.3,0.6,4.5,1.1,6.6,2.2c1.1,0.6,2.3,1.1,3.5,1.5c2.1,0.8,4.3,1.3,6.5,2
			c0.4,0.1,0.9,0.4,1.3,0.8c1,1,2.3,1.3,3.6,1.5c0.8,0.1,1.6,0.4,2.3,0.6c1.3,0.4,2.5,0.9,3.5,1.4c0.3-0.2,0.4-0.3,0.6-0.3
			c1.9-1.9,4.3-1.7,5.7,0.4c0.7,1.1,1.5,1.6,2.8,1.7c0.6,0,1.3,0.2,1.9,0.3c1.8,0.2,3.3,0.8,4.1,2.6c0.3,0.7,1.4,8.2,0.5,8.3
			c-0.9,0.1-1.8-0.1-2.6,0c-2.8,0.4-5.6-0.5-8.4,0.6c-0.4,0.2-1,0.1-1.5-0.1c-2.2-0.6-4,0.6-5.9,1.4c-0.4,0.2-0.8,0.5-0.9,0.9
			c-0.5,1-1.5,1.3-2.4,1.7c-1.3,0.6-2.7,1.3-3.9,2.2c-2.6,1.8-5.1,3.7-7.6,5.5c-1.8,1.3-3.7,2.5-5.4,3.9c-1.4,1.1-2.6,2.6-4,3.8
			c-2.1,1.8-4.2,3.3-5.6,5.7c-0.1,0.2-0.4,0.4-0.6,0.5c-3.6,2.4-6.4,5.6-9.3,8.7c-0.3,0.3-0.5,0.7-0.4,0.9c0.3,0.9-0.3,1.3-0.8,1.8
			c-0.8,0.8-1.6,1.5-2.3,2.3c-2,2.3-4.2,4.6-4.8,7.8c-0.1,0.4-0.3,0.8-0.6,1.2c-1.6,2.9-3.3,5.7-5,8.7c-0.9,1.6-1.5,3.5-2.5,5.1
			c-2.1,3.5-4.3,7.1-6.2,10.8c-0.4,0.9-1.1,1.6-1.6,2.5c-1,2-2,3.9-3,5.9c-0.3,0.4-0.5,0.9-0.7,1.3c-0.8,1.9-1.6,3.8-2.5,5.7
			c-1.3,2.8-2.8,5.5-4.2,8.2c-0.3,0.6-0.7,1.1-0.8,1.7c-0.6,3.2-2.5,5.9-3.9,8.8c-1,2-2.1,3.7-2.6,5.9c-0.5,2.2-1.7,4.3-2.5,6.5
			c-0.8,2.6-1.5,5.2-2.2,7.8c-0.5,2-0.9,3.9-1.4,5.9c-0.1,0.3-0.3,0.6-0.3,0.9c0.2,2.5-0.8,4.7-1.3,7c-0.5,2.2-0.9,4.5-1.4,6.7
			c-0.6,2.5-0.6,5.1-0.8,7.7c-0.1,1.1-0.1,2.2-0.6,3.3c-0.2,0.5-0.2,1.1-0.2,1.7c-0.1,1.4,0.1,2.8-0.1,4.2c-0.3,2-0.8,3.8-1.1,5.7
			c-0.3,1.4-0.8,3-0.6,4.4c0.2,2.3-0.3,4.3-0.4,6.6c-0.1,0.7-0.4,1.3-0.5,2c-0.1,0.6-0.3,1.3-0.2,1.8c0.4,2,0.2,4-0.4,6
			c-0.3,1-0.3,2.1-0.5,3.1C170.7,530,82.1,530-6.5,530z M233.2,467c-0.1-0.1-0.2-0.3-0.3-0.4c-0.3,0.1-0.7,0.3-1,0.3
			c-0.9,0.1-1.5-0.7-1.2-1.4c0.6-1.6,1.4-3.1,2.1-4.6c0.2-0.4,0.6-0.9,0.6-1.3c0-0.3-0.4-0.8-0.7-0.9c-0.2-0.1-0.8,0.3-0.9,0.6
			c-0.3,0.7-0.4,1.4-0.6,2.1c-0.4,1.4-0.7,1.8-2.2,1.8c-0.8,0.1-1.2,0.3-1.4,1.2c-0.2,1.1-0.6,2.2-0.9,3.4c1.1,0.3,2.3,0.5,3.6,0.8
			C230.9,467.7,232.8,468.5,233.2,467z M42.6,64c-0.9-0.2-1.4-0.8-1.8-1.4c-0.8-1.3-0.8-1.2-2.3-0.8c-0.2,0.1-0.4,0.1-0.5,0
			c-0.8-0.8-2.3-0.4-2.8-1.8c-0.1-0.4-0.8-0.6-1.1-0.9c-0.3,0.3-0.5,0.5-0.6,0.6c-1.1-0.3-2.1-0.6-3.3-0.9c0.1,1.6,0.7,2.6,1.5,2.3
			c0.9-0.3,1.5,0.1,2.2,0.6c0.6,0.4,1.3,0.6,1.9,0.7c2.3,0.4,4.3,1.1,5.5,2.9c1.1,0.3,2,0.6,2.8,0.9c-0.1-1.6-0.7-3.1-1.6-4.5
			C42.6,62.4,42.6,63.1,42.6,64z M253.7,458.3c-2-0.8-1.6-2-0.7-3.6c-0.6,0.2-1.1,0.1-1.3,0.4c-0.7,1.1-1.4,2.3-1.9,3.5
			c-0.3,0.9-0.8,1.5-1.6,2c-1.5,0.8-1.8,2.4-1.9,3.9c-0.1,0.4,0.4,0.9,0.8,1.6c0.4-0.6,0.5-0.9,0.7-1.3c0.5,0.1,1,0.3,1.5,0.4
			c0.3-1.4,0.3-3,0.9-4C251.1,460.1,251.8,458.6,253.7,458.3z M29.7,61c-0.7-1.7-0.8-3.3-2.6-3.6c-0.3-0.1-0.5-0.4-0.8-0.6
			c-1.5-1.4-1.5-1.4-3.2-0.3c-0.1,0.1-0.3,0.1-0.4,0.1c-0.8-0.3-1.4-1.5-2.6-0.8c0.4,1.3,1.7,1.6,2.6,1.9c2,0.7,3.8,1.4,5.5,2.8
			C28.4,60.7,28.9,60.7,29.7,61z M217.2,444.5c1.8,1.6,5.5,0.4,6.7-2.2C220.8,441,219.2,442.1,217.2,444.5z M13.1,54.8
			c2,0.5,3.5,0.9,5.2,1.4c0.2-1.4-0.3-2.1-1.5-2.5c-1.6-0.5-3.5-0.9-3.8-3.1c-0.1,0.1-0.3,0.1-0.4,0.2
			C12.7,52.1,12.9,53.4,13.1,54.8z M237.7,506c0.4-0.5,1-0.9,1.3-1.5c0.4-1.1,0.8-2.2,1-3.4c0.1-0.6-0.4-0.9-0.9-0.8
			c-0.4,0.1-0.8,0.5-0.9,0.8c-0.2,0.7-0.5,1.2-1.1,1.6C235.5,503.9,235.6,505,237.7,506z M10.5,48.9c0.4-0.7,1.1-1.3,0.7-2.3
			c-0.4-1-1.2-1.4-2.4-1.3c-1,0.1-2,0.5-3.2,0.9C7.2,47.6,8.9,48.1,10.5,48.9z M177.1,430.3c-0.1-0.2-0.2-0.4-0.3-0.6
			c-1.1,0.1-2.1,0.2-3.1,0.8c-0.8,0.6-1.7,1-2.6,1.4c-0.9,0.4-1.4,0.9-1.3,2.1c0.4,0,0.9,0.1,1.1,0
			C173,432.8,175.1,431.5,177.1,430.3z M208.9,464.1c2.9,1.3,4.8,0.6,5.3-1.9C211.5,461.5,210.3,462,208.9,464.1z M241.1,494.9
			c-1.4,1.1-1.8,2.2-0.9,3.3c0.2,0.3,0.8,0.6,1.1,0.6c1.3-0.4,2.5-1.1,3.1-2.5C243.2,495.6,241.6,496.6,241.1,494.9z M85,83.7
			c0.1-0.1,0.2-0.2,0.3-0.3c-0.3-0.6-0.5-1.3-0.9-1.9c-1-1.6-2.8-1.3-4.5-2c0,0.6-0.3,1.4-0.1,1.5c0.8,0.7,1.7,1.5,2.6,1.6
			C83.5,82.9,84.3,83.1,85,83.7z M135.7,103.8c-0.1,0.1-0.3,0.1-0.4,0.1c0.7,1.3,0.1,2.4-0.8,3.4c2.5,1.4,2.5,1.4,3.6,1.3
			C137.4,106.9,136.5,105.3,135.7,103.8z M-9.2,37.7c-0.7,1.2-0.5,2,0.3,2.3c1.4,0.6,2.9,1,4.5,0.9C-5.8,39.4-7.9,39.3-9.2,37.7z
			 M190.1,419.5c-1.3-0.4-1.6-0.6-1.9-0.3c-0.8,0.9-2.1,1.4-2.3,2.8C188.4,422.6,188.6,420.3,190.1,419.5z M262.8,431.6
			c-0.4,1.1-0.8,1.8-1,2.6c-0.1,0.3,0.1,0.9,0.4,1.1s0.9,0,1.2-0.2C264.4,434.4,264.4,433.4,262.8,431.6z M34.2,54.3
			c-1,0.9-1.8,0.5-2.6-0.4c-0.3-0.4-0.8-0.8-1.4-0.3c0.6,1.8,2.2,2.8,3.6,2.3C34.7,55.6,34.9,55.1,34.2,54.3z M8.4,53.4
			c1.2,0.9,2.3,1.8,3.5,2.9c-0.1-1.8-0.6-2.8-1.7-3.8C9.6,52.8,9,53.1,8.4,53.4z M245.5,457.2c1.1,0.8,1.5,0.7,2.7-0.6
			c0.8-0.9,0.8-0.9-0.2-2C247.2,455.4,246.5,456.3,245.5,457.2z M249.9,476.4c0.3-0.9,0.4-1.5,0.7-2.3c0.6,0.4,0.9,0.8,1.4,1.2
			c-0.1-1.6-0.2-1.7-2.2-2.1C248.8,474.6,248.8,475,249.9,476.4z M229.3,433.2c-0.1,0.3-0.3,0.6-0.4,0.9c-0.1,0.2-0.1,0.4,0,0.6
			c0.2,0.7,1.1,1.1,1.6,0.7c0.6-0.5,1.1-1.2,1.4-2.1C230.9,433.2,230.2,433.2,229.3,433.2z M22,52.5c-0.6-1.3-2-2.4-3-2.3
			c-0.3,0-0.4,0.3-0.6,0.5c0.2,0.2,0.3,0.5,0.6,0.6c0.6,0.4,1.3,0.6,2,0.9C21.2,52.4,21.6,52.4,22,52.5z M215,519.2
			c-0.3-0.3-0.4-0.6-0.6-0.6c-0.9-0.2-2-0.3-2.9-0.4c-0.1,0-0.4,0.3-0.4,0.4c0,0.2,0.2,0.5,0.4,0.6c0.8,0.2,1.7,0.4,2.5,0.5
			C214.2,519.7,214.5,519.4,215,519.2z M245.7,441.6c1.4,0.6,1.9-0.3,2.4-0.8c0.2-0.2,0.2-0.8,0.1-0.9c-0.2-0.2-0.8-0.3-1-0.1
			C246.7,440.3,246.3,440.9,245.7,441.6z M47.3,69.1c-0.6-1-1.1-2-2.5-2.1C45.7,69.6,45.7,69.6,47.3,69.1z M199.4,462.5
			c-0.3-0.1-0.6-0.5-1-0.5c-0.6,0-1.2,0.3-1.1,1c0.1,0.3,0.7,0.6,1.1,0.6C199,463.7,199.4,463.4,199.4,462.5z M163,269.9
			c0.6,1.1,1.5,1.6,2.8,1.6C165.3,270,164.6,269.6,163,269.9z M2.2,48.5c0.1,1.1,0.4,1.9,1.4,2.4C3.8,49,3.7,48.8,2.2,48.5z
			 M-13.3,39.3c0.4-0.6,0.9-1.1,0.8-1.3c-0.1-0.4-0.6-0.7-0.9-1c-0.3,0.3-0.8,0.6-0.7,0.9C-14.1,38.3-13.6,38.6-13.3,39.3z
			 M107.8,92.7c-0.7-0.4-1.1-0.8-1.5-0.8c-0.3,0-0.7,0.6-0.7,0.9c-0.1,0.6,0.4,0.9,1,0.8C106.9,93.5,107.2,93.2,107.8,92.7z
			 M284.1,62.1c1.5-0.9,1.6-1.3,0.4-2.8C284.4,60.4,284.3,61.1,284.1,62.1z M225.6,501.1c-0.9-0.3-1.6-0.7-2.5-0.1
			C223.7,502.2,223.7,502.2,225.6,501.1z M185.5,462.6c-0.8-0.4-1.4-1.5-2.5-0.6C183.7,463.1,184.6,462.9,185.5,462.6z M226.5,493.2
			c0.2,0.3,0.3,0.6,0.4,0.8c0.4,0.4,1,0.6,1.5,0.1c0.1-0.1,0.2-0.4,0.1-0.5c-0.4-0.2-0.8-0.4-1.3-0.6
			C227.1,493,226.8,493.1,226.5,493.2z M324.7,345.1c1.1,0.6,1.8,0.9,2.6-0.1C326.4,344.4,325.7,344.6,324.7,345.1z M15.2,48.5
			c0.6,2,0.8,2.1,2,1.7C16.5,49.6,15.8,49.1,15.2,48.5z M197.7,430.6c0.2,0.8,0.3,1.2,0.4,1.8c0.6-0.6,1.1-0.9,1.8-1.5
			C199,430.7,198.5,430.7,197.7,430.6z M235.7,480.7c0.9-0.8,1.1-1.4,0-2.5C235.7,479.2,235.7,480,235.7,480.7z M36.5,66.1
			c0.4-0.4,0.8-0.8,0.7-0.8c-0.2-0.3-0.5-0.6-0.8-0.8c-0.1-0.1-0.6,0.4-0.6,0.5C35.9,65.3,36.2,65.6,36.5,66.1z M282.7,60.9
			c-0.7-0.6-0.9-0.9-1.2-1.1c-0.2,0.3-0.6,0.6-0.5,0.8c0.1,0.3,0.4,0.6,0.7,0.6C281.9,61.3,282.3,61.1,282.7,60.9z M172.5,397.1
			c0-0.2,0-0.4,0-0.6c-0.6-0.4-1.2-0.3-2.1,0.6C171.3,397.1,171.8,397.1,172.5,397.1z M250.4,491.9c-0.4-0.3-0.7-0.7-0.9-0.7
			c-0.3,0-0.5,0.4-0.6,0.7c-0.1,0.1,0.4,0.6,0.6,0.6C249.7,492.5,249.9,492.2,250.4,491.9z M110.7,93.6c0.1,1.2,0.2,1.4,0.7,1.3
			c0.1,0,0.4-0.1,0.4-0.3c0.2-0.8-0.4-0.9-0.9-1.1C110.8,93.6,110.8,93.6,110.7,93.6z M158.4,443.6c-0.4-0.2-0.8-0.4-0.9-0.4
			c-0.3,0.1-0.4,0.4-0.7,0.7c0.3,0.2,0.5,0.5,0.6,0.5C157.8,444.3,158,444,158.4,443.6z M254,181.9c-0.3-0.3-0.5-0.6-0.8-0.8
			c-0.1-0.1-0.4,0.2-0.6,0.3c0.3,0.3,0.4,0.6,0.7,0.9C253.3,182.3,253.7,182.1,254,181.9z M253.4,370.5c0,0.2,0,0.3,0,0.5
			c0.6,0,1.2,0,1.8,0c0-0.1,0-0.3,0-0.4C254.5,370.6,254,370.5,253.4,370.5z M266.4,430.9c0.3,0.6,0.3,0.9,0.5,1.1
			c0.1,0.2,0.4,0.2,0.7,0.4C267.9,431.5,267.6,431.1,266.4,430.9z M133.4,101.5c-0.2,0.1-0.4,0.2-0.6,0.3c0.2,0.3,0.3,0.7,0.5,1
			c0.2-0.1,0.4-0.2,0.6-0.3C133.7,102.2,133.6,101.9,133.4,101.5z M232.7,392c-0.6-0.9-0.6-0.9-1.6-0.6
			C231.8,391.6,232.2,391.8,232.7,392z M287.2,61.1c0.1,0.1,0.2,0.2,0.3,0.3c0.5-0.3,1.2-0.3,1.1-1.4
			C287.9,60.4,287.6,60.7,287.2,61.1z M257.7,435.8c-0.1-0.1-0.3-0.1-0.4-0.2c-0.1,0.3-0.2,0.6-0.3,0.9c0,0,0.3,0.1,0.4,0.2
			C257.5,436.5,257.6,436.2,257.7,435.8z M249.2,452c0.1,0.2,0.1,0.4,0.1,0.5c0.4-0.1,0.7-0.2,1.1-0.3c-0.1-0.1-0.1-0.3-0.1-0.4
			C249.9,451.9,249.5,452,249.2,452z M12.6,47.3c-0.1,0.1-0.3,0.3-0.4,0.4c0.3,0.3,0.4,0.4,0.7,0.6c0,0,0.4-0.3,0.3-0.3
			C13,47.7,12.8,47.5,12.6,47.3z M233.2,432.3c-0.1,0.3-0.3,0.5-0.3,0.7c0,0.1,0.3,0.3,0.4,0.4c0.1-0.2,0.3-0.3,0.4-0.6
			C233.7,432.7,233.4,432.5,233.2,432.3z M173.3,420.8c0.2-0.3,0.3-0.4,0.4-0.5c-0.2-0.1-0.3-0.3-0.5-0.4c-0.1,0-0.3,0.3-0.3,0.3
			C172.9,420.5,173.1,420.7,173.3,420.8z M113.2,96.8c0.1-0.1,0.3-0.2,0.4-0.3c-0.2-0.3-0.4-0.6-0.6-0.9c-0.1,0.1-0.2,0.1-0.3,0.1
			C112.9,96.1,113,96.4,113.2,96.8z M109.1,94.3c0.1-0.1,0.3-0.2,0.4-0.3c-0.3-0.3-0.4-0.5-0.7-0.8c-0.1,0.1-0.2,0.2-0.3,0.3
			C108.8,93.8,108.9,94,109.1,94.3z M21.8,60.2c-0.2-0.2-0.3-0.4-0.4-0.4c-0.1-0.1-0.3,0.1-0.3,0.1c0,0.2,0.1,0.4,0.2,0.4
			C21.4,60.4,21.6,60.3,21.8,60.2z M241.3,443.4c-0.2,0.2-0.3,0.3-0.4,0.4c0,0.1,0.1,0.3,0.1,0.3c0.1,0,0.3-0.1,0.4-0.1
			C241.4,443.8,241.4,443.7,241.3,443.4z M292.2,60.2c-0.1-0.1-0.3-0.2-0.4-0.3c-0.1,0.1-0.2,0.3-0.1,0.3c0.1,0.1,0.2,0.3,0.3,0.3
			C292,60.4,292.1,60.4,292.2,60.2z M240.6,459.2c-0.1-0.1-0.2-0.3-0.3-0.3c-0.1,0.1-0.2,0.2-0.3,0.3c0,0.1,0.1,0.2,0.2,0.3
			C240.4,459.4,240.5,459.3,240.6,459.2z M116.6,237.9c-0.1-0.3-0.2-0.4-0.3-0.5c-0.1-0.1-0.3,0.1-0.4,0.1c0.1,0.1,0.1,0.3,0.3,0.4
			C116.3,238,116.4,238,116.6,237.9z M39.5,67.2c0.1-0.3,0.1-0.4,0.1-0.5c-0.1-0.1-0.3-0.2-0.4-0.3c-0.1,0.1-0.2,0.3-0.1,0.4
			C39.1,66.9,39.3,67,39.5,67.2z M207.6,421.8c-0.1,0.1-0.3,0.2-0.4,0.3c0.2,0.2,0.4,0.4,0.6,0.6c0.1-0.1,0.1-0.1,0.3-0.2
			C207.9,422.2,207.7,422,207.6,421.8z M216.6,518.9c-0.2-0.1-0.3-0.2-0.4-0.3c-0.1,0.1-0.1,0.2-0.1,0.3c0.1,0.1,0.2,0.2,0.3,0.2
			C216.4,519.1,216.4,519,216.6,518.9z M221.1,502.6c-0.1-0.1-0.1-0.2-0.2-0.3c-0.1,0.1-0.1,0.2-0.2,0.3c0,0,0.1,0.1,0.1,0.1
			S221.1,502.6,221.1,502.6z M252.8,346.6c0.1-0.1,0.1-0.1,0.3-0.2c-0.1-0.1-0.1-0.1-0.2-0.3c-0.1,0.1-0.2,0.1-0.2,0.2
			C252.6,346.4,252.8,346.5,252.8,346.6z M245.3,454.6c-0.1-0.1-0.1-0.1-0.2-0.3c-0.1,0.1-0.1,0.1-0.2,0.2c0.1,0.1,0.1,0.2,0.2,0.2
			C245.2,454.7,245.2,454.7,245.3,454.6z M254.1,451.3c0.1-0.1,0.2-0.1,0.3-0.2c-0.1-0.1-0.1-0.1-0.3-0.2L254,451
			C254,451.2,254,451.2,254.1,451.3z M194.9,445.2c-0.1-0.1-0.1-0.3-0.2-0.3s-0.2,0.1-0.3,0.1c0.1,0.1,0.2,0.3,0.3,0.3
			C194.8,445.4,194.9,445.3,194.9,445.2z"/>
		<path class="st0" d="M265.6,82c0.3-1.3,0.3-1.3-0.9-1.8C264.9,80.9,264.9,81.6,265.6,82z M79.1,32.1c-0.6,0.3-1.2,0.5-1.8,0.8
			C78.1,33.3,78.8,33.1,79.1,32.1z M172,73.7c-0.4-0.3-0.6-0.6-0.8-0.6c-0.2,0.1-0.4,0.4-0.5,0.6c0,0.1,0.3,0.5,0.6,0.5
			C171.5,74.3,171.7,74,172,73.7z M178.9,70.9c0.1-0.1,0.1-0.1,0.2-0.2l-0.1-0.1c-0.1,0-0.2,0.1-0.3,0.1
			C178.8,70.7,178.8,70.8,178.9,70.9z"/>
		<path class="st0" d="M21.9,19.4c0.4,0.1,0.7,0.1,1.1,0.2c0-0.1,0-0.3,0-0.4C22.6,19.2,22.3,19.3,21.9,19.4
			c-0.2-0.6-0.3-1.3-1.1-1.6C20.6,18.9,21.3,19.1,21.9,19.4z M53.3,64.7c0.8,1.7,2,2.9,3.5,3.9c0.2,0.1,0.3,0.4,0.4,0.6
			c0.8,1.4,2.2,2.2,3.3,3.3c0.1,0.1,0.4,0,0.7,0c0.3-2.1-2.5-2.3-2.5-4.3c1.3,0.7,2.5,1.4,3.7,2.1c0.4-0.3,0.9-0.6,1.4-0.9
			c1.4,1.8,3.2,2.5,5.4,2.5c0.4,0,0.8,0.1,1.1,0.3c2.5,0.8,4.9,1.5,7.4,2.3c0.7,0.2,1.4,0.4,2.2,0.5c1.8,0.1,3.3,0.6,4.7,1.6
			c0.4,0.3,0.9,0.6,1.4,0.5c1.1-0.2,2,0.3,2.8,0.8c0.9,0.6,1.7,0.2,2.8,0.1c-1.4-0.7-2.5-0.9-3.2-1.6c-1.5-1.4-3.4-1.9-5.2-2.6
			c-0.5-0.2-1.1-0.3-1.6-0.4c-1.9-0.6-3.8-1.7-5.7-1.6c-2.6,0.1-4.5-1.4-6.8-2c-1-0.3-2-0.8-2.8-1.5c-1.1-0.9-2.2-1.3-3.5-0.7
			c-0.8,0.4-1.4,0.1-2-0.5c-0.5-0.5-1.2-0.9-1.9-1.2c-2-0.8-4.2-1.2-6-2.6c-0.7-0.6-1.8-0.6-3-0.9c0.1,0.6,0.1,1.1,0.3,1.3
			c0.9,1,2,2,3.1,3C53.3,65.7,53.3,65.2,53.3,64.7z M26.4,29.4c0.3,0.4,0.6,0.7,0.8,1.1c0.3,0.5,0.6,1.1,0.9,1.6
			c0.5,0.8,0.9,1.8,2.2,1c0.2-0.1,0.6,0,0.7,0.1c0.8,0.9,1.8,0.8,2.8,0.6c1-0.1,1.8,0,2.3,1.1c0.3,0.7,1,0.9,1.8,0.4
			c0.1-1.5-0.2-2.9-1-4.2c-0.5,0.1-1,0.3-1.4,0.4c-0.6,0.1-1.1,0.3-1.6,0.3c-2,0.3-2.7-0.3-3.3-2.1c-0.1-0.2-0.3-0.3-0.4-0.4
			c-0.4,0.2-0.9,0.4-1.6,0.7c-0.3-0.9-0.4-1.7-0.6-2.5c-0.3-1-0.7-1.2-1.6-0.8c-0.7,0.4-1.4,0.6-1.8-0.2c-0.8-1.3-2.2-1.4-3.3-2
			c-0.8-0.4-1.5-0.1-1.7,0.8c-0.3,1.4,0.8,3,2.2,3.1c0.3,0.1,0.6,0.1,0.9,0.1c0.2,0.8-0.1,1.1-0.8,1.4c-0.3,0.1-0.8,0.6-0.8,0.8
			c0,0.7,0.6,1,1.2,0.9c0.6,0,1.2-0.3,1.8-0.4c0.6,0.4,0.8,1.3,1.9,1C25.9,31.6,24.9,30.4,26.4,29.4z M67.7,43.4
			c-1.6,0.9-2.7,0.1-3.8-0.6c-0.6-0.3-1.3-0.4-1.9-0.7c-0.4-0.2-0.9-0.4-1.3-0.8c-1.2-1-2.3-2.1-3.4-3c-0.8,0.3-1.4,0.6-2,0.8
			c-0.8-0.8-1.6-1.4-2.7-0.9c-1.3,0.7-2.1,0.2-2.8-0.9c-0.1-0.2-0.4-0.3-0.6-0.4c-0.6,0.3-1.1,0.3-1.6,0.7c-0.3,0.2-0.4,0.9-0.3,1.1
			c0.9,0.6,1.8,1.1,2.7,1.6c1.2,0.7,2.1-0.4,3-0.9c0.2,0.8,0.4,1.3,0.6,2.3c1.1-1.8,2.1-1.6,3.2-0.6c0.4,0.4,0.9,0.8,1.4,1.1
			c1.1,0.9,2.1,2.1,4,1.7c0.5-0.1,1.1,0.4,1.7,0.7c0.7,0.4,2.8,0.4,3.3-0.1C67.6,44.4,67.6,44.1,67.7,43.4z M62.2,64.4
			c0.7-1.7,0.6-2.4-0.9-3c-1.5-0.6-3-1.3-4.8-1.3c-2.1,0.1-4.4-1.6-5.2-3.6c-0.2-0.5-0.5-0.9-0.8-1.4c-0.3,0.4-0.3,0.6-0.3,0.8
			c0.4,1.2,0.8,2.4,1.3,3.5c0.3,0.5,0.7,1.1,1.1,1.3C55.7,62.6,58.9,63.7,62.2,64.4z M79.5,50.7c-0.1-1.9-1.5-2.7-2-4
			c-0.4,0.3-0.6,0.4-0.9,0.6c-0.2-0.1-0.4-0.3-0.6-0.4c-1.3-1-2.5-2-4.2-1.9c-0.4,0-0.8-0.4-1.1-0.6c-0.6-0.4-1.1-0.8-1.6-1.1
			c0.4,1.2,0.9,2.3,1.6,3.2c0.5,0.7,1.3,0.9,2.2,0.8c0.4-0.1,0.7-0.2,1.3-0.3C75,49.3,77.3,49.4,79.5,50.7z M18.7,39.9
			c-0.1,0.2-0.3,0.4-0.4,0.6c0.6,0.7,1.1,1.4,1.8,2c1.3,0.9,2.6,1.7,4,2.5c0.4,0.2,1.1,0.2,1.3,0c0.3-0.3,0.2-0.9,0.1-1.4
			c-0.1-0.3-0.4-0.7-0.8-0.8c-1.1-0.3-1.5-1.2-1.8-1.9c-0.9,0-1.6,0.1-2.3-0.1C20,40.6,19.4,40.2,18.7,39.9z M-0.4,32.2
			c0.3,1.4,0.3,1.4,1.2,2c1.5,1,3,2,4.5,3c0.4,0.3,0.9,0.4,1.4,0.6c0.8-2.1,0.5-2.8-1.3-3.3c-1.4-0.4-2.8-0.8-4.1-1.7
			C0.9,32.5,0.3,32.5-0.4,32.2z M53.6,31.8c-0.2-0.3-0.3-0.5-0.4-0.6c-1-0.7-1.8-1.7-3.3-1.8c-1.3-0.1-2.5-1-3.7-1.5
			c-0.5,1.8-0.4,1.9,0.9,2.3c0.5,0.1,1,0.4,1.5,0.6C50.2,31.4,51.6,32.5,53.6,31.8z M4.6,11.1c0-0.7-0.2-1.3,0.1-1.7
			C5.3,8.5,5,8,4.3,7.4C3.6,6.9,2.9,5.9,1.8,6.9C1.3,6.4,1,6,0.5,5.5C0,6.1-0.3,6.6-0.7,7.1c1.1,0.4,2.3,0.6,3,1.3
			C3.2,9,3.8,10.1,4.6,11.1z M83.4,64.6c-0.4-1-0.9-1.4-1.7-1.6c-1.6-0.3-3.1-0.9-4.4-2c-0.4-0.3-0.9-0.7-1.3-0.1
			c-0.1,0.3,0.1,1,0.3,1.1c2,1,4.1,1.9,6.1,2.8C82.7,64.8,83,64.7,83.4,64.6z M103,70.5c0.5,0.4,0.9,1.1,1.3,1.1
			c1.5,0,2.6,0.8,3.7,1.6c0.3,0.2,0.7,0,1,0c-0.1-0.4,0-0.9-0.3-1.1c-0.9-0.8-2-1.3-3-2C105,69.5,104.1,69.6,103,70.5z M87.6,64.2
			c-0.1,0.1-0.1,0.3-0.2,0.4c0.1,0.2,0.3,0.4,0.4,0.6c1.5,1.6,3.8,1.6,5.6,2.7c0,0,0.1-0.2,0.3-0.4c-0.4-0.5-0.6-1.3-1.2-1.5
			C90.9,65.3,89.2,64.8,87.6,64.2z M107.4,87.1c1.2,1.2,3,1.2,4.3,2c0.1,0.1,0.7-0.5,1-0.8c-0.3-0.3-0.5-0.8-0.8-0.8
			c-0.9,0-1.5-0.4-2.2-0.9C108.9,85.9,108.6,86.1,107.4,87.1z M94.5,82c-0.1,0.2-0.3,0.3-0.4,0.5c0.6,1.9,2.5,2.1,3.9,2.7
			c0.6,0.3,1.4,0.3,1.7-0.6c0.2-0.6-0.4-1-1.5-0.9c-0.9,0.1-1.7-0.2-2.4-0.8C95.5,82.5,95,82.2,94.5,82z M100.6,84.7
			c0.4,1.6,2,1.2,2.8,2c0.8,0.7,1.9,1,3,1.5c0.3-1.3-0.4-1.9-1.2-2.3c-1.1-0.4-2.3-0.8-3.4-1.2C101.5,84.7,101.1,84.7,100.6,84.7z
			 M72,61.2c-0.1-1.8-1.4-3-3.5-3.5c-0.4,1.7-0.3,2,1.1,2.5c0.4,0.1,0.7,0.4,1.1,0.6C71.1,60.9,71.5,61.1,72,61.2z M13.5,40.1
			c0.3-2-1.3-2.4-2.5-2.8c-0.6-0.7,0.1-1.8-1.2-2.1c-0.1,0.4-0.1,0.9-0.2,1.3c-0.1,1.4-0.1,1.4,1.3,2.1C11.7,39,12.6,39.5,13.5,40.1
			z M119.3,83.3c0.3-0.9,0.1-1.4-0.9-1.8c-0.6-0.2-1.3-0.3-2-0.3c-0.6-0.1-1.3,0-1.3,0.8c0,0.7,0.5,1.1,1.3,1.1
			C117.3,83.1,118.3,83.2,119.3,83.3z M88.2,53.7c1-0.9,0.8-1.7,0.3-2.5c-0.4-0.7-0.9-1.3-2-1.4c-0.3,0.5-0.4,0.9-0.7,1.4
			C86.6,52.1,87.4,52.8,88.2,53.7z M-4.5,34.7c-0.1-1.6-0.4-1.8-2-2.1c-1.7-0.3-2-0.1-1.6,1.6C-7,34.4-5.8,34.5-4.5,34.7z
			 M38.8,33.1c-0.1,2.6,0.2,3.1,1.6,3.8c0-0.6,0-1.2,0-1.9c0.5-0.1,1-0.1,1.6-0.3C41.3,33.2,39.5,34.2,38.8,33.1z M43.2,54.9
			c-1-0.4-0.6-2-1.9-1.8c-0.1,2.3,1.3,3.3,3.6,2.8c0.1-0.8-0.1-1.4-0.9-1.8C43.7,54.4,43.4,54.7,43.2,54.9z M35,48.2
			c1.1,0.3,1.9,0.6,2.8,0.7c0.3,0.1,0.7-0.2,1.1-0.3c-0.2-0.4-0.3-0.9-0.6-1.1c-0.7-0.4-1.4-0.6-2.3-0.9C35.6,47,35.4,47.5,35,48.2z
			 M-6.9,25.6c1.3,1.3,2.7,2.3,4.5,2.8C-3.3,26.5-5,25.9-6.9,25.6z M39.3,2.4c-0.1,0.4-0.4,0.8-0.3,0.9c0.4,0.6,0.8,1.3,1.3,1.8
			c0.4,0.4,1,0.6,1.3,0c0.1-0.3,0-0.9-0.3-1.3C41,3.4,40.4,3,39.9,2.7C39.8,2.5,39.6,2.5,39.3,2.4z M-9.6,2.1
			c-0.4,1.6-0.2,2.3,0.6,2.6c0.4,0.1,1,0,1.3-0.3C-7.2,4-7.3,3.5-7.8,3.2C-8.3,2.8-8.9,2.5-9.6,2.1z M45,36.6c-1-0.1-1.4-1.1-2.4-1
			c0,0.5,0,0.9,0,1.4c-0.1,0.6,0.1,1.3,0.8,1.3c0.4,0,0.8-0.4,1.2-0.7C44.8,37.5,44.8,37.2,45,36.6z M40.8,49.5
			c0.1,0.2,0.1,0.3,0.2,0.5c0.4,0.1,0.8,0.2,1.2,0.3c0.3,0.1,0.5,0.1,0.8,0.1c0.7-0.1,1.1-0.7,0.9-1.4c-0.2-0.6-0.6-0.8-1.2-0.5
			C42,48.7,41.4,49.1,40.8,49.5z M17.8,15c-0.8,0.3-1.4,0.4-2,0.6c0.8,1.6,1.5,2,3,1.6C18.4,16.5,18.1,15.8,17.8,15z M105,81.7
			c-1.2-1.3-2.5-1.7-4.3-1.5C102,81.4,103,82.4,105,81.7z M41.8,25.5c0.9,1,1.6,1.8,2.4,2.8c0.3-0.9,0.7-1.7-0.1-2.4
			C43.5,25.3,42.9,24.8,41.8,25.5z M30.2,45.7c0.3,0.7,0.4,1.3,0.7,1.8c0.2,0.3,0.8,0.3,1.1,0.4c0.1-0.4,0.4-0.9,0.3-1.3
			C32.2,45.6,31.5,45.4,30.2,45.7z M45.6,49.9c-0.7,0.8-0.7,1.6,0.1,2s1.6,0.6,2.6,0.8C48,51,46.2,51.2,45.6,49.9z M106.7,80.8
			c-0.4,0.9,0,1.4,0.5,1.8c0.4,0.4,0.9,0.8,1.5,1c0.1,0.1,0.6-0.2,0.7-0.4c0.1-0.2-0.1-0.6-0.3-0.8
			C108.4,81.9,107.7,81.4,106.7,80.8z M48.5,58c-0.2,1.6,0.1,2.1,1.6,2.6C50.3,59,50.1,58.7,48.5,58z M57.8,54.6
			c0.1-0.2,0.1-0.3,0.2-0.5c-0.8-1.3-2.1-1.3-3.7-1.6c0.3,0.5,0.4,0.9,0.6,1C55.8,53.9,56.8,54.3,57.8,54.6z M92.6,77.6
			c0.5,1.1,0.9,1.8,2.1,1.8C95,77.9,94.4,77.3,92.6,77.6z M83.9,50.5c0.1,0,0.3-0.1,0.4-0.1c-0.1-0.7,0-1.3-0.1-2
			c-0.1-0.6-0.6-0.9-1.1-0.5c-0.3,0.2-0.4,0.8-0.3,1.1C83,49.5,83.5,50,83.9,50.5z M96.9,67.9C97,68,97,68.2,97,68.3
			c0.4,0.2,0.9,0.4,1.4,0.4c0.3,0,0.6-0.4,1-0.6c-0.3-0.3-0.6-0.8-0.8-0.8C98,67.4,97.4,67.7,96.9,67.9z M116.3,89.7
			c-0.6-0.9-0.9-1.8-2.1-1.7C114.3,89.7,114.3,89.8,116.3,89.7z M-3.8,5.1c0.1-0.2,0.2-0.4,0.3-0.6c-0.5-0.3-0.9-0.6-1.5-0.9
			c-0.1-0.1-0.6,0.1-0.7,0.3c-0.1,0.2,0.1,0.7,0.3,0.8C-5,4.9-4.4,5-3.8,5.1z M65.7,65.6c0.1-0.3,0.1-0.4,0.1-0.5
			c-0.1-0.7-0.6-0.9-1.2-0.8c-0.3,0.1-0.4,0.4-0.6,0.6c0.4,0.3,0.8,0.6,1.1,0.8C65.2,65.7,65.4,65.6,65.7,65.6z M116.9,90.4
			c0.5,0.3,0.8,0.6,1.1,0.6c0.6,0,0.9-0.4,0.8-1c-0.1-0.3-0.6-0.7-0.7-0.6C117.8,89.6,117.5,90,116.9,90.4z M51.3,15.1
			c-0.9-1.3-0.9-1.3-2.3-0.4C49.5,15.8,50.3,15.3,51.3,15.1z M8.3,36c-0.6,1.9-0.6,1.9,0.4,2.8C9.1,37.8,9.2,36.9,8.3,36z M27,41.1
			c0.8-0.4,1.1-0.9,0.6-1.6c-0.2-0.2-0.8-0.3-0.9-0.2C26,40,26.4,40.5,27,41.1z M20.2,38.8c0.4-1.6,0.3-1.8-1.6-2.1
			C19.3,37.4,19.8,38.1,20.2,38.8z M36.4,21.7c-0.1,1.8,0,1.9,1.6,1.6C37.4,22.7,36.9,22.3,36.4,21.7z M100.2,76.9
			c-0.4-0.8-0.8-1.1-1.4-0.7c-0.1,0.1-0.3,0.6-0.1,0.8C99.1,77.6,99.6,77.5,100.2,76.9z M90.5,51.7c-0.1,1.1,0.1,1.8,1.2,2.1
			C92,52.8,91.5,52.2,90.5,51.7z M30.4,41.8c0.4-1.5,0.4-1.5-1.1-1.7C29.7,40.8,30,41.3,30.4,41.8z M13.4,15.2
			c0.4-1.4,0.4-1.4-0.9-1.5C12.8,14.3,13.1,14.8,13.4,15.2z M104.2,78.2c0.4,0.6,0.6,1.4,1.7,1C105.7,78.1,105.1,78.1,104.2,78.2z
			 M60.6,55.8c0.4,0.6,0.8,1.2,1.4,2.1C62.3,56.4,61.8,55.8,60.6,55.8z M92.4,75.6c0.1-0.1,0.3-0.1,0.4-0.2
			c-0.3-0.8-0.7-1.4-1.1-2.6C91.2,74.4,91.8,75,92.4,75.6z M15.9,40.6c0.2-0.6,0.1-1.1-0.6-1.2c-0.2,0-0.6,0.4-0.6,0.5
			C14.7,40.6,15.3,40.7,15.9,40.6z M65.2,73.2c0.4,0.6,0.7,1.1,1.2,2C66.7,73.7,66.7,73.7,65.2,73.2z M66.2,57.4
			c-0.5,1.6-0.5,1.6,1,1.7C66.9,58.6,66.7,58.2,66.2,57.4z M52.7,47.3c-0.1,1.4-0.1,1.4,1.4,1.5C53.6,48.3,53.3,47.9,52.7,47.3z
			 M43.9,47.8c1.1-0.8,1.1-0.9,0.8-1.4c-0.1-0.2-0.4-0.3-0.9-0.6C43.8,46.6,43.9,47,43.9,47.8z M95.2,52.6c0.4,0.9,0.6,1.6,1.5,1.8
			C96.7,53.4,96.5,52.7,95.2,52.6z M80.8,68.4c-0.2,0.1-0.3,0.2-0.5,0.3c-0.1,0.3-0.4,0.6-0.3,0.7c0.2,0.3,0.6,0.4,0.9,0.5
			c0.1,0,0.4-0.4,0.4-0.5C81.2,69.1,81,68.7,80.8,68.4z M16.2,35.6c-0.4-0.2-0.8-0.4-0.9-0.4c-0.3,0.2-0.4,0.5-0.6,0.8
			c0.2,0.2,0.5,0.5,0.6,0.4C15.6,36.3,15.8,36,16.2,35.6z M92.8,83.3c-0.4-1.6-0.4-1.6-1.9-1.5C91.6,82.3,92,82.7,92.8,83.3z
			 M-13.3,6c0.2-0.1,0.3-0.3,0.5-0.4c-0.4-0.4-0.8-0.8-1.1-1.1c-0.1,0.1-0.3,0.3-0.4,0.4C-13.9,5.2-13.6,5.6-13.3,6z M6.5,11.2
			c-0.2,0-0.3,0.1-0.5,0.1c-0.4,0.5-0.2,0.9,0.7,1.4C6.6,12,6.5,11.7,6.5,11.2z M0.8,30.1c0-0.9-0.3-1.2-0.9-1.1
			c-0.1,0-0.1,0.1-0.3,0.3c0.1,0.2,0.3,0.4,0.4,0.5C0.2,29.9,0.5,30,0.8,30.1z M32.3,2.7c0.1-0.1,0.3-0.1,0.4-0.2
			c0.1-0.5,0.1-0.9-0.9-1C32.1,2,32.2,2.3,32.3,2.7z M46,59.6c0.7-0.6,0.6-1.1,0.3-1.6c0-0.1-0.2,0-0.4-0.1
			C45.9,58.4,45.9,58.9,46,59.6z M-5.8,31.7c-0.5-0.9-0.8-1.1-1.6-0.4C-6.9,31.5-6.5,31.6-5.8,31.7z M-2.5,33.2
			c0.1-0.1,0.3-0.3,0.4-0.4c-0.3-0.3-0.6-0.4-0.8-0.7c-0.1,0.1-0.2,0.2-0.3,0.3C-3,32.6-2.7,32.9-2.5,33.2z M5.1,32.1
			c0.2-0.3,0.4-0.4,0.6-0.7c-0.3-0.3-0.7-0.5-1-0.8c-0.1,0.2-0.3,0.3-0.4,0.5C4.5,31.5,4.7,31.8,5.1,32.1z M2.5,30.1
			c-0.1,0.1-0.3,0.3-0.4,0.4c0.3,0.3,0.6,0.4,0.9,0.7c0.1-0.1,0.2-0.2,0.3-0.3C3,30.6,2.8,30.3,2.5,30.1z M35.1,42.1
			c-0.2,0-0.3,0.1-0.5,0.1c0.1,0.3,0.1,0.6,0.1,0.9c0.2-0.1,0.5-0.1,0.5-0.1C35.2,42.7,35.1,42.4,35.1,42.1z M112.7,81.1
			c0.1-0.1,0.1-0.3,0.2-0.4c-0.3-0.2-0.7-0.3-1-0.5c-0.1,0.1-0.1,0.3-0.2,0.4C112,80.8,112.4,80.9,112.7,81.1z M112.3,71
			c-0.2,0.9,0.1,1.1,1.1,1.1C112.9,71.6,112.7,71.3,112.3,71z M113.7,84.5c-0.3-1.4-0.4-1.7-0.9-1.3C113,83.6,113.3,83.9,113.7,84.5
			z M96.8,79.1c-0.1,0.1-0.3,0.2-0.4,0.3c0.3,0.3,0.5,0.5,0.8,0.8c0.1-0.1,0.2-0.1,0.3-0.2C97.2,79.7,97,79.4,96.8,79.1z M86.3,64.2
			c-0.3-0.2-0.4-0.4-0.6-0.5c-0.1,0-0.4,0.3-0.3,0.3c0.1,0.2,0.3,0.4,0.4,0.5C85.9,64.5,86.1,64.3,86.3,64.2z M88.1,71.3
			c-0.1,0.1-0.3,0.1-0.4,0.3c0.2,0.3,0.4,0.6,0.6,0.9c0.1-0.1,0.2-0.1,0.3-0.1C88.4,71.9,88.2,71.6,88.1,71.3z M85.8,70.9
			c-0.2,0.3-0.4,0.4-0.4,0.4c0.1,0.1,0.2,0.3,0.3,0.4c0.1,0.1,0.3-0.1,0.4-0.2C86,71.3,86,71.1,85.8,70.9z M50.4,45.6
			c-0.2,0.2-0.4,0.4-0.5,0.5c0.3,0.2,0.5,0.4,0.8,0.6c0.1-0.2,0.3-0.3,0.4-0.5C50.9,46.1,50.7,45.8,50.4,45.6z M-2.4,7.4
			c-0.2,0.3-0.4,0.4-0.4,0.4c0,0.1,0.2,0.3,0.3,0.4C-2.4,8.3-2.2,8.1-2.1,8C-2.2,7.8-2.3,7.6-2.4,7.4z M27.3,44.9
			c0.3-0.3,0.4-0.4,0.4-0.5s-0.1-0.4-0.3-0.4c-0.1-0.1-0.4,0.1-0.4,0.2C27.1,44.4,27.2,44.6,27.3,44.9z M74,68
			c0.1-0.1,0.3-0.2,0.4-0.3c-0.2-0.2-0.3-0.4-0.5-0.6c0,0-0.3,0.2-0.4,0.3C73.7,67.6,73.8,67.8,74,68z M101.7,68.7
			c-0.2-0.1-0.3-0.3-0.5-0.4l-0.2,0.2c0.1,0.2,0.3,0.3,0.4,0.5C101.5,69,101.6,68.9,101.7,68.7z M9.9,10.3c-0.1,0.1-0.2,0.1-0.3,0.1
			c0.1,0.3,0.2,0.4,0.3,0.7c0,0,0.2-0.1,0.3-0.1C10,10.8,10,10.6,9.9,10.3z M37.9,2c-0.1,0-0.3,0-0.4,0c0.1,0.3,0.1,0.6,0.2,0.9
			c0.1,0,0.2,0,0.3,0C37.9,2.5,37.9,2.3,37.9,2z M9.9,12.3c-0.1,0.1-0.3,0.1-0.4,0.2c0.1,0.3,0.3,0.5,0.4,0.7
			c0.1-0.1,0.2-0.1,0.3-0.1C10,12.8,10,12.6,9.9,12.3z M96.4,75.9c0.1-0.1,0.3-0.1,0.4-0.1c-0.1-0.3-0.2-0.4-0.3-0.7
			c-0.1,0.1-0.3,0.1-0.3,0.1C96.3,75.4,96.3,75.6,96.4,75.9z M13.4,35.3c-0.1,0.1-0.3,0.1-0.3,0.2c0,0.1,0.1,0.3,0.1,0.4
			c0.1-0.1,0.3-0.1,0.3-0.1C13.4,35.6,13.4,35.4,13.4,35.3z M36.8,43.6c0.1-0.2,0.1-0.3,0.1-0.4c0-0.1-0.1-0.1-0.3-0.2
			c-0.1,0.1-0.1,0.3-0.2,0.4C36.6,43.5,36.7,43.5,36.8,43.6z M42.4,46.3c-0.1,0.2-0.3,0.3-0.3,0.4c0.1,0.1,0.2,0.3,0.4,0.3
			c0.1,0,0.2-0.2,0.3-0.3C42.7,46.6,42.6,46.5,42.4,46.3z M90.2,72.7c0.3-0.3,0.3-0.4,0.4-0.5c-0.1-0.1-0.3-0.2-0.4-0.3
			c0,0-0.2,0.1-0.2,0.3C90.1,72.3,90.2,72.5,90.2,72.7z M122.6,90.7c-0.1-0.1-0.2-0.1-0.3-0.1l-0.1,0.1c0.1,0.1,0.1,0.1,0.2,0.2
			C122.5,90.9,122.6,90.9,122.6,90.7z M95.1,67.9c0.1-0.1,0.1-0.1,0.2-0.2l-0.1-0.1c-0.1,0-0.2,0.1-0.3,0.1
			C95,67.7,95,67.8,95.1,67.9z"/>
		<path class="st0" d="M376.8,193c-2,1.6-4.2,2.1-6.7,2.3c-1.6,0.1-3.2,0.6-4.8,1.1c-1.3,0.3-2.5,0.9-3.7,1.2
			c-2.4,0.6-4.8,0.9-7.2,1.4c-2.1,0.5-3.8,1.8-5.4,3.1c-0.4,0.4-1,0.6-1.4,0.9c-2.1,1.4-4.6,1.3-6.7,2.3c-3,1.5-6,3.1-9,4.8
			c-1.6,0.9-3.1,2-4.7,2.9c-0.4,0.3-0.8,0.4-1.2,0.6c-1.9,0.4-3.3,1.6-5,2.5c-3.9,2.1-7,5.5-10.9,7.7c-1.5,0.9-2.8,2.1-4.3,3
			c-3.8,1.9-7.2,4.3-11,6.1c-2.5,1.1-4.8,2.7-7.2,4.2c-3.3,2.1-6.7,4.3-10,6.4c-0.9,0.6-2,0.9-2,2.3c-2.9,0.9-5.7,1.8-8.3,3.5
			c-0.4,0.3-0.9,0.3-1.4,0.4c-0.4,0.1-0.8,0.2-1.1,0.4c-2.1,1.3-4.1,2.7-6.2,3.9c-0.9,0.6-2.1,0.8-3.1,1.2c-0.9,0.4-1.8,0.8-2.5,1.3
			c-1.2,0.9-1.7,0.5-2.5-0.2c-0.4-0.4-0.8-0.8-1-1.2c-1.4,0.1-1.6,1.3-2.1,1.9c-1,0.1-1.9,0.1-3,0.3c-0.3-0.1-0.8-0.4-1.3-0.8
			c-2,2-2.9,1.9-4.2-0.1c0.3-0.5,0.6-1,1.1-1.8c-2.5,0.8-4.5,0.3-6.4-0.8c0.3-1.3,1.2-1.6,2.1-1.8c2.3-0.4,4.7-0.9,7.1-1.1
			c2.4-0.3,4.8-0.4,7.1-1.2c1.1-0.4,2.2-0.8,3.1-1.4c2-1.3,4-2.3,6.2-3.1c1.5-0.6,2.9-1.5,4.4-2.2c2.7-1.3,5.2-2.7,7.4-4.8
			c2.8-2.6,5.5-5.2,8.4-7.8c0.6-0.6,1.5-0.9,2.3-1.3c0.9-0.6,1.8-1.1,2.7-1.7c1.3-1,2.5-2.1,3.7-3.2c0.8-0.6,1.6-1.1,2.7-1.3
			c1-0.1,1.7-0.6,2.3-1.4c0.5-0.7,1.3-1.2,2-1.7c1.6-1,3.3-1.9,4.9-2.9c0.7-0.4,1.1-1.1,1.7-1.7c0.3-0.3,0.6-0.7,0.9-0.9
			c1.4-0.5,2.9-0.9,4.3-1.4c0.9-0.3,1.9-0.8,2.7-1.3c1.8-1.3,3.5-2.4,5.7-2.9c0.6-0.1,1.2-0.7,1.8-1c1.1-0.7,2.2-1.4,3.3-2
			c0.9-0.6,2-1.1,3-1.6c0.9-0.4,2-0.6,3-0.9c0.9-0.3,1.9-0.6,2.8-1c0.9-0.4,1.8-0.8,2.7-1.3c0.7-0.4,1.3-1,2-1.4
			c0.7-0.4,1.4-0.9,2.1-1c0.6-0.1,1.3,0.4,2.1,0.8c0.1-0.3,0.2-0.7,0.3-1.1c0.5-1.3,1.4-2,2.7-1.9c1.2,0.1,2.2-0.3,3.2-0.9
			c0.5-0.4,1.2-0.8,1.7-0.6c1.5,0.4,2.3-0.4,3.3-1.3c0.6-0.4,1.3-1,2-0.9c1.7,0.1,3-0.7,4-1.8c1-1,2-1.4,3.3-0.9
			c0.7,0.3,1.3,0,2-0.4c1.8-0.9,3.5-2.1,5.7-2.2c1.1-0.1,2.1-0.8,3.1-1.1c2.4-0.8,4.9-1.4,7.2-2.1C376.8,186.9,376.8,190,376.8,193z
			"/>
		<path class="st0" d="M-16.4,190c0.3,0.1,0.5,0.1,0.8,0.2c3.1,1.6,6.3,3.2,9.4,4.8c0.6,0.3,1.1,0.6,1.7,0.9c3,1.3,5.9,2.6,8.8,3.9
			c0.8,0.4,1.6,0.7,2.4,1.1c3.7,2.5,7.9,4,11.6,6.4c0.8,0.5,1.6,1.1,2.3,1.6c0.6,0.4,1.1,0.9,1.8,1.1c2.6,0.6,4.5,2.3,6.5,3.8
			c1.9,1.4,3.7,2.9,5.5,4.3c1.4,1.1,3,2,4.5,3.1c0.7,0.4,1.3,1,1.9,1.6c1.4,1.3,2.6,2.8,4.4,3.5c0.1,0.1,0.3,0.1,0.3,0.2
			c2.2,2.3,4.7,4.2,7.2,6c2.1,1.6,4.2,3.4,6.2,5.2c2.5,2.1,5.4,3.5,8.1,5.3c1.6,1.1,3.5,1.7,5.2,2.6c0.8,0.4,1.5,0.9,2.1,1.6
			c0.8,0.8,1.6,1.3,2.7,1.6c1,0.3,2,0.8,2.9,1.3c0.7,0.4,1.3,0.9,2,1.2c2.3,0.9,4.2,2.3,6.1,3.7c1.3,0.9,3,1.2,4.5,1.8
			c0.4,0.1,0.8,0.1,1.1,0.4c1.6,1.3,3.5,2.1,5.5,2.9c1.7,0.6,3.4,1.3,5.1,1.8c2.1,0.6,4.4,1.1,6.6,1.6c0.4,0.1,0.9,0.1,1.3,0.1
			c0.8,0.1,1.6,0.2,2.1,1.1c0.1,0.3,0.5,0.6,0.8,0.8c2.5,0.8,4.7,2.5,7.5,2.4c0.3,0,0.7,0,0.9,0.1c2.2,1.3,4.9,0.8,7.1,1.6
			c2.1,0.8,4.5,0.6,6.5,1.6c1.5,0.8,3.1,1.4,4.9,2.2c-1.1,0.4-2,0.8-3,1.3c-0.9-0.9-2.7,0.1-3.7-1.4c-1.4,2.3-3,0.8-4.3,0.3
			c-0.9-0.4-1.9-0.6-2.8-0.8c-2.8-0.7-5.9-0.8-8.6-2.1c-0.6-0.3-1.3-0.5-1.8-0.4c-2.1,0.3-4.1-0.5-6.1-1c-1.5-0.3-3.1-0.7-4.6-1
			c-0.1,0-0.3,0-0.4-0.1c-1.7-1.4-4-1.3-5.9-2c-0.6-0.3-1.3-0.3-1.8-0.5c-1-0.3-2-0.7-3-1.1c-1.1-0.4-2.1-0.9-3.1-1.3
			c-0.7-0.3-1.4-0.6-2.1-0.9c-1-0.4-2.1-0.9-3.1-1.4c-0.3-0.1-0.7-0.3-1-0.4c-3.2-2-6.4-4-9.6-5.9c-1.6-0.9-3.3-1.6-4.9-2.4
			c-0.3-0.1-0.6-0.2-0.8-0.4c-1.8-1.8-4.1-2.7-6.3-3.8c-2.6-1.3-4.9-2.6-7.2-4.5c-1.8-1.4-3.7-2.6-5.5-4c-3-2-5.9-4.1-9.1-5.7
			c-1.5-0.8-2.7-2-4.2-3c-2.4-1.6-4.8-3.2-7.2-4.8c-1.4-0.9-3.1-1.7-4.5-2.6c-3.4-2.3-6.6-4.9-10.3-6.6c-1.5-1.7-4-2-5.6-3.3
			c-2.1-1.9-5.1-2.1-7.1-4.1c-0.5-0.5-1.4-0.6-2-0.9c-0.7-0.4-1.3-1-1.9-1.4c-0.4-0.3-0.8-0.7-1.3-0.7c-1.6,0-2.5-0.8-3.3-2
			c-0.4-0.5-1-0.9-1.6-1.3c-0.3-0.3-0.7-0.5-1-0.8c-0.5-0.3-1-0.8-1.6-0.9c-1.1-0.3-1.6,0.1-1.7,1.3c0,0.4,0,0.8,0,1.4
			c-0.6-0.3-1-0.4-1.4-0.6c0.3-1.3,0.4-2.4,0.6-3.3c-1.2-0.8-2.1-1.3-3.1-2c-0.3,0.3-0.6,0.6-1.1,1c0.6,0.6,1.1,1,1.5,1.4
			c0.3,0.3,0.8,0.6,0.9,0.9c0.1,0.3,0.1,0.9-0.1,1.2c-0.1,0.3-0.7,0.4-0.9,0.3c-0.8-0.2-1.6-0.5-2.3-0.8
			C-16.4,198-16.4,194-16.4,190z"/>
		<path class="st0" d="M-16.4,14.8c1.3,0.6,2.6,1.3,3.9,1.9c1.6,0.8,2,0.6,2.6-1.1c0.4-1.4,1-1.5,2.2-0.8s2.5,1.1,3.7,1.7
			c0.8,0.4,1.6,0.9,2.5,1.4c0.3-0.3,0.6-0.6,1-0.9c0.3,0.2,0.6,0.4,1.1,0.9c-0.2-1.2-0.3-2.1-0.5-3.3c0.9,0.9,1.4,1.7,1.8,2.7
			c0.9,2.5,2.6,3.5,5.3,3.1c0.1,0,0.1,0,0.2,0c1.9-0.2,2-0.1,1.9,2c2.6,0.3,4.2,2,5.5,4.4c0.1-1.1,0.1-1.6,0.3-2.3
			c1.2,0.2,2,0.5,2.3,1.7c0.1,0.4,0.2,0.7,0.3,1.1l0,0c-1.1,0.5-0.9,1.4-0.7,2.5c-0.4,0-0.7,0.1-0.9,0c-1.5-0.9-3.1-1.8-4.5-2.8
			c-0.5-0.4-0.6-1.3-1.1-2.1c-0.4,0.8-0.7,1.5-1.1,2.3c-1.1-0.5-2.2-0.7-3.2-1.7c0.6-0.3,1-0.4,1.3-0.6c0.8-0.4,0.9-1.1,0.1-1.6
			c-1.5-0.9-2.2-0.7-2.7,1.1c-0.1,0.2-0.1,0.3-0.3,0.5c0,0.1-0.1,0.1-0.1,0.1C3,23.6,3,23.6,2.2,24.6c-1-0.9-2.3-1.2-3.7-1.3
			c-1.1-0.1-2.1-1-3.1-1.6c-0.6-0.3-1.3-0.6-2-0.9c-0.4-0.2-0.8-0.4-1.1-0.6c-1.1-0.6-2.2-1.1-3.3-1.6c-1.1-0.5-2.2-0.8-3.2-1.4
			c-0.7-0.4-1.3-0.4-2-0.3C-16.4,16.3-16.4,15.6-16.4,14.8z M-1.7,19.4c-0.2,0.1-0.4,0.1-0.6,0.2c0.2,0.5,0.3,1.1,0.4,1.5
			c0.1,0.1,0.4,0.3,0.6,0.2S-1,20.9-1,20.7C-1.2,20.3-1.5,19.9-1.7,19.4z"/>
		<path class="st0" d="M-16.4,43.6c1.8-0.2,3.5-0.7,5-2.1c0.4,0.7,0.9,1.3,1.4,2c0.7,0.9,1.3,1.8,2.8,1.6c0.4-0.1,0.8,0.4,1.2,0.7
			c0.3-0.5,0.4-0.9,0.8-1.6c0.6,0.3,1.1,0.5,1.6,0.8c0.6,0.4,1.3,0.8,2,1.1c1.7,0.8,2,1.5,1.7,3.4c-0.1,0.4-0.2,0.9,0,1.3
			c0.6,0.9,0.4,1.8,0,2.8c-1.8-0.8-0.6-2.8-1.8-4c-0.3,0.3-0.7,0.5-0.9,0.8c-0.4,0.4-0.7,0.9-1.4,0.8c-0.8-0.3-0.8-0.9-0.7-1.6
			c0.1-0.3,0.1-0.5,0.1-0.8c-0.7-0.4-1.4-0.7-2.4-1.1c-0.2,0.8-0.3,1.5-0.4,2.1c-2,0.3-2.3,0-3.6-4c-0.6,0.3-1.3,0.6-2.1,0.9
			c-0.2-0.6-0.4-1.1-0.6-1.7c-0.9,0.6-1.7,0.9-2.6,0.2C-16.4,44.6-16.4,44.1-16.4,43.6z"/>
		<path class="st0" d="M46.6-0.4c0.6,1.1,1.1,2.3,1.6,3.4c0.8,1.9-0.6,3.7-2.7,3.3c-0.9-0.1-1.8-0.3-2.8-0.5c0-0.8,0-1.6,0-2.7
			c0.9,0.4,1.7,0.6,2.6,1c0.1-0.4,0.3-0.8,0.5-1.4c-1.9-0.4-2.9-2-4.7-2.4c-0.3-0.1-0.4-0.4-0.6-0.7C42.5-0.4,44.6-0.4,46.6-0.4z"/>
		<path class="st0" d="M-16.4,26.9c1.1,0.5,2.3,1,3.4,1.6c0.5,0.3,1,0.6,1.3,1.1c0.3,0.7,0.6,1.1,1.4,1.2c0.3,0,0.6,0.6,0.7,1
			c0.1,0.6,0,1.3,0,2.1c-1.6-0.8-3-1.6-3.1-3.8c-0.6,0.8-0.9,1.1-1.3,1.5c-0.8-0.6-1.6-1.1-2.3-1.7C-16.4,28.9-16.4,27.9-16.4,26.9z
			"/>
		<path class="st0" d="M-12.2-0.4c0,0.9,0,1.7,0,2.6c-1.5,0.4-3.1,0-4.2,1.3c0-1.3,0-2.5,0-3.8C-15-0.4-13.6-0.4-12.2-0.4z"/>
		<path class="st0" d="M376.8,25c-0.8,0.9-1.6,1.8-2.4,2.6c-0.5,0.5-1.1,0.9-1.7,1.3c-0.2,0.1-0.6-0.1-0.8-0.3
			c-0.1-0.2-0.1-0.6,0.1-0.8c1.6-1.8,2.8-3.8,4.9-5.1C376.8,23.5,376.8,24.3,376.8,25z"/>
		<path class="st0" d="M-16.4,23.1c0.3,0.1,0.6,0.3,0.8,0.4c0.6,1,1.6,1.3,2.6,1.5c0.3,0.1,0.4,0.2,0.6,0.3
			c-0.6,1.1-1.5,1.4-2.7,0.9c-0.5-0.3-0.9-0.6-1.4-0.9C-16.4,24.6-16.4,23.9-16.4,23.1z"/>
		<path class="st0" d="M26.9-0.4c0.1,0.8,0.8,1,1.5,1.2c1.2,0.4,1.3,0.6,1.2,2.3c-1.4-1-3.5-1.1-3.4-3.5C26.4-0.4,26.6-0.4,26.9-0.4
			z"/>
		<path class="st0" d="M376.8,50.4c-0.4-1-0.9-1.8-2.1-2.1c-1.1-0.4-1.1-0.6-0.5-1.8c1.1,0.2,2.2,0.3,2.6,1.6
			C376.8,48.9,376.8,49.7,376.8,50.4z"/>
		<path class="st0" d="M376.8-0.4c0,0.9,0,1.8,0,2.6"/>
		<path class="st0" d="M20.8-0.4c-0.2,0.3-0.3,0.6-0.5,0.9c-0.3-0.3-0.7-0.6-1-0.9C19.8-0.4,20.3-0.4,20.8-0.4z"/>
		<path class="st0" d="M376.8,55.4c-0.9-0.5-0.6-1,0-1.5C376.8,54.4,376.8,54.9,376.8,55.4z"/>
		<path class="st0" d="M376.8,56.5c-0.3,0.1-0.4,0.1-0.7,0.1c-0.1-0.1-0.1-0.1-0.1-0.2c0.3-0.3,0.6-0.4,0.8-0.7
			C376.8,56,376.8,56.3,376.8,56.5z"/>
		<path class="st0" d="M-12.5,207.8c0.1-0.9-0.3-1.9,1.2-2.2c0.7,1.4,2,2.5,2,4.3c0,0.3,0.5,0.7,0.7,1.1c0.3,0.5,0.6,0.9,1,1.6
			c-1,0.3-1.3-0.3-1.6-0.8c-0.3-0.5-0.4-1.1-0.6-1.6C-10.4,208.3-10.5,208.2-12.5,207.8z"/>
		<path class="st0" d="M-5.6,217.7c-0.6-1.1-0.6-1.1-0.3-2C-5.2,216.2-5.3,216.9-5.6,217.7z"/>
		<path class="st0" d="M-7.1,214.1c0-0.3-0.1-0.6-0.1-0.9l0.3-0.1c0.1,0.3,0.2,0.6,0.3,0.9C-6.8,214-7,214.1-7.1,214.1z"/>
		<path class="st0" d="M233.2,467c-0.4,1.5-2.3,0.7-3,1.6c-1.3-0.3-2.5-0.6-3.6-0.8c0.3-1.2,0.7-2.3,0.9-3.4
			c0.1-0.9,0.5-1.1,1.4-1.2c1.5-0.1,1.8-0.4,2.2-1.8c0.2-0.8,0.3-1.5,0.6-2.1c0.1-0.3,0.7-0.7,0.9-0.6c0.3,0.1,0.7,0.6,0.7,0.9
			c0,0.4-0.3,0.9-0.6,1.3c-0.7,1.5-1.4,3-2.1,4.6c-0.3,0.8,0.4,1.5,1.2,1.4c0.3,0,0.7-0.2,1-0.3C233.1,466.7,233.1,466.9,233.2,467z
			"/>
		<path class="st0" d="M42.6,64c0-0.9,0-1.6,0-2.4c0.9,1.4,1.6,2.8,1.6,4.5c-0.9-0.3-1.7-0.5-2.8-0.9c-1.1-1.8-3.2-2.5-5.5-2.9
			c-0.7-0.1-1.3-0.4-1.9-0.7c-0.7-0.4-1.3-0.8-2.2-0.6c-0.8,0.3-1.4-0.6-1.5-2.3c1.1,0.3,2.1,0.6,3.3,0.9c0.1-0.1,0.3-0.3,0.6-0.6
			c0.4,0.3,1,0.5,1.1,0.9c0.5,1.3,2,1,2.8,1.8c0.1,0.1,0.4,0,0.5,0c1.6-0.4,1.6-0.4,2.3,0.8C41.2,63.3,41.7,63.8,42.6,64z"/>
		<path class="st0" d="M253.7,458.3c-2,0.3-2.6,1.8-3.3,2.9c-0.7,1-0.6,2.6-0.9,4c-0.5-0.1-1-0.3-1.5-0.4c-0.2,0.3-0.3,0.6-0.7,1.3
			c-0.4-0.8-0.8-1.2-0.8-1.6c0.2-1.5,0.4-3.1,1.9-3.9c0.8-0.4,1.3-1.1,1.6-2c0.4-1.2,1.2-2.3,1.9-3.5c0.1-0.2,0.6-0.2,1.3-0.4
			C252.1,456.3,251.8,457.5,253.7,458.3z"/>
		<path class="st0" d="M29.7,61c-0.8-0.3-1.3-0.2-1.6-0.4c-1.6-1.4-3.5-2.1-5.5-2.8c-0.9-0.3-2.2-0.6-2.6-1.9
			c1.3-0.8,1.8,0.5,2.6,0.8c0.2-0.1,0.4-0.1,0.4-0.1c1.7-1.1,1.7-1.1,3.2,0.3c0.3,0.2,0.4,0.5,0.8,0.6C28.8,57.7,29,59.2,29.7,61z"
			/>
		<path class="st0" d="M217.2,444.5c2-2.5,3.7-3.5,6.7-2.2C222.7,444.9,219,446.1,217.2,444.5z"/>
		<path class="st0" d="M13.1,54.8c-0.2-1.4-0.4-2.8-0.5-4.1c0.1-0.1,0.3-0.1,0.4-0.2c0.3,2.3,2.1,2.6,3.8,3.1
			c1.3,0.4,1.7,1.1,1.5,2.5C16.6,55.7,15,55.3,13.1,54.8z"/>
		<path class="st0" d="M237.7,506c-2-1.1-2.2-2.1-0.6-3.2c0.6-0.4,0.9-0.9,1.1-1.6c0.1-0.3,0.5-0.8,0.9-0.8c0.6-0.1,1.1,0.2,0.9,0.8
			c-0.3,1.1-0.6,2.3-1,3.4C238.7,505.1,238,505.6,237.7,506z"/>
		<path class="st0" d="M10.5,48.9c-1.6-0.8-3.3-1.3-4.9-2.7c1.3-0.4,2.2-0.8,3.2-0.9c1.2-0.2,2,0.3,2.4,1.3
			C11.7,47.6,11,48.2,10.5,48.9z"/>
		<path class="st0" d="M177.1,430.3c-2.1,1.2-4.1,2.5-6.2,3.7c-0.3,0.1-0.7,0-1.1,0c-0.1-1.2,0.4-1.6,1.3-2.1
			c0.9-0.4,1.8-0.9,2.6-1.4c1-0.6,2.1-0.8,3.1-0.8C177,429.9,177.1,430,177.1,430.3z"/>
		<path class="st0" d="M208.9,464.1c1.3-2.2,2.6-2.6,5.3-1.9C213.7,464.7,211.8,465.5,208.9,464.1z"/>
		<path class="st0" d="M241.1,494.9c0.6,1.7,2.1,0.8,3.2,1.4c-0.6,1.4-1.8,2.1-3.1,2.5c-0.3,0.1-0.9-0.3-1.1-0.6
			C239.4,497.1,239.6,496.1,241.1,494.9z"/>
		<path class="st0" d="M85,83.7c-0.7-0.7-1.4-0.9-2.5-1c-0.9-0.1-1.8-0.9-2.6-1.6c-0.2-0.2,0-0.9,0.1-1.5c1.6,0.8,3.5,0.4,4.5,2
			c0.4,0.6,0.6,1.3,0.9,1.9C85.2,83.6,85.1,83.7,85,83.7z"/>
		<path class="st0" d="M135.7,103.8c0.8,1.6,1.6,3.1,2.4,4.7c-1.1,0.2-1.1,0.2-3.6-1.3c0.9-0.9,1.4-2,0.8-3.4
			C135.5,103.8,135.6,103.8,135.7,103.8z"/>
		<path class="st0" d="M-9.2,37.7c1.4,1.6,3.5,1.8,4.7,3.2C-6.2,41-7.6,40.6-9,40C-9.7,39.6-9.9,38.9-9.2,37.7z"/>
		<path class="st0" d="M190.1,419.5c-1.4,0.9-1.8,3.1-4.2,2.6c0.3-1.4,1.6-2,2.3-2.8C188.5,418.9,188.8,419,190.1,419.5z"/>
		<path class="st0" d="M262.8,431.6c1.5,1.8,1.6,2.8,0.6,3.5c-0.3,0.2-0.9,0.4-1.2,0.2c-0.3-0.1-0.5-0.8-0.4-1.1
			C262,433.4,262.4,432.6,262.8,431.6z"/>
		<path class="st0" d="M34.2,54.3c0.8,0.9,0.4,1.3-0.4,1.6c-1.4,0.5-3-0.6-3.6-2.3c0.6-0.6,1-0.1,1.4,0.3
			C32.3,54.8,33.2,55.1,34.2,54.3z"/>
		<path class="st0" d="M8.4,53.4c0.6-0.3,1.2-0.6,1.8-1c1.1,1.1,1.6,2.1,1.7,3.8C10.7,55.3,9.6,54.4,8.4,53.4z"/>
		<path class="st0" d="M245.5,457.2c0.9-0.9,1.7-1.8,2.5-2.6c0.9,1,0.9,1.1,0.2,2C247,457.9,246.7,458,245.5,457.2z"/>
		<path class="st0" d="M249.9,476.4c-1.1-1.3-1.1-1.8-0.1-3.2c2,0.4,2.1,0.6,2.2,2.1c-0.5-0.4-0.9-0.8-1.4-1.2
			C250.3,474.9,250.1,475.5,249.9,476.4z"/>
		<path class="st0" d="M229.3,433.2c0.9,0,1.6,0,2.6,0c-0.3,0.9-0.8,1.6-1.4,2.1c-0.6,0.4-1.4,0-1.6-0.7c-0.1-0.2-0.1-0.4,0-0.6
			C229,433.8,229.2,433.4,229.3,433.2z"/>
		<path class="st0" d="M22,52.5c-0.4-0.1-0.8-0.1-1.1-0.3c-0.7-0.3-1.3-0.6-2-0.9c-0.3-0.1-0.4-0.4-0.6-0.6c0.2-0.2,0.4-0.5,0.6-0.5
			C20,50.1,21.4,51.3,22,52.5z"/>
		<path class="st0" d="M215,519.2c-0.4,0.2-0.8,0.5-1.1,0.5c-0.9-0.1-1.7-0.3-2.5-0.5c-0.2-0.1-0.4-0.4-0.4-0.6
			c0-0.2,0.3-0.4,0.4-0.4c0.9,0.1,2,0.3,2.9,0.4C214.6,518.6,214.7,518.9,215,519.2z"/>
		<path class="st0" d="M245.7,441.6c0.6-0.8,0.9-1.4,1.5-1.9c0.2-0.2,0.8-0.1,1,0.1c0.1,0.1,0.1,0.8-0.1,0.9
			C247.6,441.4,247.2,442.2,245.7,441.6z"/>
		<path class="st0" d="M47.3,69.1c-1.6,0.4-1.6,0.4-2.5-2.1C46.2,67.1,46.6,68.2,47.3,69.1z"/>
		<path class="st0" d="M199.4,462.5c0,0.9-0.4,1.2-0.9,1.1c-0.4-0.1-1.1-0.4-1.1-0.6c-0.1-0.7,0.5-1,1.1-1
			C198.8,462,199.2,462.3,199.4,462.5z"/>
		<path class="st0" d="M163,269.9c1.6-0.3,2.3,0.1,2.8,1.6C164.5,271.5,163.6,271,163,269.9z"/>
		<path class="st0" d="M2.2,48.5c1.5,0.3,1.6,0.5,1.4,2.4C2.5,50.4,2.2,49.5,2.2,48.5z"/>
		<path class="st0" d="M-13.3,39.3c-0.4-0.6-0.8-1-0.8-1.4c0-0.3,0.4-0.6,0.7-0.9c0.3,0.3,0.8,0.6,0.9,1
			C-12.3,38.2-12.8,38.6-13.3,39.3z"/>
		<path class="st0" d="M107.8,92.7c-0.6,0.4-0.9,0.8-1.2,0.9c-0.6,0.2-1.1-0.2-1-0.8c0-0.3,0.4-0.9,0.7-0.9
			C106.7,92,107.1,92.4,107.8,92.7z"/>
		<path class="st0" d="M284.1,62.1c0.2-1,0.3-1.8,0.4-2.8C285.7,60.9,285.7,61.2,284.1,62.1z"/>
		<path class="st0" d="M225.6,501.1c-1.9,1.1-1.9,1.1-2.5-0.1C224,500.4,224.7,500.8,225.6,501.1z"/>
		<path class="st0" d="M185.5,462.6c-0.9,0.4-1.8,0.5-2.5-0.6C184.1,461,184.7,462.2,185.5,462.6z"/>
		<path class="st0" d="M226.5,493.2c0.4-0.1,0.6-0.3,0.8-0.2c0.4,0.1,0.9,0.3,1.3,0.6c0.1,0,0,0.4-0.1,0.5c-0.6,0.4-1.1,0.3-1.5-0.1
			C226.7,493.7,226.6,493.5,226.5,493.2z"/>
		<path class="st0" d="M324.7,345.1c1.1-0.6,1.8-0.7,2.6-0.1C326.5,346,325.8,345.8,324.7,345.1z"/>
		<path class="st0" d="M15.2,48.5c0.6,0.5,1.3,1.1,2,1.7C16,50.6,15.8,50.5,15.2,48.5z"/>
		<path class="st0" d="M197.7,430.6c0.8,0.1,1.3,0.2,2.2,0.3c-0.7,0.6-1.1,1-1.8,1.5C198,431.7,197.9,431.3,197.7,430.6z"/>
		<path class="st0" d="M235.7,480.7c0-0.8,0-1.4,0-2.5C236.8,479.2,236.6,480,235.7,480.7z"/>
		<path class="st0" d="M36.5,66.1c-0.3-0.5-0.6-0.8-0.7-1.1c-0.1-0.1,0.5-0.6,0.6-0.5c0.3,0.2,0.6,0.5,0.8,0.8
			C37.2,65.3,36.8,65.7,36.5,66.1z"/>
		<path class="st0" d="M282.7,60.9c-0.4,0.1-0.8,0.4-1,0.3c-0.3-0.1-0.6-0.4-0.7-0.6c-0.1-0.3,0.3-0.5,0.5-0.8
			C281.8,60.1,282,60.3,282.7,60.9z"/>
		<path class="st0" d="M172.5,397.1c-0.6,0-1.2,0-2.1,0c0.9-0.8,1.5-0.9,2.1-0.6C172.5,396.7,172.5,396.9,172.5,397.1z"/>
		<path class="st0" d="M250.4,491.9c-0.4,0.3-0.8,0.5-1.1,0.6c-0.2,0-0.6-0.4-0.6-0.6c0.1-0.3,0.4-0.7,0.6-0.7
			C249.8,491.2,250,491.6,250.4,491.9z"/>
		<path class="st0" d="M110.7,93.6c0.1,0,0.1-0.1,0.2-0.1c0.5,0.2,1.1,0.4,0.9,1.1c0,0.1-0.3,0.3-0.4,0.3
			C110.8,95,110.8,94.8,110.7,93.6z"/>
		<path class="st0" d="M158.4,443.6c-0.4,0.4-0.6,0.7-0.9,0.8c-0.1,0.1-0.4-0.3-0.6-0.5c0.3-0.3,0.4-0.6,0.7-0.7
			C157.6,443.1,158,443.4,158.4,443.6z"/>
		<path class="st0" d="M254,181.9c-0.3,0.3-0.6,0.5-0.6,0.4c-0.3-0.3-0.5-0.6-0.7-0.9c0.2-0.1,0.4-0.4,0.6-0.3
			C253.5,181.3,253.7,181.5,254,181.9z"/>
		<path class="st0" d="M253.4,370.5c0.6,0.1,1.2,0.1,1.8,0.1c0,0.1,0,0.3,0,0.4c-0.6,0-1.2,0-1.8,0
			C253.4,370.8,253.4,370.6,253.4,370.5z"/>
		<path class="st0" d="M266.4,430.9c1.1,0.3,1.4,0.6,1.2,1.5c-0.3-0.2-0.6-0.2-0.7-0.4C266.8,431.8,266.7,431.5,266.4,430.9z"/>
		<path class="st0" d="M133.4,101.5c0.2,0.3,0.3,0.6,0.5,1c-0.2,0.1-0.4,0.2-0.6,0.3c-0.2-0.3-0.3-0.7-0.5-1
			C133,101.7,133.2,101.6,133.4,101.5z"/>
		<path class="st0" d="M232.7,392c-0.5-0.2-1-0.4-1.6-0.6C232.1,391.1,232.1,391.1,232.7,392z"/>
		<path class="st0" d="M287.2,61.1c0.4-0.3,0.8-0.6,1.4-1.1c0.1,1.2-0.6,1.2-1.1,1.4C287.4,61.3,287.2,61.2,287.2,61.1z"/>
		<path class="st0" d="M257.7,435.8c-0.1,0.3-0.2,0.6-0.3,0.9c-0.1-0.1-0.4-0.1-0.4-0.2c0.1-0.3,0.2-0.6,0.3-0.9
			C257.4,435.7,257.5,435.8,257.7,435.8z"/>
		<path class="st0" d="M249.2,452c0.4-0.1,0.8-0.1,1.1-0.2c0.1,0.1,0.1,0.3,0.1,0.4c-0.4,0.1-0.7,0.2-1.1,0.3
			C249.2,452.4,249.2,452.2,249.2,452z"/>
		<path class="st0" d="M12.6,47.3c0.3,0.3,0.4,0.4,0.6,0.7l-0.3,0.3c-0.3-0.2-0.4-0.4-0.7-0.6C12.3,47.5,12.4,47.4,12.6,47.3z"/>
		<path class="st0" d="M233.2,432.3c0.3,0.3,0.4,0.4,0.4,0.5c-0.1,0.2-0.3,0.4-0.4,0.6c-0.1-0.1-0.4-0.3-0.4-0.4
			C232.9,432.8,233.1,432.6,233.2,432.3z"/>
		<path class="st0" d="M173.3,420.8c-0.2-0.2-0.4-0.3-0.4-0.5c0-0.1,0.3-0.4,0.3-0.3c0.2,0.1,0.4,0.3,0.5,0.4
			C173.5,420.5,173.5,420.6,173.3,420.8z"/>
		<path class="st0" d="M113.2,96.8c-0.1-0.3-0.3-0.6-0.4-0.9c0.1-0.1,0.2-0.1,0.3-0.1c0.2,0.3,0.4,0.6,0.6,0.9
			C113.4,96.6,113.3,96.7,113.2,96.8z"/>
		<path class="st0" d="M109.1,94.3c-0.2-0.3-0.4-0.5-0.6-0.8c0.1-0.1,0.2-0.2,0.3-0.3c0.3,0.3,0.4,0.5,0.7,0.8
			C109.4,94.1,109.3,94.2,109.1,94.3z"/>
		<path class="st0" d="M21.8,60.2c-0.3,0.1-0.4,0.3-0.6,0.2c-0.1-0.1-0.1-0.3-0.2-0.4c0-0.1,0.3-0.2,0.3-0.1
			C21.6,59.9,21.6,60.1,21.8,60.2z"/>
		<path class="st0" d="M241.3,443.4c0.1,0.3,0.1,0.4,0.2,0.5c-0.1,0.1-0.3,0.1-0.4,0.1c-0.1,0-0.2-0.2-0.1-0.3
			C241,443.7,241.1,443.6,241.3,443.4z"/>
		<path class="st0" d="M292.2,60.2c-0.1,0.1-0.1,0.3-0.2,0.4c-0.1-0.1-0.3-0.2-0.3-0.3c0-0.1,0.1-0.2,0.1-0.3
			C292,60.1,292.1,60.1,292.2,60.2z"/>
		<path class="st0" d="M240.6,459.2c-0.1,0.1-0.2,0.2-0.3,0.3c-0.1-0.1-0.2-0.2-0.2-0.3c0.1-0.1,0.2-0.3,0.3-0.3
			C240.4,459,240.5,459.1,240.6,459.2z"/>
		<path class="st0" d="M116.6,237.9c-0.2,0.1-0.4,0.1-0.5,0.1c-0.1-0.1-0.2-0.3-0.3-0.4c0.1-0.1,0.3-0.2,0.4-0.1
			C116.4,237.5,116.5,237.6,116.6,237.9z"/>
		<path class="st0" d="M39.5,67.2c-0.2-0.2-0.4-0.3-0.4-0.4c-0.1-0.1,0.1-0.3,0.1-0.4c0.1,0.1,0.3,0.1,0.4,0.3
			C39.6,66.7,39.5,66.9,39.5,67.2z"/>
		<path class="st0" d="M207.6,421.8c0.1,0.2,0.3,0.4,0.4,0.6c-0.1,0.1-0.1,0.1-0.3,0.2c-0.2-0.2-0.4-0.4-0.6-0.6
			C207.4,422,207.5,421.9,207.6,421.8z"/>
		<path class="st0" d="M216.6,518.9c-0.1,0.1-0.3,0.3-0.3,0.3c-0.1,0-0.3-0.1-0.3-0.2s0.1-0.2,0.1-0.3
			C216.2,518.8,216.4,518.8,216.6,518.9z"/>
		<path class="st0" d="M221.1,502.6c-0.1,0.1-0.2,0.1-0.3,0.1l-0.1-0.1c0.1-0.1,0.1-0.2,0.2-0.3C221,502.4,221.1,502.5,221.1,502.6z
			"/>
		<path class="st0" d="M252.8,346.6c-0.1-0.1-0.2-0.1-0.2-0.2s0.1-0.1,0.2-0.2c0.1,0.1,0.1,0.1,0.2,0.3
			C253,346.4,252.9,346.4,252.8,346.6z"/>
		<path class="st0" d="M245.3,454.6c-0.1,0.1-0.1,0.2-0.2,0.2c-0.1,0-0.1-0.1-0.2-0.2c0.1-0.1,0.1-0.1,0.2-0.2
			C245.2,454.4,245.2,454.5,245.3,454.6z"/>
		<path class="st0" d="M254.1,451.3c-0.1-0.1-0.1-0.2-0.1-0.3l0.1-0.1c0.1,0.1,0.1,0.1,0.3,0.2C254.3,451.2,254.2,451.3,254.1,451.3
			z"/>
		<path class="st0" d="M194.9,445.2c-0.1,0.1-0.1,0.2-0.3,0.3c-0.1-0.1-0.2-0.3-0.3-0.3c0.1-0.1,0.2-0.2,0.3-0.1
			C194.8,445,194.9,445.2,194.9,445.2z"/>
		<path class="st0" d="M265.6,82c-0.7-0.4-0.6-1.2-0.9-1.8C265.9,80.7,265.9,80.7,265.6,82z"/>
		<path class="st0" d="M79.1,32.1c-0.3,1-0.9,1.2-1.8,0.8C77.9,32.5,78.5,32.3,79.1,32.1z"/>
		<path class="st0" d="M172,73.7c-0.3,0.3-0.6,0.6-0.8,0.6s-0.6-0.3-0.6-0.5c0-0.3,0.3-0.6,0.5-0.6C171.4,73.2,171.7,73.5,172,73.7z
			"/>
		<path class="st0" d="M178.9,70.9c-0.1-0.1-0.1-0.2-0.1-0.3c0.1,0,0.2-0.1,0.3-0.1l0.1,0.1C179,70.8,178.9,70.8,178.9,70.9z"/>
		<path class="st0" d="M350.8,81.8c-0.4,1.1-0.9,1.3-1.8,0.9C349.5,81.9,349.5,81.9,350.8,81.8z"/>
		<path class="st0" d="M352.3,83.2c-0.1,0.2-0.3,0.4-0.4,0.4s-0.4-0.1-0.4-0.3c-0.1-0.1,0.1-0.4,0.3-0.4
			C351.9,82.9,352,83.1,352.3,83.2z"/>
		<path class="st0" d="M254.4,124.8c-0.1-0.1-0.1-0.1-0.2-0.3c0.1-0.1,0.2-0.1,0.3-0.1c0,0,0.1,0.1,0.1,0.1
			C254.5,124.6,254.4,124.7,254.4,124.8z"/>
		<path class="st0" d="M53.3,64.7c0,0.5,0,1,0,1.6c-1.1-1.1-2.1-2-3.1-3c-0.2-0.2-0.1-0.6-0.3-1.3c1.2,0.3,2.3,0.4,3,0.9
			c1.8,1.4,4,1.8,6,2.6c0.7,0.3,1.3,0.7,1.9,1.2c0.6,0.6,1.2,0.9,2,0.5c1.3-0.6,2.4-0.2,3.5,0.7c0.8,0.6,1.8,1.3,2.8,1.5
			c2.3,0.5,4.2,2.1,6.8,2c1.9-0.1,3.8,1.1,5.7,1.6c0.5,0.2,1.1,0.3,1.6,0.4c1.8,0.7,3.7,1.2,5.2,2.6c0.8,0.7,1.8,1,3.2,1.6
			c-1.2,0.1-1.9,0.5-2.8-0.1c-0.8-0.5-1.7-1-2.8-0.8c-0.4,0.1-1-0.2-1.4-0.5c-1.4-1-3-1.6-4.7-1.6c-0.8,0-1.4-0.3-2.2-0.5
			c-2.5-0.8-4.9-1.5-7.4-2.3c-0.4-0.1-0.8-0.3-1.1-0.3c-2.1,0.1-4-0.6-5.4-2.5c-0.6,0.3-1,0.6-1.4,0.9c-1.2-0.7-2.4-1.3-3.7-2.1
			c-0.1,2,2.7,2.3,2.5,4.3c-0.3,0-0.6,0.1-0.7,0c-1.1-1.1-2.6-1.8-3.3-3.3c-0.1-0.3-0.3-0.5-0.4-0.6C55.2,67.5,54,66.4,53.3,64.7z"
			/>
		<path class="st0" d="M26.4,29.4c-1.4,0.9-0.6,2.1-0.6,3.1c-1.1,0.3-1.3-0.6-1.9-1c-0.6,0.1-1.2,0.4-1.8,0.4
			c-0.6,0-1.2-0.3-1.2-0.9c0-0.3,0.4-0.7,0.8-0.8c0.6-0.3,0.9-0.6,0.8-1.4c-0.3-0.1-0.6-0.1-0.9-0.1c-1.4-0.2-2.5-1.8-2.2-3.1
			c0.3-0.9,0.9-1.3,1.7-0.8c1.1,0.6,2.6,0.6,3.3,2c0.4,0.7,1.1,0.5,1.8,0.2c0.9-0.4,1.3-0.3,1.6,0.8c0.2,0.8,0.4,1.5,0.6,2.5
			c0.7-0.3,1.1-0.5,1.6-0.7c0.1,0.2,0.3,0.3,0.4,0.4c0.6,1.9,1.3,2.4,3.3,2.1c0.6-0.1,1.1-0.2,1.6-0.3c0.5-0.1,0.9-0.3,1.4-0.4
			c0.8,1.4,1.1,2.8,1,4.2c-0.8,0.4-1.5,0.3-1.8-0.4c-0.5-1.1-1.3-1.2-2.3-1.1c-0.9,0.1-2,0.3-2.8-0.6c-0.1-0.1-0.5-0.2-0.7-0.1
			c-1.3,0.7-1.7-0.3-2.2-1c-0.3-0.5-0.6-1.1-0.9-1.6C27,30.1,26.7,29.8,26.4,29.4z M24.1,28.1c-0.1-0.1-0.3-0.2-0.3-0.3
			c-0.1,0.1-0.2,0.2-0.2,0.3c0.1,0.1,0.2,0.3,0.3,0.4C23.9,28.4,24,28.2,24.1,28.1z"/>
		<path class="st0" d="M67.7,43.4c-0.2,0.6-0.2,0.9-0.3,1.1c-0.6,0.5-2.6,0.5-3.3,0.1c-0.5-0.3-1.2-0.8-1.7-0.7
			c-1.8,0.4-2.8-0.8-4-1.7c-0.5-0.4-0.9-0.8-1.4-1.1c-1.1-1-2.2-1.3-3.2,0.6c-0.3-0.9-0.4-1.6-0.6-2.3c-1,0.6-1.8,1.6-3,0.9
			c-0.9-0.5-1.8-1.1-2.7-1.6c-0.1-0.1,0-0.9,0.3-1.1c0.4-0.3,1-0.4,1.6-0.7c0.2,0.1,0.5,0.3,0.6,0.4c0.7,1.1,1.5,1.6,2.8,0.9
			c1.1-0.6,2,0.1,2.7,0.9c0.6-0.3,1.2-0.5,2-0.8c1.1,1,2.2,2,3.4,3c0.4,0.3,0.8,0.6,1.3,0.8c0.6,0.3,1.3,0.4,1.9,0.7
			C65,43.5,66.1,44.3,67.7,43.4z"/>
		<path class="st0" d="M62.2,64.4c-3.3-0.8-6.5-1.8-9.4-3.5c-0.5-0.3-0.9-0.8-1.1-1.3c-0.5-1.1-0.9-2.3-1.3-3.5
			c-0.1-0.2-0.1-0.4,0.3-0.8c0.3,0.4,0.6,0.9,0.8,1.4c0.8,2,3.1,3.7,5.2,3.6c1.7-0.1,3.3,0.7,4.8,1.3C62.8,62,62.8,62.8,62.2,64.4z"
			/>
		<path class="st0" d="M79.5,50.7c-2.1-1.3-4.5-1.4-5.4-3.7c-0.6,0.1-0.9,0.2-1.3,0.3c-0.9,0.2-1.7-0.1-2.2-0.8
			c-0.7-0.9-1.3-2-1.6-3.2c0.6,0.4,1.1,0.8,1.6,1.1c0.4,0.3,0.8,0.6,1.1,0.6c1.8-0.1,3,0.9,4.2,1.9c0.2,0.1,0.4,0.3,0.6,0.4
			c0.3-0.2,0.5-0.4,0.9-0.6C78,48,79.3,48.7,79.5,50.7z"/>
		<path class="st0" d="M18.7,39.9c0.6,0.3,1.3,0.7,2,0.8c0.6,0.1,1.4,0.1,2.3,0.1c0.3,0.7,0.7,1.6,1.8,1.9c0.3,0.1,0.7,0.4,0.8,0.8
			c0.1,0.4,0.2,1.1-0.1,1.4c-0.2,0.3-0.9,0.2-1.3,0c-1.4-0.8-2.7-1.5-4-2.5c-0.7-0.5-1.2-1.3-1.8-2C18.4,40.3,18.5,40.1,18.7,39.9z"
			/>
		<path class="st0" d="M-0.4,32.2c0.7,0.2,1.3,0.3,1.8,0.6c1.3,0.9,2.7,1.3,4.1,1.7c1.8,0.6,2.1,1.3,1.3,3.3c-0.5-0.2-1-0.4-1.4-0.6
			c-1.5-1-3-2-4.5-3C-0.1,33.7-0.1,33.7-0.4,32.2z"/>
		<path class="st0" d="M53.6,31.8c-2,0.7-3.4-0.4-4.9-1c-0.5-0.2-1-0.5-1.5-0.6c-1.4-0.3-1.4-0.4-0.9-2.3c1.3,0.6,2.5,1.5,3.7,1.5
			c1.6,0.1,2.3,1,3.3,1.8C53.3,31.3,53.4,31.5,53.6,31.8z"/>
		<path class="st0" d="M4.6,11.1c-0.8-1-1.4-2-2.2-2.6c-0.8-0.6-1.9-0.8-3-1.3c0.4-0.6,0.8-1,1.3-1.6c0.4,0.5,0.8,0.9,1.3,1.4
			c1.1-1,1.8,0,2.5,0.6c0.7,0.5,0.9,1.1,0.4,2C4.4,9.7,4.6,10.4,4.6,11.1z"/>
		<path class="st0" d="M83.4,64.6c-0.4,0.1-0.7,0.3-0.9,0.2c-2.1-0.9-4.1-1.8-6.1-2.8c-0.3-0.1-0.4-0.9-0.3-1.1
			c0.4-0.6,0.9-0.3,1.3,0.1c1.3,1.1,2.8,1.7,4.4,2C82.6,63.1,83.1,63.6,83.4,64.6z"/>
		<path class="st0" d="M103,70.5c1.1-0.9,2-1,2.9-0.4c1,0.6,2,1.3,3,2c0.3,0.2,0.1,0.8,0.3,1.1c-0.4,0-0.8,0.1-1,0
			c-1.1-0.8-2.2-1.6-3.7-1.6C103.9,71.6,103.5,71,103,70.5z"/>
		<path class="st0" d="M87.6,64.2c1.6,0.6,3.3,1.1,5,1.8c0.5,0.3,0.8,1,1.2,1.5c-0.2,0.2-0.3,0.4-0.3,0.4c-1.8-1.1-4.1-1.1-5.6-2.7
			c-0.2-0.2-0.3-0.4-0.4-0.6C87.5,64.5,87.5,64.4,87.6,64.2z"/>
		<path class="st0" d="M107.4,87.1c1.1-1.1,1.5-1.2,2.4-0.5c0.7,0.5,1.3,0.9,2.2,0.9c0.3,0,0.5,0.5,0.8,0.8c-0.4,0.3-0.9,0.9-1,0.8
			C110.4,88.3,108.6,88.3,107.4,87.1z"/>
		<path class="st0" d="M94.5,82c0.4,0.3,0.9,0.5,1.3,0.9c0.7,0.6,1.4,0.9,2.4,0.8c1.1-0.1,1.7,0.3,1.5,0.9c-0.3,0.9-1.1,0.9-1.7,0.6
			c-1.4-0.6-3.3-0.8-3.9-2.7C94.3,82.3,94.5,82.1,94.5,82z"/>
		<path class="st0" d="M100.6,84.7c0.5,0,0.9-0.1,1.2,0c1.1,0.4,2.3,0.7,3.4,1.2c0.8,0.4,1.5,0.9,1.2,2.3c-1.1-0.5-2.2-0.8-3-1.5
			C102.6,85.9,101.1,86.3,100.6,84.7z"/>
		<path class="st0" d="M72,61.2c-0.4-0.1-0.8-0.3-1.2-0.4c-0.4-0.2-0.7-0.5-1.1-0.6c-1.4-0.6-1.6-0.8-1.1-2.5
			C70.6,58.2,71.8,59.4,72,61.2z"/>
		<path class="st0" d="M13.5,40.1c-0.9-0.6-1.8-1.1-2.6-1.5c-1.4-0.6-1.4-0.6-1.3-2.1c0.1-0.4,0.1-0.8,0.2-1.3
			c1.3,0.3,0.6,1.4,1.2,2.1C12.2,37.8,13.8,38.1,13.5,40.1z"/>
		<path class="st0" d="M119.3,83.3c-1-0.1-2-0.2-2.9-0.2c-0.8,0-1.3-0.4-1.3-1.1c-0.1-0.8,0.6-0.8,1.3-0.8c0.7,0.1,1.4,0.1,2,0.3
			C119.4,81.9,119.6,82.4,119.3,83.3z"/>
		<path class="st0" d="M88.2,53.7c-0.8-0.9-1.6-1.6-2.3-2.5c0.3-0.5,0.4-0.9,0.7-1.4c1,0.1,1.5,0.8,2,1.4C89,52,89.2,52.7,88.2,53.7
			z"/>
		<path class="st0" d="M-4.5,34.7c-1.3-0.2-2.5-0.3-3.7-0.4c-0.3-1.7,0-2,1.6-1.6C-4.8,32.9-4.6,33.1-4.5,34.7z"/>
		<path class="st0" d="M38.8,33.1c0.8,1.1,2.5,0.1,3.1,1.8c-0.6,0.1-1.1,0.1-1.6,0.3c0,0.6,0,1.3,0,1.9C39,36.2,38.7,35.7,38.8,33.1
			z"/>
		<path class="st0" d="M43.2,54.9c0.2-0.2,0.4-0.4,0.8-0.8c0.8,0.4,0.9,1,0.9,1.8c-2.3,0.5-3.7-0.6-3.6-2.8
			C42.6,53,42.2,54.5,43.2,54.9z"/>
		<path class="st0" d="M35,48.2c0.4-0.7,0.6-1.2,0.9-1.6c0.9,0.3,1.6,0.5,2.3,0.9c0.3,0.2,0.4,0.8,0.6,1.1c-0.4,0.1-0.8,0.4-1.1,0.3
			C36.9,48.8,36.1,48.5,35,48.2z"/>
		<path class="st0" d="M-6.9,25.6c2,0.3,3.6,0.9,4.5,2.8C-4.2,28-5.6,26.9-6.9,25.6z"/>
		<path class="st0" d="M39.3,2.4c0.3,0.1,0.5,0.1,0.6,0.3C40.4,3,41,3.4,41.4,3.8c0.3,0.3,0.4,0.9,0.3,1.3c-0.3,0.6-0.9,0.4-1.3,0
			c-0.5-0.5-0.9-1.1-1.3-1.8C38.9,3.2,39.1,2.8,39.3,2.4z"/>
		<path class="st0" d="M-9.6,2.1c0.7,0.4,1.3,0.7,1.7,1.1C-7.3,3.5-7.2,4-7.7,4.4c-0.3,0.3-0.9,0.4-1.3,0.3
			C-9.7,4.4-9.9,3.7-9.6,2.1z"/>
		<path class="st0" d="M45,36.6c-0.3,0.6-0.3,0.8-0.4,0.9c-0.4,0.3-0.8,0.8-1.2,0.7c-0.7-0.1-0.8-0.7-0.8-1.3c0-0.4,0-0.9,0-1.4
			C43.6,35.5,44.1,36.5,45,36.6z"/>
		<path class="st0" d="M40.8,49.5c0.6-0.4,1.2-0.8,1.8-1.1c0.5-0.3,1-0.1,1.2,0.5c0.2,0.6-0.2,1.3-0.9,1.4c-0.3,0-0.5,0-0.8-0.1
			C41.8,50.2,41.4,50,41,50C40.9,49.8,40.8,49.7,40.8,49.5z"/>
		<path class="st0" d="M17.8,15c0.4,0.8,0.7,1.4,1,2.1c-1.5,0.4-2.2,0-3-1.6C16.3,15.4,17,15.3,17.8,15z"/>
		<path class="st0" d="M105,81.7c-2,0.6-3-0.3-4.3-1.5C102.5,80,103.8,80.3,105,81.7z"/>
		<path class="st0" d="M41.8,25.5c1.1-0.6,1.8-0.2,2.3,0.4c0.8,0.7,0.4,1.4,0.1,2.4C43.4,27.4,42.7,26.5,41.8,25.5z"/>
		<path class="st0" d="M30.2,45.7c1.3-0.3,2-0.1,2.1,0.8c0.1,0.4-0.2,0.9-0.3,1.3c-0.4-0.1-0.9-0.1-1.1-0.4
			C30.6,47,30.5,46.4,30.2,45.7z"/>
		<path class="st0" d="M45.6,49.9c0.6,1.3,2.4,1.1,2.6,2.8c-0.9-0.3-1.9-0.4-2.6-0.8C44.9,51.5,44.9,50.7,45.6,49.9z"/>
		<path class="st0" d="M106.7,80.8c0.9,0.6,1.6,1.1,2.4,1.6c0.2,0.1,0.4,0.6,0.3,0.8c-0.1,0.2-0.6,0.4-0.7,0.4c-0.5-0.3-1-0.6-1.5-1
			C106.7,82.2,106.4,81.7,106.7,80.8z"/>
		<path class="st0" d="M17.8,27.4c1-0.1,1.3,0.7,1.4,1.4c0.1,0.7,0,1.4-0.1,2.2C17.9,29.9,17.8,28.7,17.8,27.4
			C17.8,27.3,17.8,27.4,17.8,27.4z"/>
		<path class="st0" d="M48.5,58c1.6,0.8,1.8,1.1,1.6,2.6C48.5,60.1,48.3,59.7,48.5,58z"/>
		<path class="st0" d="M57.8,54.6c-1-0.4-2-0.7-3-1.1c-0.2-0.1-0.3-0.5-0.6-1c1.6,0.3,2.9,0.3,3.7,1.6
			C57.9,54.3,57.9,54.4,57.8,54.6z"/>
		<path class="st0" d="M92.6,77.6c1.8-0.3,2.3,0.3,2.1,1.8C93.6,79.4,93.1,78.6,92.6,77.6z"/>
		<path class="st0" d="M83.9,50.5c-0.4-0.5-0.8-0.9-1.1-1.4c-0.1-0.3,0-0.9,0.3-1.1c0.5-0.4,1-0.1,1.1,0.5c0.1,0.6,0.1,1.3,0.1,2
			C84.1,50.4,84,50.4,83.9,50.5z"/>
		<path class="st0" d="M96.9,67.9c0.6-0.2,1.1-0.4,1.6-0.4c0.3,0,0.6,0.5,0.8,0.8c-0.3,0.2-0.6,0.6-1,0.6c-0.4,0-0.9-0.3-1.4-0.4
			C97,68.2,96.9,68,96.9,67.9z"/>
		<path class="st0" d="M116.3,89.7c-2,0.1-2,0-2.1-1.7C115.3,87.9,115.7,88.8,116.3,89.7z"/>
		<path class="st0" d="M-3.8,5.1C-4.4,5-5,4.9-5.5,4.7c-0.2-0.1-0.4-0.6-0.3-0.8C-5.7,3.7-5.2,3.5-5,3.6c0.5,0.3,0.9,0.6,1.4,0.9
			C-3.7,4.7-3.8,4.9-3.8,5.1z"/>
		<path class="st0" d="M65.7,65.6c-0.3,0.1-0.5,0.2-0.6,0.1c-0.4-0.3-0.8-0.5-1.1-0.8c0.2-0.2,0.3-0.6,0.6-0.6
			c0.6-0.2,1.1,0.1,1.2,0.8C65.8,65.2,65.7,65.3,65.7,65.6z"/>
		<path class="st0" d="M116.9,90.4c0.5-0.4,0.8-0.8,1.2-1c0.1-0.1,0.6,0.4,0.7,0.6c0.1,0.6-0.3,1-0.8,1
			C117.8,91.1,117.5,90.8,116.9,90.4z"/>
		<path class="st0" d="M51.3,15.1c-1,0.3-1.8,0.8-2.3-0.4C50.4,13.7,50.4,13.7,51.3,15.1z"/>
		<path class="st0" d="M8.3,36c0.8,1,0.8,1.8,0.4,2.8C7.8,37.9,7.8,37.9,8.3,36z"/>
		<path class="st0" d="M27,41.1c-0.6-0.6-0.9-1.1-0.4-1.8c0.1-0.1,0.8,0,0.9,0.2C28.1,40.2,27.7,40.7,27,41.1z"/>
		<path class="st0" d="M20.2,38.8c-0.5-0.6-0.9-1.3-1.6-2.1C20.6,37,20.6,37.1,20.2,38.8z"/>
		<path class="st0" d="M36.4,21.7c0.6,0.6,1,1,1.6,1.6C36.4,23.6,36.2,23.4,36.4,21.7z"/>
		<path class="st0" d="M100.2,76.9c-0.6,0.6-1.1,0.7-1.6,0.1c-0.1-0.1,0-0.6,0.1-0.8C99.4,75.8,99.9,76.1,100.2,76.9z"/>
		<path class="st0" d="M90.5,51.7c1,0.5,1.4,1.1,1.2,2.1C90.6,53.6,90.5,52.8,90.5,51.7z"/>
		<path class="st0" d="M30.4,41.8c-0.3-0.5-0.7-1-1.1-1.7C30.8,40.3,30.8,40.3,30.4,41.8z"/>
		<path class="st0" d="M13.4,15.2c-0.3-0.4-0.6-0.9-0.9-1.5C13.8,13.7,13.8,13.7,13.4,15.2z"/>
		<path class="st0" d="M104.2,78.2c0.8-0.1,1.5,0,1.7,1C104.9,79.6,104.6,78.8,104.2,78.2z"/>
		<path class="st0" d="M60.6,55.8c1.3,0.1,1.8,0.6,1.4,2.1C61.4,57,61,56.4,60.6,55.8z"/>
		<path class="st0" d="M92.4,75.6c-0.6-0.6-1.3-1.3-0.8-2.8c0.5,1.1,0.8,1.8,1.1,2.6C92.7,75.5,92.6,75.6,92.4,75.6z"/>
		<path class="st0" d="M15.9,40.6c-0.6,0.1-1.2,0.1-1.3-0.7c0-0.2,0.4-0.6,0.6-0.5C16,39.5,16.1,40,15.9,40.6z"/>
		<path class="st0" d="M65.2,73.2c1.5,0.6,1.5,0.6,1.2,2C65.9,74.3,65.6,73.7,65.2,73.2z"/>
		<path class="st0" d="M66.2,57.4c0.4,0.8,0.7,1.2,1,1.7C65.7,59,65.7,59,66.2,57.4z"/>
		<path class="st0" d="M52.7,47.3c0.6,0.6,0.9,0.9,1.4,1.5C52.7,48.8,52.7,48.8,52.7,47.3z"/>
		<path class="st0" d="M43.9,47.8c-0.1-0.8-0.1-1.2-0.1-2c0.4,0.3,0.8,0.4,0.9,0.6C45,46.9,44.9,46.9,43.9,47.8z"/>
		<path class="st0" d="M95.2,52.6c1.3,0.2,1.5,0.8,1.5,1.8C95.8,54.1,95.7,53.4,95.2,52.6z"/>
		<path class="st0" d="M80.8,68.4c0.1,0.3,0.3,0.6,0.4,1c0,0.2-0.3,0.6-0.4,0.5c-0.3-0.1-0.6-0.3-0.9-0.5c-0.1-0.1,0.2-0.4,0.3-0.7
			C80.5,68.7,80.7,68.6,80.8,68.4z"/>
		<path class="st0" d="M16.2,35.6c-0.4,0.4-0.6,0.7-0.9,0.8c-0.1,0.1-0.4-0.3-0.6-0.4c0.2-0.3,0.4-0.6,0.6-0.8
			C15.5,35.1,15.8,35.4,16.2,35.6z"/>
		<path class="st0" d="M92.8,83.3c-0.8-0.6-1.2-0.9-1.9-1.5C92.3,81.7,92.3,81.7,92.8,83.3z"/>
		<path class="st0" d="M-13.3,6c-0.3-0.4-0.7-0.8-1-1.3c0.1-0.1,0.3-0.3,0.4-0.4c0.4,0.4,0.8,0.8,1.1,1.1C-12.9,5.7-13.1,5.8-13.3,6
			z"/>
		<path class="st0" d="M6.5,11.2c0.1,0.4,0.1,0.8,0.2,1.4c-0.9-0.5-1.1-0.9-0.7-1.4C6.1,11.3,6.3,11.3,6.5,11.2z"/>
		<path class="st0" d="M0.8,30.1C0.5,30,0.2,29.9,0,29.8c-0.2-0.1-0.3-0.4-0.4-0.5c0.1-0.1,0.2-0.3,0.3-0.3
			C0.5,28.9,0.9,29.2,0.8,30.1z"/>
		<path class="st0" d="M32.3,2.7c-0.1-0.3-0.3-0.7-0.4-1.2c1,0.1,0.9,0.6,0.9,1C32.7,2.6,32.5,2.7,32.3,2.7z"/>
		<path class="st0" d="M21.9,19.4c-0.7-0.3-1.4-0.5-1.1-1.6C21.7,18.1,21.8,18.8,21.9,19.4L21.9,19.4z"/>
		<path class="st0" d="M46,59.6c-0.1-0.8-0.1-1.2-0.1-1.7c0.3,0,0.4,0,0.4,0.1C46.6,58.4,46.8,58.9,46,59.6z"/>
		<path class="st0" d="M-5.8,31.7c-0.7-0.2-1-0.3-1.6-0.4C-6.7,30.7-6.3,30.8-5.8,31.7z"/>
		<path class="st0" d="M-2.5,33.2c-0.3-0.3-0.5-0.5-0.8-0.8c0.1-0.1,0.2-0.2,0.3-0.3c0.3,0.3,0.6,0.4,0.8,0.7
			C-2.2,32.9-2.4,33-2.5,33.2z"/>
		<path class="st0" d="M5.1,32.1c-0.3-0.3-0.6-0.6-0.9-0.9c0.1-0.2,0.3-0.3,0.4-0.5c0.3,0.3,0.7,0.5,1,0.8
			C5.4,31.6,5.3,31.8,5.1,32.1z"/>
		<path class="st0" d="M2.5,30.1c0.3,0.3,0.5,0.5,0.8,0.8C3.2,30.9,3.1,31,3,31.1c-0.3-0.3-0.6-0.4-0.9-0.7
			C2.3,30.3,2.4,30.2,2.5,30.1z"/>
		<path class="st0" d="M35.1,42.1c0.1,0.3,0.1,0.6,0.1,0.9c0,0-0.3,0.1-0.5,0.1c-0.1-0.3-0.1-0.6-0.1-0.9
			C34.7,42.2,34.9,42.1,35.1,42.1z"/>
		<path class="st0" d="M112.7,81.1c-0.3-0.1-0.7-0.3-1-0.4c0.1-0.1,0.1-0.3,0.2-0.4c0.3,0.2,0.7,0.3,1,0.5
			C112.8,80.8,112.7,80.9,112.7,81.1z"/>
		<path class="st0" d="M112.3,71c0.4,0.3,0.6,0.6,1.1,1.1C112.4,72.1,112,72,112.3,71z"/>
		<path class="st0" d="M113.7,84.5c-0.4-0.6-0.7-0.9-0.9-1.3C113.3,82.8,113.5,83,113.7,84.5z"/>
		<path class="st0" d="M96.8,79.1c0.2,0.3,0.4,0.6,0.6,0.8c-0.1,0.1-0.2,0.1-0.3,0.2c-0.3-0.3-0.5-0.5-0.8-0.8
			C96.5,79.3,96.7,79.2,96.8,79.1z"/>
		<path class="st0" d="M86.3,64.2c-0.3,0.1-0.4,0.3-0.5,0.3c-0.2-0.1-0.3-0.3-0.4-0.5c0-0.1,0.3-0.3,0.3-0.3
			C86,63.8,86.1,64,86.3,64.2z"/>
		<path class="st0" d="M88.1,71.3c0.1,0.3,0.3,0.6,0.4,0.9c-0.1,0.1-0.2,0.1-0.3,0.1c-0.2-0.3-0.4-0.6-0.6-0.9
			C87.8,71.4,88,71.3,88.1,71.3z"/>
		<path class="st0" d="M85.8,70.9c0.2,0.3,0.3,0.4,0.4,0.6c-0.1,0.1-0.3,0.2-0.4,0.2c-0.1-0.1-0.3-0.2-0.3-0.4
			C85.4,71.3,85.6,71.1,85.8,70.9z"/>
		<path class="st0" d="M50.4,45.6c0.3,0.2,0.4,0.4,0.7,0.6c-0.1,0.2-0.3,0.3-0.4,0.5c-0.3-0.2-0.5-0.4-0.8-0.6
			C50.1,45.9,50.3,45.8,50.4,45.6z"/>
		<path class="st0" d="M-2.4,7.4C-2.2,7.6-2.2,7.8-2.1,8c-0.1,0.1-0.3,0.2-0.4,0.2C-2.6,8.1-2.8,8-2.8,7.8C-2.8,7.8-2.6,7.6-2.4,7.4
			z"/>
		<path class="st0" d="M27.3,44.9c-0.1-0.3-0.2-0.5-0.2-0.8c0-0.1,0.3-0.2,0.4-0.2c0.1,0.1,0.3,0.3,0.3,0.4
			C27.7,44.6,27.6,44.6,27.3,44.9z"/>
		<path class="st0" d="M74,68c-0.2-0.2-0.4-0.4-0.5-0.6c0.1-0.1,0.3-0.3,0.4-0.3c0.2,0.2,0.4,0.4,0.5,0.6C74.2,67.8,74.1,67.9,74,68
			z"/>
		<path class="st0" d="M101.7,68.7c-0.1,0.1-0.2,0.3-0.3,0.3c-0.1-0.2-0.3-0.3-0.4-0.5c0,0,0.2-0.3,0.2-0.2
			C101.4,68.5,101.5,68.6,101.7,68.7z"/>
		<path class="st0" d="M9.9,10.3c0.1,0.3,0.2,0.4,0.3,0.7c-0.1,0-0.3,0.1-0.3,0.1c-0.1-0.2-0.2-0.4-0.3-0.7
			C9.7,10.4,9.8,10.4,9.9,10.3z"/>
		<path class="st0" d="M37.9,2c0,0.3,0,0.6,0,0.9c-0.1,0-0.2,0-0.3,0c-0.1-0.3-0.1-0.6-0.2-0.9C37.6,2,37.8,2,37.9,2z"/>
		<path class="st0" d="M9.9,12.3c0.1,0.3,0.1,0.5,0.2,0.8c-0.1,0.1-0.2,0.1-0.3,0.1c-0.1-0.3-0.3-0.5-0.4-0.7
			C9.7,12.4,9.8,12.3,9.9,12.3z"/>
		<path class="st0" d="M96.4,75.9c-0.1-0.2-0.1-0.4-0.2-0.6c0-0.1,0.2-0.1,0.3-0.1c0.1,0.3,0.2,0.4,0.3,0.7
			C96.7,75.8,96.6,75.8,96.4,75.9z"/>
		<path class="st0" d="M21.9,19.4c0.4-0.1,0.7-0.1,1.1-0.2c0,0.1,0,0.3,0,0.4C22.6,19.5,22.3,19.4,21.9,19.4
			C21.9,19.4,21.9,19.4,21.9,19.4z"/>
		<path class="st0" d="M13.4,35.3c0,0.2,0.1,0.3,0,0.5c0,0.1-0.2,0.1-0.3,0.1c-0.1-0.1-0.1-0.3-0.1-0.4C13,35.4,13.2,35.4,13.4,35.3
			z"/>
		<path class="st0" d="M36.8,43.6c-0.1-0.1-0.3-0.2-0.3-0.2c0-0.1,0.1-0.3,0.2-0.4c0.1,0.1,0.3,0.1,0.3,0.2
			C36.9,43.3,36.9,43.5,36.8,43.6z"/>
		<path class="st0" d="M42.4,46.3c0.2,0.2,0.3,0.3,0.4,0.4c-0.1,0.1-0.3,0.3-0.3,0.3c-0.1-0.1-0.3-0.2-0.4-0.3
			C42.1,46.6,42.3,46.5,42.4,46.3z"/>
		<path class="st0" d="M90.2,72.7c-0.1-0.2-0.1-0.4-0.1-0.5c0-0.1,0.1-0.3,0.2-0.3c0.1,0.1,0.3,0.1,0.4,0.3
			C90.6,72.2,90.6,72.3,90.2,72.7z"/>
		<path class="st0" d="M122.6,90.7c-0.1,0.1-0.1,0.2-0.1,0.3c-0.1-0.1-0.1-0.1-0.2-0.2l0.1-0.1C122.4,90.7,122.5,90.7,122.6,90.7z"
			/>
		<path class="st0" d="M95.1,67.9C95,67.8,95,67.7,95,67.6c0.1,0,0.2-0.1,0.3-0.1l0.1,0.1C95.2,67.7,95.2,67.8,95.1,67.9z"/>
		<path class="st0" d="M370.5,36.4c1.2,0.7,3-1.3,4.1,1.1c-0.6,0.1-1.1,0.1-1.6,0.1c0,0.4,0.1,0.9,0,1.3c-0.2,1-0.7,1.1-1.8,0.2
			c-0.1,0.3-0.3,0.5-0.4,0.8c-0.3,0.8-0.8,0.9-1.5,0.4c-0.6-0.3-1.2-0.7-1.8-1c-0.8-0.4-1.2-0.9-0.9-1.8c0.1-0.4,0-0.8-0.1-1.3
			c-0.1-1,0.3-1.5,1.2-1.3C368.6,35.3,369.5,35.9,370.5,36.4z"/>
		<path class="st0" d="M351.7,59.2c-0.4-1.1-0.7-2-0.9-2.6c-1.6,0.1-3,0.2-4.5,0.3c-0.3-0.4-0.7-0.9-1.1-1.4c-0.6,0.3-1,0.5-1.6,0.8
			c-0.8-1-0.7-2-0.3-3c1.8,0.8,3.4,1.6,5,2.3c1.6-1.1,2.5-1.3,3.5-0.4C352.9,56,352.9,56.5,351.7,59.2z"/>
		<path class="st0" d="M365,56.6c-0.4,1.3-1.2,0.2-1.6,0.6c-0.8,0.6-1.4,1.2-2.2,1.8c-1.3-0.9-2-1.8-1.9-3.4
			c0.5,0.2,0.9,0.3,1.3,0.4c0.5,0.1,1.1,0.3,1.6,0.1C363.4,55.5,364.2,56.1,365,56.6z"/>
		<path class="st0" d="M354.6,50.4c-1.3-0.5-2.6-1-3.8-1.6c-0.3-0.2-0.4-0.9-0.4-1.4c1.9,0.4,3.5,1.1,4.5,2.6
			C354.8,50,354.8,50.2,354.6,50.4z"/>
		<path class="st0" d="M371.7,57.9c-0.4,0.3-0.7,0.6-1.1,0.8c-1.3,0.3-3.3-1.7-3.3-3.1c0-0.1,0.2-0.1,0.3-0.2
			c0.6,0.6,1.1,1.3,1.9,1.6C370,57.3,371,56.8,371.7,57.9z"/>
		<path class="st0" d="M351,38.3c0.3,1.1,0.5,2.1,0.8,3c-1.2,0.4-1.8,0.2-2.1-0.7C349.3,39.6,349.7,38.9,351,38.3z"/>
		<path class="st0" d="M366.6,50.8c0.9,0.1,1.7,0.1,2.5,0.3c0.4,0.1,0.8,0.6,1,0.9c0.3,0.5-0.1,0.9-0.6,0.8
			C368.3,52.6,367.1,52.2,366.6,50.8z"/>
		<path class="st0" d="M352.3,38.8c0.6-0.9,1.3-0.6,1.7-0.2c0.4,0.4,0.7,1,0.9,1.5c0.1,0.1-0.2,0.5-0.4,0.6c-0.3,0.1-0.8,0.1-1-0.2
			C353.1,40.1,352.7,39.4,352.3,38.8z"/>
		<path class="st0" d="M373,57.8c1-0.7,1.8-0.7,2.4-0.3c0.3,0.2,0.4,0.9,0.4,1.3c-0.2,0.6-0.8,0.6-1.2,0.3
			C374.1,58.8,373.7,58.4,373,57.8z"/>
		<path class="st0" d="M356.5,57.9c-1.8-0.9-1.8-1-1.5-2.4C356.2,55.9,356.2,57,356.5,57.9z"/>
		<path class="st0" d="M357.1,40c-0.4-0.6-0.8-1-0.8-1.4c0-0.3,0.4-0.8,0.8-0.8c0.6-0.1,0.8,0.5,0.8,1
			C357.7,39.1,357.4,39.4,357.1,40z"/>
		<path class="st0" d="M341.5,55.3c-0.4-0.5-0.9-0.9-1.3-1.4c0.1-0.1,0.1-0.3,0.2-0.4c0.6,0,1.1,0,1.8,0c-0.1,0.6-0.1,1-0.1,1.4
			C341.9,55.1,341.7,55.2,341.5,55.3z"/>
		<path class="st0" d="M332.9,72.7c0.5-0.1,1-0.3,1.4-0.3c0.3,0,0.6,0.3,0.8,0.4c-0.2,0.3-0.4,0.7-0.6,0.8
			C333.9,73.7,333.2,73.5,332.9,72.7z"/>
		<path class="st0" d="M364,52.5c-0.7-0.5-0.9-1-0.5-1.6c0.1-0.1,0.7-0.2,0.8-0.1C364.8,51.3,364.7,51.9,364,52.5z"/>
		<path class="st0" d="M298.5,67c0.7,0.3,1.3,0.6,2,0.9C299.1,69,299,68.9,298.5,67z"/>
		<path class="st0" d="M365.9,27.2c0.4,1.2,0.1,1.8-0.8,2.5C364.7,28.6,365.2,28,365.9,27.2z"/>
		<path class="st0" d="M338.1,73.2c-0.7,0.1-1.3,0-1.1-1.2c0.4,0.3,0.9,0.5,1.3,0.8C338.3,72.8,338.2,73,338.1,73.2z"/>
		<path class="st0" d="M323.2,71.6c-0.1-0.4-0.1-0.9-0.2-1.7c0.9,0.6,1.1,1.1,0.7,1.6C323.6,71.6,323.4,71.6,323.2,71.6z"/>
		<path class="st0" d="M348.6,63.7c-0.3,0.3-0.6,0.5-0.6,0.4c-0.3-0.2-0.5-0.4-0.8-0.6c0.1-0.1,0.4-0.4,0.4-0.4
			C347.9,63.2,348.2,63.5,348.6,63.7z"/>
		<path class="st0" d="M303.4,64.3c0-0.5,0-1,0-1.8C304.1,63.3,304,63.8,303.4,64.3z"/>
		<path class="st0" d="M363.3,46.1c-0.3-0.3-0.5-0.4-0.6-0.6c-0.1-0.1,0.2-0.3,0.3-0.5c0.3,0.3,0.4,0.4,0.6,0.7
			C363.7,45.7,363.5,45.9,363.3,46.1z"/>
		<path class="st0" d="M338,54.2c0.1,0.4,0.1,0.8,0.1,1.1c-0.2,0-0.6,0.1-0.6,0c-0.1-0.4-0.1-0.7-0.1-1.1
			C337.6,54.2,337.8,54.2,338,54.2z"/>
		<path class="st0" d="M273.8,97c0-0.4-0.1-0.7-0.1-1.1l0.3-0.1c0.1,0.3,0.3,0.7,0.4,1C274.2,96.9,273.9,96.9,273.8,97z"/>
		<path class="st0" d="M313.9,58.5c0.2,0.4,0.3,0.7,0.4,0.9c0,0.1-0.4,0.3-0.5,0.3c-0.2-0.1-0.4-0.3-0.4-0.6
			C313.4,59,313.6,58.8,313.9,58.5z"/>
		<path class="st0" d="M368.7,26.6c0.3-0.3,0.6-0.7,1.2-1.3c0.1,1.1-0.3,1.4-0.8,1.6C368.9,26.9,368.8,26.7,368.7,26.6z"/>
		<path class="st0" d="M290.4,69.3c-0.2-0.3-0.4-0.6-0.4-0.8c0-0.1,0.2-0.3,0.3-0.3c0.2,0.2,0.4,0.4,0.5,0.6
			C290.8,68.8,290.6,69,290.4,69.3z"/>
		<path class="st0" d="M361.6,38.7c-0.2-0.3-0.4-0.6-0.7-1C361.9,37.8,361.9,37.8,361.6,38.7z"/>
		<path class="st0" d="M341.4,63.7c0.1-0.4,0.1-0.8,0.2-1.1c0.1,0,0.3,0,0.4,0.1c0,0.4-0.1,0.8-0.1,1.2
			C341.7,63.7,341.6,63.7,341.4,63.7z"/>
		<path class="st0" d="M327.7,72.1c-0.3,0.3-0.4,0.4-0.5,0.4c-0.2-0.1-0.4-0.2-0.5-0.3c0.1-0.1,0.3-0.3,0.3-0.3
			C327.2,71.8,327.4,72,327.7,72.1z"/>
		<path class="st0" d="M358,56.3c0.1,0.4,0.3,0.8,0.4,1.1c-0.1,0.1-0.3,0.1-0.4,0.1c-0.2-0.4-0.3-0.8-0.5-1.2
			C357.7,56.3,357.9,56.3,358,56.3z"/>
		<path class="st0" d="M285.3,66.9c0,0.3,0.1,0.6,0.1,1.3c-0.4-0.5-0.5-0.7-0.6-0.8c0-0.1,0.1-0.3,0.1-0.4
			C285.1,66.8,285.2,66.8,285.3,66.9z"/>
		<path class="st0" d="M344.3,63.5c-0.1,0.2-0.3,0.4-0.4,0.4s-0.3-0.1-0.4-0.3c-0.1-0.1,0.1-0.4,0.3-0.4
			C343.9,63.3,344.1,63.4,344.3,63.5z"/>
		<path class="st0" d="M298.6,61.9c-0.1-0.3-0.1-0.5-0.2-0.8c0.1-0.1,0.2-0.1,0.3-0.1c0.1,0.3,0.2,0.5,0.3,0.8
			C299,61.9,298.8,61.9,298.6,61.9z"/>
		<path class="st0" d="M375.2,51.8c-0.1,0.2-0.3,0.3-0.3,0.4c-0.1-0.1-0.3-0.2-0.4-0.3c0-0.1,0.1-0.3,0.3-0.4
			C374.9,51.6,375.1,51.7,375.2,51.8z"/>
		<path class="st0" d="M364.7,34.5c-0.1-0.1-0.3-0.2-0.3-0.3c0-0.1,0.1-0.3,0.2-0.4c0.1,0.1,0.3,0.1,0.3,0.2
			C364.9,34.2,364.8,34.3,364.7,34.5z"/>
		<path class="st0" d="M281.9,83.3c-0.1,0.1-0.1,0.3-0.2,0.3c-0.1-0.1-0.3-0.2-0.3-0.3c0-0.1,0.1-0.2,0.1-0.3
			C281.7,83.2,281.8,83.2,281.9,83.3z"/>
		<path class="st0" d="M280.5,82.8c-0.2,0.1-0.3,0.3-0.4,0.3s-0.3-0.2-0.4-0.3c0.1-0.1,0.2-0.3,0.3-0.3S280.2,82.7,280.5,82.8z"/>
		<path class="st0" d="M276.5,90.1c0-0.3-0.1-0.5-0.1-0.8c0.1,0,0.2,0,0.3-0.1c0,0.3,0.1,0.5,0.1,0.8
			C276.7,90.1,276.6,90.1,276.5,90.1z"/>
		<path class="st0" d="M330.1,72.5c-0.1-0.1-0.1-0.3-0.1-0.4c0-0.1,0.2-0.1,0.3-0.2c0.1,0.1,0.1,0.3,0.2,0.4
			C330.5,72.4,330.3,72.5,330.1,72.5z"/>
		<path class="st0" d="M288.1,66.4c-0.2,0.2-0.3,0.3-0.4,0.4c-0.1,0-0.3-0.1-0.3-0.1c0-0.1,0.1-0.3,0.1-0.4
			C287.7,66.2,287.9,66.3,288.1,66.4z"/>
		<path class="st0" d="M282.3,81.5c-0.1-0.1-0.2-0.1-0.3-0.1c0.1-0.1,0.1-0.3,0.2-0.4c0.1,0.1,0.2,0.1,0.3,0.3
			C282.4,81.3,282.3,81.4,282.3,81.5z"/>
		<path class="st0" d="M325,71.5c0.1-0.1,0.1-0.1,0.2-0.2c0.1,0.1,0.1,0.2,0.1,0.3c0,0-0.1,0.1-0.1,0.1
			C325.2,71.6,325.2,71.6,325,71.5z"/>
		<path class="st0" d="M-1.7,19.4c0.3,0.4,0.5,0.9,0.7,1.4c0.1,0.1-0.2,0.5-0.3,0.6c-0.2,0.1-0.6-0.1-0.6-0.2
			c-0.2-0.5-0.3-1-0.4-1.5C-2.1,19.5-1.9,19.5-1.7,19.4z"/>
		<path class="st0" d="M24.1,28.1c-0.1,0.1-0.2,0.3-0.3,0.3c-0.1-0.1-0.3-0.2-0.3-0.4c0-0.1,0.1-0.2,0.2-0.3
			C23.8,27.9,24,28,24.1,28.1z"/>
	</g>
</g>
</svg>
