<?xml version="1.0" encoding="utf-8"?>
<!-- Generator: Adobe Illustrator 19.1.0, SVG Export Plug-In . SVG Version: 6.00 Build 0)  -->
<svg version="1.1" id="Layer_1" xmlns="http://www.w3.org/2000/svg" xmlns:xlink="http://www.w3.org/1999/xlink" x="0px" y="0px"
	 viewBox="-114 -98.7 612 792" style="enable-background:new -114 -98.7 612 792;" xml:space="preserve">
<style type="text/css">
	.st0{fill:#FFFFFF;}
</style>
<g>
	<path class="st0" d="M-0.8,212.1c6.2,2.4,13.1,3,19.7,1.8c2.5-0.4,6-0.5,6.5,2c-7.2,3.7-16,3.1-23.8,0.9s-15.2-5.8-23-8
		c-0.2-0.7-0.3-1.4-0.5-2.1C-14.8,204.7-7.8,209.5-0.8,212.1z"/>
	<path class="st0" d="M223.9,68c-2.5-3.1-2.5-8.1,0.2-11.2c3.2-3.7,8.9-4.1,13.4-2.2s7.9,5.5,11.1,9.2c1.1,1.3,2.2,2.6,2.6,4.2
		s-0.2,3.6-1.8,4.3c-3.1-5.2-7.3-9.7-12.3-13.1c-1.7-1.2-3.6-2.2-5.6-1.9C227.1,58.1,226.9,64.5,223.9,68z"/>
	<path class="st0" d="M129.1,383.8c10.9-15.3,19.5-32.4,25.3-50.3c2.1-6.5,3.8-13.1,4.9-19.8c1.5-9.4,1.9-19.2,6.3-27.6
		c0.5-1.1,1.2-2.1,2.3-2.6s2.6,0,2.9,1.2c-3.7,6.9-4.5,15-5.8,22.7c-4.6,28.5-16.1,55.8-33.1,79.1C131,385.5,130,384.7,129.1,383.8z
		"/>
	<path class="st0" d="M344.2,281.8c8.9,4.9,19.2,7.2,29.3,6.5c12.6-0.8,24.6-5.9,37.2-6.6c3.3-0.2,7.8,1.1,7.6,4.4
		c-11.8-0.8-23.5,2.6-35.2,4.7s-24.3,2.8-34.8-2.7C345.9,286.8,343.4,284.4,344.2,281.8z"/>
	<path class="st0" d="M34.2,325.2c15-10,25.2-25.5,35.1-40.6c4.8-7.3,9.9-14.9,17.3-19.6c1.1,2-0.5,4.4-2,6.2
		c-17.5,20.9-29.8,47.7-53.8,60.6C29.1,329.6,31.8,326.8,34.2,325.2z"/>
	<path class="st0" d="M250.9,322.3c4.5,12.8,8.9,25.5,13.4,38.3c2.3,6.5,4.6,13,6.1,19.8c0.4,1.6,0.6,3.4-0.3,4.7s-3.5,1.2-3.7-0.4
		c-3.6-28.6-22.1-54.1-23.5-82.9c-0.2-3.2-0.1-6.6,1.5-9.4s5.2-4.7,8.2-3.5c-4.4,4-6,10.3-5.8,16.3C247,311,249,316.7,250.9,322.3z"
		/>
	<path class="st0" d="M133.5,86.7c1-0.5,2.1-0.9,3.2-0.5c1.6,0.6,1.8,2.8,1.4,4.5c-1.1,5.8-4.6,10.7-7.7,15.7
		c-9.9,15.6-16.3,33.4-18.8,51.7c-0.7,5.4-1,11.3,2.2,15.7c0.8,1.1-0.8,2.7-2.1,2.4c-1.3-0.3-2.1-1.6-2.7-2.9
		c-2.6-6.1-1.9-13-0.8-19.5c3.9-22.1,13.2-43.3,26.7-61.2c-1.1-2.2-4.5-0.9-6.3,0.6c-8.9,7.2-16.2,16.4-21.2,26.7
		c-1.7-0.9-1.3-3.5-0.6-5.3C111.9,102.4,121.6,92.2,133.5,86.7z"/>
	<path class="st0" d="M34.8,208.9c8.9-14.5-1.2-33.5,2.5-50.1c3.4-14.8,17.4-25.4,20.7-40.3c3.4-15.8,18.1-26.2,31.6-35
		c10.3-6.7,20.6-13.5,31-20.2c5.7-3.7,12.5-7.6,18.9-5.5c-3.1,10.7-8.7,20.6-16.3,28.7c2-9.1,6.3-17.8,12.3-24.9
		c-9.6,0.4-16.3,9.6-20.2,18.3c-3.9,8.8-6.9,18.7-14.7,24.3c6.8,5.1,2,15.8-2.2,23.2c-7.9,13.9-12.1,29.9-11.9,45.8
		c-3.9,0.1-4.7-5.6-4-9.4c3.5-18.3,9.8-36.2,18.5-52.7c-10.4,9.4-19.9,19.8-28.4,31c14.4-22.8,28.8-45.6,43.3-68.3
		c-28.5,12.7-42.7,44.5-52,74.3c-0.9-17.2,6.1-34.6,18.6-46.4c-11.6,4.8-18,17.3-22,29.2c-5.9,17.6-8.7,36.3-8.4,54.9
		c2.6-14.6,8.5-32.5,23.3-33.9c-10.2,26.7-12.1,56.5-5.4,84.3c-2-5.5-3.9-11.7-1.6-17c2.3-5.4,11.2-7.5,13.8-2.2
		c-3.6-18,2.3-37.6,15.2-50.6c-2.1,27.8-3.3,58.4,13.7,80.5c-1.3-15.8-2.7-31.8,0.1-47.4s10-31.1,22.8-40.4
		c-0.4,9.6-0.8,19.2-1.2,28.9c-0.6,14.7-0.9,30.5,7,43c3.4-22.8,4.6-45.9,3.5-68.9c-1.1-23.2,2.2-46.5,9.7-68.5
		c-17.8,13.9-28.6,36.5-28.1,59.1c-6.3-18.5,4.2-38.3,16.1-53.9c11.8-15.6,26-31.1,28.2-50.5c-10.1,9.2-20.1,18.4-30.2,27.6
		c6.6-15.5,20.6-27.7,36.9-31.9C169,58.2,163.3,72.9,159,88.1c7.2-8,14.3-15.9,21.5-23.9c2.4-2.7,5.2-5.6,8.8-6
		c3.6-0.4,7.6,3.4,5.9,6.6c-10.4,19.1-17.3,39.9-24.1,60.6c-5.5,16.7-10.7,36.1-1.1,50.9c-1.9-1-3.8-2-5.7-3
		c-3.7,20.2-0.1,41.7,10.2,59.5c1.5-16.2,3.7-34,15.6-45c2.9,20.2,5.8,40.4,8.8,60.5c0.6,3.9,3.4,9.2,7,7.4c-1.3,2.9-2.6,5.8-4,8.7
		c12.5-5.5,26.8-13.1,28.7-26.6c1.8-12.6,0.5-25.7-3.9-37.6c-6.5,18.1-14.2,35.8-23.2,52.9c3.9-19.1,13.2-36.6,18.4-55.4
		s5.5-40.7-6.8-55.8c-8.9,26.7-13.5,54.9-13.4,83.1c-6-12.5-2.5-27.2-1-41s-0.6-30.4-12.8-37c-3.5,16.2-7.1,32.4-10.6,48.5
		c-3.8-19.1,1.3-39.7,13.6-54.8c3.4-13.7,2.5-28.4-2.5-41.5c-4,16.6-8,33.2-12,49.9c-1-19.3,3-38.9,11.5-56.3
		c17.6,19.3,0.2,55.2,18.2,74.1c-3-11.1,2.1-24,12-29.9c3-20.7,0.1-42.2-8.5-61.3c-2.6,12.9-5.3,25.9-7.9,38.8
		c-0.7-9.4-0.7-19,0.1-28.4c0.3-3.6,0.9-7.5,3.2-10.3c2.3-2.8,7.1-3.9,9.6-1.3c0.7-6.2-1.5-12.7-5.9-17.2c-2.1,3.8-5.3,6.9-9.2,8.9
		c-3-4.5,1.6-11.1,6.9-11.3c5.4-0.2,10,4.2,11.9,9.2s1.7,10.6,1.5,15.9c-0.6,25.4,1.5,50.8,6.2,75.7c5.4-25.5,7-51.9,4.7-77.9
		c-0.4-4.9,6.2-8,10.8-6.1c4.6,1.9,7.3,6.5,9.7,10.8c0.9-6.9,2.9-13.7,5.9-20c13,1.8,18.1,17.4,21.6,30c5.1,18.5,12.6,36.4,22.3,53
		c14.3-19.9,11.1-50.3-6.9-66.9c-1.2,12.9-2.2,25.7-3.1,38.6c-1.8-10.9-2.9-21.8-3.2-32.8c-0.1-2.8,0.1-6.1,2.3-7.9
		c3.8-3.1,9.2,0.9,12.2,4.8c15.6,20.5,24.6,45.2,33.3,69.5c5.4,15,10.8,30.3,11.5,46.2c0.7,18.8-5.2,37.7-1.7,56.2
		c38.9-6.1,79.7,0,115.2,17.2c0.8,7.6-4.4,14.4-9.7,19.8c-30.7,31.5-75.9,48.3-119.7,44.5c-7.1-0.6-12.9,6.2-14.3,13.2
		s0.1,14.1,0.5,21.2c1.2,20.1-7,39.4-15,57.9c-15.6-11.2-33.6-19-52.5-22.7c-23.5-4.7-41.8-27.9-40.8-51.9
		c-29.6,29.1-59.3,58.1-88.9,87.2c-9.4-14.1-19-29.1-20.4-46c-2.6-31.3,23.7-62.1,13.3-91.8c-11.3,23.1-31.1,41.9-54.7,52.1
		C39.5,362,17.6,365.3,3,379.8c2-40.6,5.3-84.4,31.8-115.2c-16.9-18-44.8-18.3-67.5-28.1c-19.7-8.5-35.9-25-44-44.9
		c19.5-0.1,38.2-6.9,57.3-10.6s40.4-4.1,56.4,7c-35.3-7.3-72.7-4-106.3,9.3c7,19.6,27,31.3,46.6,38.2S18,246.6,35,258.6
		c3.2,2.2,6.4,6.7,3.6,9.5C12.3,294.3,9.7,335.3,8.7,372.4c15.3-17.3,42.8-15.8,62.4-28c19.4-12.1,28.5-36.2,47.3-49.2
		c2.6,18.2,0.9,36.9-5,54.3c-3.9,11.4-9.6,22.5-10.4,34.6c-1.1,17.2,8,33.1,16.8,47.9c34-29.4,65.7-61.4,94.9-95.6
		C210,356,215,379,231,391.3c20,15.4,51.5,11.4,68.6,30c12.1-21.1,16.3-46.6,11.6-70.4c-1.5-7.8,5-15.2,12.4-17.9
		c7.4-2.7,15.6-2,23.5-2c42.6,0.2,84.8-21.2,109.8-55.7c-22.4-15.1-50.6-21.3-77.2-16.9c-9.9-2.6-20.4-3.1-30.5-1.4
		c-2.8,0.5-4.7,2.9-6.3,5.2c-7,9.7-14,19.5-21,29.2c-30.5,3.3-61.7-0.6-90.5-11.1c-5.3-1.9-11.2-0.5-16.8,0
		c-19.3,1.6-40.2-8.8-57.3,0.2c14.2-5.7,21.8-23.8,15.9-37.9c-4.6,6.2-9.2,12.5-13.9,18.7c-1.7,2.2-3.4,4.7-3.1,7.5s3.7,5.2,5.8,3.4
		c-10.3,5.7-24,4.6-33.2-2.7c-11.8,2.2-24.3,0.9-35.4-3.8c2.2-1.4,4.4-2.8,6.7-4.3c1.1-10.8-5.8-21.8-15.9-25.7
		c1.4-7.8-4.8-16.2-12.7-17.1c1.9,14.5,9.1,28.1,19.9,37.9c-7.9-2.2-15.8-4.5-23.7-6.7c7.8,4.6,15.7,9.1,23.5,13.7
		c-21.3-5.6-40.5-18.9-53.2-36.9C34.7,221.4,31.5,214.4,34.8,208.9 M274.1,129.7c-2.7-6.4-7-12.6-13.4-15.3
		c-3.6,13.7-3.9,28.2-0.8,42c3.2,14.4,2.9,29.7-1,43.9c3.1-1.9,7.4,0,9.4,3.1s2.2,6.9,2.4,10.6c0.5,14.7-0.1,29.4-1.8,44
		c-9.1-16.8,5.5-40.8-6.7-55.5c-3.9,9.8-7.8,19.7-11.6,29.5c-1.2,3.1-4.5,6.9-7.1,4.9c13-24.6,17.7-53.6,13.2-81.1
		c-0.6-3.4-3.1-7.8-6.2-6.3c-1.3,20-5.9,39.8-13.5,58.4c-2.3-8.4,1.7-17.1,4.4-25.5c6.9-21.4,4.8-45.6-5.8-65.6
		c-1.9,13.4-3.7,26.8-5.6,40.3c-1.5,10.9-3,21.9-1.7,32.8c1.8,14.7,8.9,29.1,6.7,43.8c-1.8,12-9.5,25.5-2.1,35.2
		c9.3-3.5,16.6-11.8,18.9-21.4c0.6-2.6,4.3-3.4,6.6-2.1c2.3,1.3,3.5,4,4.4,6.5c2.6,8.1,2.8,16.9,0.6,25.1c4.4-4.2,9.6-7.5,15.3-9.7
		c8.5-3.3,13.8-12.3,15-21.3s-0.9-18.2-3.5-26.9c-4.7,11.8-9.4,23.7-14.1,35.5c-2.9-2.4-1.5-7,0-10.4c7.3-17,11.3-35.4,11.7-53.9
		c0.2-10.1-1.6-22-10.5-26.9c-2.8,11.1-5.7,22.2-8.5,33.2c-1.4,1.3-2.7-1.7-2.3-3.5c1.6-7.9,3.1-15.7,4.7-23.6
		c0.6-3.1,1.4-6.5,3.8-8.6c2.5-2.1,7.1-1.5,7.9,1.6c1.3-4,0.9-8.5-0.9-12.3c-1.2,1.6-2.4,3.2-3.5,4.9
		C278.8,146.4,277.4,137.7,274.1,129.7 M322,171.7c2-7.2,0-15.3-5-20.8c-8.6,10.3-11.3,25.2-6.9,37.8c-1.2,1.4-3.2-0.8-3.7-2.6
		c-5.4-20.1-10.9-40.2-16.3-60.3c-7,10.1-5.4,23.7-2.7,35.7c2.7,12,6.1,24.7,1.9,36.3c3.2-1.8,3.7-6,4.8-9.5c1.1-3.5,5.1-7,8-4.8
		c1.3,1,1.7,2.8,1.9,4.4c3.6,21.9,2.5,44.6-3.3,66c0.6-12.8,1.1-25.7,1.7-38.5c0.4-9.4,0.8-19-2.6-27.8c-6.2,5.8-7.5,15.2-6.6,23.6
		s3.5,16.6,3.8,25.1c0.4,12.7-4.6,24.8-9.5,36.4c-1.7,4,4.8,6.9,8.8,5.2c4-1.8,7-5.7,11.3-6.5c3.8-0.7,7.8,1.5,9.3,5.1
		s0.2,8-2.9,10.2c3.7,2.3,8.2-1.4,11-4.7c8.7-10.2,18-22.2,16.5-35.6c-10.2,6.7-19,15.5-25.8,25.6c2.6-9.2,5.2-18.4,7.9-27.6
		c0.5-1.6,0.9-3.4,0-4.9c-2.1-3.6-7.6,0.2-9.4,4c-5,10.9-7,24.9-17.8,30.2c5.1-10.8,10.1-21.6,15.2-32.4c1.2-2.6,2.7-5.5,5.3-6.8
		c4.7-2.3,5.8-8.4,6.3-13.6c1.2-12.6,2.3-25.9-2.8-37.5c-2.4,7-5.3,13.7-8.9,20.1C307.2,192.9,318.9,182.9,322,171.7 M174.3,108.9
		c-1.2-1.1-3.2-0.1-4.4,1c-9.2,8.3-13.1,20.8-16.7,32.7c-0.9,3.1-1.9,6.2-2.8,9.4c-2.6-1.6-2.1-5.4-1.3-8.3
		c3.6-13.3,7.7-27.4,18.3-36.2c3-2.5,6.6-4.7,7.9-8.4c4.1-12.2,9.6-23.9,16.3-34.9c-0.5-1.4-2.5-1.9-3.9-1.4
		c-1.5,0.5-2.5,1.7-3.5,2.9c-7.6,8.8-15.2,17.6-22.7,26.3c-4,4.6-5.9,10.6-7.6,16.5c-6,19.8-12,41.3-4.8,60.7
		c1.8-6.1,4.9-11.8,9.2-16.4c3-3.3,3.8-8.1,4.8-12.5C165.2,129.3,169,118.7,174.3,108.9 M162.7,221.5c-4.1-21.1-4.8-42.9-2.1-64.2
		c-1.5-0.8-3,1-3.7,2.6c-7.3,15.5-11.4,32.6-11.8,49.8c-0.1,4.5,0,9.2,1.9,13.3c5.2,11.5,7.9,24.2,7.6,36.9c0.4,1.1,1.7,1.8,2.8,1.5
		c2-8.5,7-16.3,13.8-21.7c1.9-1.5,4.1-3.4,3.6-5.7c-3.1,1.2-6.8-0.5-8.8-3.1S163.3,224.7,162.7,221.5 M130.5,165.8
		c-11.7,14.9-18,34.1-17.3,53c0.1,3.9,0.7,8.1,3.7,10.6c8.3,7.1,5.2,21.5,12.3,29.8c1.7-5.3,3.5-10.6,5.2-15.8
		c1.1-3.3,2.2-7,0.9-10.3c-7.1-17.5-9-37.1-5.4-55.7C130.6,173.7,131.6,169.7,130.5,165.8 M326,234.3c1.7,6.5,1.2,13.6-1.5,19.7
		c7.1-3.8,15.1-9.3,14.8-17.3c-0.4-10.4,3.9-20.4,4.9-30.7c1.2-11.9-1.9-23.8-5-35.3c-0.2-0.8-1.4-0.1-1.8,0.6
		c-2.4,4.6-4.9,9.2-7.3,13.8c-1.1,2.1-2.2,4.1-2.6,6.4c-0.5,2.4-0.2,4.9,0,7.3c0.7,8.4,0.4,17-1,25.3
		C325.9,227.6,325.2,231,326,234.3 M274.8,122.9c2.5,4.7,4.6,9.7,6.2,14.9c2.6-6,5.2-13.1,2.3-18.9c-4.4-8.8-5.5-18.9-8.2-28.5
		c-2.7-9.5-7.6-19.3-16.6-23.5c-3.7,12-4.2,25-1.5,37.3c0.3,1.3,0.6,2.6,1.4,3.7c1.5,2,4.1,2.6,6.3,3.6
		C269.3,113.8,272.4,118.4,274.8,122.9 M235.9,100.4c0.4,3.5,0.7,7.2-0.8,10.5c3.6,1.1,5.1,5.2,6.2,8.7c2.1,7.2,4.3,14.4,6.4,21.7
		c0.3,0.9,0.6,1.9,1.4,2.4c2.2,1.5,4.6-1.6,5.1-4.2c1.1-5.3,1-10.7,0.8-16.1c-0.6-17.9-2.8-37.6-16.2-49.5
		c-4.8,3.3-4.7,10.2-4.1,15.9C235.2,93.4,235.6,96.9,235.9,100.4 M304.7,148.1c-3.1,5.1-2.8,12,0.5,17c1.8-2.3,3.2-4.9,4-7.7
		c1.1-3.9,1.6-8.6,5.2-10.4c2.8-1.4,6.3,0,8.3,2.3c2,2.4,2.7,5.5,3.1,8.6c0.7,5.4,0.5,10.9-0.6,16.2c-0.8,3.8-1.9,7.9-0.1,11.3
		c4-6.4,8.3-13.5,7.1-21c-2.6-17.5-5.4-35.6-14.6-50.8c-0.8-1.4-2.1-2.9-3.7-2.5c0.8,7.3,1.6,14.7,2.3,22c-1.6-1.2-3.2-2.2-5-3.1
		C310.3,136.4,308,142.5,304.7,148.1 M185.9,260.7c2.7-2,7-1.9,8.3-4.9c0.5-1.1,0.4-2.4,0.2-3.7c-2-17.8-4-35.6-5.9-53.4
		c-0.2-1.7-1-4-2.7-3.8c-3.2,13.6-5.5,27.4-6.9,41.3c-0.2,2.4-0.5,4.8-0.1,7.2c0.4,2.4,1.3,4.7,1.8,7.1c1.2,5.6-0.2,11.7-3.6,16.2
		c1.7,1,3.9-0.1,5.2-1.5C183.4,263.7,184.3,261.9,185.9,260.7 M55.9,224.9c-0.4-6.1-1.6-12.1-3.3-18c-0.4-0.7-1.5-1-2.2-0.6
		c0,1.9-2.3,3.5-4.1,2.7c3.8-8.9,4.4-19.1,1.6-28.4c-2.3-7.6-1.1-15.9,1.5-23.5c2.5-7.6,6.3-14.6,9.4-22c-0.8-1.7-3.4-0.4-4.5,1.1
		c-13,17-13.1,40.3-12.6,61.7c0.1,4.2,0.2,8.5,1.9,12.3c1.1,2.5,2.9,4.7,4.8,6.8C50.7,219.7,53.3,222.4,55.9,224.9 M107.5,262.9
		c3.7-4.5,0.3-11.1-2.6-16.2c-11.6-20.6-13.1-45.2-12.3-68.8c-8.5,16.2-11.6,36.7-2.3,52.4c4,6.6,9.9,12.1,12.2,19.4
		C104,254.3,104.1,259.6,107.5,262.9 M137.9,272.1c4.8,2.1,10.5-1.9,12.3-6.8s0.8-10.4-0.2-15.5s-2.7-11.1-7.7-12.6
		c-3.7,4.5-5.6,10.2-7.5,15.7c-1.1,3.4-2.3,6.9-2.1,10.5C132.8,266.9,134.6,270.7,137.9,272.1 M251,280.8c1.1,0.2,2.3,0.4,3.4,0.2
		c2.6-0.6,4-3.3,4.8-5.9c2.4-7.7,2.3-16.2-0.3-23.8c-0.2-0.5-0.4-1.1-0.8-1.4c-1.3-1-3,0.6-3.9,2c-3.9,6.9-6.7,15.4-13.9,18.5
		c-3.8,1.7-8.9,2.1-10.3,6C237,277.9,244,279.4,251,280.8 M58.6,213.9c1.1,3.3,0.6,6.9,1.1,10.4s2.1,7.2,5.5,8.2
		c-5.3-25.1-2.9-51.7,6.7-75.5c-1.3-1.5-3.6,0.1-4.8,1.8C55.9,174.5,52.7,195.5,58.6,213.9 M194,273.3c8.1,4.8,18.4,5.6,27.1,2.1
		c3.2-1.3,6.5-3.8,6.4-7.2c-0.1-3.7-4.3-6.6-3.6-10.2c-1.9-1.5-4.9-1-6.9,0.3c-2,1.4-3.5,3.4-5.2,5.2
		C207.1,268.4,200.4,270.9,194,273.3 M79.7,250.1c0.3-2.7-1.5-5.3-3.8-6.9s-4.9-2.4-7.4-3.6c-4.4-2.1-8.1-5.2-11.7-8.5
		c-7.1-6.6-13.6-14-19.1-22c-1.9,7.6,3.3,15,8.3,21.1c3.4,4.2,7,8.6,11.8,11.1C64.8,245.1,73.9,244.8,79.7,250.1 M118.3,236.8
		c-1-0.8-2.4-0.7-3.4,0c2.8,4.1-1.8,9.1-2.8,13.9c-1,4.7,1.4,10-0.9,14.3c2.5,1.3,5,2.6,7.8,2.6s5.8-1.8,6.1-4.5
		c0.2-1.8-0.6-3.5-1.4-5.1C120.7,251.3,118.8,244.1,118.3,236.8 M261.9,285.6c5.3,4.1,13,1.2,19-1.8c0.5-0.3,1.1-0.5,1.6-0.8
		c2.7-4.2,2.4-10.2-0.8-14C274.2,273.3,267.4,278.9,261.9,285.6 M308.9,275.4c-1.2-0.2-2.4,0.4-3.5,0.9c-5.5,2.7-11.1,5.3-16.6,8
		c-1.1,0.5-2.1,1-2.9,1.9c6.7,4.4,16.1,4.1,22.5-0.8c1.7-1.3,3.3-3,3.6-5.2S311.1,275.7,308.9,275.4 M191.8,269.8
		c1.6-0.9,3.2-2,4-3.6c0.7-1.7,0.3-4-1.4-4.8c-6.3,2.4-12.1,6.5-16.6,11.6C182.7,273.2,187.6,272.1,191.8,269.8 M65,112
		c4.3-4.3,8.6-8.6,12.9-12.9c2.2-2.2,4.5-4.5,6.4-7C75.2,94.9,67.6,102.7,65,112 M199.6,259.1c-1.8,0-1.7,2.7-1.1,4.3
		c1.8-0.4,2.8-3.5,1-4.1 M142,234.9c1.3,0.8,2.9-1.7,1.6-2.5c-1-0.6-1.6,1.2-1.4,2.4L142,234.9z"/>
</g>
</svg>
