<?xml version="1.0" encoding="utf-8"?>
<!-- Generator: Adobe Illustrator 19.1.0, SVG Export Plug-In . SVG Version: 6.00 Build 0)  -->
<svg version="1.1" id="Layer_1" xmlns="http://www.w3.org/2000/svg" xmlns:xlink="http://www.w3.org/1999/xlink" x="0px" y="0px"
	 viewBox="-114 -98.7 612 792" style="enable-background:new -114 -98.7 612 792;" xml:space="preserve">
<style type="text/css">
	.st0{fill:#FFFFFF;}
</style>
<g>
	<path class="st0" d="M276.3,108.8c-0.1,1.3-2.4,0.6-2.3-0.7s1.5-2,2.7-2.5c0.8,0.9,0.5,2.6-0.6,3.1L276.3,108.8z"/>
	<path class="st0" d="M308.4,143.8c-5.5-4.4-8.8-11.4-15.1-14.6c-5.5-2.8-12.7-1.7-17.2,2.5c-1-1.8,0.6-4,2.3-5.2
		c1.8-1.1,3.9-2.1,4.6-4.1c0.6-1.9-0.3-3.9-0.4-5.8c-0.2-5.8,6.7-8.9,12.4-10.3c0.7,3.9-6,4.4-8.2,7.8c-2.5,3.8,1.8,8.3,5.7,10.8
		c5.7,3.6,13.3,7.2,18.8,3.2c1.7-1.2,3.3-3.2,5.3-2.6c4.6,1.3,9.9-3,9.4-7.8s-6.5-8.1-10.8-5.9c-2.2,1.1-5.3,0.4-6.7-1.7
		c-1.4-2.1-1-5.2,0.9-6.8c-3.4-6.3-13.3-7.6-18.2-2.4c-3,3.2-5.7,8.7-9.8,7.2c3.1-4.5,6.2-9,9.2-13.5c2.9,0.8,6-0.6,8.7-2
		c5.8-3,12.5-7.3,12.4-13.8c0-1.3-0.3-2.6,0-3.8c1.1-3.7,6.4-3.2,10.2-3.6c4.2-0.5,8-3.1,12.2-3.5s9.4,3.2,7.8,7.1
		c3.3-3.1,9.3,0,10.5,4.4s-0.7,9-2.5,13.2c-1.5,3.4-3,6.8-4.5,10.1c-2.4,5.5-7.2,12-12.8,9.8c8.2-8.2,13.8-18.9,15.9-30.3
		c0.2-1,0.3-2.2-0.3-3c-0.5-0.7-1.4-0.9-2.2-1.1c-3.7-0.8-7.6-0.6-11.2,0.5c-1.5-1.6,2.3-3.3,2.6-5.5c0.4-2.2-3-3.1-4.9-2
		s-3.2,3.1-5.3,3.9c-2.4,0.9-5-0.2-7.5-0.2s-5.5,2.3-4.4,4.5c1.4,2.8,0.1,6.3-2.1,8.5c-2.3,2.2-5.3,3.3-8.3,4.3
		c5.5,3.7,8.8,10.6,8.2,17.2c5.7-4.7,15.7-2.2,18.5,4.6c-1.3,4.2-3.1,8.3-5.3,12.1c-1.6,2.8-4.5,5.9-7.5,4.7
		c-4.6-1.7-10.4,0.7-12.5,5.2c4.2,1.1,5.8,6.6,4.3,10.7c-1.5,4.1-5.1,6.9-8.5,9.5c-2.5,1.9-5,3.8-7.4,5.7c-1.8,1.4-3.8,2.9-6.1,3.3
		c-2.3,0.4-5-0.6-5.8-2.8c-1.6-4.6-7.6-5.8-11-9.3c-2.7-2.8-3.6-7.3-2.1-10.9s5.2-6.2,9.2-6.3c-0.8,4.2-7.4,6.2-6.7,10.5
		c0.3,1.6,1.6,2.7,2.8,3.7c4.3,3.6,8.5,7.3,12.8,10.9C296.3,157.6,303.6,151.5,308.4,143.8z"/>
	<path class="st0" d="M328.5,61.8c-1.6-0.8-3.4-2.1-3.2-3.9c0.1-0.9,0.7-1.7,1.2-2.4c2.3-2.9,4.6-5.8,6.9-8.7
		c-6.8-1.5-9.2-12-3.7-16.3c-1.1-1.1-2.7-1.6-4.2-1.3c-4,4.7-4.7,12-1.5,17.4c0.3,0.6,0.8,1.2,1.4,1.4c0.8,0.3,1.7-0.2,2.6-0.1
		c0.9,0,1.7,1.3,0.9,1.7c-5-0.3-10,3.8-10.5,8.9c-0.6,6.5-12.4,6-14.2,12.3c-2.2,8-6.7,15.4-12.7,21.1c3.9-8.5,7.5-17.2,10.6-26
		c-1.5-3.3-6.6,0.4-10-0.7c-1.5-0.5-2.4-1.8-3.7-2.7c-1.2-0.9-3.2-1.3-4.1-0.1c-2.6,3.4-8.3,0.7-10.4-3.1
		c-3.7-6.9-0.9-16.5,5.9-20.5c-1.1-4.4,1.3-9.4,5.5-11.3s9.5-0.4,12.1,3.3c-2,1.5-4.7,0.4-7.2-0.2c-2.4-0.6-5.8,0.3-5.7,2.8
		c0.1,3.9-2.3,7.4-4.6,10.7c-2.2,3.3-4.4,7.1-3.5,10.9c0.9,3.9,6.6,6.3,8.9,3.1c2.4-3.3,7.1,5.6,10.3,3.1c3.5-2.7,8.2,1.9,12.5,1.5
		c3.7-0.3,6-3.9,7.8-7.1c3.5-6.4,6.8-15,1.8-20.3c-2.6-2.7,2.6-7.3,0.9-10.7c-0.4-0.8-1.1-1.4-1.9-1.9c-5.5-3.7-12.5-5-18.9-3.6
		c0.9-3,4.3-4.7,7.5-4.7s6.2,1.3,9.1,2.6c3.3,1.5,7.1,3.5,7.5,7.1c0.5,3.8,6.1,3.7,9.6,2.2c5.1-2,10.2-4.6,15.7-4.8
		c5.5-0.2,11.6,2.8,12.8,8.2c0.6,2.8-1.4,6.5-4.2,5.8c2.1-4.9-3.4-10.4-8.7-10.3c-5.3,0-10,3.6-14,7.1c-2.4,2.1-4.9,5-4,8
		c3.7,0.9,8.3,3.1,7.8,6.9c-0.2,1.4-1.1,2.5-2,3.6c-1.9,2.3-3.8,4.6-5.7,6.9c7.1,5.1,17.7,3,24-3s9.1-15,9.6-23.7
		c0.4-1.1,2.2-1,2.9,0c0.7,1,0.5,2.3,0.3,3.5c-1.2,7.3-3,14.9-7.6,20.7C351.5,63.5,338.4,66.5,328.5,61.8z"/>
	<path class="st0" d="M213.6,367.2c-4.5,5.5-10.1,10.1-16.4,13.4c-1.4,0.7-3,2-2.5,3.4c0.2,0.4,0.5,0.8,0.6,1.2
		c0.3,1.7-2.7,1.5-4,0.4c-3.9-3.2-8.1-6.7-9.2-11.6c-1.1-5.3,1.6-10.6,5-14.8c3.3-4.2,7.4-8,9.7-12.9c2.5-5.5,13.1-0.1,16.3-5.2
		c-0.5,5.2,0.6,10.7,3.3,15.2C218.3,359.7,216.1,364.1,213.6,367.2 M190.1,378.1c5.5,0.6,10.5-3.1,14.8-6.5c3.8-3,8-6.8,7.8-11.7
		c0-1.5-0.5-2.9-1-4.3c-1-2.9-2.3-5.9-4.8-7.6s-6.7-1.3-7.9,1.5c-2.1,4.7-6.1,8.3-9.1,12.4c-3.1,4.1-5.2,9.8-2.9,14.4
		c0.9-0.3,1.8-0.7,2.7-1C190.2,376,190.4,377.1,190.1,378.1z"/>
	<path class="st0" d="M256.6,341.8c18.5-11.3,35-27.1,42.7-47.4c3.4-8.9,4.9-18.4,5.6-28c0.4-5.7,0.9-12.3,5.6-15.6
		c0.9,22.1-5.4,44.4-17.9,62.7s-30.9,32.4-51.7,39.6C245.3,348.3,251.1,345.1,256.6,341.8L256.6,341.8z"/>
	<path class="st0" d="M324.8-15.7c5.3,0,10.6-1.8,14.8-5.1c2,0.1,0.5,3.2,0.7,5.2s2.8,2.9,4.8,2.9c2.1,0,4.3-0.4,6,0.8
		c3.6,2.6,0.1,8.7,2.2,12.6c1,1.9,3.1,2.9,4.4,4.6c2.7,3.7,0.4,8.8-1.9,12.7c-0.8,1.4-3-0.2-2.9-1.8c0.1-1.6,1.3-2.8,1.8-4.3
		c1.8-6-8.5-11.5-5.4-16.9c1.4-2.4-2.2-4.8-5-4.9s-6.4-0.1-7.4-2.7c-0.7-1.9-3.4-1.7-5.3-1.1c-4.3,1.3-8.5,2.9-12,5.7
		s-5.9,7.2-5.5,11.6c0.3,3.3,2,7.2-0.3,9.6c-3.3-3-4.3-7.9-3.4-12.3s3.5-8.2,6.3-11.6C319-13.2,321.6-15.7,324.8-15.7z"/>
	<path class="st0" d="M257.2,76.8c-1.5-3.1,0.7-7.1,3.8-8.6c3.1-1.6,6.8-1.4,10.2-0.9c3.2,0.5,6.3,1.1,9.4,2c1.6,0.5,3.2,1,4.4,2.2
		c3.5,3.4,2.1,10.6,6.6,12.4c-5.5,5.5-9.6,12.3-12,19.7c-4.1-2.1-9.4-1.4-12.8,1.6c-1.3,1.2-1.8,4-0.1,4.1c2.8,0.2,4.8,3.2,4.8,6
		s-1.4,5.4-2.8,7.9c-3.9,7.1-7.9,14.3-11.8,21.4c-1-1.9-0.4-4.5,1.3-5.8c-7.3-2.7-12.6-8.8-17.6-14.7c-1.5-1.8-3-4.4-1.6-6.2
		c2-2.4,2.3-6,0.8-8.7c6-2.8,8.7-11,5.6-16.8c-1.7-3.2,2.4-6.4,5.8-7.8C254.6,83.1,258.8,80.1,257.2,76.8 M275.4,98.3
		c2.4,0.4,3.6-2.7,3.8-5.1c0.2-2.4,0.7-5.4,3-5.9c3-0.6,4.1-4.7,3.1-7.6c-1.3-3.8-4.9-6.5-8.8-7.7s-8-1-12-0.7
		c-0.8,0.1-1.6,0.2-2.2,0.6c-1.5,1.1-1,3.4-0.8,5.3c0.5,5.9-5.4,11.5-11.3,10.7c0.8,5,0.8,10.1,0.1,15.1c2.2-1.3,4.9,0.7,7,2.2
		s5.9,2.2,6.7-0.2C265.5,100.6,270.6,97.5,275.4,98.3 M267.8,114.4c-0.4-0.8-1.4-1.2-2.2-1.6c-2.4-0.9-4.9-1.8-7.3-2.7
		c-4.6-1.7-10.4-3.2-14,0.2c1.7,1.6,1.9,4.6,0.3,6.4c-0.9,1-2.2,1.5-2.9,2.6s0,3.1,1.3,2.8c2.6-0.6,4.8,1.9,5.9,4.3
		c1.1,2.4,2,5.2,4.3,6.4c2.4,1.4,5.7,0.4,7.7-1.6s3.1-4.6,4.1-7.3c0.9-2.2,1.7-4.4,2.6-6.6C267.9,116.3,268.2,115.3,267.8,114.4z"/>
	<path class="st0" d="M257,380.7c-5.1,3.9-7.7,10.1-11.1,15.6c-3.3,5.5-8.4,10.8-14.9,10.8c3.3-3.3,6.6-6.6,9.9-10
		c2.4-2.4,5-5.2,5.1-8.7c0.2-9.4-17-11-17.7-20.4c-0.2-2.9,1.6-5.9,4.4-7c2.7-1.1,6.1-0.3,8,1.9c-3-0.5-6.5,0.2-8.2,2.8
		c-1.6,2.6,0.1,6.9,3.1,6.7c5.4-0.4,10.8,3.7,11.9,9c0.4,2.1,3.8,1,5.3-0.6c8.3-8.8,17.1-18.5,18.7-30.5
		c-9.7-0.8-19.7,3.3-26.1,10.7c-1.7-1.3-0.4-3.9,1.2-5.4c5.1-4.9,11.7-8.1,18.6-9.3c3.5-0.6,7.9-0.1,9.5,3.1
		c0.9,1.9,0.4,4.2-0.2,6.3C271.4,365.6,265.2,374.4,257,380.7z"/>
	<path class="st0" d="M264.9,184.3c0.1-5.2,6.7-8.1,11.6-6.6s8.4,5.9,11.5,10c1.1-8.7,8-15.7,15.7-19.8c7.7-4.2,16.3-6.2,24.5-9.3
		c19.1-7.3,35.6-20.9,46.5-38.2c-1.9,5.5-3.7,11.1-5.9,16.5c-12.4,30.6-35.4,56.8-64.1,73.1c-24.7,1.8-40.8,25.8-53,47.3
		c5.6-2.6,12.1,0.4,18.2,1.2s14.3-3.7,12.1-9.5c-1.8-4.7-9.2-5.7-10.2-10.7c7.4-2.5,14.4,6.9,12.6,14.5s-8.8,12.7-15.6,16.5
		c-9.4,5.2-21.5,9-30.3,3c-27,24.3-44.5,57.1-61.5,89.2c-12.9,24.3-25.7,48.5-38.6,72.8c-1.5,2.9-3,6.3-1.6,9.2
		c3.7-3.3,7.3-6.7,11-10c6.2,1.3,13.2-2.6,15.2-8.7c-4.6,2.5-9.2,4.9-13.8,7.4c33.3-23.5,62.3-53.1,85.3-86.7
		c-4,4.6-12.2,3.2-16.1-1.4c-3.9-4.7-4.5-11.4-3.8-17.5c0.9-7.8,3.9-15.6,9.7-20.8s14.8-7.4,21.7-3.8c3.9,2,1.7,8-1,11.5
		c-2.6,3.6-4.6,9.7-0.5,11.4c8.5-10.8,18.3-20.7,29-29.3c-1.6-6.1-9.1-8.9-15.2-7.6s-11.1,5.6-15.8,9.8c3.6-9.8,14.2-16.6,24.6-15.6
		c2.7,4.4,6.5,8,11,10.5c8.9-8.4,17-17.6,24.3-27.4c-11.9,34.1-58.9,47.8-66.8,83.1c21.6-21.9,43.2-43.8,64.8-65.6
		c-9.6,20.3-28.9,33.9-45,49.5c-15.3,14.9-28.2,32.1-40.4,49.6c-3,4.3-6.1,9.3-4.9,14.4s9.2,7.9,11.6,3.2c5.6-1,10.3,5.8,8.7,11.2
		c-1.6,5.4-7.4,8.7-13.1,9.1s-11.2-1.5-16.5-3.4c-3.9-1.4-8.3-3.1-10.1-6.9c-13.7,10.3-27.3,20.5-41,30.8
		c-10.9,8.2-21.9,16.5-30,27.5c-9,12.2-13.8,27-18.4,41.4c-5.8,18-11.5,36-17.3,54c-1.4,4.4-4.8,9.8-9,8.2
		c2.5-38.7,13.4-76.8,31.7-110.9c6.9-12.8,14.9-25.2,20.2-38.7c9-23.1,9.6-48.5,10.2-73.3c-15,1.8-33.2,2.3-42-10
		c-5.5-7.7-5.2-18-3.5-27.3c5-27.1,20.5-53.1,16.6-80.4c-0.7-4.6,5.7-7.7,9.8-5.7c4.2,2.1,6,7.1,6.2,11.8c0.3,4.6-0.6,9.3,0.1,13.9
		c4.8-9.6,16.9-14.9,27.2-11.8c-6.6,7.6-7.8,19.4-2.8,28.2c-1.7-1.6,2.2-4,3.7-2.1s0.5,4.6-0.7,6.6c5.5,1.4,11.3,2.9,16.7,1.2
		c5.4-1.7,9.8-7.8,7.6-13c-2.1-4.8-0.3-10.2,0.4-15.4s-1-11.7-6-12.8c-7.8,4-13.3,12-14.2,20.8c-2.1-4.2-2.5-9.2-0.8-13.6
		c2.7-7.2,11.7-11.6,18.8-8.7c7.1,2.9,10.3,13.2,5.5,19.2c6.9-5.7,15-10,23.5-12.6c-4.4-0.7-8.7-1.4-13.1-2.2
		c1.9-12.6,18.9-20,29.4-12.8c-9.4-0.9-19.1,2.8-25.4,9.8c7.6-3.5,12.2,8.6,19.2,13.2c1.3,3-4.1,4.5-6.7,2.5s-4.4-5.5-7.7-5.8
		c-2.1-0.2-4,1.1-5.6,2.5c-4.9,4-9.3,8.7-12.8,14c2.8,2.3,5.7,4.6,8.5,7c-6,0.5-7.4,10.3-2.3,13.4s12.5-1.1,13.6-7
		c1.1,7.4-7.6,14.3-14.6,11.6s-8.7-13.7-2.9-18.4c-3.8,6.8-10.5,14.8-17.7,11.9c-6-2.4-13.1,1.5-16.5,7c-3.4,5.6-4,12.3-4.5,18.8
		c-0.3,4.2-0.5,8.9,2,12.3s8.9,3.9,10.4-0.1c-5.7-4.3-8.2-12.3-6-19.1c0,7.9,10.3,13.6,17,9.4c-7-3.4-9.3-13.8-4.4-19.9
		c-3.1-0.3-5.9-2.6-6.7-5.6c7.4-1.9,12.7,10.6,6.3,14.6c3.8,2.5,7.4,6.4,7.2,11s-6.5,8.3-9.7,5c0.6,7.7-8.7,14.2-15.7,11
		c-1.4,20.2-1.5,40.6-0.2,60.8c46.2-70.5,81.4-148.1,103.9-229.3c-7.3,5.6-18.4,5.4-25.4-0.5c-4.3-3.6-6.9-8.7-8.8-13.9
		c-8.9-23.5-6.6-51,6.1-72.7c-5.9,19-7.7,39.3-5.3,59.1c1,7.9,2.8,16.1,8.1,22s15.2,8.2,21.3,3.1c-16-8.5-21.6-28.7-22.6-46.8
		c-0.9-16.4,0.7-32.9,4.7-48.8c5.5,13.6,5,28.7,6.1,43.4c1.1,14.6,4.3,30.2,14.9,40.3c7.7,7.3,4.8,19.9,1.3,30
		c-9,25.5-17.9,51-26.9,76.5c16.2-38.8,32.4-77.7,48.7-116.5c1.8-4.4,3.9-9.1,8-11.4c-15.8,39.1-31.6,78.2-47.4,117.4
		c2.7-0.1,5.4,0.8,7.6,2.5c-2,7,0.2,15.1,5.5,20.2c7.4-10.3,14.7-20.6,22.1-30.8c3.9-5.5,8.1-12.1,6.3-18.6
		c-1.8-6.6-13.2-8.8-14.7-2.2c-1.6,6.9-11.1,8.8-14.4,15c-3.4,6.5,1.4,14.2,6,20c-7.7,0-12.1-9.9-9.9-17.2
		c2.2-7.4,8.6-12.6,14.2-17.8S264.8,192,264.9,184.3 M223.9,267.1c6.7-1.7,14.8-5.1,14.8-12s-8.8-12.8-6-19.1
		c-9.7,12.1-15.2,27.4-15.4,42.9c4-2.5,8-5,12-7.5c-3.5,6.4-9.6,11.3-16.5,13.4c-0.2-9.4,1.5-18.7,4.9-27.4
		c-22.9,41.9-45.8,83.8-68.7,125.8c-1.2,2.3-3.8,4.9-5.9,3.3c-0.9-0.7-1.2-1.9-1.4-3c-1.1-5.9-2.2-11.8-3.3-17.7
		c2.7,28.7-4.6,58.2-20.5,82.2c-23.1,35.2-34.3,77-39.6,118.8c6.6-20.2,13.3-40.5,19.9-60.7c5.4-16.6,11.2-33.7,23-46.5
		c4.8-5.2,10.8-10.3,11.5-17.3c0.7-7.1,4.1-13.6,7.4-19.8c12-22.4,24-44.9,36-67.3c17.3-32.4,35.3-65.7,63.6-89.2
		C235,268.7,229,269.2,223.9,267.1 M308.3,169.2c-14.8,7.7-23.3,24-27,40.3c-1.9-4.9-1.8-10.5,0.2-15.3c2.6-6-3.2-13.8-9.7-13.1
		c-4,0.7-5.3,6-4,9.8c1.4,3.8,4.4,6.7,6.2,10.3c2.6,5.2,2.2,11.8-1,16.7c2.5,0.6,4.7-1.5,6.3-3.4c19.6-22.8,43.4-41.9,69.8-56.3
		c-3.3,4.6-7.6,8.4-12.1,11.8c-17,13-37.9,22.7-48.3,41.3c12.2-5.5,24.5-11.1,35.5-18.8c11-7.7,20.8-17.6,26.3-29.8
		c1.1-2.3,1.9-5.2,0.5-7.4c4.7-3,7.7-8.3,7.8-13.9c-6.8,8.8-16.1,15.6-26.5,19.6C324.5,164,315.9,165.3,308.3,169.2 M112,244.3
		c-1.8,14.5-4.9,28.7-9.5,42.6c-3.2,9.6-7,19.2-8.3,29.2c-0.7,5.3-0.6,11,1.7,15.8c3.4,7,10.9,11.2,18.6,12.6s15.5,0.2,23.2-0.9
		c1.7-3.4-1.7-7-4.4-9.7c-12.2-12.1-14.9-30.7-14.3-47.9c0.6-17.1,3.8-34.4,1-51.3c-0.4-2.2-1-4.7-3-5.8c-2-1.1-5.2,0.7-4.3,2.8
		c5,11.8,4.3,25.3,2,37.9s-6,25.1-7,37.9c-0.4,5.5-0.2,11.2,2.1,16.1c4.4,9.3,15.1,13.4,24.8,16.7c-12.1,3.7-24.8-6.5-28.5-18.6
		c-3.7-12-0.9-25,1.8-37.3c2.1-9.2,4.2-18.3,6.2-27.5C115.1,252.5,115.7,246.9,112,244.3 M139,250.7c2.1-3,4.2-6,6.3-9
		c-8.8-1.5-17.5,5.9-19.6,14.6s1.2,18,6.5,25.3c-0.3,1.5-2.3,2-3.6,1.2c-1.3-0.7-2-2.2-2.5-3.6c-1.2-3.4-1.9-6.9-2.1-10.5
		c-0.7-1.5-2.7,0.7-2.7,2.4c0,7.5,0.4,15,1.2,22.5c0.6,5.6,2.5,12.3,8,13.4c4.1,0.8,8.2-2.6,9.3-6.6c1.1-4.1-0.4-8.4-2.7-11.9
		c-2.3,1.5-3.9,3.8-6.4,4.9s-6.2,0-6.2-2.7c0.7-1.2,1.4-2.3,2.1-3.5c1,0.9,2,1.9,3,2.8c6.7-2,5.4-13.1,11.3-16.8
		c1.7-1.1,2-3.4,2.1-5.4C143.4,261.8,143.5,254.9,139,250.7 M246,305.3c-7.4-2.6-16-1.1-22.2,3.6c-1.5,1.1-2.9,3.1-1.8,4.6
		c4.3,6.3-8.1,14.8-4.1,21.4c1,1.6,2.8,2.7,3.2,4.5c0.3,1.4-0.3,3.2,0.9,3.9c0.8,0.5,1.8,0.2,2.7-0.2c3.9-1.7,8-3.4,11.1-6.4
		s5-7.5,3.8-11.6C237.4,318.1,240.1,309.8,246,305.3 M204.2,395.1c-2.1,1.4-4,3.4-5.2,5.6c1.6-0.4,2.5,2.1,1.6,3.5s-2.6,2-4,3
		c-1.3,1-2.2,3.2-1,4.3c5.8-1.6,12.4-0.4,17.1,3.3c2.9,2.3,7.5,2.1,10.2-0.4c2.8-2.5,3.4-7,1.5-10.2
		C216.8,407.5,206.8,403,204.2,395.1 M226.8,78.7c-3.5,12.9-1.3,26.6,1.2,39.8c0.7,3.9,1.5,7.9,3.2,11.5c3.1,6.6,9.2,11.3,15,15.7
		c1.2,0.9,3.4,1.6,3.9,0.2c-3.2-8.2-12.7-12.3-16.6-20.1c-1.9-3.8-2.3-8.2-2.6-12.5c-0.7-9.3-1.4-18.6-2.1-27.8
		C228.6,83,228.3,80.5,226.8,78.7 M245.4,271.8c1.1,0.3,2.3,0.1,3.4-0.2c4.9-1.1,9.9-2.1,14.8-3.2c2.6-0.6,5.9-2,5.6-4.6
		c-5.8-4.4-14-5.5-20.7-2.8c-2.3,0.9-4.5,2.4-5.5,4.6C242.1,268,243,271.1,245.4,271.8 M132.9,313.4c-3.2-1.9-6.4-3.8-9.6-5.8
		c1.9,7.7,5.3,15,9.8,21.5c1.5,2.2,3.7,4.5,6.3,4.1c-0.6-8.2-0.6-16.4-0.1-24.6C136.4,307.6,132.7,310.3,132.9,313.4 M191.7,404.5
		c7.4-8.5,14.9-17,22.3-25.4c1.1-1.3,1.9-3.7,0.3-4.1c-9.8,9.3-18.8,19.4-26.7,30.3C188,406.8,190.5,405.8,191.7,404.5 M146.2,272.1
		c-3.6,2-5.5,6.2-6.1,10.2c-0.4,2.8-0.3,5.6,0.3,8.4c0.6,0.5,1.4,0.7,2.2,0.5C144.3,285,145.5,278.6,146.2,272.1z"/>
	<path class="st0" d="M284.5,236.7c-2.8-1.2-5.4-3.3-6.4-6.2c-1-2.9,0.3-6.6,3.2-7.6c-1.4,4.7,2.3,9.7,6.8,11.5s9.6,1.3,14.5,0.7
		c3.1-0.4,6.9-1.2,8-4.1c0.5-1.4,0.3-3,0.1-4.5c-0.7-7.6,1.7-15.5,6.6-21.4c-0.1,6.4,2,12.8,5.9,17.9c0.5,0.7,1.1,1.4,2,1.7
		c0.9,0.4,2,0.2,3-0.1c8.6-2.6,13.8-11.1,18.2-18.9c1.7-3.1,3.4-7,1.5-9.9c-1.7-2.7-5.9-3.4-6.9-6.5c4.5-1.1,9.7,1.8,11.2,6.2
		c1.6,4.7-0.7,9.7-3.2,13.9c-3.9,6.4-8.7,12.3-15,16.3c-2.3,1.5-4.9,2.7-7.7,2.8s-5.7-1.2-7-3.6c-1.2-2.3-0.8-5.4-2.5-7.5
		c-2.4,0.8-3.1,3.9-2.7,6.3c0.4,2.5,1.5,4.9,1.1,7.4c-0.9,5.7-8.2,7.3-14,7.5C295.6,238.7,289.7,238.9,284.5,236.7z"/>
</g>
</svg>
