<?xml version="1.0" encoding="utf-8"?>
<!-- Generator: Adobe Illustrator 19.1.0, SVG Export Plug-In . SVG Version: 6.00 Build 0)  -->
<svg version="1.1" id="Layer_1" xmlns="http://www.w3.org/2000/svg" xmlns:xlink="http://www.w3.org/1999/xlink" x="0px" y="0px"
	 viewBox="-114 -98.7 612 792" style="enable-background:new -114 -98.7 612 792;" xml:space="preserve">
<style type="text/css">
	.st0{fill:#FFFFFF;}
</style>
<g>
	<path class="st0" d="M261.8,364.9c-2.2-1.9-6-3.5-7.4-1c-0.8,1.5-2.9,1.8-4.4,1.2c-1.6-0.6-2.7-1.9-3.8-3.2
		c-3.4-3.9-6.6-7.9-9.6-12c-1.1-1.5-2.1-4.1-0.5-5c3.9,4.6,7.9,9.2,11.8,13.8c1.3,1.5,3.9,2.8,4.7,1.1c1.5-3.2,6.3-1.5,9.1,0.6
		c5.6,4.2,10.9,8.8,16,13.7c5.7,5.4,16.8,1.4,21.8,7.5c1.6-3-0.5-6.6-2.6-9.3c-4.5-5.8-9.5-11.2-14.9-16.2c-4.3-4-9.2-8.5-8.9-14.4
		c0.1-2.3-1.6-4.3-3.1-6.1c-5.6-6.2-11.2-12.4-16.8-18.7c-1.5-1.7-2.6-5-0.4-5.5c7.8,8.6,15.6,17.2,23.3,25.9
		c1.1,1.2,2.2,2.7,1.8,4.2c-1.4,5.3,3.7,9.9,7.9,13.5c6.5,5.5,12.1,12.1,16.5,19.3c2,3.3,3.4,8.4,0.1,10.4
		c-4.9,2.9-10.8-6.2-15.7-3.3c-2.9,1.7-6.4-0.6-8.9-2.7C272.5,374,267.1,369.5,261.8,364.9z"/>
	<path class="st0" d="M103.8,334.3c-12.2,2.4-21.1,12.4-29.6,21.4s-19,18.1-31.4,17.6c-7.2-0.3-12.2,6.6-16.7,12.1
		c-2.3,2.8-4.9,5.6-8.3,6.9c-3.4,1.4-7.7,1-10.1-1.7s-1.8-7.9,1.6-9.1c2.9,0.8,0,6.5,2.6,8.1c1.2,0.7,2.7,0,3.8-0.7
		c6.1-3.7,11.5-8.6,15.8-14.2c2.6-3.3,6.3-7.4,10.2-5.6c6.5,3,13.7-1.7,19.2-6.3c10.2-8.6,20-17.6,29.4-27.1
		c1.3-1.3,2.6-2.7,4.3-3.4c1.8-0.8,3.9-0.9,5.8-1.1c20.3-2.9,30.7-28.6,50.8-33c-10.1,8.6-20.1,17.2-30.2,25.9
		C116,328.3,110.5,332.9,103.8,334.3z"/>
	<path class="st0" d="M258.2,212.3c-12.7,2-17.2,19.7-29.4,24c7.4-13.4,19.4-24.2,33.5-30.2c4.3-1.8,7.2-6,10.3-9.5
		c3.2-3.5,7.6-6.7,12.2-5.7c4.2,0.9,8-2.3,11-5.4c6-6,12-12,18-18c1.8-1.8,4-3.7,6.4-3.2c10.1,2,19.6-5.2,26.5-12.7
		c6.9-7.6,13.3-16.5,23-19.9c-8.3,9.7-17.3,18.9-26.7,27.6c-6.7,6.2-16.5,12.5-24.3,7.7c-10.1,12-21.3,24.7-36.7,28.2
		C272.4,197.4,268.1,210.7,258.2,212.3z"/>
	<path class="st0" d="M262.2,416.3c2.6,4.2,8.9,1.8,13.2-0.5c4.3-2.3,11.5-3,12.4,1.8c1-2.6,2-5.2,3-7.7c8.9,1.9,17.8,3.7,26.6,5.6
		c6.1,1.3,11.2-5.8,11-12c-0.3-6.3-3.9-11.8-6.4-17.6c-2.5-5.7-3.8-12.9,0-17.9c2.8-3.6,0.3-8.8-0.8-13.2s1.7-11.1,6-9.4
		c-18.8-11.5-38.8-21.1-59.5-28.6c-6-2.2-13.2-5.6-13.6-12c-0.3-5.3,4.6-9.6,9.7-11.2s10.6-1.4,15.7-2.9c18.2-5,27.4-27.9,45.8-32
		c9-2,9.8-14.7,16.4-21.1c26.8-26.5,48.2-58.5,62.3-93.5c-5.8,0.6-11.6,1.1-17.4,1.7c5.2-7.9,10.5-15.9,15.7-23.8
		c-5.7,3-12.1,5-18.5,5.7c4.4-12.2,10.7-23.8,18.6-34.1c-7.3,6.8-15.3,12.9-23.9,18.1c6.2-10,12.4-20,18.6-29.9
		c-32.5,28.1-73.1,44.5-110.2,66.2s-72.8,51.8-84,93.3c-6.1-7.1-12.3-14.3-18.4-21.4c-1.5-1.8-3.4-3.7-5.7-3.8
		c-2.4-0.1-4.6,3.1-2.8,4.7c-4.5-3-9.1-6-13.6-8.9c3.1,6.5,6,13.9,4,20.9s-11,12.1-16.7,7.6c2,8.3,4.7,16.4,8.1,24.2
		c-7.8-10.2-12.9-22.4-14.4-35.2c-0.5-4.3-0.7-8.8-2.8-12.6c-2.1-3.8-7-6.5-10.9-4.5c-4.2-2.8-1.9-10.1,2.8-11.9s9.9,0.1,14.3,2.5
		s8.8,5.3,13.8,5.6c16.9,1,33,11.5,40.6,26.6c13.5-41.1,50-70.2,87.5-91.8s78.2-38.6,110.5-67.4c2,8-1.3,17-8,21.7
		c6.1-3.4,12.3-6.7,18.4-10.1c-7,11.7-13.9,23.4-20.9,35.1c5.9-1.2,11.5-3.2,16.8-6.1c-0.1,10-5.5,19.9-13.9,25.3
		c2.9,1.4,6.2-0.5,9.3-1.5c3.1-1,7.6-0.3,7.8,3c0.1,1-0.4,2-0.8,2.9c-12.6,26.9-27.9,52.6-45.5,76.6c-2.9,4-6.1,8.1-10.7,9.9
		c-11.7,4.7-11.2,24.9-23.3,28.5c-11.8,3.5-20.6,13.1-29.7,21.3c-9.1,8.2-20.7,15.8-32.8,14c-4.9-0.8-7.8,6.4-5.4,10.7
		c2.5,4.3,7.6,6.2,12.3,7.9c16.2,5.7,32,12.6,47.2,20.5c3.6,1.9,7.5,4.1,9.1,7.9s-0.3,9.3-4.4,9.5c6,8.8-1.1,20.8,0.3,31.4
		c0.8,6.3,4.7,11.9,6.5,18s0.4,14.3-5.6,16.4c-2.6,0.9-5.5,0.5-8.3,0c-8-1.4-15.9-2.8-23.9-4.2c0.6,3.1-1.7,6.5-4.8,7.1
		c-3.1,0.6-6.5-1.6-7.2-4.7c-4.2,6.9-14.9,6.9-21.4,2.1c-6.5-4.8-9.8-12.6-12.9-20.1c-5.6-13.6-11.1-27.3-16.7-40.9
		c-1.8-4.3-3.7-8.8-7.6-11.4s-10.2-1.8-11.8,2.5c-10,26.9-36.4,43.5-61.1,58c-7.2,4.3-14.5,8.5-21.7,12.8
		c-11.7,6.9-23.7,13.9-37,16.4c-11.4,2.1-24.2,1.3-33.2,8.5c-4.8,3.9-7.7,9.5-11.6,14.3c-3.9,4.8-9.5,9-15.6,8.1s-10.3-9.5-5.6-13.5
		c-6.2-3.2-13.3,1.8-19,5.8s-14.9,6.6-18.7,0.7c-5.9-9.1,11.7-17.9,11.3-28.8c-7.3,7.1-15.6,13.2-24.5,18.1c-2.9,1.6-7.3,2.8-9-0.1
		c-1.2-1.9-0.1-4.4,0.9-6.4c5.9-11.6,11.8-23.1,17.6-34.7c-14.5,13-30.1,24.7-46.7,34.9c-1.4,0.8-2.8,1.7-4.4,1.7
		c-6.3,0-5.2-9.9-1.8-15.1c30.4-47.6,70.7-88.6,117.6-120c34.3-23,74-37.8,115-42.8c-20.3,6.5-40.6,13-60.9,19.4
		c-10.9,3.5-21.9,7-31.6,12.9c-53.3,32.2-99.5,76-134.4,127.5c-3,4.5-6.1,10.1-3.9,15.1c18.7-12.8,37.5-25.7,56.2-38.5
		c-6.6,14.7-13.2,29.4-19.8,44c11.4-5.1,21.9-12.2,30.8-20.8c4.2,3,2.7,9.7-0.4,13.8s-7.4,7.7-8.2,12.8s5.8,10.6,9.2,6.8
		c4.9-5.4,10.6-11.2,17.9-11.5S33,457.7,28,463c5.8,2.3,12.4-1.5,16.4-6.2c4-4.8,6.8-10.7,11.5-14.7c8.8-7.6,21.8-6.9,33.2-9
		c13.7-2.6,26.1-9.7,38.1-16.8c7.7-4.5,15.5-9,23.2-13.5c19.7-11.5,40.3-23.9,51.5-43.7c2.8-4.9,5-10.4,9.2-14.3s11.1-5.6,15.5-1.9
		c2.5,2.1,3.5,5.3,4.6,8.3C239.1,373.9,249.4,395.9,262.2,416.3 M153.5,237.2c3.2,1.6,7.7,0.1,9.3-3.2c1.6-3.3-0.1-7.7-3.4-9.2
		c-5.4-2.4-10.8-4.8-16.2-7.3c1.3,4.8,3.1,9.4,5.3,13.8C149.7,233.6,151.1,236,153.5,237.2 M163.4,222.7c0.2-2.5-1.4-4.7-3.1-6.5
		c-5.7-6-13-10.4-20.9-12.6c-1.8-0.5-3.9-0.9-5.6-0.2c-1.8,0.7-3.1,2.9-2.2,4.6c3.1-1.3,6.9-0.5,9.3,1.9
		C147.1,216,155,220.5,163.4,222.7z"/>
</g>
</svg>
