<?xml version="1.0" encoding="utf-8"?>
<!-- Generator: Adobe Illustrator 19.1.0, SVG Export Plug-In . SVG Version: 6.00 Build 0)  -->
<svg version="1.1" id="Layer_1" xmlns="http://www.w3.org/2000/svg" xmlns:xlink="http://www.w3.org/1999/xlink" x="0px" y="0px"
	 viewBox="174 -123.6 1190.6 841.9" style="enable-background:new 174 -123.6 1190.6 841.9;" xml:space="preserve">
<style type="text/css">
	.st0{fill:#FFFFFF;}
</style>
<g>
	<path class="st0" d="M879.9,213.1c-12.6,5.3-22.8,16.2-27.2,29.2c4.4,4.4-2.4,10.8-7.4,14.3c-7.3,5.1-12.6,12.9-14.8,21.6
		c1,1.6,2.8,2.7,4.6,2.9c-4.4,7.8-11.7,13.7-16.9,21s-8.3,17.7-3.2,25.1c-8.3,4.9-14.3,13.6-15.9,23.2c32.1,5.8,66.9-13.1,79.6-43
		c8.4-19.9,16.9-39.7,25.3-59.6c2.8-1.3,5.9,1.4,6.7,4.4s0.1,6.1,0.4,9.1c0.8,9.2,10.1,15.7,19.2,16.6s18.1-2.5,26.7-5.7
		c14.9-5.7,29.8-11.4,44.6-17.1c1,1.1,1,2.8,0.8,4.3c-2.1,21.8-14.9,41.5-31,56.3s-35.6,25.5-54.8,36c-48.2,26.3-96.3,52.7-144.5,79
		c-9.5-16.1-19.2-32.4-33.3-44.8c-14-12.3-33.3-20.2-51.5-15.9c-3.1,0.7-6.3,1.8-9.3,0.9c-3.1-0.9-5.5-4.7-3.6-7.2
		c4.8-6.6,5-15.8,2.1-23.4s-8.5-13.9-14.6-19.4c-16.1-14.6-38.7-24.8-59.4-18.2c-6.6,2.1-14.1,5.8-20,2
		c11.6-34.2,8.7-73.2-7.9-105.3c-3.8-7.3-8.4-15.7-5.1-23.3c24.2,33.7,33.7,77.6,25.6,118.2c34.7-6.7,72.8,9.6,92,39.3
		c1.3,2.1,2.6,4.3,2.8,6.8c0.2,3.9-2.4,7.4-3.4,11.2c-1,3.8,1.3,9.2,5.1,8.4c13.6-2.8,28,1.6,39.8,9s21.4,17.7,30.9,27.9
		c-14.9-35.2-25.8-72.1-32.5-109.8c-1.7-9.7-6.4-22.2-16.3-21.4c-24.9,2.1-48.7-11.2-67.5-27.6s-34.5-36.4-53.9-52
		c22.2,5.3,37.3,25,53.5,40.9c21.9,21.5,52.6,38.6,82.4,30.9c5.2-1.3,7.9,5.8,8.5,11.1c4.2,41.1,16,81.5,34.6,118.4
		c4.6-40.6,6.8-81.5,6.8-122.4c0-3.7,0-7.6-1.4-11.1c-1.6-4-4.7-7.1-6.3-11s-0.8-9.6,3.3-10.8c2.4-0.7,2.8-3.9,2.9-6.4
		c0.1-13-0.7-27.8-10.6-36.1c-5.1-4.2-0.9-12.2,1.5-18.3c4.6-11.7,0.4-26.3-9.6-33.9c-5.1-3.8-1-11.6,1.1-17.5
		c4.4-12.4-2.9-26.8-14-33.7c-3.1-2-7.2-5.1-5.5-8.4c1-2,3.7-2.5,5.9-2.7c5.3-0.6,12.4,0.3,13.1,5.5c0.2,1.9-0.6,3.8-0.1,5.6
		s3.5,2.8,4,1c-2.2-10.8,13-20.1,21.6-13.3c-0.3,4.9-4.6,8.6-8.8,11.1s-9,4.8-11.4,9.1s-0.4,11.3,4.6,11.5c3.4,0.1,5.6,3.9,5.5,7.3
		s-1.6,6.5-2.6,9.7c-2.8,9.4-0.4,19.5,2,29.1c0.6,2.5,1.4,5.3,3.6,6.7c1.6,1,3.6,1.2,4.9,2.6c1.5,1.6,1.2,4.2,0.7,6.3
		c-1.9,9.9-3.8,19.9-5.7,29.8c-1.1,5.9,15,2.8,12.7,8.4c-9,22-9.5,47.3-1.2,69.6c4.5,12.2-8.5,27.2-1.2,38.1
		c2.2,3.3,6.2,7.2,3.8,10.4c-8.1,10.8-10.4,25.7-5.8,38.4c15.5-30.6,27.9-62.8,36.9-95.9c3.7,3,8.5-2.1,10.6-6.4
		c15.6-32,33.7-62.8,54.2-92c5.5,0.2,10.8-3.7,12.4-8.9c-7.1-4.6-7.1-16.8,0-21.5s18.3,0.3,19.6,8.7c0.9,5.4,7,7.9,11.7,10.8
		s8.1,10.5,3.4,13.3c-1.7,1-3.9,0.9-5.9,0.7c-8.7-0.7-17.3-1.5-26-2.2c-9.9,11.4-18.6,23.9-25.7,37.2c4.4-0.4,8.7-0.8,13.1-1.2
		C889.3,209,884,211.4,879.9,213.1 M795.7,388.3c19.3-8.2,37.1-19.8,52.4-34.2c-10.9,4.1-22.7,5.3-34.2,3.7c-8-1.2-14.1,7-17.5,14.4
		c-6.8,14.8-11.1,30.7-12.6,46.8c50.2-28.8,100.5-57.5,150.7-86.3c10.1-5.8,20.3-11.7,29.2-19.3c14.6-12.7,24.9-30.4,28.8-49.4
		c-4.2,2-8.5,3.9-12.7,5.9c-12.6,5.8-25.6,11.8-39.4,13.2s-29-2.6-37.7-13.5c-10.6,30.2-27.5,58.1-49.5,81.3
		c26-16.9,52-33.8,78-50.6c1.3,3.5-2.2,6.8-5.3,9c-38.8,27.1-77.7,54.2-116.5,81.3c-2.5,1.8-5.3,3.6-8.4,3.6
		C798,394.1,794.8,391.2,795.7,388.3z"/>
</g>
</svg>
