<?xml version="1.0" encoding="utf-8"?>
<!-- Generator: Adobe Illustrator 19.1.0, SVG Export Plug-In . SVG Version: 6.00 Build 0)  -->
<svg version="1.1" id="Layer_1" xmlns="http://www.w3.org/2000/svg" xmlns:xlink="http://www.w3.org/1999/xlink" x="0px" y="0px"
	 viewBox="174 -123.6 1190.6 841.9" style="enable-background:new 174 -123.6 1190.6 841.9;" xml:space="preserve">
<style type="text/css">
	.st0{fill:#FFFFFF;}
</style>
<g>
	<path class="st0" d="M789.7,416.2c-0.9,0.2-1.5-1.4-0.6-1.8c0.8-0.4,1.5,1.3,0.6,1.6V416.2z"/>
	<path class="st0" d="M665,472.3c-4.4-7.7-17.7-7.3-21.8,0.6c-13.4-13.1-27.9-26.7-46.2-30.4c-10.5-2.1-21.3-0.7-32-0.1
		c-15.6,0.9-31.3,0.2-46.8-2.2c-9.2-1.4-18.5-3.5-26.4-8.4c-17.2-10.8-23.7-32.4-26.7-52.4c-7.2-47.9-2-97.6,15.1-142.9
		c3.2-8.4,9.2-15.3,15.3-21.8c49-51.9,113.7-88.8,183.3-104.6c-2-3.1-4-6.2-6-9.4c6-1.2,12.1-2.4,18.1-3.7
		c-6.1-9.5-14.1-17.7-23.4-24.1c5.2-3.3,11.1-5.4,17.2-6.3c-3.9-16.6-7.5-33.2-10.7-49.9c-1.6-8.3,5.9-16.2,14.2-18.1
		s16.9,0.6,24.9,3.3c31.6,10.5,62.2,24.2,94.6,32.4c32.3,8.1,67.4,10.3,98.3-2.2c17.9-7.2,33.9-19.1,52.7-23.5
		c2.5-0.6,5.2-1,7.5,0.2c2,1.1,3.2,3.2,4.1,5.3c13.2,27.5,17.3,59.3,11.5,89.3c-5.6,29.1,23.5,55.8,20.2,85.2
		c-0.3,2.5-1.7,5.6-4.2,5.1c2.5,18.8,2,38.1-1.6,56.7c-2.3,12-24.4,8.1-28.9,19.4c4-2,8.9-2.1,13-0.3c-14.5,3.4-22.6,18.5-28.9,32
		c-21,45-42,90-63,135c11.1,2.7,21,10.1,26.7,20c1,1.7,1.9,3.6,1.4,5.5c-1.9,8.1-15.8-2.1-22.4,2.9c10.2,5.8,16.5,17.8,15.5,29.5
		c-3.8-2.2-9.4,1.5-8.8,5.8c-3.4-1.4-6.7-2.8-10.1-4.3c-2.5,6.1-11.7,3.1-17.1-0.8c-63.3-45.1-138.8-72.8-216.2-79.3
		c-2.3,8.3,6.3,15.2,13.1,20.5c6.8,5.3,12.9,16,6.4,21.7c-1.2,3-6,3.5-7.9,0.9C667.7,463.3,666.3,467.8,665,472.3 M674.6,251.3
		c-3,3.4-5.9,6.8-8.9,10.1c-2.7-4.8-3.3-10.8-1.4-16c-2.6,2.6-5.2,5.2-7.8,7.8c3-20,7.4-39.7,13.3-59c-5.5,2-10.1,6.3-12.5,11.6
		c-4.2-7.1-0.4-16.1,3.5-23.4c11.9-22.6,23.8-45.1,35.7-67.7c-77.9,10-147.3,55.1-204,109.5c-3.9,3.7-8.1,8.6-6.8,13.9
		c1.8,7.2-1.7,14.4-4.6,21.2c-15.2,36.2-14.5,77.1-9.6,116c2.2,17.4,5.8,36.1,18.7,48c17.5,16.2,44.4,13.9,68.2,13.1
		c21.7-0.7,43.6,0.7,65,4.3c6.4,1.1,13,2.3,19.2,0.5s11.9-7.6,10.9-14c-10.1-70.5-47.8-136.6-103.2-181.2
		c30.4,15.7,54.6,41.9,71.6,71.6s27.2,62.9,33.9,96.5c42.8-4.9,85.8,8.2,124.8,26.3c16.3,7.6,32.3,16,49.4,21.3s36,7,53,1
		c-16.4-23.5-32.9-47.2-42.9-74c12.4,19,24.9,38,37.3,57c22.1-56.1,48-110.8,77.5-163.4c-11.2,2.9-22.4,5.8-33.7,8.7
		c-11.7,3-23.5,6.1-34.2,11.6c-16.1,8.3-30.5,22.3-48.6,22.6c-27.8,0.5-48.3-31.7-76-30.5c-26.3,1.2-52.9-2.8-77.7-11.8
		c-5.5-2-7.8-8.6-8.2-14.4S676.9,256.7,674.6,251.3 M796.1,300.8c12.7,7.1,24.6,17.6,39.1,18.1c13.9,0.5,26.3-8.2,38.4-15.2
		c14.1-8.1,29.3-14.1,45.1-17.8c15.4-3.6,32.7-5.9,42.9-18c4-4.8,7-11.2,12.9-13.3c6.3-2.3,15.8,0,18-6.3c0.7-1.9,0.3-3.9,0-5.9
		c-1.9-10.3-3.7-20.6-5.6-30.9c3.1,0.4,6.1,1.7,8.5,3.7c4.5-12.7-10-27.4-3.5-39.2c2.4-4.2-0.9-9.2-3.5-13.3
		c-2.6-4.1-3.9-10.7,0.4-12.8c-12-26-26.9-50.7-44.3-73.5c1.5-3.4,6.6-0.6,8.7,2.4c7.9,10.7,15.8,21.4,23.8,32.2
		c5.4-30.4-1.3-62.8-18.2-88.6c-2.1-3.1-6-6.5-9-4.3c-29.6,21.6-67,32.3-103.6,29.6c-52.2-3.8-99.5-33.2-151.3-41
		c-5.8-0.9-14.2,0.8-13.8,6.6c1.4,17.9,6.3,35.5,14.3,51.5c1.4,2.7-0.5,6.2-3.2,7.6c-2.7,1.4-5.9,1.4-8.9,1.3
		c4.3,6.7,8.5,13.4,12.8,20c1.4,2.3,2.9,4.7,2.8,7.4c-0.1,2.7-2.5,5.4-5.1,4.8c-0.5,2.5,2.7,4.4,5.1,3.8c2.4-0.6,4.2-2.7,5.7-4.7
		c6.4-8.2,12.7-16.4,19.1-24.7c3.3,1.2,2,6.2,0.2,9.2c-18.1,28.9-36.2,57.7-54.4,86.6c5.2,1.6,8,7.5,8,12.9s-2.1,10.6-3.7,15.8
		c-3.5,11.5-4.4,23.7-2.7,35.6c1.8,1.3,2.2-2.6,3.6-4.3c1.9-2.4,5.6,0.6,6.8,3.4c3.8,8.9,4.2,19.2,1,28.4
		c-2.1,6.1,4.4,12.2,10.8,12.9c6.4,0.7,12.6-2.1,19-3.4c6.3-1.3,14-0.6,17.5,4.8c-5,0.6-10,1.1-15,1.7c13.7,6.3,29.6,4.1,44.6,5.5
		C772.3,290.6,784.9,294.5,796.1,300.8 M641.9,447.2c-0.3,0.5-0.1,1.2,0.2,1.7c3.4,7.2,10.5,12.6,18.3,13.9c0.9,0.1,1.8,0.2,2.6-0.3
		c1.1-0.7,1.2-2.3,1.1-3.6c-0.1-5.3-0.7-11.4-5.1-14.3c-4.8-3.2-11.2-0.6-16.3,1.9C642.4,446.7,642.1,446.9,641.9,447.2
		 M865.7,473.4c-4.3-2.3-9.9-3.5-13.9-0.7c10.1,7.9,19.7,16.4,28.9,25.4c1.7-1.1,1.5-3.5,0.9-5.4C879,484.5,873.2,477.4,865.7,473.4
		 M879.3,472.7c-1.7-0.1-3.5-0.3-5.2-0.4c3.9,9.4,12,17.1,21.7,20.4c1.6-0.4,1.2-2.9,0.3-4.3C892,481.9,886.2,476.4,879.3,472.7
		 M643.2,465.1c1.9-4.7-0.8-10.2-4.9-13.2c-4.1-3-9.3-3.9-14.3-4.7c-0.7-0.1-1.6-0.2-2.2,0.3c-1.3,1.1,0.2,3.1,1.6,4.1
		C630.1,456.2,636.7,460.6,643.2,465.1 M672.1,454.2c2-0.7,2.4-3.3,2.2-5.4c-0.9-7.3-6.4-13.7-13.4-15.8c-2.4,1.1-2,4.7-0.4,6.8
		c1.6,2.1,4,3.5,5.2,5.8c0.9,1.8,1,3.8,1.8,5.7C668.3,453.2,670.2,454.9,672.1,454.2 M886.4,470.6c3.6,4.4,7.5,8.6,11.8,12.4
		c2.2,2,4.6,4,7.4,5.3c0.6-5-1.3-10.3-5-13.8S891.3,469.6,886.4,470.6 M883.2,451.5c-1.7,1-1.4,3.8,0.1,5c1.5,1.3,3.6,1.5,5.6,1.6
		c6.3,0.4,12.5,0.9,18.8,1.3c-5.8-5.9-14.4-9.1-22.7-8.4C884.4,451.1,883.7,451.2,883.2,451.5 M894.6,444.1c-2-2.2-5.6-2.7-8.1-1
		c3.6,3.6,8.7,5.6,13.8,5.5c-0.9-2.3-3.2-4-5.7-4.3 M963.4,21.6c0,1.2,2.3,1.1,2.2-0.1c-0.1-1.7-0.2-3.5-1.2-4.8s-3.5-1.6-4.3-0.1
		c1,1.7,2.1,3.4,3.1,5L963.4,21.6z"/>
	<path class="st0" d="M916.4,167.5c-0.7,1.6-1.5,3.2-2.7,4.4c-4.4,4.6-12.4,3.8-17-0.5s-6.1-11.1-5.5-17.4c0.5-5.5,5.6-10,11.1-10.4
		s10.9,3,13.5,7.9S918.4,162.4,916.4,167.5 M909.6,159c1.2-0.6,1.8-2.1,1.4-3.3c-1.1-1.5-3.6-1.6-4.8-0.3c0.5,1.7,1.8,3.1,3.4,3.8
		L909.6,159z"/>
	<path class="st0" d="M890.3,205.2c6.7,7.1,7,19.4,0.5,26.8c-1.7,1.9-1.7,4.6-1.9,7.1c-0.9,8.8-6.1,16.8-12.6,22.8
		s-14.4,10.3-22.2,14.6c-2.6,1.4-5.4,2.9-8.4,3.4c-3.3,0.5-6.7-0.3-9.9-1.2c-17.7-4.9-36.2-12.9-44.9-29c-1.6-3-2.9-6.3-3.2-9.7
		c-0.9-8.7,4.4-17,10.6-23.1c12.8-12.6,31.1-19.8,49-18s34.8,13,42.4,29.3C892.6,221,891.5,212.9,890.3,205.2 M839,224.1
		c-5.9,4.9-13.9,6.2-20.8,9.6c-6.9,3.3-13.3,10.8-10.7,18c-2.4,0.4-4.2-2.4-4.5-4.8c-0.7-6.6,4.2-12.6,9.9-15.9
		c5.7-3.4,12.3-4.9,18.3-7.6c2.6-1.2,5.2-2.7,6.3-5.3c1.1-2.6-0.2-6.3-3-6.6c-9.8-1.1-20.2,0.5-28.2,6.1
		c-8.1,5.6-13.3,15.8-11.4,25.5c1.8,9.1,9.3,16.1,17.5,20.4s17.3,6.7,25.7,10.4c3.1,1.4,6.6,3,9.8,1.7c1.3-0.5,2.4-1.5,3.5-2.5
		c4-3.6,8-7.2,11.9-10.7c5.5-5,11.2-10.1,14.9-16.5s5.3-14.6,2.2-21.4c-1.6-3.6-4.5-6.6-7.6-9.1c-9.5-7.5-22-10.4-34.2-10.5
		c-2.4,0-5.4,0.7-5.6,3c4.5,0.7,9.5,3.1,10.2,7.5C843.7,218.8,841.6,222,839,224.1z"/>
	<path class="st0" d="M758.3,148.8c1.5-0.9,3.1-1.6,4.8-1.6c2.8-0.1,5.4,1.6,7.7,3.2c3.2,2.2,6.5,4.5,8.6,7.8c4.6,7.3,1,18.3-7,21.8
		c-7.9,3.5-18.2-0.8-21.7-8.8C747.3,163.4,750.8,153.2,758.3,148.8 M773.6,159.1c-1,0-2,0-3,0c-0.5,0.8-0.9,1.7-1.4,2.5
		c0.6,1.1,2.1,1.7,3.3,1.4c1-1,1.5-2.5,1.2-4L773.6,159.1z"/>
</g>
</svg>
