<?xml version="1.0" encoding="utf-8"?>
<!-- Generator: Adobe Illustrator 19.1.0, SVG Export Plug-In . SVG Version: 6.00 Build 0)  -->
<svg version="1.1" id="Layer_1" xmlns="http://www.w3.org/2000/svg" xmlns:xlink="http://www.w3.org/1999/xlink" x="0px" y="0px"
	 viewBox="54 -102.7 950 800" style="enable-background:new 54 -102.7 950 800;" xml:space="preserve">
<style type="text/css">
	.st0{fill:#FFFFFF;}
</style>
<g>
	<path class="st0" d="M451,130c-5.3-15.9-10.6-32.1-10.8-48.8c-0.1-10,1.3-21.2-4.9-29.1c-17.8-22.8-25.2-53.4-19.7-81.8
		c20.3,19.6,40.7,39.1,61,58.7c10.8-5.4,15.1-18.2,21.3-28.6c10.9-18.2,30.7-30.9,51.9-33.1c1.9-0.2,4-0.3,5.7,0.7
		c3.2,2,3,6.7,2.2,10.4c-5.3,25.2-17.1,49-33.8,68.6c2,22.7,17.2,43.9,38.2,53c35.9,15.7,70.4,34.5,103,56.2
		c16.8,11.2,33.3,23.4,46.2,39c12.6,15.2,21.3,33.2,28.5,51.6c11.3,29,19,59.5,21.9,90.4c2.5,25.5,0.6,54.2-17.7,72
		c-11.5,11.2-14.9,28.8-12.6,44.7c2.3,15.9,9.4,30.6,16.5,45c2.8,5.7-5.6,10.2-12,10.9c-19.6,2.2-39.5,2.5-59.2,1.1
		c2.3,22.2,9.9,43.8,21.9,62.6c7.1,11,2.9,26.5-6.2,35.9c-9.1,9.4-21.9,14.1-34.5,17.9c-37.1,11.1-75.9,16.5-114.6,16.1
		c-8.2-0.1-19.1-3-19-11.2c0-6.7,7.6-10.3,14-12.4c32.1-10.5,64.2-21.1,96.3-31.6c6.5-2.1,13.6-4.8,16.6-11
		c5.6-11.5-7.3-22.7-15.8-32.3c-10.8-12.1-16.1-28.8-14.2-44.9c2.8-24.1,20.6-44.8,22.3-69c-19.8-4.3-39-11.1-57.1-20.2
		c-2.2-1.1-4.6-2.5-5.1-4.9s2.8-5,4.4-3.1c-6.2-3-12.4-5.9-18.6-8.9c-1.8,37.2,5.2,74.9,20.5,108.9c2,4.4-1.2,9.7-5.6,11.8
		s-9.4,1.7-14.2,1.2c-27.2-2.9-53.9-9.6-79.2-20c-10.7-4.4-12.8-20.4-5.6-29.4c7.2-9.1,20.4-11.5,31.7-9c11.3,2.5,21.2,9,30.9,15.5
		c-4.2-17.1-8.4-34.1-12.7-51.2c-11-44.3-21.3-93.7,1.1-133.5c6.8-12.1,16.4-27.6,7.3-38.1c-13.3,11.7-23.2,27.2-28.5,44.2
		c3.3,0.7,6.6,1.4,9.9,2.1c-2.7,3.8-3.4,9.1-1.7,13.5c-11,8.7-28.8,0.9-34.6-11.9c-5.8-12.8-2.9-27.8,1.6-41.1
		c4.5-13.3,10.5-26.5,10.7-40.5c0.3-22.9-15.1-44.6-11.6-67.2c-3.4,8.3-15.8,9.1-22.9,3.8C457,147.5,453.8,138.5,451,130
		 M746.6,339.2c3.2-18.2,3.9-36.9,2.1-55.3c-2,3.6-4,7.3-5.9,10.9c1.6-35.1-13.4-69.6-36.2-96.3c-22.8-26.7-53-46.2-84.7-61.5
		c3.6,13.3,10.9,25.5,20.9,35c1.3,3-0.9,7-4.1,7.5c-0.8-2.1-1.6-4.3-2.4-6.4c-2.7,0.4-5.4,0.8-8.1,1.2c-3.5-20.8-21.9-35.2-39-47.5
		c-20.9-15.1-41.9-30.1-62.8-45.2c1,6.8-3.3,14-9.7,16.5c4.4-14.7,4.7-30.7,0.7-45.6c-1.7-6.3,3.3-12.2,7.5-17.2
		c14.7-17.4,24.3-39.1,27.4-61.6c-20.4,0.9-40,12.7-50.3,30.4c-4.4,7.6-7.2,16.2-12.9,22.9c-5.7,6.7-15.8,11-23.3,6.5
		c-0.3-11.7-10.3-22.4-21.9-23.6c3.3,6.2,4.1,13.7,2,20.5c-6.3-18.3-15.3-35.6-26.5-51.3c-4.6,26.5,4.9,55.1,24.5,73.6
		c3.7-5.4,5.8-12,5.8-18.6c3.6,0.3,7,2.7,8.4,6.1c-12.5,10.7-13.8,32.1-2.7,44.2c2.4,2.7,5.5,5.2,6.2,8.8c-4,1.8-8.3,3.1-12.7,3.7
		c4,10.6,8.1,21.3,12.1,31.9c1.1,2.8,3.1,6.2,6,5.5c5.9-1.2,12.2,3.8,12.3,9.8c5.9-9.9,13.1-19.2,21.3-27.4
		c-8.2,14.4-7.5,32.5-1.9,48.1s15.4,29.3,25.2,42.6c-2.9-14.9-11.3-28.2-16.3-42.5s-5.9-32,4.5-43.2c-3,25.1,3.4,51.2,17.6,72.1
		c10,14.7,3.4,35-6.4,49.8s-22.9,28.4-26.5,45.8c-0.8,3.9-0.9,8.6,1.9,11.4c2.9,2.8,9.2,1.2,8.8-2.8c-1.4-12.5,5.2-24.4,13.2-34.1
		s17.6-18.1,24.1-28.8c9.9-16.4,11.5-36.4,12.7-55.6c0.5-8.3,1.1-16.6,1.6-24.9c9.1,26.1,6.1,56.2-7.9,80.1
		c-6.8,11.6-2.4,27,6.1,37.5c8.4,10.5,20.1,17.8,30.3,26.6c10.1,8.9,19.2,20.6,19.2,34.1c-15.9-22-35.1-41.5-56.9-57.7
		c-23.1,25.5-26.4,63.6-21,97.5c5.4,34,18,66.5,22.6,100.7c1,7.6,1.5,15.8-2,22.6c-6.5-20.2-28.3-34.2-49.3-31.8
		c7.6-1,15.3,5.8,15.3,13.5c-6.5-4.3-14-8.8-21.6-6.9c-7.6,1.9-11.4,14.1-4.2,17.3c28.5,12.5,59.4,19.2,90.5,19.6
		c-15.6-37.9-22.2-79.4-19.2-120.3c-4.4-0.3-8.4-4.1-8.8-8.5c22.8,6.8,44.6,17,64.3,30.4c-4.2,2.9,2.1,8.5,7,9.5
		c6.9,1.4,13.8,2.7,20.6,4.1c-0.6-5.1,0.6-10.4,3.3-14.8c5.5,14.3,2,30.5-3.6,44.8s-13.2,27.9-16,43s0.5,32.6,12.9,41.6
		c6.9-9.6,21.7-12.4,31.7-6.1c-9.2,3.1-18.4,6.1-27.5,9.2c2.1,4.9,5.7,9,10.2,11.8c6.4-6.1,16.4-8,24.7-4.8
		c-7.8-18.3-10.7-38.6-8.2-58.3c-11.7-0.4-23.2-4.6-32.5-11.7c10.7,1,21.3,3.4,31.4,7.2c9.2-15,18.7-29.9,30.6-42.9
		c21-22.9,50.7-42.2,55.2-73c-4.9,6.3-9.7,12.7-14.6,19c10.8-21.1,15.7-45.3,13.9-68.9C754.1,326.4,751.1,333.4,746.6,339.2
		 M708,447.9c5.4,13.5,7,28.4,4.7,42.7c-0.3,1.7-0.7,3.6-1.9,4.8s-3.6,1.5-4.6,0.1c1.1-2.5,2.1-5.2,1.7-8c-0.4-2.7-2.9-5.4-5.6-4.8
		c-4.7,0.9-9.4-2-14.2-1.4c-4.2,0.6-7.6,4.1-9.2,8c-1.7,3.9-2,8.2-2.2,12.5c6.9,2.8,14.6,2.6,22.1,2.3c13.4-0.5,26.9-0.9,40.3-1.4
		c1.3,0,2.6-0.1,3.5-1s0.6-2.8-0.7-2.9c-2-0.1-3.3-2.2-4.1-4c-8.9-19-12.5-40.6-10.1-61.4c0.3-2.3,0.5-4.8-0.8-6.7
		c-5.3,5-10.6,10-15.9,15C709.1,443.2,707.1,445.6,708,447.9 M493.2,169.1c1.4,15.5,9.9,29.7,11.9,45.1c2.1,15.7-2.7,31.7-10.4,45.5
		c-2.1,3.8-4.6,7.5-5.8,11.7c-1.3,4.2-1.3,9,1.2,12.6c9.4-17.8,20.1-35,31.9-51.4c3.2-4.5,6.4-11,2.5-14.9
		c-11.6-11.7-20.6-26-26.1-41.6C497.4,173.3,496.1,170,493.2,169.1 M674.6,570.1c-3.4,0.9-7.6,4-9.9,1.3c-0.8,0.3-1.4,0.9-1.7,1.7
		c1.8,4.9,7.9,6.4,12.3,9.2c6.5,4.1,10,11.7,11.8,19.2c2.9-2.6,5.9-5.4,7.8-8.8c1.9-3.4,2.7-7.7,1.2-11.3c-1.9-4.6-6.8-7-11.3-9.1
		C681.6,570.7,678,569.2,674.6,570.1 M664.7,601.8c1.8,4.5,2.3,9.5,1.3,14.2c8.1,0,15.1-8.4,13.6-16.4c-0.2-1.3-1.3-2.3-2.2-3.2
		c-2.2-2.1-4.4-4.1-6.6-6.2c-2.3-2.1-4.7-4.3-7.7-5.1s-6.8,0.2-8.1,3C658.7,592.2,662.5,596.5,664.7,601.8 M708.8,472
		c-0.5-7.7-2.2-15.3-5.1-22.4c-7.8,7.2-13.8,16.2-17.4,26.1c6,0.6,12,1.1,18,1.7c0.9,0.1,1.8,0.2,2.7-0.2
		C708.7,476.5,708.9,474,708.8,472 M650.4,595.3c-3.1-2.2-8.4-3.5-10,0c5.2,3.6,6.6,10.5,7.7,16.7c0.6,3.7,1.1,7.8-1,10.9
		c8.9-1.4,14.4-12.8,10.1-20.6C655.6,599.4,653.1,597.2,650.4,595.3 M664.4,555.7c-1.1,0.2-2.2,0.4-3.3,0.7c-0.5,0.1-1,0.2-1.3,0.6
		c-0.3,0.5-0.2,1.1,0,1.7c0.9,3.1,2.3,6,4.1,8.7c6.1-5.5,15.5-4.2,23.5-2.6c-0.1-2.2-0.2-4.4-1.5-6.2c-1.3-1.7-4.2-2.4-5.6-0.8
		C676.4,553.8,669.9,554.6,664.4,555.7 M618.6,605c2.8,1.1,5.6,2.2,8.4,3.3c-0.5,1.6-0.4,3.3,0.2,4.9c2.7,0.2,3.9,3.4,4.1,6.1
		c0.2,2.7,0.3,5.7,2.4,7.4c3.2-2.7,5-7,4.5-11.1c-0.5-4.7-3.5-8.7-6.4-12.4C628.5,598.9,620.6,600,618.6,605 M612.1,607.8
		c-4.2,0.3-8.4,1.6-12.1,3.7c2.3,0.5,3.8,2.7,5.1,4.8c1.7,2.7,3.4,5.4,5.1,8c1.3,2.1,2.7,4.3,5,5.3c2.2,1,5.5,0.3,6.1-2.1
		c0.3-1.2,0-2.4-0.5-3.6c-1.4-3.4-3.7-6.5-6.6-8.7C612.1,613.5,611.2,610.4,612.1,607.8 M599,630.5c-4.6,0.1-2.6-10.3-7.2-10.2
		c-1.5,0-2.3-1.8-2.6-3.3c-0.4-2.2-2.4-3.9-4.6-4.1c-2.2-0.2-4.5,1.2-5.3,3.3c-0.6,2.8,2,5.2,4.2,7.1c2.2,1.9,4.3,5.1,2.7,7.5
		c-1,1.5,1.5,2.7,3.3,2.8C593,633.6,597,633.3,599,630.5 M571.5,626.2c1-1.8,0.1-4.3-1.8-5c-1.9-0.8-4.2,0.4-4.8,2.4
		c2.4,2.7,4,6,4.7,9.5c0.6,3,5.7,3.2,6.9,0.3c1.2-2.8-1.5-6.3-4.5-6.4 M548.3,627.6c2,3.6,4.9,6.7,8.3,9c1.1-0.5,1.9-1.5,2.2-2.6
		C558.1,629.3,552.7,626,548.3,627.6 M539.1,630.3c-2-1.5-4.5,1.3-5,3.7c2,2.7,6.1,3.7,9.2,2.2c-2.1-1.3-3.7-3.4-4.5-5.8
		 M620.5,135.2c-0.8-1-2.4-1.2-3.4-0.4s-1.2,2.4-0.5,3.4c1.6,0,3.1-1.3,3.5-2.8 M608.3,131c0,1,0.1,1.9,0.1,2.9
		c1.4,0.2,2.8-0.7,3.3-2c0-1.4-2.2-2-3-0.9 M467.6,149.6c0.6,0.9,2.2-0.1,1.8-1C469.2,147.6,467.5,148.6,467.6,149.6L467.6,149.6z"
		/>
	<path class="st0" d="M515.8,16.4c1.1-0.7,2.6,0.5,2.6,1.8s-0.9,2.4-1.7,3.4c1,7.4-0.8,15.1-5,21.3c-8.2-3.5-13.9-12.1-14-21
		c0-0.8,0.1-1.7,0.6-2.4c1.1-1.5,3.7-0.9,4.7,0.7s1,3.5,0.9,5.4c0,3,0.3,6.5,2.7,8.4c2.4,1.9,7.1-0.2,6.1-3
		c-2.8-8.4-5.5-17.2-4.5-26s7-17.7,15.8-19.1c-2.1,4.6-7.4,6.9-10.1,11.2c-3.1,5-1.9,11.4-0.6,17.2
		C513.6,15.5,514.7,17.1,515.8,16.4z"/>
	<path class="st0" d="M501.3,82.8c2.6,4.5-1,10.6-5.9,12.3s-10.3,0.2-15.1-1.9c-3-1.3-3.4-5.6-1.7-8.3s5-4.1,8.1-5
		C491.8,78.3,498.6,78.2,501.3,82.8z"/>
	<path class="st0" d="M658,511.5c-6.6-3.3-14.6,0.4-21.9-0.8c-0.8-0.1-1.7-0.4-2.3-1c-1.2-1.2-0.9-3.1-0.5-4.7
		c4.9-0.3,9.9-0.5,14.8-0.8c3.5-0.2,7.5-0.1,9.7,2.6C658.8,508.1,659.2,510.3,658,511.5z"/>
	<path class="st0" d="M658.3,199.7c-2.7-1.5-4.1-5.2-3.1-8.1c-3.2,1.1-6.6-3.4-4.7-6.1c1-1.4,3.1-1.8,4.5-1c1.5,0.9,2,2.9,1.3,4.4
		c1.3,0.1,2.7,0.1,4,0.2C661.7,192.7,660.9,196.9,658.3,199.7z"/>
	<path class="st0" d="M670.8,215.2c-1.2,0.2-2.4,0.4-3.5,0.6c0-1.4,0-2.8,0-4.2c1-0.7,2.4-1,3.6-0.8
		C670.9,212.3,670.9,213.8,670.8,215.2L670.8,215.2z"/>
	<path class="st0" d="M644.1,183.4c-0.3-3.2,3.5-6,6.4-4.8c0.4,3.3-1.5,6.8-4.5,8.3c-0.7-1.1-1.5-2.2-2.2-3.3L644.1,183.4z"/>
</g>
</svg>
