<?xml version="1.0" encoding="utf-8"?>
<!-- Generator: Adobe Illustrator 19.1.0, SVG Export Plug-In . SVG Version: 6.00 Build 0)  -->
<svg version="1.1" id="Layer_1" xmlns="http://www.w3.org/2000/svg" xmlns:xlink="http://www.w3.org/1999/xlink" x="0px" y="0px"
	 viewBox="54 -102.7 950 800" style="enable-background:new 54 -102.7 950 800;" xml:space="preserve">
<style type="text/css">
	.st0{fill:#FFFDFD;}
</style>
<g>
	<path class="st0" d="M511.1,300.3c-0.7,2.6-1.7,5.5-6.2,4.4c2.9-15.6,4.1-31.5,3.6-47.4c7,1,7.6,7.6,7.3,13.1
		C515.3,280.5,513.7,290.5,511.1,300.3z"/>
	<path class="st0" d="M555.7,305.2c0.3-2.6,0.8-5.6,7.6-3.7c0.2,0.1,0.4,0.3,0.4,0.5c-2.2,23.1-4.4,46.2-6.6,69.2
		c15.7-8.4,30.4-18.8,43.4-30.9c6.1,10.6,16.6,18.6,28.5,21.5c3.9-9.4,9.6-18.4,18.2-23.8c8.6-5.4,20.6-6.2,28.5,0
		c-16.6-1-33.3,9.7-39.2,25.2c3,1.7,5.9-2.1,7.9-4.8c2-2.7,7.6-3.9,7.8-0.5c-3.4,6.2-6.7,12.4-10.1,18.6c4-0.7,7.8-2.8,10.6-5.8
		c0.8,2.2,1.5,4.3,2.3,6.5c7.6-7.1,15.1-14.2,22.7-21.2c3.4-3.2,7.1-7.7,5.1-11.9c18.4-15.9,27.8-41.6,23.9-65.6
		c2.1,3.2,7.3,2.6,9.8-0.3c2.5-2.8,3-6.9,3.2-10.7c0.8-19.8-5.3-39.8-17-55.9c-5.4-0.3-6,7.6-5.6,13.1c1.6,20.1-11.6,38.1-24.2,54
		c-9.5,12.1-19.1,24.1-28.6,36.2c-8.3,10.5-19,22-32.3,20.5c-9.1-1.1-16.2-8.2-22.5-15c-15.1-16.2-30.2-32.4-45.3-48.6
		c-9-9.6-18.5-20.5-18.5-33.7c0-11,5.4-25.1-3.9-30.9c-9.9-6.2-17.1-16.5-19.5-27.9c-20.1,18.2-39.6,37.2-58.3,56.9
		c4.2-0.4,8.3-0.8,12.5-1.3c-8.8,10.9-14,24.8-14.4,38.8c1.2-3.1,6.2-2.4,7.9,0.4s1.4,6.3,1.4,9.6c-0.1,17.8,12.3,33.3,26,44.8
		s29.4,20.9,40.3,35c-9.8-7-23.3-4.5-35.1-1.9c-94.3,21-192.1,26-288,14.8c5.6-4.4,13.1-5.2,20.2-5.9
		c86.5-8.6,172.8-20.7,257.7-39.5c-24.6-21.9-38.5-55.4-36.5-88.3c18.1-28.8,43.6-52,68.8-74.9c6.1-5.5,8.1-14.2,9.6-22.3
		c2-11,4.3-22.9,16.6-27.9c5.1-2,10.8,0.1,13.6,4.8c8.5,13.9,28.6,11.3,44.8,11.4c21.1,0.2,41.2,8.1,60.8,15.8
		c11,4.3,21.9-5.8,30.1-14.4c8.1-8.6,21.5-17,30.8-9.7c5.9,4.7,6.5,13.3,6.5,20.8c0.1,14,0.2,28,0.3,41.9c0.1,8.7-1.5,19.7-9.8,22.2
		c16.8,20.9,22.2,50.5,13.8,76c-7.8,23.6-16.1,48.1-33.7,65.6c-4.9,4.8-10.6,9.4-12.9,15.9c10-3.8,21.8-2.8,31,2.7
		c7.2,4.3,13.5,12.5,7.2,21.9c-1.7,2.5-4.9,3.2-7.5,1.7c-13.7-7.8-32.9,12-43.8,1.2c-8.1-8.1-22.4-8.7-31.2-1.5c-2-3.2,0-8.1,3.6-9
		c-3.7-0.3-2.5-5.9-2.9-9.6c-1.2-11-22-8.6-25-19c-1.2-4.3-6.4-5.9-10-3.3c-11.1,8.2-22.3,16.3-33.4,24.5c0.2,9.3,17,8,20.5,16.6
		c3.3,8-7.6,14.1-16.1,15.9c-13.8,2.9-30.1,5-40.1-4.9c-5.9-5.8-15.5-4.6-23.8-4.9c-8.3-0.3-18.6-5.3-17.4-13.5
		c1.9-13.1,21.4-14.3,27.9-25.8c5.4,3.2,16.6,10.8,22.6,9c-7.7-22.1-19-43-33.4-61.5c22.6,6.4,23.7,44.5,46.5,49.9
		C551.7,340.8,553.7,323,555.7,305.2 M642.4,173.6c-15.6-4.3-32.2-7-47.8-2.7c-7.6,2.1-15.2,6.2-19,13.2c-3.6-18-12-35.1-24.1-49
		c-4.7-5.4-10.6-10.7-19-8.8c-2.2,0.5-4.6,2.7-5.2,4.9c-4.3,14.9-8.6,29.9-12.9,44.8c-1,3.5-2,7.1-1.6,10.7
		c0.9,8.5,9.1,14.6,14.9,20c0.3,0.2,0.6,0.2,0.8-0.1c3.7-5.8,9-10.6,15.1-13.7c3.9-2,9.3-3.3,11.3,4.9c-11.5-0.5-16.6,11-19.4,20.9
		c-2.7,9.8-5,20.3-1.9,29.9c5.2,16.1,23,23.9,35,35.8c11.5,11.4,18.1,27.1,29.8,38.3c2.1,2,7.3,1.7,5.9-0.8
		c-4.5-7.8,1.2-19.4,10.1-20.5c8.9-1.1,17.4,8.6,14.9,17.3c9.6-10.9,19.3-21.8,28.9-32.7c11.6-13.2,23.5-26.7,29.5-43.2
		c1.6-4.4,2.8-9,2.8-13.7c0-4.6-1-9.1-3.1-13.2c-4.6-9.1-13.5-15.1-22-20.6c9.6-0.8,19.4,4.2,24.5,12.3c0.3,0.5,1.1,1,1.7,1
		c7.5,0.3,13.3-5.8,15.6-12.5c2.1-5.9,2-12.3,1.9-18.5c-0.2-14.2-0.4-28.4-0.6-42.6c0-0.2,0-0.3-0.1-0.5c-1.1-3.6-3.8-3-5.9-2.2
		c-20.4,7.6-33.8,26.8-45.8,45c-1.8-1.4-3.6-2.8-5.3-4.2C649.1,175.2,645.5,174.5,642.4,173.6 M480.7,338.1
		c-45.4,16.3-94,21.3-142,27.1c-4.4,0.5-9.3,1.3-12.2,4.7c56,1.1,112.2-6.6,165.8-22.6C488.4,344.2,484.5,341.1,480.7,338.1
		 M576.4,162.4c0.3,0.7,0.6,1.4,1.2,2c1.5,1.3,3.8,0.7,5.6,0c3-1.2,6-2.3,9-3.5c7.9-3,16.9-3.2,24.5,0.5c3.8,1.8,8.5,0.9,12.8,0.3
		c4.9-0.7,10.9-0.2,13.1,4.2c0.7,1.5,2.9,0.8,4.3-0.1c2.1-1.5,5.5-3.4,5.7,3.7c5.4-8.7,0.6-10.7-3.4-11.9
		c-15.4-4.6-30.8-9.3-46.2-13.9c-4.7-1.4-9.6-1.8-14.4-0.6c-3.6,0.9-7.4-0.1-11-0.6c-3.9-0.5-8.6-0.1-10.9,3.2
		C570.6,150.8,573.8,156.5,576.4,162.4 M576.2,394.5c-3.1-3.5-7.1-6.1-11.5-7.6c-9.1-2.9-12.9-13.7-15.7-22.7
		c-4.1,0.2-4.5,3.1-4.7,5.6c-0.6,7-1.2,14-1.9,21c-0.1,1.3,0.8,2,2,1.5c3.6-1.6,4.7,2.9,3.8,5.8c-1,3.2-2.8,7.2,1.9,8.8l0,0
		c4.3-0.7,5.3-4.3,5.1-7.6c-0.3-4.5-2.7-8.9-6.4-11.5c2.2-3.4,7.8-1.4,10.1,1.9c2.3,3.3,3.1,7.7,6,10.5
		C566,395.8,575.3,399,576.2,394.5 M531.6,376.5c-2.8,0.3-5.6,1.2-8.1,2.6c-4.3,2.4-7.7,6.1-10.3,10.3c0.5,4,5.1,6.5,9.1,6
		s7.4-3.2,10.2-6.2c1.9-2,3.7-4.4,3.9-7.2C536.6,379.2,534.4,376.2,531.6,376.5 M677.1,379c-1.2-3.1-3.4-6.8-7.8-4
		c-0.2,0.1-0.4,0.3-0.5,0.5c-2.2,3.3-4.4,6.6-6.6,9.8c3.5,2.3,7.3,4.8,12,3.5c0.3-0.1,0.6-0.2,0.8-0.3
		C679.2,385.9,678.3,382.2,677.1,379 M494.8,392.7c5.5,2.3,11.4-4,13.3-9.1c0-2.9-2.1-3-3.8-2.7c-4.2,0.7-8,2.8-10.8,6
		c-0.6,0.7-1.2,1.5-1.2,2.4C492.2,390.8,493.4,392.1,494.8,392.7 M534.6,404c0.2,2.7,1.7,5.6,5.9,4.4c0.6-5,0.1-10-1.2-14.9
		C536,395.9,534.2,400,534.6,404 M707.2,381.3c-0.1-0.7-0.5-1.3-0.9-1.8c-2.3-3.1-5.6-5.3-9.2-6.4c0.9,3.1,0.7,8.6,4.1,11
		C703.5,385.7,707.7,384.1,707.2,381.3 M688.1,375.5c-1.1-1.4-3.6-0.2-4,1.5s0.5,3.5,1.4,5c1,1.8,2.3,3.8,5.5,2.1
		c2-3.8-0.6-6.5-3.3-8 M614.6,317c3,1,6.6-4.1,1.6-6.2c-5.1-0.4-4.7,5.4-1.7,6.5L614.6,317z"/>
	<path class="st0" d="M657.3,255.9c-1.2,1.6-2.5,3.3-4.4,4c-2.4,0.9-5.3,0-7.3-1.6c-4.4-3.5-6.1-9.8-4.5-15.2
		c1.8-6.3,7.3-11.2,13.5-13c2.4-0.7,5,0.2,6.4,2.3C667.1,241.3,662.3,249.2,657.3,255.9z"/>
	<path class="st0" d="M593.1,258.3c-2.5,2.5-6.7,2.5-9.9,1s-5.6-4.2-8-6.8c-2.5-2.8-5.2-5.9-5.7-9.7c-0.7-5.3,3.8-10.6,9.1-11.1
		c3.9,0.7,7.9,1.5,11.4,3.5s6.4,5.3,7,9.2c0.4,2.6-0.2,5.1-0.9,7.6C595.5,254.3,594.8,256.7,593.1,258.3z"/>
</g>
</svg>
