<?xml version="1.0" encoding="utf-8"?>
<!-- Generator: Adobe Illustrator 19.1.0, SVG Export Plug-In . SVG Version: 6.00 Build 0)  -->
<svg version="1.1" id="Layer_1" xmlns="http://www.w3.org/2000/svg" xmlns:xlink="http://www.w3.org/1999/xlink" x="0px" y="0px"
	 viewBox="-122 -123.6 595.3 841.9" style="enable-background:new -122 -123.6 595.3 841.9;" xml:space="preserve">
<style type="text/css">
	.st0{fill:#FFFFFF;}
</style>
<g>
	<path class="st0" d="M381.4,186c-0.8,3.5-0.1,6.4,2.3,9c0.6,0.7,1,1.4,1,2.5c0,1.3,0.8,2.5,1.3,3.9c-1.2,1.1-0.8,2.6-0.2,4
		c0.5,1.2,1.1,2.3,1.6,3.5c0.4,1,0.4,2.4,2,2.3c0.4,1.2,1,2.5,1.3,3.8c0.2,0.9-0.1,1.9-0.1,2.9c0,0.7,0.2,1.5,0.5,2.1
		c1.5,2.3,2.1,4.8,2.1,7.5c0.1,2.4,1.7,4.1,2.9,6.1c1.1,1.9,1.9,4.1,3.7,5.6c0.1,0.1,0.2,0.3,0.3,0.4c1.5,4.4,3.1,8.9,2.1,13.7
		c-0.2,1.1-0.8,1.4-1.8,1.6c-2.4,0.6-4.8,1.4-7.1,2.2c-0.7,0.3-1.6,0.7-1.9,1.4c-0.9,1.7-2.4,2.5-4,3.4c-1.2,0.7-2.1,1.8-3.2,2.6
		c-1.1,0.8-2.3,1.4-3.5,2.2c-2,1.4-3.9,2.8-5.8,4.2c-1.6,1.1-3.2,2.1-4.7,3.3c-2.4,2-4.8,4.1-7.2,6.1c-0.2,0.2-0.3,0.4-0.5,0.5
		c-3.8,1.5-5.6,5.7-9.3,7.4c-0.3,0.2-0.5,0.6-0.8,0.9c-2,2.8-4,5.5-6.5,7.9c-0.4,0.4-0.9,0.7-1.3,1c-0.9,0.7-1.8,1.4-2,2.6
		c-0.3,1.4-1.1,2.3-2.6,2.5c-0.8,0.2-1.5,0.6-2.3,0.6c-2,0.1-3.7,1-5.4,1.9c-1.9,1.1-3.8,1.8-6,1.1c-0.5,0.5-0.9,1-1.3,1.4
		c-0.8,0.8-1.6,0.8-2.6,0.4c-1.5-0.7-3.1-1.4-4.6-2.1c-1.2-0.6-2.4-1.3-3.7-1.8c-2.6-1-5.3-1-8-0.3c-0.1,0-0.3,0.1-0.4,0.3
		c-0.9,1.7-2.7,3-2.4,5.2c0.1,0.6,0.2,1.5-0.2,1.8c-1.1,1.2-1.1,2.6-0.9,4.1c0.3,2.3-0.8,4.3-1.1,6.4c-0.1,0.7-0.4,1.5-0.3,2.1
		c0.9,4-0.3,7.6-1.4,11.3c-0.3,1-0.3,2.1-0.3,3.1c0,1.4-0.4,2.4-1.3,3.5c-0.7,0.8-1.2,1.9-1.4,3c-0.4,2.9-0.6,5.8-0.8,8.7
		c0,0.5,0,1.1,0.2,1.4c0.7,0.9,0.6,2.3,1.1,3c1,1.5,0.6,3.4,1.3,4.7c1.3,2.6,1.8,5.3,2.7,7.9c1,3.2,2.5,6.2,5.4,8.3
		c0.9,0.6,1.3,2,1.8,3.1c1.3,2.7,3.7,4,6.4,4.8c2.7,0.8,5.2,2.1,7.5,3.8c1.1,0.9,2.5,1.5,3.7,2.2c0.8,0.5,1.6,1.1,2.4,1.6
		c1.4,0.8,2.9,1.4,4.2,2.3c1.6,1.1,3.1,2.5,4.7,3.7c0.5,0.4,1,0.6,1.5,1c0.5,0.3,1,0.6,1.3,1c1.8,2.2,3.5,4.4,5.3,6.6
		c0.4,0.5,0.8,1,1.3,1.4c3.5,3,7,6,10.4,9.1c0.9,0.8,1.5,2,2.4,3c1.1,1.3,2.4,2.4,3.5,3.7c3.5,4.4,7,8.8,10.4,13.3
		c0.5,0.6,0.5,1.6,0.8,2.5c0.2,1-0.3,2.5,1.6,2.3c1.3,2.4,3.8,4.2,4.1,7.2c0.1,0.6,0,1.2,0.3,1.7c2,3.7,2.8,7.7,2.8,11.8
		c0,1-0.2,1.9-0.3,2.9c0,1-0.2,2,0.1,2.9c0.5,2,0.5,3.9-0.2,5.7c-0.5,1.3-0.6,2.6-0.7,3.9c-0.2,2-0.3,4-1.8,5.6
		c-0.2,0.3-0.4,0.8-0.4,1.1c0.3,1.4-0.6,2.2-1.6,3c0.2,0.8,0.5,1.5,0.7,2.3c-0.3,0.3-0.8,0.7-0.9,1.1c-0.4,1.9-1.5,3-3.4,3.6
		c-1.1,0.3-2,1.1-2.7,2.3c-0.9,1.6-2.4,2.8-3.6,4.2c-0.3,0.3-0.7,0.6-0.8,0.9c-0.1,2.8-2.5,3.2-4.3,3.8c-1,0.3-1.7,0.8-2.5,1.5
		c-2.9,2.5-6,4.6-9,6.9c-1.3,0.9-2.8,1.6-3.6,3.1c-0.2,0.4-0.6,0.8-1,0.9c-2,0.5-3.2,2.4-5.4,2.6c-0.5,0-1,1-1.3,1.6
		c-0.6,1.2-1.2,1.8-2.6,1.5c-0.7-0.1-1.7,0.2-2.2,0.7c-2.3,2.2-4.6,4.5-6.8,6.7c-0.2,0.2-0.3,0.4-0.4,0.6c-1.3,4-4.3,6.8-6.9,9.8
		c-2.1,2.5-3.8,5.1-5.5,7.8c-0.4,0.6-1,1-1.5,1.6c-2.2,2.3-4.4,4.5-6.5,6.8c-0.6,0.6-1.1,1.2-1.4,2c-1.3,2.9-3.9,4.7-6.3,6.6
		c-0.2,0.2-0.7,0.3-0.8,0.5c-1.8,4.1-5.5,6.6-8.3,9.8c-0.5,0.5-1.1,0.9-1.7,1.3c-0.8,0.5-1.7,1-2.4,1.6c-2.5,2.2-5,4.4-7.5,6.7
		c-0.8,0.7-2.7,1-3.6,0.3c-0.7-0.6-1.3-0.7-2.2-0.6c-3.6,0.4-7.1-1.4-8.7-4.7c-0.9-1.7-1.9-3.3-3.6-4.4c-0.8-0.6-1.8-1.1-2-2.4
		c0-0.3-0.4-0.7-0.7-0.9c-2.5-1.9-3.7-4.6-4.6-7.5c-0.3-1-1-1.9-1.7-2.6c-2.9-3.3-5.8-6.5-8.6-9.8c-0.6-0.7-1.4-1.4-1.7-2.3
		c-1.2-3-3.2-5.4-5.4-7.6c-0.8-0.8-1.2-1.6-1.4-2.7c-0.3-2-0.6-3.9-2.2-5.5c-0.5-0.6-0.5-1.7-0.7-2.5c-0.2-0.9-0.3-1.7-0.6-2.6
		c-0.4-1.2-0.1-2,0.9-2.7c1.6-1.2,3.4-2.3,4.6-3.8c1.5-2,3.7-3.6,4-6.4c0.1-0.9,0.8-1.8,1.5-2.4c1.8-1.8,3.8-3.5,5.6-5.3
		c0.6-0.6,1.1-1.4,1.6-2.1c2.1-2.7,4.2-5.5,6.3-8.2c0.8-1.1,1.8-2.1,2.5-3.3c1.7-2.8,3.2-5.8,4.9-8.6c0.7-1.2,1.7-2.1,2.6-3.2
		c0.6-0.7,1.3-1.5,1.7-2.3c1.5-2.8,2.9-5.7,4.4-8.6c0.4-0.8,0.9-1.5,1.5-2.2c0.6-0.8,0.9-1.6,1-2.6c0-1.6,0.3-3.1,0.5-4.9
		c1.9-0.4,2-2,2-3.8c0-2.1,0.3-4.2,0.4-6.3c0.1-0.9,0.1-1.8,0-2.7c-0.2-2.7-1.5-5.2-1.3-8c0.1-1-0.5-1.8-1.5-2.3
		c-3.2-1.6-6.1-3.5-8.9-5.7c-1.3-1-2.7-1.7-4.1-2.5c-2.3-1.5-4.2-3.3-5.5-5.7c-0.5-0.9-0.9-1.8-2.2-2c-0.7-0.1-1.2-1-1.9-1.5
		c-1.6-1.2-3.4-1.2-4.4,0.5c-1.6,2.7-4.4,4-6.5,6c-1.3,1.2-2.7,2.3-4,3.4c-1.5,1.3-3.2,2.5-4.6,3.8c-3.6,3.5-7,7.2-9.7,11.4
		c-0.5,0.8-0.6,1.5,0.1,2.2c0.9,0.9,1.8,1.9,2.9,2.6c3.8,2.4,5.1,6,5.3,10.3c0,0.6-0.1,1.4,0.2,1.9c1.4,2.5,0.9,5.2,0.6,7.8
		c-0.5,6.2-1,12.4-1.5,18.6c-0.1,0.7,0.2,1.4,0.3,2.1c0.5,2.3-0.2,3.6-2.2,4.9c-0.9,0.6-1.7,1.4-2.6,2.1c-0.5,0.3-1.1,0.7-1.6,0.8
		c-3.1,0.6-6.2,1.1-9.3,1.6c-1.7,0.2-3.5,0.2-5.2,0.3c-0.5,0-1.1,0-1.6,0.1c-1.6,0.1-3.2,0.1-4.8,0.2c-1,0.1-2,0.3-3.1,0.4
		c-0.5,0.1-1.1,0.2-1.6,0.2c-3-0.2-5.9,0.1-8.8,0.7c-1.8,0.3-3.4,0.5-4.8,1.7c-0.3,0.3-1,0.3-1.4,0.1c-2.6-1-5.1-1.1-7.7,0.1
		c-0.4,0.2-1,0.3-1.4,0.2c-3.4-1.1-6.5,0.2-9.7,0.7c-0.4,0.1-0.8,0.3-1.2,0.2c-2.7-0.7-5.3,0.2-7.9,0.5c-3.8,0.4-7.5,0.8-11.3,1.2
		c-1.1,0.1-2.2,0.8-3.4,0c-0.2-0.2-1,0.1-1.4,0.3c-3.4,2.2-7.2,1.8-11,2.2c-3.4,0.3-6.8,0.7-10.2,1c-2.8,0.3-5.6,0.8-8.4,0.8
		c-3.5-0.1-6.9,0.4-10.2,1.3c-0.4,0.1-0.9,0-1.4,0.1c-1.6,0.1-3.2,0.3-4.8,0.4c-1.1,0-2.3,0.1-3.3-0.2c-1.3-0.5-2.6-0.4-3.9-0.4
		c-2.1,0-4.1,0.2-6.2,0.7c-1.7,0.3-3.3,0.7-5,1c-0.5,0.1-1.1,0.3-1.6,0.2c-3.2-0.5-6.4-0.4-9.4,0.8c-1.6,0.6-3,0.2-4.1-0.6
		c-1.4-1-2.5-1.2-3.9-0.1c-0.2,0.2-0.6,0.1-0.4,0.1c-1.8-1.1-3.1-2-4.6-2.8c-0.3-0.2-1,0.3-1.4,0.5c0.6-2.1,0.5-2.9-1.4-4.2
		c-3-2.1-5-4.9-6.5-8.1c-0.2-0.4-0.4-0.9-0.8-1.2c-1.8-1.6-3.6-3.2-5.5-4.7c-1.4-1.1-2.6-2.1-3.4-3.7c-0.7-1.3-1.6-2.5-3-3.3
		c-1-0.5-1.1-1.8-1.7-2.5c-1.7-1.9-3-4.2-5.4-5.5c-0.3-0.2-0.7-0.4-0.9-0.8c-1.1-1.9-2.5-3.3-4.2-4.7c-2-1.6-3.6-3.7-6.2-4.5
		c-0.1,0-0.2-0.1-0.2-0.1c-0.4-0.3-0.9-0.6-1-1c-0.7-2.3-3-3.1-4.2-5c-1.1-1.8,0.4-3,0.7-4.4s1-2.7,1.5-4c0.1-0.3,0.2-0.7,0.4-0.8
		c1.4-0.7,1.8-2.3,2.8-3.2c1.8-1.6,2.5-3.8,3.6-5.7c1-1.6,1.9-3.2,2.4-5c1.3-4.1,4.6-6.3,7.8-8.7c1.1-0.8,2.4-1.4,3.5-2.1
		c0.5-0.3,0.8-0.7,1.2-1.1c1-0.9,2-2,3.1-2.7c0.7-0.4,1.7-0.7,2.5-0.5c1.6,0.4,2.4-0.3,3.3-1.4c1.1-1.3,2.3-2.4,3.5-3.6
		c0.4-0.4,0.9-0.7,1.4-0.9c2.8-0.8,4.8-2.7,7-4.4c0.6-0.4,1.1-1,1.8-1.2c1.9-0.5,2.4-2,2.8-3.6c0.3-1.3,0.6-2.7,0.7-4
		c0-1.6,0.2-3.4-0.4-4.8c-1.3-2.6-0.8-5,0-7.4c0.4-1.2,0.3-2.8,1.8-3.5c-0.1-2.7,2.4-4.7,1.8-7.6c-0.5-2.2,0-4.4,0.7-6.7
		c1-3.4,1.7-6.9,0.1-10.4c-0.4-0.9-0.3-1.6,0.4-2.2c2.4-1.9,2.5-4.3,1.8-7c-0.2-0.7,0.2-1.7,0.5-2.5c0.3-0.7,0.9-1.2,1.2-1.8
		c0.2-0.4,0.6-1,0.5-1.3c-1-2.2-0.6-4.8-2.2-6.9c-1-1.3-1.3-3.2-2-4.9c-0.2-0.5-0.2-1.2-0.6-1.5c-2-1.8-2.8-4.3-4.3-6.3
		c-1.1-1.5-2.3-2.9-3.5-4.3c-0.9-1.1-2-2-1.9-3.7c0.1-1.5-1.4-1.6-2.5-1.6c-1.2-3.6-3-6.6-5.9-8.9c-1-0.8-1.9-2-2.6-3.2
		c-1.8-3.2-4.8-5.5-7-8.3c-0.2-0.2-0.5-0.4-0.8-0.5c-1.7-0.5-2.8-1.5-2.7-3.5c0-0.4-0.5-1.1-0.9-1.3c-1.1-0.5-1.5-1.4-1.8-2.4
		c-0.2-0.7-0.7-1.3-1-1.9c-0.7-1.2-1.3-2.4-2.1-3.5c-0.7-0.9-1.5-1.8-2.4-2.6c-1-0.8-2.2-1.4-3.1-2.2c-1.5-1.3-3-1.9-5.1-1.4
		c-2.3,0.6-4.8,0.8-7.1,1.3c-3.5,0.7-6.9,0.7-10.4,0.8c-1.8,0.1-3.5,0.3-5.2,0.7c-3.7,0.8-6.6-0.4-9.3-2.7c-0.4-0.4-0.9-0.8-1.4-0.9
		c-2.8-0.5-4-2.6-5.1-4.8c-0.6-1.2-1.3-2-2.3-2.9c-1.9-1.6-4.2-3.3-3.5-6.4c0-0.2,0-0.4,0-0.5c-1.5-1.8-1.4-4.2-2.3-6.2
		c-0.6-1.4-0.8-2.7-0.9-4.2c-0.2-2.2,0.3-4.5-0.6-6.7c-0.2-0.4,0-1.1,0.2-1.6c0.6-1.4,0.5-2.7-0.1-4c-0.5-1-0.3-2-0.1-3
		c0.6-3.1,2.1-5.9,3.3-8.8c0.4-0.9,0.3-1.9,0.4-2.8c0.2-2.7,0.5-5.3,0.6-8c0.1-2.6,1.3-4.8,2.3-7.1c1.2-2.8,1.7-5.6,1.2-8.7
		c-0.2-1.4,0.2-2.9,0.6-4.3c0.4-1.8,1.1-3.5,1.7-5.3c0.4-1.1,0.7-2.1,1.1-3.2c0.3-0.9,0.6-1.8,0.9-2.7c0.2-0.5,0.6-1.2,0.5-1.6
		c-0.7-2.1,0.5-4,0.7-6c0.1-1.2,0.7-2.1,1.7-2.8c2.5-1.9,3.2-4.8,2.2-7.8c-0.3-0.9-0.4-1.9-0.1-2.8c1.6-5.3,3.2-10.5,4.9-15.7
		c0.1-0.4,0.1-0.9,0.4-1.1c2.4-2.1,1.7-5.3,2.5-7.9c0.1-0.2,0.1-0.5,0-0.7c-1-4.4-0.2-8.8,0.1-13.2c0.2-3.1,0.5-6.3,0.5-9.4
		c0-1.6-0.4-3.2-0.4-4.8c0-1.8,0-3.5-0.5-5.4c-0.7-2.7-1.2-5.7-0.8-8.6c0.2-2-0.1-4.2-0.3-6.2c-0.1-0.8-0.5-1.7-0.2-2.2
		c0.6-1.2,1.6-2.2,2.4-3.3c0.3-0.3,0.8-0.5,1.3-0.7c0.9-0.4,1.5-1,1.6-2.2c0.1-0.7,0.8-1.3,1.3-1.9c0.5-0.6,1.5-0.9,1.8-1.6
		c1.4-3,4.4-4,6.7-5.8c0.7-0.6,1.5-1.2,2.2-1.8c0.2-0.2,0.5-0.6,0.7-0.6c2-0.2,2.8-2,4.2-2.9c2.1-1.4,3.8-3.3,5.9-4.5
		c1.5-0.8,3-1.5,4.2-2.7c0.2-0.2,0.6-0.4,0.7-0.6c1.3-2.9,4-4.7,6-6.9c0.9-1,2.2-1.6,3.3-2.4c1.3-0.9,2.6-1.5,3.8-2.5
		c2.4-2.1,4.6-4.6,7.1-6.6c2-1.7,4.4-3.1,6.6-4.6c0.6-0.4,1.3-0.7,1.8-1.2c2-1.8,4-3.8,6.1-5.6c1.7-1.5,3.6-2.8,5.3-4.2
		c3.1-2.6,6.3-5.1,9.6-7.4c2.6-1.8,4.8-4,7.2-6.1c1.7-1.4,3.4-2.8,5-4.2c2.8-2.4,6.3-3.3,9.4-4.9c1.1-0.6,2-0.2,2.6,0.9
		c2.2,3.8,5.9,5.9,9.7,7.7c3.1,1.5,6.4,2.7,9.6,4.1c1.6,0.7,3.1,1.6,4.7,2.4c3.3,1.7,6.5,3.6,9.9,5.1c3.4,1.6,6.9,3,10.5,4.4
		c2.5,1,5,1.7,7.5,2.6c0.5,0.2,1,0.6,1.4,0.9c0.9,0.6,1.7,1.4,2.6,1.7c2.5,0.6,4.5,2.1,6.6,3.4c2.3,1.5,4.5,3.1,6.6,4.9
		c3.4,2.9,6.7,6.1,10.1,9.1c1.2,1.1,2.6,1.9,3.9,2.9c1.9,1.6,3.8,3.3,5.7,4.9c1.4,1.2,2.8,2.4,4.2,3.6c0.7,0.6,1.2,1.3,1.7,2
		c2,2.5,4,5.1,6,7.6c0.4,0.6,0.9,1.1,1.3,1.8c0.9,1.8,2.3,3,4,4.1c2,1.3,3.6,3.4,5.4,5.2c0.6,0.6,0.9,1.4,1.4,1.9
		c2.4,2.3,4.7,4.7,7.2,6.8c1.5,1.3,3.4,2.1,5.2,3.1c0.8,0.4,1.5,0.9,2.2,1.3c3.1,2,6.1,4.3,9.4,5.9c4.1,2,8.5,3.4,12.8,4.9
		c0.5,0.2,1.1,0.2,1.7,0.2c1.9,0.1,3.7,0.2,5.6,0.2c1.2,0,2.4-0.1,3.6-0.2c0.5,0,0.9-0.1,1.4,0c0.8,0,1.6,0.3,2.4,0.2
		c2.7-0.5,5.3-0.2,8,0c3.5,0.2,6.8-0.5,10.1-1.4c1.9-0.5,4-0.5,5.8-1.7c0.5-0.3,1.4-0.1,2.1-0.1c0.6,0,1.4,0.4,1.9,0.2
		c3.1-1,6.6-0.9,9.5-2.5c1.1-0.6,2-0.8,3.2-0.4c1.4,0.4,2.8-0.1,4.2-0.5c2.7-0.9,5.6-1.3,8.4-2c0.9-0.2,1.8-0.1,2.6-0.5
		c3.3-1.8,6.7-3.4,10.4-4.4c1.1-0.3,2.1-1.1,3.2-1.6c2.8-1.2,5.6-2.5,8.5-3.6c3.5-1.3,7.2-2.5,10.7-3.7c2.8-1,5.6-2.2,8.4-3
		c2.3-0.7,4.7-1.2,7.1-1.4s3.9,1.3,4.2,3.8c0.3,2.6,0.2,5.2,0.2,7.8c0,1.7-0.1,3.4-0.2,5.1c-0.1,2.4-0.3,4.8-0.3,7.2
		c0,2.8,0,5.7,0.2,8.5c0.1,1.2,0.6,2.4,1.3,3.4c1.5,1.9,1.6,4.1,1.3,6.2c-0.5,3.4-0.3,6.5,1.1,9.7c1,2.3,1.5,4.9,2.2,7.4
		c0.1,0.4-0.1,1,0,1.4c0.1,0.7,0.2,1.3,0.3,2c0.1,0.4,0.1,0.9,0.1,1.3c0.1,0.9,0,1.8,0.3,2.6c0.6,1.7,1.3,3.5,2.2,5.1
		c1,1.8,1.3,3.6,1.3,5.6c0,1.1,0.1,2.3,0.4,3.3c0.4,1.2,1,2.2,0.7,3.5c0,0.1,0,0.4,0,0.5c1.7,2.7,1.9,5.9,3.2,8.8
		C380.3,185.1,380.9,185.5,381.4,186z M251.2,124.2c-1-0.9-1-0.9-2.2-0.2C249.7,124.1,250.5,124.1,251.2,124.2
		c-0.2,0.1-0.4,0.5-0.7,0.5c-2.7,0.4-5.3,0.3-7.4-1.9c-0.1-0.1-0.4-0.1-0.7-0.2c-0.4,0.6-0.7,1.2-1.2,1.9c-1.4-1.3-3.7-0.6-4.7-2.5
		c-0.1-0.3-1.1,0-1.6-0.2c-0.8-0.2-1.8-0.3-2.4-0.9c-1.4-1.3-3.2-1.6-5-1.8c-1.5-0.1-2.9-0.4-3.8-1.7c-1-1.4-1.8-2.8-2.7-4.2
		c-0.2-0.3-0.6-0.5-0.9-0.6c-0.6,0.7-1.2,1.2-1.6,1.7c-2.5-1.1-4.2-3.2-7-3.2c-0.4-2.3-2.6-2.2-4.1-2.7c-2.5-0.8-4.1-2.3-5.5-4.3
		c-0.5-0.7-1.2-1.6-1.9-1.7c-1.2-0.2-1.7-0.9-2-1.8c-0.4-1.2-1.1-2.3-2.3-2.7c-2.1-0.6-3.2-2.4-4.5-3.8c-2.3-2.4-4.1-5.2-6.6-7.4
		c-0.4-0.3-0.7-0.7-0.9-1.1c-1.1-1.9-2.2-3.9-3.3-5.8c-0.2-0.3-0.4-0.6-0.7-0.7c-1.5-0.5-2.2-1.8-3.1-3c-0.5-0.7-1.2-1.6-1.9-1.8
		c-2.4-0.7-3.3-2.7-4.7-4.3c-1.2-1.3-2.4-3-3.9-3.8c-2.2-1.1-4-2.6-5.9-4.1c-2.4-1.9-4.9-3.7-5.7-6.2c-1.7-0.8-2.9-1.3-4-1.9
		c-0.8-0.5-1.4-1.4-2.2-1.9c-0.5-0.4-1.1-0.7-1.7-0.8c-1-0.2-3.3-1.2-4.1-1.8c-1.1-0.9-2.2-1.9-3.5-2.9c-1.2,0.7-2.3,0.2-3.5-0.3
		c-3.4-1.4-7-2.5-10.5-3.8c-0.7-0.3-1.5-0.5-2.1-0.9c-1-0.6-1.8-1.4-2.8-1.9c-2.9-1.4-5.8-2.7-8.8-4.1c-2.2-1.1-4.5-2.1-6.7-3.2
		c-2.2-1.1-4.4-2.4-6.7-3.4c-3.7-1.6-7.5-3-10.6-5.7c-1.1-0.9-2.6-1.4-3.9-0.6c-2.5,1.7-5,3.5-7.2,5.6c-2.2,2.2-5.2,3.5-7.1,6.1
		c-0.2,0.4-0.9,0.4-1.3,0.7c-0.5,0.3-1,0.6-1.4,0.9c-2.4,2.5-5.4,4.3-8.3,6.2C57,43,55.6,43.7,55,44.8c-1,2.1-2.8,3.1-4.7,4.3
		c-2.2,1.4-4.6,2.4-6.2,4.5c-1.2,1.6-2.3,3.1-4.3,3.8c-0.1,0.1-0.3,0.2-0.3,0.3c-1.1,2.3-4.1,3.3-4.6,6.1c0,0.2-0.4,0.5-0.7,0.6
		c-0.8,0.6-1.7,1.2-2.5,1.9c-1.6,1.5-2.9,3.3-4.7,4.4c-2.3,1.5-4,3.4-5.6,5.6c-1.3,1.8-2.9,3.6-5.1,4.1c-1.6,0.4-2.4,1.5-3.3,2.6
		c-0.9,1.1-1.8,2.3-2.9,3.2c-1.7,1.5-3.6,2.7-5.5,4c-1,0.7-2,1.3-2.9,2.1c-1.9,1.6-4.1,3-4.1,5.9c0,1.5,0,3.1,0,4.6
		c0,2.2-0.1,4.4,0,6.5c0.1,1.3,0.8,2.6,0.5,3.8c-0.7,3.1,0.1,5.9,0.6,8.9c0.4,2.4,0.7,4.8,0.8,7.2c0.1,5.1,0.3,10.2-0.1,15.3
		c-0.2,2.4-0.7,4.8-0.5,7.2c0,0.1,0,0.2-0.1,0.2c-1.3,2.8-0.4,5.8-1.4,8.6c-1.4-0.2-1.6-0.1-1.8,1c-0.2,1.5-0.1,3.1-1.7,4.1
		c-0.2,0.1-0.2,0.4-0.3,0.7c-0.6,2.2-1.1,4.4-1.9,6.5c-1.4,3.9-2.7,7.8-4.6,11.5c-0.8,1.6-1.6,2.9-0.6,4.6c0.1,0.1,0.1,0.3,0,0.5
		c-0.6,1.8-1,3.8-1.9,5.4c-0.7,1.4-1,2.9-1.1,4.4c-0.1,2.3-0.3,4.5-0.5,6.8c-0.1,0.7-0.2,1.5-0.4,2.1c-1.3,3.2-2.6,6.4-2.1,10
		c0.1,0.4,0,0.8-0.2,1.2c-1,2.7-1,5.5-1.2,8.3c-0.3,3.1,0.4,6.2,0,9.3c-0.3,2.8-0.1,5.7-1,8.5c-0.8,2.4-1,4.9-0.2,7.4
		c1,3.2,1.7,6.5,2.8,9.7c1,2.8,2.2,5.5,3.5,8.2c0.9,1.8,2,3.6,3,5.3c0.2,0.3,0.4,0.5,0.6,0.7c0.8,0.6,1.5,1.2,2.3,1.6
		c2.2,1.2,4.1,3.6,7.2,2.5c0.1,0,0.2,0,0.2,0c1.9,0.5,3.5-0.3,5.2-0.9c1.4-0.5,2.8-1.2,4.2-1.8c1.2-0.5,2.3-1.6,3.4-1.5
		c3.2,0.1,6.4,0.7,9.6,1.1c0.1,0,0.3,0.2,0.4,0.3c2,1.1,4,2.4,6.1,3.4c1.8,0.9,3,2,3.7,3.9c0.3,0.9,0.8,1.8,1.4,2.5
		c1.1,1.3,2.4,2.4,3.5,3.6c1.1,1.3,2.1,2.6,3.1,3.9c0.9,1.2,1.6,2.4,2.4,3.6c1.4,2.3,1.9,5.2,4.5,6.7c0.2,0.1,0.3,0.5,0.5,0.8
		c1,1.9,2,3.8,3,5.7c2.3,4,5.2,7.5,8.1,11.1c0.4,0.4,0.8,0.9,1,1.4c0.7,2.5,2.5,4.1,4.1,5.9c1.3,1.5,2.5,3.2,4.2,4.2
		c0.3,2.4,2.5,3.1,4.1,4.2c1.5,1,2.3,2.1,2.6,3.8c0.2,1.2,0.7,2.3,1,3.4c0.4,1.4,1,2.8,0.9,4.2c-0.2,3.4-0.8,6.8-0.5,10.3
		c0.1,0.7-0.2,1.4-0.2,2.2c-0.1,0.9-0.2,1.8-0.1,2.7c1,4.6-0.2,9.2-0.5,13.8c-0.3,3.9-0.9,7.7-1.5,11.5c-0.3,1.7-0.6,3.5-1,5.2
		c-0.4,2.1-0.7,4.1-1.4,6.1c-1,3.2-1.4,6.4-1.7,9.7c-0.3,3.5-1.1,6.5-4.6,8.2c-1.7,0.8-3.4,1.9-5,3c-2.6,1.9-5.1,4-7.7,6
		c-0.8,0.6-1.7,0.9-2.4,1.5c-1.1,0.9-2.7,0.9-3.7,2.2c-1,1.4-2.3,2.8-3.9,3.6c-2.5,1.2-4,3.2-5.5,5.3c-1.7,2.4-3.4,4.8-5.2,7
		c-2.2,2.7-4.5,5.3-6.7,7.9c-0.7,0.9-1.2,1.9-0.4,3.1c0.4,0.6,0.3,1.6,0.1,2.3c-1.9,6.8,1.1,15.2,9.9,17.7c3.9,1.1,7,3.3,9.7,6.1
		c3,3.2,5.7,6.6,8.7,9.8c3.4,3.8,7.3,7.1,12.2,9.1c0.9,0.4,1.7,1.2,2.4,1.9c1.4,1.3,2.7,3.1,4.7,3.2c5.4,0.4,10.8,0.8,16.2,0
		c9.8-1.5,19.5-3,29.3-4.5c5.2-0.8,10.4-1.5,15.7-1.9c5.1-0.4,10.1-1.3,15-2.9c2.7-0.8,5.4-1.5,8.2-2.2c0.5-0.1,1-0.2,1.4-0.2
		c6.1-0.1,12.1-0.1,18.2-0.1c2.9,0,5.7-0.3,8.3-1.6c1.2-0.5,2.4-1,3.5-1.5c1.4,1.6,3.7,2.1,4.8,0.9c1.1-1.3,2.2-1.1,3.2-0.4
		c1.7,1.1,3.5,1,5.4,0.9c2-0.1,4.1-0.9,5.9-0.5c2.9,0.5,5.7-0.5,8.6,0c1.3,0.2,2.3-0.5,2.6-1.7c0.8-3.2,1.5-6.4,2.2-9.6
		c0.2-0.9,0.1-2,0-2.9c-0.3-2.2-0.8-4.3-1-6.5c-0.1-1.2,0-2.4,0.1-3.6c0.1-1.2,0.7-2.5,0.4-3.6c-0.8-3.2-1.3-6.5-3.8-9.1
		c-0.7-0.7-1.4-1.4-2-2.1c-1.8-2.2-3.6-4.4-5.2-6.6c-1-1.3-0.7-2.8,0.4-3.8c1.9-1.8,4.1-3.4,6.1-5.1c1.8-1.6,4-2.9,4.3-5.6
		c0.1-0.5,0.4-1.1,0.8-1.5c2.1-1.9,4.2-3.8,6.3-5.6c2.1-1.8,4.3-3.4,6.4-5.2c2-1.7,3.8-3.8,6.2-5c0.6-0.3,1.1-0.9,1.6-1.4
		c1.1-1.1,2.3-2.2,3.4-3.5c0.9-1.1,1.9-1.3,3.3-0.9c1.5,0.4,3,0.5,4.4-0.5c1-0.7,1.8-0.4,2.6,0.4c0.8,0.7,1.5,1.6,2.4,2
		c2,1,3.1,2.7,4.5,4.2c2.1,2.1,3,5.1,5.8,6.6c0.5,0.2,0.8,0.8,1,1.3c0.8,1.8,2.1,2.5,4,2.5c0.8,0,2,0.3,2.4,0.9
		c1.5,2.3,3.6,2.8,6,3.1c1.8,0.2,3.3,1.3,4.3,2.8c2.1,2.7,2,6.1,2.7,9.2c0.2,1-0.2,2.1-0.2,3.1c0,3.4,0.1,6.8,0.1,10.2
		c0,1.3,0.1,2.6-0.1,3.9c-0.3,1.9-0.5,3.8-1.5,5.6c-0.7,1.3-0.6,3-1,4.5c-1,3.5-2.2,6.9-3.3,10.4c-0.4,1.2-1,2.4-1.6,3.5
		c-0.7,1.3-1.7,2.5-2,4.1c-0.1,0.7-0.9,1.2-1.5,1.8c-1.6,1.5-2.9,3.1-2.6,5.4c0.1,1-0.3,1.7-1,2c-1.8,0.7-2.7,1.9-3.1,3.7
		c-0.1,0.5-0.6,0.9-0.9,1.4c-1.6,2.3-3.3,4.5-4.9,6.9c-1.5,2.3-3,4.6-4.4,6.9c-0.2,0.3-0.3,0.6-0.6,0.7c-1.6,0.9-2,2.5-2.3,4.1
		c-0.2,1.6-0.9,2.4-2,2.5c-1.2,1.8-2.1,3.4-3.1,4.9c-1,1.4-1.8,2.9-3.3,4.1c-1.9,1.6-1.9,2.6-0.3,4.8c2.2,3.2,4.6,6.2,6.9,9.3
		c0.9,1.3,1.6,2.8,2.7,4c2.6,3,5.3,5.9,7.9,8.9c1.1,1.3,2,2.8,3.2,3.9c2.1,1.8,3.7,3.8,5.2,6.1c1,1.5,2,2.9,3.2,4.2
		c1.7,1.8,3.4,1.2,4.1-1.1c0.3-1.1,0.8-2.3,1.5-3.2c1-1.3,2.2-2.4,3.3-3.5c0.6-0.6,1.2-1.1,1.9-1.4c2-0.8,3.3-2.2,4.4-4
		c1.2-2,2.4-4,3.8-5.8c0.7-1,2-1.6,2.8-2.7c1.5-2,2.9-4,4.2-6.2c3.1-5,6.1-10.1,9.1-15.1c0.7-1.2,1.6-2.3,2.2-3.5
		c0.5-1.2,1.4-1.8,2.4-2.5c1.9-1.4,4.5-2.4,4.4-5.5c0-1.1,0.9-1.6,2.2-1.2c2.5,0.8,4.2-0.5,5.9-1.9c1.7-1.4,3.5-2.8,5.3-4.2
		c0.4-0.3,1-0.7,1.5-0.7c3-0.1,5.1-1.7,7.2-3.6c0.7-0.6,1.3-1.2,2.1-1.7c2.3-1.4,3.8-3.2,3.6-5.6c1-0.9,1.8-1.5,2.5-2.3
		c0.6-0.7,1.2-1.2,2.3-1c1,0.2,1.5-0.3,1.8-1.2c0.1-0.4,0.3-0.9,0.4-1c3.2-1.2,5.9-2.5,7.1-5.7c0.2-0.6,0.6-1.1,0.9-1.7
		c1.6-2.8,3.4-5.5,4.8-8.4c1.5-3.1,2.9-6.2,3.7-9.6c0.5-2.3,0.4-4.6,0.4-6.9c0-2.4-1-4.8-1.7-7.2c-0.1-0.5-0.3-0.9-0.5-1.3
		c-1.2-2.9-2.8-5.7-3.7-8.7c-0.8-2.7-2.3-4.7-4.3-6.6c-1-1-1.8-2.2-2.7-3.4c-0.5-0.6-0.9-1.4-1.4-2c-1.2-1.6-2.6-3.1-3.8-4.7
		c-1.3-1.7-2.4-3.4-3.7-5.1c-0.8-1-1.9-1.8-2.6-2.9c-1.4-2.3-3.3-3.7-5.9-4.2c-1.4-0.3-2.7-1.2-3-2.6c-0.5-2.2-1.9-2.5-3.7-2.7
		c-1.6-0.1-3.5-0.1-4.7-0.9c-2.5-1.8-5.5-2.5-8.1-4.2c-2.7-1.7-5.6-3.2-8.3-4.9c-2.2-1.3-4.5-2.6-6.4-4.3c-3.8-3.4-7.4-7-10.9-10.7
		c-1.5-1.6-2.5-3.5-3.9-5.2c-1.7-2-2.1-4.7-3.3-6.9c-0.7-1.4-1.6-2.8-1.8-4.2c-0.5-3.8-2-7.5-1.7-11.5c0.1-1.6,0-3.2,0-4.8
		c-0.1-2.3-0.3-4.5-0.3-6.8c0-3.1,0-6.3,0-9.4c0-1.1-0.1-2.2,1.2-2.9c0.4-0.2,0.6-1,0.8-1.6c0.5-1.5,0.9-2.9,1.2-4.4
		c0.1-0.5,0.2-1.1,0.3-1.7c0.2-1.1,0.3-2.2,0.5-3.3c0.3-1.5,1-3.1,1.1-4.6c0.1-1.3-0.3-2.7-0.5-4.1c-0.2-0.8-0.1-1.5,0.4-2.3
		c0.9-1.6,1.8-3.3,2.1-5c0.3-2.1,0-4.3-0.1-6.5c0-0.8-0.1-1.6-0.2-2.4c-0.3-3.3,0.6-6.6-0.4-9.8c-0.2-0.6,0-1.3,0.1-1.9
		c0.6-3.5,0.9-7,0.4-10.6c-0.3-2-0.3-4,0.9-5.9c0.5,0,1.1,0.2,1.3,0c1-1.1,2-2.3,2.8-3.6c1.5-2.5,4.1-3.4,6.4-2.3
		c2.5,1.2,5.4,1.2,8.1,1c1.2-0.1,2.7-0.4,3.6-1.1c3.9-3.2,8.8-5.1,11.6-9.6c0.1-0.2,0.6-0.3,0.8-0.4c3.3-1.7,6.3-3.8,8.6-6.7
		c0.9-1.1,1.8-1.8,3.1-2.1c3-0.8,5.5-5.3,3.2-8.2c-1.1-1.4-2.1-3.3-2.1-5c0-1.8-0.7-3-1.2-4.5c-0.7-1.9-1-3.9-0.3-6
		c-1.7-1.4-1.7-1.4-0.8-3.2c0.2-0.3,0.3-0.8,0.2-1.1c-0.2-1.6,0.3-3.5-1.6-4.5c-0.2-0.1-0.3-0.4-0.3-0.6c-0.3-3-2.1-5.7-1.6-8.8
		c0.1-0.4-0.1-0.8-0.2-1.1c-0.8-2.8-1.7-5.5-2.5-8.3c-0.1-0.2,0-0.5-0.1-0.7c-0.3-1.2-0.4-2.5-0.9-3.7s-0.9-2.4-0.4-3.7
		c0.2-0.7,0-1.5-0.1-2.3c-0.2-1.2-0.7-2.3-0.9-3.4c-0.5-4.1-0.6-8.2-1.9-12.2c-1-3.1-1.8-6.2-2.5-9.4c-1-4.5-1.2-9.1-1.3-13.8
		c0-1.5-0.2-3.2-0.9-4.4c-0.7-1.3-1.4-2.5-1-4c0.1-0.7-0.2-1.4-0.3-2.1c-0.2-2-0.3-4-0.4-6c-0.1-1.3,0.1-2.6,0-3.8
		c-0.3-3.5-1.5-7-0.8-10.6c0.3-1.3-0.6-2-2-2c-0.6,0-1.2,0-1.7,0.1c-1.9,0.5-3.7,1.2-5.6,1.7c-2.2,0.6-4.3,1.3-6.5,1.8
		c-2.5,0.6-5,1.2-7.5,1.7c-1,0.2-2,0.3-3.1,0.4c-1.3,0.1-2.6,0.1-3.8,0.4c-2,0.4-3.9,1.1-5.8,1.6c-1.6,0.4-3.1,0.8-4.7,1
		c-3.1,0.4-6.3,0.6-9.4,1c-1,0.1-2,0.5-3.1,0.6c-2.3,0.4-4.6,0.6-6.8,1.1c-0.9,0.2-1.7,0.2-2.6-0.1c-1.8-0.7-3.6-1.8-5.8-0.9
		C252.4,124.9,251.7,124.4,251.2,124.2z M336.2,289.6c2.4,0,3-0.6,2.9-2.7c0-0.3,0.1-0.9,0.3-1c1.4-0.4,0.3-1.5,0.7-2.4
		c2.1,0.9,3.4,0,4.9-1.5c1.6-1.7,2.6-3.9,5.1-4.7c0.3-0.1,0.6-0.5,0.9-0.8c1-1,2.1-2,3.1-3c1.8-1.9,3.6-3.8,5.5-5.9
		c-0.5-0.4-0.8-0.7-1.2-1c-0.8-0.8-1.3-1.7-0.8-2.8c0.5-1,1.1-2,1.8-2.9c2-2.3,4.1-4.5,6.1-6.8c0.6-0.7,1.5-1.4,1.7-2.3
		c0.8-2.7,3.3-4.4,3.7-7.3c0-0.2,0.3-0.5,0.4-0.5c1.5-0.2,1.6-1.5,2.1-2.6c0.5-1.3,1.2-2.6,2.1-3.8c1.8-2.5,3.8-4.8,5.7-7.2
		c1.3-1.7,2.1-3.4,1-5.6c-0.7-1.5-1.2-3.2-1.7-4.8c-0.2-0.5-0.3-1.2-0.1-1.6c0.7-1.2,0.1-2.2-0.2-3.5c-0.7,1.3-1.5,2.3-1.9,3.4
		c-1,2.7-3.1,4.9-3.2,8c0,1.5-1.2,1.9-2.6,2.2c0.8,2-0.7,3-1.5,4.2c-2.5,3.7-5.1,7.3-7.6,11.1c-1.1,1.7-1.5,3.9-3.5,5.1
		c-0.3,0.2-0.4,0.8-0.6,1.3c-0.6,1.3-1,3-2,3.8c-1.1,0.8-1.5,1.8-2,2.8c-0.7,1.3-0.9,3-2.6,3.6c-0.2,0.1-0.2,0.4-0.4,0.6
		c-1.3,2-2.5,4.1-3.9,6.1c-0.8,1.2-1.4,2.5-2.8,3.2c-1.5,0.7-1.2,2.8-2.4,3.8c-0.4,0.3-0.1,1.4-0.1,2.1c-1.4,0.6-2.7,1.5-2.9,3.3
		c-0.1,0.5-0.1,1.2-0.4,1.3c-1.4,0.8-1.6,2.1-1.5,3.2c-1.4,1.1-2.8,1.8-3.8,3c-2.1,2.6-4,5.4-6,8.2c-0.2,0.3-0.2,0.7-0.3,1.1
		c2.1,1,3.6,0.5,5.2-1.6c0.6-0.7,1.2-1.5,1.9-2.1C336.4,291.7,336.8,290.8,336.2,289.6z M359,107.5c-1.7,3.9-3.3,7.6-4.9,11.4
		c-1.7,4.2-3.2,8.4-4.9,12.6c-1,2.5-2.4,5-3.4,7.5c-1.1,2.6-1.8,5.3-3.7,7.6c-0.6,0.8-0.9,1.9-1.2,2.9c-0.5,1.7-0.9,3.4-1.3,5.1
		c-0.1,0.3-0.3,0.5-0.5,0.8c-1.4,1.9-2.5,4-2.3,6.4c0.2,2.9,0.3,6,2.2,8.6c-2.1,1.8-0.2,3.3,0.2,4.9c2.3-1.1,2.7-3.3,3.1-5.1
		c0.6-2.5,1.7-4.7,2.9-6.8c1.7-3,3.2-6,4.2-9.2c0.1-0.5,0.2-1,0.5-1.4c3.5-5.1,6-10.7,8.7-16.2c0.8-1.7,0.8-4.2,3.6-4.5
		c-0.1-1.1-0.2-2.1-0.3-3c-0.4-2.9-0.8-5.7-1.2-8.6c-0.4-3.5-0.5-7.1-0.2-10.6C360.6,109,360.6,108,359,107.5z M363.1,140
		c-0.7,1.3-1.3,2.6-2,3.8c-0.5,0.8-1.2,1.5-1.6,2.3c-1.3,2.3-2.5,4.7-3.7,7.1c-0.7,1.4-1.2,2.8-2,4.1c-0.8,1.5-1.6,3-1.5,4.8
		c0,0.4-0.1,1-0.4,1.3c-1.8,2.3-3.1,4.8-4.4,7.4c-0.9,1.8-1.8,3.5-1.8,5.6c0,0.6-0.6,1.2-1,1.8c-0.4,0.7-1.2,1.2-1.4,1.9
		c-0.2,0.6,0.4,1.5,0.2,2.1c-0.2,0.5-1.3,0.6-1.7,1.1c-0.8,1-0.8,2.1-0.4,3.4c0.6,1.7,1.7,3.1,2,5c0.2,1.6,2.1,1.9,3.2,0.6
		c1.5-1.7,3.1-3.3,3.4-5.7c0-0.4,0.3-0.8,0.5-1.1c2.2-2.4,3.8-5.2,4.8-8.3c0.1-0.4,0.5-0.6,0.7-1c1.2-2.2,2.5-4.4,3.7-6.6
		c0.1-0.3,0.1-0.6,0.2-0.9s0.1-0.7,0.3-0.8c1.8-1.2,2.5-3.1,3.4-4.9c1-2,2.1-4,3.1-6c0.3-0.6,0.4-1.4,0.3-2
		c-0.4-2.1-1.2-4.2-1.5-6.3c-0.4-2.4-1.7-4.6-1.2-7.1C364.4,140.9,364.1,140.1,363.1,140z M361.7,201.1c0.8-1.4,1.2-3,2.7-3.8
		c0.4-0.2,0.3-1.2,0.6-1.8c0.4-0.9,0.7-2,1.3-2.8c2.4-2.7,3.8-5.9,5.3-9.2c0.2-0.5,0.3-1.4,0-1.9c-1.4-3.2-0.4-6.9-2.2-10.1
		c-0.5-0.8-0.5-1.9-0.7-2.8c-0.1-0.9-0.1-1.8-0.2-3.1c-1,1.9-1.8,3.4-2.6,4.8c-0.8,1.5-1.9,2.9-2.2,4.5c-0.5,2.3-1.5,4.3-2.9,6
		c-1.3,1.6-2.1,3.4-2.8,5.3c-0.8,2.1-1.5,4.2-2.3,6.4c1.3,1.1,3.4,1.4,2.8,4.1c-1.5-1.1-2.9-2-4.3-2.9c-3.5,3.2-4.3,6.2-3.9,8.6
		c-1.1,1-2.4,1.7-2.8,2.8c-0.9,2.4-0.5,5.1-0.3,7.6c0.2,1.7,1.3,3.3,2.1,5.2c-1.2,2.8-1.2,3,1,4.8c0.5-1.2,0.9-2.4,1.4-3.6
		c0.2-0.5,0.3-1.1,0.7-1.5c2.8-2.9,3.3-6.9,5.3-10.2c0.5-0.8,0.7-1.9,1.6-2.6c1-0.9,1.4-2.2,0.9-3.6c-0.1-0.2,0-0.4,0.1-0.7
		C360.9,200.9,361.2,201,361.7,201.1z M366.7,209.3c-0.6,0.3-1.1,0.5-1.6,0.7c-2.1,0.9-3.6,2.8-4.1,4.8c-0.7,2.7-2.3,5.4-1.4,8.7
		c-0.8-0.3-1.4-0.5-1.9-0.7c-0.8,1.3-1.6,2.4-2.2,3.6c-0.8,1.5-1.8,3-2.1,4.5c-0.4,2.8-1.5,5.9,0.7,8.5c0.1,0.2,0.1,0.5,0.2,0.7
		c0.3,0.4,0.7,0.7,1.1,1c1.6-1.8,2.8-3.6,2.6-6c0-0.3,0.3-0.8,0.6-1c0.9-0.5,0.8-1.3,1-2.1c0-0.1,0.2-0.2,0.4-0.4
		c0.4,0.3,0.8,0.6,1.3,0.9c1.5-2.3,3-4.4,4.4-6.5c0.6-0.9,0.8-2,1.6-2.7c1.8-1.7,2.5-4.4,4.7-5.8c0.2-0.1,0.3-0.6,0.5-0.8
		c1.3-2.1,2.4-4.4,3.9-6.4c1.7-2.4,1.9-4.4,0.3-6.9c-0.2-0.4-0.4-0.9-0.5-1.3c-0.2-1.7-0.3-3.5-0.4-5.2c-0.1-1.5-0.6-2.6-2.4-3.1
		c-1.9,2.6-3.6,5.3-5.2,8.1C366.7,204.3,365.6,206.5,366.7,209.3z M336,145c0.8-0.7,1.5-1.1,1.8-1.8c1-1.9,2-3.9,2.8-5.9
		c2.3-5.3,3.8-11,7-15.9c0.2-0.3,0.3-0.8,0.4-1.1c2.2-5.4,4.4-10.7,6.6-16.1c0.4-0.9,0.6-1.9,0.9-3c-0.7-0.1-1-0.2-1.3-0.2
		c-1.7,0.3-3.4,0.5-4.9,1.1c-1.4,0.5-3.2,0.4-4,2c-1.8,3.4-3.7,6.8-5.3,10.3c-1,2.3-1.4,5-2.3,7.4c-1.1,3-2.3,5.9-3.5,8.8
		c-0.4,0.9-0.5,1.8,0,2.8c0.4,0.8,0.5,1.8,0.6,2.8c0.2,2.3,0.3,4.7,0.5,7C335.4,143.6,335.7,144.1,336,145z M336.5,267.4
		c3.2-1.1,3.5-1.4,4.5-3.7c0.5,0.2,0.9,0.5,1.4,0.7c1.5-2.3,4-3.9,4-7.1c-0.9-0.3-1.6-0.4-2.2,0.6c-0.3,0.5-0.6,1.3-1.1,1.5
		c-1.1,0.4-1.5,1.3-2.3,2.1c-1,1-2.1,2.2-3.4,2.6c-1.3,0.5-2.5,1-3.6,1.8c-0.5,0.3-1.1,0.5-1.7,0.6c-1.7,0.3-3.4,0.9-4.3,2.3
		c-1.1,1.6-2.1,3.2-3,4.9c-1.5,2.6-2.6,5.4-4.8,7.5c-0.1,0.1-0.1,0.4-0.2,0.7c-0.8,3.6-2.3,6.8-5.4,9c-0.3,0.2-0.5,0.6-0.7,0.9
		c-0.6,1.3-1.2,2.6-1.7,4c-0.1,0.4,0,1.2,0.4,1.4c2.2,1.6,5.7,0.9,7.3-1.4c0.6-0.9,1.3-1.9,2-2.8c2.5-3.3,5.1-6.5,7.6-9.7
		c0.2-0.3,0.4-0.5,0.5-0.8c1.2-2.1,2.3-4.1,3.5-6.2c0.1-0.1,0.2-0.2,0.4-0.3c1-0.8,2-1.6,2.8-2.5c0.5-0.6,0.9-1.6,0.9-2.4
		C337.1,269.9,336.7,268.8,336.5,267.4z M387,233.6c-1.1-0.5-1.4,0-1.8,0.6c-0.6,1.1-1,2.2-1.7,3.2c-1.3,1.8-2.9,3.5-3.3,5.8
		c-0.1,0.3-0.4,0.5-0.5,0.8c-0.6,1-1.2,2.1-1.9,3.1c-0.6,0.9-1.2,1.9-1.9,2.8c-0.5,0.8-1.1,1.5-1.7,2.3c-0.5,0.7-1,1.4-1.5,2.1
		c-0.6,0.7-1.4,1.3-1.1,2.4c0.3,0.1,0.5,0.2,0.6,0.2c2.6-0.9,5.2-1.8,7.5-3.2c2.3-1.4,4.7-2.7,6.9-4.2c1-0.7,1.8-1.7,2.7-2.6
		c0.1-0.1,0.2-0.5,0.2-0.7c-0.4-2.4-0.6-4.8-1.5-7.1C387.5,237.2,386.9,235.5,387,233.6z M304.1,292.9c0.1,0.1,0.3,0.2,0.4,0.3
		c3.9-4.8,7.5-9.7,10.3-15.7c-1.6,0.1-2.7,0.3-3.7,0.2c-1.2-0.1-2.3-0.6-3.5-0.8c-0.7-0.1-1.4,0-2.3,0
		C304.9,282.5,304.5,287.7,304.1,292.9z M333.5,118.8c2.2-2.4,3-5.3,3.6-8.2c0.1-0.5-0.1-1.1-0.2-1.7c-0.2-0.8-0.9-1.2-1.7-1
		c-0.5,0.2-1.2,0.8-1.2,1.2c-0.1,1.5-0.8,2.7-1.6,4C331.4,114.6,331.9,117.2,333.5,118.8z M149.7,48.7c-0.4-0.7-0.8-1.2-1.7-0.8
		c-0.1,0.1-0.3,0.5-0.2,0.6C148.3,49.4,149,49.2,149.7,48.7z M345.4,195.6c-0.1-0.1-0.3-0.2-0.5-0.4c-0.1,0.1-0.2,0.3-0.2,0.4
		c0.1,0.2,0.3,0.3,0.4,0.4C345.2,195.9,345.3,195.8,345.4,195.6z"/>
	<path class="st0" d="M149.7,48.7c-0.8,0.5-1.4,0.6-1.8-0.2c-0.1-0.1,0.1-0.5,0.2-0.6C148.9,47.6,149.3,48.1,149.7,48.7z"/>
	<path class="st0" d="M251.2,124.2c-0.7,0-1.5-0.1-2.2-0.1C250.2,123.3,250.2,123.3,251.2,124.2L251.2,124.2z"/>
	<path class="st0" d="M345.4,195.6c-0.1,0.2-0.2,0.3-0.3,0.5c-0.1-0.1-0.3-0.3-0.4-0.4c0-0.1,0.1-0.2,0.2-0.4
		C345.1,195.4,345.3,195.5,345.4,195.6z"/>
	<path class="st0" d="M342.1,280.2c1.3-0.3,1.2,0.5,1.3,1.1c0.1,0.6,0.1,1.3-1.1,1.2C342.2,281.8,342.1,281.1,342.1,280.2z"/>
	<path d="M334.2,271.9c0.2-0.4,0.4-0.7,0.6-1.1c0.2,0.2,0.4,0.4,0.6,0.6C334.9,271.6,334.6,271.7,334.2,271.9L334.2,271.9z"/>
</g>
</svg>
