<?xml version="1.0" encoding="utf-8"?>
<!-- Generator: Adobe Illustrator 18.1.1, SVG Export Plug-In . SVG Version: 6.00 Build 0)  -->
<svg version="1.1" id="Layer_1" xmlns="http://www.w3.org/2000/svg" xmlns:xlink="http://www.w3.org/1999/xlink" x="0px" y="0px"
	 viewBox="0 0 595.3 841.9" enable-background="new 0 0 595.3 841.9" xml:space="preserve">
<g>
	<path fill="#FFFFFF" d="M50.2,817.8c0-264.6,0-529.1,0-793.7c198.4,0,396.9,0,595.3,0c0,264.6,0,529.1,0,793.7
		C447.1,817.8,248.6,817.8,50.2,817.8z M503.4,337.8c-0.5-0.6-1.1-1-1.4-1.5c-1.4-2.8-1.5-6.1-3.2-8.8c-0.1-0.1-0.1-0.3,0-0.5
		c0.3-1.3-0.3-2.3-0.7-3.5c-0.3-1.1-0.4-2.2-0.4-3.3c0-2-0.3-3.8-1.3-5.6c-0.9-1.6-1.5-3.3-2.2-5.1c-0.3-0.8-0.2-1.7-0.3-2.6
		c-0.1-0.4-0.1-0.9-0.1-1.3c-0.1-0.7-0.2-1.3-0.3-2c0-0.5,0.2-1,0-1.4c-0.7-2.5-1.2-5.1-2.2-7.4c-1.4-3.2-1.6-6.4-1.1-9.7
		c0.3-2.2,0.2-4.3-1.3-6.2c-0.7-0.9-1.2-2.2-1.3-3.4c-0.2-2.8-0.2-5.6-0.2-8.5c0-2.4,0.2-4.8,0.3-7.2c0.1-1.7,0.2-3.4,0.2-5.1
		c0-2.6,0.1-5.2-0.2-7.8c-0.3-2.6-1.8-4-4.2-3.8c-2.4,0.2-4.8,0.7-7.1,1.4c-2.9,0.8-5.6,2-8.4,3c-3.6,1.3-7.2,2.4-10.7,3.7
		c-2.9,1.1-5.7,2.4-8.5,3.6c-1.1,0.5-2.1,1.3-3.2,1.6c-3.7,1-7.1,2.6-10.4,4.4c-0.7,0.4-1.7,0.3-2.6,0.5c-2.8,0.6-5.7,1.1-8.4,2
		c-1.4,0.5-2.8,0.9-4.2,0.5c-1.2-0.3-2.1-0.2-3.2,0.4c-2.9,1.6-6.4,1.5-9.5,2.5c-0.6,0.2-1.3-0.2-1.9-0.2c-0.7,0-1.6-0.2-2.1,0.1
		c-1.8,1.3-3.8,1.2-5.8,1.7c-3.3,0.9-6.6,1.6-10.1,1.4c-2.6-0.1-5.3-0.4-8,0c-0.8,0.1-1.6-0.1-2.4-0.2c-0.5,0-0.9,0-1.4,0
		c-1.2,0.1-2.4,0.2-3.6,0.2c-1.9,0-3.7-0.1-5.6-0.2c-0.6,0-1.1,0-1.7-0.2c-4.3-1.6-8.7-3-12.8-4.9c-3.3-1.6-6.3-3.9-9.4-5.9
		c-0.7-0.5-1.5-0.9-2.2-1.3c-1.7-1-3.6-1.9-5.2-3.1c-2.5-2.1-4.8-4.5-7.2-6.8c-0.6-0.6-0.9-1.4-1.4-1.9c-1.7-1.8-3.3-3.8-5.4-5.2
		c-1.7-1.1-3.1-2.3-4-4.1c-0.3-0.6-0.8-1.2-1.3-1.8c-2-2.5-4-5.1-6-7.6c-0.5-0.7-1.1-1.4-1.7-2c-1.4-1.2-2.8-2.4-4.2-3.6
		c-1.9-1.6-3.7-3.3-5.7-4.9c-1.2-1-2.7-1.8-3.9-2.9c-3.4-3-6.7-6.1-10.1-9.1c-2.1-1.8-4.3-3.4-6.6-4.9c-2.1-1.3-4.1-2.8-6.6-3.4
		c-1-0.2-1.7-1.1-2.6-1.7c-0.5-0.3-0.9-0.7-1.4-0.9c-2.5-0.9-5.1-1.6-7.5-2.6c-3.5-1.4-7-2.8-10.5-4.4c-3.4-1.6-6.6-3.4-9.9-5.1
		c-1.6-0.8-3.1-1.7-4.7-2.4c-3.2-1.4-6.4-2.6-9.6-4.1c-3.8-1.8-7.5-3.9-9.7-7.7c-0.7-1.1-1.5-1.5-2.6-0.9c-3.1,1.6-6.7,2.5-9.4,4.9
		c-1.6,1.4-3.3,2.8-5,4.2c-2.4,2-4.6,4.3-7.2,6.1c-3.3,2.3-6.5,4.7-9.6,7.4c-1.7,1.5-3.6,2.8-5.3,4.2c-2.1,1.8-4,3.7-6.1,5.6
		c-0.5,0.5-1.2,0.8-1.8,1.2c-2.2,1.5-4.5,2.9-6.6,4.6c-2.5,2.1-4.7,4.5-7.1,6.6c-1.1,1-2.5,1.7-3.8,2.5c-1.1,0.8-2.4,1.4-3.3,2.4
		c-2,2.3-4.6,4.1-6,6.9c-0.1,0.3-0.5,0.4-0.7,0.6c-1.2,1.2-2.7,1.9-4.2,2.7c-2.2,1.1-3.8,3.1-5.9,4.5c-1.4,0.9-2.2,2.7-4.2,2.9
		c-0.3,0-0.5,0.4-0.7,0.6c-0.7,0.6-1.5,1.2-2.2,1.8c-2.3,1.9-5.3,2.9-6.7,5.8c-0.3,0.7-1.2,1-1.8,1.6c-0.5,0.6-1.2,1.2-1.3,1.9
		c-0.1,1.2-0.7,1.7-1.6,2.2c-0.4,0.2-1,0.4-1.3,0.7c-0.9,1-1.8,2.1-2.4,3.3c-0.3,0.6,0.2,1.5,0.2,2.2c0.1,2.1,0.5,4.2,0.3,6.2
		c-0.4,3,0.1,5.9,0.8,8.6c0.5,1.9,0.5,3.6,0.5,5.4c0,1.6,0.4,3.2,0.4,4.8c-0.1,3.1-0.3,6.3-0.5,9.4c-0.3,4.4-1.1,8.8-0.1,13.2
		c0.1,0.2,0,0.5,0,0.7c-0.8,2.6-0.1,5.7-2.5,7.9c-0.3,0.2-0.3,0.7-0.4,1.1c-1.6,5.2-3.3,10.5-4.9,15.7c-0.3,0.9-0.2,1.9,0.1,2.8
		c1,3,0.4,5.8-2.2,7.8c-1,0.7-1.6,1.6-1.7,2.8c-0.2,2-1.4,3.8-0.7,6c0.1,0.4-0.3,1-0.5,1.6c-0.3,0.9-0.6,1.8-0.9,2.7
		c-0.4,1.1-0.7,2.1-1.1,3.2c-0.6,1.8-1.2,3.5-1.7,5.3c-0.3,1.4-0.8,2.9-0.6,4.3c0.5,3.1,0,5.9-1.2,8.7c-1,2.3-2.2,4.5-2.3,7.1
		c-0.1,2.7-0.4,5.3-0.6,8c-0.1,0.9-0.1,2-0.4,2.8c-1.2,2.9-2.7,5.7-3.3,8.8c-0.2,1.1-0.4,2,0.1,3c0.6,1.3,0.6,2.6,0.1,4
		c-0.2,0.5-0.4,1.2-0.2,1.6c0.9,2.2,0.4,4.5,0.6,6.7c0.1,1.5,0.3,2.8,0.9,4.2c0.9,2,0.8,4.4,2.3,6.2c0.1,0.1,0.1,0.3,0,0.5
		c-0.7,3.1,1.6,4.8,3.5,6.4c1,0.9,1.7,1.7,2.3,2.9c1.1,2.2,2.3,4.3,5.1,4.8c0.5,0.1,1,0.5,1.4,0.9c2.7,2.3,5.7,3.6,9.3,2.7
		c1.7-0.4,3.5-0.7,5.2-0.7c3.5-0.1,6.9-0.1,10.4-0.8c2.3-0.5,4.8-0.7,7.1-1.3c2.1-0.5,3.6,0.1,5.1,1.4c1,0.8,2.2,1.4,3.1,2.2
		c0.9,0.8,1.7,1.6,2.4,2.6c0.8,1.1,1.4,2.3,2.1,3.5c0.4,0.6,0.8,1.2,1,1.9c0.3,1,0.7,1.9,1.8,2.4c0.4,0.2,0.9,0.9,0.9,1.3
		c-0.1,2,1,2.9,2.7,3.5c0.3,0.1,0.6,0.2,0.8,0.5c2.2,2.8,5.2,5.1,7,8.3c0.7,1.2,1.5,2.4,2.6,3.2c2.9,2.3,4.7,5.3,5.9,8.9
		c1.1,0,2.6,0.1,2.5,1.6c-0.1,1.7,0.9,2.6,1.9,3.7c1.2,1.4,2.5,2.8,3.5,4.3c1.5,2.1,2.3,4.6,4.3,6.3c0.4,0.3,0.4,1,0.6,1.5
		c0.6,1.6,0.9,3.5,2,4.9c1.6,2.1,1.2,4.7,2.2,6.9c0.1,0.3-0.2,0.9-0.5,1.3c-0.4,0.6-1,1.1-1.2,1.8c-0.3,0.8-0.7,1.7-0.5,2.5
		c0.8,2.7,0.7,5.1-1.8,7c-0.7,0.5-0.8,1.2-0.4,2.2c1.6,3.5,1,7-0.1,10.4c-0.7,2.2-1.1,4.5-0.7,6.7c0.6,2.9-1.8,5-1.8,7.6
		c-1.5,0.7-1.4,2.3-1.8,3.5c-0.8,2.4-1.3,4.8,0,7.4c0.7,1.3,0.5,3.2,0.4,4.8c0,1.3-0.4,2.7-0.7,4c-0.3,1.6-0.8,3.1-2.8,3.6
		c-0.6,0.2-1.2,0.7-1.8,1.2c-2.2,1.7-4.2,3.7-7,4.4c-0.5,0.1-1,0.5-1.4,0.9c-1.2,1.2-2.4,2.3-3.5,3.6c-0.9,1-1.8,1.7-3.3,1.4
		c-0.8-0.2-1.8,0.1-2.5,0.5c-1.1,0.7-2.1,1.8-3.1,2.7c-0.4,0.4-0.8,0.8-1.2,1.1c-1.2,0.7-2.4,1.3-3.5,2.1c-3.2,2.3-6.4,4.6-7.8,8.7
		c-0.6,1.7-1.5,3.4-2.4,5c-1.2,1.9-1.9,4.1-3.6,5.7c-1,0.9-1.4,2.6-2.8,3.2c-0.2,0.1-0.3,0.5-0.4,0.8c-0.5,1.3-1.2,2.6-1.5,4
		c-0.3,1.5-1.8,2.7-0.7,4.4c1.2,1.9,3.5,2.8,4.2,5c0.1,0.4,0.7,0.7,1,1c0.1,0.1,0.1,0.1,0.2,0.1c2.6,0.7,4.2,2.8,6.2,4.5
		c1.7,1.4,3.1,2.8,4.2,4.7c0.2,0.3,0.6,0.6,0.9,0.8c2.4,1.2,3.7,3.6,5.4,5.5c0.6,0.7,0.7,2,1.7,2.5c1.4,0.7,2.3,1.9,3,3.3
		c0.8,1.5,2.1,2.6,3.4,3.7c1.9,1.5,3.7,3.1,5.5,4.7c0.3,0.3,0.6,0.8,0.8,1.2c1.5,3.3,3.5,6.1,6.5,8.1c1.9,1.3,2,2.1,1.4,4.2
		c0.4-0.2,1.1-0.7,1.4-0.5c1.5,0.8,2.8,1.7,4.6,2.8c-0.2,0,0.2,0.1,0.4-0.1c1.3-1.1,2.5-0.9,3.9,0.1c1.1,0.8,2.5,1.2,4.1,0.6
		c3-1.2,6.2-1.3,9.4-0.8c0.5,0.1,1.1-0.1,1.6-0.2c1.7-0.3,3.3-0.7,5-1c2-0.4,4-0.7,6.2-0.7c1.4,0,2.6-0.1,3.9,0.4
		c1,0.3,2.2,0.2,3.3,0.2c1.6-0.1,3.2-0.2,4.8-0.4c0.5,0,1,0.1,1.4-0.1c3.3-0.9,6.7-1.4,10.2-1.3c2.8,0.1,5.6-0.5,8.4-0.8
		c3.4-0.3,6.8-0.7,10.2-1c3.7-0.4,7.6,0.1,11-2.2c0.4-0.3,1.1-0.5,1.4-0.3c1.2,0.9,2.2,0.1,3.4,0c3.8-0.4,7.5-0.8,11.3-1.2
		c2.6-0.3,5.2-1.2,7.9-0.5c0.4,0.1,0.8-0.1,1.2-0.2c3.2-0.5,6.4-1.8,9.7-0.7c0.4,0.1,1,0,1.4-0.2c2.6-1.1,5.1-1,7.7-0.1
		c0.4,0.1,1.1,0.1,1.4-0.1c1.4-1.3,3.1-1.4,4.8-1.7c3-0.6,5.9-0.8,8.8-0.7c0.5,0,1.1-0.1,1.6-0.2c1-0.1,2-0.3,3.1-0.4
		c1.6-0.1,3.2-0.1,4.8-0.2c0.5,0,1.1,0,1.6-0.1c1.7-0.1,3.5,0,5.2-0.3c3.1-0.4,6.2-1,9.3-1.6c0.6-0.1,1.2-0.4,1.6-0.8
		c0.9-0.6,1.7-1.5,2.6-2.1c2-1.2,2.6-2.5,2.2-4.9c-0.1-0.7-0.4-1.4-0.3-2.1c0.5-6.2,1-12.4,1.5-18.6c0.2-2.6,0.8-5.3-0.6-7.8
		c-0.3-0.5-0.2-1.3-0.2-1.9c-0.1-4.3-1.5-7.8-5.3-10.3c-1.1-0.7-1.9-1.7-2.9-2.6c-0.7-0.7-0.6-1.4-0.1-2.2c2.7-4.2,6.1-8,9.7-11.4
		c1.4-1.4,3.1-2.6,4.6-3.8c1.4-1.1,2.7-2.2,4-3.4c2.2-2,5-3.3,6.5-6c1-1.7,2.8-1.7,4.4-0.5c0.6,0.5,1.2,1.4,1.9,1.5
		c1.3,0.2,1.7,1.1,2.2,2c1.4,2.4,3.3,4.2,5.5,5.7c1.3,0.9,2.8,1.6,4.1,2.5c2.8,2.2,5.7,4.1,8.9,5.7c1,0.5,1.6,1.3,1.5,2.3
		c-0.2,2.8,1.1,5.3,1.3,8c0.1,0.9,0,1.8,0,2.7c-0.1,2.1-0.4,4.2-0.4,6.3c0,1.8-0.1,3.4-2,3.8c-0.2,1.8-0.5,3.4-0.5,4.9
		c0,1.1-0.3,1.9-1,2.6c-0.6,0.7-1,1.4-1.5,2.2c-1.5,2.8-2.9,5.7-4.4,8.6c-0.4,0.8-1.1,1.5-1.7,2.3c-0.9,1.1-1.9,2-2.6,3.2
		c-1.7,2.8-3.2,5.8-4.9,8.6c-0.7,1.2-1.6,2.2-2.5,3.3c-2.1,2.7-4.2,5.5-6.3,8.2c-0.5,0.7-1,1.5-1.6,2.1c-1.8,1.8-3.8,3.5-5.6,5.3
		c-0.7,0.7-1.4,1.6-1.5,2.4c-0.2,2.9-2.4,4.5-4,6.4c-1.2,1.5-3,2.6-4.6,3.8c-0.9,0.7-1.3,1.6-0.9,2.7c0.3,0.8,0.4,1.7,0.6,2.6
		c0.2,0.9,0.2,2,0.7,2.5c1.5,1.6,1.8,3.5,2.2,5.5c0.2,1.1,0.6,1.9,1.4,2.7c2.2,2.3,4.2,4.7,5.4,7.6c0.3,0.9,1.1,1.6,1.7,2.3
		c2.9,3.3,5.8,6.5,8.6,9.8c0.7,0.8,1.4,1.7,1.7,2.6c0.9,2.9,2.1,5.6,4.6,7.5c0.3,0.2,0.7,0.6,0.7,0.9c0.2,1.2,1.1,1.8,2,2.4
		c1.6,1.1,2.7,2.7,3.6,4.4c1.6,3.2,5,5.1,8.7,4.7c0.9-0.1,1.5,0,2.2,0.6c0.9,0.7,2.8,0.4,3.6-0.3c2.5-2.2,5-4.5,7.5-6.7
		c0.7-0.6,1.6-1.1,2.4-1.6c0.6-0.4,1.3-0.7,1.7-1.3c2.9-3.2,6.5-5.7,8.3-9.8c0.1-0.2,0.5-0.3,0.8-0.5c2.4-1.9,4.9-3.7,6.3-6.6
		c0.3-0.7,0.9-1.4,1.4-2c2.2-2.3,4.3-4.5,6.5-6.8c0.5-0.5,1.1-1,1.5-1.6c1.7-2.7,3.4-5.3,5.5-7.8c2.6-3,5.6-5.8,6.9-9.8
		c0.1-0.2,0.2-0.5,0.4-0.6c2.3-2.3,4.5-4.6,6.8-6.7c0.5-0.5,1.5-0.8,2.2-0.7c1.4,0.3,2.1-0.3,2.6-1.5c0.3-0.6,0.8-1.5,1.3-1.6
		c2.2-0.2,3.4-2.1,5.4-2.6c0.4-0.1,0.8-0.5,1-0.9c0.8-1.5,2.3-2.2,3.6-3.1c3-2.3,6.2-4.4,9-6.9c0.8-0.7,1.5-1.1,2.5-1.5
		c1.9-0.6,4.2-1,4.3-3.8c0-0.3,0.5-0.6,0.8-0.9c1.2-1.4,2.7-2.6,3.6-4.2c0.7-1.2,1.6-1.9,2.7-2.3c1.9-0.6,3-1.7,3.4-3.6
		c0.1-0.5,0.6-0.8,0.9-1.1c-0.3-0.8-0.5-1.5-0.7-2.3c1.1-0.7,1.9-1.5,1.6-3c-0.1-0.3,0.1-0.8,0.4-1.1c1.5-1.6,1.6-3.6,1.8-5.6
		c0.1-1.3,0.2-2.6,0.7-3.9c0.7-1.8,0.7-3.8,0.2-5.7c-0.2-0.9-0.1-1.9-0.1-2.9c0-1,0.3-1.9,0.3-2.9c0-4.2-0.8-8.1-2.8-11.8
		c-0.3-0.5-0.2-1.1-0.3-1.7c-0.3-3-2.8-4.8-4.1-7.2c-1.9,0.2-1.3-1.3-1.6-2.3c-0.2-0.8-0.3-1.8-0.8-2.5c-3.4-4.5-6.9-8.9-10.4-13.3
		c-1-1.3-2.4-2.4-3.5-3.7c-0.8-1-1.5-2.1-2.4-3c-3.4-3.1-6.9-6-10.4-9.1c-0.5-0.4-0.9-0.9-1.3-1.4c-1.8-2.2-3.5-4.4-5.3-6.6
		c-0.3-0.4-0.9-0.7-1.3-1c-0.5-0.3-1.1-0.6-1.5-1c-1.6-1.2-3-2.6-4.7-3.7c-1.3-0.9-2.8-1.5-4.2-2.3c-0.8-0.5-1.6-1.1-2.4-1.6
		c-1.2-0.7-2.6-1.3-3.7-2.2c-2.3-1.7-4.7-3-7.5-3.8c-2.7-0.8-5.1-2.1-6.4-4.8c-0.5-1.1-0.9-2.4-1.8-3.1c-2.9-2.1-4.4-5.2-5.4-8.3
		c-0.9-2.6-1.4-5.4-2.7-7.9c-0.7-1.4-0.3-3.2-1.3-4.7c-0.5-0.8-0.4-2.1-1.1-3c-0.3-0.3-0.3-0.9-0.2-1.4c0.2-2.9,0.4-5.8,0.8-8.7
		c0.1-1.1,0.7-2.2,1.4-3c0.9-1.1,1.3-2.1,1.3-3.5c0-1,0-2.1,0.3-3.1c1.2-3.7,2.3-7.4,1.4-11.3c-0.2-0.7,0.2-1.4,0.3-2.1
		c0.3-2.1,1.4-4.1,1.1-6.4c-0.2-1.5-0.3-2.9,0.9-4.1c0.3-0.4,0.3-1.2,0.2-1.8c-0.4-2.3,1.4-3.6,2.4-5.2c0.1-0.1,0.3-0.2,0.4-0.3
		c2.7-0.8,5.4-0.7,8,0.3c1.3,0.5,2.4,1.2,3.7,1.8c1.5,0.7,3.1,1.3,4.6,2.1c1,0.5,1.9,0.5,2.6-0.4c0.4-0.5,0.9-0.9,1.3-1.4
		c2.2,0.7,4.2-0.1,6-1.1c1.7-1,3.4-1.8,5.4-1.9c0.8,0,1.5-0.5,2.3-0.6c1.4-0.3,2.3-1.2,2.6-2.5c0.3-1.2,1.1-1.9,2-2.6
		c0.5-0.3,0.9-0.6,1.3-1c2.5-2.4,4.5-5.1,6.5-7.9c0.2-0.3,0.4-0.8,0.8-0.9c3.7-1.8,5.4-5.9,9.3-7.4c0.2-0.1,0.3-0.3,0.5-0.5
		c2.4-2.1,4.7-4.2,7.2-6.1c1.5-1.2,3.2-2.2,4.7-3.3c2-1.4,3.9-2.9,5.8-4.2c1.1-0.8,2.4-1.4,3.5-2.2c1.1-0.8,2-1.9,3.2-2.6
		c1.6-0.9,3-1.7,4-3.4c0.3-0.6,1.2-1.1,1.9-1.4c2.3-0.8,4.7-1.6,7.1-2.2c1-0.3,1.6-0.6,1.8-1.6c1-4.8-0.5-9.3-2.1-13.7
		c-0.1-0.1-0.1-0.3-0.3-0.4c-1.9-1.4-2.6-3.6-3.7-5.6c-1.1-1.9-2.8-3.6-2.9-6.1c-0.1-2.7-0.6-5.2-2.1-7.5c-0.4-0.6-0.5-1.4-0.5-2.1
		c-0.1-1,0.3-2,0.1-2.9c-0.3-1.3-0.8-2.5-1.3-3.8c-1.6,0-1.6-1.3-2-2.3c-0.5-1.2-1.1-2.3-1.6-3.5c-0.7-1.4-1-2.9,0.2-4
		c-0.5-1.4-1.4-2.7-1.3-3.9c0-1.1-0.4-1.9-1-2.5C503.3,344.3,502.6,341.3,503.4,337.8z"/>
	<path d="M503.4,337.8c-0.8,3.5-0.1,6.4,2.3,9c0.6,0.7,1,1.4,1,2.5c0,1.3,0.8,2.5,1.3,3.9c-1.2,1.1-0.8,2.6-0.2,4
		c0.5,1.2,1.1,2.3,1.6,3.5c0.4,1,0.4,2.4,2,2.3c0.4,1.2,1,2.5,1.3,3.8c0.2,0.9-0.1,1.9-0.1,2.9c0,0.7,0.2,1.5,0.5,2.1
		c1.5,2.3,2.1,4.8,2.1,7.5c0.1,2.4,1.7,4.1,2.9,6.1c1.1,1.9,1.9,4.1,3.7,5.6c0.1,0.1,0.2,0.3,0.3,0.4c1.5,4.4,3.1,8.9,2.1,13.7
		c-0.2,1.1-0.8,1.4-1.8,1.6c-2.4,0.6-4.8,1.4-7.1,2.2c-0.7,0.3-1.6,0.7-1.9,1.4c-0.9,1.7-2.4,2.5-4,3.4c-1.2,0.7-2.1,1.8-3.2,2.6
		c-1.1,0.8-2.3,1.4-3.5,2.2c-2,1.4-3.9,2.8-5.8,4.2c-1.6,1.1-3.2,2.1-4.7,3.3c-2.4,2-4.8,4.1-7.2,6.1c-0.2,0.2-0.3,0.4-0.5,0.5
		c-3.8,1.5-5.6,5.7-9.3,7.4c-0.3,0.2-0.5,0.6-0.8,0.9c-2,2.8-4,5.5-6.5,7.9c-0.4,0.4-0.9,0.7-1.3,1c-0.9,0.7-1.8,1.4-2,2.6
		c-0.3,1.4-1.1,2.3-2.6,2.5c-0.8,0.2-1.5,0.6-2.3,0.6c-2,0.1-3.7,1-5.4,1.9c-1.9,1.1-3.8,1.8-6,1.1c-0.5,0.5-0.9,1-1.3,1.4
		c-0.8,0.8-1.6,0.8-2.6,0.4c-1.5-0.7-3.1-1.4-4.6-2.1c-1.2-0.6-2.4-1.3-3.7-1.8c-2.6-1-5.3-1-8-0.3c-0.1,0-0.3,0.1-0.4,0.3
		c-0.9,1.7-2.7,3-2.4,5.2c0.1,0.6,0.2,1.5-0.2,1.8c-1.1,1.2-1.1,2.6-0.9,4.1c0.3,2.3-0.8,4.3-1.1,6.4c-0.1,0.7-0.4,1.5-0.3,2.1
		c0.9,4-0.3,7.6-1.4,11.3c-0.3,1-0.3,2.1-0.3,3.1c0,1.4-0.4,2.4-1.3,3.5c-0.7,0.8-1.2,1.9-1.4,3c-0.4,2.9-0.6,5.8-0.8,8.7
		c0,0.5,0,1.1,0.2,1.4c0.7,0.9,0.6,2.3,1.1,3c1,1.5,0.6,3.4,1.3,4.7c1.3,2.6,1.8,5.3,2.7,7.9c1,3.2,2.5,6.2,5.4,8.3
		c0.9,0.6,1.3,2,1.8,3.1c1.3,2.7,3.7,4,6.4,4.8c2.7,0.8,5.2,2.1,7.5,3.8c1.1,0.9,2.5,1.5,3.7,2.2c0.8,0.5,1.6,1.1,2.4,1.6
		c1.4,0.8,2.9,1.4,4.2,2.3c1.6,1.1,3.1,2.5,4.7,3.7c0.5,0.4,1,0.6,1.5,1c0.5,0.3,1,0.6,1.3,1c1.8,2.2,3.5,4.4,5.3,6.6
		c0.4,0.5,0.8,1,1.3,1.4c3.5,3,7,6,10.4,9.1c0.9,0.8,1.5,2,2.4,3c1.1,1.3,2.4,2.4,3.5,3.7c3.5,4.4,7,8.8,10.4,13.3
		c0.5,0.6,0.5,1.6,0.8,2.5c0.2,1-0.3,2.5,1.6,2.3c1.3,2.4,3.8,4.2,4.1,7.2c0.1,0.6,0,1.2,0.3,1.7c2,3.7,2.8,7.7,2.8,11.8
		c0,1-0.2,1.9-0.3,2.9c0,1-0.2,2,0.1,2.9c0.5,2,0.5,3.9-0.2,5.7c-0.5,1.3-0.6,2.6-0.7,3.9c-0.2,2-0.3,4-1.8,5.6
		c-0.2,0.3-0.4,0.8-0.4,1.1c0.3,1.4-0.6,2.2-1.6,3c0.2,0.8,0.5,1.5,0.7,2.3c-0.3,0.3-0.8,0.7-0.9,1.1c-0.4,1.9-1.5,3-3.4,3.6
		c-1.1,0.3-2,1.1-2.7,2.3c-0.9,1.6-2.4,2.8-3.6,4.2c-0.3,0.3-0.7,0.6-0.8,0.9c-0.1,2.8-2.5,3.2-4.3,3.8c-1,0.3-1.7,0.8-2.5,1.5
		c-2.9,2.5-6,4.6-9,6.9c-1.3,0.9-2.8,1.6-3.6,3.1c-0.2,0.4-0.6,0.8-1,0.9c-2,0.5-3.2,2.4-5.4,2.6c-0.5,0-1,1-1.3,1.6
		c-0.6,1.2-1.2,1.8-2.6,1.5c-0.7-0.1-1.7,0.2-2.2,0.7c-2.3,2.2-4.6,4.5-6.8,6.7c-0.2,0.2-0.3,0.4-0.4,0.6c-1.3,4-4.3,6.8-6.9,9.8
		c-2.1,2.5-3.8,5.1-5.5,7.8c-0.4,0.6-1,1-1.5,1.6c-2.2,2.3-4.4,4.5-6.5,6.8c-0.6,0.6-1.1,1.2-1.4,2c-1.3,2.9-3.9,4.7-6.3,6.6
		c-0.2,0.2-0.7,0.3-0.8,0.5c-1.8,4.1-5.5,6.6-8.3,9.8c-0.5,0.5-1.1,0.9-1.7,1.3c-0.8,0.5-1.7,1-2.4,1.6c-2.5,2.2-5,4.4-7.5,6.7
		c-0.8,0.7-2.7,1-3.6,0.3c-0.7-0.6-1.3-0.7-2.2-0.6c-3.6,0.4-7.1-1.4-8.7-4.7c-0.9-1.7-1.9-3.3-3.6-4.4c-0.8-0.6-1.8-1.1-2-2.4
		c0-0.3-0.4-0.7-0.7-0.9c-2.5-1.9-3.7-4.6-4.6-7.5c-0.3-1-1-1.9-1.7-2.6c-2.9-3.3-5.8-6.5-8.6-9.8c-0.6-0.7-1.4-1.4-1.7-2.3
		c-1.2-3-3.2-5.4-5.4-7.6c-0.8-0.8-1.2-1.6-1.4-2.7c-0.3-2-0.6-3.9-2.2-5.5c-0.5-0.6-0.5-1.7-0.7-2.5c-0.2-0.9-0.3-1.7-0.6-2.6
		c-0.4-1.2-0.1-2,0.9-2.7c1.6-1.2,3.4-2.3,4.6-3.8c1.5-2,3.7-3.6,4-6.4c0.1-0.9,0.8-1.8,1.5-2.4c1.8-1.8,3.8-3.5,5.6-5.3
		c0.6-0.6,1.1-1.4,1.6-2.1c2.1-2.7,4.2-5.5,6.3-8.2c0.8-1.1,1.8-2.1,2.5-3.3c1.7-2.8,3.2-5.8,4.9-8.6c0.7-1.2,1.7-2.1,2.6-3.2
		c0.6-0.7,1.3-1.5,1.7-2.3c1.5-2.8,2.9-5.7,4.4-8.6c0.4-0.8,0.9-1.5,1.5-2.2c0.6-0.8,0.9-1.6,1-2.6c0-1.6,0.3-3.1,0.5-4.9
		c1.9-0.4,2-2,2-3.8c0-2.1,0.3-4.2,0.4-6.3c0.1-0.9,0.1-1.8,0-2.7c-0.2-2.7-1.5-5.2-1.3-8c0.1-1-0.5-1.8-1.5-2.3
		c-3.2-1.6-6.1-3.5-8.9-5.7c-1.3-1-2.7-1.7-4.1-2.5c-2.3-1.5-4.2-3.3-5.5-5.7c-0.5-0.9-0.9-1.8-2.2-2c-0.7-0.1-1.2-1-1.9-1.5
		c-1.6-1.2-3.4-1.2-4.4,0.5c-1.6,2.7-4.4,4-6.5,6c-1.3,1.2-2.7,2.3-4,3.4c-1.5,1.3-3.2,2.5-4.6,3.8c-3.6,3.5-7,7.2-9.7,11.4
		c-0.5,0.8-0.6,1.5,0.1,2.2c0.9,0.9,1.8,1.9,2.9,2.6c3.8,2.4,5.1,6,5.3,10.3c0,0.6-0.1,1.4,0.2,1.9c1.4,2.5,0.9,5.2,0.6,7.8
		c-0.5,6.2-1,12.4-1.5,18.6c-0.1,0.7,0.2,1.4,0.3,2.1c0.5,2.3-0.2,3.6-2.2,4.9c-0.9,0.6-1.7,1.4-2.6,2.1c-0.5,0.3-1.1,0.7-1.6,0.8
		c-3.1,0.6-6.2,1.1-9.3,1.6c-1.7,0.2-3.5,0.2-5.2,0.3c-0.5,0-1.1,0-1.6,0.1c-1.6,0.1-3.2,0.1-4.8,0.2c-1,0.1-2,0.3-3.1,0.4
		c-0.5,0.1-1.1,0.2-1.6,0.2c-3-0.2-5.9,0.1-8.8,0.7c-1.8,0.3-3.4,0.5-4.8,1.7c-0.3,0.3-1,0.3-1.4,0.1c-2.6-1-5.1-1.1-7.7,0.1
		c-0.4,0.2-1,0.3-1.4,0.2c-3.4-1.1-6.5,0.2-9.7,0.7c-0.4,0.1-0.8,0.3-1.2,0.2c-2.7-0.7-5.3,0.2-7.9,0.5c-3.8,0.4-7.5,0.8-11.3,1.2
		c-1.1,0.1-2.2,0.8-3.4,0c-0.2-0.2-1,0.1-1.4,0.3c-3.4,2.2-7.2,1.8-11,2.2c-3.4,0.3-6.8,0.7-10.2,1c-2.8,0.3-5.6,0.8-8.4,0.8
		c-3.5-0.1-6.9,0.4-10.2,1.3c-0.4,0.1-0.9,0-1.4,0.1c-1.6,0.1-3.2,0.3-4.8,0.4c-1.1,0-2.3,0.1-3.3-0.2c-1.3-0.5-2.6-0.4-3.9-0.4
		c-2.1,0-4.1,0.2-6.2,0.7c-1.7,0.3-3.3,0.7-5,1c-0.5,0.1-1.1,0.3-1.6,0.2c-3.2-0.5-6.4-0.4-9.4,0.8c-1.6,0.6-3,0.2-4.1-0.6
		c-1.4-1-2.5-1.2-3.9-0.1c-0.2,0.2-0.6,0.1-0.4,0.1c-1.8-1.1-3.1-2-4.6-2.8c-0.3-0.2-1,0.3-1.4,0.5c0.6-2.1,0.5-2.9-1.4-4.2
		c-3-2.1-5-4.9-6.5-8.1c-0.2-0.4-0.4-0.9-0.8-1.2c-1.8-1.6-3.6-3.2-5.5-4.7c-1.4-1.1-2.6-2.1-3.4-3.7c-0.7-1.3-1.6-2.5-3-3.3
		c-1-0.5-1.1-1.8-1.7-2.5c-1.7-1.9-3-4.2-5.4-5.5c-0.3-0.2-0.7-0.4-0.9-0.8c-1.1-1.9-2.5-3.3-4.2-4.7c-2-1.6-3.6-3.7-6.2-4.5
		c-0.1,0-0.2-0.1-0.2-0.1c-0.4-0.3-0.9-0.6-1-1c-0.7-2.3-3-3.1-4.2-5c-1.1-1.8,0.4-3,0.7-4.4c0.3-1.4,1-2.7,1.5-4
		c0.1-0.3,0.2-0.7,0.4-0.8c1.4-0.7,1.8-2.3,2.8-3.2c1.8-1.6,2.5-3.8,3.6-5.7c1-1.6,1.9-3.2,2.4-5c1.3-4.1,4.6-6.3,7.8-8.7
		c1.1-0.8,2.4-1.4,3.5-2.1c0.5-0.3,0.8-0.7,1.2-1.1c1-0.9,2-2,3.1-2.7c0.7-0.4,1.7-0.7,2.5-0.5c1.6,0.4,2.4-0.3,3.3-1.4
		c1.1-1.3,2.3-2.4,3.5-3.6c0.4-0.4,0.9-0.7,1.4-0.9c2.8-0.8,4.8-2.7,7-4.4c0.6-0.4,1.1-1,1.8-1.2c1.9-0.5,2.4-2,2.8-3.6
		c0.3-1.3,0.6-2.7,0.7-4c0-1.6,0.2-3.4-0.4-4.8c-1.3-2.6-0.8-5,0-7.4c0.4-1.2,0.3-2.8,1.8-3.5c-0.1-2.7,2.4-4.7,1.8-7.6
		c-0.5-2.2,0-4.4,0.7-6.7c1-3.4,1.7-6.9,0.1-10.4c-0.4-0.9-0.3-1.6,0.4-2.2c2.4-1.9,2.5-4.3,1.8-7c-0.2-0.7,0.2-1.7,0.5-2.5
		c0.3-0.7,0.9-1.2,1.2-1.8c0.2-0.4,0.6-1,0.5-1.3c-1-2.2-0.6-4.8-2.2-6.9c-1-1.3-1.3-3.2-2-4.9c-0.2-0.5-0.2-1.2-0.6-1.5
		c-2-1.8-2.8-4.3-4.3-6.3c-1.1-1.5-2.3-2.9-3.5-4.3c-0.9-1.1-2-2-1.9-3.7c0.1-1.5-1.4-1.6-2.5-1.6c-1.2-3.6-3-6.6-5.9-8.9
		c-1-0.8-1.9-2-2.6-3.2c-1.8-3.2-4.8-5.5-7-8.3c-0.2-0.2-0.5-0.4-0.8-0.5c-1.7-0.5-2.8-1.5-2.7-3.5c0-0.4-0.5-1.1-0.9-1.3
		c-1.1-0.5-1.5-1.4-1.8-2.4c-0.2-0.7-0.7-1.3-1-1.9c-0.7-1.2-1.3-2.4-2.1-3.5c-0.7-0.9-1.5-1.8-2.4-2.6c-1-0.8-2.2-1.4-3.1-2.2
		c-1.5-1.3-3-1.9-5.1-1.4c-2.3,0.6-4.8,0.8-7.1,1.3c-3.5,0.7-6.9,0.7-10.4,0.8c-1.8,0.1-3.5,0.3-5.2,0.7c-3.7,0.8-6.6-0.4-9.3-2.7
		c-0.4-0.4-0.9-0.8-1.4-0.9c-2.8-0.5-4-2.6-5.1-4.8c-0.6-1.2-1.3-2-2.3-2.9c-1.9-1.6-4.2-3.3-3.5-6.4c0-0.2,0-0.4,0-0.5
		c-1.5-1.8-1.4-4.2-2.3-6.2c-0.6-1.4-0.8-2.7-0.9-4.2c-0.2-2.2,0.3-4.5-0.6-6.7c-0.2-0.4,0-1.1,0.2-1.6c0.6-1.4,0.5-2.7-0.1-4
		c-0.5-1-0.3-2-0.1-3c0.6-3.1,2.1-5.9,3.3-8.8c0.4-0.9,0.3-1.9,0.4-2.8c0.2-2.7,0.5-5.3,0.6-8c0.1-2.6,1.3-4.8,2.3-7.1
		c1.2-2.8,1.7-5.6,1.2-8.7c-0.2-1.4,0.2-2.9,0.6-4.3c0.4-1.8,1.1-3.5,1.7-5.3c0.4-1.1,0.7-2.1,1.1-3.2c0.3-0.9,0.6-1.8,0.9-2.7
		c0.2-0.5,0.6-1.2,0.5-1.6c-0.7-2.1,0.5-4,0.7-6c0.1-1.2,0.7-2.1,1.7-2.8c2.5-1.9,3.2-4.8,2.2-7.8c-0.3-0.9-0.4-1.9-0.1-2.8
		c1.6-5.3,3.2-10.5,4.9-15.7c0.1-0.4,0.1-0.9,0.4-1.1c2.4-2.1,1.7-5.3,2.5-7.9c0.1-0.2,0.1-0.5,0-0.7c-1-4.4-0.2-8.8,0.1-13.2
		c0.2-3.1,0.5-6.3,0.5-9.4c0-1.6-0.4-3.2-0.4-4.8c0-1.8,0-3.5-0.5-5.4c-0.7-2.7-1.2-5.7-0.8-8.6c0.2-2-0.1-4.2-0.3-6.2
		c-0.1-0.8-0.5-1.7-0.2-2.2c0.6-1.2,1.6-2.2,2.4-3.3c0.3-0.3,0.8-0.5,1.3-0.7c0.9-0.4,1.5-1,1.6-2.2c0.1-0.7,0.8-1.3,1.3-1.9
		c0.5-0.6,1.5-0.9,1.8-1.6c1.4-3,4.4-4,6.7-5.8c0.7-0.6,1.5-1.2,2.2-1.8c0.2-0.2,0.5-0.6,0.7-0.6c2-0.2,2.8-2,4.2-2.9
		c2.1-1.4,3.8-3.3,5.9-4.5c1.5-0.8,3-1.5,4.2-2.7c0.2-0.2,0.6-0.4,0.7-0.6c1.3-2.9,4-4.7,6-6.9c0.9-1,2.2-1.6,3.3-2.4
		c1.3-0.9,2.6-1.5,3.8-2.5c2.4-2.1,4.6-4.6,7.1-6.6c2-1.7,4.4-3.1,6.6-4.6c0.6-0.4,1.3-0.7,1.8-1.2c2-1.8,4-3.8,6.1-5.6
		c1.7-1.5,3.6-2.8,5.3-4.2c3.1-2.6,6.3-5.1,9.6-7.4c2.6-1.8,4.8-4,7.2-6.1c1.7-1.4,3.4-2.8,5-4.2c2.8-2.4,6.3-3.3,9.4-4.9
		c1.1-0.6,2-0.2,2.6,0.9c2.2,3.8,5.9,5.9,9.7,7.7c3.1,1.5,6.4,2.7,9.6,4.1c1.6,0.7,3.1,1.6,4.7,2.4c3.3,1.7,6.5,3.6,9.9,5.1
		c3.4,1.6,6.9,3,10.5,4.4c2.5,1,5,1.7,7.5,2.6c0.5,0.2,1,0.6,1.4,0.9c0.9,0.6,1.7,1.4,2.6,1.7c2.5,0.6,4.5,2.1,6.6,3.4
		c2.3,1.5,4.5,3.1,6.6,4.9c3.4,2.9,6.7,6.1,10.1,9.1c1.2,1.1,2.6,1.9,3.9,2.9c1.9,1.6,3.8,3.3,5.7,4.9c1.4,1.2,2.8,2.4,4.2,3.6
		c0.7,0.6,1.2,1.3,1.7,2c2,2.5,4,5.1,6,7.6c0.4,0.6,0.9,1.1,1.3,1.8c0.9,1.8,2.3,3,4,4.1c2,1.3,3.6,3.4,5.4,5.2
		c0.6,0.6,0.9,1.4,1.4,1.9c2.4,2.3,4.7,4.7,7.2,6.8c1.5,1.3,3.4,2.1,5.2,3.1c0.8,0.4,1.5,0.9,2.2,1.3c3.1,2,6.1,4.3,9.4,5.9
		c4.1,2,8.5,3.4,12.8,4.9c0.5,0.2,1.1,0.2,1.7,0.2c1.9,0.1,3.7,0.2,5.6,0.2c1.2,0,2.4-0.1,3.6-0.2c0.5,0,0.9-0.1,1.4,0
		c0.8,0,1.6,0.3,2.4,0.2c2.7-0.5,5.3-0.2,8,0c3.5,0.2,6.8-0.5,10.1-1.4c1.9-0.5,4-0.5,5.8-1.7c0.5-0.3,1.4-0.1,2.1-0.1
		c0.6,0,1.4,0.4,1.9,0.2c3.1-1,6.6-0.9,9.5-2.5c1.1-0.6,2-0.8,3.2-0.4c1.4,0.4,2.8-0.1,4.2-0.5c2.7-0.9,5.6-1.3,8.4-2
		c0.9-0.2,1.8-0.1,2.6-0.5c3.3-1.8,6.7-3.4,10.4-4.4c1.1-0.3,2.1-1.1,3.2-1.6c2.8-1.2,5.6-2.5,8.5-3.6c3.5-1.3,7.2-2.5,10.7-3.7
		c2.8-1,5.6-2.2,8.4-3c2.3-0.7,4.7-1.2,7.1-1.4c2.4-0.2,3.9,1.3,4.2,3.8c0.3,2.6,0.2,5.2,0.2,7.8c0,1.7-0.1,3.4-0.2,5.1
		c-0.1,2.4-0.3,4.8-0.3,7.2c0,2.8,0,5.7,0.2,8.5c0.1,1.2,0.6,2.4,1.3,3.4c1.5,1.9,1.6,4.1,1.3,6.2c-0.5,3.4-0.3,6.5,1.1,9.7
		c1,2.3,1.5,4.9,2.2,7.4c0.1,0.4-0.1,1,0,1.4c0.1,0.7,0.2,1.3,0.3,2c0.1,0.4,0.1,0.9,0.1,1.3c0.1,0.9,0,1.8,0.3,2.6
		c0.6,1.7,1.3,3.5,2.2,5.1c1,1.8,1.3,3.6,1.3,5.6c0,1.1,0.1,2.3,0.4,3.3c0.4,1.2,1,2.2,0.7,3.5c0,0.1,0,0.4,0,0.5
		c1.7,2.7,1.9,5.9,3.2,8.8C502.3,336.9,502.9,337.3,503.4,337.8z M373.2,276c-1-0.9-1-0.9-2.2-0.2
		C371.7,275.9,372.5,275.9,373.2,276c-0.2,0.1-0.4,0.5-0.7,0.5c-2.7,0.4-5.3,0.3-7.4-1.9c-0.1-0.1-0.4-0.1-0.7-0.2
		c-0.4,0.6-0.7,1.2-1.2,1.9c-1.4-1.3-3.7-0.6-4.7-2.5c-0.1-0.3-1.1,0-1.6-0.2c-0.8-0.2-1.8-0.3-2.4-0.9c-1.4-1.3-3.2-1.6-5-1.8
		c-1.5-0.1-2.9-0.4-3.8-1.7c-1-1.4-1.8-2.8-2.7-4.2c-0.2-0.3-0.6-0.5-0.9-0.6c-0.6,0.7-1.2,1.2-1.6,1.7c-2.5-1.1-4.2-3.2-7-3.2
		c-0.4-2.3-2.6-2.2-4.1-2.7c-2.5-0.8-4.1-2.3-5.5-4.3c-0.5-0.7-1.2-1.6-1.9-1.7c-1.2-0.2-1.7-0.9-2-1.8c-0.4-1.2-1.1-2.3-2.3-2.7
		c-2.1-0.6-3.2-2.4-4.5-3.8c-2.3-2.4-4.1-5.2-6.6-7.4c-0.4-0.3-0.7-0.7-0.9-1.1c-1.1-1.9-2.2-3.9-3.3-5.8c-0.2-0.3-0.4-0.6-0.7-0.7
		c-1.5-0.5-2.2-1.8-3.1-3c-0.5-0.7-1.2-1.6-1.9-1.8c-2.4-0.7-3.3-2.7-4.7-4.3c-1.2-1.3-2.4-3-3.9-3.8c-2.2-1.1-4-2.6-5.9-4.1
		c-2.4-1.9-4.9-3.7-5.7-6.2c-1.7-0.8-2.9-1.3-4-1.9c-0.8-0.5-1.4-1.4-2.2-1.9c-0.5-0.4-1.1-0.7-1.7-0.8c-1-0.2-3.3-1.2-4.1-1.8
		c-1.1-0.9-2.2-1.9-3.5-2.9c-1.2,0.7-2.3,0.2-3.5-0.3c-3.4-1.4-7-2.5-10.5-3.8c-0.7-0.3-1.5-0.5-2.1-0.9c-1-0.6-1.8-1.4-2.8-1.9
		c-2.9-1.4-5.8-2.7-8.8-4.1c-2.2-1.1-4.5-2.1-6.7-3.2c-2.2-1.1-4.4-2.4-6.7-3.4c-3.7-1.6-7.5-3-10.6-5.7c-1.1-0.9-2.6-1.4-3.9-0.6
		c-2.5,1.7-5,3.5-7.2,5.6c-2.2,2.2-5.2,3.5-7.1,6.1c-0.2,0.4-0.9,0.4-1.3,0.7c-0.5,0.3-1,0.6-1.4,0.9c-2.4,2.5-5.4,4.3-8.3,6.2
		c-1.1,0.8-2.5,1.5-3.1,2.6c-1,2.1-2.8,3.1-4.7,4.3c-2.2,1.4-4.6,2.4-6.2,4.5c-1.2,1.6-2.3,3.1-4.3,3.8c-0.1,0.1-0.3,0.2-0.3,0.3
		c-1.1,2.3-4.1,3.3-4.6,6.1c0,0.2-0.4,0.5-0.7,0.6c-0.8,0.6-1.7,1.2-2.5,1.9c-1.6,1.5-2.9,3.3-4.7,4.4c-2.3,1.5-4,3.4-5.6,5.6
		c-1.3,1.8-2.9,3.6-5.1,4.1c-1.6,0.4-2.4,1.5-3.3,2.6c-0.9,1.1-1.8,2.3-2.9,3.2c-1.7,1.5-3.6,2.7-5.5,4c-1,0.7-2,1.3-2.9,2.1
		c-1.9,1.6-4.1,3-4.1,5.9c0,1.5,0,3.1,0,4.6c0,2.2-0.1,4.4,0,6.5c0.1,1.3,0.8,2.6,0.5,3.8c-0.7,3.1,0.1,5.9,0.6,8.9
		c0.4,2.4,0.7,4.8,0.8,7.2c0.1,5.1,0.3,10.2-0.1,15.3c-0.2,2.4-0.7,4.8-0.5,7.2c0,0.1,0,0.2-0.1,0.2c-1.3,2.8-0.4,5.8-1.4,8.6
		c-1.4-0.2-1.6-0.1-1.8,1c-0.2,1.5-0.1,3.1-1.7,4.1c-0.2,0.1-0.2,0.4-0.3,0.7c-0.6,2.2-1.1,4.4-1.9,6.5c-1.4,3.9-2.7,7.8-4.6,11.5
		c-0.8,1.6-1.6,2.9-0.6,4.6c0.1,0.1,0.1,0.3,0,0.5c-0.6,1.8-1,3.8-1.9,5.4c-0.7,1.4-1,2.9-1.1,4.4c-0.1,2.3-0.3,4.5-0.5,6.8
		c-0.1,0.7-0.2,1.5-0.4,2.1c-1.3,3.2-2.6,6.4-2.1,10c0.1,0.4,0,0.8-0.2,1.2c-1,2.7-1,5.5-1.2,8.3c-0.3,3.1,0.4,6.2,0,9.3
		c-0.3,2.8-0.1,5.7-1,8.5c-0.8,2.4-1,4.9-0.2,7.4c1,3.2,1.7,6.5,2.8,9.7c1,2.8,2.2,5.5,3.5,8.2c0.9,1.8,2,3.6,3,5.3
		c0.2,0.3,0.4,0.5,0.6,0.7c0.8,0.6,1.5,1.2,2.3,1.6c2.2,1.2,4.1,3.6,7.2,2.5c0.1,0,0.2,0,0.2,0c1.9,0.5,3.5-0.3,5.2-0.9
		c1.4-0.5,2.8-1.2,4.2-1.8c1.2-0.5,2.3-1.6,3.4-1.5c3.2,0.1,6.4,0.7,9.6,1.1c0.1,0,0.3,0.2,0.4,0.3c2,1.1,4,2.4,6.1,3.4
		c1.8,0.9,3,2,3.7,3.9c0.3,0.9,0.8,1.8,1.4,2.5c1.1,1.3,2.4,2.4,3.5,3.6c1.1,1.3,2.1,2.6,3.1,3.9c0.9,1.2,1.6,2.4,2.4,3.6
		c1.4,2.3,1.9,5.2,4.5,6.7c0.2,0.1,0.3,0.5,0.5,0.8c1,1.9,2,3.8,3,5.7c2.3,4,5.2,7.5,8.1,11.1c0.4,0.4,0.8,0.9,1,1.4
		c0.7,2.5,2.5,4.1,4.1,5.9c1.3,1.5,2.5,3.2,4.2,4.2c0.3,2.4,2.5,3.1,4.1,4.2c1.5,1,2.3,2.1,2.6,3.8c0.2,1.2,0.7,2.3,1,3.4
		c0.4,1.4,1,2.8,0.9,4.2c-0.2,3.4-0.8,6.8-0.5,10.3c0.1,0.7-0.2,1.4-0.2,2.2c-0.1,0.9-0.2,1.8-0.1,2.7c1,4.6-0.2,9.2-0.5,13.8
		c-0.3,3.9-0.9,7.7-1.5,11.5c-0.3,1.7-0.6,3.5-1,5.2c-0.4,2.1-0.7,4.1-1.4,6.1c-1,3.2-1.4,6.4-1.7,9.7c-0.3,3.5-1.1,6.5-4.6,8.2
		c-1.7,0.8-3.4,1.9-5,3c-2.6,1.9-5.1,4-7.7,6c-0.8,0.6-1.7,0.9-2.4,1.5c-1.1,0.9-2.7,0.9-3.7,2.2c-1,1.4-2.3,2.8-3.9,3.6
		c-2.5,1.2-4,3.2-5.5,5.3c-1.7,2.4-3.4,4.8-5.2,7c-2.2,2.7-4.5,5.3-6.7,7.9c-0.7,0.9-1.2,1.9-0.4,3.1c0.4,0.6,0.3,1.6,0.1,2.3
		c-1.9,6.8,1.1,15.2,9.9,17.7c3.9,1.1,7,3.3,9.7,6.1c3,3.2,5.7,6.6,8.7,9.8c3.4,3.8,7.3,7.1,12.2,9.1c0.9,0.4,1.7,1.2,2.4,1.9
		c1.4,1.3,2.7,3.1,4.7,3.2c5.4,0.4,10.8,0.8,16.2,0c9.8-1.5,19.5-3,29.3-4.5c5.2-0.8,10.4-1.5,15.7-1.9c5.1-0.4,10.1-1.3,15-2.9
		c2.7-0.8,5.4-1.5,8.2-2.2c0.5-0.1,1-0.2,1.4-0.2c6.1-0.1,12.1-0.1,18.2-0.1c2.9,0,5.7-0.3,8.3-1.6c1.2-0.5,2.4-1,3.5-1.5
		c1.4,1.6,3.7,2.1,4.8,0.9c1.1-1.3,2.2-1.1,3.2-0.4c1.7,1.1,3.5,1,5.4,0.9c2-0.1,4.1-0.9,5.9-0.5c2.9,0.5,5.7-0.5,8.6,0
		c1.3,0.2,2.3-0.5,2.6-1.7c0.8-3.2,1.5-6.4,2.2-9.6c0.2-0.9,0.1-2,0-2.9c-0.3-2.2-0.8-4.3-1-6.5c-0.1-1.2,0-2.4,0.1-3.6
		c0.1-1.2,0.7-2.5,0.4-3.6c-0.8-3.2-1.3-6.5-3.8-9.1c-0.7-0.7-1.4-1.4-2-2.1c-1.8-2.2-3.6-4.4-5.2-6.6c-1-1.3-0.7-2.8,0.4-3.8
		c1.9-1.8,4.1-3.4,6.1-5.1c1.8-1.6,4-2.9,4.3-5.6c0.1-0.5,0.4-1.1,0.8-1.5c2.1-1.9,4.2-3.8,6.3-5.6c2.1-1.8,4.3-3.4,6.4-5.2
		c2-1.7,3.8-3.8,6.2-5c0.6-0.3,1.1-0.9,1.6-1.4c1.1-1.1,2.3-2.2,3.4-3.5c0.9-1.1,1.9-1.3,3.3-0.9c1.5,0.4,3,0.5,4.4-0.5
		c1-0.7,1.8-0.4,2.6,0.4c0.8,0.7,1.5,1.6,2.4,2c2,1,3.1,2.7,4.5,4.2c2.1,2.1,3,5.1,5.8,6.6c0.5,0.2,0.8,0.8,1,1.3
		c0.8,1.8,2.1,2.5,4,2.5c0.8,0,2,0.3,2.4,0.9c1.5,2.3,3.6,2.8,6,3.1c1.8,0.2,3.3,1.3,4.3,2.8c2.1,2.7,2,6.1,2.7,9.2
		c0.2,1-0.2,2.1-0.2,3.1c0,3.4,0.1,6.8,0.1,10.2c0,1.3,0.1,2.6-0.1,3.9c-0.3,1.9-0.5,3.8-1.5,5.6c-0.7,1.3-0.6,3-1,4.5
		c-1,3.5-2.2,6.9-3.3,10.4c-0.4,1.2-1,2.4-1.6,3.5c-0.7,1.3-1.7,2.5-2,4.1c-0.1,0.7-0.9,1.2-1.5,1.8c-1.6,1.5-2.9,3.1-2.6,5.4
		c0.1,1-0.3,1.7-1,2c-1.8,0.7-2.7,1.9-3.1,3.7c-0.1,0.5-0.6,0.9-0.9,1.4c-1.6,2.3-3.3,4.5-4.9,6.9c-1.5,2.3-3,4.6-4.4,6.9
		c-0.2,0.3-0.3,0.6-0.6,0.7c-1.6,0.9-2,2.5-2.3,4.1c-0.2,1.6-0.9,2.4-2,2.5c-1.2,1.8-2.1,3.4-3.1,4.9c-1,1.4-1.8,2.9-3.3,4.1
		c-1.9,1.6-1.9,2.6-0.3,4.8c2.2,3.2,4.6,6.2,6.9,9.3c0.9,1.3,1.6,2.8,2.7,4c2.6,3,5.3,5.9,7.9,8.9c1.1,1.3,2,2.8,3.2,3.9
		c2.1,1.8,3.7,3.8,5.2,6.1c1,1.5,2,2.9,3.2,4.2c1.7,1.8,3.4,1.2,4.1-1.1c0.3-1.1,0.8-2.3,1.5-3.2c1-1.3,2.2-2.4,3.3-3.5
		c0.6-0.6,1.2-1.1,1.9-1.4c2-0.8,3.3-2.2,4.4-4c1.2-2,2.4-4,3.8-5.8c0.7-1,2-1.6,2.8-2.7c1.5-2,2.9-4,4.2-6.2
		c3.1-5,6.1-10.1,9.1-15.1c0.7-1.2,1.6-2.3,2.2-3.5c0.5-1.2,1.4-1.8,2.4-2.5c1.9-1.4,4.5-2.4,4.4-5.5c0-1.1,0.9-1.6,2.2-1.2
		c2.5,0.8,4.2-0.5,5.9-1.9c1.7-1.4,3.5-2.8,5.3-4.2c0.4-0.3,1-0.7,1.5-0.7c3-0.1,5.1-1.7,7.2-3.6c0.7-0.6,1.3-1.2,2.1-1.7
		c2.3-1.4,3.8-3.2,3.6-5.6c1-0.9,1.8-1.5,2.5-2.3c0.6-0.7,1.2-1.2,2.3-1c1,0.2,1.5-0.3,1.8-1.2c0.1-0.4,0.3-0.9,0.4-1
		c3.2-1.2,5.9-2.5,7.1-5.7c0.2-0.6,0.6-1.1,0.9-1.7c1.6-2.8,3.4-5.5,4.8-8.4c1.5-3.1,2.9-6.2,3.7-9.6c0.5-2.3,0.4-4.6,0.4-6.9
		c0-2.4-1-4.8-1.7-7.2c-0.1-0.5-0.3-0.9-0.5-1.3c-1.2-2.9-2.8-5.7-3.7-8.7c-0.8-2.7-2.3-4.7-4.3-6.6c-1-1-1.8-2.2-2.7-3.4
		c-0.5-0.6-0.9-1.4-1.4-2c-1.2-1.6-2.6-3.1-3.8-4.7c-1.3-1.7-2.4-3.4-3.7-5.1c-0.8-1-1.9-1.8-2.6-2.9c-1.4-2.3-3.3-3.7-5.9-4.2
		c-1.4-0.3-2.7-1.2-3-2.6c-0.5-2.2-1.9-2.5-3.7-2.7c-1.6-0.1-3.5-0.1-4.7-0.9c-2.5-1.8-5.5-2.5-8.1-4.2c-2.7-1.7-5.6-3.2-8.3-4.9
		c-2.2-1.3-4.5-2.6-6.4-4.3c-3.8-3.4-7.4-7-10.9-10.7c-1.5-1.6-2.5-3.5-3.9-5.2c-1.7-2-2.1-4.7-3.3-6.9c-0.7-1.4-1.6-2.8-1.8-4.2
		c-0.5-3.8-2-7.5-1.7-11.5c0.1-1.6,0-3.2,0-4.8c-0.1-2.3-0.3-4.5-0.3-6.8c0-3.1,0-6.3,0-9.4c0-1.1-0.1-2.2,1.2-2.9
		c0.4-0.2,0.6-1,0.8-1.6c0.5-1.5,0.9-2.9,1.2-4.4c0.1-0.5,0.2-1.1,0.3-1.7c0.2-1.1,0.3-2.2,0.5-3.3c0.3-1.5,1-3.1,1.1-4.6
		c0.1-1.3-0.3-2.7-0.5-4.1c-0.2-0.8-0.1-1.5,0.4-2.3c0.9-1.6,1.8-3.3,2.1-5c0.3-2.1,0-4.3-0.1-6.5c0-0.8-0.1-1.6-0.2-2.4
		c-0.3-3.3,0.6-6.6-0.4-9.8c-0.2-0.6,0-1.3,0.1-1.9c0.6-3.5,0.9-7,0.4-10.6c-0.3-2-0.3-4,0.9-5.9c0.5,0,1.1,0.2,1.3,0
		c1-1.1,2-2.3,2.8-3.6c1.5-2.5,4.1-3.4,6.4-2.3c2.5,1.2,5.4,1.2,8.1,1c1.2-0.1,2.7-0.4,3.6-1.1c3.9-3.2,8.8-5.1,11.6-9.6
		c0.1-0.2,0.6-0.3,0.8-0.4c3.3-1.7,6.3-3.8,8.6-6.7c0.9-1.1,1.8-1.8,3.1-2.1c3-0.8,5.5-5.3,3.2-8.2c-1.1-1.4-2.1-3.3-2.1-5
		c0-1.8-0.7-3-1.2-4.5c-0.7-1.9-1-3.9-0.3-6c-1.7-1.4-1.7-1.4-0.8-3.2c0.2-0.3,0.3-0.8,0.2-1.1c-0.2-1.6,0.3-3.5-1.6-4.5
		c-0.2-0.1-0.3-0.4-0.3-0.6c-0.3-3-2.1-5.7-1.6-8.8c0.1-0.4-0.1-0.8-0.2-1.1c-0.8-2.8-1.7-5.5-2.5-8.3c-0.1-0.2,0-0.5-0.1-0.7
		c-0.3-1.2-0.4-2.5-0.9-3.7c-0.5-1.2-0.9-2.4-0.4-3.7c0.2-0.7,0-1.5-0.1-2.3c-0.2-1.2-0.7-2.3-0.9-3.4c-0.5-4.1-0.6-8.2-1.9-12.2
		c-1-3.1-1.8-6.2-2.5-9.4c-1-4.5-1.2-9.1-1.3-13.8c0-1.5-0.2-3.2-0.9-4.4c-0.7-1.3-1.4-2.5-1-4c0.1-0.7-0.2-1.4-0.3-2.1
		c-0.2-2-0.3-4-0.4-6c-0.1-1.3,0.1-2.6,0-3.8c-0.3-3.5-1.5-7-0.8-10.6c0.3-1.3-0.6-2-2-2c-0.6,0-1.2,0-1.7,0.1
		c-1.9,0.5-3.7,1.2-5.6,1.7c-2.2,0.6-4.3,1.3-6.5,1.8c-2.5,0.6-5,1.2-7.5,1.7c-1,0.2-2,0.3-3.1,0.4c-1.3,0.1-2.6,0.1-3.8,0.4
		c-2,0.4-3.9,1.1-5.8,1.6c-1.6,0.4-3.1,0.8-4.7,1c-3.1,0.4-6.3,0.6-9.4,1c-1,0.1-2,0.5-3.1,0.6c-2.3,0.4-4.6,0.6-6.8,1.1
		c-0.9,0.2-1.7,0.2-2.6-0.1c-1.8-0.7-3.6-1.8-5.8-0.9C374.4,276.7,373.7,276.2,373.2,276z M458.2,441.4c2.4,0,3-0.6,2.9-2.7
		c0-0.3,0.1-0.9,0.3-1c1.4-0.4,0.3-1.5,0.7-2.4c2.1,0.9,3.4,0,4.9-1.5c1.6-1.7,2.6-3.9,5.1-4.7c0.3-0.1,0.6-0.5,0.9-0.8
		c1-1,2.1-2,3.1-3c1.8-1.9,3.6-3.8,5.5-5.9c-0.5-0.4-0.8-0.7-1.2-1c-0.8-0.8-1.3-1.7-0.8-2.8c0.5-1,1.1-2,1.8-2.9
		c2-2.3,4.1-4.5,6.1-6.8c0.6-0.7,1.5-1.4,1.7-2.3c0.8-2.7,3.3-4.4,3.7-7.3c0-0.2,0.3-0.5,0.4-0.5c1.5-0.2,1.6-1.5,2.1-2.6
		c0.5-1.3,1.2-2.6,2.1-3.8c1.8-2.5,3.8-4.8,5.7-7.2c1.3-1.7,2.1-3.4,1-5.6c-0.7-1.5-1.2-3.2-1.7-4.8c-0.2-0.5-0.3-1.2-0.1-1.6
		c0.7-1.2,0.1-2.2-0.2-3.5c-0.7,1.3-1.5,2.3-1.9,3.4c-1,2.7-3.1,4.9-3.2,8c0,1.5-1.2,1.9-2.6,2.2c0.8,2-0.7,3-1.5,4.2
		c-2.5,3.7-5.1,7.3-7.6,11.1c-1.1,1.7-1.5,3.9-3.5,5.1c-0.3,0.2-0.4,0.8-0.6,1.3c-0.6,1.3-1,3-2,3.8c-1.1,0.8-1.5,1.8-2,2.8
		c-0.7,1.3-0.9,3-2.6,3.6c-0.2,0.1-0.2,0.4-0.4,0.6c-1.3,2-2.5,4.1-3.9,6.1c-0.8,1.2-1.4,2.5-2.8,3.2c-1.5,0.7-1.2,2.8-2.4,3.8
		c-0.4,0.3-0.1,1.4-0.1,2.1c-1.4,0.6-2.7,1.5-2.9,3.3c-0.1,0.5-0.1,1.2-0.4,1.3c-1.4,0.8-1.6,2.1-1.5,3.2c-1.4,1.1-2.8,1.8-3.8,3
		c-2.1,2.6-4,5.4-6,8.2c-0.2,0.3-0.2,0.7-0.3,1.1c2.1,1,3.6,0.5,5.2-1.6c0.6-0.7,1.2-1.5,1.9-2.1
		C458.4,443.5,458.8,442.6,458.2,441.4z M481,259.3c-1.7,3.9-3.3,7.6-4.9,11.4c-1.7,4.2-3.2,8.4-4.9,12.6c-1,2.5-2.4,5-3.4,7.5
		c-1.1,2.6-1.8,5.3-3.7,7.6c-0.6,0.8-0.9,1.9-1.2,2.9c-0.5,1.7-0.9,3.4-1.3,5.1c-0.1,0.3-0.3,0.5-0.5,0.8c-1.4,1.9-2.5,4-2.3,6.4
		c0.2,2.9,0.3,6,2.2,8.6c-2.1,1.8-0.2,3.3,0.2,4.9c2.3-1.1,2.7-3.3,3.1-5.1c0.6-2.5,1.7-4.7,2.9-6.8c1.7-3,3.2-6,4.2-9.2
		c0.1-0.5,0.2-1,0.5-1.4c3.5-5.1,6-10.7,8.7-16.2c0.8-1.7,0.8-4.2,3.6-4.5c-0.1-1.1-0.2-2.1-0.3-3c-0.4-2.9-0.8-5.7-1.2-8.6
		c-0.4-3.5-0.5-7.1-0.2-10.6C482.6,260.8,482.6,259.8,481,259.3z M485.1,291.8c-0.7,1.3-1.3,2.6-2,3.8c-0.5,0.8-1.2,1.5-1.6,2.3
		c-1.3,2.3-2.5,4.7-3.7,7.1c-0.7,1.4-1.2,2.8-2,4.1c-0.8,1.5-1.6,3-1.5,4.8c0,0.4-0.1,1-0.4,1.3c-1.8,2.3-3.1,4.8-4.4,7.4
		c-0.9,1.8-1.8,3.5-1.8,5.6c0,0.6-0.6,1.2-1,1.8c-0.4,0.7-1.2,1.2-1.4,1.9c-0.2,0.6,0.4,1.5,0.2,2.1c-0.2,0.5-1.3,0.6-1.7,1.1
		c-0.8,1-0.8,2.1-0.4,3.4c0.6,1.7,1.7,3.1,2,5c0.2,1.6,2.1,1.9,3.2,0.6c1.5-1.7,3.1-3.3,3.4-5.7c0-0.4,0.3-0.8,0.5-1.1
		c2.2-2.4,3.8-5.2,4.8-8.3c0.1-0.4,0.5-0.6,0.7-1c1.2-2.2,2.5-4.4,3.7-6.6c0.1-0.3,0.1-0.6,0.2-0.9c0.1-0.3,0.1-0.7,0.3-0.8
		c1.8-1.2,2.5-3.1,3.4-4.9c1-2,2.1-4,3.1-6c0.3-0.6,0.4-1.4,0.3-2c-0.4-2.1-1.2-4.2-1.5-6.3c-0.4-2.4-1.7-4.6-1.2-7.1
		C486.4,292.7,486.1,291.9,485.1,291.8z M483.7,352.9c0.8-1.4,1.2-3,2.7-3.8c0.4-0.2,0.3-1.2,0.6-1.8c0.4-0.9,0.7-2,1.3-2.8
		c2.4-2.7,3.8-5.9,5.3-9.2c0.2-0.5,0.3-1.4,0-1.9c-1.4-3.2-0.4-6.9-2.2-10.1c-0.5-0.8-0.5-1.9-0.7-2.8c-0.1-0.9-0.1-1.8-0.2-3.1
		c-1,1.9-1.8,3.4-2.6,4.8c-0.8,1.5-1.9,2.9-2.2,4.5c-0.5,2.3-1.5,4.3-2.9,6c-1.3,1.6-2.1,3.4-2.8,5.3c-0.8,2.1-1.5,4.2-2.3,6.4
		c1.3,1.1,3.4,1.4,2.8,4.1c-1.5-1.1-2.9-2-4.3-2.9c-3.5,3.2-4.3,6.2-3.9,8.6c-1.1,1-2.4,1.7-2.8,2.8c-0.9,2.4-0.5,5.1-0.3,7.6
		c0.2,1.7,1.3,3.3,2.1,5.2c-1.2,2.8-1.2,3,1,4.8c0.5-1.2,0.9-2.4,1.4-3.6c0.2-0.5,0.3-1.1,0.7-1.5c2.8-2.9,3.3-6.9,5.3-10.2
		c0.5-0.8,0.7-1.9,1.6-2.6c1-0.9,1.4-2.2,0.9-3.6c-0.1-0.2,0-0.4,0.1-0.7C482.9,352.7,483.2,352.8,483.7,352.9z M488.7,361.1
		c-0.6,0.3-1.1,0.5-1.6,0.7c-2.1,0.9-3.6,2.8-4.1,4.8c-0.7,2.7-2.3,5.4-1.4,8.7c-0.8-0.3-1.4-0.5-1.9-0.7c-0.8,1.3-1.6,2.4-2.2,3.6
		c-0.8,1.5-1.8,3-2.1,4.5c-0.4,2.8-1.5,5.9,0.7,8.5c0.1,0.2,0.1,0.5,0.2,0.7c0.3,0.4,0.7,0.7,1.1,1c1.6-1.8,2.8-3.6,2.6-6
		c0-0.3,0.3-0.8,0.6-1c0.9-0.5,0.8-1.3,1-2.1c0-0.1,0.2-0.2,0.4-0.4c0.4,0.3,0.8,0.6,1.3,0.9c1.5-2.3,3-4.4,4.4-6.5
		c0.6-0.9,0.8-2,1.6-2.7c1.8-1.7,2.5-4.4,4.7-5.8c0.2-0.1,0.3-0.6,0.5-0.8c1.3-2.1,2.4-4.4,3.9-6.4c1.7-2.4,1.9-4.4,0.3-6.9
		c-0.2-0.4-0.4-0.9-0.5-1.3c-0.2-1.7-0.3-3.5-0.4-5.2c-0.1-1.5-0.6-2.6-2.4-3.1c-1.9,2.6-3.6,5.3-5.2,8.1
		C488.7,356.1,487.6,358.3,488.7,361.1z M458,296.8c0.8-0.7,1.5-1.1,1.8-1.8c1-1.9,2-3.9,2.8-5.9c2.3-5.3,3.8-11,7-15.9
		c0.2-0.3,0.3-0.8,0.4-1.1c2.2-5.4,4.4-10.7,6.6-16.1c0.4-0.9,0.6-1.9,0.9-3c-0.7-0.1-1-0.2-1.3-0.2c-1.7,0.3-3.4,0.5-4.9,1.1
		c-1.4,0.5-3.2,0.4-4,2c-1.8,3.4-3.7,6.8-5.3,10.3c-1,2.3-1.4,5-2.3,7.4c-1.1,3-2.3,5.9-3.5,8.8c-0.4,0.9-0.5,1.8,0,2.8
		c0.4,0.8,0.5,1.8,0.6,2.8c0.2,2.3,0.3,4.7,0.5,7C457.4,295.4,457.7,295.9,458,296.8z M458.5,419.2c3.2-1.1,3.5-1.4,4.5-3.7
		c0.5,0.2,0.9,0.5,1.4,0.7c1.5-2.3,4-3.9,4-7.1c-0.9-0.3-1.6-0.4-2.2,0.6c-0.3,0.5-0.6,1.3-1.1,1.5c-1.1,0.4-1.5,1.3-2.3,2.1
		c-1,1-2.1,2.2-3.4,2.6c-1.3,0.5-2.5,1-3.6,1.8c-0.5,0.3-1.1,0.5-1.7,0.6c-1.7,0.3-3.4,0.9-4.3,2.3c-1.1,1.6-2.1,3.2-3,4.9
		c-1.5,2.6-2.6,5.4-4.8,7.5c-0.1,0.1-0.1,0.4-0.2,0.7c-0.8,3.6-2.3,6.8-5.4,9c-0.3,0.2-0.5,0.6-0.7,0.9c-0.6,1.3-1.2,2.6-1.7,4
		c-0.1,0.4,0,1.2,0.4,1.4c2.2,1.6,5.7,0.9,7.3-1.4c0.6-0.9,1.3-1.9,2-2.8c2.5-3.3,5.1-6.5,7.6-9.7c0.2-0.3,0.4-0.5,0.5-0.8
		c1.2-2.1,2.3-4.1,3.5-6.2c0.1-0.1,0.2-0.2,0.4-0.3c1-0.8,2-1.6,2.8-2.5c0.5-0.6,0.9-1.6,0.9-2.4
		C459.1,421.7,458.7,420.6,458.5,419.2z M509,385.4c-1.1-0.5-1.4,0-1.8,0.6c-0.6,1.1-1,2.2-1.7,3.2c-1.3,1.8-2.9,3.5-3.3,5.8
		c-0.1,0.3-0.4,0.5-0.5,0.8c-0.6,1-1.2,2.1-1.9,3.1c-0.6,0.9-1.2,1.9-1.9,2.8c-0.5,0.8-1.1,1.5-1.7,2.3c-0.5,0.7-1,1.4-1.5,2.1
		c-0.6,0.7-1.4,1.3-1.1,2.4c0.3,0.1,0.5,0.2,0.6,0.2c2.6-0.9,5.2-1.8,7.5-3.2c2.3-1.4,4.7-2.7,6.9-4.2c1-0.7,1.8-1.7,2.7-2.6
		c0.1-0.1,0.2-0.5,0.2-0.7c-0.4-2.4-0.6-4.8-1.5-7.1C509.5,389,508.9,387.3,509,385.4z M426.1,444.7c0.1,0.1,0.3,0.2,0.4,0.3
		c3.9-4.8,7.5-9.7,10.3-15.7c-1.6,0.1-2.7,0.3-3.7,0.2c-1.2-0.1-2.3-0.6-3.5-0.8c-0.7-0.1-1.4,0-2.3,0
		C426.9,434.3,426.5,439.5,426.1,444.7z M455.5,270.6c2.2-2.4,3-5.3,3.6-8.2c0.1-0.5-0.1-1.1-0.2-1.7c-0.2-0.8-0.9-1.2-1.7-1
		c-0.5,0.2-1.2,0.8-1.2,1.2c-0.1,1.5-0.8,2.7-1.6,4C453.4,266.4,453.9,269,455.5,270.6z M271.7,200.5c-0.4-0.7-0.8-1.2-1.7-0.8
		c-0.1,0.1-0.3,0.5-0.2,0.6C270.3,201.2,271,201,271.7,200.5z M467.4,347.4c-0.1-0.1-0.3-0.2-0.5-0.4c-0.1,0.1-0.2,0.3-0.2,0.4
		c0.1,0.2,0.3,0.3,0.4,0.4C467.2,347.7,467.3,347.6,467.4,347.4z"/>
	<path fill="#FFFFFF" d="M373.2,276c0.5,0.2,1.2,0.7,1.6,0.5c2.2-0.9,4,0.2,5.8,0.9c0.9,0.3,1.6,0.3,2.6,0.1
		c2.2-0.5,4.6-0.7,6.8-1.1c1-0.2,2-0.5,3.1-0.6c3.1-0.4,6.3-0.6,9.4-1c1.6-0.2,3.2-0.6,4.7-1c1.9-0.5,3.9-1.2,5.8-1.6
		c1.2-0.3,2.5-0.3,3.8-0.4c1-0.1,2.1-0.2,3.1-0.4c2.5-0.5,5-1.1,7.5-1.7c2.2-0.5,4.4-1.2,6.5-1.8c1.9-0.5,3.7-1.2,5.6-1.7
		c0.5-0.2,1.1-0.1,1.7-0.1c1.5,0,2.3,0.7,2,2c-0.7,3.6,0.6,7.1,0.8,10.6c0.1,1.3-0.1,2.6,0,3.8c0.1,2,0.2,4,0.4,6
		c0.1,0.7,0.4,1.5,0.3,2.1c-0.3,1.6,0.3,2.7,1,4c0.7,1.3,0.9,2.9,0.9,4.4c0.2,4.6,0.3,9.2,1.3,13.8c0.7,3.2,1.5,6.3,2.5,9.4
		c1.3,4,1.4,8.1,1.9,12.2c0.1,1.2,0.6,2.3,0.9,3.4c0.2,0.7,0.4,1.6,0.1,2.3c-0.5,1.4-0.1,2.5,0.4,3.7c0.5,1.2,0.6,2.5,0.9,3.7
		c0,0.2,0,0.5,0.1,0.7c0.8,2.8,1.7,5.5,2.5,8.3c0.1,0.4,0.3,0.8,0.2,1.1c-0.5,3.1,1.3,5.8,1.6,8.8c0,0.2,0.1,0.5,0.3,0.6
		c1.9,1,1.4,2.9,1.6,4.5c0,0.4,0,0.8-0.2,1.1c-0.9,1.8-0.9,1.8,0.8,3.2c-0.7,2-0.4,4,0.3,6c0.5,1.5,1.2,2.7,1.2,4.5
		c0,1.7,1,3.6,2.1,5c2.3,2.9-0.2,7.4-3.2,8.2c-1.3,0.3-2.2,1-3.1,2.1c-2.3,2.9-5.3,5-8.6,6.7c-0.3,0.1-0.7,0.2-0.8,0.4
		c-2.8,4.5-7.7,6.4-11.6,9.6c-0.9,0.7-2.4,1-3.6,1.1c-2.7,0.2-5.6,0.2-8.1-1c-2.2-1.1-4.9-0.2-6.4,2.3c-0.8,1.3-1.8,2.5-2.8,3.6
		c-0.2,0.2-0.9,0-1.3,0c-1.2,1.9-1.2,3.9-0.9,5.9c0.5,3.6,0.2,7.1-0.4,10.6c-0.1,0.6-0.3,1.3-0.1,1.9c1,3.3,0,6.6,0.4,9.8
		c0.1,0.8,0.1,1.6,0.2,2.4c0.1,2.2,0.4,4.4,0.1,6.5c-0.3,1.8-1.2,3.4-2.1,5c-0.4,0.8-0.5,1.4-0.4,2.3c0.3,1.3,0.6,2.7,0.5,4.1
		c-0.1,1.6-0.8,3.1-1.1,4.6c-0.2,1.1-0.3,2.2-0.5,3.3c-0.1,0.6-0.1,1.1-0.3,1.7c-0.4,1.5-0.8,3-1.2,4.4c-0.2,0.6-0.4,1.4-0.8,1.6
		c-1.4,0.6-1.2,1.7-1.2,2.9c0,3.1-0.1,6.3,0,9.4c0,2.3,0.2,4.5,0.3,6.8c0.1,1.6,0.2,3.2,0,4.8c-0.3,4,1.1,7.7,1.7,11.5
		c0.2,1.5,1.1,2.9,1.8,4.2c1.2,2.3,1.6,4.9,3.3,6.9c1.4,1.7,2.4,3.7,3.9,5.2c3.5,3.7,7.1,7.3,10.9,10.7c1.9,1.7,4.2,3,6.4,4.3
		c2.7,1.7,5.6,3.2,8.3,4.9c2.6,1.6,5.5,2.4,8.1,4.2c1.2,0.8,3.1,0.8,4.7,0.9c1.8,0.2,3.2,0.5,3.7,2.7c0.3,1.4,1.6,2.3,3,2.6
		c2.6,0.5,4.5,2,5.9,4.2c0.7,1.1,1.8,1.9,2.6,2.9c1.3,1.6,2.4,3.4,3.7,5.1c1.2,1.6,2.5,3.1,3.8,4.7c0.5,0.6,0.9,1.3,1.4,2
		c0.9,1.2,1.6,2.4,2.7,3.4c2,1.9,3.5,3.9,4.3,6.6c0.9,3,2.4,5.8,3.7,8.7c0.2,0.4,0.4,0.9,0.5,1.3c0.6,2.4,1.6,4.8,1.7,7.2
		c0,2.2,0.1,4.5-0.4,6.9c-0.8,3.4-2.1,6.6-3.7,9.6c-1.4,2.9-3.2,5.6-4.8,8.4c-0.3,0.6-0.7,1.1-0.9,1.7c-1.3,3.2-3.9,4.5-7.1,5.7
		c-0.1,0.2-0.3,0.6-0.4,1c-0.3,0.9-0.8,1.4-1.8,1.2c-1-0.2-1.6,0.3-2.3,1c-0.6,0.8-1.5,1.4-2.5,2.3c0.3,2.4-1.3,4.2-3.6,5.6
		c-0.8,0.5-1.4,1.1-2.1,1.7c-2.1,1.9-4.2,3.5-7.2,3.6c-0.5,0-1.1,0.3-1.5,0.7c-1.8,1.4-3.6,2.7-5.3,4.2c-1.7,1.4-3.4,2.7-5.9,1.9
		c-1.3-0.4-2.2,0.1-2.2,1.2c0.1,3.2-2.5,4.1-4.4,5.5c-1,0.7-1.9,1.3-2.4,2.5c-0.5,1.3-1.4,2.3-2.2,3.5c-3,5-6,10.1-9.1,15.1
		c-1.3,2.1-2.7,4.2-4.2,6.2c-0.8,1-2,1.6-2.8,2.7c-1.4,1.9-2.6,3.9-3.8,5.8c-1.1,1.8-2.4,3.2-4.4,4c-0.7,0.3-1.4,0.9-1.9,1.4
		c-1.2,1.1-2.4,2.2-3.3,3.5c-0.7,0.9-1.2,2.1-1.5,3.2c-0.7,2.3-2.4,2.9-4.1,1.1c-1.2-1.3-2.3-2.7-3.2-4.2c-1.5-2.2-3.1-4.3-5.2-6.1
		c-1.3-1.1-2.1-2.6-3.2-3.9c-2.6-3-5.3-5.9-7.9-8.9c-1-1.2-1.7-2.7-2.7-4c-2.3-3.1-4.7-6.2-6.9-9.3c-1.5-2.2-1.6-3.2,0.3-4.8
		c1.4-1.2,2.2-2.7,3.3-4.1c1.1-1.5,2-3.1,3.1-4.9c1.1-0.1,1.8-0.9,2-2.5c0.2-1.5,0.7-3.2,2.3-4.1c0.3-0.1,0.4-0.5,0.6-0.7
		c1.5-2.3,2.9-4.7,4.4-6.9c1.6-2.3,3.3-4.6,4.9-6.9c0.3-0.5,0.8-0.9,0.9-1.4c0.4-1.8,1.4-3,3.1-3.7c0.7-0.3,1.2-1,1-2
		c-0.3-2.3,1-3.9,2.6-5.4c0.6-0.5,1.4-1.1,1.5-1.8c0.3-1.6,1.2-2.8,2-4.1c0.6-1.1,1.2-2.3,1.6-3.5c1.2-3.4,2.3-6.9,3.3-10.4
		c0.4-1.5,0.3-3.2,1-4.5c1-1.8,1.2-3.7,1.5-5.6c0.2-1.3,0.1-2.6,0.1-3.9c0-3.4-0.1-6.8-0.1-10.2c0-1,0.4-2.2,0.2-3.1
		c-0.7-3.1-0.6-6.5-2.7-9.2c-1.1-1.4-2.5-2.5-4.3-2.8c-2.4-0.3-4.6-0.8-6-3.1c-0.4-0.6-1.5-0.9-2.4-0.9c-1.9,0-3.3-0.6-4-2.5
		c-0.2-0.5-0.6-1.1-1-1.3c-2.8-1.5-3.7-4.5-5.8-6.6c-1.4-1.4-2.6-3.2-4.5-4.2c-0.9-0.4-1.7-1.3-2.4-2c-0.8-0.8-1.6-1.1-2.6-0.4
		c-1.4,1-2.9,1-4.4,0.5c-1.3-0.4-2.3-0.2-3.3,0.9c-1.1,1.2-2.2,2.3-3.4,3.5c-0.5,0.5-1,1.1-1.6,1.4c-2.4,1.3-4.2,3.3-6.2,5
		c-2.1,1.8-4.3,3.4-6.4,5.2c-2.2,1.8-4.3,3.7-6.3,5.6c-0.4,0.4-0.7,0.9-0.8,1.5c-0.3,2.7-2.5,4.1-4.3,5.6c-2,1.7-4.2,3.3-6.1,5.1
		c-1.1,1-1.3,2.5-0.4,3.8c1.7,2.3,3.5,4.4,5.2,6.6c0.6,0.8,1.3,1.4,2,2.1c2.4,2.5,3,5.9,3.8,9.1c0.3,1.1-0.3,2.4-0.4,3.6
		c-0.1,1.2-0.2,2.4-0.1,3.6c0.3,2.2,0.7,4.3,1,6.5c0.1,1,0.2,2,0,2.9c-0.6,3.2-1.4,6.5-2.2,9.6c-0.3,1.2-1.3,2-2.6,1.7
		c-2.9-0.5-5.7,0.5-8.6,0c-1.9-0.3-4,0.4-5.9,0.5c-1.8,0.1-3.7,0.2-5.4-0.9c-1-0.6-2.1-0.8-3.2,0.4c-1.1,1.2-3.4,0.7-4.8-0.9
		c-1.2,0.5-2.3,1-3.5,1.5c-2.6,1.2-5.4,1.5-8.3,1.6c-6.1,0-12.1,0.1-18.2,0.1c-0.5,0-1,0.1-1.4,0.2c-2.7,0.7-5.5,1.4-8.2,2.2
		c-4.9,1.5-9.9,2.5-15,2.9c-5.2,0.4-10.5,1.2-15.7,1.9c-9.8,1.4-19.5,3-29.3,4.5c-5.4,0.8-10.8,0.4-16.2,0c-2-0.2-3.3-1.9-4.7-3.2
		c-0.7-0.7-1.5-1.5-2.4-1.9c-4.9-2-8.7-5.3-12.2-9.1c-2.9-3.3-5.7-6.7-8.7-9.8c-2.7-2.8-5.8-5-9.7-6.1c-8.8-2.5-11.8-10.9-9.9-17.7
		c0.2-0.7,0.2-1.7-0.1-2.3c-0.7-1.3-0.3-2.2,0.4-3.1c2.2-2.7,4.6-5.2,6.7-7.9c1.8-2.3,3.5-4.7,5.2-7c1.5-2.1,3-4.1,5.5-5.3
		c1.5-0.7,2.8-2.2,3.9-3.6c1-1.3,2.5-1.3,3.7-2.2c0.7-0.6,1.7-0.9,2.4-1.5c2.6-2,5-4.1,7.7-6c1.6-1.1,3.2-2.2,5-3
		c3.5-1.7,4.3-4.7,4.6-8.2c0.3-3.3,0.7-6.5,1.7-9.7c0.6-2,1-4.1,1.4-6.1c0.4-1.7,0.7-3.5,1-5.2c0.6-3.8,1.2-7.7,1.5-11.5
		c0.3-4.6,1.5-9.1,0.5-13.8c-0.2-0.8,0-1.8,0.1-2.7c0.1-0.7,0.3-1.5,0.2-2.2c-0.4-3.5,0.2-6.9,0.5-10.3c0.1-1.4-0.6-2.8-0.9-4.2
		c-0.3-1.2-0.8-2.3-1-3.4c-0.3-1.7-1.1-2.8-2.6-3.8c-1.6-1-3.8-1.8-4.1-4.2c-1.8-1.1-2.9-2.8-4.2-4.2c-1.6-1.8-3.4-3.4-4.1-5.9
		c-0.1-0.5-0.6-1-1-1.4c-2.9-3.6-5.8-7.1-8.1-11.1c-1.1-1.9-2-3.8-3-5.7c-0.1-0.3-0.2-0.7-0.5-0.8c-2.6-1.5-3-4.5-4.5-6.7
		c-0.8-1.2-1.6-2.4-2.4-3.6c-1-1.3-2-2.7-3.1-3.9c-1.1-1.3-2.4-2.3-3.5-3.6c-0.6-0.7-1.1-1.6-1.4-2.5c-0.7-1.9-2-3-3.7-3.9
		c-2.1-1-4.1-2.2-6.1-3.4c-0.1-0.1-0.3-0.2-0.4-0.3c-3.2-0.4-6.4-1-9.6-1.1c-1.1,0-2.3,1-3.4,1.5c-1.4,0.6-2.8,1.3-4.2,1.8
		c-1.7,0.6-3.3,1.3-5.2,0.9c-0.1,0-0.2,0-0.2,0c-3.1,1.1-4.9-1.2-7.2-2.5c-0.8-0.5-1.6-1.1-2.3-1.6c-0.2-0.2-0.5-0.4-0.6-0.7
		c-1-1.8-2.1-3.5-3-5.3c-1.3-2.7-2.5-5.4-3.5-8.2c-1.1-3.2-1.8-6.5-2.8-9.7c-0.8-2.5-0.6-5,0.2-7.4c0.9-2.8,0.7-5.7,1-8.5
		c0.3-3.1-0.3-6.2,0-9.3c0.3-2.8,0.2-5.6,1.2-8.3c0.1-0.4,0.2-0.8,0.2-1.2c-0.5-3.6,0.8-6.8,2.1-10c0.3-0.7,0.4-1.4,0.4-2.1
		c0.2-2.3,0.4-4.5,0.5-6.8c0.1-1.5,0.3-3,1.1-4.4c0.9-1.7,1.3-3.6,1.9-5.4c0-0.1,0-0.3,0-0.5c-1-1.7-0.2-2.9,0.6-4.6
		c1.9-3.7,3.2-7.6,4.6-11.5c0.8-2.1,1.3-4.3,1.9-6.5c0.1-0.2,0.1-0.6,0.3-0.7c1.6-0.9,1.5-2.5,1.7-4.1c0.2-1.1,0.4-1.2,1.8-1
		c1-2.8,0.1-5.9,1.4-8.6c0-0.1,0.1-0.2,0.1-0.2c-0.3-2.4,0.2-4.8,0.5-7.2c0.4-5.1,0.2-10.2,0.1-15.3c0-2.4-0.4-4.8-0.8-7.2
		c-0.5-2.9-1.3-5.8-0.6-8.9c0.3-1.2-0.5-2.5-0.5-3.8c-0.1-2.2,0-4.3,0-6.5c0-1.5,0.1-3.1,0-4.6c0-2.9,2.1-4.4,4.1-5.9
		c0.9-0.7,2-1.4,2.9-2.1c1.8-1.3,3.7-2.6,5.5-4c1.1-0.9,2-2.1,2.9-3.2c0.9-1.2,1.7-2.2,3.3-2.6c2.3-0.6,3.8-2.4,5.1-4.1
		c1.6-2.2,3.2-4.1,5.6-5.6c1.8-1.1,3.1-3,4.7-4.4c0.8-0.7,1.6-1.3,2.5-1.9c0.2-0.2,0.6-0.4,0.7-0.6c0.5-2.8,3.4-3.8,4.6-6.1
		c0.1-0.1,0.2-0.3,0.3-0.3c1.9-0.7,3.1-2.3,4.3-3.8c1.6-2.1,4-3.1,6.2-4.5c1.8-1.1,3.6-2.1,4.7-4.3c0.5-1.1,2-1.9,3.1-2.6
		c2.9-2,5.9-3.7,8.3-6.2c0.4-0.4,0.9-0.7,1.4-0.9c0.4-0.2,1-0.3,1.3-0.7c1.8-2.6,4.8-3.9,7.1-6.1c2.2-2.1,4.7-3.9,7.2-5.6
		c1.2-0.9,2.8-0.4,3.9,0.6c3.2,2.6,6.9,4.1,10.6,5.7c2.3,1,4.5,2.3,6.7,3.4c2.2,1.1,4.5,2.2,6.7,3.2c2.9,1.4,5.9,2.7,8.8,4.1
		c1,0.5,1.8,1.3,2.8,1.9c0.7,0.4,1.4,0.6,2.1,0.9c3.5,1.2,7,2.4,10.5,3.8c1.2,0.5,2.3,1,3.5,0.3c1.2,1,2.4,2,3.5,2.9
		c0.7,0.6,3.1,1.6,4.1,1.8c0.6,0.1,1.2,0.4,1.7,0.8c0.8,0.6,1.4,1.4,2.2,1.9c1.1,0.7,2.3,1.2,4,1.9c0.8,2.5,3.3,4.3,5.7,6.2
		c1.9,1.5,3.7,3,5.9,4.1c1.6,0.8,2.7,2.4,3.9,3.8c1.4,1.6,2.3,3.7,4.7,4.3c0.8,0.2,1.4,1.1,1.9,1.8c0.9,1.1,1.6,2.5,3.1,3
		c0.3,0.1,0.5,0.4,0.7,0.7c1.1,1.9,2.2,3.9,3.3,5.8c0.2,0.4,0.5,0.8,0.9,1.1c2.5,2.2,4.3,5,6.6,7.4c1.3,1.4,2.4,3.2,4.5,3.8
		c1.2,0.3,1.9,1.5,2.3,2.7c0.3,1,0.8,1.6,2,1.8c0.7,0.1,1.4,1,1.9,1.7c1.4,2.1,3,3.6,5.5,4.3c1.5,0.5,3.7,0.4,4.1,2.7
		c2.8,0,4.5,2.1,7,3.2c0.5-0.5,1-1,1.6-1.7c0.3,0.2,0.7,0.3,0.9,0.6c0.9,1.4,1.8,2.8,2.7,4.2c0.9,1.3,2.4,1.6,3.8,1.7
		c1.8,0.2,3.5,0.4,5,1.8c0.6,0.5,1.6,0.6,2.4,0.9c0.5,0.1,1.4-0.1,1.6,0.2c1,1.9,3.2,1.2,4.7,2.5c0.4-0.7,0.8-1.3,1.2-1.9
		c0.2,0,0.5,0,0.7,0.2c2.1,2.2,4.7,2.3,7.4,1.9C372.8,276.5,373,276.2,373.2,276L373.2,276z"/>
	<path fill="#FFFFFF" d="M458.2,441.4c0.5,1.2,0.1,2.1-0.9,2.9c-0.7,0.6-1.3,1.4-1.9,2.1c-1.6,2.1-3.1,2.6-5.2,1.6
		c0.1-0.3,0.1-0.8,0.3-1.1c2-2.8,3.9-5.6,6-8.2c0.9-1.1,2.3-1.9,3.8-3c0-1.1,0.1-2.4,1.5-3.2c0.3-0.2,0.4-0.9,0.4-1.3
		c0.2-1.8,1.5-2.7,2.9-3.3c0-0.8-0.3-1.8,0.1-2.1c1.3-1.1,1-3.1,2.4-3.8c1.4-0.7,2-2,2.8-3.2c1.4-2,2.6-4.1,3.9-6.1
		c0.1-0.2,0.2-0.5,0.4-0.6c1.6-0.7,1.9-2.3,2.6-3.6c0.5-1,0.9-2,2-2.8c1-0.8,1.4-2.5,2-3.8c0.2-0.4,0.3-1.1,0.6-1.3
		c2-1.2,2.3-3.4,3.5-5.1c2.5-3.7,5.1-7.4,7.6-11.1c0.8-1.2,2.3-2.2,1.5-4.2c1.3-0.2,2.5-0.7,2.6-2.2c0.1-3.1,2.2-5.3,3.2-8
		c0.4-1.1,1.2-2.1,1.9-3.4c0.4,1.3,0.9,2.2,0.2,3.5c-0.2,0.4-0.1,1.1,0.1,1.6c0.5,1.6,1,3.3,1.7,4.8c1.1,2.2,0.3,3.9-1,5.6
		c-1.9,2.4-3.8,4.7-5.7,7.2c-0.9,1.2-1.5,2.5-2.1,3.8c-0.5,1.1-0.5,2.4-2.1,2.6c-0.2,0-0.4,0.3-0.4,0.5c-0.4,2.8-2.9,4.6-3.7,7.3
		c-0.3,0.9-1.1,1.6-1.7,2.3c-2,2.3-4.1,4.5-6.1,6.8c-0.7,0.8-1.3,1.9-1.8,2.9c-0.6,1.1,0,2,0.8,2.8c0.3,0.3,0.7,0.6,1.2,1
		c-1.9,2-3.7,4-5.5,5.9c-1,1-2.1,2-3.1,3c-0.3,0.3-0.5,0.7-0.9,0.8c-2.4,0.8-3.5,3-5.1,4.7c-1.4,1.5-2.7,2.5-4.9,1.5
		c-0.3,0.8,0.7,2-0.7,2.4c-0.2,0.1-0.3,0.7-0.3,1C461.2,440.7,460.6,441.4,458.2,441.4z M464.1,432c0.1,0.9,0.1,1.6,0.2,2.3
		c1.2,0.1,1.1-0.6,1.1-1.2C465.3,432.5,465.4,431.7,464.1,432z"/>
	<path fill="#FFFFFF" d="M481,259.3c1.7,0.5,1.7,1.5,1.6,2.4c-0.4,3.6-0.3,7.1,0.2,10.6c0.4,2.9,0.8,5.7,1.2,8.6
		c0.1,0.9,0.2,1.9,0.3,3c-2.8,0.3-2.8,2.8-3.6,4.5c-2.7,5.5-5.3,11.1-8.7,16.2c-0.3,0.4-0.3,0.9-0.5,1.4c-1,3.2-2.5,6.2-4.2,9.2
		c-1.2,2.1-2.4,4.3-2.9,6.8c-0.4,1.8-0.9,4-3.1,5.1c-0.4-1.7-2.3-3.1-0.2-4.9c-1.8-2.6-1.9-5.7-2.2-8.6c-0.2-2.4,0.9-4.5,2.3-6.4
		c0.2-0.2,0.4-0.5,0.5-0.8c0.5-1.7,0.8-3.4,1.3-5.1c0.3-1,0.6-2.1,1.2-2.9c1.8-2.3,2.5-5,3.7-7.6c1.1-2.5,2.4-4.9,3.4-7.5
		c1.7-4.2,3.2-8.4,4.9-12.6C477.6,266.9,479.3,263.2,481,259.3z"/>
	<path fill="#FFFFFF" d="M485.1,291.8c0.9,0.1,1.3,0.8,1.2,1.5c-0.5,2.5,0.9,4.7,1.2,7.1c0.3,2.1,1.1,4.2,1.5,6.3
		c0.1,0.6,0,1.4-0.3,2c-1,2-2.1,4-3.1,6c-0.9,1.8-1.6,3.7-3.4,4.9c-0.2,0.1-0.2,0.5-0.3,0.8c-0.1,0.3,0,0.7-0.2,0.9
		c-1.2,2.2-2.4,4.4-3.7,6.6c-0.2,0.3-0.6,0.6-0.7,1c-1,3.1-2.6,5.9-4.8,8.3c-0.3,0.3-0.5,0.7-0.5,1.1c-0.3,2.4-1.9,4.1-3.4,5.7
		c-1.1,1.3-3,1-3.2-0.6c-0.3-1.9-1.4-3.3-2-5c-0.4-1.3-0.4-2.4,0.4-3.4c0.4-0.5,1.5-0.6,1.7-1.1c0.2-0.5-0.4-1.4-0.2-2.1
		c0.2-0.7,0.9-1.3,1.4-1.9c0.4-0.6,1-1.2,1-1.8c0-2.1,0.9-3.8,1.8-5.6c1.3-2.6,2.7-5.1,4.4-7.4c0.3-0.3,0.4-0.9,0.4-1.3
		c-0.2-1.8,0.6-3.3,1.5-4.8c0.7-1.3,1.3-2.8,2-4.1c1.2-2.4,2.4-4.7,3.7-7.1c0.4-0.8,1.1-1.5,1.6-2.3
		C483.9,294.4,484.5,293.2,485.1,291.8z"/>
	<path fill="#FFFFFF" d="M483.7,352.9c-0.5-0.1-0.9-0.2-1.3-0.4c0,0.2-0.1,0.5-0.1,0.7c0.5,1.4,0.1,2.6-0.9,3.6
		c-0.8,0.7-1,1.8-1.6,2.6c-2,3.3-2.5,7.3-5.3,10.2c-0.4,0.4-0.5,1-0.7,1.5c-0.5,1.2-0.9,2.3-1.4,3.6c-2.1-1.8-2.2-2-1-4.8
		c-0.8-1.9-1.9-3.5-2.1-5.2c-0.3-2.5-0.7-5.2,0.3-7.6c0.4-1,1.7-1.8,2.8-2.8c-0.4-2.4,0.4-5.4,3.9-8.6c1.4,0.9,2.7,1.8,4.3,2.9
		c0.6-2.6-1.5-3-2.8-4.1c0.8-2.2,1.5-4.3,2.3-6.4c0.7-1.9,1.5-3.7,2.8-5.3c1.4-1.8,2.4-3.7,2.9-6c0.3-1.6,1.4-3,2.2-4.5
		c0.8-1.5,1.6-2.9,2.6-4.8c0.1,1.3,0.1,2.2,0.2,3.1c0.1,1,0.2,2,0.7,2.8c1.8,3.2,0.8,6.9,2.2,10.1c0.2,0.5,0.2,1.4,0,1.9
		c-1.4,3.2-2.8,6.5-5.3,9.2c-0.7,0.7-0.9,1.8-1.3,2.8c-0.2,0.6-0.2,1.5-0.6,1.8C484.9,349.9,484.5,351.5,483.7,352.9z"/>
	<path fill="#FFFFFF" d="M488.7,361.1c-1-2.8,0-5,1.4-7.3c1.6-2.8,3.3-5.5,5.2-8.1c1.8,0.5,2.3,1.6,2.4,3.1c0.1,1.7,0.2,3.5,0.4,5.2
		c0,0.4,0.2,0.9,0.5,1.3c1.5,2.5,1.3,4.5-0.3,6.9c-1.4,2-2.6,4.3-3.9,6.4c-0.2,0.3-0.2,0.7-0.5,0.8c-2.2,1.4-2.9,4-4.7,5.8
		c-0.7,0.7-1,1.8-1.6,2.7c-1.4,2.1-2.9,4.3-4.4,6.5c-0.5-0.3-0.9-0.6-1.3-0.9c-0.2,0.2-0.4,0.2-0.4,0.4c-0.1,0.8-0.1,1.6-1,2.1
		c-0.3,0.2-0.6,0.7-0.6,1c0.3,2.4-0.9,4.2-2.6,6c-0.3-0.3-0.7-0.6-1.1-1c-0.1-0.2-0.1-0.5-0.2-0.7c-2.2-2.7-1.1-5.7-0.7-8.5
		c0.2-1.6,1.3-3.1,2.1-4.5c0.6-1.2,1.4-2.3,2.2-3.6c0.6,0.2,1.1,0.4,1.9,0.7c-0.9-3.3,0.7-5.9,1.4-8.7c0.5-2,2-3.9,4.1-4.8
		C487.5,361.6,488,361.4,488.7,361.1z"/>
	<path fill="#FFFFFF" d="M458,296.8c-0.3-0.9-0.6-1.4-0.7-1.9c-0.2-2.3-0.3-4.7-0.5-7c-0.1-0.9-0.2-1.9-0.6-2.8
		c-0.5-1-0.3-1.8,0-2.8c1.2-2.9,2.5-5.8,3.5-8.8c0.9-2.4,1.2-5.1,2.3-7.4c1.6-3.5,3.5-6.9,5.3-10.3c0.8-1.5,2.6-1.5,4-2
		c1.6-0.6,3.3-0.7,4.9-1.1c0.3-0.1,0.6,0.1,1.3,0.2c-0.3,1.1-0.5,2.1-0.9,3c-2.2,5.4-4.4,10.8-6.6,16.1c-0.2,0.4-0.2,0.8-0.4,1.1
		c-3.2,4.9-4.8,10.5-7,15.9c-0.8,2-1.8,4-2.8,5.9C459.5,295.6,458.8,296.1,458,296.8z"/>
	<path fill="#FFFFFF" d="M458.5,419.2c0.2,1.3,0.6,2.5,0.6,3.7c0,0.8-0.4,1.7-0.9,2.4c-0.8,1-1.9,1.7-2.8,2.5
		c-0.1,0.1-0.3,0.2-0.4,0.3c-1.2,2.1-2.3,4.1-3.5,6.2c-0.2,0.3-0.3,0.6-0.5,0.8c-2.5,3.2-5.1,6.5-7.6,9.7c-0.7,0.9-1.3,1.8-2,2.8
		c-1.5,2.3-5.1,3-7.3,1.4c-0.3-0.2-0.5-1-0.4-1.4c0.5-1.4,1.1-2.7,1.7-4c0.2-0.4,0.4-0.7,0.7-0.9c3.1-2.2,4.5-5.5,5.4-9
		c0.1-0.2,0-0.5,0.2-0.7c2.2-2.2,3.3-4.9,4.8-7.5c0.9-1.6,2-3.3,3-4.9c1-1.5,2.6-2,4.3-2.3c0.6-0.1,1.2-0.3,1.7-0.6
		c1.1-0.8,2.3-1.3,3.6-1.8c1.3-0.4,2.4-1.6,3.4-2.6c0.7-0.7,1.2-1.7,2.3-2.1c0.5-0.2,0.8-0.9,1.1-1.5c0.6-1.1,1.3-1,2.2-0.6
		c0.1,3.2-2.4,4.8-4,7.1c-0.4-0.2-0.9-0.5-1.4-0.7C461.9,417.9,461.6,418.1,458.5,419.2z M456.2,423.7c0.4-0.1,0.8-0.3,1.2-0.4
		c-0.2-0.2-0.4-0.4-0.6-0.6C456.6,423,456.4,423.4,456.2,423.7c-0.2,0.5-0.5,1-0.8,1.5c0.2,0.1,0.4,0.1,0.6,0.2
		C456,424.8,456.1,424.2,456.2,423.7z"/>
	<path fill="#FFFFFF" d="M509,385.4c-0.1,1.9,0.5,3.6,1.1,5.4c0.8,2.2,1,4.7,1.5,7.1c0,0.2,0,0.5-0.2,0.7c-0.9,0.9-1.7,1.9-2.7,2.6
		c-2.2,1.5-4.6,2.9-6.9,4.2c-2.4,1.4-4.9,2.3-7.5,3.2c-0.1,0-0.3-0.1-0.6-0.2c-0.3-1.1,0.5-1.7,1.1-2.4c0.6-0.7,1-1.4,1.5-2.1
		c0.6-0.8,1.1-1.5,1.7-2.3c0.6-0.9,1.3-1.8,1.9-2.8c0.6-1,1.2-2,1.9-3.1c0.2-0.3,0.5-0.5,0.5-0.8c0.4-2.3,2.1-4,3.3-5.8
		c0.7-1,1.1-2.1,1.7-3.2C507.6,385.4,508,384.9,509,385.4z"/>
	<path fill="#FFFFFF" d="M426.1,444.7c0.4-5.2,0.7-10.4,1.1-15.9c1,0,1.7-0.1,2.3,0c1.2,0.2,2.3,0.7,3.5,0.8
		c1.1,0.1,2.2-0.1,3.7-0.2c-2.9,6-6.4,10.9-10.3,15.7C426.4,444.9,426.3,444.8,426.1,444.7z"/>
	<path fill="#FFFFFF" d="M455.5,270.6c-1.6-1.6-2.1-4.2-1.1-5.7c0.8-1.2,1.5-2.4,1.6-4c0-0.4,0.7-1,1.2-1.2c0.8-0.2,1.4,0.2,1.7,1
		c0.2,0.5,0.3,1.1,0.2,1.7C458.5,265.3,457.7,268.1,455.5,270.6z"/>
	<path fill="#FFFFFF" d="M271.7,200.5c-0.8,0.5-1.4,0.6-1.8-0.2c-0.1-0.1,0.1-0.5,0.2-0.6C270.9,199.4,271.3,199.9,271.7,200.5z"/>
	<path fill="#FFFFFF" d="M373.2,276c-0.7,0-1.5-0.1-2.2-0.1C372.2,275.1,372.2,275.1,373.2,276C373.2,276,373.2,276,373.2,276z"/>
	<path fill="#FFFFFF" d="M467.4,347.4c-0.1,0.2-0.2,0.3-0.3,0.5c-0.1-0.1-0.3-0.3-0.4-0.4c0-0.1,0.1-0.2,0.2-0.4
		C467.1,347.2,467.3,347.3,467.4,347.4z"/>
	<path d="M464.1,432c1.3-0.3,1.2,0.5,1.3,1.1c0.1,0.6,0.1,1.3-1.1,1.2C464.2,433.6,464.1,432.9,464.1,432z"/>
	<path d="M456.2,423.7c0.2-0.4,0.4-0.7,0.6-1.1c0.2,0.2,0.4,0.4,0.6,0.6C456.9,423.4,456.6,423.5,456.2,423.7L456.2,423.7z"/>
	<path d="M456.2,423.7c-0.1,0.6-0.2,1.1-0.3,1.7c-0.2-0.1-0.4-0.1-0.6-0.2C455.6,424.7,455.9,424.2,456.2,423.7
		C456.2,423.7,456.2,423.7,456.2,423.7z"/>
</g>
</svg>
